M48
; DRILL file {KiCad 5.1.9+dfsg1-1} date Sun Mar  7 18:24:01 2021
; FORMAT={-:-/ absolute / inch / decimal}
; #@! TF.CreationDate,2021-03-07T18:24:01+01:00
; #@! TF.GenerationSoftware,Kicad,Pcbnew,5.1.9+dfsg1-1
FMAT,2
INCH
T1C0.0157
T2C0.0276
T3C0.0315
T4C0.0394
T5C0.0866
%
G90
G05
T1
X0.5Y-0.9764
X0.5166Y-1.7
X0.5177Y-1.0728
X0.5197Y-1.1555
X0.625Y-1.615
X0.685Y-1.615
X0.7087Y-1.9902
X0.7598Y-1.8209
X0.76Y-0.72
X0.76Y-0.77
X0.76Y-0.84
X0.7608Y-1.3543
X0.7629Y-1.9871
X0.7647Y-1.02
X0.7654Y-1.075
X0.7665Y-1.1593
X0.7665Y-1.215
X0.7665Y-1.2911
X0.7665Y-1.41
X0.7665Y-1.46
X0.7665Y-1.51
X0.7665Y-1.5702
X0.77Y-2.25
X0.77Y-2.3
X0.77Y-2.36
T2
X0.5256Y-2.248
X0.5256Y-2.448
T3
X0.5697Y-1.9259
X0.6202Y-1.88
X0.7094Y-1.9216
X0.76Y-1.8757
T4
X0.54Y-0.65
X0.64Y-0.65
X0.64Y-1.76
X0.64Y-2.48
X0.74Y-0.65
X0.74Y-1.76
X0.74Y-2.48
T5
X0.64Y-2.31
T0
M30
