G04 #@! TF.GenerationSoftware,KiCad,Pcbnew,5.1.9+dfsg1-1*
G04 #@! TF.CreationDate,2021-03-07T18:24:07+01:00*
G04 #@! TF.ProjectId,powerleaf,706f7765-726c-4656-9166-2e6b69636164,rev?*
G04 #@! TF.SameCoordinates,Original*
G04 #@! TF.FileFunction,Soldermask,Bot*
G04 #@! TF.FilePolarity,Negative*
%FSLAX46Y46*%
G04 Gerber Fmt 4.6, Leading zero omitted, Abs format (unit mm)*
G04 Created by KiCad (PCBNEW 5.1.9+dfsg1-1) date 2021-03-07 18:24:07*
%MOMM*%
%LPD*%
G01*
G04 APERTURE LIST*
%ADD10C,2.600000*%
%ADD11C,2.000000*%
%ADD12C,1.800000*%
%ADD13O,1.800000X1.800000*%
%ADD14O,2.100000X2.100000*%
G04 APERTURE END LIST*
D10*
X16256000Y-58674000D03*
G36*
G01*
X14509563Y-48054428D02*
X15185752Y-46604335D01*
G75*
G02*
X15451538Y-46507597I181262J-84524D01*
G01*
X16901631Y-47183786D01*
G75*
G02*
X16998369Y-47449572I-84524J-181262D01*
G01*
X16322180Y-48899665D01*
G75*
G02*
X16056394Y-48996403I-181262J84524D01*
G01*
X14606301Y-48320214D01*
G75*
G02*
X14509563Y-48054428I84524J181262D01*
G01*
G37*
D11*
X18019735Y-48808547D03*
G36*
G01*
X13225298Y-49220970D02*
X13901487Y-47770877D01*
G75*
G02*
X14167273Y-47674139I181262J-84524D01*
G01*
X15617366Y-48350328D01*
G75*
G02*
X15714104Y-48616114I-84524J-181262D01*
G01*
X15037915Y-50066207D01*
G75*
G02*
X14772129Y-50162945I-181262J84524D01*
G01*
X13322036Y-49486756D01*
G75*
G02*
X13225298Y-49220970I84524J181262D01*
G01*
G37*
X19304000Y-47642003D03*
G36*
G01*
X16450000Y-27789894D02*
X16450000Y-26610106D01*
G75*
G02*
X16785106Y-26275000I335106J0D01*
G01*
X17689894Y-26275000D01*
G75*
G02*
X18025000Y-26610106I0J-335106D01*
G01*
X18025000Y-27789894D01*
G75*
G02*
X17689894Y-28125000I-335106J0D01*
G01*
X16785106Y-28125000D01*
G75*
G02*
X16450000Y-27789894I0J335106D01*
G01*
G37*
G36*
G01*
X14375000Y-27789894D02*
X14375000Y-26610106D01*
G75*
G02*
X14710106Y-26275000I335106J0D01*
G01*
X15614894Y-26275000D01*
G75*
G02*
X15950000Y-26610106I0J-335106D01*
G01*
X15950000Y-27789894D01*
G75*
G02*
X15614894Y-28125000I-335106J0D01*
G01*
X14710106Y-28125000D01*
G75*
G02*
X14375000Y-27789894I0J335106D01*
G01*
G37*
G36*
G01*
X16450000Y-29939894D02*
X16450000Y-28760106D01*
G75*
G02*
X16785106Y-28425000I335106J0D01*
G01*
X17689894Y-28425000D01*
G75*
G02*
X18025000Y-28760106I0J-335106D01*
G01*
X18025000Y-29939894D01*
G75*
G02*
X17689894Y-30275000I-335106J0D01*
G01*
X16785106Y-30275000D01*
G75*
G02*
X16450000Y-29939894I0J335106D01*
G01*
G37*
G36*
G01*
X14375000Y-29939894D02*
X14375000Y-28760106D01*
G75*
G02*
X14710106Y-28425000I335106J0D01*
G01*
X15614894Y-28425000D01*
G75*
G02*
X15950000Y-28760106I0J-335106D01*
G01*
X15950000Y-29939894D01*
G75*
G02*
X15614894Y-30275000I-335106J0D01*
G01*
X14710106Y-30275000D01*
G75*
G02*
X14375000Y-29939894I0J335106D01*
G01*
G37*
D12*
X13350000Y-57100000D03*
D13*
X13350000Y-62180000D03*
G36*
G01*
X17106000Y-64042000D02*
X15406000Y-64042000D01*
G75*
G02*
X15206000Y-63842000I0J200000D01*
G01*
X15206000Y-62142000D01*
G75*
G02*
X15406000Y-61942000I200000J0D01*
G01*
X17106000Y-61942000D01*
G75*
G02*
X17306000Y-62142000I0J-200000D01*
G01*
X17306000Y-63842000D01*
G75*
G02*
X17106000Y-64042000I-200000J0D01*
G01*
G37*
D14*
X18796000Y-62992000D03*
G36*
G01*
X17946000Y-15460000D02*
X19646000Y-15460000D01*
G75*
G02*
X19846000Y-15660000I0J-200000D01*
G01*
X19846000Y-17360000D01*
G75*
G02*
X19646000Y-17560000I-200000J0D01*
G01*
X17946000Y-17560000D01*
G75*
G02*
X17746000Y-17360000I0J200000D01*
G01*
X17746000Y-15660000D01*
G75*
G02*
X17946000Y-15460000I200000J0D01*
G01*
G37*
X16256000Y-16510000D03*
X13716000Y-16510000D03*
X16256000Y-44704000D03*
G36*
G01*
X17946000Y-43654000D02*
X19646000Y-43654000D01*
G75*
G02*
X19846000Y-43854000I0J-200000D01*
G01*
X19846000Y-45554000D01*
G75*
G02*
X19646000Y-45754000I-200000J0D01*
G01*
X17946000Y-45754000D01*
G75*
G02*
X17746000Y-45554000I0J200000D01*
G01*
X17746000Y-43854000D01*
G75*
G02*
X17946000Y-43654000I200000J0D01*
G01*
G37*
G36*
G01*
X17310000Y-41066000D02*
X15710000Y-41066000D01*
G75*
G02*
X15510000Y-40866000I0J200000D01*
G01*
X15510000Y-37366000D01*
G75*
G02*
X15710000Y-37166000I200000J0D01*
G01*
X17310000Y-37166000D01*
G75*
G02*
X17510000Y-37366000I0J-200000D01*
G01*
X17510000Y-40866000D01*
G75*
G02*
X17310000Y-41066000I-200000J0D01*
G01*
G37*
G36*
G01*
X17310000Y-35666000D02*
X15710000Y-35666000D01*
G75*
G02*
X15510000Y-35466000I0J200000D01*
G01*
X15510000Y-31966000D01*
G75*
G02*
X15710000Y-31766000I200000J0D01*
G01*
X17310000Y-31766000D01*
G75*
G02*
X17510000Y-31966000I0J-200000D01*
G01*
X17510000Y-35466000D01*
G75*
G02*
X17310000Y-35666000I-200000J0D01*
G01*
G37*
M02*
