G04 #@! TF.GenerationSoftware,KiCad,Pcbnew,5.1.9+dfsg1-1*
G04 #@! TF.CreationDate,2021-03-07T18:24:07+01:00*
G04 #@! TF.ProjectId,powerleaf,706f7765-726c-4656-9166-2e6b69636164,rev?*
G04 #@! TF.SameCoordinates,Original*
G04 #@! TF.FileFunction,Legend,Bot*
G04 #@! TF.FilePolarity,Positive*
%FSLAX46Y46*%
G04 Gerber Fmt 4.6, Leading zero omitted, Abs format (unit mm)*
G04 Created by KiCad (PCBNEW 5.1.9+dfsg1-1) date 2021-03-07 18:24:07*
%MOMM*%
%LPD*%
G01*
G04 APERTURE LIST*
%ADD10C,0.120000*%
%ADD11C,0.150000*%
%ADD12C,2.600000*%
%ADD13C,2.000000*%
%ADD14C,1.800000*%
%ADD15O,1.800000X1.800000*%
%ADD16O,2.100000X2.100000*%
G04 APERTURE END LIST*
D10*
X14073208Y-47382016D02*
X14495826Y-46475709D01*
X13831363Y-46717553D02*
X14737671Y-47140172D01*
D11*
X17895687Y-46069493D02*
X18756679Y-46470980D01*
X17234179Y-50185572D02*
X18095171Y-50587059D01*
D10*
X15938748Y-27935000D02*
X16461252Y-27935000D01*
X15938748Y-26465000D02*
X16461252Y-26465000D01*
X15938748Y-30085000D02*
X16461252Y-30085000D01*
X15938748Y-28615000D02*
X16461252Y-28615000D01*
X18751250Y-40459750D02*
X17963750Y-40459750D01*
X18357500Y-40853500D02*
X18357500Y-40066000D01*
X14164437Y-39826000D02*
X13100000Y-38761563D01*
X18855563Y-39826000D02*
X19920000Y-38761563D01*
X18855563Y-39826000D02*
X17570000Y-39826000D01*
X14164437Y-39826000D02*
X15450000Y-39826000D01*
X13100000Y-38761563D02*
X13100000Y-33006000D01*
X19920000Y-38761563D02*
X19920000Y-33006000D01*
X19920000Y-33006000D02*
X17570000Y-33006000D01*
X13100000Y-33006000D02*
X15450000Y-33006000D01*
D11*
X14245603Y-54338813D02*
X14268636Y-54402095D01*
X14377983Y-54505627D01*
X14464298Y-54545876D01*
X14613896Y-54563093D01*
X14740460Y-54517027D01*
X14823867Y-54450837D01*
X14947523Y-54298331D01*
X15007897Y-54168859D01*
X15045238Y-53976104D01*
X15042330Y-53869664D01*
X14996265Y-53743100D01*
X14886917Y-53639569D01*
X14800602Y-53599319D01*
X14651004Y-53582103D01*
X14587722Y-53605135D01*
X14325869Y-53377948D02*
X13764821Y-53116327D01*
X13905926Y-53602460D01*
X13776454Y-53542086D01*
X13670014Y-53544994D01*
X13606732Y-53568027D01*
X13523325Y-53634217D01*
X13422702Y-53850005D01*
X13425610Y-53956444D01*
X13448643Y-54019727D01*
X13514833Y-54103133D01*
X13773778Y-54223881D01*
X13880218Y-54220973D01*
X13943500Y-54197940D01*
X15292857Y-25907142D02*
X15340476Y-25954761D01*
X15483333Y-26002380D01*
X15578571Y-26002380D01*
X15721428Y-25954761D01*
X15816666Y-25859523D01*
X15864285Y-25764285D01*
X15911904Y-25573809D01*
X15911904Y-25430952D01*
X15864285Y-25240476D01*
X15816666Y-25145238D01*
X15721428Y-25050000D01*
X15578571Y-25002380D01*
X15483333Y-25002380D01*
X15340476Y-25050000D01*
X15292857Y-25097619D01*
X14340476Y-26002380D02*
X14911904Y-26002380D01*
X14626190Y-26002380D02*
X14626190Y-25002380D01*
X14721428Y-25145238D01*
X14816666Y-25240476D01*
X14911904Y-25288095D01*
X13721428Y-25002380D02*
X13626190Y-25002380D01*
X13530952Y-25050000D01*
X13483333Y-25097619D01*
X13435714Y-25192857D01*
X13388095Y-25383333D01*
X13388095Y-25621428D01*
X13435714Y-25811904D01*
X13483333Y-25907142D01*
X13530952Y-25954761D01*
X13626190Y-26002380D01*
X13721428Y-26002380D01*
X13816666Y-25954761D01*
X13864285Y-25907142D01*
X13911904Y-25811904D01*
X13959523Y-25621428D01*
X13959523Y-25383333D01*
X13911904Y-25192857D01*
X13864285Y-25097619D01*
X13816666Y-25050000D01*
X13721428Y-25002380D01*
X14366666Y-31407142D02*
X14414285Y-31454761D01*
X14557142Y-31502380D01*
X14652380Y-31502380D01*
X14795238Y-31454761D01*
X14890476Y-31359523D01*
X14938095Y-31264285D01*
X14985714Y-31073809D01*
X14985714Y-30930952D01*
X14938095Y-30740476D01*
X14890476Y-30645238D01*
X14795238Y-30550000D01*
X14652380Y-30502380D01*
X14557142Y-30502380D01*
X14414285Y-30550000D01*
X14366666Y-30597619D01*
X13890476Y-31502380D02*
X13700000Y-31502380D01*
X13604761Y-31454761D01*
X13557142Y-31407142D01*
X13461904Y-31264285D01*
X13414285Y-31073809D01*
X13414285Y-30692857D01*
X13461904Y-30597619D01*
X13509523Y-30550000D01*
X13604761Y-30502380D01*
X13795238Y-30502380D01*
X13890476Y-30550000D01*
X13938095Y-30597619D01*
X13985714Y-30692857D01*
X13985714Y-30930952D01*
X13938095Y-31026190D01*
X13890476Y-31073809D01*
X13795238Y-31121428D01*
X13604761Y-31121428D01*
X13509523Y-31073809D01*
X13461904Y-31026190D01*
X13414285Y-30930952D01*
X18757142Y-36683333D02*
X18804761Y-36635714D01*
X18852380Y-36492857D01*
X18852380Y-36397619D01*
X18804761Y-36254761D01*
X18709523Y-36159523D01*
X18614285Y-36111904D01*
X18423809Y-36064285D01*
X18280952Y-36064285D01*
X18090476Y-36111904D01*
X17995238Y-36159523D01*
X17900000Y-36254761D01*
X17852380Y-36397619D01*
X17852380Y-36492857D01*
X17900000Y-36635714D01*
X17947619Y-36683333D01*
X17852380Y-37016666D02*
X17852380Y-37683333D01*
X18852380Y-37254761D01*
%LPC*%
D12*
X16256000Y-58674000D03*
G36*
G01*
X14509563Y-48054428D02*
X15185752Y-46604335D01*
G75*
G02*
X15451538Y-46507597I181262J-84524D01*
G01*
X16901631Y-47183786D01*
G75*
G02*
X16998369Y-47449572I-84524J-181262D01*
G01*
X16322180Y-48899665D01*
G75*
G02*
X16056394Y-48996403I-181262J84524D01*
G01*
X14606301Y-48320214D01*
G75*
G02*
X14509563Y-48054428I84524J181262D01*
G01*
G37*
D13*
X18019735Y-48808547D03*
G36*
G01*
X13225298Y-49220970D02*
X13901487Y-47770877D01*
G75*
G02*
X14167273Y-47674139I181262J-84524D01*
G01*
X15617366Y-48350328D01*
G75*
G02*
X15714104Y-48616114I-84524J-181262D01*
G01*
X15037915Y-50066207D01*
G75*
G02*
X14772129Y-50162945I-181262J84524D01*
G01*
X13322036Y-49486756D01*
G75*
G02*
X13225298Y-49220970I84524J181262D01*
G01*
G37*
X19304000Y-47642003D03*
G36*
G01*
X16450000Y-27789894D02*
X16450000Y-26610106D01*
G75*
G02*
X16785106Y-26275000I335106J0D01*
G01*
X17689894Y-26275000D01*
G75*
G02*
X18025000Y-26610106I0J-335106D01*
G01*
X18025000Y-27789894D01*
G75*
G02*
X17689894Y-28125000I-335106J0D01*
G01*
X16785106Y-28125000D01*
G75*
G02*
X16450000Y-27789894I0J335106D01*
G01*
G37*
G36*
G01*
X14375000Y-27789894D02*
X14375000Y-26610106D01*
G75*
G02*
X14710106Y-26275000I335106J0D01*
G01*
X15614894Y-26275000D01*
G75*
G02*
X15950000Y-26610106I0J-335106D01*
G01*
X15950000Y-27789894D01*
G75*
G02*
X15614894Y-28125000I-335106J0D01*
G01*
X14710106Y-28125000D01*
G75*
G02*
X14375000Y-27789894I0J335106D01*
G01*
G37*
G36*
G01*
X16450000Y-29939894D02*
X16450000Y-28760106D01*
G75*
G02*
X16785106Y-28425000I335106J0D01*
G01*
X17689894Y-28425000D01*
G75*
G02*
X18025000Y-28760106I0J-335106D01*
G01*
X18025000Y-29939894D01*
G75*
G02*
X17689894Y-30275000I-335106J0D01*
G01*
X16785106Y-30275000D01*
G75*
G02*
X16450000Y-29939894I0J335106D01*
G01*
G37*
G36*
G01*
X14375000Y-29939894D02*
X14375000Y-28760106D01*
G75*
G02*
X14710106Y-28425000I335106J0D01*
G01*
X15614894Y-28425000D01*
G75*
G02*
X15950000Y-28760106I0J-335106D01*
G01*
X15950000Y-29939894D01*
G75*
G02*
X15614894Y-30275000I-335106J0D01*
G01*
X14710106Y-30275000D01*
G75*
G02*
X14375000Y-29939894I0J335106D01*
G01*
G37*
D14*
X13350000Y-57100000D03*
D15*
X13350000Y-62180000D03*
G36*
G01*
X17106000Y-64042000D02*
X15406000Y-64042000D01*
G75*
G02*
X15206000Y-63842000I0J200000D01*
G01*
X15206000Y-62142000D01*
G75*
G02*
X15406000Y-61942000I200000J0D01*
G01*
X17106000Y-61942000D01*
G75*
G02*
X17306000Y-62142000I0J-200000D01*
G01*
X17306000Y-63842000D01*
G75*
G02*
X17106000Y-64042000I-200000J0D01*
G01*
G37*
D16*
X18796000Y-62992000D03*
G36*
G01*
X17946000Y-15460000D02*
X19646000Y-15460000D01*
G75*
G02*
X19846000Y-15660000I0J-200000D01*
G01*
X19846000Y-17360000D01*
G75*
G02*
X19646000Y-17560000I-200000J0D01*
G01*
X17946000Y-17560000D01*
G75*
G02*
X17746000Y-17360000I0J200000D01*
G01*
X17746000Y-15660000D01*
G75*
G02*
X17946000Y-15460000I200000J0D01*
G01*
G37*
X16256000Y-16510000D03*
X13716000Y-16510000D03*
X16256000Y-44704000D03*
G36*
G01*
X17946000Y-43654000D02*
X19646000Y-43654000D01*
G75*
G02*
X19846000Y-43854000I0J-200000D01*
G01*
X19846000Y-45554000D01*
G75*
G02*
X19646000Y-45754000I-200000J0D01*
G01*
X17946000Y-45754000D01*
G75*
G02*
X17746000Y-45554000I0J200000D01*
G01*
X17746000Y-43854000D01*
G75*
G02*
X17946000Y-43654000I200000J0D01*
G01*
G37*
G36*
G01*
X17310000Y-41066000D02*
X15710000Y-41066000D01*
G75*
G02*
X15510000Y-40866000I0J200000D01*
G01*
X15510000Y-37366000D01*
G75*
G02*
X15710000Y-37166000I200000J0D01*
G01*
X17310000Y-37166000D01*
G75*
G02*
X17510000Y-37366000I0J-200000D01*
G01*
X17510000Y-40866000D01*
G75*
G02*
X17310000Y-41066000I-200000J0D01*
G01*
G37*
G36*
G01*
X17310000Y-35666000D02*
X15710000Y-35666000D01*
G75*
G02*
X15510000Y-35466000I0J200000D01*
G01*
X15510000Y-31966000D01*
G75*
G02*
X15710000Y-31766000I200000J0D01*
G01*
X17310000Y-31766000D01*
G75*
G02*
X17510000Y-31966000I0J-200000D01*
G01*
X17510000Y-35466000D01*
G75*
G02*
X17310000Y-35666000I-200000J0D01*
G01*
G37*
M02*
