G04 #@! TF.FileFunction,Copper,L1,Top,Signal*
%FSLAX46Y46*%
G04 Gerber Fmt 4.6, Leading zero omitted, Abs format (unit mm)*
G04 Created by KiCad (PCBNEW 4.0.5+dfsg1-4) date Sun Jun 18 22:39:19 2017*
%MOMM*%
%LPD*%
G01*
G04 APERTURE LIST*
%ADD10C,0.100000*%
%ADD11R,1.800000X3.600000*%
%ADD12O,1.800000X3.600000*%
%ADD13R,1.500000X0.450000*%
%ADD14R,0.450000X1.450000*%
%ADD15R,1.700000X1.700000*%
%ADD16O,1.700000X1.700000*%
%ADD17R,3.600000X2.100000*%
%ADD18O,3.600000X2.100000*%
%ADD19R,1.200000X1.200000*%
%ADD20R,1.800000X1.800000*%
%ADD21C,1.800000*%
%ADD22R,1.500000X1.300000*%
%ADD23R,1.250000X1.500000*%
%ADD24R,1.500000X1.250000*%
%ADD25R,1.300000X1.500000*%
%ADD26C,0.600000*%
%ADD27C,0.250000*%
%ADD28C,1.000000*%
%ADD29C,0.500000*%
%ADD30C,3.000000*%
%ADD31C,0.700000*%
%ADD32C,2.000000*%
%ADD33C,1.750000*%
G04 APERTURE END LIST*
D10*
D11*
X83058000Y-23368000D03*
D12*
X79558000Y-23368000D03*
X76058000Y-23368000D03*
X72558000Y-23368000D03*
X69058000Y-23368000D03*
X65558000Y-23368000D03*
X62058000Y-23368000D03*
X58558000Y-23368000D03*
X55058000Y-23368000D03*
X51558000Y-23368000D03*
X48058000Y-23368000D03*
X44558000Y-23368000D03*
X41058000Y-23368000D03*
X37558000Y-23368000D03*
X34058000Y-23368000D03*
X30558000Y-23368000D03*
D13*
X61878000Y-44693000D03*
X61878000Y-44043000D03*
X61878000Y-43393000D03*
X61878000Y-42743000D03*
X61878000Y-42093000D03*
X61878000Y-41443000D03*
X61878000Y-40793000D03*
X61878000Y-40143000D03*
X55978000Y-40143000D03*
X55978000Y-40793000D03*
X55978000Y-41443000D03*
X55978000Y-42093000D03*
X55978000Y-42743000D03*
X55978000Y-43393000D03*
X55978000Y-44043000D03*
X55978000Y-44693000D03*
D14*
X68113000Y-33188000D03*
X68763000Y-33188000D03*
X69413000Y-33188000D03*
X70063000Y-33188000D03*
X70063000Y-28788000D03*
X69413000Y-28788000D03*
X68763000Y-28788000D03*
X68113000Y-28788000D03*
X61128000Y-33188000D03*
X61778000Y-33188000D03*
X62428000Y-33188000D03*
X63078000Y-33188000D03*
X63078000Y-28788000D03*
X62428000Y-28788000D03*
X61778000Y-28788000D03*
X61128000Y-28788000D03*
X54016000Y-33188000D03*
X54666000Y-33188000D03*
X55316000Y-33188000D03*
X55966000Y-33188000D03*
X55966000Y-28788000D03*
X55316000Y-28788000D03*
X54666000Y-28788000D03*
X54016000Y-28788000D03*
X47031000Y-33188000D03*
X47681000Y-33188000D03*
X48331000Y-33188000D03*
X48981000Y-33188000D03*
X48981000Y-28788000D03*
X48331000Y-28788000D03*
X47681000Y-28788000D03*
X47031000Y-28788000D03*
X40046000Y-33188000D03*
X40696000Y-33188000D03*
X41346000Y-33188000D03*
X41996000Y-33188000D03*
X41996000Y-28788000D03*
X41346000Y-28788000D03*
X40696000Y-28788000D03*
X40046000Y-28788000D03*
X33061000Y-33188000D03*
X33711000Y-33188000D03*
X34361000Y-33188000D03*
X35011000Y-33188000D03*
X35011000Y-28788000D03*
X34361000Y-28788000D03*
X33711000Y-28788000D03*
X33061000Y-28788000D03*
X82083000Y-33188000D03*
X82733000Y-33188000D03*
X83383000Y-33188000D03*
X84033000Y-33188000D03*
X84033000Y-28788000D03*
X83383000Y-28788000D03*
X82733000Y-28788000D03*
X82083000Y-28788000D03*
X75098000Y-33188000D03*
X75748000Y-33188000D03*
X76398000Y-33188000D03*
X77048000Y-33188000D03*
X77048000Y-28788000D03*
X76398000Y-28788000D03*
X75748000Y-28788000D03*
X75098000Y-28788000D03*
D15*
X37465000Y-48768000D03*
D16*
X40005000Y-48768000D03*
X42545000Y-48768000D03*
X45085000Y-48768000D03*
X47625000Y-48768000D03*
X50165000Y-48768000D03*
D15*
X78359000Y-48768000D03*
D16*
X75819000Y-48768000D03*
X73279000Y-48768000D03*
X70739000Y-48768000D03*
X68199000Y-48768000D03*
X65659000Y-48768000D03*
D17*
X20320000Y-26162000D03*
D18*
X20320000Y-33782000D03*
D17*
X95250000Y-33782000D03*
D18*
X95250000Y-26162000D03*
D19*
X87884000Y-24427000D03*
X87884000Y-26627000D03*
D20*
X79248000Y-43561000D03*
D21*
X76708000Y-43561000D03*
D22*
X88980000Y-28575000D03*
X86280000Y-28575000D03*
D23*
X30734000Y-28976000D03*
X30734000Y-31476000D03*
D24*
X97960500Y-39560500D03*
X95460500Y-39560500D03*
D23*
X28702000Y-28976000D03*
X28702000Y-31476000D03*
D24*
X97960500Y-41592500D03*
X95460500Y-41592500D03*
X64790000Y-26797000D03*
X67290000Y-26797000D03*
X50566000Y-26797000D03*
X53066000Y-26797000D03*
X36596000Y-26797000D03*
X39096000Y-26797000D03*
X78760000Y-26797000D03*
X81260000Y-26797000D03*
X71648000Y-26797000D03*
X74148000Y-26797000D03*
X57678000Y-26797000D03*
X60178000Y-26797000D03*
X43708000Y-26797000D03*
X46208000Y-26797000D03*
X29484000Y-26797000D03*
X31984000Y-26797000D03*
D19*
X88900000Y-48725000D03*
X88900000Y-46525000D03*
X86614000Y-48725000D03*
X86614000Y-46525000D03*
X84328000Y-48725000D03*
X84328000Y-46525000D03*
X82042000Y-48725000D03*
X82042000Y-46525000D03*
X33528000Y-48725000D03*
X33528000Y-46525000D03*
X31242000Y-48725000D03*
X31242000Y-46525000D03*
X28956000Y-48725000D03*
X28956000Y-46525000D03*
X26670000Y-48725000D03*
X26670000Y-46525000D03*
D25*
X88900000Y-44403000D03*
X88900000Y-41703000D03*
X86614000Y-44403000D03*
X86614000Y-41703000D03*
X84328000Y-44403000D03*
X84328000Y-41703000D03*
X82042000Y-44403000D03*
X82042000Y-41703000D03*
X33528000Y-44403000D03*
X33528000Y-41703000D03*
X31242000Y-44403000D03*
X31242000Y-41703000D03*
X28956000Y-44403000D03*
X28956000Y-41703000D03*
X26670000Y-44403000D03*
X26670000Y-41703000D03*
X86360000Y-33100000D03*
X86360000Y-30400000D03*
X79248000Y-32973000D03*
X79248000Y-30273000D03*
X72390000Y-33100000D03*
X72390000Y-30400000D03*
X65278000Y-33100000D03*
X65278000Y-30400000D03*
X58166000Y-33100000D03*
X58166000Y-30400000D03*
X51308000Y-33100000D03*
X51308000Y-30400000D03*
X44196000Y-33100000D03*
X44196000Y-30400000D03*
X37338000Y-33100000D03*
X37338000Y-30400000D03*
D26*
X46482000Y-46355000D03*
X63373000Y-44577000D03*
X68262500Y-47498000D03*
X68262500Y-44767500D03*
X59118500Y-45339000D03*
X61214000Y-46037500D03*
X65405000Y-43751500D03*
X58420000Y-43688000D03*
X66802000Y-42862500D03*
X88900000Y-39624000D03*
X87757000Y-33147000D03*
X86614000Y-40132000D03*
X66040000Y-41529000D03*
X80518000Y-33147000D03*
X74549000Y-39624000D03*
X73660000Y-33147000D03*
X64770000Y-41021000D03*
X66548000Y-39243000D03*
X66548000Y-33147000D03*
X84836000Y-28829000D03*
X77978000Y-28829000D03*
X71374000Y-28829000D03*
X64516000Y-28829000D03*
X57404000Y-28829000D03*
X50292000Y-28829000D03*
X43180000Y-28829000D03*
X36068000Y-28829000D03*
X93367000Y-45317000D03*
X92668500Y-46015500D03*
X92097000Y-46714000D03*
X91462000Y-47349000D03*
X90827000Y-47984000D03*
X95018000Y-44936000D03*
X94129000Y-44936000D03*
X96161000Y-44936000D03*
X96796000Y-44301000D03*
X97494500Y-43602500D03*
X98066000Y-42777000D03*
X34385250Y-50768250D03*
X60134500Y-49466500D03*
X82105500Y-51879500D03*
X25693000Y-28233000D03*
X95504000Y-24003000D03*
X94488000Y-22987000D03*
X93726000Y-23749000D03*
X92710000Y-22733000D03*
X93472000Y-21971000D03*
X92456000Y-20955000D03*
X91694000Y-21717000D03*
X90424000Y-18923000D03*
X91440000Y-19939000D03*
X90678000Y-20701000D03*
X89662000Y-19685000D03*
X89662000Y-17907000D03*
X88138000Y-17907000D03*
X88138000Y-18923000D03*
X82042000Y-18923000D03*
X82042000Y-17907000D03*
X83566000Y-17907000D03*
X85090000Y-17907000D03*
X86614000Y-17907000D03*
X86614000Y-18923000D03*
X85090000Y-18923000D03*
X83566000Y-18923000D03*
X78994000Y-18923000D03*
X80518000Y-18923000D03*
X82042000Y-18923000D03*
X82042000Y-17907000D03*
X80518000Y-17907000D03*
X78994000Y-17907000D03*
X77470000Y-17907000D03*
X77470000Y-18923000D03*
X72898000Y-18923000D03*
X72898000Y-17907000D03*
X74422000Y-17907000D03*
X75946000Y-17907000D03*
X77470000Y-17907000D03*
X77470000Y-18923000D03*
X75946000Y-18923000D03*
X74422000Y-18923000D03*
X68326000Y-18923000D03*
X68326000Y-17907000D03*
X69850000Y-17907000D03*
X71374000Y-17907000D03*
X72898000Y-17907000D03*
X72898000Y-18923000D03*
X71374000Y-18923000D03*
X69850000Y-18923000D03*
X65278000Y-18923000D03*
X66802000Y-18923000D03*
X68326000Y-18923000D03*
X68326000Y-17907000D03*
X66802000Y-17907000D03*
X65278000Y-17907000D03*
X63754000Y-17907000D03*
X63754000Y-18923000D03*
X59182000Y-18923000D03*
X59182000Y-17907000D03*
X60706000Y-17907000D03*
X62230000Y-17907000D03*
X63754000Y-17907000D03*
X63754000Y-18923000D03*
X62230000Y-18923000D03*
X60706000Y-18923000D03*
X54610000Y-18923000D03*
X54610000Y-17907000D03*
X56134000Y-17907000D03*
X57658000Y-17907000D03*
X59182000Y-17907000D03*
X59182000Y-18923000D03*
X57658000Y-18923000D03*
X56134000Y-18923000D03*
X51562000Y-18923000D03*
X53086000Y-18923000D03*
X54610000Y-18923000D03*
X54610000Y-17907000D03*
X53086000Y-17907000D03*
X51562000Y-17907000D03*
X50038000Y-17907000D03*
X50038000Y-18923000D03*
X45466000Y-18923000D03*
X45466000Y-17907000D03*
X46990000Y-17907000D03*
X48514000Y-17907000D03*
X50038000Y-17907000D03*
X50038000Y-18923000D03*
X48514000Y-18923000D03*
X46990000Y-18923000D03*
X40894000Y-18923000D03*
X40894000Y-17907000D03*
X42418000Y-17907000D03*
X43942000Y-17907000D03*
X45466000Y-17907000D03*
X45466000Y-18923000D03*
X43942000Y-18923000D03*
X42418000Y-18923000D03*
X37846000Y-18923000D03*
X39370000Y-18923000D03*
X40894000Y-18923000D03*
X40894000Y-17907000D03*
X39370000Y-17907000D03*
X37846000Y-17907000D03*
X36322000Y-17907000D03*
X36322000Y-18923000D03*
X31750000Y-18923000D03*
X31750000Y-17907000D03*
X33274000Y-17907000D03*
X34798000Y-17907000D03*
X36322000Y-17907000D03*
X36322000Y-18923000D03*
X34798000Y-18923000D03*
X33274000Y-18923000D03*
X91948000Y-26543000D03*
X94234000Y-30861000D03*
X35560000Y-42418000D03*
X59690000Y-33147000D03*
X57658000Y-43053000D03*
X31242000Y-39878000D03*
X52832000Y-42545000D03*
X52578000Y-33147000D03*
X45466000Y-33147000D03*
X45466000Y-41402000D03*
X26670000Y-39878000D03*
X38608000Y-40259000D03*
X38608000Y-33147000D03*
X45275500Y-44958000D03*
X89662000Y-26543000D03*
D27*
X42545000Y-48768000D02*
X42862500Y-48768000D01*
X42862500Y-48768000D02*
X45339000Y-51244500D01*
X45339000Y-51244500D02*
X70802500Y-51244500D01*
X70802500Y-51244500D02*
X73279000Y-48768000D01*
X73279000Y-48768000D02*
X73279000Y-48641000D01*
X73279000Y-48641000D02*
X70167500Y-45529500D01*
X70167500Y-45529500D02*
X62714500Y-45529500D01*
X62714500Y-45529500D02*
X61878000Y-44693000D01*
X61878000Y-44043000D02*
X62839000Y-44043000D01*
X45085000Y-47752000D02*
X45085000Y-48768000D01*
X46482000Y-46355000D02*
X45085000Y-47752000D01*
X62839000Y-44043000D02*
X63373000Y-44577000D01*
X61878000Y-43393000D02*
X63903500Y-43393000D01*
X68199000Y-47561500D02*
X68199000Y-48768000D01*
X68262500Y-47498000D02*
X68199000Y-47561500D01*
X65278000Y-44767500D02*
X68262500Y-44767500D01*
X63903500Y-43393000D02*
X65278000Y-44767500D01*
X47625000Y-48768000D02*
X47625000Y-49403000D01*
X47625000Y-49403000D02*
X48958500Y-50736500D01*
X66230500Y-50736500D02*
X68199000Y-48768000D01*
X48958500Y-50736500D02*
X66230500Y-50736500D01*
X68199000Y-48768000D02*
X68199000Y-48387000D01*
X47625000Y-48768000D02*
X47625000Y-48387000D01*
X70739000Y-48768000D02*
X70675500Y-48768000D01*
X70675500Y-48768000D02*
X67945000Y-46037500D01*
X57732500Y-40143000D02*
X55978000Y-40143000D01*
X59245500Y-41656000D02*
X57732500Y-40143000D01*
X59245500Y-45212000D02*
X59245500Y-41656000D01*
X59118500Y-45339000D02*
X59245500Y-45212000D01*
X67945000Y-46037500D02*
X61214000Y-46037500D01*
X70739000Y-48768000D02*
X70739000Y-48577500D01*
X55978000Y-40143000D02*
X55978000Y-40034000D01*
X75819000Y-48768000D02*
X75819000Y-48514000D01*
X75819000Y-48514000D02*
X71056500Y-43751500D01*
X71056500Y-43751500D02*
X65405000Y-43751500D01*
X58420000Y-43688000D02*
X58065000Y-44043000D01*
X58065000Y-44043000D02*
X55978000Y-44043000D01*
X55978000Y-44043000D02*
X44730000Y-44043000D01*
X44730000Y-44043000D02*
X40005000Y-48768000D01*
X84033000Y-33188000D02*
X86272000Y-33188000D01*
X66682500Y-42743000D02*
X61878000Y-42743000D01*
X66802000Y-42862500D02*
X66682500Y-42743000D01*
X86360000Y-33100000D02*
X87710000Y-33100000D01*
X88900000Y-39624000D02*
X88900000Y-41703000D01*
X87710000Y-33100000D02*
X87757000Y-33147000D01*
X86272000Y-33188000D02*
X86360000Y-33100000D01*
X77048000Y-33188000D02*
X79033000Y-33188000D01*
X86614000Y-41703000D02*
X86614000Y-40132000D01*
X61878000Y-42093000D02*
X65476000Y-42093000D01*
X65476000Y-42093000D02*
X66040000Y-41529000D01*
X80518000Y-33147000D02*
X80344000Y-32973000D01*
X80344000Y-32973000D02*
X79248000Y-32973000D01*
X79033000Y-33188000D02*
X79248000Y-32973000D01*
X70063000Y-33188000D02*
X71015000Y-33188000D01*
X71015000Y-33188000D02*
X72302000Y-33188000D01*
X84328000Y-41703000D02*
X84328000Y-40894000D01*
X83058000Y-39624000D02*
X74549000Y-39624000D01*
X84328000Y-40894000D02*
X83058000Y-39624000D01*
X73613000Y-33100000D02*
X72390000Y-33100000D01*
X73660000Y-33147000D02*
X73613000Y-33100000D01*
X61878000Y-41443000D02*
X64348000Y-41443000D01*
X64348000Y-41443000D02*
X64770000Y-41021000D01*
X72302000Y-33188000D02*
X72390000Y-33100000D01*
X63078000Y-33188000D02*
X65190000Y-33188000D01*
X82042000Y-41703000D02*
X69008000Y-41703000D01*
X69008000Y-41703000D02*
X66548000Y-39243000D01*
X65913000Y-40132000D02*
X65913000Y-39878000D01*
X66548000Y-39243000D02*
X65913000Y-39878000D01*
X66501000Y-33100000D02*
X66548000Y-33147000D01*
X66501000Y-33100000D02*
X65278000Y-33100000D01*
X65190000Y-33188000D02*
X65278000Y-33100000D01*
X63347000Y-40793000D02*
X61878000Y-40793000D01*
X64008000Y-40132000D02*
X63347000Y-40793000D01*
X64811000Y-33188000D02*
X64897000Y-33274000D01*
X64008000Y-40132000D02*
X65913000Y-40132000D01*
X84836000Y-28829000D02*
X86026000Y-28829000D01*
X86026000Y-28829000D02*
X86280000Y-28575000D01*
X84795000Y-28788000D02*
X84033000Y-28788000D01*
X84836000Y-28829000D02*
X84795000Y-28788000D01*
X77937000Y-28788000D02*
X77048000Y-28788000D01*
X77978000Y-28829000D02*
X77937000Y-28788000D01*
X71333000Y-28788000D02*
X70063000Y-28788000D01*
X71374000Y-28829000D02*
X71333000Y-28788000D01*
X64475000Y-28788000D02*
X63078000Y-28788000D01*
X64516000Y-28829000D02*
X64475000Y-28788000D01*
X57363000Y-28788000D02*
X55966000Y-28788000D01*
X57404000Y-28829000D02*
X57363000Y-28788000D01*
X50251000Y-28788000D02*
X48981000Y-28788000D01*
X50292000Y-28829000D02*
X50251000Y-28788000D01*
X35011000Y-28788000D02*
X36027000Y-28788000D01*
X43139000Y-28788000D02*
X41996000Y-28788000D01*
X43180000Y-28829000D02*
X43139000Y-28788000D01*
X36027000Y-28788000D02*
X36068000Y-28829000D01*
D28*
X67290000Y-26797000D02*
X69110000Y-26797000D01*
X69110000Y-26521000D02*
X69110000Y-26797000D01*
X69110000Y-26797000D02*
X69110000Y-27029000D01*
X69110000Y-27029000D02*
X69088000Y-27051000D01*
D29*
X69413000Y-28661000D02*
X69413000Y-26824000D01*
X69413000Y-26824000D02*
X69110000Y-26521000D01*
X68763000Y-28661000D02*
X68763000Y-26868000D01*
X68763000Y-26868000D02*
X69110000Y-26521000D01*
D28*
X69110000Y-23241000D02*
X69110000Y-26521000D01*
X60178000Y-26797000D02*
X62125000Y-26797000D01*
X62125000Y-26521000D02*
X62125000Y-26797000D01*
X62125000Y-26797000D02*
X62125000Y-27029000D01*
X62125000Y-27029000D02*
X62103000Y-27051000D01*
X62125000Y-23241000D02*
X62125000Y-26521000D01*
D29*
X61778000Y-26868000D02*
X62125000Y-26521000D01*
X61778000Y-28661000D02*
X61778000Y-26868000D01*
X62428000Y-26824000D02*
X62125000Y-26521000D01*
X62428000Y-28661000D02*
X62428000Y-26824000D01*
D28*
X53066000Y-26797000D02*
X55013000Y-26797000D01*
X55013000Y-26521000D02*
X55013000Y-26797000D01*
X55013000Y-26797000D02*
X55013000Y-27029000D01*
X55013000Y-27029000D02*
X54991000Y-27051000D01*
D29*
X55316000Y-28661000D02*
X55316000Y-26824000D01*
X55316000Y-26824000D02*
X55013000Y-26521000D01*
X54666000Y-28661000D02*
X54666000Y-26868000D01*
X54666000Y-26868000D02*
X55013000Y-26521000D01*
D28*
X55013000Y-23241000D02*
X55013000Y-26521000D01*
X46208000Y-26797000D02*
X48028000Y-26797000D01*
X48028000Y-26521000D02*
X48028000Y-26797000D01*
X48028000Y-26797000D02*
X48028000Y-27029000D01*
X48028000Y-27029000D02*
X48006000Y-27051000D01*
X48028000Y-23241000D02*
X48028000Y-26521000D01*
D29*
X47681000Y-26868000D02*
X48028000Y-26521000D01*
X47681000Y-28661000D02*
X47681000Y-26868000D01*
X48331000Y-26824000D02*
X48028000Y-26521000D01*
X48331000Y-28661000D02*
X48331000Y-26824000D01*
D28*
X39096000Y-26797000D02*
X41043000Y-26797000D01*
X41043000Y-26797000D02*
X41043000Y-27029000D01*
X41043000Y-26521000D02*
X41043000Y-27029000D01*
X41043000Y-27029000D02*
X41021000Y-27051000D01*
X41043000Y-23241000D02*
X41043000Y-26521000D01*
D29*
X40696000Y-26868000D02*
X41043000Y-26521000D01*
X40696000Y-28661000D02*
X40696000Y-26868000D01*
X41346000Y-26824000D02*
X41043000Y-26521000D01*
X41346000Y-28661000D02*
X41346000Y-26824000D01*
D28*
X31984000Y-26797000D02*
X33931000Y-26797000D01*
X33931000Y-26797000D02*
X34058000Y-26924000D01*
X34058000Y-26924000D02*
X34058000Y-27156000D01*
X34058000Y-26521000D02*
X34058000Y-26924000D01*
X34058000Y-27156000D02*
X34036000Y-27178000D01*
X34058000Y-23241000D02*
X34058000Y-26521000D01*
D29*
X34361000Y-28661000D02*
X34361000Y-26824000D01*
X34361000Y-26824000D02*
X34058000Y-26521000D01*
X33711000Y-28661000D02*
X33711000Y-26868000D01*
X33711000Y-26868000D02*
X34058000Y-26521000D01*
D28*
X81260000Y-26797000D02*
X83080000Y-26797000D01*
X83080000Y-26521000D02*
X83080000Y-26797000D01*
X83080000Y-26797000D02*
X83080000Y-27029000D01*
X83080000Y-27029000D02*
X83058000Y-27051000D01*
X83080000Y-23241000D02*
X83080000Y-26521000D01*
D29*
X82733000Y-26868000D02*
X83080000Y-26521000D01*
X82733000Y-28661000D02*
X82733000Y-26868000D01*
X83383000Y-26824000D02*
X83080000Y-26521000D01*
X83383000Y-28661000D02*
X83383000Y-26824000D01*
D28*
X74148000Y-26797000D02*
X76095000Y-26797000D01*
X76095000Y-26521000D02*
X76095000Y-26797000D01*
X76095000Y-26797000D02*
X76095000Y-27029000D01*
X76095000Y-27029000D02*
X76073000Y-27051000D01*
D29*
X76398000Y-28661000D02*
X76398000Y-26824000D01*
X76398000Y-26824000D02*
X76095000Y-26521000D01*
X75748000Y-28661000D02*
X75748000Y-26868000D01*
X75748000Y-26868000D02*
X76095000Y-26521000D01*
D28*
X76095000Y-23241000D02*
X76095000Y-26521000D01*
D27*
X93367000Y-45317000D02*
X93748000Y-44936000D01*
X92668500Y-46142500D02*
X92668500Y-46015500D01*
X92097000Y-46714000D02*
X92668500Y-46142500D01*
X90890500Y-47920500D02*
X91462000Y-47349000D01*
X90763500Y-47920500D02*
X90890500Y-47920500D01*
X90827000Y-47984000D02*
X90763500Y-47920500D01*
X93748000Y-44936000D02*
X94129000Y-44936000D01*
X95018000Y-44936000D02*
X96161000Y-44936000D01*
X96796000Y-44301000D02*
X97494500Y-43602500D01*
X98066000Y-42777000D02*
X97960500Y-42777000D01*
D28*
X88900000Y-48725000D02*
X89959000Y-48725000D01*
X89959000Y-48725000D02*
X93748000Y-44936000D01*
X97960500Y-43136500D02*
X97960500Y-42777000D01*
X97960500Y-42777000D02*
X97960500Y-41592500D01*
X96161000Y-44936000D02*
X97960500Y-43136500D01*
X93748000Y-44936000D02*
X96161000Y-44936000D01*
X82042000Y-48725000D02*
X84328000Y-48725000D01*
X84328000Y-48725000D02*
X86614000Y-48725000D01*
X86614000Y-48725000D02*
X88900000Y-48725000D01*
X28956000Y-48725000D02*
X26670000Y-48725000D01*
X33528000Y-48725000D02*
X31242000Y-48725000D01*
X31242000Y-48725000D02*
X28956000Y-48725000D01*
D27*
X82083000Y-33188000D02*
X82083000Y-30400000D01*
X75098000Y-33188000D02*
X75098000Y-30273000D01*
X68113000Y-33188000D02*
X68113000Y-30400000D01*
X61128000Y-33188000D02*
X61128000Y-30400000D01*
X54016000Y-33188000D02*
X54016000Y-30400000D01*
X47031000Y-33188000D02*
X47031000Y-30400000D01*
X33061000Y-33188000D02*
X33061000Y-30400000D01*
X40046000Y-33188000D02*
X40046000Y-30400000D01*
D29*
X37338000Y-30400000D02*
X33061000Y-30400000D01*
X33061000Y-30400000D02*
X32349000Y-30400000D01*
X32349000Y-30400000D02*
X30925000Y-28976000D01*
X30925000Y-28976000D02*
X30734000Y-28976000D01*
X37338000Y-30400000D02*
X40046000Y-30400000D01*
X40046000Y-30400000D02*
X44196000Y-30400000D01*
X51308000Y-30400000D02*
X47031000Y-30400000D01*
X47031000Y-30400000D02*
X44196000Y-30400000D01*
X58166000Y-30400000D02*
X54016000Y-30400000D01*
X54016000Y-30400000D02*
X51308000Y-30400000D01*
X65278000Y-30400000D02*
X61128000Y-30400000D01*
X61128000Y-30400000D02*
X58166000Y-30400000D01*
X72390000Y-30400000D02*
X68113000Y-30400000D01*
X68113000Y-30400000D02*
X65278000Y-30400000D01*
X79248000Y-30273000D02*
X75098000Y-30273000D01*
X75098000Y-30273000D02*
X72517000Y-30273000D01*
X72517000Y-30273000D02*
X72390000Y-30400000D01*
X86360000Y-30400000D02*
X82083000Y-30400000D01*
X82083000Y-30400000D02*
X79375000Y-30400000D01*
X79375000Y-30400000D02*
X79248000Y-30273000D01*
X86360000Y-30400000D02*
X91520000Y-30400000D01*
X91520000Y-30400000D02*
X95250000Y-26670000D01*
X95250000Y-26670000D02*
X95250000Y-26162000D01*
D28*
X33528000Y-48725000D02*
X33528000Y-49911000D01*
X33528000Y-49911000D02*
X34385250Y-50768250D01*
D30*
X95250000Y-26162000D02*
X97345500Y-26162000D01*
X97345500Y-26162000D02*
X97536000Y-25971500D01*
X95250000Y-26162000D02*
X94424500Y-26162000D01*
X94424500Y-26162000D02*
X87376000Y-19113500D01*
X31496000Y-19113500D02*
X30480000Y-19113500D01*
X87376000Y-19113500D02*
X31496000Y-19113500D01*
X97536000Y-25844500D02*
X97536000Y-25971500D01*
X97536000Y-25971500D02*
X97536000Y-25463500D01*
X97536000Y-25463500D02*
X89789000Y-17716500D01*
X89789000Y-17716500D02*
X31496000Y-17716500D01*
X31496000Y-17716500D02*
X30480000Y-18732500D01*
X30480000Y-18732500D02*
X30480000Y-19113500D01*
X30480000Y-19113500D02*
X30480000Y-22923500D01*
X30480000Y-22923500D02*
X30226000Y-23177500D01*
X30226000Y-23177500D02*
X30558000Y-23368000D01*
D29*
X61878000Y-40143000D02*
X60123500Y-40143000D01*
X60134500Y-40154000D02*
X60134500Y-49466500D01*
X60123500Y-40143000D02*
X60134500Y-40154000D01*
D28*
X82042000Y-48725000D02*
X82042000Y-51816000D01*
X82042000Y-51816000D02*
X82105500Y-51879500D01*
X28702000Y-28976000D02*
X30734000Y-28976000D01*
X26436000Y-28976000D02*
X28702000Y-28976000D01*
X25693000Y-28233000D02*
X26436000Y-28976000D01*
X95250000Y-26162000D02*
X95250000Y-26543000D01*
X95250000Y-26543000D02*
X98488500Y-29781500D01*
X98488500Y-29781500D02*
X98488500Y-39032500D01*
X98488500Y-39032500D02*
X97960500Y-39560500D01*
X97960500Y-39560500D02*
X97960500Y-41592500D01*
D31*
X33571000Y-48768000D02*
X33528000Y-48725000D01*
D29*
X90678000Y-20701000D02*
X91694000Y-21717000D01*
X94488000Y-22987000D02*
X95504000Y-24003000D01*
X92710000Y-22733000D02*
X93726000Y-23749000D01*
X92456000Y-20955000D02*
X93472000Y-21971000D01*
X90424000Y-18923000D02*
X90424000Y-19431000D01*
X90678000Y-20701000D02*
X91440000Y-19939000D01*
X89662000Y-17907000D02*
X89662000Y-19685000D01*
X88138000Y-18923000D02*
X88138000Y-17907000D01*
X85090000Y-17907000D02*
X83566000Y-17907000D01*
X86614000Y-18923000D02*
X86614000Y-17907000D01*
X83566000Y-18923000D02*
X85090000Y-18923000D01*
X78994000Y-18923000D02*
X80518000Y-18923000D01*
X82042000Y-18923000D02*
X82042000Y-17907000D01*
X80518000Y-17907000D02*
X78994000Y-17907000D01*
X75946000Y-17907000D02*
X74422000Y-17907000D01*
X77470000Y-18923000D02*
X77470000Y-17907000D01*
X74422000Y-18923000D02*
X75946000Y-18923000D01*
X71374000Y-17907000D02*
X69850000Y-17907000D01*
X72898000Y-18923000D02*
X72898000Y-17907000D01*
X69850000Y-18923000D02*
X71374000Y-18923000D01*
X65278000Y-18923000D02*
X66802000Y-18923000D01*
X68326000Y-18923000D02*
X68326000Y-17907000D01*
X66802000Y-17907000D02*
X65278000Y-17907000D01*
X62230000Y-17907000D02*
X60706000Y-17907000D01*
X63754000Y-18923000D02*
X63754000Y-17907000D01*
X60706000Y-18923000D02*
X62230000Y-18923000D01*
X57658000Y-17907000D02*
X56134000Y-17907000D01*
X59182000Y-18923000D02*
X59182000Y-17907000D01*
X56134000Y-18923000D02*
X57658000Y-18923000D01*
X51562000Y-18923000D02*
X53086000Y-18923000D01*
X54610000Y-18923000D02*
X54610000Y-17907000D01*
X53086000Y-17907000D02*
X51562000Y-17907000D01*
X48514000Y-17907000D02*
X46990000Y-17907000D01*
X50038000Y-18923000D02*
X50038000Y-17907000D01*
X46990000Y-18923000D02*
X48514000Y-18923000D01*
X43942000Y-17907000D02*
X42418000Y-17907000D01*
X45466000Y-18923000D02*
X45466000Y-17907000D01*
X42418000Y-18923000D02*
X43942000Y-18923000D01*
X37846000Y-18923000D02*
X39370000Y-18923000D01*
X40894000Y-18923000D02*
X40894000Y-17907000D01*
X39370000Y-17907000D02*
X37846000Y-17907000D01*
X34798000Y-17907000D02*
X33274000Y-17907000D01*
X36322000Y-18923000D02*
X36322000Y-17907000D01*
X33274000Y-18923000D02*
X34798000Y-18923000D01*
D32*
X79558000Y-23368000D02*
X79558000Y-18415000D01*
X72558000Y-23368000D02*
X72558000Y-18415000D01*
X65558000Y-23368000D02*
X65558000Y-18415000D01*
X58558000Y-23368000D02*
X58558000Y-18415000D01*
X51558000Y-23368000D02*
X51558000Y-18415000D01*
X44558000Y-23368000D02*
X44558000Y-18415000D01*
X37558000Y-23368000D02*
X37558000Y-18415000D01*
D28*
X29484000Y-24442000D02*
X30558000Y-23368000D01*
D30*
X95250000Y-26162000D02*
X95250000Y-24257000D01*
X95250000Y-24257000D02*
X90424000Y-19431000D01*
X90424000Y-19431000D02*
X89408000Y-18415000D01*
X89408000Y-18415000D02*
X79558000Y-18415000D01*
X79558000Y-18415000D02*
X72558000Y-18415000D01*
X72558000Y-18415000D02*
X65558000Y-18415000D01*
X65558000Y-18415000D02*
X58558000Y-18415000D01*
X58558000Y-18415000D02*
X51558000Y-18415000D01*
X51558000Y-18415000D02*
X44558000Y-18415000D01*
X44558000Y-18415000D02*
X37558000Y-18415000D01*
X30558000Y-19861000D02*
X30558000Y-23368000D01*
X37558000Y-18415000D02*
X32004000Y-18415000D01*
X32004000Y-18415000D02*
X30558000Y-19861000D01*
D28*
X29484000Y-26797000D02*
X29484000Y-24442000D01*
X36596000Y-26797000D02*
X36596000Y-24330000D01*
X36596000Y-24330000D02*
X37558000Y-23368000D01*
X43708000Y-26797000D02*
X43708000Y-24218000D01*
X43708000Y-24218000D02*
X44558000Y-23368000D01*
X50566000Y-26797000D02*
X50566000Y-24360000D01*
X50566000Y-24360000D02*
X51558000Y-23368000D01*
X57678000Y-26797000D02*
X57678000Y-24248000D01*
X57678000Y-24248000D02*
X58558000Y-23368000D01*
X64790000Y-26797000D02*
X64790000Y-24136000D01*
X64790000Y-24136000D02*
X65558000Y-23368000D01*
X71648000Y-26797000D02*
X71648000Y-24278000D01*
X71648000Y-24278000D02*
X72558000Y-23368000D01*
X78760000Y-26797000D02*
X78760000Y-24166000D01*
X78760000Y-24166000D02*
X79558000Y-23368000D01*
D27*
X79121000Y-30400000D02*
X79248000Y-30273000D01*
X30734000Y-23544000D02*
X30558000Y-23368000D01*
X82169000Y-33102000D02*
X82083000Y-33188000D01*
X75057000Y-33147000D02*
X75098000Y-33188000D01*
X68072000Y-33147000D02*
X68113000Y-33188000D01*
X61087000Y-33147000D02*
X61128000Y-33188000D01*
X53975000Y-33147000D02*
X54016000Y-33188000D01*
X46990000Y-33147000D02*
X47031000Y-33188000D01*
X40005000Y-33147000D02*
X40046000Y-33188000D01*
D30*
X82296000Y-36703000D02*
X92138500Y-36703000D01*
X92138500Y-36703000D02*
X94996000Y-33845500D01*
X94996000Y-33845500D02*
X95250000Y-33782000D01*
X92075000Y-33782000D02*
X95250000Y-33782000D01*
X89154000Y-36703000D02*
X92075000Y-33782000D01*
X29019500Y-36703000D02*
X82296000Y-36703000D01*
X82296000Y-36703000D02*
X89154000Y-36703000D01*
X20320000Y-28003500D02*
X29019500Y-36703000D01*
X20320000Y-26162000D02*
X20320000Y-28003500D01*
D28*
X28702000Y-31476000D02*
X30734000Y-31476000D01*
X28702000Y-31476000D02*
X25380000Y-31476000D01*
X25380000Y-31476000D02*
X25336500Y-31432500D01*
X95460500Y-41592500D02*
X95460500Y-39560500D01*
X95460500Y-39560500D02*
X95250000Y-39350000D01*
X95250000Y-39350000D02*
X95250000Y-33782000D01*
D27*
X87884000Y-24427000D02*
X89832000Y-24427000D01*
X89832000Y-24427000D02*
X91948000Y-26543000D01*
X94234000Y-30861000D02*
X95250000Y-31877000D01*
X95250000Y-31877000D02*
X95250000Y-33782000D01*
D32*
X33020000Y-35687000D02*
X90932000Y-35687000D01*
X29591000Y-35687000D02*
X33020000Y-35687000D01*
X20320000Y-26416000D02*
X25336500Y-31432500D01*
X25336500Y-31432500D02*
X29591000Y-35687000D01*
X90932000Y-35687000D02*
X92837000Y-33782000D01*
X92837000Y-33782000D02*
X95250000Y-33782000D01*
D27*
X95504000Y-34036000D02*
X95250000Y-33782000D01*
D28*
X20320000Y-26162000D02*
X20320000Y-26416000D01*
D33*
X90932000Y-35687000D02*
X95250000Y-33782000D01*
X95250000Y-33782000D02*
X95250000Y-33909000D01*
D29*
X83383000Y-34671000D02*
X83383000Y-35123000D01*
X91440000Y-35306000D02*
X95250000Y-33909000D01*
X83566000Y-35306000D02*
X91440000Y-35306000D01*
X83383000Y-35123000D02*
X83566000Y-35306000D01*
X82677000Y-35179000D02*
X83383000Y-35179000D01*
X83383000Y-35235000D02*
X83383000Y-34671000D01*
X83383000Y-34671000D02*
X83383000Y-33188000D01*
X83383000Y-35179000D02*
X83383000Y-35235000D01*
X76398000Y-35179000D02*
X82677000Y-35179000D01*
X82677000Y-35179000D02*
X82733000Y-35179000D01*
X82733000Y-35235000D02*
X82733000Y-33188000D01*
X82733000Y-35179000D02*
X82733000Y-35235000D01*
X75748000Y-35179000D02*
X76398000Y-35179000D01*
X76398000Y-35235000D02*
X76398000Y-33188000D01*
X76398000Y-35179000D02*
X76398000Y-35235000D01*
X69413000Y-35179000D02*
X75748000Y-35179000D01*
X75748000Y-35235000D02*
X75748000Y-33188000D01*
X75748000Y-35179000D02*
X75748000Y-35235000D01*
X68763000Y-35179000D02*
X69413000Y-35179000D01*
X69413000Y-35235000D02*
X69413000Y-33188000D01*
X69413000Y-35179000D02*
X69413000Y-35235000D01*
X62428000Y-35179000D02*
X68763000Y-35179000D01*
X68763000Y-35235000D02*
X68763000Y-33188000D01*
X68763000Y-35179000D02*
X68763000Y-35235000D01*
X61722000Y-35179000D02*
X62428000Y-35179000D01*
X62428000Y-35235000D02*
X62428000Y-33188000D01*
X62428000Y-35179000D02*
X62428000Y-35235000D01*
X55245000Y-35179000D02*
X61722000Y-35179000D01*
X61722000Y-35179000D02*
X61778000Y-35179000D01*
X61778000Y-35235000D02*
X61778000Y-33188000D01*
X61778000Y-35179000D02*
X61778000Y-35235000D01*
X54666000Y-35179000D02*
X55245000Y-35179000D01*
X55245000Y-35179000D02*
X55316000Y-35179000D01*
X48275000Y-35179000D02*
X54666000Y-35179000D01*
X54666000Y-35179000D02*
X54666000Y-35235000D01*
X47625000Y-35179000D02*
X48275000Y-35179000D01*
X48275000Y-35179000D02*
X48331000Y-35235000D01*
X41275000Y-35179000D02*
X47625000Y-35179000D01*
X47625000Y-35179000D02*
X47681000Y-35235000D01*
X40640000Y-35179000D02*
X41275000Y-35179000D01*
X41275000Y-35179000D02*
X41290000Y-35179000D01*
X41290000Y-35179000D02*
X41346000Y-35235000D01*
X34290000Y-35179000D02*
X40640000Y-35179000D01*
X40640000Y-35179000D02*
X40696000Y-35235000D01*
X33711000Y-35179000D02*
X34290000Y-35179000D01*
X34290000Y-35179000D02*
X34361000Y-35179000D01*
X34361000Y-35179000D02*
X34361000Y-35235000D01*
X47681000Y-35235000D02*
X47688500Y-35242500D01*
X47681000Y-33188000D02*
X47681000Y-35235000D01*
X48331000Y-35235000D02*
X48323500Y-35242500D01*
X48331000Y-33188000D02*
X48331000Y-35235000D01*
X55316000Y-33188000D02*
X55316000Y-35179000D01*
X55316000Y-35179000D02*
X55316000Y-35235000D01*
X55316000Y-35235000D02*
X55308500Y-35242500D01*
X54666000Y-33188000D02*
X54666000Y-35235000D01*
X54666000Y-35235000D02*
X54673500Y-35242500D01*
X40696000Y-35235000D02*
X40703500Y-35242500D01*
X40696000Y-33188000D02*
X40696000Y-35235000D01*
X41346000Y-35235000D02*
X41338500Y-35242500D01*
X41346000Y-33188000D02*
X41346000Y-35235000D01*
X34361000Y-33188000D02*
X34361000Y-35235000D01*
X34361000Y-35235000D02*
X34353500Y-35242500D01*
X33711000Y-33188000D02*
X33711000Y-35179000D01*
X33711000Y-35179000D02*
X33711000Y-35235000D01*
X33711000Y-35235000D02*
X33718500Y-35242500D01*
D27*
X55966000Y-33188000D02*
X58078000Y-33188000D01*
X34845000Y-41703000D02*
X33528000Y-41703000D01*
X35560000Y-42418000D02*
X34845000Y-41703000D01*
X59690000Y-33147000D02*
X59643000Y-33100000D01*
X59643000Y-33100000D02*
X58166000Y-33100000D01*
X55978000Y-43393000D02*
X57318000Y-43393000D01*
X57318000Y-43393000D02*
X57658000Y-43053000D01*
X56007000Y-43434000D02*
X55978000Y-43393000D01*
X58078000Y-33188000D02*
X58166000Y-33100000D01*
X48981000Y-33188000D02*
X51220000Y-33188000D01*
X31242000Y-39878000D02*
X31242000Y-41703000D01*
X52578000Y-33147000D02*
X52531000Y-33100000D01*
X52531000Y-33100000D02*
X51308000Y-33100000D01*
X55978000Y-42743000D02*
X53030000Y-42743000D01*
X31242000Y-41703000D02*
X31242000Y-41275000D01*
X53030000Y-42743000D02*
X52832000Y-42545000D01*
X51220000Y-33188000D02*
X51308000Y-33100000D01*
X41996000Y-33188000D02*
X44108000Y-33188000D01*
X28956000Y-41703000D02*
X28956000Y-40005000D01*
X37338000Y-41402000D02*
X45466000Y-41402000D01*
X34671000Y-38735000D02*
X37338000Y-41402000D01*
X30226000Y-38735000D02*
X34671000Y-38735000D01*
X28956000Y-40005000D02*
X30226000Y-38735000D01*
X55978000Y-42093000D02*
X54031000Y-42093000D01*
X54031000Y-42093000D02*
X53340000Y-41402000D01*
X53340000Y-41402000D02*
X45466000Y-41402000D01*
X45419000Y-33100000D02*
X44196000Y-33100000D01*
X45466000Y-33147000D02*
X45419000Y-33100000D01*
X28956000Y-41703000D02*
X28956000Y-41529000D01*
X44108000Y-33188000D02*
X44196000Y-33100000D01*
X35011000Y-33188000D02*
X37250000Y-33188000D01*
X26670000Y-39878000D02*
X26670000Y-41703000D01*
X38608000Y-33147000D02*
X38561000Y-33100000D01*
X38561000Y-33100000D02*
X37338000Y-33100000D01*
X26670000Y-41703000D02*
X26670000Y-41529000D01*
X55978000Y-41443000D02*
X55032000Y-41443000D01*
X53848000Y-40259000D02*
X38608000Y-40259000D01*
X55032000Y-41443000D02*
X53848000Y-40259000D01*
X37250000Y-33188000D02*
X37338000Y-33100000D01*
X37465000Y-48768000D02*
X37592000Y-48768000D01*
X37592000Y-48768000D02*
X40703500Y-51879500D01*
X75247500Y-51879500D02*
X78359000Y-48768000D01*
X40703500Y-51879500D02*
X75247500Y-51879500D01*
X55978000Y-44693000D02*
X45540500Y-44693000D01*
X45540500Y-44693000D02*
X45275500Y-44958000D01*
X89578000Y-26627000D02*
X87884000Y-26627000D01*
X89662000Y-26543000D02*
X89578000Y-26627000D01*
X88980000Y-28575000D02*
X88980000Y-27723000D01*
X88980000Y-27723000D02*
X87884000Y-26627000D01*
D31*
X88900000Y-46525000D02*
X88900000Y-44403000D01*
X86614000Y-46525000D02*
X86614000Y-44403000D01*
X84328000Y-46525000D02*
X84328000Y-44403000D01*
X82042000Y-46525000D02*
X82042000Y-44403000D01*
X33528000Y-46525000D02*
X33528000Y-44403000D01*
X31242000Y-46525000D02*
X31242000Y-44403000D01*
X28956000Y-46525000D02*
X28956000Y-44403000D01*
X26670000Y-46525000D02*
X26670000Y-44403000D01*
M02*
