G04 #@! TF.FileFunction,Legend,Top*
%FSLAX46Y46*%
G04 Gerber Fmt 4.6, Leading zero omitted, Abs format (unit mm)*
G04 Created by KiCad (PCBNEW 4.0.5+dfsg1-4) date Sun Jun 18 22:39:19 2017*
%MOMM*%
%LPD*%
G01*
G04 APERTURE LIST*
%ADD10C,0.100000*%
%ADD11C,0.300000*%
%ADD12C,0.120000*%
%ADD13C,0.150000*%
%ADD14C,0.010000*%
G04 APERTURE END LIST*
D10*
D11*
X30289572Y-17633143D02*
X31432429Y-17633143D01*
X33536001Y-16069571D02*
X34536001Y-16069571D01*
X33893144Y-17569571D01*
X41306715Y-16069571D02*
X41021001Y-16069571D01*
X40878144Y-16141000D01*
X40806715Y-16212429D01*
X40663858Y-16426714D01*
X40592429Y-16712429D01*
X40592429Y-17283857D01*
X40663858Y-17426714D01*
X40735286Y-17498143D01*
X40878144Y-17569571D01*
X41163858Y-17569571D01*
X41306715Y-17498143D01*
X41378144Y-17426714D01*
X41449572Y-17283857D01*
X41449572Y-16926714D01*
X41378144Y-16783857D01*
X41306715Y-16712429D01*
X41163858Y-16641000D01*
X40878144Y-16641000D01*
X40735286Y-16712429D01*
X40663858Y-16783857D01*
X40592429Y-16926714D01*
X48363144Y-16069571D02*
X47648858Y-16069571D01*
X47577429Y-16783857D01*
X47648858Y-16712429D01*
X47791715Y-16641000D01*
X48148858Y-16641000D01*
X48291715Y-16712429D01*
X48363144Y-16783857D01*
X48434572Y-16926714D01*
X48434572Y-17283857D01*
X48363144Y-17426714D01*
X48291715Y-17498143D01*
X48148858Y-17569571D01*
X47791715Y-17569571D01*
X47648858Y-17498143D01*
X47577429Y-17426714D01*
X55276715Y-16569571D02*
X55276715Y-17569571D01*
X54919572Y-15998143D02*
X54562429Y-17069571D01*
X55491001Y-17069571D01*
X61476001Y-16069571D02*
X62404572Y-16069571D01*
X61904572Y-16641000D01*
X62118858Y-16641000D01*
X62261715Y-16712429D01*
X62333144Y-16783857D01*
X62404572Y-16926714D01*
X62404572Y-17283857D01*
X62333144Y-17426714D01*
X62261715Y-17498143D01*
X62118858Y-17569571D01*
X61690286Y-17569571D01*
X61547429Y-17498143D01*
X61476001Y-17426714D01*
X68532429Y-16212429D02*
X68603858Y-16141000D01*
X68746715Y-16069571D01*
X69103858Y-16069571D01*
X69246715Y-16141000D01*
X69318144Y-16212429D01*
X69389572Y-16355286D01*
X69389572Y-16498143D01*
X69318144Y-16712429D01*
X68461001Y-17569571D01*
X69389572Y-17569571D01*
X76374572Y-17569571D02*
X75517429Y-17569571D01*
X75946001Y-17569571D02*
X75946001Y-16069571D01*
X75803144Y-16283857D01*
X75660286Y-16426714D01*
X75517429Y-16498143D01*
X82788143Y-16069571D02*
X83073857Y-16069571D01*
X83216715Y-16141000D01*
X83359572Y-16283857D01*
X83431000Y-16569571D01*
X83431000Y-17069571D01*
X83359572Y-17355286D01*
X83216715Y-17498143D01*
X83073857Y-17569571D01*
X82788143Y-17569571D01*
X82645286Y-17498143D01*
X82502429Y-17355286D01*
X82431000Y-17069571D01*
X82431000Y-16569571D01*
X82502429Y-16283857D01*
X82645286Y-16141000D01*
X82788143Y-16069571D01*
X79184572Y-16998143D02*
X80327429Y-16998143D01*
X71564572Y-16998143D02*
X72707429Y-16998143D01*
X64579572Y-16998143D02*
X65722429Y-16998143D01*
X57594572Y-16998143D02*
X58737429Y-16998143D01*
X50609572Y-16998143D02*
X51752429Y-16998143D01*
X43624572Y-16998143D02*
X44767429Y-16998143D01*
X36639572Y-16998143D02*
X37782429Y-16998143D01*
X84852143Y-41596571D02*
X85137857Y-41596571D01*
X85280715Y-41668000D01*
X85423572Y-41810857D01*
X85495000Y-42096571D01*
X85495000Y-42596571D01*
X85423572Y-42882286D01*
X85280715Y-43025143D01*
X85137857Y-43096571D01*
X84852143Y-43096571D01*
X84709286Y-43025143D01*
X84566429Y-42882286D01*
X84495000Y-42596571D01*
X84495000Y-42096571D01*
X84566429Y-41810857D01*
X84709286Y-41668000D01*
X84852143Y-41596571D01*
X85923572Y-41596571D02*
X86423572Y-43096571D01*
X86923572Y-41596571D01*
X88280715Y-43096571D02*
X87780715Y-42382286D01*
X87423572Y-43096571D02*
X87423572Y-41596571D01*
X87995000Y-41596571D01*
X88137858Y-41668000D01*
X88209286Y-41739429D01*
X88280715Y-41882286D01*
X88280715Y-42096571D01*
X88209286Y-42239429D01*
X88137858Y-42310857D01*
X87995000Y-42382286D01*
X87423572Y-42382286D01*
X89637858Y-43096571D02*
X88923572Y-43096571D01*
X88923572Y-41596571D01*
X84471143Y-49343571D02*
X84756857Y-49343571D01*
X84899715Y-49415000D01*
X85042572Y-49557857D01*
X85114000Y-49843571D01*
X85114000Y-50343571D01*
X85042572Y-50629286D01*
X84899715Y-50772143D01*
X84756857Y-50843571D01*
X84471143Y-50843571D01*
X84328286Y-50772143D01*
X84185429Y-50629286D01*
X84114000Y-50343571D01*
X84114000Y-49843571D01*
X84185429Y-49557857D01*
X84328286Y-49415000D01*
X84471143Y-49343571D01*
X85542572Y-49343571D02*
X86042572Y-50843571D01*
X86542572Y-49343571D01*
X87899715Y-50843571D02*
X87399715Y-50129286D01*
X87042572Y-50843571D02*
X87042572Y-49343571D01*
X87614000Y-49343571D01*
X87756858Y-49415000D01*
X87828286Y-49486429D01*
X87899715Y-49629286D01*
X87899715Y-49843571D01*
X87828286Y-49986429D01*
X87756858Y-50057857D01*
X87614000Y-50129286D01*
X87042572Y-50129286D01*
X89256858Y-50843571D02*
X88542572Y-50843571D01*
X88542572Y-49343571D01*
X89344857Y-38802571D02*
X89844857Y-40302571D01*
X90344857Y-38802571D01*
X90844857Y-40302571D02*
X90844857Y-38802571D01*
X91416285Y-38802571D01*
X91559143Y-38874000D01*
X91630571Y-38945429D01*
X91702000Y-39088286D01*
X91702000Y-39302571D01*
X91630571Y-39445429D01*
X91559143Y-39516857D01*
X91416285Y-39588286D01*
X90844857Y-39588286D01*
X92202000Y-38802571D02*
X92559143Y-40302571D01*
X92844857Y-39231143D01*
X93130571Y-40302571D01*
X93487714Y-38802571D01*
X94916286Y-40302571D02*
X94416286Y-39588286D01*
X94059143Y-40302571D02*
X94059143Y-38802571D01*
X94630571Y-38802571D01*
X94773429Y-38874000D01*
X94844857Y-38945429D01*
X94916286Y-39088286D01*
X94916286Y-39302571D01*
X94844857Y-39445429D01*
X94773429Y-39516857D01*
X94630571Y-39588286D01*
X94059143Y-39588286D01*
X89535143Y-19824000D02*
X89392286Y-19752571D01*
X89178000Y-19752571D01*
X88963715Y-19824000D01*
X88820857Y-19966857D01*
X88749429Y-20109714D01*
X88678000Y-20395429D01*
X88678000Y-20609714D01*
X88749429Y-20895429D01*
X88820857Y-21038286D01*
X88963715Y-21181143D01*
X89178000Y-21252571D01*
X89320857Y-21252571D01*
X89535143Y-21181143D01*
X89606572Y-21109714D01*
X89606572Y-20609714D01*
X89320857Y-20609714D01*
X90249429Y-21252571D02*
X90249429Y-19752571D01*
X91106572Y-21252571D01*
X91106572Y-19752571D01*
X91820858Y-21252571D02*
X91820858Y-19752571D01*
X92178001Y-19752571D01*
X92392286Y-19824000D01*
X92535144Y-19966857D01*
X92606572Y-20109714D01*
X92678001Y-20395429D01*
X92678001Y-20609714D01*
X92606572Y-20895429D01*
X92535144Y-21038286D01*
X92392286Y-21181143D01*
X92178001Y-21252571D01*
X91820858Y-21252571D01*
X25424286Y-26102571D02*
X25924286Y-27602571D01*
X26424286Y-26102571D01*
X26924286Y-27602571D02*
X26924286Y-26102571D01*
X27495714Y-26102571D01*
X27638572Y-26174000D01*
X27710000Y-26245429D01*
X27781429Y-26388286D01*
X27781429Y-26602571D01*
X27710000Y-26745429D01*
X27638572Y-26816857D01*
X27495714Y-26888286D01*
X26924286Y-26888286D01*
X28281429Y-26102571D02*
X28638572Y-27602571D01*
X28924286Y-26531143D01*
X29210000Y-27602571D01*
X29567143Y-26102571D01*
X30995715Y-27602571D02*
X30495715Y-26888286D01*
X30138572Y-27602571D02*
X30138572Y-26102571D01*
X30710000Y-26102571D01*
X30852858Y-26174000D01*
X30924286Y-26245429D01*
X30995715Y-26388286D01*
X30995715Y-26602571D01*
X30924286Y-26745429D01*
X30852858Y-26816857D01*
X30710000Y-26888286D01*
X30138572Y-26888286D01*
X31638572Y-27031143D02*
X32781429Y-27031143D01*
X32210000Y-27602571D02*
X32210000Y-26459714D01*
X26289143Y-33286000D02*
X26146286Y-33214571D01*
X25932000Y-33214571D01*
X25717715Y-33286000D01*
X25574857Y-33428857D01*
X25503429Y-33571714D01*
X25432000Y-33857429D01*
X25432000Y-34071714D01*
X25503429Y-34357429D01*
X25574857Y-34500286D01*
X25717715Y-34643143D01*
X25932000Y-34714571D01*
X26074857Y-34714571D01*
X26289143Y-34643143D01*
X26360572Y-34571714D01*
X26360572Y-34071714D01*
X26074857Y-34071714D01*
X27003429Y-34714571D02*
X27003429Y-33214571D01*
X27860572Y-34714571D01*
X27860572Y-33214571D01*
X28574858Y-34714571D02*
X28574858Y-33214571D01*
X28932001Y-33214571D01*
X29146286Y-33286000D01*
X29289144Y-33428857D01*
X29360572Y-33571714D01*
X29432001Y-33857429D01*
X29432001Y-34071714D01*
X29360572Y-34357429D01*
X29289144Y-34500286D01*
X29146286Y-34643143D01*
X28932001Y-34714571D01*
X28574858Y-34714571D01*
X59202000Y-51756571D02*
X59487714Y-51756571D01*
X59630572Y-51828000D01*
X59773429Y-51970857D01*
X59844857Y-52256571D01*
X59844857Y-52756571D01*
X59773429Y-53042286D01*
X59630572Y-53185143D01*
X59487714Y-53256571D01*
X59202000Y-53256571D01*
X59059143Y-53185143D01*
X58916286Y-53042286D01*
X58844857Y-52756571D01*
X58844857Y-52256571D01*
X58916286Y-51970857D01*
X59059143Y-51828000D01*
X59202000Y-51756571D01*
X61130572Y-52256571D02*
X61130572Y-53256571D01*
X60487715Y-52256571D02*
X60487715Y-53042286D01*
X60559143Y-53185143D01*
X60702001Y-53256571D01*
X60916286Y-53256571D01*
X61059143Y-53185143D01*
X61130572Y-53113714D01*
X61630572Y-52256571D02*
X62202001Y-52256571D01*
X61844858Y-51756571D02*
X61844858Y-53042286D01*
X61916286Y-53185143D01*
X62059144Y-53256571D01*
X62202001Y-53256571D01*
X32595429Y-51986571D02*
X32595429Y-50486571D01*
X33309715Y-50986571D02*
X33309715Y-51986571D01*
X33309715Y-51129429D02*
X33381143Y-51058000D01*
X33524001Y-50986571D01*
X33738286Y-50986571D01*
X33881143Y-51058000D01*
X33952572Y-51200857D01*
X33952572Y-51986571D01*
D12*
X85588000Y-24648000D02*
X85588000Y-15288000D01*
X85588000Y-15288000D02*
X28028000Y-15288000D01*
X28028000Y-15288000D02*
X28028000Y-24648000D01*
X85588000Y-24648000D02*
X84108000Y-24648000D01*
X28028000Y-24648000D02*
X29508000Y-24648000D01*
X82008000Y-24648000D02*
X80608000Y-24648000D01*
X78508000Y-24648000D02*
X77108000Y-24648000D01*
X75008000Y-24648000D02*
X73608000Y-24648000D01*
X71508000Y-24648000D02*
X70108000Y-24648000D01*
X68008000Y-24648000D02*
X66608000Y-24648000D01*
X64508000Y-24648000D02*
X63108000Y-24648000D01*
X61008000Y-24648000D02*
X59608000Y-24648000D01*
X57508000Y-24648000D02*
X56108000Y-24648000D01*
X54008000Y-24648000D02*
X52608000Y-24648000D01*
X50508000Y-24648000D02*
X49108000Y-24648000D01*
X47008000Y-24648000D02*
X45608000Y-24648000D01*
X43508000Y-24648000D02*
X42108000Y-24648000D01*
X40008000Y-24648000D02*
X38608000Y-24648000D01*
X36508000Y-24648000D02*
X35108000Y-24648000D01*
X33008000Y-24648000D02*
X31608000Y-24648000D01*
X85588000Y-18568000D02*
X28028000Y-18568000D01*
X82758000Y-25968000D02*
X83058000Y-25368000D01*
X83058000Y-25368000D02*
X83358000Y-25968000D01*
X83358000Y-25968000D02*
X82758000Y-25968000D01*
D13*
X61128000Y-39693000D02*
X56728000Y-39693000D01*
X62703000Y-45218000D02*
X56728000Y-45218000D01*
X67413000Y-32663000D02*
X67588000Y-32663000D01*
X67413000Y-29313000D02*
X67663000Y-29313000D01*
X70763000Y-29313000D02*
X70513000Y-29313000D01*
X70763000Y-32663000D02*
X70513000Y-32663000D01*
X67413000Y-32663000D02*
X67413000Y-29313000D01*
X70763000Y-32663000D02*
X70763000Y-29313000D01*
X67588000Y-32663000D02*
X67588000Y-33913000D01*
X60428000Y-32663000D02*
X60603000Y-32663000D01*
X60428000Y-29313000D02*
X60678000Y-29313000D01*
X63778000Y-29313000D02*
X63528000Y-29313000D01*
X63778000Y-32663000D02*
X63528000Y-32663000D01*
X60428000Y-32663000D02*
X60428000Y-29313000D01*
X63778000Y-32663000D02*
X63778000Y-29313000D01*
X60603000Y-32663000D02*
X60603000Y-33913000D01*
X53316000Y-32663000D02*
X53491000Y-32663000D01*
X53316000Y-29313000D02*
X53566000Y-29313000D01*
X56666000Y-29313000D02*
X56416000Y-29313000D01*
X56666000Y-32663000D02*
X56416000Y-32663000D01*
X53316000Y-32663000D02*
X53316000Y-29313000D01*
X56666000Y-32663000D02*
X56666000Y-29313000D01*
X53491000Y-32663000D02*
X53491000Y-33913000D01*
X46331000Y-32663000D02*
X46506000Y-32663000D01*
X46331000Y-29313000D02*
X46581000Y-29313000D01*
X49681000Y-29313000D02*
X49431000Y-29313000D01*
X49681000Y-32663000D02*
X49431000Y-32663000D01*
X46331000Y-32663000D02*
X46331000Y-29313000D01*
X49681000Y-32663000D02*
X49681000Y-29313000D01*
X46506000Y-32663000D02*
X46506000Y-33913000D01*
X39346000Y-32663000D02*
X39521000Y-32663000D01*
X39346000Y-29313000D02*
X39596000Y-29313000D01*
X42696000Y-29313000D02*
X42446000Y-29313000D01*
X42696000Y-32663000D02*
X42446000Y-32663000D01*
X39346000Y-32663000D02*
X39346000Y-29313000D01*
X42696000Y-32663000D02*
X42696000Y-29313000D01*
X39521000Y-32663000D02*
X39521000Y-33913000D01*
X32361000Y-32663000D02*
X32536000Y-32663000D01*
X32361000Y-29313000D02*
X32611000Y-29313000D01*
X35711000Y-29313000D02*
X35461000Y-29313000D01*
X35711000Y-32663000D02*
X35461000Y-32663000D01*
X32361000Y-32663000D02*
X32361000Y-29313000D01*
X35711000Y-32663000D02*
X35711000Y-29313000D01*
X32536000Y-32663000D02*
X32536000Y-33913000D01*
X81383000Y-32663000D02*
X81558000Y-32663000D01*
X81383000Y-29313000D02*
X81633000Y-29313000D01*
X84733000Y-29313000D02*
X84483000Y-29313000D01*
X84733000Y-32663000D02*
X84483000Y-32663000D01*
X81383000Y-32663000D02*
X81383000Y-29313000D01*
X84733000Y-32663000D02*
X84733000Y-29313000D01*
X81558000Y-32663000D02*
X81558000Y-33913000D01*
X74398000Y-32663000D02*
X74573000Y-32663000D01*
X74398000Y-29313000D02*
X74648000Y-29313000D01*
X77748000Y-29313000D02*
X77498000Y-29313000D01*
X77748000Y-32663000D02*
X77498000Y-32663000D01*
X74398000Y-32663000D02*
X74398000Y-29313000D01*
X77748000Y-32663000D02*
X77748000Y-29313000D01*
X74573000Y-32663000D02*
X74573000Y-33913000D01*
D12*
X79689000Y-50108000D02*
X77089000Y-50108000D01*
X77089000Y-50108000D02*
X77089000Y-52728000D01*
X77089000Y-52728000D02*
X79689000Y-52728000D01*
X79689000Y-52728000D02*
X79689000Y-50108000D01*
X78739000Y-52728000D02*
X77979000Y-52728000D01*
X77979000Y-52728000D02*
X77979000Y-58728000D01*
X77979000Y-58728000D02*
X78739000Y-58728000D01*
X78739000Y-58728000D02*
X78739000Y-52728000D01*
X78739000Y-49678000D02*
X78739000Y-50108000D01*
X77979000Y-49678000D02*
X77979000Y-50108000D01*
X78619000Y-52728000D02*
X78619000Y-58728000D01*
X78499000Y-52728000D02*
X78499000Y-58728000D01*
X78379000Y-52728000D02*
X78379000Y-58728000D01*
X78259000Y-52728000D02*
X78259000Y-58728000D01*
X78139000Y-52728000D02*
X78139000Y-58728000D01*
X78019000Y-52728000D02*
X78019000Y-58728000D01*
X77089000Y-50108000D02*
X74549000Y-50108000D01*
X74549000Y-50108000D02*
X74549000Y-52728000D01*
X74549000Y-52728000D02*
X77089000Y-52728000D01*
X77089000Y-52728000D02*
X77089000Y-50108000D01*
X76199000Y-52728000D02*
X75439000Y-52728000D01*
X75439000Y-52728000D02*
X75439000Y-58728000D01*
X75439000Y-58728000D02*
X76199000Y-58728000D01*
X76199000Y-58728000D02*
X76199000Y-52728000D01*
X76199000Y-49678000D02*
X76199000Y-50108000D01*
X75439000Y-49678000D02*
X75439000Y-50108000D01*
X74549000Y-50108000D02*
X72009000Y-50108000D01*
X72009000Y-50108000D02*
X72009000Y-52728000D01*
X72009000Y-52728000D02*
X74549000Y-52728000D01*
X74549000Y-52728000D02*
X74549000Y-50108000D01*
X73659000Y-52728000D02*
X72899000Y-52728000D01*
X72899000Y-52728000D02*
X72899000Y-58728000D01*
X72899000Y-58728000D02*
X73659000Y-58728000D01*
X73659000Y-58728000D02*
X73659000Y-52728000D01*
X73659000Y-49678000D02*
X73659000Y-50108000D01*
X72899000Y-49678000D02*
X72899000Y-50108000D01*
X72009000Y-50108000D02*
X69469000Y-50108000D01*
X69469000Y-50108000D02*
X69469000Y-52728000D01*
X69469000Y-52728000D02*
X72009000Y-52728000D01*
X72009000Y-52728000D02*
X72009000Y-50108000D01*
X71119000Y-52728000D02*
X70359000Y-52728000D01*
X70359000Y-52728000D02*
X70359000Y-58728000D01*
X70359000Y-58728000D02*
X71119000Y-58728000D01*
X71119000Y-58728000D02*
X71119000Y-52728000D01*
X71119000Y-49678000D02*
X71119000Y-50108000D01*
X70359000Y-49678000D02*
X70359000Y-50108000D01*
X69469000Y-50108000D02*
X66929000Y-50108000D01*
X66929000Y-50108000D02*
X66929000Y-52728000D01*
X66929000Y-52728000D02*
X69469000Y-52728000D01*
X69469000Y-52728000D02*
X69469000Y-50108000D01*
X68579000Y-52728000D02*
X67819000Y-52728000D01*
X67819000Y-52728000D02*
X67819000Y-58728000D01*
X67819000Y-58728000D02*
X68579000Y-58728000D01*
X68579000Y-58728000D02*
X68579000Y-52728000D01*
X68579000Y-49678000D02*
X68579000Y-50108000D01*
X67819000Y-49678000D02*
X67819000Y-50108000D01*
X66929000Y-50108000D02*
X64329000Y-50108000D01*
X64329000Y-50108000D02*
X64329000Y-52728000D01*
X64329000Y-52728000D02*
X66929000Y-52728000D01*
X66929000Y-52728000D02*
X66929000Y-50108000D01*
X66039000Y-52728000D02*
X65279000Y-52728000D01*
X65279000Y-52728000D02*
X65279000Y-58728000D01*
X65279000Y-58728000D02*
X66039000Y-58728000D01*
X66039000Y-58728000D02*
X66039000Y-52728000D01*
X66039000Y-49678000D02*
X66039000Y-50108000D01*
X65279000Y-49678000D02*
X65279000Y-50108000D01*
X78359000Y-47498000D02*
X79629000Y-47498000D01*
X79629000Y-47498000D02*
X79629000Y-48768000D01*
X18104179Y-28148841D02*
G75*
G02X18120000Y-24162000I1665821J1986841D01*
G01*
X18104179Y-35768841D02*
G75*
G02X18120000Y-31782000I1665821J1986841D01*
G01*
X25200000Y-22272000D02*
X16440000Y-22272000D01*
X16440000Y-22272000D02*
X16440000Y-37672000D01*
X16440000Y-37672000D02*
X25200000Y-37672000D01*
X25200000Y-37672000D02*
X25200000Y-22272000D01*
X24420000Y-22272000D02*
X24420000Y-25082000D01*
X24420000Y-37672000D02*
X24420000Y-34862000D01*
X24420000Y-27162000D02*
X24420000Y-32782000D01*
X23420000Y-25162000D02*
X25200000Y-25162000D01*
X25200000Y-25162000D02*
X25200000Y-27162000D01*
X25200000Y-27162000D02*
X23420000Y-27162000D01*
X23420000Y-27162000D02*
X23420000Y-25162000D01*
X23420000Y-32782000D02*
X25200000Y-32782000D01*
X25200000Y-32782000D02*
X25200000Y-34782000D01*
X25200000Y-34782000D02*
X23420000Y-34782000D01*
X23420000Y-34782000D02*
X23420000Y-32782000D01*
X18120000Y-28162000D02*
X18120000Y-31782000D01*
X18120000Y-24162000D02*
X18120000Y-23152000D01*
X18120000Y-23152000D02*
X23420000Y-23152000D01*
X23420000Y-23152000D02*
X23420000Y-36792000D01*
X23420000Y-36792000D02*
X18120000Y-36792000D01*
X18120000Y-36792000D02*
X18120000Y-35782000D01*
X26000000Y-26462000D02*
X25400000Y-26162000D01*
X25400000Y-26162000D02*
X26000000Y-25862000D01*
X26000000Y-25862000D02*
X26000000Y-26462000D01*
X97465821Y-31795159D02*
G75*
G02X97450000Y-35782000I-1665821J-1986841D01*
G01*
X97465821Y-24175159D02*
G75*
G02X97450000Y-28162000I-1665821J-1986841D01*
G01*
X90370000Y-37672000D02*
X99130000Y-37672000D01*
X99130000Y-37672000D02*
X99130000Y-22272000D01*
X99130000Y-22272000D02*
X90370000Y-22272000D01*
X90370000Y-22272000D02*
X90370000Y-37672000D01*
X91150000Y-37672000D02*
X91150000Y-34862000D01*
X91150000Y-22272000D02*
X91150000Y-25082000D01*
X91150000Y-32782000D02*
X91150000Y-27162000D01*
X92150000Y-34782000D02*
X90370000Y-34782000D01*
X90370000Y-34782000D02*
X90370000Y-32782000D01*
X90370000Y-32782000D02*
X92150000Y-32782000D01*
X92150000Y-32782000D02*
X92150000Y-34782000D01*
X92150000Y-27162000D02*
X90370000Y-27162000D01*
X90370000Y-27162000D02*
X90370000Y-25162000D01*
X90370000Y-25162000D02*
X92150000Y-25162000D01*
X92150000Y-25162000D02*
X92150000Y-27162000D01*
X97450000Y-31782000D02*
X97450000Y-28162000D01*
X97450000Y-35782000D02*
X97450000Y-36792000D01*
X97450000Y-36792000D02*
X92150000Y-36792000D01*
X92150000Y-36792000D02*
X92150000Y-23152000D01*
X92150000Y-23152000D02*
X97450000Y-23152000D01*
X97450000Y-23152000D02*
X97450000Y-24162000D01*
X89570000Y-33482000D02*
X90170000Y-33782000D01*
X90170000Y-33782000D02*
X89570000Y-34082000D01*
X89570000Y-34082000D02*
X89570000Y-33482000D01*
X87184000Y-27327000D02*
X88584000Y-27327000D01*
X88584000Y-27327000D02*
X88584000Y-24527000D01*
X87184000Y-27327000D02*
X87184000Y-24527000D01*
X74988000Y-43560538D02*
G75*
G03X80538000Y-45105830I2990000J-462D01*
G01*
X74988000Y-43561462D02*
G75*
G02X80538000Y-42016170I2990000J462D01*
G01*
X80478000Y-43561000D02*
G75*
G03X80478000Y-43561000I-2500000J0D01*
G01*
X80538000Y-45106000D02*
X80538000Y-42016000D01*
X87030000Y-27695000D02*
X88230000Y-27695000D01*
X88230000Y-29455000D02*
X87030000Y-29455000D01*
D14*
G36*
X41780900Y-45454403D02*
X41892450Y-45510022D01*
X41990908Y-45612431D01*
X42018023Y-45650364D01*
X42047562Y-45700000D01*
X42066728Y-45753912D01*
X42077693Y-45825864D01*
X42082629Y-45929622D01*
X42083713Y-46066601D01*
X42078818Y-46254315D01*
X42061804Y-46395258D01*
X42029177Y-46500408D01*
X41977442Y-46580743D01*
X41903104Y-46647241D01*
X41897642Y-46651178D01*
X41824380Y-46691453D01*
X41736160Y-46711380D01*
X41623962Y-46716293D01*
X41441567Y-46716293D01*
X41441491Y-46893357D01*
X41439793Y-46991970D01*
X41429450Y-47049814D01*
X41402422Y-47084506D01*
X41350668Y-47113664D01*
X41338239Y-47119621D01*
X41280077Y-47147539D01*
X41235044Y-47165172D01*
X41201559Y-47166694D01*
X41178038Y-47146281D01*
X41162900Y-47098107D01*
X41154563Y-47016346D01*
X41151444Y-46895172D01*
X41151960Y-46728760D01*
X41154529Y-46511285D01*
X41155332Y-46446236D01*
X41158222Y-46222002D01*
X41160812Y-46075321D01*
X41441414Y-46075321D01*
X41442991Y-46199826D01*
X41450000Y-46281287D01*
X41465858Y-46335015D01*
X41493981Y-46376323D01*
X41513075Y-46396471D01*
X41591135Y-46455421D01*
X41660247Y-46460220D01*
X41731560Y-46411538D01*
X41733368Y-46409741D01*
X41762383Y-46372118D01*
X41780033Y-46320984D01*
X41788936Y-46242238D01*
X41791709Y-46121776D01*
X41791759Y-46095088D01*
X41785058Y-45929083D01*
X41763248Y-45814005D01*
X41723765Y-45743754D01*
X41664044Y-45712229D01*
X41629528Y-45709052D01*
X41547611Y-45723960D01*
X41491421Y-45773048D01*
X41457598Y-45862862D01*
X41442780Y-45999945D01*
X41441414Y-46075321D01*
X41160812Y-46075321D01*
X41161287Y-46048452D01*
X41165247Y-45917882D01*
X41170826Y-45822587D01*
X41178746Y-45754864D01*
X41189731Y-45707007D01*
X41204501Y-45671313D01*
X41223782Y-45640078D01*
X41232049Y-45628324D01*
X41341712Y-45517297D01*
X41480365Y-45454347D01*
X41640754Y-45436797D01*
X41780900Y-45454403D01*
X41780900Y-45454403D01*
G37*
X41780900Y-45454403D02*
X41892450Y-45510022D01*
X41990908Y-45612431D01*
X42018023Y-45650364D01*
X42047562Y-45700000D01*
X42066728Y-45753912D01*
X42077693Y-45825864D01*
X42082629Y-45929622D01*
X42083713Y-46066601D01*
X42078818Y-46254315D01*
X42061804Y-46395258D01*
X42029177Y-46500408D01*
X41977442Y-46580743D01*
X41903104Y-46647241D01*
X41897642Y-46651178D01*
X41824380Y-46691453D01*
X41736160Y-46711380D01*
X41623962Y-46716293D01*
X41441567Y-46716293D01*
X41441491Y-46893357D01*
X41439793Y-46991970D01*
X41429450Y-47049814D01*
X41402422Y-47084506D01*
X41350668Y-47113664D01*
X41338239Y-47119621D01*
X41280077Y-47147539D01*
X41235044Y-47165172D01*
X41201559Y-47166694D01*
X41178038Y-47146281D01*
X41162900Y-47098107D01*
X41154563Y-47016346D01*
X41151444Y-46895172D01*
X41151960Y-46728760D01*
X41154529Y-46511285D01*
X41155332Y-46446236D01*
X41158222Y-46222002D01*
X41160812Y-46075321D01*
X41441414Y-46075321D01*
X41442991Y-46199826D01*
X41450000Y-46281287D01*
X41465858Y-46335015D01*
X41493981Y-46376323D01*
X41513075Y-46396471D01*
X41591135Y-46455421D01*
X41660247Y-46460220D01*
X41731560Y-46411538D01*
X41733368Y-46409741D01*
X41762383Y-46372118D01*
X41780033Y-46320984D01*
X41788936Y-46242238D01*
X41791709Y-46121776D01*
X41791759Y-46095088D01*
X41785058Y-45929083D01*
X41763248Y-45814005D01*
X41723765Y-45743754D01*
X41664044Y-45712229D01*
X41629528Y-45709052D01*
X41547611Y-45723960D01*
X41491421Y-45773048D01*
X41457598Y-45862862D01*
X41442780Y-45999945D01*
X41441414Y-46075321D01*
X41160812Y-46075321D01*
X41161287Y-46048452D01*
X41165247Y-45917882D01*
X41170826Y-45822587D01*
X41178746Y-45754864D01*
X41189731Y-45707007D01*
X41204501Y-45671313D01*
X41223782Y-45640078D01*
X41232049Y-45628324D01*
X41341712Y-45517297D01*
X41480365Y-45454347D01*
X41640754Y-45436797D01*
X41780900Y-45454403D01*
G36*
X44026429Y-45470219D02*
X44120123Y-45524414D01*
X44185264Y-45578207D01*
X44232907Y-45634566D01*
X44265728Y-45703487D01*
X44286406Y-45794968D01*
X44297620Y-45919006D01*
X44302049Y-46085598D01*
X44302563Y-46205351D01*
X44302563Y-46646159D01*
X44178483Y-46701783D01*
X44054402Y-46757407D01*
X44039805Y-46274595D01*
X44033773Y-46094279D01*
X44027445Y-45963401D01*
X44019606Y-45873011D01*
X44009037Y-45814164D01*
X43994523Y-45777913D01*
X43974848Y-45755310D01*
X43968535Y-45750417D01*
X43872888Y-45712206D01*
X43776207Y-45727327D01*
X43718655Y-45767443D01*
X43695245Y-45795870D01*
X43679039Y-45833172D01*
X43668741Y-45889723D01*
X43663049Y-45975894D01*
X43660664Y-46102058D01*
X43660264Y-46233542D01*
X43660186Y-46398499D01*
X43657361Y-46515261D01*
X43647907Y-46594010D01*
X43627940Y-46644931D01*
X43593576Y-46678206D01*
X43540932Y-46704020D01*
X43470617Y-46730844D01*
X43393820Y-46760042D01*
X43402962Y-46241846D01*
X43406643Y-46055039D01*
X43410950Y-45916990D01*
X43417123Y-45818068D01*
X43426402Y-45748645D01*
X43440027Y-45699090D01*
X43459239Y-45659773D01*
X43482402Y-45625084D01*
X43594152Y-45514270D01*
X43730513Y-45450189D01*
X43878825Y-45434839D01*
X44026429Y-45470219D01*
X44026429Y-45470219D01*
G37*
X44026429Y-45470219D02*
X44120123Y-45524414D01*
X44185264Y-45578207D01*
X44232907Y-45634566D01*
X44265728Y-45703487D01*
X44286406Y-45794968D01*
X44297620Y-45919006D01*
X44302049Y-46085598D01*
X44302563Y-46205351D01*
X44302563Y-46646159D01*
X44178483Y-46701783D01*
X44054402Y-46757407D01*
X44039805Y-46274595D01*
X44033773Y-46094279D01*
X44027445Y-45963401D01*
X44019606Y-45873011D01*
X44009037Y-45814164D01*
X43994523Y-45777913D01*
X43974848Y-45755310D01*
X43968535Y-45750417D01*
X43872888Y-45712206D01*
X43776207Y-45727327D01*
X43718655Y-45767443D01*
X43695245Y-45795870D01*
X43679039Y-45833172D01*
X43668741Y-45889723D01*
X43663049Y-45975894D01*
X43660664Y-46102058D01*
X43660264Y-46233542D01*
X43660186Y-46398499D01*
X43657361Y-46515261D01*
X43647907Y-46594010D01*
X43627940Y-46644931D01*
X43593576Y-46678206D01*
X43540932Y-46704020D01*
X43470617Y-46730844D01*
X43393820Y-46760042D01*
X43402962Y-46241846D01*
X43406643Y-46055039D01*
X43410950Y-45916990D01*
X43417123Y-45818068D01*
X43426402Y-45748645D01*
X43440027Y-45699090D01*
X43459239Y-45659773D01*
X43482402Y-45625084D01*
X43594152Y-45514270D01*
X43730513Y-45450189D01*
X43878825Y-45434839D01*
X44026429Y-45470219D01*
G36*
X40657221Y-45458515D02*
X40794061Y-45530468D01*
X40895051Y-45646266D01*
X40930925Y-45720713D01*
X40958839Y-45832492D01*
X40973129Y-45973727D01*
X40974484Y-46127871D01*
X40963595Y-46278379D01*
X40941153Y-46408705D01*
X40907850Y-46502303D01*
X40897615Y-46518422D01*
X40776382Y-46638749D01*
X40632387Y-46710817D01*
X40476139Y-46731908D01*
X40318148Y-46699302D01*
X40274180Y-46679753D01*
X40188556Y-46619512D01*
X40113408Y-46539635D01*
X40106306Y-46529504D01*
X40077439Y-46480681D01*
X40058357Y-46428490D01*
X40047084Y-46359785D01*
X40041645Y-46261418D01*
X40040062Y-46120244D01*
X40040035Y-46088592D01*
X40040107Y-46078519D01*
X40331989Y-46078519D01*
X40333687Y-46211756D01*
X40340372Y-46300174D01*
X40354425Y-46357285D01*
X40378229Y-46396602D01*
X40390379Y-46409741D01*
X40460236Y-46459672D01*
X40528059Y-46457395D01*
X40596635Y-46414084D01*
X40637535Y-46367846D01*
X40661758Y-46300357D01*
X40675361Y-46193933D01*
X40676294Y-46181520D01*
X40678616Y-45988647D01*
X40654350Y-45845400D01*
X40603824Y-45752660D01*
X40527368Y-45711307D01*
X40500076Y-45709052D01*
X40428411Y-45720393D01*
X40379390Y-45759684D01*
X40349418Y-45834826D01*
X40334899Y-45953722D01*
X40331989Y-46078519D01*
X40040107Y-46078519D01*
X40041122Y-45938159D01*
X40045688Y-45833049D01*
X40055688Y-45760214D01*
X40073079Y-45706608D01*
X40099816Y-45659181D01*
X40105724Y-45650364D01*
X40205032Y-45531507D01*
X40313242Y-45462508D01*
X40444981Y-45435119D01*
X40489717Y-45433781D01*
X40657221Y-45458515D01*
X40657221Y-45458515D01*
G37*
X40657221Y-45458515D02*
X40794061Y-45530468D01*
X40895051Y-45646266D01*
X40930925Y-45720713D01*
X40958839Y-45832492D01*
X40973129Y-45973727D01*
X40974484Y-46127871D01*
X40963595Y-46278379D01*
X40941153Y-46408705D01*
X40907850Y-46502303D01*
X40897615Y-46518422D01*
X40776382Y-46638749D01*
X40632387Y-46710817D01*
X40476139Y-46731908D01*
X40318148Y-46699302D01*
X40274180Y-46679753D01*
X40188556Y-46619512D01*
X40113408Y-46539635D01*
X40106306Y-46529504D01*
X40077439Y-46480681D01*
X40058357Y-46428490D01*
X40047084Y-46359785D01*
X40041645Y-46261418D01*
X40040062Y-46120244D01*
X40040035Y-46088592D01*
X40040107Y-46078519D01*
X40331989Y-46078519D01*
X40333687Y-46211756D01*
X40340372Y-46300174D01*
X40354425Y-46357285D01*
X40378229Y-46396602D01*
X40390379Y-46409741D01*
X40460236Y-46459672D01*
X40528059Y-46457395D01*
X40596635Y-46414084D01*
X40637535Y-46367846D01*
X40661758Y-46300357D01*
X40675361Y-46193933D01*
X40676294Y-46181520D01*
X40678616Y-45988647D01*
X40654350Y-45845400D01*
X40603824Y-45752660D01*
X40527368Y-45711307D01*
X40500076Y-45709052D01*
X40428411Y-45720393D01*
X40379390Y-45759684D01*
X40349418Y-45834826D01*
X40334899Y-45953722D01*
X40331989Y-46078519D01*
X40040107Y-46078519D01*
X40041122Y-45938159D01*
X40045688Y-45833049D01*
X40055688Y-45760214D01*
X40073079Y-45706608D01*
X40099816Y-45659181D01*
X40105724Y-45650364D01*
X40205032Y-45531507D01*
X40313242Y-45462508D01*
X40444981Y-45435119D01*
X40489717Y-45433781D01*
X40657221Y-45458515D01*
G36*
X42924552Y-45477176D02*
X43039658Y-45554611D01*
X43128611Y-45666449D01*
X43181749Y-45808765D01*
X43192497Y-45913515D01*
X43191276Y-45957226D01*
X43181056Y-45990694D01*
X43152961Y-46020679D01*
X43098116Y-46053940D01*
X43007645Y-46097238D01*
X42872672Y-46157333D01*
X42871989Y-46157634D01*
X42747751Y-46214537D01*
X42645873Y-46265065D01*
X42576767Y-46303780D01*
X42550846Y-46325240D01*
X42550839Y-46325413D01*
X42573685Y-46372144D01*
X42627109Y-46423654D01*
X42688442Y-46460761D01*
X42719515Y-46468132D01*
X42804289Y-46442638D01*
X42877293Y-46378791D01*
X42912913Y-46308594D01*
X42947180Y-46256843D01*
X43014303Y-46197909D01*
X43093208Y-46146996D01*
X43162821Y-46119309D01*
X43177377Y-46117787D01*
X43193763Y-46142821D01*
X43194750Y-46206811D01*
X43182708Y-46293093D01*
X43160007Y-46385001D01*
X43129014Y-46465869D01*
X43127448Y-46469009D01*
X43034181Y-46599234D01*
X42913304Y-46687811D01*
X42776027Y-46731286D01*
X42633560Y-46726206D01*
X42497112Y-46669116D01*
X42491045Y-46665102D01*
X42383710Y-46567826D01*
X42313132Y-46440909D01*
X42274074Y-46274026D01*
X42268832Y-46227139D01*
X42259548Y-46005829D01*
X42270678Y-45902624D01*
X42550839Y-45902624D01*
X42554479Y-45967003D01*
X42574389Y-45985791D01*
X42624026Y-45971735D01*
X42702267Y-45938509D01*
X42789726Y-45896859D01*
X42791899Y-45895756D01*
X42866030Y-45856765D01*
X42895781Y-45830744D01*
X42888445Y-45803465D01*
X42857553Y-45767621D01*
X42778960Y-45715751D01*
X42694323Y-45711939D01*
X42618403Y-45749689D01*
X42565965Y-45822501D01*
X42550839Y-45902624D01*
X42270678Y-45902624D01*
X42278644Y-45828761D01*
X42327634Y-45688329D01*
X42395836Y-45589947D01*
X42518935Y-45490530D01*
X42654528Y-45441211D01*
X42792955Y-45438068D01*
X42924552Y-45477176D01*
X42924552Y-45477176D01*
G37*
X42924552Y-45477176D02*
X43039658Y-45554611D01*
X43128611Y-45666449D01*
X43181749Y-45808765D01*
X43192497Y-45913515D01*
X43191276Y-45957226D01*
X43181056Y-45990694D01*
X43152961Y-46020679D01*
X43098116Y-46053940D01*
X43007645Y-46097238D01*
X42872672Y-46157333D01*
X42871989Y-46157634D01*
X42747751Y-46214537D01*
X42645873Y-46265065D01*
X42576767Y-46303780D01*
X42550846Y-46325240D01*
X42550839Y-46325413D01*
X42573685Y-46372144D01*
X42627109Y-46423654D01*
X42688442Y-46460761D01*
X42719515Y-46468132D01*
X42804289Y-46442638D01*
X42877293Y-46378791D01*
X42912913Y-46308594D01*
X42947180Y-46256843D01*
X43014303Y-46197909D01*
X43093208Y-46146996D01*
X43162821Y-46119309D01*
X43177377Y-46117787D01*
X43193763Y-46142821D01*
X43194750Y-46206811D01*
X43182708Y-46293093D01*
X43160007Y-46385001D01*
X43129014Y-46465869D01*
X43127448Y-46469009D01*
X43034181Y-46599234D01*
X42913304Y-46687811D01*
X42776027Y-46731286D01*
X42633560Y-46726206D01*
X42497112Y-46669116D01*
X42491045Y-46665102D01*
X42383710Y-46567826D01*
X42313132Y-46440909D01*
X42274074Y-46274026D01*
X42268832Y-46227139D01*
X42259548Y-46005829D01*
X42270678Y-45902624D01*
X42550839Y-45902624D01*
X42554479Y-45967003D01*
X42574389Y-45985791D01*
X42624026Y-45971735D01*
X42702267Y-45938509D01*
X42789726Y-45896859D01*
X42791899Y-45895756D01*
X42866030Y-45856765D01*
X42895781Y-45830744D01*
X42888445Y-45803465D01*
X42857553Y-45767621D01*
X42778960Y-45715751D01*
X42694323Y-45711939D01*
X42618403Y-45749689D01*
X42565965Y-45822501D01*
X42550839Y-45902624D01*
X42270678Y-45902624D01*
X42278644Y-45828761D01*
X42327634Y-45688329D01*
X42395836Y-45589947D01*
X42518935Y-45490530D01*
X42654528Y-45441211D01*
X42792955Y-45438068D01*
X42924552Y-45477176D01*
G36*
X45353598Y-45316357D02*
X45362154Y-45435688D01*
X45371981Y-45506006D01*
X45385599Y-45536679D01*
X45405527Y-45537071D01*
X45411989Y-45533410D01*
X45497940Y-45506898D01*
X45609745Y-45508446D01*
X45723414Y-45535699D01*
X45794510Y-45570955D01*
X45867405Y-45627278D01*
X45920693Y-45691019D01*
X45957275Y-45772010D01*
X45980050Y-45880086D01*
X45991919Y-46025080D01*
X45995782Y-46216826D01*
X45995851Y-46253609D01*
X45995897Y-46666788D01*
X45903954Y-46698839D01*
X45838652Y-46720644D01*
X45802824Y-46730797D01*
X45801770Y-46730891D01*
X45798242Y-46703360D01*
X45795239Y-46627423D01*
X45792990Y-46513065D01*
X45791724Y-46370269D01*
X45791529Y-46283451D01*
X45791123Y-46112273D01*
X45789032Y-45989588D01*
X45783947Y-45905500D01*
X45774560Y-45850114D01*
X45759561Y-45813532D01*
X45737642Y-45785859D01*
X45723957Y-45772532D01*
X45629949Y-45718828D01*
X45527364Y-45714807D01*
X45434290Y-45760225D01*
X45417078Y-45776623D01*
X45391832Y-45807457D01*
X45374320Y-45844031D01*
X45363142Y-45896915D01*
X45356896Y-45976677D01*
X45354182Y-46093885D01*
X45353598Y-46255491D01*
X45353598Y-46666788D01*
X45261655Y-46698839D01*
X45196353Y-46720644D01*
X45160525Y-46730797D01*
X45159471Y-46730891D01*
X45156775Y-46702948D01*
X45154345Y-46624130D01*
X45152278Y-46501953D01*
X45150671Y-46343932D01*
X45149623Y-46157583D01*
X45149231Y-45950420D01*
X45149230Y-45941206D01*
X45149230Y-45151520D01*
X45244115Y-45111497D01*
X45339000Y-45071473D01*
X45353598Y-45316357D01*
X45353598Y-45316357D01*
G37*
X45353598Y-45316357D02*
X45362154Y-45435688D01*
X45371981Y-45506006D01*
X45385599Y-45536679D01*
X45405527Y-45537071D01*
X45411989Y-45533410D01*
X45497940Y-45506898D01*
X45609745Y-45508446D01*
X45723414Y-45535699D01*
X45794510Y-45570955D01*
X45867405Y-45627278D01*
X45920693Y-45691019D01*
X45957275Y-45772010D01*
X45980050Y-45880086D01*
X45991919Y-46025080D01*
X45995782Y-46216826D01*
X45995851Y-46253609D01*
X45995897Y-46666788D01*
X45903954Y-46698839D01*
X45838652Y-46720644D01*
X45802824Y-46730797D01*
X45801770Y-46730891D01*
X45798242Y-46703360D01*
X45795239Y-46627423D01*
X45792990Y-46513065D01*
X45791724Y-46370269D01*
X45791529Y-46283451D01*
X45791123Y-46112273D01*
X45789032Y-45989588D01*
X45783947Y-45905500D01*
X45774560Y-45850114D01*
X45759561Y-45813532D01*
X45737642Y-45785859D01*
X45723957Y-45772532D01*
X45629949Y-45718828D01*
X45527364Y-45714807D01*
X45434290Y-45760225D01*
X45417078Y-45776623D01*
X45391832Y-45807457D01*
X45374320Y-45844031D01*
X45363142Y-45896915D01*
X45356896Y-45976677D01*
X45354182Y-46093885D01*
X45353598Y-46255491D01*
X45353598Y-46666788D01*
X45261655Y-46698839D01*
X45196353Y-46720644D01*
X45160525Y-46730797D01*
X45159471Y-46730891D01*
X45156775Y-46702948D01*
X45154345Y-46624130D01*
X45152278Y-46501953D01*
X45150671Y-46343932D01*
X45149623Y-46157583D01*
X45149231Y-45950420D01*
X45149230Y-45941206D01*
X45149230Y-45151520D01*
X45244115Y-45111497D01*
X45339000Y-45071473D01*
X45353598Y-45316357D01*
G36*
X46688944Y-45516860D02*
X46803343Y-45559342D01*
X46804652Y-45560158D01*
X46875403Y-45612230D01*
X46927636Y-45673084D01*
X46964371Y-45752387D01*
X46988634Y-45859809D01*
X47003445Y-46005017D01*
X47011829Y-46197679D01*
X47012564Y-46225128D01*
X47023120Y-46639021D01*
X46934291Y-46684956D01*
X46870018Y-46715998D01*
X46831210Y-46730706D01*
X46829415Y-46730891D01*
X46822700Y-46703750D01*
X46817365Y-46630541D01*
X46814083Y-46523581D01*
X46813368Y-46436969D01*
X46813351Y-46296662D01*
X46806937Y-46208551D01*
X46784580Y-46166525D01*
X46736732Y-46164475D01*
X46653849Y-46196290D01*
X46528713Y-46254772D01*
X46436697Y-46303345D01*
X46389371Y-46345486D01*
X46375458Y-46391416D01*
X46375437Y-46393689D01*
X46398395Y-46472811D01*
X46466370Y-46515555D01*
X46570398Y-46521746D01*
X46645330Y-46520672D01*
X46684839Y-46542253D01*
X46709478Y-46594091D01*
X46723659Y-46660132D01*
X46703223Y-46697604D01*
X46695528Y-46702967D01*
X46623083Y-46724506D01*
X46521633Y-46727555D01*
X46417157Y-46713278D01*
X46343125Y-46687188D01*
X46240772Y-46600285D01*
X46182591Y-46479316D01*
X46171069Y-46384808D01*
X46179862Y-46299562D01*
X46211680Y-46229976D01*
X46274684Y-46168172D01*
X46377031Y-46106272D01*
X46526882Y-46036397D01*
X46536012Y-46032448D01*
X46670997Y-45970088D01*
X46754294Y-45918946D01*
X46789997Y-45872988D01*
X46782203Y-45826183D01*
X46735007Y-45772498D01*
X46720894Y-45760144D01*
X46626359Y-45712241D01*
X46528406Y-45714258D01*
X46443097Y-45761224D01*
X46386496Y-45848169D01*
X46381237Y-45865234D01*
X46330023Y-45948004D01*
X46265037Y-45987872D01*
X46171069Y-46027382D01*
X46171069Y-45925158D01*
X46199653Y-45776572D01*
X46284495Y-45640284D01*
X46328645Y-45594691D01*
X46429005Y-45536174D01*
X46556635Y-45509684D01*
X46688944Y-45516860D01*
X46688944Y-45516860D01*
G37*
X46688944Y-45516860D02*
X46803343Y-45559342D01*
X46804652Y-45560158D01*
X46875403Y-45612230D01*
X46927636Y-45673084D01*
X46964371Y-45752387D01*
X46988634Y-45859809D01*
X47003445Y-46005017D01*
X47011829Y-46197679D01*
X47012564Y-46225128D01*
X47023120Y-46639021D01*
X46934291Y-46684956D01*
X46870018Y-46715998D01*
X46831210Y-46730706D01*
X46829415Y-46730891D01*
X46822700Y-46703750D01*
X46817365Y-46630541D01*
X46814083Y-46523581D01*
X46813368Y-46436969D01*
X46813351Y-46296662D01*
X46806937Y-46208551D01*
X46784580Y-46166525D01*
X46736732Y-46164475D01*
X46653849Y-46196290D01*
X46528713Y-46254772D01*
X46436697Y-46303345D01*
X46389371Y-46345486D01*
X46375458Y-46391416D01*
X46375437Y-46393689D01*
X46398395Y-46472811D01*
X46466370Y-46515555D01*
X46570398Y-46521746D01*
X46645330Y-46520672D01*
X46684839Y-46542253D01*
X46709478Y-46594091D01*
X46723659Y-46660132D01*
X46703223Y-46697604D01*
X46695528Y-46702967D01*
X46623083Y-46724506D01*
X46521633Y-46727555D01*
X46417157Y-46713278D01*
X46343125Y-46687188D01*
X46240772Y-46600285D01*
X46182591Y-46479316D01*
X46171069Y-46384808D01*
X46179862Y-46299562D01*
X46211680Y-46229976D01*
X46274684Y-46168172D01*
X46377031Y-46106272D01*
X46526882Y-46036397D01*
X46536012Y-46032448D01*
X46670997Y-45970088D01*
X46754294Y-45918946D01*
X46789997Y-45872988D01*
X46782203Y-45826183D01*
X46735007Y-45772498D01*
X46720894Y-45760144D01*
X46626359Y-45712241D01*
X46528406Y-45714258D01*
X46443097Y-45761224D01*
X46386496Y-45848169D01*
X46381237Y-45865234D01*
X46330023Y-45948004D01*
X46265037Y-45987872D01*
X46171069Y-46027382D01*
X46171069Y-45925158D01*
X46199653Y-45776572D01*
X46284495Y-45640284D01*
X46328645Y-45594691D01*
X46429005Y-45536174D01*
X46556635Y-45509684D01*
X46688944Y-45516860D01*
G36*
X47674943Y-45514420D02*
X47807565Y-45563359D01*
X47915010Y-45649919D01*
X47957032Y-45710852D01*
X48002843Y-45822661D01*
X48001891Y-45903506D01*
X47953808Y-45957878D01*
X47936017Y-45967124D01*
X47859204Y-45995950D01*
X47819976Y-45988565D01*
X47806689Y-45940158D01*
X47806012Y-45913420D01*
X47781686Y-45815048D01*
X47718281Y-45746234D01*
X47630154Y-45712998D01*
X47531663Y-45721361D01*
X47451602Y-45764796D01*
X47424561Y-45789572D01*
X47405394Y-45819629D01*
X47392446Y-45865065D01*
X47384064Y-45935976D01*
X47378593Y-46042460D01*
X47374378Y-46194612D01*
X47373287Y-46242787D01*
X47369307Y-46407595D01*
X47364781Y-46523588D01*
X47357995Y-46600333D01*
X47347231Y-46647393D01*
X47330773Y-46674335D01*
X47306906Y-46690723D01*
X47291626Y-46697963D01*
X47226733Y-46722720D01*
X47188534Y-46730891D01*
X47175912Y-46703603D01*
X47168208Y-46621103D01*
X47165380Y-46482441D01*
X47167386Y-46286662D01*
X47168011Y-46256465D01*
X47172421Y-46077849D01*
X47177635Y-45947423D01*
X47185055Y-45854992D01*
X47196082Y-45790358D01*
X47212117Y-45743325D01*
X47234561Y-45703696D01*
X47246302Y-45686715D01*
X47313619Y-45611580D01*
X47388910Y-45553138D01*
X47398128Y-45548036D01*
X47533133Y-45507760D01*
X47674943Y-45514420D01*
X47674943Y-45514420D01*
G37*
X47674943Y-45514420D02*
X47807565Y-45563359D01*
X47915010Y-45649919D01*
X47957032Y-45710852D01*
X48002843Y-45822661D01*
X48001891Y-45903506D01*
X47953808Y-45957878D01*
X47936017Y-45967124D01*
X47859204Y-45995950D01*
X47819976Y-45988565D01*
X47806689Y-45940158D01*
X47806012Y-45913420D01*
X47781686Y-45815048D01*
X47718281Y-45746234D01*
X47630154Y-45712998D01*
X47531663Y-45721361D01*
X47451602Y-45764796D01*
X47424561Y-45789572D01*
X47405394Y-45819629D01*
X47392446Y-45865065D01*
X47384064Y-45935976D01*
X47378593Y-46042460D01*
X47374378Y-46194612D01*
X47373287Y-46242787D01*
X47369307Y-46407595D01*
X47364781Y-46523588D01*
X47357995Y-46600333D01*
X47347231Y-46647393D01*
X47330773Y-46674335D01*
X47306906Y-46690723D01*
X47291626Y-46697963D01*
X47226733Y-46722720D01*
X47188534Y-46730891D01*
X47175912Y-46703603D01*
X47168208Y-46621103D01*
X47165380Y-46482441D01*
X47167386Y-46286662D01*
X47168011Y-46256465D01*
X47172421Y-46077849D01*
X47177635Y-45947423D01*
X47185055Y-45854992D01*
X47196082Y-45790358D01*
X47212117Y-45743325D01*
X47234561Y-45703696D01*
X47246302Y-45686715D01*
X47313619Y-45611580D01*
X47388910Y-45553138D01*
X47398128Y-45548036D01*
X47533133Y-45507760D01*
X47674943Y-45514420D01*
G36*
X49002914Y-45746955D02*
X49002543Y-45965161D01*
X49001108Y-46133019D01*
X48998002Y-46258570D01*
X48992622Y-46349855D01*
X48984362Y-46414915D01*
X48972616Y-46461791D01*
X48956781Y-46498524D01*
X48944790Y-46519491D01*
X48845490Y-46633194D01*
X48719588Y-46704465D01*
X48580291Y-46730038D01*
X48440805Y-46706650D01*
X48357743Y-46664619D01*
X48270545Y-46591911D01*
X48211117Y-46503112D01*
X48175261Y-46386820D01*
X48158781Y-46231635D01*
X48156447Y-46117787D01*
X48156761Y-46109606D01*
X48360724Y-46109606D01*
X48361970Y-46240157D01*
X48367678Y-46326580D01*
X48380804Y-46383118D01*
X48404306Y-46424014D01*
X48432386Y-46454862D01*
X48526688Y-46514405D01*
X48627940Y-46519492D01*
X48723636Y-46469779D01*
X48731084Y-46463043D01*
X48762874Y-46428002D01*
X48782808Y-46386311D01*
X48793600Y-46324262D01*
X48797965Y-46228144D01*
X48798655Y-46121879D01*
X48797159Y-45988380D01*
X48790964Y-45899322D01*
X48777514Y-45840793D01*
X48754251Y-45798882D01*
X48735175Y-45776623D01*
X48646563Y-45720485D01*
X48544508Y-45713735D01*
X48447095Y-45756614D01*
X48428296Y-45772532D01*
X48396293Y-45807882D01*
X48376318Y-45850002D01*
X48365593Y-45912751D01*
X48361339Y-46009987D01*
X48360724Y-46109606D01*
X48156761Y-46109606D01*
X48163504Y-45934447D01*
X48187472Y-45796695D01*
X48232548Y-45693132D01*
X48302928Y-45612356D01*
X48357743Y-45570955D01*
X48457376Y-45526228D01*
X48572855Y-45505467D01*
X48680199Y-45511025D01*
X48740264Y-45533443D01*
X48763835Y-45539823D01*
X48779477Y-45516035D01*
X48790395Y-45452288D01*
X48798655Y-45355187D01*
X48807699Y-45247041D01*
X48820261Y-45181975D01*
X48843119Y-45144768D01*
X48883051Y-45120199D01*
X48908138Y-45109319D01*
X49003023Y-45069572D01*
X49002914Y-45746955D01*
X49002914Y-45746955D01*
G37*
X49002914Y-45746955D02*
X49002543Y-45965161D01*
X49001108Y-46133019D01*
X48998002Y-46258570D01*
X48992622Y-46349855D01*
X48984362Y-46414915D01*
X48972616Y-46461791D01*
X48956781Y-46498524D01*
X48944790Y-46519491D01*
X48845490Y-46633194D01*
X48719588Y-46704465D01*
X48580291Y-46730038D01*
X48440805Y-46706650D01*
X48357743Y-46664619D01*
X48270545Y-46591911D01*
X48211117Y-46503112D01*
X48175261Y-46386820D01*
X48158781Y-46231635D01*
X48156447Y-46117787D01*
X48156761Y-46109606D01*
X48360724Y-46109606D01*
X48361970Y-46240157D01*
X48367678Y-46326580D01*
X48380804Y-46383118D01*
X48404306Y-46424014D01*
X48432386Y-46454862D01*
X48526688Y-46514405D01*
X48627940Y-46519492D01*
X48723636Y-46469779D01*
X48731084Y-46463043D01*
X48762874Y-46428002D01*
X48782808Y-46386311D01*
X48793600Y-46324262D01*
X48797965Y-46228144D01*
X48798655Y-46121879D01*
X48797159Y-45988380D01*
X48790964Y-45899322D01*
X48777514Y-45840793D01*
X48754251Y-45798882D01*
X48735175Y-45776623D01*
X48646563Y-45720485D01*
X48544508Y-45713735D01*
X48447095Y-45756614D01*
X48428296Y-45772532D01*
X48396293Y-45807882D01*
X48376318Y-45850002D01*
X48365593Y-45912751D01*
X48361339Y-46009987D01*
X48360724Y-46109606D01*
X48156761Y-46109606D01*
X48163504Y-45934447D01*
X48187472Y-45796695D01*
X48232548Y-45693132D01*
X48302928Y-45612356D01*
X48357743Y-45570955D01*
X48457376Y-45526228D01*
X48572855Y-45505467D01*
X48680199Y-45511025D01*
X48740264Y-45533443D01*
X48763835Y-45539823D01*
X48779477Y-45516035D01*
X48790395Y-45452288D01*
X48798655Y-45355187D01*
X48807699Y-45247041D01*
X48820261Y-45181975D01*
X48843119Y-45144768D01*
X48883051Y-45120199D01*
X48908138Y-45109319D01*
X49003023Y-45069572D01*
X49002914Y-45746955D01*
G36*
X50189124Y-45532340D02*
X50193579Y-45609153D01*
X50197071Y-45725891D01*
X50199315Y-45873321D01*
X50200035Y-46027955D01*
X50200035Y-46551227D01*
X50107645Y-46643617D01*
X50043978Y-46700547D01*
X49988089Y-46723607D01*
X49911702Y-46722147D01*
X49881380Y-46718434D01*
X49786610Y-46707626D01*
X49708222Y-46701433D01*
X49689115Y-46700861D01*
X49624699Y-46704602D01*
X49532571Y-46713994D01*
X49496850Y-46718434D01*
X49409114Y-46725301D01*
X49350153Y-46710385D01*
X49291690Y-46664335D01*
X49270585Y-46643617D01*
X49178195Y-46551227D01*
X49178195Y-45572447D01*
X49252558Y-45538566D01*
X49316590Y-45513470D01*
X49354052Y-45504684D01*
X49363657Y-45532450D01*
X49372635Y-45610030D01*
X49380386Y-45728848D01*
X49386314Y-45880328D01*
X49389173Y-46008305D01*
X49397161Y-46511925D01*
X49466848Y-46521778D01*
X49530229Y-46514889D01*
X49561286Y-46492583D01*
X49569967Y-46450879D01*
X49577378Y-46362044D01*
X49582931Y-46237334D01*
X49586036Y-46088007D01*
X49586484Y-46011161D01*
X49586931Y-45568787D01*
X49678874Y-45536735D01*
X49743949Y-45514943D01*
X49779347Y-45504781D01*
X49780368Y-45504684D01*
X49783920Y-45532309D01*
X49787823Y-45608911D01*
X49791751Y-45725079D01*
X49795376Y-45871404D01*
X49797908Y-46008305D01*
X49805897Y-46511925D01*
X49981069Y-46511925D01*
X49989107Y-46052465D01*
X49997146Y-45593005D01*
X50082543Y-45548844D01*
X50145593Y-45518519D01*
X50182910Y-45504758D01*
X50183987Y-45504684D01*
X50189124Y-45532340D01*
X50189124Y-45532340D01*
G37*
X50189124Y-45532340D02*
X50193579Y-45609153D01*
X50197071Y-45725891D01*
X50199315Y-45873321D01*
X50200035Y-46027955D01*
X50200035Y-46551227D01*
X50107645Y-46643617D01*
X50043978Y-46700547D01*
X49988089Y-46723607D01*
X49911702Y-46722147D01*
X49881380Y-46718434D01*
X49786610Y-46707626D01*
X49708222Y-46701433D01*
X49689115Y-46700861D01*
X49624699Y-46704602D01*
X49532571Y-46713994D01*
X49496850Y-46718434D01*
X49409114Y-46725301D01*
X49350153Y-46710385D01*
X49291690Y-46664335D01*
X49270585Y-46643617D01*
X49178195Y-46551227D01*
X49178195Y-45572447D01*
X49252558Y-45538566D01*
X49316590Y-45513470D01*
X49354052Y-45504684D01*
X49363657Y-45532450D01*
X49372635Y-45610030D01*
X49380386Y-45728848D01*
X49386314Y-45880328D01*
X49389173Y-46008305D01*
X49397161Y-46511925D01*
X49466848Y-46521778D01*
X49530229Y-46514889D01*
X49561286Y-46492583D01*
X49569967Y-46450879D01*
X49577378Y-46362044D01*
X49582931Y-46237334D01*
X49586036Y-46088007D01*
X49586484Y-46011161D01*
X49586931Y-45568787D01*
X49678874Y-45536735D01*
X49743949Y-45514943D01*
X49779347Y-45504781D01*
X49780368Y-45504684D01*
X49783920Y-45532309D01*
X49787823Y-45608911D01*
X49791751Y-45725079D01*
X49795376Y-45871404D01*
X49797908Y-46008305D01*
X49805897Y-46511925D01*
X49981069Y-46511925D01*
X49989107Y-46052465D01*
X49997146Y-45593005D01*
X50082543Y-45548844D01*
X50145593Y-45518519D01*
X50182910Y-45504758D01*
X50183987Y-45504684D01*
X50189124Y-45532340D01*
G36*
X50923406Y-45527656D02*
X51007469Y-45565893D01*
X51073450Y-45612226D01*
X51121794Y-45664032D01*
X51155172Y-45730863D01*
X51176253Y-45822269D01*
X51187707Y-45947801D01*
X51192203Y-46117008D01*
X51192678Y-46228433D01*
X51192678Y-46663127D01*
X51118316Y-46697009D01*
X51059746Y-46721772D01*
X51030730Y-46730891D01*
X51025179Y-46703757D01*
X51020775Y-46630594D01*
X51018078Y-46523763D01*
X51017506Y-46438937D01*
X51015046Y-46316387D01*
X51008412Y-46219168D01*
X50998726Y-46159634D01*
X50991032Y-46146983D01*
X50939311Y-46159902D01*
X50858117Y-46193039D01*
X50764102Y-46237961D01*
X50673917Y-46286235D01*
X50604215Y-46329428D01*
X50571648Y-46359108D01*
X50571519Y-46359429D01*
X50574320Y-46414357D01*
X50599439Y-46466792D01*
X50643541Y-46509381D01*
X50707909Y-46523626D01*
X50762921Y-46521966D01*
X50840835Y-46520745D01*
X50881732Y-46538998D01*
X50906295Y-46587226D01*
X50909392Y-46596320D01*
X50920040Y-46665098D01*
X50891565Y-46706860D01*
X50817344Y-46726763D01*
X50737168Y-46730444D01*
X50592890Y-46703158D01*
X50518203Y-46664190D01*
X50425963Y-46572648D01*
X50377043Y-46460282D01*
X50372654Y-46341551D01*
X50414001Y-46230911D01*
X50476197Y-46161580D01*
X50538294Y-46122765D01*
X50635895Y-46073625D01*
X50749632Y-46023792D01*
X50768590Y-46016177D01*
X50893521Y-45961045D01*
X50965539Y-45912454D01*
X50988700Y-45864147D01*
X50967064Y-45809870D01*
X50929920Y-45767443D01*
X50842127Y-45715202D01*
X50745530Y-45711284D01*
X50656944Y-45751541D01*
X50593186Y-45831826D01*
X50584817Y-45852540D01*
X50536096Y-45928725D01*
X50464965Y-45985285D01*
X50375207Y-46031701D01*
X50375207Y-45900084D01*
X50380490Y-45819668D01*
X50403142Y-45756286D01*
X50453367Y-45688663D01*
X50501582Y-45636576D01*
X50576554Y-45562822D01*
X50634806Y-45523202D01*
X50697372Y-45507310D01*
X50768193Y-45504684D01*
X50923406Y-45527656D01*
X50923406Y-45527656D01*
G37*
X50923406Y-45527656D02*
X51007469Y-45565893D01*
X51073450Y-45612226D01*
X51121794Y-45664032D01*
X51155172Y-45730863D01*
X51176253Y-45822269D01*
X51187707Y-45947801D01*
X51192203Y-46117008D01*
X51192678Y-46228433D01*
X51192678Y-46663127D01*
X51118316Y-46697009D01*
X51059746Y-46721772D01*
X51030730Y-46730891D01*
X51025179Y-46703757D01*
X51020775Y-46630594D01*
X51018078Y-46523763D01*
X51017506Y-46438937D01*
X51015046Y-46316387D01*
X51008412Y-46219168D01*
X50998726Y-46159634D01*
X50991032Y-46146983D01*
X50939311Y-46159902D01*
X50858117Y-46193039D01*
X50764102Y-46237961D01*
X50673917Y-46286235D01*
X50604215Y-46329428D01*
X50571648Y-46359108D01*
X50571519Y-46359429D01*
X50574320Y-46414357D01*
X50599439Y-46466792D01*
X50643541Y-46509381D01*
X50707909Y-46523626D01*
X50762921Y-46521966D01*
X50840835Y-46520745D01*
X50881732Y-46538998D01*
X50906295Y-46587226D01*
X50909392Y-46596320D01*
X50920040Y-46665098D01*
X50891565Y-46706860D01*
X50817344Y-46726763D01*
X50737168Y-46730444D01*
X50592890Y-46703158D01*
X50518203Y-46664190D01*
X50425963Y-46572648D01*
X50377043Y-46460282D01*
X50372654Y-46341551D01*
X50414001Y-46230911D01*
X50476197Y-46161580D01*
X50538294Y-46122765D01*
X50635895Y-46073625D01*
X50749632Y-46023792D01*
X50768590Y-46016177D01*
X50893521Y-45961045D01*
X50965539Y-45912454D01*
X50988700Y-45864147D01*
X50967064Y-45809870D01*
X50929920Y-45767443D01*
X50842127Y-45715202D01*
X50745530Y-45711284D01*
X50656944Y-45751541D01*
X50593186Y-45831826D01*
X50584817Y-45852540D01*
X50536096Y-45928725D01*
X50464965Y-45985285D01*
X50375207Y-46031701D01*
X50375207Y-45900084D01*
X50380490Y-45819668D01*
X50403142Y-45756286D01*
X50453367Y-45688663D01*
X50501582Y-45636576D01*
X50576554Y-45562822D01*
X50634806Y-45523202D01*
X50697372Y-45507310D01*
X50768193Y-45504684D01*
X50923406Y-45527656D01*
G36*
X51944690Y-45532518D02*
X51979585Y-45547769D01*
X52062877Y-45613735D01*
X52134103Y-45709118D01*
X52178153Y-45810906D01*
X52185322Y-45861087D01*
X52161285Y-45931147D01*
X52108561Y-45968217D01*
X52052031Y-45990664D01*
X52026146Y-45994800D01*
X52013542Y-45964783D01*
X51988654Y-45899461D01*
X51977735Y-45869945D01*
X51916508Y-45767848D01*
X51827861Y-45716923D01*
X51714193Y-45718489D01*
X51705774Y-45720494D01*
X51645088Y-45749267D01*
X51600474Y-45805359D01*
X51570002Y-45895663D01*
X51551744Y-46027071D01*
X51543771Y-46206474D01*
X51543023Y-46301933D01*
X51542652Y-46452413D01*
X51540223Y-46554995D01*
X51533760Y-46620172D01*
X51521288Y-46658438D01*
X51500833Y-46680285D01*
X51470419Y-46696207D01*
X51468661Y-46697009D01*
X51410091Y-46721772D01*
X51381075Y-46730891D01*
X51376616Y-46703322D01*
X51372799Y-46627120D01*
X51369899Y-46512041D01*
X51368191Y-46367841D01*
X51367851Y-46262314D01*
X51369588Y-46058113D01*
X51376382Y-45903197D01*
X51390607Y-45788524D01*
X51414638Y-45705051D01*
X51450848Y-45643736D01*
X51501612Y-45595534D01*
X51551739Y-45561893D01*
X51672275Y-45517119D01*
X51812557Y-45507021D01*
X51944690Y-45532518D01*
X51944690Y-45532518D01*
G37*
X51944690Y-45532518D02*
X51979585Y-45547769D01*
X52062877Y-45613735D01*
X52134103Y-45709118D01*
X52178153Y-45810906D01*
X52185322Y-45861087D01*
X52161285Y-45931147D01*
X52108561Y-45968217D01*
X52052031Y-45990664D01*
X52026146Y-45994800D01*
X52013542Y-45964783D01*
X51988654Y-45899461D01*
X51977735Y-45869945D01*
X51916508Y-45767848D01*
X51827861Y-45716923D01*
X51714193Y-45718489D01*
X51705774Y-45720494D01*
X51645088Y-45749267D01*
X51600474Y-45805359D01*
X51570002Y-45895663D01*
X51551744Y-46027071D01*
X51543771Y-46206474D01*
X51543023Y-46301933D01*
X51542652Y-46452413D01*
X51540223Y-46554995D01*
X51533760Y-46620172D01*
X51521288Y-46658438D01*
X51500833Y-46680285D01*
X51470419Y-46696207D01*
X51468661Y-46697009D01*
X51410091Y-46721772D01*
X51381075Y-46730891D01*
X51376616Y-46703322D01*
X51372799Y-46627120D01*
X51369899Y-46512041D01*
X51368191Y-46367841D01*
X51367851Y-46262314D01*
X51369588Y-46058113D01*
X51376382Y-45903197D01*
X51390607Y-45788524D01*
X51414638Y-45705051D01*
X51450848Y-45643736D01*
X51501612Y-45595534D01*
X51551739Y-45561893D01*
X51672275Y-45517119D01*
X51812557Y-45507021D01*
X51944690Y-45532518D01*
G36*
X52952439Y-45549040D02*
X53067950Y-45624534D01*
X53123664Y-45692117D01*
X53167804Y-45814755D01*
X53171309Y-45911798D01*
X53163368Y-46041556D01*
X52864115Y-46172539D01*
X52718611Y-46239458D01*
X52623537Y-46293290D01*
X52574101Y-46339916D01*
X52565511Y-46385220D01*
X52592972Y-46435082D01*
X52623253Y-46468132D01*
X52711363Y-46521133D01*
X52807196Y-46524847D01*
X52895212Y-46483541D01*
X52959869Y-46401483D01*
X52971433Y-46372508D01*
X53026825Y-46282009D01*
X53090553Y-46243440D01*
X53177966Y-46210446D01*
X53177966Y-46335534D01*
X53170238Y-46420656D01*
X53139966Y-46492438D01*
X53076518Y-46574856D01*
X53067088Y-46585566D01*
X52996513Y-46658891D01*
X52935847Y-46698242D01*
X52859950Y-46716345D01*
X52797030Y-46722274D01*
X52684487Y-46723751D01*
X52604370Y-46705035D01*
X52554390Y-46677247D01*
X52475838Y-46616141D01*
X52421463Y-46550054D01*
X52387052Y-46466941D01*
X52368388Y-46354754D01*
X52361256Y-46201446D01*
X52360687Y-46123636D01*
X52362622Y-46030353D01*
X52538899Y-46030353D01*
X52540944Y-46080396D01*
X52546039Y-46088592D01*
X52579666Y-46077458D01*
X52652030Y-46047993D01*
X52748747Y-46006101D01*
X52768973Y-45997097D01*
X52891203Y-45934942D01*
X52958547Y-45880315D01*
X52973348Y-45829149D01*
X52937947Y-45777376D01*
X52908711Y-45754500D01*
X52803216Y-45708750D01*
X52704476Y-45716308D01*
X52621812Y-45772151D01*
X52564548Y-45871253D01*
X52546188Y-45949914D01*
X52538899Y-46030353D01*
X52362622Y-46030353D01*
X52364459Y-45941851D01*
X52378359Y-45807353D01*
X52405894Y-45709416D01*
X52450572Y-45637311D01*
X52515901Y-45580313D01*
X52544383Y-45561893D01*
X52673763Y-45513922D01*
X52815412Y-45510903D01*
X52952439Y-45549040D01*
X52952439Y-45549040D01*
G37*
X52952439Y-45549040D02*
X53067950Y-45624534D01*
X53123664Y-45692117D01*
X53167804Y-45814755D01*
X53171309Y-45911798D01*
X53163368Y-46041556D01*
X52864115Y-46172539D01*
X52718611Y-46239458D01*
X52623537Y-46293290D01*
X52574101Y-46339916D01*
X52565511Y-46385220D01*
X52592972Y-46435082D01*
X52623253Y-46468132D01*
X52711363Y-46521133D01*
X52807196Y-46524847D01*
X52895212Y-46483541D01*
X52959869Y-46401483D01*
X52971433Y-46372508D01*
X53026825Y-46282009D01*
X53090553Y-46243440D01*
X53177966Y-46210446D01*
X53177966Y-46335534D01*
X53170238Y-46420656D01*
X53139966Y-46492438D01*
X53076518Y-46574856D01*
X53067088Y-46585566D01*
X52996513Y-46658891D01*
X52935847Y-46698242D01*
X52859950Y-46716345D01*
X52797030Y-46722274D01*
X52684487Y-46723751D01*
X52604370Y-46705035D01*
X52554390Y-46677247D01*
X52475838Y-46616141D01*
X52421463Y-46550054D01*
X52387052Y-46466941D01*
X52368388Y-46354754D01*
X52361256Y-46201446D01*
X52360687Y-46123636D01*
X52362622Y-46030353D01*
X52538899Y-46030353D01*
X52540944Y-46080396D01*
X52546039Y-46088592D01*
X52579666Y-46077458D01*
X52652030Y-46047993D01*
X52748747Y-46006101D01*
X52768973Y-45997097D01*
X52891203Y-45934942D01*
X52958547Y-45880315D01*
X52973348Y-45829149D01*
X52937947Y-45777376D01*
X52908711Y-45754500D01*
X52803216Y-45708750D01*
X52704476Y-45716308D01*
X52621812Y-45772151D01*
X52564548Y-45871253D01*
X52546188Y-45949914D01*
X52538899Y-46030353D01*
X52362622Y-46030353D01*
X52364459Y-45941851D01*
X52378359Y-45807353D01*
X52405894Y-45709416D01*
X52450572Y-45637311D01*
X52515901Y-45580313D01*
X52544383Y-45561893D01*
X52673763Y-45513922D01*
X52815412Y-45510903D01*
X52952439Y-45549040D01*
G36*
X46818014Y-36045498D02*
X46976006Y-36046363D01*
X47090347Y-36048705D01*
X47168407Y-36053262D01*
X47217554Y-36060770D01*
X47245159Y-36071966D01*
X47258592Y-36087588D01*
X47265221Y-36108373D01*
X47265865Y-36111063D01*
X47275935Y-36159613D01*
X47294575Y-36255405D01*
X47319845Y-36388243D01*
X47349807Y-36547931D01*
X47382522Y-36724274D01*
X47383664Y-36730467D01*
X47416433Y-36903282D01*
X47447093Y-37055969D01*
X47473664Y-37179371D01*
X47494167Y-37264331D01*
X47506626Y-37301690D01*
X47507220Y-37302352D01*
X47543919Y-37320595D01*
X47619586Y-37350997D01*
X47717878Y-37386993D01*
X47718425Y-37387185D01*
X47842233Y-37433722D01*
X47988196Y-37493004D01*
X48125781Y-37552609D01*
X48132293Y-37555556D01*
X48356390Y-37657265D01*
X48852619Y-37318397D01*
X49004846Y-37215092D01*
X49142741Y-37122737D01*
X49258315Y-37046584D01*
X49343579Y-36991885D01*
X49390544Y-36963893D01*
X49395004Y-36961817D01*
X49429134Y-36971060D01*
X49492881Y-37015656D01*
X49588731Y-37097709D01*
X49719169Y-37219321D01*
X49852328Y-37348705D01*
X49980694Y-37476202D01*
X50095581Y-37592546D01*
X50190073Y-37690552D01*
X50257253Y-37763036D01*
X50290206Y-37802813D01*
X50291432Y-37804861D01*
X50295074Y-37832156D01*
X50281350Y-37876734D01*
X50246869Y-37944612D01*
X50188239Y-38041811D01*
X50102070Y-38174351D01*
X49987200Y-38344976D01*
X49885254Y-38495155D01*
X49794123Y-38629850D01*
X49719073Y-38741240D01*
X49665369Y-38821505D01*
X49638280Y-38862825D01*
X49636574Y-38865630D01*
X49639882Y-38905221D01*
X49664953Y-38982169D01*
X49706798Y-39081932D01*
X49721712Y-39113791D01*
X49786786Y-39255726D01*
X49856212Y-39416773D01*
X49912609Y-39556121D01*
X49953247Y-39659544D01*
X49985526Y-39738142D01*
X50004178Y-39779220D01*
X50006497Y-39782385D01*
X50040803Y-39787628D01*
X50121669Y-39801994D01*
X50238343Y-39823437D01*
X50380075Y-39849913D01*
X50536110Y-39879377D01*
X50695698Y-39909783D01*
X50848085Y-39939088D01*
X50982521Y-39965245D01*
X51088252Y-39986210D01*
X51154526Y-39999939D01*
X51170782Y-40003820D01*
X51187573Y-40013400D01*
X51200249Y-40035036D01*
X51209378Y-40076031D01*
X51215531Y-40143689D01*
X51219280Y-40245312D01*
X51221192Y-40388203D01*
X51221840Y-40579665D01*
X51221874Y-40658145D01*
X51221874Y-41296406D01*
X51068598Y-41326660D01*
X50983322Y-41343064D01*
X50856070Y-41367009D01*
X50702315Y-41395607D01*
X50537534Y-41425967D01*
X50491989Y-41434306D01*
X50339932Y-41463870D01*
X50207468Y-41492942D01*
X50105714Y-41518829D01*
X50045788Y-41538837D01*
X50035805Y-41544801D01*
X50011293Y-41587034D01*
X49976148Y-41668870D01*
X49937173Y-41774183D01*
X49929442Y-41796868D01*
X49878360Y-41937518D01*
X49814954Y-42096214D01*
X49752904Y-42238725D01*
X49752598Y-42239386D01*
X49649267Y-42462940D01*
X50328961Y-43462732D01*
X49892621Y-43899800D01*
X49760649Y-44029881D01*
X49640279Y-44144548D01*
X49538273Y-44237681D01*
X49461391Y-44303158D01*
X49416393Y-44334857D01*
X49409938Y-44336868D01*
X49372040Y-44321029D01*
X49294708Y-44276996D01*
X49186389Y-44209990D01*
X49055532Y-44125234D01*
X48914052Y-44030316D01*
X48770461Y-43933498D01*
X48642435Y-43849251D01*
X48538105Y-43782758D01*
X48465600Y-43739202D01*
X48433158Y-43723764D01*
X48393576Y-43736828D01*
X48318519Y-43771250D01*
X48223468Y-43819880D01*
X48213392Y-43825285D01*
X48085391Y-43889480D01*
X47997618Y-43920963D01*
X47943028Y-43921298D01*
X47914575Y-43892048D01*
X47914410Y-43891638D01*
X47900188Y-43856998D01*
X47866269Y-43774769D01*
X47815284Y-43651314D01*
X47749862Y-43492998D01*
X47672634Y-43306186D01*
X47586229Y-43097242D01*
X47502551Y-42894946D01*
X47410588Y-42671700D01*
X47326150Y-42464892D01*
X47251769Y-42280862D01*
X47189974Y-42125951D01*
X47143297Y-42006496D01*
X47114268Y-41928839D01*
X47105322Y-41899856D01*
X47127756Y-41866610D01*
X47186439Y-41813623D01*
X47264689Y-41755204D01*
X47487534Y-41570452D01*
X47661718Y-41358682D01*
X47785154Y-41124356D01*
X47855754Y-40871934D01*
X47871431Y-40605877D01*
X47860036Y-40483075D01*
X47797950Y-40228293D01*
X47691023Y-40003301D01*
X47545889Y-39810317D01*
X47369178Y-39651561D01*
X47167522Y-39529250D01*
X46947554Y-39445605D01*
X46715906Y-39402844D01*
X46479209Y-39403187D01*
X46244095Y-39448852D01*
X46017196Y-39542059D01*
X45805144Y-39685027D01*
X45716636Y-39765883D01*
X45546889Y-39973507D01*
X45428699Y-40200395D01*
X45361278Y-40439933D01*
X45343840Y-40685507D01*
X45375598Y-40930503D01*
X45455765Y-41168308D01*
X45583555Y-41392307D01*
X45758180Y-41595887D01*
X45953312Y-41755204D01*
X46034591Y-41816102D01*
X46092009Y-41868515D01*
X46112678Y-41899906D01*
X46101856Y-41934139D01*
X46071077Y-42015919D01*
X46022874Y-42138907D01*
X45959778Y-42296763D01*
X45884322Y-42483149D01*
X45799038Y-42691726D01*
X45715219Y-42894996D01*
X45622745Y-43118433D01*
X45537089Y-43325484D01*
X45460882Y-43509786D01*
X45396753Y-43664975D01*
X45347332Y-43784688D01*
X45315248Y-43862561D01*
X45303359Y-43891638D01*
X45275274Y-43921177D01*
X45220949Y-43921091D01*
X45133395Y-43889826D01*
X45005619Y-43825829D01*
X45004608Y-43825285D01*
X44908402Y-43775621D01*
X44830631Y-43739445D01*
X44786777Y-43723908D01*
X44784842Y-43723764D01*
X44751829Y-43739524D01*
X44678946Y-43783350D01*
X44574322Y-43850057D01*
X44446090Y-43934464D01*
X44303948Y-44030316D01*
X44159233Y-44127367D01*
X44028804Y-44211770D01*
X43921110Y-44278301D01*
X43844598Y-44321738D01*
X43808062Y-44336868D01*
X43774418Y-44316982D01*
X43706776Y-44261403D01*
X43611893Y-44176254D01*
X43496530Y-44067653D01*
X43367445Y-43941721D01*
X43325229Y-43899649D01*
X42888739Y-43462431D01*
X43220977Y-42974840D01*
X43321946Y-42825105D01*
X43410562Y-42690720D01*
X43481854Y-42579469D01*
X43530850Y-42499139D01*
X43552578Y-42457514D01*
X43553215Y-42454553D01*
X43541760Y-42415318D01*
X43510949Y-42336395D01*
X43466116Y-42231009D01*
X43434647Y-42160454D01*
X43375808Y-42025376D01*
X43320396Y-41888909D01*
X43277436Y-41773603D01*
X43265766Y-41738477D01*
X43232611Y-41644674D01*
X43200201Y-41572194D01*
X43182399Y-41544801D01*
X43143114Y-41528036D01*
X43057374Y-41504270D01*
X42936303Y-41476197D01*
X42791027Y-41446509D01*
X42726012Y-41434306D01*
X42560913Y-41403968D01*
X42402552Y-41374593D01*
X42266404Y-41349069D01*
X42167943Y-41330285D01*
X42149402Y-41326660D01*
X41996127Y-41296406D01*
X41996127Y-40658145D01*
X41996471Y-40448270D01*
X41997884Y-40289480D01*
X42000936Y-40174473D01*
X42006197Y-40095946D01*
X42014237Y-40046596D01*
X42025627Y-40019119D01*
X42040937Y-40006213D01*
X42047218Y-40003820D01*
X42085104Y-39995333D01*
X42168805Y-39978400D01*
X42287567Y-39955066D01*
X42430639Y-39927375D01*
X42587268Y-39897373D01*
X42746703Y-39867104D01*
X42898191Y-39838615D01*
X43030981Y-39813949D01*
X43134319Y-39795151D01*
X43197455Y-39784267D01*
X43211503Y-39782385D01*
X43224230Y-39757204D01*
X43252400Y-39690122D01*
X43290748Y-39593833D01*
X43305391Y-39556121D01*
X43364452Y-39410421D01*
X43434000Y-39249451D01*
X43496288Y-39113791D01*
X43542121Y-39010061D01*
X43572613Y-38924826D01*
X43582792Y-38872626D01*
X43581169Y-38865630D01*
X43559657Y-38832602D01*
X43510535Y-38759143D01*
X43439077Y-38653077D01*
X43350555Y-38522226D01*
X43250241Y-38374412D01*
X43230406Y-38345234D01*
X43114012Y-38172363D01*
X43028452Y-38040726D01*
X42970316Y-37944261D01*
X42936192Y-37876908D01*
X42922669Y-37832606D01*
X42926336Y-37805294D01*
X42926430Y-37805120D01*
X42955293Y-37769246D01*
X43019133Y-37699891D01*
X43111031Y-37604245D01*
X43224067Y-37489499D01*
X43351321Y-37362841D01*
X43365672Y-37348705D01*
X43526043Y-37193403D01*
X43649805Y-37079370D01*
X43739445Y-37004502D01*
X43797448Y-36966696D01*
X43822996Y-36961817D01*
X43860282Y-36983103D01*
X43937657Y-37032273D01*
X44047133Y-37104075D01*
X44180720Y-37193255D01*
X44330430Y-37294563D01*
X44365382Y-37318397D01*
X44861610Y-37657265D01*
X45085707Y-37555556D01*
X45221989Y-37496283D01*
X45368276Y-37436670D01*
X45494035Y-37389140D01*
X45499575Y-37387185D01*
X45597943Y-37351177D01*
X45673771Y-37320729D01*
X45710718Y-37302405D01*
X45710780Y-37302352D01*
X45722504Y-37269229D01*
X45742432Y-37187767D01*
X45768587Y-37067125D01*
X45798990Y-36916459D01*
X45831663Y-36744928D01*
X45834336Y-36730467D01*
X45867110Y-36553735D01*
X45897198Y-36393310D01*
X45922661Y-36259388D01*
X45941559Y-36162163D01*
X45951953Y-36111832D01*
X45952135Y-36111063D01*
X45958461Y-36089653D01*
X45970761Y-36073488D01*
X45996406Y-36061831D01*
X46042765Y-36053945D01*
X46117208Y-36049093D01*
X46227105Y-36046539D01*
X46379825Y-36045545D01*
X46582738Y-36045374D01*
X46609000Y-36045374D01*
X46818014Y-36045498D01*
X46818014Y-36045498D01*
G37*
X46818014Y-36045498D02*
X46976006Y-36046363D01*
X47090347Y-36048705D01*
X47168407Y-36053262D01*
X47217554Y-36060770D01*
X47245159Y-36071966D01*
X47258592Y-36087588D01*
X47265221Y-36108373D01*
X47265865Y-36111063D01*
X47275935Y-36159613D01*
X47294575Y-36255405D01*
X47319845Y-36388243D01*
X47349807Y-36547931D01*
X47382522Y-36724274D01*
X47383664Y-36730467D01*
X47416433Y-36903282D01*
X47447093Y-37055969D01*
X47473664Y-37179371D01*
X47494167Y-37264331D01*
X47506626Y-37301690D01*
X47507220Y-37302352D01*
X47543919Y-37320595D01*
X47619586Y-37350997D01*
X47717878Y-37386993D01*
X47718425Y-37387185D01*
X47842233Y-37433722D01*
X47988196Y-37493004D01*
X48125781Y-37552609D01*
X48132293Y-37555556D01*
X48356390Y-37657265D01*
X48852619Y-37318397D01*
X49004846Y-37215092D01*
X49142741Y-37122737D01*
X49258315Y-37046584D01*
X49343579Y-36991885D01*
X49390544Y-36963893D01*
X49395004Y-36961817D01*
X49429134Y-36971060D01*
X49492881Y-37015656D01*
X49588731Y-37097709D01*
X49719169Y-37219321D01*
X49852328Y-37348705D01*
X49980694Y-37476202D01*
X50095581Y-37592546D01*
X50190073Y-37690552D01*
X50257253Y-37763036D01*
X50290206Y-37802813D01*
X50291432Y-37804861D01*
X50295074Y-37832156D01*
X50281350Y-37876734D01*
X50246869Y-37944612D01*
X50188239Y-38041811D01*
X50102070Y-38174351D01*
X49987200Y-38344976D01*
X49885254Y-38495155D01*
X49794123Y-38629850D01*
X49719073Y-38741240D01*
X49665369Y-38821505D01*
X49638280Y-38862825D01*
X49636574Y-38865630D01*
X49639882Y-38905221D01*
X49664953Y-38982169D01*
X49706798Y-39081932D01*
X49721712Y-39113791D01*
X49786786Y-39255726D01*
X49856212Y-39416773D01*
X49912609Y-39556121D01*
X49953247Y-39659544D01*
X49985526Y-39738142D01*
X50004178Y-39779220D01*
X50006497Y-39782385D01*
X50040803Y-39787628D01*
X50121669Y-39801994D01*
X50238343Y-39823437D01*
X50380075Y-39849913D01*
X50536110Y-39879377D01*
X50695698Y-39909783D01*
X50848085Y-39939088D01*
X50982521Y-39965245D01*
X51088252Y-39986210D01*
X51154526Y-39999939D01*
X51170782Y-40003820D01*
X51187573Y-40013400D01*
X51200249Y-40035036D01*
X51209378Y-40076031D01*
X51215531Y-40143689D01*
X51219280Y-40245312D01*
X51221192Y-40388203D01*
X51221840Y-40579665D01*
X51221874Y-40658145D01*
X51221874Y-41296406D01*
X51068598Y-41326660D01*
X50983322Y-41343064D01*
X50856070Y-41367009D01*
X50702315Y-41395607D01*
X50537534Y-41425967D01*
X50491989Y-41434306D01*
X50339932Y-41463870D01*
X50207468Y-41492942D01*
X50105714Y-41518829D01*
X50045788Y-41538837D01*
X50035805Y-41544801D01*
X50011293Y-41587034D01*
X49976148Y-41668870D01*
X49937173Y-41774183D01*
X49929442Y-41796868D01*
X49878360Y-41937518D01*
X49814954Y-42096214D01*
X49752904Y-42238725D01*
X49752598Y-42239386D01*
X49649267Y-42462940D01*
X50328961Y-43462732D01*
X49892621Y-43899800D01*
X49760649Y-44029881D01*
X49640279Y-44144548D01*
X49538273Y-44237681D01*
X49461391Y-44303158D01*
X49416393Y-44334857D01*
X49409938Y-44336868D01*
X49372040Y-44321029D01*
X49294708Y-44276996D01*
X49186389Y-44209990D01*
X49055532Y-44125234D01*
X48914052Y-44030316D01*
X48770461Y-43933498D01*
X48642435Y-43849251D01*
X48538105Y-43782758D01*
X48465600Y-43739202D01*
X48433158Y-43723764D01*
X48393576Y-43736828D01*
X48318519Y-43771250D01*
X48223468Y-43819880D01*
X48213392Y-43825285D01*
X48085391Y-43889480D01*
X47997618Y-43920963D01*
X47943028Y-43921298D01*
X47914575Y-43892048D01*
X47914410Y-43891638D01*
X47900188Y-43856998D01*
X47866269Y-43774769D01*
X47815284Y-43651314D01*
X47749862Y-43492998D01*
X47672634Y-43306186D01*
X47586229Y-43097242D01*
X47502551Y-42894946D01*
X47410588Y-42671700D01*
X47326150Y-42464892D01*
X47251769Y-42280862D01*
X47189974Y-42125951D01*
X47143297Y-42006496D01*
X47114268Y-41928839D01*
X47105322Y-41899856D01*
X47127756Y-41866610D01*
X47186439Y-41813623D01*
X47264689Y-41755204D01*
X47487534Y-41570452D01*
X47661718Y-41358682D01*
X47785154Y-41124356D01*
X47855754Y-40871934D01*
X47871431Y-40605877D01*
X47860036Y-40483075D01*
X47797950Y-40228293D01*
X47691023Y-40003301D01*
X47545889Y-39810317D01*
X47369178Y-39651561D01*
X47167522Y-39529250D01*
X46947554Y-39445605D01*
X46715906Y-39402844D01*
X46479209Y-39403187D01*
X46244095Y-39448852D01*
X46017196Y-39542059D01*
X45805144Y-39685027D01*
X45716636Y-39765883D01*
X45546889Y-39973507D01*
X45428699Y-40200395D01*
X45361278Y-40439933D01*
X45343840Y-40685507D01*
X45375598Y-40930503D01*
X45455765Y-41168308D01*
X45583555Y-41392307D01*
X45758180Y-41595887D01*
X45953312Y-41755204D01*
X46034591Y-41816102D01*
X46092009Y-41868515D01*
X46112678Y-41899906D01*
X46101856Y-41934139D01*
X46071077Y-42015919D01*
X46022874Y-42138907D01*
X45959778Y-42296763D01*
X45884322Y-42483149D01*
X45799038Y-42691726D01*
X45715219Y-42894996D01*
X45622745Y-43118433D01*
X45537089Y-43325484D01*
X45460882Y-43509786D01*
X45396753Y-43664975D01*
X45347332Y-43784688D01*
X45315248Y-43862561D01*
X45303359Y-43891638D01*
X45275274Y-43921177D01*
X45220949Y-43921091D01*
X45133395Y-43889826D01*
X45005619Y-43825829D01*
X45004608Y-43825285D01*
X44908402Y-43775621D01*
X44830631Y-43739445D01*
X44786777Y-43723908D01*
X44784842Y-43723764D01*
X44751829Y-43739524D01*
X44678946Y-43783350D01*
X44574322Y-43850057D01*
X44446090Y-43934464D01*
X44303948Y-44030316D01*
X44159233Y-44127367D01*
X44028804Y-44211770D01*
X43921110Y-44278301D01*
X43844598Y-44321738D01*
X43808062Y-44336868D01*
X43774418Y-44316982D01*
X43706776Y-44261403D01*
X43611893Y-44176254D01*
X43496530Y-44067653D01*
X43367445Y-43941721D01*
X43325229Y-43899649D01*
X42888739Y-43462431D01*
X43220977Y-42974840D01*
X43321946Y-42825105D01*
X43410562Y-42690720D01*
X43481854Y-42579469D01*
X43530850Y-42499139D01*
X43552578Y-42457514D01*
X43553215Y-42454553D01*
X43541760Y-42415318D01*
X43510949Y-42336395D01*
X43466116Y-42231009D01*
X43434647Y-42160454D01*
X43375808Y-42025376D01*
X43320396Y-41888909D01*
X43277436Y-41773603D01*
X43265766Y-41738477D01*
X43232611Y-41644674D01*
X43200201Y-41572194D01*
X43182399Y-41544801D01*
X43143114Y-41528036D01*
X43057374Y-41504270D01*
X42936303Y-41476197D01*
X42791027Y-41446509D01*
X42726012Y-41434306D01*
X42560913Y-41403968D01*
X42402552Y-41374593D01*
X42266404Y-41349069D01*
X42167943Y-41330285D01*
X42149402Y-41326660D01*
X41996127Y-41296406D01*
X41996127Y-40658145D01*
X41996471Y-40448270D01*
X41997884Y-40289480D01*
X42000936Y-40174473D01*
X42006197Y-40095946D01*
X42014237Y-40046596D01*
X42025627Y-40019119D01*
X42040937Y-40006213D01*
X42047218Y-40003820D01*
X42085104Y-39995333D01*
X42168805Y-39978400D01*
X42287567Y-39955066D01*
X42430639Y-39927375D01*
X42587268Y-39897373D01*
X42746703Y-39867104D01*
X42898191Y-39838615D01*
X43030981Y-39813949D01*
X43134319Y-39795151D01*
X43197455Y-39784267D01*
X43211503Y-39782385D01*
X43224230Y-39757204D01*
X43252400Y-39690122D01*
X43290748Y-39593833D01*
X43305391Y-39556121D01*
X43364452Y-39410421D01*
X43434000Y-39249451D01*
X43496288Y-39113791D01*
X43542121Y-39010061D01*
X43572613Y-38924826D01*
X43582792Y-38872626D01*
X43581169Y-38865630D01*
X43559657Y-38832602D01*
X43510535Y-38759143D01*
X43439077Y-38653077D01*
X43350555Y-38522226D01*
X43250241Y-38374412D01*
X43230406Y-38345234D01*
X43114012Y-38172363D01*
X43028452Y-38040726D01*
X42970316Y-37944261D01*
X42936192Y-37876908D01*
X42922669Y-37832606D01*
X42926336Y-37805294D01*
X42926430Y-37805120D01*
X42955293Y-37769246D01*
X43019133Y-37699891D01*
X43111031Y-37604245D01*
X43224067Y-37489499D01*
X43351321Y-37362841D01*
X43365672Y-37348705D01*
X43526043Y-37193403D01*
X43649805Y-37079370D01*
X43739445Y-37004502D01*
X43797448Y-36966696D01*
X43822996Y-36961817D01*
X43860282Y-36983103D01*
X43937657Y-37032273D01*
X44047133Y-37104075D01*
X44180720Y-37193255D01*
X44330430Y-37294563D01*
X44365382Y-37318397D01*
X44861610Y-37657265D01*
X45085707Y-37555556D01*
X45221989Y-37496283D01*
X45368276Y-37436670D01*
X45494035Y-37389140D01*
X45499575Y-37387185D01*
X45597943Y-37351177D01*
X45673771Y-37320729D01*
X45710718Y-37302405D01*
X45710780Y-37302352D01*
X45722504Y-37269229D01*
X45742432Y-37187767D01*
X45768587Y-37067125D01*
X45798990Y-36916459D01*
X45831663Y-36744928D01*
X45834336Y-36730467D01*
X45867110Y-36553735D01*
X45897198Y-36393310D01*
X45922661Y-36259388D01*
X45941559Y-36162163D01*
X45951953Y-36111832D01*
X45952135Y-36111063D01*
X45958461Y-36089653D01*
X45970761Y-36073488D01*
X45996406Y-36061831D01*
X46042765Y-36053945D01*
X46117208Y-36049093D01*
X46227105Y-36046539D01*
X46379825Y-36045545D01*
X46582738Y-36045374D01*
X46609000Y-36045374D01*
X46818014Y-36045498D01*
D12*
X31584000Y-30726000D02*
X31584000Y-29726000D01*
X29884000Y-29726000D02*
X29884000Y-30726000D01*
X96210500Y-40410500D02*
X97210500Y-40410500D01*
X97210500Y-38710500D02*
X96210500Y-38710500D01*
X29552000Y-30726000D02*
X29552000Y-29726000D01*
X27852000Y-29726000D02*
X27852000Y-30726000D01*
X96210500Y-42442500D02*
X97210500Y-42442500D01*
X97210500Y-40742500D02*
X96210500Y-40742500D01*
X66540000Y-25947000D02*
X65540000Y-25947000D01*
X65540000Y-27647000D02*
X66540000Y-27647000D01*
X52316000Y-25947000D02*
X51316000Y-25947000D01*
X51316000Y-27647000D02*
X52316000Y-27647000D01*
X38346000Y-25947000D02*
X37346000Y-25947000D01*
X37346000Y-27647000D02*
X38346000Y-27647000D01*
X80510000Y-25947000D02*
X79510000Y-25947000D01*
X79510000Y-27647000D02*
X80510000Y-27647000D01*
X73398000Y-25947000D02*
X72398000Y-25947000D01*
X72398000Y-27647000D02*
X73398000Y-27647000D01*
X59428000Y-25947000D02*
X58428000Y-25947000D01*
X58428000Y-27647000D02*
X59428000Y-27647000D01*
X45458000Y-25947000D02*
X44458000Y-25947000D01*
X44458000Y-27647000D02*
X45458000Y-27647000D01*
X31234000Y-25947000D02*
X30234000Y-25947000D01*
X30234000Y-27647000D02*
X31234000Y-27647000D01*
X89600000Y-45825000D02*
X88200000Y-45825000D01*
X88200000Y-45825000D02*
X88200000Y-48625000D01*
X89600000Y-45825000D02*
X89600000Y-48625000D01*
X87314000Y-45825000D02*
X85914000Y-45825000D01*
X85914000Y-45825000D02*
X85914000Y-48625000D01*
X87314000Y-45825000D02*
X87314000Y-48625000D01*
X85028000Y-45825000D02*
X83628000Y-45825000D01*
X83628000Y-45825000D02*
X83628000Y-48625000D01*
X85028000Y-45825000D02*
X85028000Y-48625000D01*
X82742000Y-45825000D02*
X81342000Y-45825000D01*
X81342000Y-45825000D02*
X81342000Y-48625000D01*
X82742000Y-45825000D02*
X82742000Y-48625000D01*
X34228000Y-45825000D02*
X32828000Y-45825000D01*
X32828000Y-45825000D02*
X32828000Y-48625000D01*
X34228000Y-45825000D02*
X34228000Y-48625000D01*
X31942000Y-45825000D02*
X30542000Y-45825000D01*
X30542000Y-45825000D02*
X30542000Y-48625000D01*
X31942000Y-45825000D02*
X31942000Y-48625000D01*
X29656000Y-45825000D02*
X28256000Y-45825000D01*
X28256000Y-45825000D02*
X28256000Y-48625000D01*
X29656000Y-45825000D02*
X29656000Y-48625000D01*
X27370000Y-45825000D02*
X25970000Y-45825000D01*
X25970000Y-45825000D02*
X25970000Y-48625000D01*
X27370000Y-45825000D02*
X27370000Y-48625000D01*
X89780000Y-42453000D02*
X89780000Y-43653000D01*
X88020000Y-43653000D02*
X88020000Y-42453000D01*
X87494000Y-42453000D02*
X87494000Y-43653000D01*
X85734000Y-43653000D02*
X85734000Y-42453000D01*
X85208000Y-42453000D02*
X85208000Y-43653000D01*
X83448000Y-43653000D02*
X83448000Y-42453000D01*
X82922000Y-42453000D02*
X82922000Y-43653000D01*
X81162000Y-43653000D02*
X81162000Y-42453000D01*
X34408000Y-42453000D02*
X34408000Y-43653000D01*
X32648000Y-43653000D02*
X32648000Y-42453000D01*
X32122000Y-42453000D02*
X32122000Y-43653000D01*
X30362000Y-43653000D02*
X30362000Y-42453000D01*
X29836000Y-42453000D02*
X29836000Y-43653000D01*
X28076000Y-43653000D02*
X28076000Y-42453000D01*
X27550000Y-42453000D02*
X27550000Y-43653000D01*
X25790000Y-43653000D02*
X25790000Y-42453000D01*
X87240000Y-31150000D02*
X87240000Y-32350000D01*
X85480000Y-32350000D02*
X85480000Y-31150000D01*
X80128000Y-31023000D02*
X80128000Y-32223000D01*
X78368000Y-32223000D02*
X78368000Y-31023000D01*
X73270000Y-31150000D02*
X73270000Y-32350000D01*
X71510000Y-32350000D02*
X71510000Y-31150000D01*
X66158000Y-31150000D02*
X66158000Y-32350000D01*
X64398000Y-32350000D02*
X64398000Y-31150000D01*
X59046000Y-31150000D02*
X59046000Y-32350000D01*
X57286000Y-32350000D02*
X57286000Y-31150000D01*
X52188000Y-31150000D02*
X52188000Y-32350000D01*
X50428000Y-32350000D02*
X50428000Y-31150000D01*
X45076000Y-31150000D02*
X45076000Y-32350000D01*
X43316000Y-32350000D02*
X43316000Y-31150000D01*
X38218000Y-31150000D02*
X38218000Y-32350000D01*
X36458000Y-32350000D02*
X36458000Y-31150000D01*
D13*
X56069905Y-26620381D02*
X56069905Y-25620381D01*
X56450858Y-25620381D01*
X56546096Y-25668000D01*
X56593715Y-25715619D01*
X56641334Y-25810857D01*
X56641334Y-25953714D01*
X56593715Y-26048952D01*
X56546096Y-26096571D01*
X56450858Y-26144190D01*
X56069905Y-26144190D01*
X57593715Y-26620381D02*
X57022286Y-26620381D01*
X57308000Y-26620381D02*
X57308000Y-25620381D01*
X57212762Y-25763238D01*
X57117524Y-25858476D01*
X57022286Y-25906095D01*
X57951810Y-46420381D02*
X57951810Y-45420381D01*
X58999429Y-46325143D02*
X58951810Y-46372762D01*
X58808953Y-46420381D01*
X58713715Y-46420381D01*
X58570857Y-46372762D01*
X58475619Y-46277524D01*
X58428000Y-46182286D01*
X58380381Y-45991810D01*
X58380381Y-45848952D01*
X58428000Y-45658476D01*
X58475619Y-45563238D01*
X58570857Y-45468000D01*
X58713715Y-45420381D01*
X58808953Y-45420381D01*
X58951810Y-45468000D01*
X58999429Y-45515619D01*
X59951810Y-46420381D02*
X59380381Y-46420381D01*
X59666095Y-46420381D02*
X59666095Y-45420381D01*
X59570857Y-45563238D01*
X59475619Y-45658476D01*
X59380381Y-45706095D01*
X66940381Y-31964190D02*
X65940381Y-31964190D01*
X66845143Y-30916571D02*
X66892762Y-30964190D01*
X66940381Y-31107047D01*
X66940381Y-31202285D01*
X66892762Y-31345143D01*
X66797524Y-31440381D01*
X66702286Y-31488000D01*
X66511810Y-31535619D01*
X66368952Y-31535619D01*
X66178476Y-31488000D01*
X66083238Y-31440381D01*
X65988000Y-31345143D01*
X65940381Y-31202285D01*
X65940381Y-31107047D01*
X65988000Y-30964190D01*
X66035619Y-30916571D01*
X66273714Y-30059428D02*
X66940381Y-30059428D01*
X65892762Y-30297524D02*
X66607048Y-30535619D01*
X66607048Y-29916571D01*
X59955381Y-31964190D02*
X58955381Y-31964190D01*
X59860143Y-30916571D02*
X59907762Y-30964190D01*
X59955381Y-31107047D01*
X59955381Y-31202285D01*
X59907762Y-31345143D01*
X59812524Y-31440381D01*
X59717286Y-31488000D01*
X59526810Y-31535619D01*
X59383952Y-31535619D01*
X59193476Y-31488000D01*
X59098238Y-31440381D01*
X59003000Y-31345143D01*
X58955381Y-31202285D01*
X58955381Y-31107047D01*
X59003000Y-30964190D01*
X59050619Y-30916571D01*
X58955381Y-30011809D02*
X58955381Y-30488000D01*
X59431571Y-30535619D01*
X59383952Y-30488000D01*
X59336333Y-30392762D01*
X59336333Y-30154666D01*
X59383952Y-30059428D01*
X59431571Y-30011809D01*
X59526810Y-29964190D01*
X59764905Y-29964190D01*
X59860143Y-30011809D01*
X59907762Y-30059428D01*
X59955381Y-30154666D01*
X59955381Y-30392762D01*
X59907762Y-30488000D01*
X59860143Y-30535619D01*
X52843381Y-31964190D02*
X51843381Y-31964190D01*
X52748143Y-30916571D02*
X52795762Y-30964190D01*
X52843381Y-31107047D01*
X52843381Y-31202285D01*
X52795762Y-31345143D01*
X52700524Y-31440381D01*
X52605286Y-31488000D01*
X52414810Y-31535619D01*
X52271952Y-31535619D01*
X52081476Y-31488000D01*
X51986238Y-31440381D01*
X51891000Y-31345143D01*
X51843381Y-31202285D01*
X51843381Y-31107047D01*
X51891000Y-30964190D01*
X51938619Y-30916571D01*
X51843381Y-30059428D02*
X51843381Y-30249905D01*
X51891000Y-30345143D01*
X51938619Y-30392762D01*
X52081476Y-30488000D01*
X52271952Y-30535619D01*
X52652905Y-30535619D01*
X52748143Y-30488000D01*
X52795762Y-30440381D01*
X52843381Y-30345143D01*
X52843381Y-30154666D01*
X52795762Y-30059428D01*
X52748143Y-30011809D01*
X52652905Y-29964190D01*
X52414810Y-29964190D01*
X52319571Y-30011809D01*
X52271952Y-30059428D01*
X52224333Y-30154666D01*
X52224333Y-30345143D01*
X52271952Y-30440381D01*
X52319571Y-30488000D01*
X52414810Y-30535619D01*
X45858381Y-31964190D02*
X44858381Y-31964190D01*
X45763143Y-30916571D02*
X45810762Y-30964190D01*
X45858381Y-31107047D01*
X45858381Y-31202285D01*
X45810762Y-31345143D01*
X45715524Y-31440381D01*
X45620286Y-31488000D01*
X45429810Y-31535619D01*
X45286952Y-31535619D01*
X45096476Y-31488000D01*
X45001238Y-31440381D01*
X44906000Y-31345143D01*
X44858381Y-31202285D01*
X44858381Y-31107047D01*
X44906000Y-30964190D01*
X44953619Y-30916571D01*
X44858381Y-30583238D02*
X44858381Y-29916571D01*
X45858381Y-30345143D01*
X38873381Y-31964190D02*
X37873381Y-31964190D01*
X38778143Y-30916571D02*
X38825762Y-30964190D01*
X38873381Y-31107047D01*
X38873381Y-31202285D01*
X38825762Y-31345143D01*
X38730524Y-31440381D01*
X38635286Y-31488000D01*
X38444810Y-31535619D01*
X38301952Y-31535619D01*
X38111476Y-31488000D01*
X38016238Y-31440381D01*
X37921000Y-31345143D01*
X37873381Y-31202285D01*
X37873381Y-31107047D01*
X37921000Y-30964190D01*
X37968619Y-30916571D01*
X38301952Y-30345143D02*
X38254333Y-30440381D01*
X38206714Y-30488000D01*
X38111476Y-30535619D01*
X38063857Y-30535619D01*
X37968619Y-30488000D01*
X37921000Y-30440381D01*
X37873381Y-30345143D01*
X37873381Y-30154666D01*
X37921000Y-30059428D01*
X37968619Y-30011809D01*
X38063857Y-29964190D01*
X38111476Y-29964190D01*
X38206714Y-30011809D01*
X38254333Y-30059428D01*
X38301952Y-30154666D01*
X38301952Y-30345143D01*
X38349571Y-30440381D01*
X38397190Y-30488000D01*
X38492429Y-30535619D01*
X38682905Y-30535619D01*
X38778143Y-30488000D01*
X38825762Y-30440381D01*
X38873381Y-30345143D01*
X38873381Y-30154666D01*
X38825762Y-30059428D01*
X38778143Y-30011809D01*
X38682905Y-29964190D01*
X38492429Y-29964190D01*
X38397190Y-30011809D01*
X38349571Y-30059428D01*
X38301952Y-30154666D01*
X31888381Y-31964190D02*
X30888381Y-31964190D01*
X31793143Y-30916571D02*
X31840762Y-30964190D01*
X31888381Y-31107047D01*
X31888381Y-31202285D01*
X31840762Y-31345143D01*
X31745524Y-31440381D01*
X31650286Y-31488000D01*
X31459810Y-31535619D01*
X31316952Y-31535619D01*
X31126476Y-31488000D01*
X31031238Y-31440381D01*
X30936000Y-31345143D01*
X30888381Y-31202285D01*
X30888381Y-31107047D01*
X30936000Y-30964190D01*
X30983619Y-30916571D01*
X31888381Y-30440381D02*
X31888381Y-30249905D01*
X31840762Y-30154666D01*
X31793143Y-30107047D01*
X31650286Y-30011809D01*
X31459810Y-29964190D01*
X31078857Y-29964190D01*
X30983619Y-30011809D01*
X30936000Y-30059428D01*
X30888381Y-30154666D01*
X30888381Y-30345143D01*
X30936000Y-30440381D01*
X30983619Y-30488000D01*
X31078857Y-30535619D01*
X31316952Y-30535619D01*
X31412190Y-30488000D01*
X31459810Y-30440381D01*
X31507429Y-30345143D01*
X31507429Y-30154666D01*
X31459810Y-30059428D01*
X31412190Y-30011809D01*
X31316952Y-29964190D01*
X80910381Y-31964190D02*
X79910381Y-31964190D01*
X80815143Y-30916571D02*
X80862762Y-30964190D01*
X80910381Y-31107047D01*
X80910381Y-31202285D01*
X80862762Y-31345143D01*
X80767524Y-31440381D01*
X80672286Y-31488000D01*
X80481810Y-31535619D01*
X80338952Y-31535619D01*
X80148476Y-31488000D01*
X80053238Y-31440381D01*
X79958000Y-31345143D01*
X79910381Y-31202285D01*
X79910381Y-31107047D01*
X79958000Y-30964190D01*
X80005619Y-30916571D01*
X80005619Y-30535619D02*
X79958000Y-30488000D01*
X79910381Y-30392762D01*
X79910381Y-30154666D01*
X79958000Y-30059428D01*
X80005619Y-30011809D01*
X80100857Y-29964190D01*
X80196095Y-29964190D01*
X80338952Y-30011809D01*
X80910381Y-30583238D01*
X80910381Y-29964190D01*
X73925381Y-31964190D02*
X72925381Y-31964190D01*
X73830143Y-30916571D02*
X73877762Y-30964190D01*
X73925381Y-31107047D01*
X73925381Y-31202285D01*
X73877762Y-31345143D01*
X73782524Y-31440381D01*
X73687286Y-31488000D01*
X73496810Y-31535619D01*
X73353952Y-31535619D01*
X73163476Y-31488000D01*
X73068238Y-31440381D01*
X72973000Y-31345143D01*
X72925381Y-31202285D01*
X72925381Y-31107047D01*
X72973000Y-30964190D01*
X73020619Y-30916571D01*
X72925381Y-30583238D02*
X72925381Y-29964190D01*
X73306333Y-30297524D01*
X73306333Y-30154666D01*
X73353952Y-30059428D01*
X73401571Y-30011809D01*
X73496810Y-29964190D01*
X73734905Y-29964190D01*
X73830143Y-30011809D01*
X73877762Y-30059428D01*
X73925381Y-30154666D01*
X73925381Y-30440381D01*
X73877762Y-30535619D01*
X73830143Y-30583238D01*
X80081381Y-53416333D02*
X80795667Y-53416333D01*
X80938524Y-53463953D01*
X81033762Y-53559191D01*
X81081381Y-53702048D01*
X81081381Y-53797286D01*
X80176619Y-52987762D02*
X80129000Y-52940143D01*
X80081381Y-52844905D01*
X80081381Y-52606809D01*
X80129000Y-52511571D01*
X80176619Y-52463952D01*
X80271857Y-52416333D01*
X80367095Y-52416333D01*
X80509952Y-52463952D01*
X81081381Y-53035381D01*
X81081381Y-52416333D01*
X25572381Y-31305333D02*
X26286667Y-31305333D01*
X26429524Y-31352953D01*
X26524762Y-31448191D01*
X26572381Y-31591048D01*
X26572381Y-31686286D01*
X25572381Y-30924381D02*
X25572381Y-30305333D01*
X25953333Y-30638667D01*
X25953333Y-30495809D01*
X26000952Y-30400571D01*
X26048571Y-30352952D01*
X26143810Y-30305333D01*
X26381905Y-30305333D01*
X26477143Y-30352952D01*
X26524762Y-30400571D01*
X26572381Y-30495809D01*
X26572381Y-30781524D01*
X26524762Y-30876762D01*
X26477143Y-30924381D01*
X88902381Y-29305333D02*
X89616667Y-29305333D01*
X89759524Y-29352953D01*
X89854762Y-29448191D01*
X89902381Y-29591048D01*
X89902381Y-29686286D01*
X89235714Y-28400571D02*
X89902381Y-28400571D01*
X88854762Y-28638667D02*
X89569048Y-28876762D01*
X89569048Y-28257714D01*
X86886381Y-26265095D02*
X85886381Y-26265095D01*
X85886381Y-26027000D01*
X85934000Y-25884142D01*
X86029238Y-25788904D01*
X86124476Y-25741285D01*
X86314952Y-25693666D01*
X86457810Y-25693666D01*
X86648286Y-25741285D01*
X86743524Y-25788904D01*
X86838762Y-25884142D01*
X86886381Y-26027000D01*
X86886381Y-26265095D01*
X86886381Y-24741285D02*
X86886381Y-25312714D01*
X86886381Y-25027000D02*
X85886381Y-25027000D01*
X86029238Y-25122238D01*
X86124476Y-25217476D01*
X86172095Y-25312714D01*
X87463334Y-30727381D02*
X87130000Y-30251190D01*
X86891905Y-30727381D02*
X86891905Y-29727381D01*
X87272858Y-29727381D01*
X87368096Y-29775000D01*
X87415715Y-29822619D01*
X87463334Y-29917857D01*
X87463334Y-30060714D01*
X87415715Y-30155952D01*
X87368096Y-30203571D01*
X87272858Y-30251190D01*
X86891905Y-30251190D01*
X88415715Y-30727381D02*
X87844286Y-30727381D01*
X88130000Y-30727381D02*
X88130000Y-29727381D01*
X88034762Y-29870238D01*
X87939524Y-29965476D01*
X87844286Y-30013095D01*
X32841143Y-30392666D02*
X32888762Y-30440285D01*
X32936381Y-30583142D01*
X32936381Y-30678380D01*
X32888762Y-30821238D01*
X32793524Y-30916476D01*
X32698286Y-30964095D01*
X32507810Y-31011714D01*
X32364952Y-31011714D01*
X32174476Y-30964095D01*
X32079238Y-30916476D01*
X31984000Y-30821238D01*
X31936381Y-30678380D01*
X31936381Y-30583142D01*
X31984000Y-30440285D01*
X32031619Y-30392666D01*
X32936381Y-29440285D02*
X32936381Y-30011714D01*
X32936381Y-29726000D02*
X31936381Y-29726000D01*
X32079238Y-29821238D01*
X32174476Y-29916476D01*
X32222095Y-30011714D01*
X96543834Y-41667643D02*
X96496215Y-41715262D01*
X96353358Y-41762881D01*
X96258120Y-41762881D01*
X96115262Y-41715262D01*
X96020024Y-41620024D01*
X95972405Y-41524786D01*
X95924786Y-41334310D01*
X95924786Y-41191452D01*
X95972405Y-41000976D01*
X96020024Y-40905738D01*
X96115262Y-40810500D01*
X96258120Y-40762881D01*
X96353358Y-40762881D01*
X96496215Y-40810500D01*
X96543834Y-40858119D01*
X96924786Y-40858119D02*
X96972405Y-40810500D01*
X97067643Y-40762881D01*
X97305739Y-40762881D01*
X97400977Y-40810500D01*
X97448596Y-40858119D01*
X97496215Y-40953357D01*
X97496215Y-41048595D01*
X97448596Y-41191452D01*
X96877167Y-41762881D01*
X97496215Y-41762881D01*
X30809143Y-30392666D02*
X30856762Y-30440285D01*
X30904381Y-30583142D01*
X30904381Y-30678380D01*
X30856762Y-30821238D01*
X30761524Y-30916476D01*
X30666286Y-30964095D01*
X30475810Y-31011714D01*
X30332952Y-31011714D01*
X30142476Y-30964095D01*
X30047238Y-30916476D01*
X29952000Y-30821238D01*
X29904381Y-30678380D01*
X29904381Y-30583142D01*
X29952000Y-30440285D01*
X29999619Y-30392666D01*
X29904381Y-30059333D02*
X29904381Y-29440285D01*
X30285333Y-29773619D01*
X30285333Y-29630761D01*
X30332952Y-29535523D01*
X30380571Y-29487904D01*
X30475810Y-29440285D01*
X30713905Y-29440285D01*
X30809143Y-29487904D01*
X30856762Y-29535523D01*
X30904381Y-29630761D01*
X30904381Y-29916476D01*
X30856762Y-30011714D01*
X30809143Y-30059333D01*
X96543834Y-43699643D02*
X96496215Y-43747262D01*
X96353358Y-43794881D01*
X96258120Y-43794881D01*
X96115262Y-43747262D01*
X96020024Y-43652024D01*
X95972405Y-43556786D01*
X95924786Y-43366310D01*
X95924786Y-43223452D01*
X95972405Y-43032976D01*
X96020024Y-42937738D01*
X96115262Y-42842500D01*
X96258120Y-42794881D01*
X96353358Y-42794881D01*
X96496215Y-42842500D01*
X96543834Y-42890119D01*
X97400977Y-43128214D02*
X97400977Y-43794881D01*
X97162881Y-42747262D02*
X96924786Y-43461548D01*
X97543834Y-43461548D01*
X65873334Y-25404143D02*
X65825715Y-25451762D01*
X65682858Y-25499381D01*
X65587620Y-25499381D01*
X65444762Y-25451762D01*
X65349524Y-25356524D01*
X65301905Y-25261286D01*
X65254286Y-25070810D01*
X65254286Y-24927952D01*
X65301905Y-24737476D01*
X65349524Y-24642238D01*
X65444762Y-24547000D01*
X65587620Y-24499381D01*
X65682858Y-24499381D01*
X65825715Y-24547000D01*
X65873334Y-24594619D01*
X66778096Y-24499381D02*
X66301905Y-24499381D01*
X66254286Y-24975571D01*
X66301905Y-24927952D01*
X66397143Y-24880333D01*
X66635239Y-24880333D01*
X66730477Y-24927952D01*
X66778096Y-24975571D01*
X66825715Y-25070810D01*
X66825715Y-25308905D01*
X66778096Y-25404143D01*
X66730477Y-25451762D01*
X66635239Y-25499381D01*
X66397143Y-25499381D01*
X66301905Y-25451762D01*
X66254286Y-25404143D01*
X51649334Y-25404143D02*
X51601715Y-25451762D01*
X51458858Y-25499381D01*
X51363620Y-25499381D01*
X51220762Y-25451762D01*
X51125524Y-25356524D01*
X51077905Y-25261286D01*
X51030286Y-25070810D01*
X51030286Y-24927952D01*
X51077905Y-24737476D01*
X51125524Y-24642238D01*
X51220762Y-24547000D01*
X51363620Y-24499381D01*
X51458858Y-24499381D01*
X51601715Y-24547000D01*
X51649334Y-24594619D01*
X52506477Y-24499381D02*
X52316000Y-24499381D01*
X52220762Y-24547000D01*
X52173143Y-24594619D01*
X52077905Y-24737476D01*
X52030286Y-24927952D01*
X52030286Y-25308905D01*
X52077905Y-25404143D01*
X52125524Y-25451762D01*
X52220762Y-25499381D01*
X52411239Y-25499381D01*
X52506477Y-25451762D01*
X52554096Y-25404143D01*
X52601715Y-25308905D01*
X52601715Y-25070810D01*
X52554096Y-24975571D01*
X52506477Y-24927952D01*
X52411239Y-24880333D01*
X52220762Y-24880333D01*
X52125524Y-24927952D01*
X52077905Y-24975571D01*
X52030286Y-25070810D01*
X37679334Y-25404143D02*
X37631715Y-25451762D01*
X37488858Y-25499381D01*
X37393620Y-25499381D01*
X37250762Y-25451762D01*
X37155524Y-25356524D01*
X37107905Y-25261286D01*
X37060286Y-25070810D01*
X37060286Y-24927952D01*
X37107905Y-24737476D01*
X37155524Y-24642238D01*
X37250762Y-24547000D01*
X37393620Y-24499381D01*
X37488858Y-24499381D01*
X37631715Y-24547000D01*
X37679334Y-24594619D01*
X38012667Y-24499381D02*
X38679334Y-24499381D01*
X38250762Y-25499381D01*
X79843334Y-25404143D02*
X79795715Y-25451762D01*
X79652858Y-25499381D01*
X79557620Y-25499381D01*
X79414762Y-25451762D01*
X79319524Y-25356524D01*
X79271905Y-25261286D01*
X79224286Y-25070810D01*
X79224286Y-24927952D01*
X79271905Y-24737476D01*
X79319524Y-24642238D01*
X79414762Y-24547000D01*
X79557620Y-24499381D01*
X79652858Y-24499381D01*
X79795715Y-24547000D01*
X79843334Y-24594619D01*
X80414762Y-24927952D02*
X80319524Y-24880333D01*
X80271905Y-24832714D01*
X80224286Y-24737476D01*
X80224286Y-24689857D01*
X80271905Y-24594619D01*
X80319524Y-24547000D01*
X80414762Y-24499381D01*
X80605239Y-24499381D01*
X80700477Y-24547000D01*
X80748096Y-24594619D01*
X80795715Y-24689857D01*
X80795715Y-24737476D01*
X80748096Y-24832714D01*
X80700477Y-24880333D01*
X80605239Y-24927952D01*
X80414762Y-24927952D01*
X80319524Y-24975571D01*
X80271905Y-25023190D01*
X80224286Y-25118429D01*
X80224286Y-25308905D01*
X80271905Y-25404143D01*
X80319524Y-25451762D01*
X80414762Y-25499381D01*
X80605239Y-25499381D01*
X80700477Y-25451762D01*
X80748096Y-25404143D01*
X80795715Y-25308905D01*
X80795715Y-25118429D01*
X80748096Y-25023190D01*
X80700477Y-24975571D01*
X80605239Y-24927952D01*
X72731334Y-25404143D02*
X72683715Y-25451762D01*
X72540858Y-25499381D01*
X72445620Y-25499381D01*
X72302762Y-25451762D01*
X72207524Y-25356524D01*
X72159905Y-25261286D01*
X72112286Y-25070810D01*
X72112286Y-24927952D01*
X72159905Y-24737476D01*
X72207524Y-24642238D01*
X72302762Y-24547000D01*
X72445620Y-24499381D01*
X72540858Y-24499381D01*
X72683715Y-24547000D01*
X72731334Y-24594619D01*
X73207524Y-25499381D02*
X73398000Y-25499381D01*
X73493239Y-25451762D01*
X73540858Y-25404143D01*
X73636096Y-25261286D01*
X73683715Y-25070810D01*
X73683715Y-24689857D01*
X73636096Y-24594619D01*
X73588477Y-24547000D01*
X73493239Y-24499381D01*
X73302762Y-24499381D01*
X73207524Y-24547000D01*
X73159905Y-24594619D01*
X73112286Y-24689857D01*
X73112286Y-24927952D01*
X73159905Y-25023190D01*
X73207524Y-25070810D01*
X73302762Y-25118429D01*
X73493239Y-25118429D01*
X73588477Y-25070810D01*
X73636096Y-25023190D01*
X73683715Y-24927952D01*
X58285143Y-25404143D02*
X58237524Y-25451762D01*
X58094667Y-25499381D01*
X57999429Y-25499381D01*
X57856571Y-25451762D01*
X57761333Y-25356524D01*
X57713714Y-25261286D01*
X57666095Y-25070810D01*
X57666095Y-24927952D01*
X57713714Y-24737476D01*
X57761333Y-24642238D01*
X57856571Y-24547000D01*
X57999429Y-24499381D01*
X58094667Y-24499381D01*
X58237524Y-24547000D01*
X58285143Y-24594619D01*
X59237524Y-25499381D02*
X58666095Y-25499381D01*
X58951809Y-25499381D02*
X58951809Y-24499381D01*
X58856571Y-24642238D01*
X58761333Y-24737476D01*
X58666095Y-24785095D01*
X59856571Y-24499381D02*
X59951810Y-24499381D01*
X60047048Y-24547000D01*
X60094667Y-24594619D01*
X60142286Y-24689857D01*
X60189905Y-24880333D01*
X60189905Y-25118429D01*
X60142286Y-25308905D01*
X60094667Y-25404143D01*
X60047048Y-25451762D01*
X59951810Y-25499381D01*
X59856571Y-25499381D01*
X59761333Y-25451762D01*
X59713714Y-25404143D01*
X59666095Y-25308905D01*
X59618476Y-25118429D01*
X59618476Y-24880333D01*
X59666095Y-24689857D01*
X59713714Y-24594619D01*
X59761333Y-24547000D01*
X59856571Y-24499381D01*
X44315143Y-25404143D02*
X44267524Y-25451762D01*
X44124667Y-25499381D01*
X44029429Y-25499381D01*
X43886571Y-25451762D01*
X43791333Y-25356524D01*
X43743714Y-25261286D01*
X43696095Y-25070810D01*
X43696095Y-24927952D01*
X43743714Y-24737476D01*
X43791333Y-24642238D01*
X43886571Y-24547000D01*
X44029429Y-24499381D01*
X44124667Y-24499381D01*
X44267524Y-24547000D01*
X44315143Y-24594619D01*
X45267524Y-25499381D02*
X44696095Y-25499381D01*
X44981809Y-25499381D02*
X44981809Y-24499381D01*
X44886571Y-24642238D01*
X44791333Y-24737476D01*
X44696095Y-24785095D01*
X46219905Y-25499381D02*
X45648476Y-25499381D01*
X45934190Y-25499381D02*
X45934190Y-24499381D01*
X45838952Y-24642238D01*
X45743714Y-24737476D01*
X45648476Y-24785095D01*
X30091143Y-25404143D02*
X30043524Y-25451762D01*
X29900667Y-25499381D01*
X29805429Y-25499381D01*
X29662571Y-25451762D01*
X29567333Y-25356524D01*
X29519714Y-25261286D01*
X29472095Y-25070810D01*
X29472095Y-24927952D01*
X29519714Y-24737476D01*
X29567333Y-24642238D01*
X29662571Y-24547000D01*
X29805429Y-24499381D01*
X29900667Y-24499381D01*
X30043524Y-24547000D01*
X30091143Y-24594619D01*
X31043524Y-25499381D02*
X30472095Y-25499381D01*
X30757809Y-25499381D02*
X30757809Y-24499381D01*
X30662571Y-24642238D01*
X30567333Y-24737476D01*
X30472095Y-24785095D01*
X31424476Y-24594619D02*
X31472095Y-24547000D01*
X31567333Y-24499381D01*
X31805429Y-24499381D01*
X31900667Y-24547000D01*
X31948286Y-24594619D01*
X31995905Y-24689857D01*
X31995905Y-24785095D01*
X31948286Y-24927952D01*
X31376857Y-25499381D01*
X31995905Y-25499381D01*
X90802381Y-48363095D02*
X89802381Y-48363095D01*
X89802381Y-48125000D01*
X89850000Y-47982142D01*
X89945238Y-47886904D01*
X90040476Y-47839285D01*
X90230952Y-47791666D01*
X90373810Y-47791666D01*
X90564286Y-47839285D01*
X90659524Y-47886904D01*
X90754762Y-47982142D01*
X90802381Y-48125000D01*
X90802381Y-48363095D01*
X89802381Y-47458333D02*
X89802381Y-46839285D01*
X90183333Y-47172619D01*
X90183333Y-47029761D01*
X90230952Y-46934523D01*
X90278571Y-46886904D01*
X90373810Y-46839285D01*
X90611905Y-46839285D01*
X90707143Y-46886904D01*
X90754762Y-46934523D01*
X90802381Y-47029761D01*
X90802381Y-47315476D01*
X90754762Y-47410714D01*
X90707143Y-47458333D01*
X88516381Y-48363095D02*
X87516381Y-48363095D01*
X87516381Y-48125000D01*
X87564000Y-47982142D01*
X87659238Y-47886904D01*
X87754476Y-47839285D01*
X87944952Y-47791666D01*
X88087810Y-47791666D01*
X88278286Y-47839285D01*
X88373524Y-47886904D01*
X88468762Y-47982142D01*
X88516381Y-48125000D01*
X88516381Y-48363095D01*
X87849714Y-46934523D02*
X88516381Y-46934523D01*
X87468762Y-47172619D02*
X88183048Y-47410714D01*
X88183048Y-46791666D01*
X86230381Y-48363095D02*
X85230381Y-48363095D01*
X85230381Y-48125000D01*
X85278000Y-47982142D01*
X85373238Y-47886904D01*
X85468476Y-47839285D01*
X85658952Y-47791666D01*
X85801810Y-47791666D01*
X85992286Y-47839285D01*
X86087524Y-47886904D01*
X86182762Y-47982142D01*
X86230381Y-48125000D01*
X86230381Y-48363095D01*
X85230381Y-46886904D02*
X85230381Y-47363095D01*
X85706571Y-47410714D01*
X85658952Y-47363095D01*
X85611333Y-47267857D01*
X85611333Y-47029761D01*
X85658952Y-46934523D01*
X85706571Y-46886904D01*
X85801810Y-46839285D01*
X86039905Y-46839285D01*
X86135143Y-46886904D01*
X86182762Y-46934523D01*
X86230381Y-47029761D01*
X86230381Y-47267857D01*
X86182762Y-47363095D01*
X86135143Y-47410714D01*
X83944381Y-48363095D02*
X82944381Y-48363095D01*
X82944381Y-48125000D01*
X82992000Y-47982142D01*
X83087238Y-47886904D01*
X83182476Y-47839285D01*
X83372952Y-47791666D01*
X83515810Y-47791666D01*
X83706286Y-47839285D01*
X83801524Y-47886904D01*
X83896762Y-47982142D01*
X83944381Y-48125000D01*
X83944381Y-48363095D01*
X82944381Y-46934523D02*
X82944381Y-47125000D01*
X82992000Y-47220238D01*
X83039619Y-47267857D01*
X83182476Y-47363095D01*
X83372952Y-47410714D01*
X83753905Y-47410714D01*
X83849143Y-47363095D01*
X83896762Y-47315476D01*
X83944381Y-47220238D01*
X83944381Y-47029761D01*
X83896762Y-46934523D01*
X83849143Y-46886904D01*
X83753905Y-46839285D01*
X83515810Y-46839285D01*
X83420571Y-46886904D01*
X83372952Y-46934523D01*
X83325333Y-47029761D01*
X83325333Y-47220238D01*
X83372952Y-47315476D01*
X83420571Y-47363095D01*
X83515810Y-47410714D01*
X35430381Y-48363095D02*
X34430381Y-48363095D01*
X34430381Y-48125000D01*
X34478000Y-47982142D01*
X34573238Y-47886904D01*
X34668476Y-47839285D01*
X34858952Y-47791666D01*
X35001810Y-47791666D01*
X35192286Y-47839285D01*
X35287524Y-47886904D01*
X35382762Y-47982142D01*
X35430381Y-48125000D01*
X35430381Y-48363095D01*
X34430381Y-47458333D02*
X34430381Y-46791666D01*
X35430381Y-47220238D01*
X33144381Y-48363095D02*
X32144381Y-48363095D01*
X32144381Y-48125000D01*
X32192000Y-47982142D01*
X32287238Y-47886904D01*
X32382476Y-47839285D01*
X32572952Y-47791666D01*
X32715810Y-47791666D01*
X32906286Y-47839285D01*
X33001524Y-47886904D01*
X33096762Y-47982142D01*
X33144381Y-48125000D01*
X33144381Y-48363095D01*
X32572952Y-47220238D02*
X32525333Y-47315476D01*
X32477714Y-47363095D01*
X32382476Y-47410714D01*
X32334857Y-47410714D01*
X32239619Y-47363095D01*
X32192000Y-47315476D01*
X32144381Y-47220238D01*
X32144381Y-47029761D01*
X32192000Y-46934523D01*
X32239619Y-46886904D01*
X32334857Y-46839285D01*
X32382476Y-46839285D01*
X32477714Y-46886904D01*
X32525333Y-46934523D01*
X32572952Y-47029761D01*
X32572952Y-47220238D01*
X32620571Y-47315476D01*
X32668190Y-47363095D01*
X32763429Y-47410714D01*
X32953905Y-47410714D01*
X33049143Y-47363095D01*
X33096762Y-47315476D01*
X33144381Y-47220238D01*
X33144381Y-47029761D01*
X33096762Y-46934523D01*
X33049143Y-46886904D01*
X32953905Y-46839285D01*
X32763429Y-46839285D01*
X32668190Y-46886904D01*
X32620571Y-46934523D01*
X32572952Y-47029761D01*
X30858381Y-48363095D02*
X29858381Y-48363095D01*
X29858381Y-48125000D01*
X29906000Y-47982142D01*
X30001238Y-47886904D01*
X30096476Y-47839285D01*
X30286952Y-47791666D01*
X30429810Y-47791666D01*
X30620286Y-47839285D01*
X30715524Y-47886904D01*
X30810762Y-47982142D01*
X30858381Y-48125000D01*
X30858381Y-48363095D01*
X30858381Y-47315476D02*
X30858381Y-47125000D01*
X30810762Y-47029761D01*
X30763143Y-46982142D01*
X30620286Y-46886904D01*
X30429810Y-46839285D01*
X30048857Y-46839285D01*
X29953619Y-46886904D01*
X29906000Y-46934523D01*
X29858381Y-47029761D01*
X29858381Y-47220238D01*
X29906000Y-47315476D01*
X29953619Y-47363095D01*
X30048857Y-47410714D01*
X30286952Y-47410714D01*
X30382190Y-47363095D01*
X30429810Y-47315476D01*
X30477429Y-47220238D01*
X30477429Y-47029761D01*
X30429810Y-46934523D01*
X30382190Y-46886904D01*
X30286952Y-46839285D01*
X28572381Y-48839286D02*
X27572381Y-48839286D01*
X27572381Y-48601191D01*
X27620000Y-48458333D01*
X27715238Y-48363095D01*
X27810476Y-48315476D01*
X28000952Y-48267857D01*
X28143810Y-48267857D01*
X28334286Y-48315476D01*
X28429524Y-48363095D01*
X28524762Y-48458333D01*
X28572381Y-48601191D01*
X28572381Y-48839286D01*
X28572381Y-47315476D02*
X28572381Y-47886905D01*
X28572381Y-47601191D02*
X27572381Y-47601191D01*
X27715238Y-47696429D01*
X27810476Y-47791667D01*
X27858095Y-47886905D01*
X27572381Y-46696429D02*
X27572381Y-46601190D01*
X27620000Y-46505952D01*
X27667619Y-46458333D01*
X27762857Y-46410714D01*
X27953333Y-46363095D01*
X28191429Y-46363095D01*
X28381905Y-46410714D01*
X28477143Y-46458333D01*
X28524762Y-46505952D01*
X28572381Y-46601190D01*
X28572381Y-46696429D01*
X28524762Y-46791667D01*
X28477143Y-46839286D01*
X28381905Y-46886905D01*
X28191429Y-46934524D01*
X27953333Y-46934524D01*
X27762857Y-46886905D01*
X27667619Y-46839286D01*
X27620000Y-46791667D01*
X27572381Y-46696429D01*
X87652381Y-43219666D02*
X87176190Y-43553000D01*
X87652381Y-43791095D02*
X86652381Y-43791095D01*
X86652381Y-43410142D01*
X86700000Y-43314904D01*
X86747619Y-43267285D01*
X86842857Y-43219666D01*
X86985714Y-43219666D01*
X87080952Y-43267285D01*
X87128571Y-43314904D01*
X87176190Y-43410142D01*
X87176190Y-43791095D01*
X86747619Y-42838714D02*
X86700000Y-42791095D01*
X86652381Y-42695857D01*
X86652381Y-42457761D01*
X86700000Y-42362523D01*
X86747619Y-42314904D01*
X86842857Y-42267285D01*
X86938095Y-42267285D01*
X87080952Y-42314904D01*
X87652381Y-42886333D01*
X87652381Y-42267285D01*
X85366381Y-43219666D02*
X84890190Y-43553000D01*
X85366381Y-43791095D02*
X84366381Y-43791095D01*
X84366381Y-43410142D01*
X84414000Y-43314904D01*
X84461619Y-43267285D01*
X84556857Y-43219666D01*
X84699714Y-43219666D01*
X84794952Y-43267285D01*
X84842571Y-43314904D01*
X84890190Y-43410142D01*
X84890190Y-43791095D01*
X84366381Y-42886333D02*
X84366381Y-42267285D01*
X84747333Y-42600619D01*
X84747333Y-42457761D01*
X84794952Y-42362523D01*
X84842571Y-42314904D01*
X84937810Y-42267285D01*
X85175905Y-42267285D01*
X85271143Y-42314904D01*
X85318762Y-42362523D01*
X85366381Y-42457761D01*
X85366381Y-42743476D01*
X85318762Y-42838714D01*
X85271143Y-42886333D01*
X83080381Y-43219666D02*
X82604190Y-43553000D01*
X83080381Y-43791095D02*
X82080381Y-43791095D01*
X82080381Y-43410142D01*
X82128000Y-43314904D01*
X82175619Y-43267285D01*
X82270857Y-43219666D01*
X82413714Y-43219666D01*
X82508952Y-43267285D01*
X82556571Y-43314904D01*
X82604190Y-43410142D01*
X82604190Y-43791095D01*
X82413714Y-42362523D02*
X83080381Y-42362523D01*
X82032762Y-42600619D02*
X82747048Y-42838714D01*
X82747048Y-42219666D01*
X80794381Y-43219666D02*
X80318190Y-43553000D01*
X80794381Y-43791095D02*
X79794381Y-43791095D01*
X79794381Y-43410142D01*
X79842000Y-43314904D01*
X79889619Y-43267285D01*
X79984857Y-43219666D01*
X80127714Y-43219666D01*
X80222952Y-43267285D01*
X80270571Y-43314904D01*
X80318190Y-43410142D01*
X80318190Y-43791095D01*
X79794381Y-42314904D02*
X79794381Y-42791095D01*
X80270571Y-42838714D01*
X80222952Y-42791095D01*
X80175333Y-42695857D01*
X80175333Y-42457761D01*
X80222952Y-42362523D01*
X80270571Y-42314904D01*
X80365810Y-42267285D01*
X80603905Y-42267285D01*
X80699143Y-42314904D01*
X80746762Y-42362523D01*
X80794381Y-42457761D01*
X80794381Y-42695857D01*
X80746762Y-42791095D01*
X80699143Y-42838714D01*
X32280381Y-43219666D02*
X31804190Y-43553000D01*
X32280381Y-43791095D02*
X31280381Y-43791095D01*
X31280381Y-43410142D01*
X31328000Y-43314904D01*
X31375619Y-43267285D01*
X31470857Y-43219666D01*
X31613714Y-43219666D01*
X31708952Y-43267285D01*
X31756571Y-43314904D01*
X31804190Y-43410142D01*
X31804190Y-43791095D01*
X31280381Y-42362523D02*
X31280381Y-42553000D01*
X31328000Y-42648238D01*
X31375619Y-42695857D01*
X31518476Y-42791095D01*
X31708952Y-42838714D01*
X32089905Y-42838714D01*
X32185143Y-42791095D01*
X32232762Y-42743476D01*
X32280381Y-42648238D01*
X32280381Y-42457761D01*
X32232762Y-42362523D01*
X32185143Y-42314904D01*
X32089905Y-42267285D01*
X31851810Y-42267285D01*
X31756571Y-42314904D01*
X31708952Y-42362523D01*
X31661333Y-42457761D01*
X31661333Y-42648238D01*
X31708952Y-42743476D01*
X31756571Y-42791095D01*
X31851810Y-42838714D01*
X29994381Y-43219666D02*
X29518190Y-43553000D01*
X29994381Y-43791095D02*
X28994381Y-43791095D01*
X28994381Y-43410142D01*
X29042000Y-43314904D01*
X29089619Y-43267285D01*
X29184857Y-43219666D01*
X29327714Y-43219666D01*
X29422952Y-43267285D01*
X29470571Y-43314904D01*
X29518190Y-43410142D01*
X29518190Y-43791095D01*
X28994381Y-42886333D02*
X28994381Y-42219666D01*
X29994381Y-42648238D01*
X27708381Y-43219666D02*
X27232190Y-43553000D01*
X27708381Y-43791095D02*
X26708381Y-43791095D01*
X26708381Y-43410142D01*
X26756000Y-43314904D01*
X26803619Y-43267285D01*
X26898857Y-43219666D01*
X27041714Y-43219666D01*
X27136952Y-43267285D01*
X27184571Y-43314904D01*
X27232190Y-43410142D01*
X27232190Y-43791095D01*
X27136952Y-42648238D02*
X27089333Y-42743476D01*
X27041714Y-42791095D01*
X26946476Y-42838714D01*
X26898857Y-42838714D01*
X26803619Y-42791095D01*
X26756000Y-42743476D01*
X26708381Y-42648238D01*
X26708381Y-42457761D01*
X26756000Y-42362523D01*
X26803619Y-42314904D01*
X26898857Y-42267285D01*
X26946476Y-42267285D01*
X27041714Y-42314904D01*
X27089333Y-42362523D01*
X27136952Y-42457761D01*
X27136952Y-42648238D01*
X27184571Y-42743476D01*
X27232190Y-42791095D01*
X27327429Y-42838714D01*
X27517905Y-42838714D01*
X27613143Y-42791095D01*
X27660762Y-42743476D01*
X27708381Y-42648238D01*
X27708381Y-42457761D01*
X27660762Y-42362523D01*
X27613143Y-42314904D01*
X27517905Y-42267285D01*
X27327429Y-42267285D01*
X27232190Y-42314904D01*
X27184571Y-42362523D01*
X27136952Y-42457761D01*
X25422381Y-43219666D02*
X24946190Y-43553000D01*
X25422381Y-43791095D02*
X24422381Y-43791095D01*
X24422381Y-43410142D01*
X24470000Y-43314904D01*
X24517619Y-43267285D01*
X24612857Y-43219666D01*
X24755714Y-43219666D01*
X24850952Y-43267285D01*
X24898571Y-43314904D01*
X24946190Y-43410142D01*
X24946190Y-43791095D01*
X25422381Y-42743476D02*
X25422381Y-42553000D01*
X25374762Y-42457761D01*
X25327143Y-42410142D01*
X25184286Y-42314904D01*
X24993810Y-42267285D01*
X24612857Y-42267285D01*
X24517619Y-42314904D01*
X24470000Y-42362523D01*
X24422381Y-42457761D01*
X24422381Y-42648238D01*
X24470000Y-42743476D01*
X24517619Y-42791095D01*
X24612857Y-42838714D01*
X24850952Y-42838714D01*
X24946190Y-42791095D01*
X24993810Y-42743476D01*
X25041429Y-42648238D01*
X25041429Y-42457761D01*
X24993810Y-42362523D01*
X24946190Y-42314904D01*
X24850952Y-42267285D01*
X85112381Y-32392857D02*
X84636190Y-32726191D01*
X85112381Y-32964286D02*
X84112381Y-32964286D01*
X84112381Y-32583333D01*
X84160000Y-32488095D01*
X84207619Y-32440476D01*
X84302857Y-32392857D01*
X84445714Y-32392857D01*
X84540952Y-32440476D01*
X84588571Y-32488095D01*
X84636190Y-32583333D01*
X84636190Y-32964286D01*
X85112381Y-31440476D02*
X85112381Y-32011905D01*
X85112381Y-31726191D02*
X84112381Y-31726191D01*
X84255238Y-31821429D01*
X84350476Y-31916667D01*
X84398095Y-32011905D01*
X84112381Y-30821429D02*
X84112381Y-30726190D01*
X84160000Y-30630952D01*
X84207619Y-30583333D01*
X84302857Y-30535714D01*
X84493333Y-30488095D01*
X84731429Y-30488095D01*
X84921905Y-30535714D01*
X85017143Y-30583333D01*
X85064762Y-30630952D01*
X85112381Y-30726190D01*
X85112381Y-30821429D01*
X85064762Y-30916667D01*
X85017143Y-30964286D01*
X84921905Y-31011905D01*
X84731429Y-31059524D01*
X84493333Y-31059524D01*
X84302857Y-31011905D01*
X84207619Y-30964286D01*
X84160000Y-30916667D01*
X84112381Y-30821429D01*
X78000381Y-32265857D02*
X77524190Y-32599191D01*
X78000381Y-32837286D02*
X77000381Y-32837286D01*
X77000381Y-32456333D01*
X77048000Y-32361095D01*
X77095619Y-32313476D01*
X77190857Y-32265857D01*
X77333714Y-32265857D01*
X77428952Y-32313476D01*
X77476571Y-32361095D01*
X77524190Y-32456333D01*
X77524190Y-32837286D01*
X78000381Y-31313476D02*
X78000381Y-31884905D01*
X78000381Y-31599191D02*
X77000381Y-31599191D01*
X77143238Y-31694429D01*
X77238476Y-31789667D01*
X77286095Y-31884905D01*
X78000381Y-30361095D02*
X78000381Y-30932524D01*
X78000381Y-30646810D02*
X77000381Y-30646810D01*
X77143238Y-30742048D01*
X77238476Y-30837286D01*
X77286095Y-30932524D01*
X71142381Y-32392857D02*
X70666190Y-32726191D01*
X71142381Y-32964286D02*
X70142381Y-32964286D01*
X70142381Y-32583333D01*
X70190000Y-32488095D01*
X70237619Y-32440476D01*
X70332857Y-32392857D01*
X70475714Y-32392857D01*
X70570952Y-32440476D01*
X70618571Y-32488095D01*
X70666190Y-32583333D01*
X70666190Y-32964286D01*
X71142381Y-31440476D02*
X71142381Y-32011905D01*
X71142381Y-31726191D02*
X70142381Y-31726191D01*
X70285238Y-31821429D01*
X70380476Y-31916667D01*
X70428095Y-32011905D01*
X70237619Y-31059524D02*
X70190000Y-31011905D01*
X70142381Y-30916667D01*
X70142381Y-30678571D01*
X70190000Y-30583333D01*
X70237619Y-30535714D01*
X70332857Y-30488095D01*
X70428095Y-30488095D01*
X70570952Y-30535714D01*
X71142381Y-31107143D01*
X71142381Y-30488095D01*
X64030381Y-32392857D02*
X63554190Y-32726191D01*
X64030381Y-32964286D02*
X63030381Y-32964286D01*
X63030381Y-32583333D01*
X63078000Y-32488095D01*
X63125619Y-32440476D01*
X63220857Y-32392857D01*
X63363714Y-32392857D01*
X63458952Y-32440476D01*
X63506571Y-32488095D01*
X63554190Y-32583333D01*
X63554190Y-32964286D01*
X64030381Y-31440476D02*
X64030381Y-32011905D01*
X64030381Y-31726191D02*
X63030381Y-31726191D01*
X63173238Y-31821429D01*
X63268476Y-31916667D01*
X63316095Y-32011905D01*
X63030381Y-31107143D02*
X63030381Y-30488095D01*
X63411333Y-30821429D01*
X63411333Y-30678571D01*
X63458952Y-30583333D01*
X63506571Y-30535714D01*
X63601810Y-30488095D01*
X63839905Y-30488095D01*
X63935143Y-30535714D01*
X63982762Y-30583333D01*
X64030381Y-30678571D01*
X64030381Y-30964286D01*
X63982762Y-31059524D01*
X63935143Y-31107143D01*
X56918381Y-32392857D02*
X56442190Y-32726191D01*
X56918381Y-32964286D02*
X55918381Y-32964286D01*
X55918381Y-32583333D01*
X55966000Y-32488095D01*
X56013619Y-32440476D01*
X56108857Y-32392857D01*
X56251714Y-32392857D01*
X56346952Y-32440476D01*
X56394571Y-32488095D01*
X56442190Y-32583333D01*
X56442190Y-32964286D01*
X56918381Y-31440476D02*
X56918381Y-32011905D01*
X56918381Y-31726191D02*
X55918381Y-31726191D01*
X56061238Y-31821429D01*
X56156476Y-31916667D01*
X56204095Y-32011905D01*
X56251714Y-30583333D02*
X56918381Y-30583333D01*
X55870762Y-30821429D02*
X56585048Y-31059524D01*
X56585048Y-30440476D01*
X50060381Y-32392857D02*
X49584190Y-32726191D01*
X50060381Y-32964286D02*
X49060381Y-32964286D01*
X49060381Y-32583333D01*
X49108000Y-32488095D01*
X49155619Y-32440476D01*
X49250857Y-32392857D01*
X49393714Y-32392857D01*
X49488952Y-32440476D01*
X49536571Y-32488095D01*
X49584190Y-32583333D01*
X49584190Y-32964286D01*
X50060381Y-31440476D02*
X50060381Y-32011905D01*
X50060381Y-31726191D02*
X49060381Y-31726191D01*
X49203238Y-31821429D01*
X49298476Y-31916667D01*
X49346095Y-32011905D01*
X49060381Y-30535714D02*
X49060381Y-31011905D01*
X49536571Y-31059524D01*
X49488952Y-31011905D01*
X49441333Y-30916667D01*
X49441333Y-30678571D01*
X49488952Y-30583333D01*
X49536571Y-30535714D01*
X49631810Y-30488095D01*
X49869905Y-30488095D01*
X49965143Y-30535714D01*
X50012762Y-30583333D01*
X50060381Y-30678571D01*
X50060381Y-30916667D01*
X50012762Y-31011905D01*
X49965143Y-31059524D01*
X42948381Y-32392857D02*
X42472190Y-32726191D01*
X42948381Y-32964286D02*
X41948381Y-32964286D01*
X41948381Y-32583333D01*
X41996000Y-32488095D01*
X42043619Y-32440476D01*
X42138857Y-32392857D01*
X42281714Y-32392857D01*
X42376952Y-32440476D01*
X42424571Y-32488095D01*
X42472190Y-32583333D01*
X42472190Y-32964286D01*
X42948381Y-31440476D02*
X42948381Y-32011905D01*
X42948381Y-31726191D02*
X41948381Y-31726191D01*
X42091238Y-31821429D01*
X42186476Y-31916667D01*
X42234095Y-32011905D01*
X41948381Y-30583333D02*
X41948381Y-30773810D01*
X41996000Y-30869048D01*
X42043619Y-30916667D01*
X42186476Y-31011905D01*
X42376952Y-31059524D01*
X42757905Y-31059524D01*
X42853143Y-31011905D01*
X42900762Y-30964286D01*
X42948381Y-30869048D01*
X42948381Y-30678571D01*
X42900762Y-30583333D01*
X42853143Y-30535714D01*
X42757905Y-30488095D01*
X42519810Y-30488095D01*
X42424571Y-30535714D01*
X42376952Y-30583333D01*
X42329333Y-30678571D01*
X42329333Y-30869048D01*
X42376952Y-30964286D01*
X42424571Y-31011905D01*
X42519810Y-31059524D01*
X36090381Y-32392857D02*
X35614190Y-32726191D01*
X36090381Y-32964286D02*
X35090381Y-32964286D01*
X35090381Y-32583333D01*
X35138000Y-32488095D01*
X35185619Y-32440476D01*
X35280857Y-32392857D01*
X35423714Y-32392857D01*
X35518952Y-32440476D01*
X35566571Y-32488095D01*
X35614190Y-32583333D01*
X35614190Y-32964286D01*
X36090381Y-31440476D02*
X36090381Y-32011905D01*
X36090381Y-31726191D02*
X35090381Y-31726191D01*
X35233238Y-31821429D01*
X35328476Y-31916667D01*
X35376095Y-32011905D01*
X35090381Y-31107143D02*
X35090381Y-30440476D01*
X36090381Y-30869048D01*
M02*
