M48
;DRILL file {KiCad 4.0.5+dfsg1-4} date Fri May  5 03:22:08 2017
;FORMAT={-:-/ absolute / inch / decimal}
FMAT,2
INCH,TZ
T1C0.016
T2C0.035
T3C0.039
T4C0.047
T5C0.055
T6C0.126
T7C0.169
%
G90
G05
M72
T1
X1.45Y-1.305
X1.73Y-1.31
X1.73Y-1.515
X1.73Y-1.58
X1.985Y-1.3
X1.985Y-1.515
X1.985Y-1.615
X2.075Y-1.58
X2.135Y-1.55
X2.135Y-1.605
X2.14Y-1.82
X2.26Y-1.305
X2.26Y-1.51
X2.46Y-1.77
X2.52Y-1.5
X2.55Y-1.71
X2.555Y-1.31
X2.62Y-1.86
X2.635Y-1.525
X2.71Y-1.82
X2.81Y-1.605
X2.815Y-1.53
X2.82Y-1.305
X3.1Y-1.305
X3.15Y-1.215
X3.16Y-1.475
X3.365Y-1.31
T2
X3.3775Y-1.7525
X3.4775Y-1.7525
T3
X1.51Y-1.92
X1.61Y-1.92
X1.71Y-1.92
X1.81Y-1.92
X1.91Y-1.92
X2.01Y-1.92
X2.57Y-1.92
X2.67Y-1.92
X2.77Y-1.92
X2.87Y-1.92
X2.97Y-1.92
X3.07Y-1.92
T4
X1.2031Y-0.92
X1.3409Y-0.92
X1.4787Y-0.92
X1.6165Y-0.92
X1.7543Y-0.92
X1.892Y-0.92
X2.0298Y-0.92
X2.1676Y-0.92
X2.3054Y-0.92
X2.4432Y-0.92
X2.581Y-0.92
X2.7188Y-0.92
X2.8566Y-0.92
X2.9944Y-0.92
X3.1322Y-0.92
X3.27Y-0.92
T5
X0.8Y-1.03
X0.8Y-1.33
X3.75Y-1.03
X3.75Y-1.33
T6
X0.77Y-0.72
X3.79Y-0.72
T7
X0.82Y-1.97
X3.74Y-1.97
T0
M30
