G04 #@! TF.FileFunction,Copper,L2,Bot,Signal*
%FSLAX46Y46*%
G04 Gerber Fmt 4.6, Leading zero omitted, Abs format (unit mm)*
G04 Created by KiCad (PCBNEW 4.0.5+dfsg1-4) date Sun Jun 18 22:39:19 2017*
%MOMM*%
%LPD*%
G01*
G04 APERTURE LIST*
%ADD10C,0.100000*%
%ADD11R,1.800000X3.600000*%
%ADD12O,1.800000X3.600000*%
%ADD13R,1.700000X1.700000*%
%ADD14O,1.700000X1.700000*%
%ADD15R,3.600000X2.100000*%
%ADD16O,3.600000X2.100000*%
%ADD17R,1.800000X1.800000*%
%ADD18C,1.800000*%
%ADD19C,0.600000*%
%ADD20C,0.250000*%
%ADD21C,1.000000*%
%ADD22C,2.000000*%
%ADD23C,0.500000*%
%ADD24C,3.000000*%
G04 APERTURE END LIST*
D10*
D11*
X83058000Y-23368000D03*
D12*
X79558000Y-23368000D03*
X76058000Y-23368000D03*
X72558000Y-23368000D03*
X69058000Y-23368000D03*
X65558000Y-23368000D03*
X62058000Y-23368000D03*
X58558000Y-23368000D03*
X55058000Y-23368000D03*
X51558000Y-23368000D03*
X48058000Y-23368000D03*
X44558000Y-23368000D03*
X41058000Y-23368000D03*
X37558000Y-23368000D03*
X34058000Y-23368000D03*
X30558000Y-23368000D03*
D13*
X37465000Y-48768000D03*
D14*
X40005000Y-48768000D03*
X42545000Y-48768000D03*
X45085000Y-48768000D03*
X47625000Y-48768000D03*
X50165000Y-48768000D03*
D13*
X78359000Y-48768000D03*
D14*
X75819000Y-48768000D03*
X73279000Y-48768000D03*
X70739000Y-48768000D03*
X68199000Y-48768000D03*
X65659000Y-48768000D03*
D15*
X20320000Y-26162000D03*
D16*
X20320000Y-33782000D03*
D15*
X95250000Y-33782000D03*
D16*
X95250000Y-26162000D03*
D17*
X79248000Y-43561000D03*
D18*
X76708000Y-43561000D03*
D19*
X46482000Y-46355000D03*
X63373000Y-44577000D03*
X68262500Y-47498000D03*
X68262500Y-44767500D03*
X59118500Y-45339000D03*
X61214000Y-46037500D03*
X65405000Y-43751500D03*
X58420000Y-43688000D03*
X66802000Y-42862500D03*
X88900000Y-39624000D03*
X87757000Y-33147000D03*
X86614000Y-40132000D03*
X66040000Y-41529000D03*
X80518000Y-33147000D03*
X74549000Y-39624000D03*
X73660000Y-33147000D03*
X64770000Y-41021000D03*
X66548000Y-39243000D03*
X66548000Y-33147000D03*
X84836000Y-28829000D03*
X77978000Y-28829000D03*
X71374000Y-28829000D03*
X64516000Y-28829000D03*
X57404000Y-28829000D03*
X50292000Y-28829000D03*
X43180000Y-28829000D03*
X36068000Y-28829000D03*
X93367000Y-45317000D03*
X92668500Y-46015500D03*
X92097000Y-46714000D03*
X91462000Y-47349000D03*
X90827000Y-47984000D03*
X95018000Y-44936000D03*
X94129000Y-44936000D03*
X96161000Y-44936000D03*
X96796000Y-44301000D03*
X97494500Y-43602500D03*
X98066000Y-42777000D03*
X34385250Y-50768250D03*
X60134500Y-49466500D03*
X82105500Y-51879500D03*
X25693000Y-28233000D03*
X95504000Y-24003000D03*
X94488000Y-22987000D03*
X93726000Y-23749000D03*
X92710000Y-22733000D03*
X93472000Y-21971000D03*
X92456000Y-20955000D03*
X91694000Y-21717000D03*
X90424000Y-18923000D03*
X91440000Y-19939000D03*
X90678000Y-20701000D03*
X89662000Y-19685000D03*
X89662000Y-17907000D03*
X88138000Y-17907000D03*
X88138000Y-18923000D03*
X82042000Y-18923000D03*
X82042000Y-17907000D03*
X83566000Y-17907000D03*
X85090000Y-17907000D03*
X86614000Y-17907000D03*
X86614000Y-18923000D03*
X85090000Y-18923000D03*
X83566000Y-18923000D03*
X78994000Y-18923000D03*
X80518000Y-18923000D03*
X82042000Y-18923000D03*
X82042000Y-17907000D03*
X80518000Y-17907000D03*
X78994000Y-17907000D03*
X77470000Y-17907000D03*
X77470000Y-18923000D03*
X72898000Y-18923000D03*
X72898000Y-17907000D03*
X74422000Y-17907000D03*
X75946000Y-17907000D03*
X77470000Y-17907000D03*
X77470000Y-18923000D03*
X75946000Y-18923000D03*
X74422000Y-18923000D03*
X68326000Y-18923000D03*
X68326000Y-17907000D03*
X69850000Y-17907000D03*
X71374000Y-17907000D03*
X72898000Y-17907000D03*
X72898000Y-18923000D03*
X71374000Y-18923000D03*
X69850000Y-18923000D03*
X65278000Y-18923000D03*
X66802000Y-18923000D03*
X68326000Y-18923000D03*
X68326000Y-17907000D03*
X66802000Y-17907000D03*
X65278000Y-17907000D03*
X63754000Y-17907000D03*
X63754000Y-18923000D03*
X59182000Y-18923000D03*
X59182000Y-17907000D03*
X60706000Y-17907000D03*
X62230000Y-17907000D03*
X63754000Y-17907000D03*
X63754000Y-18923000D03*
X62230000Y-18923000D03*
X60706000Y-18923000D03*
X54610000Y-18923000D03*
X54610000Y-17907000D03*
X56134000Y-17907000D03*
X57658000Y-17907000D03*
X59182000Y-17907000D03*
X59182000Y-18923000D03*
X57658000Y-18923000D03*
X56134000Y-18923000D03*
X51562000Y-18923000D03*
X53086000Y-18923000D03*
X54610000Y-18923000D03*
X54610000Y-17907000D03*
X53086000Y-17907000D03*
X51562000Y-17907000D03*
X50038000Y-17907000D03*
X50038000Y-18923000D03*
X45466000Y-18923000D03*
X45466000Y-17907000D03*
X46990000Y-17907000D03*
X48514000Y-17907000D03*
X50038000Y-17907000D03*
X50038000Y-18923000D03*
X48514000Y-18923000D03*
X46990000Y-18923000D03*
X40894000Y-18923000D03*
X40894000Y-17907000D03*
X42418000Y-17907000D03*
X43942000Y-17907000D03*
X45466000Y-17907000D03*
X45466000Y-18923000D03*
X43942000Y-18923000D03*
X42418000Y-18923000D03*
X37846000Y-18923000D03*
X39370000Y-18923000D03*
X40894000Y-18923000D03*
X40894000Y-17907000D03*
X39370000Y-17907000D03*
X37846000Y-17907000D03*
X36322000Y-17907000D03*
X36322000Y-18923000D03*
X31750000Y-18923000D03*
X31750000Y-17907000D03*
X33274000Y-17907000D03*
X34798000Y-17907000D03*
X36322000Y-17907000D03*
X36322000Y-18923000D03*
X34798000Y-18923000D03*
X33274000Y-18923000D03*
X91948000Y-26543000D03*
X94234000Y-30861000D03*
X35560000Y-42418000D03*
X59690000Y-33147000D03*
X57658000Y-43053000D03*
X31242000Y-39878000D03*
X52832000Y-42545000D03*
X52578000Y-33147000D03*
X45466000Y-33147000D03*
X45466000Y-41402000D03*
X26670000Y-39878000D03*
X38608000Y-40259000D03*
X38608000Y-33147000D03*
X45275500Y-44958000D03*
X89662000Y-26543000D03*
D20*
X63373000Y-44577000D02*
X48260000Y-44577000D01*
X48260000Y-44577000D02*
X46482000Y-46355000D01*
X68262500Y-44767500D02*
X68262500Y-47498000D01*
X60515500Y-45339000D02*
X59118500Y-45339000D01*
X61214000Y-46037500D02*
X60515500Y-45339000D01*
X65405000Y-43751500D02*
X65341500Y-43688000D01*
X65341500Y-43688000D02*
X58420000Y-43688000D01*
X88900000Y-39624000D02*
X88900000Y-40957500D01*
X74803000Y-42862500D02*
X66802000Y-42862500D01*
X75882500Y-41783000D02*
X74803000Y-42862500D01*
X88074500Y-41783000D02*
X75882500Y-41783000D01*
X88900000Y-40957500D02*
X88074500Y-41783000D01*
X88900000Y-34290000D02*
X88900000Y-39624000D01*
X87757000Y-33147000D02*
X88900000Y-34290000D01*
X83502500Y-37020500D02*
X79438500Y-37020500D01*
X86614000Y-40132000D02*
X83502500Y-37020500D01*
X80518000Y-33147000D02*
X80518000Y-35941000D01*
X80518000Y-35941000D02*
X79438500Y-37020500D01*
X79438500Y-37020500D02*
X78930500Y-37528500D01*
X78930500Y-37528500D02*
X76962000Y-39497000D01*
X74930000Y-41529000D02*
X76962000Y-39497000D01*
X66040000Y-41529000D02*
X74930000Y-41529000D01*
X80518000Y-33909000D02*
X80518000Y-33147000D01*
X74422000Y-39497000D02*
X73660000Y-39497000D01*
X74549000Y-39624000D02*
X74422000Y-39497000D01*
X73660000Y-35306000D02*
X73660000Y-33147000D01*
X64770000Y-41021000D02*
X65024000Y-40767000D01*
X65024000Y-40767000D02*
X72390000Y-40767000D01*
X72390000Y-40767000D02*
X73660000Y-39497000D01*
X73660000Y-39497000D02*
X73660000Y-38354000D01*
X73660000Y-38354000D02*
X73660000Y-35306000D01*
X73660000Y-35306000D02*
X73660000Y-35179000D01*
X66548000Y-33147000D02*
X66548000Y-35179000D01*
X66548000Y-35179000D02*
X66548000Y-39243000D01*
X77978000Y-28829000D02*
X84836000Y-28829000D01*
X71374000Y-28829000D02*
X77978000Y-28829000D01*
X64516000Y-28829000D02*
X71374000Y-28829000D01*
X57404000Y-28829000D02*
X64516000Y-28829000D01*
X50292000Y-28829000D02*
X57404000Y-28829000D01*
X43180000Y-28829000D02*
X50292000Y-28829000D01*
X36068000Y-28829000D02*
X43180000Y-28829000D01*
X90192000Y-48619000D02*
X90827000Y-47984000D01*
D21*
X88582500Y-51879500D02*
X90192000Y-50270000D01*
X90192000Y-50270000D02*
X90192000Y-48619000D01*
D22*
X82105500Y-51879500D02*
X88519000Y-51879500D01*
D21*
X88519000Y-51879500D02*
X88582500Y-51879500D01*
D20*
X92668500Y-46015500D02*
X93367000Y-45317000D01*
X91462000Y-47349000D02*
X92097000Y-46714000D01*
X94129000Y-44936000D02*
X95018000Y-44936000D01*
X96161000Y-44936000D02*
X96796000Y-44301000D01*
X97494500Y-43602500D02*
X98066000Y-43031000D01*
X98066000Y-43031000D02*
X98066000Y-42777000D01*
D23*
X60134500Y-49466500D02*
X60134500Y-51879500D01*
D21*
X65659000Y-51879500D02*
X65659000Y-48768000D01*
X50101500Y-51879500D02*
X50101500Y-48831500D01*
X50101500Y-48831500D02*
X50165000Y-48768000D01*
D22*
X33782000Y-50165000D02*
X34385250Y-50768250D01*
X20320000Y-33782000D02*
X20320000Y-36703000D01*
X20320000Y-36703000D02*
X33782000Y-50165000D01*
X34385250Y-50768250D02*
X35496500Y-51879500D01*
X35496500Y-51879500D02*
X50101500Y-51879500D01*
X50101500Y-51879500D02*
X60134500Y-51879500D01*
X60134500Y-51879500D02*
X65659000Y-51879500D01*
X65659000Y-51879500D02*
X82105500Y-51879500D01*
D21*
X25820000Y-28106000D02*
X25693000Y-28233000D01*
D23*
X95504000Y-24003000D02*
X95250000Y-24003000D01*
X93726000Y-23749000D02*
X94488000Y-22987000D01*
X93472000Y-21971000D02*
X92710000Y-22733000D01*
X91694000Y-21717000D02*
X92456000Y-20955000D01*
X86614000Y-18923000D02*
X88138000Y-18923000D01*
X91440000Y-19939000D02*
X90424000Y-18923000D01*
X89662000Y-19685000D02*
X90678000Y-20701000D01*
X88138000Y-17907000D02*
X89662000Y-17907000D01*
X83566000Y-17907000D02*
X82042000Y-17907000D01*
X86614000Y-17907000D02*
X85090000Y-17907000D01*
X85090000Y-18923000D02*
X86614000Y-18923000D01*
X82042000Y-18923000D02*
X83566000Y-18923000D01*
X82042000Y-17907000D02*
X82042000Y-18923000D01*
X77470000Y-17907000D02*
X77470000Y-18923000D01*
X77470000Y-18923000D02*
X78994000Y-18923000D01*
X80518000Y-18923000D02*
X82042000Y-18923000D01*
X82042000Y-17907000D02*
X80518000Y-17907000D01*
X78994000Y-17907000D02*
X77470000Y-17907000D01*
X74422000Y-17907000D02*
X72898000Y-17907000D01*
X77470000Y-17907000D02*
X75946000Y-17907000D01*
X75946000Y-18923000D02*
X77470000Y-18923000D01*
X72898000Y-18923000D02*
X74422000Y-18923000D01*
X72898000Y-17907000D02*
X72898000Y-18923000D01*
X69850000Y-17907000D02*
X68326000Y-17907000D01*
X72898000Y-17907000D02*
X71374000Y-17907000D01*
X71374000Y-18923000D02*
X72898000Y-18923000D01*
X68326000Y-18923000D02*
X69850000Y-18923000D01*
X68326000Y-17907000D02*
X68326000Y-18923000D01*
X63754000Y-17907000D02*
X63754000Y-18923000D01*
X63754000Y-18923000D02*
X65278000Y-18923000D01*
X66802000Y-18923000D02*
X68326000Y-18923000D01*
X68326000Y-17907000D02*
X66802000Y-17907000D01*
X65278000Y-17907000D02*
X63754000Y-17907000D01*
X60706000Y-17907000D02*
X59182000Y-17907000D01*
X63754000Y-17907000D02*
X62230000Y-17907000D01*
X62230000Y-18923000D02*
X63754000Y-18923000D01*
X59182000Y-18923000D02*
X60706000Y-18923000D01*
X59182000Y-17907000D02*
X59182000Y-18923000D01*
X56134000Y-17907000D02*
X54610000Y-17907000D01*
X59182000Y-17907000D02*
X57658000Y-17907000D01*
X57658000Y-18923000D02*
X59182000Y-18923000D01*
X54610000Y-18923000D02*
X56134000Y-18923000D01*
X54610000Y-17907000D02*
X54610000Y-18923000D01*
X50038000Y-17907000D02*
X50038000Y-18923000D01*
X50038000Y-18923000D02*
X51562000Y-18923000D01*
X53086000Y-18923000D02*
X54610000Y-18923000D01*
X54610000Y-17907000D02*
X53086000Y-17907000D01*
X51562000Y-17907000D02*
X50038000Y-17907000D01*
X46990000Y-17907000D02*
X45466000Y-17907000D01*
X50038000Y-17907000D02*
X48514000Y-17907000D01*
X48514000Y-18923000D02*
X50038000Y-18923000D01*
X45466000Y-18923000D02*
X46990000Y-18923000D01*
X45466000Y-17907000D02*
X45466000Y-18923000D01*
X42418000Y-17907000D02*
X40894000Y-17907000D01*
X45466000Y-17907000D02*
X43942000Y-17907000D01*
X43942000Y-18923000D02*
X45466000Y-18923000D01*
X40894000Y-18923000D02*
X42418000Y-18923000D01*
X40894000Y-17907000D02*
X40894000Y-18923000D01*
X36322000Y-17907000D02*
X36322000Y-18923000D01*
X36322000Y-18923000D02*
X37846000Y-18923000D01*
X39370000Y-18923000D02*
X40894000Y-18923000D01*
X40894000Y-17907000D02*
X39370000Y-17907000D01*
X37846000Y-17907000D02*
X36322000Y-17907000D01*
X33274000Y-17907000D02*
X31750000Y-17907000D01*
X36322000Y-17907000D02*
X34798000Y-17907000D01*
X34798000Y-18923000D02*
X36322000Y-18923000D01*
X31750000Y-18923000D02*
X33274000Y-18923000D01*
X31750000Y-17907000D02*
X31750000Y-18923000D01*
D24*
X95250000Y-26162000D02*
X95250000Y-24003000D01*
X95250000Y-24003000D02*
X95250000Y-24257000D01*
X95250000Y-24257000D02*
X89281000Y-18288000D01*
X30558000Y-23368000D02*
X30558000Y-19988000D01*
X30558000Y-19988000D02*
X32258000Y-18288000D01*
X20320000Y-33782000D02*
X22430000Y-31496000D01*
X22430000Y-31496000D02*
X25820000Y-28106000D01*
X25820000Y-28106000D02*
X30558000Y-23368000D01*
X89408000Y-18288000D02*
X89281000Y-18288000D01*
D22*
X79248000Y-18288000D02*
X86868000Y-18288000D01*
X86868000Y-18288000D02*
X89408000Y-18288000D01*
D24*
X89281000Y-18288000D02*
X32258000Y-18288000D01*
D22*
X79558000Y-23368000D02*
X79558000Y-18288000D01*
X79558000Y-18288000D02*
X79248000Y-18288000D01*
X72558000Y-23368000D02*
X72558000Y-18288000D01*
X72558000Y-18288000D02*
X72898000Y-18288000D01*
X65558000Y-23368000D02*
X65558000Y-18288000D01*
X65558000Y-18288000D02*
X65278000Y-18288000D01*
X58558000Y-23368000D02*
X58558000Y-18288000D01*
X58558000Y-18288000D02*
X58928000Y-18288000D01*
X51558000Y-23368000D02*
X51558000Y-18288000D01*
X51558000Y-18288000D02*
X51308000Y-18288000D01*
X44558000Y-23368000D02*
X44558000Y-18288000D01*
X44558000Y-18288000D02*
X44958000Y-18288000D01*
X37558000Y-23368000D02*
X37558000Y-18288000D01*
X37558000Y-18288000D02*
X37338000Y-18288000D01*
X32258000Y-18288000D02*
X37338000Y-18288000D01*
X37338000Y-18288000D02*
X44958000Y-18288000D01*
X44958000Y-18288000D02*
X51308000Y-18288000D01*
X51308000Y-18288000D02*
X58928000Y-18288000D01*
X58928000Y-18288000D02*
X65278000Y-18288000D01*
X65278000Y-18288000D02*
X72898000Y-18288000D01*
X72898000Y-18288000D02*
X79248000Y-18288000D01*
X30558000Y-19988000D02*
X32258000Y-18288000D01*
D20*
X95250000Y-33782000D02*
X94361000Y-33782000D01*
X94361000Y-33782000D02*
X91948000Y-36195000D01*
X76708000Y-44704000D02*
X76708000Y-43561000D01*
X77216000Y-45212000D02*
X76708000Y-44704000D01*
X87122000Y-45212000D02*
X77216000Y-45212000D01*
X91948000Y-40386000D02*
X87122000Y-45212000D01*
X91948000Y-36195000D02*
X91948000Y-40386000D01*
X91948000Y-26543000D02*
X94234000Y-28829000D01*
X94234000Y-28829000D02*
X94234000Y-30861000D01*
X57658000Y-43053000D02*
X57404000Y-43053000D01*
X36576000Y-43434000D02*
X35560000Y-42418000D01*
X57023000Y-43434000D02*
X36576000Y-43434000D01*
X57404000Y-43053000D02*
X57023000Y-43434000D01*
X59690000Y-33147000D02*
X59690000Y-35179000D01*
X57658000Y-43053000D02*
X57912000Y-42799000D01*
X57912000Y-42799000D02*
X59690000Y-42799000D01*
X59690000Y-35306000D02*
X59690000Y-35179000D01*
X59690000Y-42799000D02*
X59690000Y-35306000D01*
X52832000Y-42545000D02*
X36957000Y-42545000D01*
X34290000Y-39878000D02*
X31242000Y-39878000D01*
X36957000Y-42545000D02*
X34290000Y-39878000D01*
X52578000Y-35179000D02*
X52578000Y-33147000D01*
X52832000Y-42545000D02*
X52578000Y-42291000D01*
X52578000Y-42291000D02*
X52578000Y-35179000D01*
X45466000Y-41402000D02*
X45466000Y-33147000D01*
X38608000Y-40259000D02*
X36195000Y-40259000D01*
X27305000Y-39878000D02*
X26670000Y-39878000D01*
X28194000Y-38989000D02*
X27305000Y-39878000D01*
X34925000Y-38989000D02*
X28194000Y-38989000D01*
X36195000Y-40259000D02*
X34925000Y-38989000D01*
X38608000Y-35179000D02*
X38608000Y-33147000D01*
X38608000Y-40259000D02*
X38608000Y-35179000D01*
X41465500Y-44958000D02*
X37655500Y-48768000D01*
X45275500Y-44958000D02*
X41465500Y-44958000D01*
X37655500Y-48768000D02*
X37465000Y-48768000D01*
X79248000Y-43561000D02*
X87884000Y-43561000D01*
X91186000Y-28067000D02*
X89662000Y-26543000D01*
X91186000Y-40259000D02*
X91186000Y-28067000D01*
X87884000Y-43561000D02*
X91186000Y-40259000D01*
D23*
X94470660Y-16057000D02*
X21347256Y-16057000D01*
X94065494Y-16457000D02*
X21756424Y-16457000D01*
X93791609Y-16857000D02*
X22029085Y-16857000D01*
X93607014Y-17257000D02*
X22215779Y-17257000D01*
X93486328Y-17657000D02*
X22338515Y-17657000D01*
X93418826Y-18057000D02*
X22407445Y-18057000D01*
X93413241Y-18457000D02*
X22401860Y-18457000D01*
X93472703Y-18857000D02*
X22351481Y-18857000D01*
X93584269Y-19257000D02*
X22246421Y-19257000D01*
X93757544Y-19657000D02*
X22068329Y-19657000D01*
X94015327Y-20057000D02*
X21798010Y-20057000D01*
X17690442Y-20457000D02*
X17327000Y-20457000D01*
X33262100Y-20457000D02*
X21413215Y-20457000D01*
X40262100Y-20457000D02*
X34845170Y-20457000D01*
X47262100Y-20457000D02*
X41845170Y-20457000D01*
X54262100Y-20457000D02*
X48845170Y-20457000D01*
X61262100Y-20457000D02*
X55845170Y-20457000D01*
X68262100Y-20457000D02*
X62845170Y-20457000D01*
X75262100Y-20457000D02*
X69845170Y-20457000D01*
X81583959Y-20457000D02*
X76845170Y-20457000D01*
X94398442Y-20457000D02*
X84519388Y-20457000D01*
X98497000Y-20457000D02*
X98121215Y-20457000D01*
X18319113Y-20857000D02*
X17327000Y-20857000D01*
X30185516Y-20857000D02*
X20816161Y-20857000D01*
X30781362Y-20857000D02*
X30334639Y-20857000D01*
X32628506Y-20857000D02*
X30930485Y-20857000D01*
X37185516Y-20857000D02*
X35485329Y-20857000D01*
X37781362Y-20857000D02*
X37334639Y-20857000D01*
X39628506Y-20857000D02*
X37930485Y-20857000D01*
X44185516Y-20857000D02*
X42485329Y-20857000D01*
X44781362Y-20857000D02*
X44334639Y-20857000D01*
X46628506Y-20857000D02*
X44930485Y-20857000D01*
X51185516Y-20857000D02*
X49485329Y-20857000D01*
X51781362Y-20857000D02*
X51334639Y-20857000D01*
X53628506Y-20857000D02*
X51930485Y-20857000D01*
X58185516Y-20857000D02*
X56485329Y-20857000D01*
X58781362Y-20857000D02*
X58334639Y-20857000D01*
X60628506Y-20857000D02*
X58930485Y-20857000D01*
X65185516Y-20857000D02*
X63485329Y-20857000D01*
X65781362Y-20857000D02*
X65334639Y-20857000D01*
X67628506Y-20857000D02*
X65930485Y-20857000D01*
X72185516Y-20857000D02*
X70485329Y-20857000D01*
X72781362Y-20857000D02*
X72334639Y-20857000D01*
X74628506Y-20857000D02*
X72930485Y-20857000D01*
X79185516Y-20857000D02*
X77485329Y-20857000D01*
X79781362Y-20857000D02*
X79334639Y-20857000D01*
X81130042Y-20857000D02*
X79930485Y-20857000D01*
X95027113Y-20857000D02*
X84978752Y-20857000D01*
X98497000Y-20857000D02*
X97524161Y-20857000D01*
X29432269Y-21257000D02*
X17327000Y-21257000D01*
X30562000Y-21257000D02*
X30554000Y-21257000D01*
X32273871Y-21257000D02*
X31683732Y-21257000D01*
X36432269Y-21257000D02*
X35843521Y-21257000D01*
X37562000Y-21257000D02*
X37554000Y-21257000D01*
X39273871Y-21257000D02*
X38683732Y-21257000D01*
X43432269Y-21257000D02*
X42843521Y-21257000D01*
X44562000Y-21257000D02*
X44554000Y-21257000D01*
X46273871Y-21257000D02*
X45683732Y-21257000D01*
X50432269Y-21257000D02*
X49843521Y-21257000D01*
X51562000Y-21257000D02*
X51554000Y-21257000D01*
X53273871Y-21257000D02*
X52683732Y-21257000D01*
X57432269Y-21257000D02*
X56843521Y-21257000D01*
X58562000Y-21257000D02*
X58554000Y-21257000D01*
X60273871Y-21257000D02*
X59683732Y-21257000D01*
X64432269Y-21257000D02*
X63843521Y-21257000D01*
X65562000Y-21257000D02*
X65554000Y-21257000D01*
X67273871Y-21257000D02*
X66683732Y-21257000D01*
X71432269Y-21257000D02*
X70843521Y-21257000D01*
X72562000Y-21257000D02*
X72554000Y-21257000D01*
X74273871Y-21257000D02*
X73683732Y-21257000D01*
X78432269Y-21257000D02*
X77843521Y-21257000D01*
X79562000Y-21257000D02*
X79554000Y-21257000D01*
X80946149Y-21257000D02*
X80683732Y-21257000D01*
X98497000Y-21257000D02*
X85163508Y-21257000D01*
X29120647Y-21657000D02*
X17327000Y-21657000D01*
X30562000Y-21657000D02*
X30554000Y-21657000D01*
X32065766Y-21657000D02*
X31995355Y-21657000D01*
X36120646Y-21657000D02*
X36052736Y-21657000D01*
X37562000Y-21657000D02*
X37554000Y-21657000D01*
X39065766Y-21657000D02*
X38995355Y-21657000D01*
X43120646Y-21657000D02*
X43052736Y-21657000D01*
X44562000Y-21657000D02*
X44554000Y-21657000D01*
X46065766Y-21657000D02*
X45995355Y-21657000D01*
X50120646Y-21657000D02*
X50052736Y-21657000D01*
X51562000Y-21657000D02*
X51554000Y-21657000D01*
X53065766Y-21657000D02*
X52995355Y-21657000D01*
X57120646Y-21657000D02*
X57052736Y-21657000D01*
X58562000Y-21657000D02*
X58554000Y-21657000D01*
X60065766Y-21657000D02*
X59995355Y-21657000D01*
X64120646Y-21657000D02*
X64052736Y-21657000D01*
X65562000Y-21657000D02*
X65554000Y-21657000D01*
X67065766Y-21657000D02*
X66995355Y-21657000D01*
X71120646Y-21657000D02*
X71052736Y-21657000D01*
X72562000Y-21657000D02*
X72554000Y-21657000D01*
X74065766Y-21657000D02*
X73995355Y-21657000D01*
X78120646Y-21657000D02*
X78052736Y-21657000D01*
X79562000Y-21657000D02*
X79554000Y-21657000D01*
X98497000Y-21657000D02*
X85214048Y-21657000D01*
X28958224Y-22057000D02*
X17327000Y-22057000D01*
X30562000Y-22057000D02*
X30554000Y-22057000D01*
X37562000Y-22057000D02*
X37554000Y-22057000D01*
X44562000Y-22057000D02*
X44554000Y-22057000D01*
X51562000Y-22057000D02*
X51554000Y-22057000D01*
X58562000Y-22057000D02*
X58554000Y-22057000D01*
X65562000Y-22057000D02*
X65554000Y-22057000D01*
X72562000Y-22057000D02*
X72554000Y-22057000D01*
X79562000Y-22057000D02*
X79554000Y-22057000D01*
X98497000Y-22057000D02*
X85214048Y-22057000D01*
X28900707Y-22457000D02*
X17327000Y-22457000D01*
X30562000Y-22457000D02*
X30554000Y-22457000D01*
X37562000Y-22457000D02*
X37554000Y-22457000D01*
X44562000Y-22457000D02*
X44554000Y-22457000D01*
X51562000Y-22457000D02*
X51554000Y-22457000D01*
X58562000Y-22457000D02*
X58554000Y-22457000D01*
X65562000Y-22457000D02*
X65554000Y-22457000D01*
X72562000Y-22457000D02*
X72554000Y-22457000D01*
X79562000Y-22457000D02*
X79554000Y-22457000D01*
X98497000Y-22457000D02*
X85214048Y-22457000D01*
X28900000Y-22857000D02*
X17327000Y-22857000D01*
X30562000Y-22857000D02*
X30554000Y-22857000D01*
X37562000Y-22857000D02*
X37554000Y-22857000D01*
X44562000Y-22857000D02*
X44554000Y-22857000D01*
X51562000Y-22857000D02*
X51554000Y-22857000D01*
X58562000Y-22857000D02*
X58554000Y-22857000D01*
X65562000Y-22857000D02*
X65554000Y-22857000D01*
X72562000Y-22857000D02*
X72554000Y-22857000D01*
X79562000Y-22857000D02*
X79554000Y-22857000D01*
X98497000Y-22857000D02*
X85214048Y-22857000D01*
X28900000Y-23257000D02*
X17327000Y-23257000D01*
X30562000Y-23257000D02*
X30554000Y-23257000D01*
X37562000Y-23257000D02*
X37554000Y-23257000D01*
X44562000Y-23257000D02*
X44554000Y-23257000D01*
X51562000Y-23257000D02*
X51554000Y-23257000D01*
X58562000Y-23257000D02*
X58554000Y-23257000D01*
X65562000Y-23257000D02*
X65554000Y-23257000D01*
X72562000Y-23257000D02*
X72554000Y-23257000D01*
X79562000Y-23257000D02*
X79554000Y-23257000D01*
X98497000Y-23257000D02*
X85214048Y-23257000D01*
X28900000Y-23657000D02*
X17327000Y-23657000D01*
X30562000Y-23657000D02*
X30554000Y-23657000D01*
X37562000Y-23657000D02*
X37554000Y-23657000D01*
X44562000Y-23657000D02*
X44554000Y-23657000D01*
X51562000Y-23657000D02*
X51554000Y-23657000D01*
X58562000Y-23657000D02*
X58554000Y-23657000D01*
X65562000Y-23657000D02*
X65554000Y-23657000D01*
X72562000Y-23657000D02*
X72554000Y-23657000D01*
X79562000Y-23657000D02*
X79554000Y-23657000D01*
X98497000Y-23657000D02*
X85214048Y-23657000D01*
X17860975Y-24057000D02*
X17327000Y-24057000D01*
X28900000Y-24057000D02*
X22799272Y-24057000D01*
X30562000Y-24057000D02*
X30554000Y-24057000D01*
X37562000Y-24057000D02*
X37554000Y-24057000D01*
X44562000Y-24057000D02*
X44554000Y-24057000D01*
X51562000Y-24057000D02*
X51554000Y-24057000D01*
X58562000Y-24057000D02*
X58554000Y-24057000D01*
X65562000Y-24057000D02*
X65554000Y-24057000D01*
X72562000Y-24057000D02*
X72554000Y-24057000D01*
X79562000Y-24057000D02*
X79554000Y-24057000D01*
X98497000Y-24057000D02*
X85214048Y-24057000D01*
X17451198Y-24457000D02*
X17327000Y-24457000D01*
X28918671Y-24457000D02*
X23177653Y-24457000D01*
X30562000Y-24457000D02*
X30554000Y-24457000D01*
X37562000Y-24457000D02*
X37554000Y-24457000D01*
X44562000Y-24457000D02*
X44554000Y-24457000D01*
X51562000Y-24457000D02*
X51554000Y-24457000D01*
X58562000Y-24457000D02*
X58554000Y-24457000D01*
X65562000Y-24457000D02*
X65554000Y-24457000D01*
X72562000Y-24457000D02*
X72554000Y-24457000D01*
X79562000Y-24457000D02*
X79554000Y-24457000D01*
X93922665Y-24457000D02*
X85214048Y-24457000D01*
X95254000Y-24457000D02*
X95246000Y-24457000D01*
X98497000Y-24457000D02*
X96577336Y-24457000D01*
X29012688Y-24857000D02*
X23342850Y-24857000D01*
X30562000Y-24857000D02*
X30554000Y-24857000D01*
X37562000Y-24857000D02*
X37554000Y-24857000D01*
X44562000Y-24857000D02*
X44554000Y-24857000D01*
X51562000Y-24857000D02*
X51554000Y-24857000D01*
X58562000Y-24857000D02*
X58554000Y-24857000D01*
X65562000Y-24857000D02*
X65554000Y-24857000D01*
X72562000Y-24857000D02*
X72554000Y-24857000D01*
X79562000Y-24857000D02*
X79554000Y-24857000D01*
X93254362Y-24857000D02*
X85214048Y-24857000D01*
X95254000Y-24857000D02*
X95246000Y-24857000D01*
X98497000Y-24857000D02*
X97245639Y-24857000D01*
X29234871Y-25257000D02*
X23376048Y-25257000D01*
X30562000Y-25257000D02*
X30554000Y-25257000D01*
X32152609Y-25257000D02*
X31881128Y-25257000D01*
X36234871Y-25257000D02*
X35964175Y-25257000D01*
X37562000Y-25257000D02*
X37554000Y-25257000D01*
X39152609Y-25257000D02*
X38881128Y-25257000D01*
X43234871Y-25257000D02*
X42964175Y-25257000D01*
X44562000Y-25257000D02*
X44554000Y-25257000D01*
X46152609Y-25257000D02*
X45881128Y-25257000D01*
X50234871Y-25257000D02*
X49964175Y-25257000D01*
X51562000Y-25257000D02*
X51554000Y-25257000D01*
X53152609Y-25257000D02*
X52881128Y-25257000D01*
X57234871Y-25257000D02*
X56964175Y-25257000D01*
X58562000Y-25257000D02*
X58554000Y-25257000D01*
X60152609Y-25257000D02*
X59881128Y-25257000D01*
X64234871Y-25257000D02*
X63964175Y-25257000D01*
X65562000Y-25257000D02*
X65554000Y-25257000D01*
X67152609Y-25257000D02*
X66881128Y-25257000D01*
X71234871Y-25257000D02*
X70964175Y-25257000D01*
X72562000Y-25257000D02*
X72554000Y-25257000D01*
X74152609Y-25257000D02*
X73881128Y-25257000D01*
X78234871Y-25257000D02*
X77964175Y-25257000D01*
X79562000Y-25257000D02*
X79554000Y-25257000D01*
X80909049Y-25257000D02*
X80881129Y-25257000D01*
X88796369Y-25257000D02*
X85201400Y-25257000D01*
X91082369Y-25257000D02*
X90527399Y-25257000D01*
X92943364Y-25257000D02*
X92813398Y-25257000D01*
X95254000Y-25257000D02*
X95246000Y-25257000D01*
X98497000Y-25257000D02*
X97556637Y-25257000D01*
X29655622Y-25657000D02*
X23376048Y-25657000D01*
X30562000Y-25657000D02*
X30554000Y-25657000D01*
X32417652Y-25657000D02*
X31460377Y-25657000D01*
X36655622Y-25657000D02*
X35698104Y-25657000D01*
X37562000Y-25657000D02*
X37554000Y-25657000D01*
X39417652Y-25657000D02*
X38460377Y-25657000D01*
X43655622Y-25657000D02*
X42698104Y-25657000D01*
X44562000Y-25657000D02*
X44554000Y-25657000D01*
X46417652Y-25657000D02*
X45460377Y-25657000D01*
X50655622Y-25657000D02*
X49698104Y-25657000D01*
X51562000Y-25657000D02*
X51554000Y-25657000D01*
X53417652Y-25657000D02*
X52460377Y-25657000D01*
X57655622Y-25657000D02*
X56698104Y-25657000D01*
X58562000Y-25657000D02*
X58554000Y-25657000D01*
X60417652Y-25657000D02*
X59460377Y-25657000D01*
X64655622Y-25657000D02*
X63698104Y-25657000D01*
X65562000Y-25657000D02*
X65554000Y-25657000D01*
X67417652Y-25657000D02*
X66460377Y-25657000D01*
X71655622Y-25657000D02*
X70698104Y-25657000D01*
X72562000Y-25657000D02*
X72554000Y-25657000D01*
X74417652Y-25657000D02*
X73460377Y-25657000D01*
X78655622Y-25657000D02*
X77698104Y-25657000D01*
X79562000Y-25657000D02*
X79554000Y-25657000D01*
X81007615Y-25657000D02*
X80460377Y-25657000D01*
X88390047Y-25657000D02*
X85101630Y-25657000D01*
X95254000Y-25657000D02*
X95246000Y-25657000D01*
X98497000Y-25657000D02*
X97727035Y-25657000D01*
X32845836Y-26057000D02*
X23376048Y-26057000D01*
X39845836Y-26057000D02*
X35266107Y-26057000D01*
X46845836Y-26057000D02*
X42266107Y-26057000D01*
X53845836Y-26057000D02*
X49266107Y-26057000D01*
X60845836Y-26057000D02*
X56266107Y-26057000D01*
X67845836Y-26057000D02*
X63266107Y-26057000D01*
X74845836Y-26057000D02*
X70266107Y-26057000D01*
X81283958Y-26057000D02*
X77266107Y-26057000D01*
X88183861Y-26057000D02*
X84834250Y-26057000D01*
X95254000Y-26057000D02*
X95246000Y-26057000D01*
X98497000Y-26057000D02*
X97678004Y-26057000D01*
X88112983Y-26457000D02*
X23376048Y-26457000D01*
X98497000Y-26457000D02*
X97783644Y-26457000D01*
X88143672Y-26857000D02*
X23376048Y-26857000D01*
X98497000Y-26857000D02*
X97668287Y-26857000D01*
X88278068Y-27257000D02*
X23369653Y-27257000D01*
X98497000Y-27257000D02*
X97428840Y-27257000D01*
X17355989Y-27657000D02*
X17327000Y-27657000D01*
X35049361Y-27657000D02*
X23283464Y-27657000D01*
X88582930Y-27657000D02*
X85856667Y-27657000D01*
X98497000Y-27657000D02*
X97015164Y-27657000D01*
X17594332Y-28057000D02*
X17327000Y-28057000D01*
X34717990Y-28057000D02*
X23033751Y-28057000D01*
X89231456Y-28057000D02*
X86184085Y-28057000D01*
X98497000Y-28057000D02*
X95370225Y-28057000D01*
X18442257Y-28457000D02*
X17327000Y-28457000D01*
X34562376Y-28457000D02*
X22258540Y-28457000D01*
X89631456Y-28457000D02*
X86342503Y-28457000D01*
X98497000Y-28457000D02*
X95551134Y-28457000D01*
X34517391Y-28857000D02*
X17327000Y-28857000D01*
X89811000Y-28857000D02*
X86383553Y-28857000D01*
X98497000Y-28857000D02*
X95609000Y-28857000D01*
X34570595Y-29257000D02*
X17327000Y-29257000D01*
X89811000Y-29257000D02*
X86328328Y-29257000D01*
X98497000Y-29257000D02*
X95609000Y-29257000D01*
X34757535Y-29657000D02*
X17327000Y-29657000D01*
X89811000Y-29657000D02*
X86148839Y-29657000D01*
X98497000Y-29657000D02*
X95609000Y-29657000D01*
X35118845Y-30057000D02*
X17327000Y-30057000D01*
X89811000Y-30057000D02*
X85793832Y-30057000D01*
X98497000Y-30057000D02*
X95609000Y-30057000D01*
X89811000Y-30457000D02*
X17327000Y-30457000D01*
X98497000Y-30457000D02*
X95734167Y-30457000D01*
X89811000Y-30857000D02*
X17327000Y-30857000D01*
X98497000Y-30857000D02*
X95782000Y-30857000D01*
X89811000Y-31257000D02*
X17327000Y-31257000D01*
X98497000Y-31257000D02*
X95733599Y-31257000D01*
X38158026Y-31657000D02*
X17327000Y-31657000D01*
X45016026Y-31657000D02*
X39058072Y-31657000D01*
X52128026Y-31657000D02*
X45916072Y-31657000D01*
X59240026Y-31657000D02*
X53028072Y-31657000D01*
X66098026Y-31657000D02*
X60140072Y-31657000D01*
X73210026Y-31657000D02*
X66998072Y-31657000D01*
X80068026Y-31657000D02*
X74110072Y-31657000D01*
X87307026Y-31657000D02*
X80968072Y-31657000D01*
X89811000Y-31657000D02*
X88207072Y-31657000D01*
X98497000Y-31657000D02*
X97691252Y-31657000D01*
X19058075Y-32057000D02*
X17327000Y-32057000D01*
X20324000Y-32057000D02*
X20316000Y-32057000D01*
X37505625Y-32057000D02*
X21581926Y-32057000D01*
X44363625Y-32057000D02*
X39710097Y-32057000D01*
X51475625Y-32057000D02*
X46568097Y-32057000D01*
X58587625Y-32057000D02*
X53680097Y-32057000D01*
X65445625Y-32057000D02*
X60792097Y-32057000D01*
X72557625Y-32057000D02*
X67650097Y-32057000D01*
X79415625Y-32057000D02*
X74762097Y-32057000D01*
X86654625Y-32057000D02*
X81620097Y-32057000D01*
X89811000Y-32057000D02*
X88859097Y-32057000D01*
X98497000Y-32057000D02*
X98094474Y-32057000D01*
X18348622Y-32457000D02*
X17327000Y-32457000D01*
X20324000Y-32457000D02*
X20316000Y-32457000D01*
X37217295Y-32457000D02*
X22291379Y-32457000D01*
X44075295Y-32457000D02*
X40000174Y-32457000D01*
X51187295Y-32457000D02*
X46858174Y-32457000D01*
X58299295Y-32457000D02*
X53970174Y-32457000D01*
X65157295Y-32457000D02*
X61082174Y-32457000D01*
X72269295Y-32457000D02*
X67940174Y-32457000D01*
X79127295Y-32457000D02*
X75052174Y-32457000D01*
X86366295Y-32457000D02*
X81910174Y-32457000D01*
X89811000Y-32457000D02*
X89149174Y-32457000D01*
X98497000Y-32457000D02*
X98266657Y-32457000D01*
X18023997Y-32857000D02*
X17327000Y-32857000D01*
X20324000Y-32857000D02*
X20316000Y-32857000D01*
X37084946Y-32857000D02*
X22616004Y-32857000D01*
X43942946Y-32857000D02*
X40130740Y-32857000D01*
X51054946Y-32857000D02*
X46988740Y-32857000D01*
X58166946Y-32857000D02*
X54100740Y-32857000D01*
X65024946Y-32857000D02*
X61212740Y-32857000D01*
X72136946Y-32857000D02*
X68070740Y-32857000D01*
X78994946Y-32857000D02*
X75182740Y-32857000D01*
X86233946Y-32857000D02*
X82040740Y-32857000D01*
X89811000Y-32857000D02*
X89411544Y-32857000D01*
X98497000Y-32857000D02*
X98306048Y-32857000D01*
X17848985Y-33257000D02*
X17327000Y-33257000D01*
X20324000Y-33257000D02*
X20316000Y-33257000D01*
X37056246Y-33257000D02*
X22791016Y-33257000D01*
X43914246Y-33257000D02*
X40154408Y-33257000D01*
X51026246Y-33257000D02*
X47012408Y-33257000D01*
X58138246Y-33257000D02*
X54124408Y-33257000D01*
X64996246Y-33257000D02*
X61236408Y-33257000D01*
X72108246Y-33257000D02*
X68094408Y-33257000D01*
X78966246Y-33257000D02*
X75206408Y-33257000D01*
X86205246Y-33257000D02*
X82064408Y-33257000D01*
X98497000Y-33257000D02*
X98306048Y-33257000D01*
X17880211Y-33657000D02*
X17327000Y-33657000D01*
X20324000Y-33657000D02*
X20316000Y-33657000D01*
X37142784Y-33657000D02*
X22759788Y-33657000D01*
X44000784Y-33657000D02*
X40077692Y-33657000D01*
X51112784Y-33657000D02*
X46935692Y-33657000D01*
X58224784Y-33657000D02*
X54047692Y-33657000D01*
X65082784Y-33657000D02*
X61159692Y-33657000D01*
X72194784Y-33657000D02*
X68017692Y-33657000D01*
X79052784Y-33657000D02*
X75129692Y-33657000D01*
X86291784Y-33657000D02*
X81987692Y-33657000D01*
X98497000Y-33657000D02*
X98306048Y-33657000D01*
X17791833Y-34057000D02*
X17327000Y-34057000D01*
X20324000Y-34057000D02*
X20316000Y-34057000D01*
X37233000Y-34057000D02*
X22848168Y-34057000D01*
X44091000Y-34057000D02*
X39983000Y-34057000D01*
X51203000Y-34057000D02*
X46841000Y-34057000D01*
X58315000Y-34057000D02*
X53953000Y-34057000D01*
X65173000Y-34057000D02*
X61065000Y-34057000D01*
X72285000Y-34057000D02*
X67923000Y-34057000D01*
X79143000Y-34057000D02*
X75035000Y-34057000D01*
X86499380Y-34057000D02*
X81893000Y-34057000D01*
X98497000Y-34057000D02*
X98306048Y-34057000D01*
X17894123Y-34457000D02*
X17327000Y-34457000D01*
X20324000Y-34457000D02*
X20316000Y-34457000D01*
X37233000Y-34457000D02*
X22745876Y-34457000D01*
X44091000Y-34457000D02*
X39983000Y-34457000D01*
X51203000Y-34457000D02*
X46841000Y-34457000D01*
X58315000Y-34457000D02*
X53953000Y-34457000D01*
X65173000Y-34457000D02*
X61065000Y-34457000D01*
X72285000Y-34457000D02*
X67923000Y-34457000D01*
X79143000Y-34457000D02*
X75035000Y-34457000D01*
X86925828Y-34457000D02*
X81893000Y-34457000D01*
X98497000Y-34457000D02*
X98306048Y-34457000D01*
X18124819Y-34857000D02*
X17327000Y-34857000D01*
X20324000Y-34857000D02*
X20316000Y-34857000D01*
X37233000Y-34857000D02*
X22515180Y-34857000D01*
X44091000Y-34857000D02*
X39983000Y-34857000D01*
X51203000Y-34857000D02*
X46841000Y-34857000D01*
X58315000Y-34857000D02*
X53953000Y-34857000D01*
X65173000Y-34857000D02*
X61065000Y-34857000D01*
X72285000Y-34857000D02*
X67923000Y-34857000D01*
X79143000Y-34857000D02*
X75035000Y-34857000D01*
X87522456Y-34857000D02*
X81893000Y-34857000D01*
X98497000Y-34857000D02*
X98302495Y-34857000D01*
X18530574Y-35257000D02*
X17327000Y-35257000D01*
X20324000Y-35257000D02*
X20316000Y-35257000D01*
X37233000Y-35257000D02*
X22109425Y-35257000D01*
X44091000Y-35257000D02*
X39983000Y-35257000D01*
X51203000Y-35257000D02*
X46841000Y-35257000D01*
X58315000Y-35257000D02*
X53953000Y-35257000D01*
X65173000Y-35257000D02*
X61065000Y-35257000D01*
X72285000Y-35257000D02*
X67923000Y-35257000D01*
X79143000Y-35257000D02*
X75035000Y-35257000D01*
X87525000Y-35257000D02*
X81893000Y-35257000D01*
X98497000Y-35257000D02*
X98222479Y-35257000D01*
X37233000Y-35657000D02*
X17327000Y-35657000D01*
X44091000Y-35657000D02*
X39983000Y-35657000D01*
X51203000Y-35657000D02*
X46841000Y-35657000D01*
X58315000Y-35657000D02*
X53953000Y-35657000D01*
X65173000Y-35657000D02*
X61065000Y-35657000D01*
X72285000Y-35657000D02*
X67923000Y-35657000D01*
X78857457Y-35657000D02*
X75035000Y-35657000D01*
X87525000Y-35657000D02*
X83623026Y-35657000D01*
X98497000Y-35657000D02*
X97980797Y-35657000D01*
X37233000Y-36057000D02*
X17327000Y-36057000D01*
X44091000Y-36057000D02*
X39983000Y-36057000D01*
X51203000Y-36057000D02*
X46841000Y-36057000D01*
X58315000Y-36057000D02*
X53953000Y-36057000D01*
X65173000Y-36057000D02*
X61065000Y-36057000D01*
X72285000Y-36057000D02*
X67923000Y-36057000D01*
X78457457Y-36057000D02*
X75035000Y-36057000D01*
X87525000Y-36057000D02*
X84483544Y-36057000D01*
X98497000Y-36057000D02*
X97298057Y-36057000D01*
X37233000Y-36457000D02*
X17327000Y-36457000D01*
X44091000Y-36457000D02*
X39983000Y-36457000D01*
X51203000Y-36457000D02*
X46841000Y-36457000D01*
X58315000Y-36457000D02*
X53953000Y-36457000D01*
X65173000Y-36457000D02*
X61065000Y-36457000D01*
X72285000Y-36457000D02*
X67923000Y-36457000D01*
X78057457Y-36457000D02*
X75035000Y-36457000D01*
X87525000Y-36457000D02*
X84883544Y-36457000D01*
X98497000Y-36457000D02*
X93630544Y-36457000D01*
X37233000Y-36857000D02*
X17327000Y-36857000D01*
X44091000Y-36857000D02*
X39983000Y-36857000D01*
X51203000Y-36857000D02*
X46841000Y-36857000D01*
X58315000Y-36857000D02*
X53953000Y-36857000D01*
X65173000Y-36857000D02*
X61065000Y-36857000D01*
X72285000Y-36857000D02*
X67923000Y-36857000D01*
X77657456Y-36857000D02*
X75035000Y-36857000D01*
X87525000Y-36857000D02*
X85283544Y-36857000D01*
X98497000Y-36857000D02*
X93323000Y-36857000D01*
X37233000Y-37257000D02*
X17327000Y-37257000D01*
X44091000Y-37257000D02*
X39983000Y-37257000D01*
X51203000Y-37257000D02*
X46841000Y-37257000D01*
X58315000Y-37257000D02*
X53953000Y-37257000D01*
X65173000Y-37257000D02*
X61065000Y-37257000D01*
X72285000Y-37257000D02*
X67923000Y-37257000D01*
X77257456Y-37257000D02*
X75035000Y-37257000D01*
X87525000Y-37257000D02*
X85683544Y-37257000D01*
X98497000Y-37257000D02*
X93323000Y-37257000D01*
X27871241Y-37657000D02*
X17327000Y-37657000D01*
X37233000Y-37657000D02*
X35251712Y-37657000D01*
X44091000Y-37657000D02*
X39983000Y-37657000D01*
X51203000Y-37657000D02*
X46841000Y-37657000D01*
X58315000Y-37657000D02*
X53953000Y-37657000D01*
X65173000Y-37657000D02*
X61065000Y-37657000D01*
X72285000Y-37657000D02*
X67923000Y-37657000D01*
X76857456Y-37657000D02*
X75035000Y-37657000D01*
X87525000Y-37657000D02*
X86083544Y-37657000D01*
X98497000Y-37657000D02*
X93323000Y-37657000D01*
X27181456Y-38057000D02*
X17327000Y-38057000D01*
X37233000Y-38057000D02*
X35937544Y-38057000D01*
X44091000Y-38057000D02*
X39983000Y-38057000D01*
X51203000Y-38057000D02*
X46841000Y-38057000D01*
X58315000Y-38057000D02*
X53953000Y-38057000D01*
X65173000Y-38057000D02*
X61065000Y-38057000D01*
X72285000Y-38057000D02*
X67923000Y-38057000D01*
X76457456Y-38057000D02*
X75035000Y-38057000D01*
X87525000Y-38057000D02*
X86483544Y-38057000D01*
X98497000Y-38057000D02*
X93323000Y-38057000D01*
X26049246Y-38457000D02*
X17327000Y-38457000D01*
X37233000Y-38457000D02*
X36337544Y-38457000D01*
X44091000Y-38457000D02*
X39983000Y-38457000D01*
X51203000Y-38457000D02*
X46841000Y-38457000D01*
X58315000Y-38457000D02*
X53953000Y-38457000D01*
X65173000Y-38457000D02*
X61065000Y-38457000D01*
X72285000Y-38457000D02*
X67923000Y-38457000D01*
X76057456Y-38457000D02*
X75574632Y-38457000D01*
X87525000Y-38457000D02*
X86883544Y-38457000D01*
X98497000Y-38457000D02*
X93323000Y-38457000D01*
X25497165Y-38857000D02*
X17327000Y-38857000D01*
X37233000Y-38857000D02*
X36737544Y-38857000D01*
X44091000Y-38857000D02*
X39983000Y-38857000D01*
X51203000Y-38857000D02*
X46841000Y-38857000D01*
X58315000Y-38857000D02*
X53953000Y-38857000D01*
X65045351Y-38857000D02*
X61065000Y-38857000D01*
X72285000Y-38857000D02*
X68051731Y-38857000D01*
X87525000Y-38857000D02*
X87495707Y-38857000D01*
X98497000Y-38857000D02*
X93323000Y-38857000D01*
X25249721Y-39257000D02*
X17327000Y-39257000D01*
X44091000Y-39257000D02*
X39983000Y-39257000D01*
X51203000Y-39257000D02*
X46841000Y-39257000D01*
X58315000Y-39257000D02*
X53953000Y-39257000D01*
X64997587Y-39257000D02*
X61065000Y-39257000D01*
X71955456Y-39257000D02*
X68095749Y-39257000D01*
X98497000Y-39257000D02*
X93323000Y-39257000D01*
X25132279Y-39657000D02*
X17327000Y-39657000D01*
X44091000Y-39657000D02*
X40036445Y-39657000D01*
X51203000Y-39657000D02*
X46841000Y-39657000D01*
X58315000Y-39657000D02*
X53953000Y-39657000D01*
X64023566Y-39657000D02*
X61065000Y-39657000D01*
X98497000Y-39657000D02*
X93323000Y-39657000D01*
X25126895Y-40057000D02*
X17327000Y-40057000D01*
X44091000Y-40057000D02*
X40148164Y-40057000D01*
X51203000Y-40057000D02*
X46841000Y-40057000D01*
X58315000Y-40057000D02*
X53953000Y-40057000D01*
X63551455Y-40057000D02*
X61065000Y-40057000D01*
X98497000Y-40057000D02*
X93323000Y-40057000D01*
X25232103Y-40457000D02*
X17327000Y-40457000D01*
X29804103Y-40457000D02*
X28670544Y-40457000D01*
X44091000Y-40457000D02*
X40152584Y-40457000D01*
X51203000Y-40457000D02*
X46841000Y-40457000D01*
X58315000Y-40457000D02*
X53953000Y-40457000D01*
X63325291Y-40457000D02*
X61065000Y-40457000D01*
X98497000Y-40457000D02*
X93317055Y-40457000D01*
X25460562Y-40857000D02*
X17327000Y-40857000D01*
X30032562Y-40857000D02*
X28270449Y-40857000D01*
X44013148Y-40857000D02*
X40038511Y-40857000D01*
X51203000Y-40857000D02*
X46917938Y-40857000D01*
X58315000Y-40857000D02*
X53953000Y-40857000D01*
X63222072Y-40857000D02*
X61065000Y-40857000D01*
X98497000Y-40857000D02*
X93234965Y-40857000D01*
X25954618Y-41257000D02*
X17327000Y-41257000D01*
X30526618Y-41257000D02*
X27389893Y-41257000D01*
X33724456Y-41257000D02*
X31961893Y-41257000D01*
X58315000Y-41257000D02*
X53953000Y-41257000D01*
X63237356Y-41257000D02*
X61065000Y-41257000D01*
X98497000Y-41257000D02*
X93003512Y-41257000D01*
X34124456Y-41657000D02*
X17327000Y-41657000D01*
X56975369Y-41657000D02*
X54103015Y-41657000D01*
X63354671Y-41657000D02*
X61065000Y-41657000D01*
X98497000Y-41657000D02*
X92621544Y-41657000D01*
X34052037Y-42057000D02*
X17327000Y-42057000D01*
X56458236Y-42057000D02*
X54307432Y-42057000D01*
X63615606Y-42057000D02*
X61065000Y-42057000D01*
X98497000Y-42057000D02*
X92221544Y-42057000D01*
X34009238Y-42457000D02*
X17327000Y-42457000D01*
X98497000Y-42457000D02*
X91821544Y-42457000D01*
X34066673Y-42857000D02*
X17327000Y-42857000D01*
X98497000Y-42857000D02*
X91421544Y-42857000D01*
X34256624Y-43257000D02*
X17327000Y-43257000D01*
X98497000Y-43257000D02*
X91021544Y-43257000D01*
X34626672Y-43657000D02*
X17327000Y-43657000D01*
X98497000Y-43657000D02*
X90621544Y-43657000D01*
X35254456Y-44057000D02*
X17327000Y-44057000D01*
X98497000Y-44057000D02*
X90221544Y-44057000D01*
X35665486Y-44457000D02*
X17327000Y-44457000D01*
X74750268Y-44457000D02*
X69781180Y-44457000D01*
X98497000Y-44457000D02*
X89821544Y-44457000D01*
X39621956Y-44857000D02*
X17327000Y-44857000D01*
X66711033Y-44857000D02*
X66491824Y-44857000D01*
X74985306Y-44857000D02*
X69809195Y-44857000D01*
X98497000Y-44857000D02*
X89421544Y-44857000D01*
X39221956Y-45257000D02*
X17327000Y-45257000D01*
X65033906Y-45257000D02*
X64767003Y-45257000D01*
X66789167Y-45257000D02*
X65793365Y-45257000D01*
X75380848Y-45257000D02*
X69740856Y-45257000D01*
X98497000Y-45257000D02*
X89021544Y-45257000D01*
X38821956Y-45657000D02*
X17327000Y-45657000D01*
X66887500Y-45657000D02*
X64486601Y-45657000D01*
X75717775Y-45657000D02*
X69637500Y-45657000D01*
X98497000Y-45657000D02*
X88621544Y-45657000D01*
X38421956Y-46057000D02*
X17327000Y-46057000D01*
X57737145Y-46057000D02*
X48724544Y-46057000D01*
X62888796Y-46057000D02*
X62761672Y-46057000D01*
X66887500Y-46057000D02*
X63843730Y-46057000D01*
X76116456Y-46057000D02*
X69637500Y-46057000D01*
X98497000Y-46057000D02*
X88221544Y-46057000D01*
X38021956Y-46457000D02*
X17327000Y-46457000D01*
X58043293Y-46457000D02*
X48324544Y-46457000D01*
X66887500Y-46457000D02*
X62708260Y-46457000D01*
X76640112Y-46457000D02*
X69637500Y-46457000D01*
X98497000Y-46457000D02*
X87695342Y-46457000D01*
X19624675Y-46857000D02*
X17327000Y-46857000D01*
X35965081Y-46857000D02*
X22034917Y-46857000D01*
X58804259Y-46857000D02*
X48503651Y-46857000D01*
X59898057Y-46857000D02*
X59435974Y-46857000D01*
X66850794Y-46857000D02*
X62532835Y-46857000D01*
X69863864Y-46857000D02*
X69674870Y-46857000D01*
X72403864Y-46857000D02*
X71617651Y-46857000D01*
X74943864Y-46857000D02*
X74157651Y-46857000D01*
X76859081Y-46857000D02*
X76697652Y-46857000D01*
X93792675Y-46857000D02*
X79881232Y-46857000D01*
X98497000Y-46857000D02*
X96202917Y-46857000D01*
X18868220Y-47257000D02*
X17327000Y-47257000D01*
X35548903Y-47257000D02*
X22785451Y-47257000D01*
X49637982Y-47257000D02*
X49089585Y-47257000D01*
X50306600Y-47257000D02*
X50023401Y-47257000D01*
X60252615Y-47257000D02*
X50692019Y-47257000D01*
X65131982Y-47257000D02*
X62181112Y-47257000D01*
X65800600Y-47257000D02*
X65517401Y-47257000D01*
X66729030Y-47257000D02*
X66186019Y-47257000D01*
X93036220Y-47257000D02*
X80262699Y-47257000D01*
X98497000Y-47257000D02*
X96953451Y-47257000D01*
X18399710Y-47657000D02*
X17327000Y-47657000D01*
X35396043Y-47657000D02*
X23255400Y-47657000D01*
X50169000Y-47657000D02*
X50161000Y-47657000D01*
X64499652Y-47657000D02*
X51324349Y-47657000D01*
X65663000Y-47657000D02*
X65655000Y-47657000D01*
X92567710Y-47657000D02*
X80429992Y-47657000D01*
X98497000Y-47657000D02*
X97423400Y-47657000D01*
X18063598Y-48057000D02*
X17327000Y-48057000D01*
X35358952Y-48057000D02*
X23594021Y-48057000D01*
X50169000Y-48057000D02*
X50161000Y-48057000D01*
X64225333Y-48057000D02*
X51598668Y-48057000D01*
X65663000Y-48057000D02*
X65655000Y-48057000D01*
X92231598Y-48057000D02*
X80465048Y-48057000D01*
X98497000Y-48057000D02*
X97762021Y-48057000D01*
X17806331Y-48457000D02*
X17327000Y-48457000D01*
X35358952Y-48457000D02*
X23853997Y-48457000D01*
X50169000Y-48457000D02*
X50161000Y-48457000D01*
X64086059Y-48457000D02*
X51737942Y-48457000D01*
X65663000Y-48457000D02*
X65655000Y-48457000D01*
X91974331Y-48457000D02*
X80465048Y-48457000D01*
X98497000Y-48457000D02*
X98021997Y-48457000D01*
X17634891Y-48857000D02*
X17327000Y-48857000D01*
X35358952Y-48857000D02*
X24018865Y-48857000D01*
X50169000Y-48857000D02*
X50161000Y-48857000D01*
X64183361Y-48857000D02*
X51640640Y-48857000D01*
X65663000Y-48857000D02*
X65655000Y-48857000D01*
X91802891Y-48857000D02*
X80465048Y-48857000D01*
X98497000Y-48857000D02*
X98186865Y-48857000D01*
X17517901Y-49257000D02*
X17327000Y-49257000D01*
X35358952Y-49257000D02*
X24139516Y-49257000D01*
X50169000Y-49257000D02*
X50161000Y-49257000D01*
X64132980Y-49257000D02*
X51691019Y-49257000D01*
X65663000Y-49257000D02*
X65655000Y-49257000D01*
X91685901Y-49257000D02*
X80465048Y-49257000D01*
X98497000Y-49257000D02*
X98307516Y-49257000D01*
X17432878Y-49657000D02*
X17327000Y-49657000D01*
X35362062Y-49657000D02*
X24218719Y-49657000D01*
X50169000Y-49657000D02*
X50161000Y-49657000D01*
X64324605Y-49657000D02*
X51499394Y-49657000D01*
X65663000Y-49657000D02*
X65655000Y-49657000D01*
X91600878Y-49657000D02*
X80459505Y-49657000D01*
X98497000Y-49657000D02*
X98386719Y-49657000D01*
X17427258Y-50057000D02*
X17327000Y-50057000D01*
X35449131Y-50057000D02*
X24223225Y-50057000D01*
X50169000Y-50057000D02*
X50161000Y-50057000D01*
X64700967Y-50057000D02*
X51123032Y-50057000D01*
X65663000Y-50057000D02*
X65655000Y-50057000D01*
X91595258Y-50057000D02*
X80375168Y-50057000D01*
X98497000Y-50057000D02*
X98391225Y-50057000D01*
X17447962Y-50457000D02*
X17327000Y-50457000D01*
X35682293Y-50457000D02*
X24217639Y-50457000D01*
X41295580Y-50457000D02*
X41252351Y-50457000D01*
X43835580Y-50457000D02*
X43792351Y-50457000D01*
X46375580Y-50457000D02*
X46332351Y-50457000D01*
X66949580Y-50457000D02*
X48872350Y-50457000D01*
X69489580Y-50457000D02*
X69446351Y-50457000D01*
X72029580Y-50457000D02*
X71986351Y-50457000D01*
X74569580Y-50457000D02*
X74526351Y-50457000D01*
X91615962Y-50457000D02*
X80127865Y-50457000D01*
X98497000Y-50457000D02*
X98385639Y-50457000D01*
X17521376Y-50857000D02*
X17327000Y-50857000D01*
X36495036Y-50857000D02*
X24128722Y-50857000D01*
X39789491Y-50857000D02*
X38517849Y-50857000D01*
X42329491Y-50857000D02*
X40222296Y-50857000D01*
X44869491Y-50857000D02*
X42762296Y-50857000D01*
X47409491Y-50857000D02*
X45302296Y-50857000D01*
X67983491Y-50857000D02*
X47842296Y-50857000D01*
X70523491Y-50857000D02*
X68416296Y-50857000D01*
X73063491Y-50857000D02*
X70956296Y-50857000D01*
X75603491Y-50857000D02*
X73496296Y-50857000D01*
X77389036Y-50857000D02*
X76036296Y-50857000D01*
X91689376Y-50857000D02*
X79411849Y-50857000D01*
X98497000Y-50857000D02*
X98296722Y-50857000D01*
X17653687Y-51257000D02*
X17327000Y-51257000D01*
X91821687Y-51257000D02*
X24007188Y-51257000D01*
X98497000Y-51257000D02*
X98175188Y-51257000D01*
X17826310Y-51657000D02*
X17327000Y-51657000D01*
X91994310Y-51657000D02*
X23829097Y-51657000D01*
X98497000Y-51657000D02*
X97997097Y-51657000D01*
X18084093Y-52057000D02*
X17327000Y-52057000D01*
X92252093Y-52057000D02*
X23564759Y-52057000D01*
X98497000Y-52057000D02*
X97732759Y-52057000D01*
X18437242Y-52457000D02*
X17327000Y-52457000D01*
X92605242Y-52457000D02*
X23218265Y-52457000D01*
X98497000Y-52457000D02*
X97386265Y-52457000D01*
X18926299Y-52857000D02*
X17327000Y-52857000D01*
X93094299Y-52857000D02*
X22731572Y-52857000D01*
X98497000Y-52857000D02*
X96899572Y-52857000D01*
X19703046Y-53257000D02*
X17327000Y-53257000D01*
X93871046Y-53257000D02*
X21931341Y-53257000D01*
X98497000Y-53257000D02*
X96099341Y-53257000D01*
X94072210Y-16447191D02*
X93756442Y-16908359D01*
X93536262Y-17422076D01*
X93420057Y-17968776D01*
X93412254Y-18527636D01*
X93513148Y-19077368D01*
X93718898Y-19597032D01*
X94021667Y-20066837D01*
X94409921Y-20468886D01*
X94868872Y-20787866D01*
X95381040Y-21011626D01*
X95926916Y-21131645D01*
X96485707Y-21143350D01*
X97036130Y-21046295D01*
X97557219Y-20844178D01*
X98029125Y-20544697D01*
X98433875Y-20159259D01*
X98497000Y-20069774D01*
X98497000Y-53539000D01*
X17327000Y-53539000D01*
X17327000Y-50323881D01*
X17423531Y-50323881D01*
X17543897Y-50979702D01*
X17789353Y-51599653D01*
X18150550Y-52160121D01*
X18613730Y-52639758D01*
X19161251Y-53020296D01*
X19772259Y-53287238D01*
X20423479Y-53430418D01*
X21090107Y-53444382D01*
X21746751Y-53328598D01*
X22368401Y-53087476D01*
X22931377Y-52730200D01*
X23414237Y-52270379D01*
X23798587Y-51725528D01*
X24069788Y-51116399D01*
X24217511Y-50466195D01*
X24228146Y-49704613D01*
X24098635Y-49050537D01*
X23844547Y-48434073D01*
X23475560Y-47878703D01*
X23005728Y-47405579D01*
X22452947Y-47032724D01*
X21838272Y-46774338D01*
X21185116Y-46640265D01*
X20518358Y-46635610D01*
X19863394Y-46760551D01*
X19245172Y-47010329D01*
X18687239Y-47375430D01*
X18210847Y-47841948D01*
X17834141Y-48392112D01*
X17571471Y-49004968D01*
X17432841Y-49657172D01*
X17423531Y-50323881D01*
X17327000Y-50323881D01*
X17327000Y-40008328D01*
X25117962Y-40008328D01*
X25172835Y-40307305D01*
X25284734Y-40589930D01*
X25449397Y-40845438D01*
X25660553Y-41064096D01*
X25910159Y-41237576D01*
X26188706Y-41359271D01*
X26485586Y-41424544D01*
X26789490Y-41430910D01*
X27088843Y-41378126D01*
X27372242Y-41268202D01*
X27412862Y-41242424D01*
X27431378Y-41240608D01*
X27557933Y-41229536D01*
X27564878Y-41227518D01*
X27572072Y-41226813D01*
X27693658Y-41190104D01*
X27815631Y-41154668D01*
X27822049Y-41151341D01*
X27828972Y-41149251D01*
X27941144Y-41089608D01*
X28053878Y-41031172D01*
X28059527Y-41026663D01*
X28065913Y-41023267D01*
X28164364Y-40942973D01*
X28263602Y-40863752D01*
X28273665Y-40853829D01*
X28273872Y-40853660D01*
X28274030Y-40853469D01*
X28277272Y-40850272D01*
X28763544Y-40364000D01*
X29767282Y-40364000D01*
X29856734Y-40589930D01*
X30021397Y-40845438D01*
X30232553Y-41064096D01*
X30482159Y-41237576D01*
X30760706Y-41359271D01*
X31057586Y-41424544D01*
X31361490Y-41430910D01*
X31660843Y-41378126D01*
X31944242Y-41268202D01*
X31968197Y-41253000D01*
X33720456Y-41253000D01*
X34177143Y-41709687D01*
X34075406Y-41947059D01*
X34012206Y-42244387D01*
X34007962Y-42548328D01*
X34062835Y-42847305D01*
X34174734Y-43129930D01*
X34339397Y-43385438D01*
X34550553Y-43604096D01*
X34800159Y-43777576D01*
X35078706Y-43899271D01*
X35101806Y-43904350D01*
X35603728Y-44406272D01*
X35701850Y-44486869D01*
X35799170Y-44568531D01*
X35805511Y-44572017D01*
X35811094Y-44576603D01*
X35922992Y-44636603D01*
X36034330Y-44697811D01*
X36041222Y-44699997D01*
X36047594Y-44703414D01*
X36169057Y-44740549D01*
X36290121Y-44778953D01*
X36297306Y-44779759D01*
X36304221Y-44781873D01*
X36430602Y-44794710D01*
X36556802Y-44808866D01*
X36570930Y-44808965D01*
X36571200Y-44808992D01*
X36571451Y-44808968D01*
X36576000Y-44809000D01*
X39669956Y-44809000D01*
X37817004Y-46661952D01*
X36615000Y-46661952D01*
X36415942Y-46677826D01*
X36078319Y-46782381D01*
X35783190Y-46976857D01*
X35553926Y-47245855D01*
X35408680Y-47568073D01*
X35358952Y-47918000D01*
X35358952Y-49618000D01*
X35374826Y-49817058D01*
X35479381Y-50154681D01*
X35673857Y-50449810D01*
X35942855Y-50679074D01*
X36265073Y-50824320D01*
X36615000Y-50874048D01*
X38315000Y-50874048D01*
X38514058Y-50858174D01*
X38851681Y-50753619D01*
X39037678Y-50631056D01*
X39191217Y-50714074D01*
X39582736Y-50835269D01*
X39990339Y-50878110D01*
X40398501Y-50840964D01*
X40791674Y-50725247D01*
X41154883Y-50535366D01*
X41274274Y-50439374D01*
X41370695Y-50519140D01*
X41731217Y-50714074D01*
X42122736Y-50835269D01*
X42530339Y-50878110D01*
X42938501Y-50840964D01*
X43331674Y-50725247D01*
X43694883Y-50535366D01*
X43814274Y-50439374D01*
X43910695Y-50519140D01*
X44271217Y-50714074D01*
X44662736Y-50835269D01*
X45070339Y-50878110D01*
X45478501Y-50840964D01*
X45871674Y-50725247D01*
X46234883Y-50535366D01*
X46354274Y-50439374D01*
X46450695Y-50519140D01*
X46811217Y-50714074D01*
X47202736Y-50835269D01*
X47610339Y-50878110D01*
X48018501Y-50840964D01*
X48411674Y-50725247D01*
X48774883Y-50535366D01*
X49094293Y-50278554D01*
X49253412Y-50088923D01*
X49495431Y-50229965D01*
X49793512Y-50332500D01*
X49909503Y-50355572D01*
X50161000Y-50186494D01*
X50161000Y-48772000D01*
X50169000Y-48772000D01*
X50169000Y-50186494D01*
X50420497Y-50355572D01*
X50536488Y-50332500D01*
X50834569Y-50229965D01*
X51106919Y-50071247D01*
X51343071Y-49862446D01*
X51533950Y-49611586D01*
X51672222Y-49328308D01*
X51752572Y-49023497D01*
X64071428Y-49023497D01*
X64151778Y-49328308D01*
X64290050Y-49611586D01*
X64480929Y-49862446D01*
X64717081Y-50071247D01*
X64989431Y-50229965D01*
X65287512Y-50332500D01*
X65403503Y-50355572D01*
X65655000Y-50186494D01*
X65655000Y-48772000D01*
X64240505Y-48772000D01*
X64071428Y-49023497D01*
X51752572Y-49023497D01*
X51583495Y-48772000D01*
X50169000Y-48772000D01*
X50161000Y-48772000D01*
X50141000Y-48772000D01*
X50141000Y-48764000D01*
X50161000Y-48764000D01*
X50161000Y-47349506D01*
X50169000Y-47349506D01*
X50169000Y-48764000D01*
X51583495Y-48764000D01*
X51752572Y-48512503D01*
X64071428Y-48512503D01*
X64240505Y-48764000D01*
X65655000Y-48764000D01*
X65655000Y-47349506D01*
X65403503Y-47180428D01*
X65287512Y-47203500D01*
X64989431Y-47306035D01*
X64717081Y-47464753D01*
X64480929Y-47673554D01*
X64290050Y-47924414D01*
X64151778Y-48207692D01*
X64071428Y-48512503D01*
X51752572Y-48512503D01*
X51672222Y-48207692D01*
X51533950Y-47924414D01*
X51343071Y-47673554D01*
X51106919Y-47464753D01*
X50834569Y-47306035D01*
X50536488Y-47203500D01*
X50420497Y-47180428D01*
X50169000Y-47349506D01*
X50161000Y-47349506D01*
X49909503Y-47180428D01*
X49793512Y-47203500D01*
X49495431Y-47306035D01*
X49253070Y-47447276D01*
X49115099Y-47278107D01*
X48799305Y-47016860D01*
X48438783Y-46821926D01*
X48072883Y-46708661D01*
X48829544Y-45952000D01*
X57694065Y-45952000D01*
X57733234Y-46050930D01*
X57897897Y-46306438D01*
X58109053Y-46525096D01*
X58358659Y-46698576D01*
X58637206Y-46820271D01*
X58934086Y-46885544D01*
X59237990Y-46891910D01*
X59537343Y-46839126D01*
X59820727Y-46729208D01*
X59828734Y-46749430D01*
X59993397Y-47004938D01*
X60204553Y-47223596D01*
X60454159Y-47397076D01*
X60732706Y-47518771D01*
X61029586Y-47584044D01*
X61333490Y-47590410D01*
X61632843Y-47537626D01*
X61916242Y-47427702D01*
X62172893Y-47264827D01*
X62393020Y-47055203D01*
X62568238Y-46806814D01*
X62691874Y-46529123D01*
X62759219Y-46232707D01*
X62762443Y-46001797D01*
X62891706Y-46058271D01*
X63188586Y-46123544D01*
X63492490Y-46129910D01*
X63791843Y-46077126D01*
X64075242Y-45967202D01*
X64331893Y-45804327D01*
X64552020Y-45594703D01*
X64727238Y-45346314D01*
X64801552Y-45179403D01*
X64923706Y-45232771D01*
X65220586Y-45298044D01*
X65524490Y-45304410D01*
X65823843Y-45251626D01*
X66107242Y-45141702D01*
X66363893Y-44978827D01*
X66584020Y-44769203D01*
X66717731Y-44579654D01*
X66714706Y-44593887D01*
X66710462Y-44897828D01*
X66765335Y-45196805D01*
X66877234Y-45479430D01*
X66887500Y-45495360D01*
X66887500Y-46771356D01*
X66777906Y-47027059D01*
X66728673Y-47258678D01*
X66570588Y-47447077D01*
X66328569Y-47306035D01*
X66030488Y-47203500D01*
X65914497Y-47180428D01*
X65663000Y-47349506D01*
X65663000Y-48764000D01*
X65683000Y-48764000D01*
X65683000Y-48772000D01*
X65663000Y-48772000D01*
X65663000Y-50186494D01*
X65914497Y-50355572D01*
X66030488Y-50332500D01*
X66328569Y-50229965D01*
X66570930Y-50088724D01*
X66708901Y-50257893D01*
X67024695Y-50519140D01*
X67385217Y-50714074D01*
X67776736Y-50835269D01*
X68184339Y-50878110D01*
X68592501Y-50840964D01*
X68985674Y-50725247D01*
X69348883Y-50535366D01*
X69468274Y-50439374D01*
X69564695Y-50519140D01*
X69925217Y-50714074D01*
X70316736Y-50835269D01*
X70724339Y-50878110D01*
X71132501Y-50840964D01*
X71525674Y-50725247D01*
X71888883Y-50535366D01*
X72008274Y-50439374D01*
X72104695Y-50519140D01*
X72465217Y-50714074D01*
X72856736Y-50835269D01*
X73264339Y-50878110D01*
X73672501Y-50840964D01*
X74065674Y-50725247D01*
X74428883Y-50535366D01*
X74548274Y-50439374D01*
X74644695Y-50519140D01*
X75005217Y-50714074D01*
X75396736Y-50835269D01*
X75804339Y-50878110D01*
X76212501Y-50840964D01*
X76605674Y-50725247D01*
X76782541Y-50632783D01*
X76836855Y-50679074D01*
X77159073Y-50824320D01*
X77509000Y-50874048D01*
X79209000Y-50874048D01*
X79408058Y-50858174D01*
X79745681Y-50753619D01*
X80040810Y-50559143D01*
X80241321Y-50323881D01*
X91591531Y-50323881D01*
X91711897Y-50979702D01*
X91957353Y-51599653D01*
X92318550Y-52160121D01*
X92781730Y-52639758D01*
X93329251Y-53020296D01*
X93940259Y-53287238D01*
X94591479Y-53430418D01*
X95258107Y-53444382D01*
X95914751Y-53328598D01*
X96536401Y-53087476D01*
X97099377Y-52730200D01*
X97582237Y-52270379D01*
X97966587Y-51725528D01*
X98237788Y-51116399D01*
X98385511Y-50466195D01*
X98396146Y-49704613D01*
X98266635Y-49050537D01*
X98012547Y-48434073D01*
X97643560Y-47878703D01*
X97173728Y-47405579D01*
X96620947Y-47032724D01*
X96006272Y-46774338D01*
X95353116Y-46640265D01*
X94686358Y-46635610D01*
X94031394Y-46760551D01*
X93413172Y-47010329D01*
X92855239Y-47375430D01*
X92378847Y-47841948D01*
X92002141Y-48392112D01*
X91739471Y-49004968D01*
X91600841Y-49657172D01*
X91591531Y-50323881D01*
X80241321Y-50323881D01*
X80270074Y-50290145D01*
X80415320Y-49967927D01*
X80465048Y-49618000D01*
X80465048Y-47918000D01*
X80449174Y-47718942D01*
X80344619Y-47381319D01*
X80150143Y-47086190D01*
X79881145Y-46856926D01*
X79558927Y-46711680D01*
X79209000Y-46661952D01*
X77509000Y-46661952D01*
X77309942Y-46677826D01*
X76972319Y-46782381D01*
X76786322Y-46904944D01*
X76632783Y-46821926D01*
X76241264Y-46700731D01*
X75833661Y-46657890D01*
X75425499Y-46695036D01*
X75032326Y-46810753D01*
X74669117Y-47000634D01*
X74549726Y-47096626D01*
X74453305Y-47016860D01*
X74092783Y-46821926D01*
X73701264Y-46700731D01*
X73293661Y-46657890D01*
X72885499Y-46695036D01*
X72492326Y-46810753D01*
X72129117Y-47000634D01*
X72009726Y-47096626D01*
X71913305Y-47016860D01*
X71552783Y-46821926D01*
X71161264Y-46700731D01*
X70753661Y-46657890D01*
X70345499Y-46695036D01*
X69952326Y-46810753D01*
X69708374Y-46938288D01*
X69637691Y-46766798D01*
X69637500Y-46766511D01*
X69637500Y-45490182D01*
X69740374Y-45259123D01*
X69807719Y-44962707D01*
X69812567Y-44615515D01*
X69753525Y-44317333D01*
X69720620Y-44237500D01*
X74663362Y-44237500D01*
X74786502Y-44548516D01*
X75014906Y-44902930D01*
X75307800Y-45206230D01*
X75493997Y-45335640D01*
X75496392Y-45340144D01*
X75554828Y-45452878D01*
X75559337Y-45458527D01*
X75562733Y-45464913D01*
X75643027Y-45563364D01*
X75722248Y-45662602D01*
X75732171Y-45672665D01*
X75732340Y-45672872D01*
X75732531Y-45673030D01*
X75735728Y-45676272D01*
X76243728Y-46184271D01*
X76341842Y-46264863D01*
X76439170Y-46346531D01*
X76445508Y-46350015D01*
X76451093Y-46354603D01*
X76563013Y-46414614D01*
X76674330Y-46475811D01*
X76681222Y-46477997D01*
X76687594Y-46481414D01*
X76809028Y-46518540D01*
X76930121Y-46556953D01*
X76937310Y-46557759D01*
X76944220Y-46559872D01*
X77070513Y-46572700D01*
X77196802Y-46586866D01*
X77210941Y-46586965D01*
X77211200Y-46586991D01*
X77211441Y-46586968D01*
X77216000Y-46587000D01*
X87122000Y-46587000D01*
X87248378Y-46574608D01*
X87374933Y-46563536D01*
X87381878Y-46561518D01*
X87389072Y-46560813D01*
X87510658Y-46524104D01*
X87632631Y-46488668D01*
X87639049Y-46485341D01*
X87645972Y-46483251D01*
X87758144Y-46423608D01*
X87870878Y-46365172D01*
X87876527Y-46360663D01*
X87882913Y-46357267D01*
X87981364Y-46276973D01*
X88080602Y-46197752D01*
X88090665Y-46187829D01*
X88090872Y-46187660D01*
X88091030Y-46187469D01*
X88094272Y-46184272D01*
X92920272Y-41358272D01*
X93000869Y-41260150D01*
X93082531Y-41162830D01*
X93086017Y-41156489D01*
X93090603Y-41150906D01*
X93150622Y-41038973D01*
X93211811Y-40927670D01*
X93213996Y-40920783D01*
X93217415Y-40914406D01*
X93254564Y-40792897D01*
X93292953Y-40671879D01*
X93293759Y-40664694D01*
X93295873Y-40657779D01*
X93308710Y-40531398D01*
X93322866Y-40405198D01*
X93322965Y-40391070D01*
X93322992Y-40390800D01*
X93322968Y-40390549D01*
X93323000Y-40386000D01*
X93323000Y-36764544D01*
X93999496Y-36088048D01*
X97050000Y-36088048D01*
X97249058Y-36072174D01*
X97586681Y-35967619D01*
X97881810Y-35773143D01*
X98111074Y-35504145D01*
X98256320Y-35181927D01*
X98306048Y-34832000D01*
X98306048Y-32732000D01*
X98290174Y-32532942D01*
X98185619Y-32195319D01*
X97991143Y-31900190D01*
X97722145Y-31670926D01*
X97399927Y-31525680D01*
X97050000Y-31475952D01*
X95656964Y-31475952D01*
X95711874Y-31352623D01*
X95779219Y-31056207D01*
X95784067Y-30709015D01*
X95725025Y-30410833D01*
X95609191Y-30129798D01*
X95609000Y-30129511D01*
X95609000Y-28829000D01*
X95596604Y-28702577D01*
X95585536Y-28576067D01*
X95583518Y-28569122D01*
X95582813Y-28561928D01*
X95546104Y-28440342D01*
X95510668Y-28318369D01*
X95507341Y-28311951D01*
X95505251Y-28305028D01*
X95445619Y-28192877D01*
X95387172Y-28080121D01*
X95382661Y-28074470D01*
X95379267Y-28068087D01*
X95299269Y-27970000D01*
X96004000Y-27970000D01*
X96356646Y-27934479D01*
X96695587Y-27830843D01*
X97007797Y-27663074D01*
X97281277Y-27437620D01*
X97505519Y-27163145D01*
X97671905Y-26850196D01*
X97774040Y-26510800D01*
X97785111Y-26448784D01*
X97618495Y-26166000D01*
X95254000Y-26166000D01*
X95254000Y-26186000D01*
X95246000Y-26186000D01*
X95246000Y-26166000D01*
X95226000Y-26166000D01*
X95226000Y-26158000D01*
X95246000Y-26158000D01*
X95246000Y-24354000D01*
X95254000Y-24354000D01*
X95254000Y-26158000D01*
X97618495Y-26158000D01*
X97785111Y-25875216D01*
X97774040Y-25813200D01*
X97671905Y-25473804D01*
X97505519Y-25160855D01*
X97281277Y-24886380D01*
X97007797Y-24660926D01*
X96695587Y-24493157D01*
X96356646Y-24389521D01*
X96004000Y-24354000D01*
X95254000Y-24354000D01*
X95246000Y-24354000D01*
X94496000Y-24354000D01*
X94143354Y-24389521D01*
X93804413Y-24493157D01*
X93492203Y-24660926D01*
X93218723Y-24886380D01*
X92994481Y-25160855D01*
X92909058Y-25321524D01*
X92688785Y-25172947D01*
X92408565Y-25055154D01*
X92110803Y-24994032D01*
X91806840Y-24991910D01*
X91508253Y-25048868D01*
X91226416Y-25162738D01*
X90972065Y-25329181D01*
X90804292Y-25493477D01*
X90654788Y-25342926D01*
X90402785Y-25172947D01*
X90122565Y-25055154D01*
X89824803Y-24994032D01*
X89520840Y-24991910D01*
X89222253Y-25048868D01*
X88940416Y-25162738D01*
X88686065Y-25329181D01*
X88468886Y-25541858D01*
X88297152Y-25792669D01*
X88177406Y-26072059D01*
X88114206Y-26369387D01*
X88109962Y-26673328D01*
X88164835Y-26972305D01*
X88276734Y-27254930D01*
X88441397Y-27510438D01*
X88652553Y-27729096D01*
X88902159Y-27902576D01*
X89180706Y-28024271D01*
X89203806Y-28029350D01*
X89811000Y-28636543D01*
X89811000Y-33256456D01*
X89245675Y-32691131D01*
X89132191Y-32415798D01*
X88963976Y-32162614D01*
X88749788Y-31946926D01*
X88497785Y-31776947D01*
X88217565Y-31659154D01*
X87919803Y-31598032D01*
X87615840Y-31595910D01*
X87317253Y-31652868D01*
X87035416Y-31766738D01*
X86781065Y-31933181D01*
X86563886Y-32145858D01*
X86392152Y-32396669D01*
X86272406Y-32676059D01*
X86209206Y-32973387D01*
X86204962Y-33277328D01*
X86259835Y-33576305D01*
X86371734Y-33858930D01*
X86536397Y-34114438D01*
X86747553Y-34333096D01*
X86997159Y-34506576D01*
X87275706Y-34628271D01*
X87298806Y-34633350D01*
X87525000Y-34859544D01*
X87525000Y-38876759D01*
X87354785Y-38761947D01*
X87074565Y-38644154D01*
X87069698Y-38643155D01*
X84474772Y-36048228D01*
X84376650Y-35967631D01*
X84279330Y-35885969D01*
X84272989Y-35882483D01*
X84267406Y-35877897D01*
X84155508Y-35817897D01*
X84044170Y-35756689D01*
X84037278Y-35754503D01*
X84030906Y-35751086D01*
X83909443Y-35713951D01*
X83788379Y-35675547D01*
X83781194Y-35674741D01*
X83774279Y-35672627D01*
X83647898Y-35659790D01*
X83521698Y-35645634D01*
X83507570Y-35645535D01*
X83507300Y-35645508D01*
X83507049Y-35645532D01*
X83502500Y-35645500D01*
X81893000Y-35645500D01*
X81893000Y-33869682D01*
X81995874Y-33638623D01*
X82063219Y-33342207D01*
X82068067Y-32995015D01*
X82009025Y-32696833D01*
X81893191Y-32415798D01*
X81724976Y-32162614D01*
X81510788Y-31946926D01*
X81258785Y-31776947D01*
X80978565Y-31659154D01*
X80680803Y-31598032D01*
X80376840Y-31595910D01*
X80078253Y-31652868D01*
X79796416Y-31766738D01*
X79542065Y-31933181D01*
X79324886Y-32145858D01*
X79153152Y-32396669D01*
X79033406Y-32676059D01*
X78970206Y-32973387D01*
X78965962Y-33277328D01*
X79020835Y-33576305D01*
X79132734Y-33858930D01*
X79143000Y-33874860D01*
X79143000Y-35371457D01*
X78466228Y-36048228D01*
X78466223Y-36048234D01*
X77958228Y-36556228D01*
X75803425Y-38711031D01*
X75755976Y-38639614D01*
X75541788Y-38423926D01*
X75289785Y-38253947D01*
X75035000Y-38146846D01*
X75035000Y-33869682D01*
X75137874Y-33638623D01*
X75205219Y-33342207D01*
X75210067Y-32995015D01*
X75151025Y-32696833D01*
X75035191Y-32415798D01*
X74866976Y-32162614D01*
X74652788Y-31946926D01*
X74400785Y-31776947D01*
X74120565Y-31659154D01*
X73822803Y-31598032D01*
X73518840Y-31595910D01*
X73220253Y-31652868D01*
X72938416Y-31766738D01*
X72684065Y-31933181D01*
X72466886Y-32145858D01*
X72295152Y-32396669D01*
X72175406Y-32676059D01*
X72112206Y-32973387D01*
X72107962Y-33277328D01*
X72162835Y-33576305D01*
X72274734Y-33858930D01*
X72285000Y-33874860D01*
X72285000Y-38927456D01*
X71820456Y-39392000D01*
X68093864Y-39392000D01*
X68098067Y-39091015D01*
X68039025Y-38792833D01*
X67923191Y-38511798D01*
X67923000Y-38511511D01*
X67923000Y-33869682D01*
X68025874Y-33638623D01*
X68093219Y-33342207D01*
X68098067Y-32995015D01*
X68039025Y-32696833D01*
X67923191Y-32415798D01*
X67754976Y-32162614D01*
X67540788Y-31946926D01*
X67288785Y-31776947D01*
X67008565Y-31659154D01*
X66710803Y-31598032D01*
X66406840Y-31595910D01*
X66108253Y-31652868D01*
X65826416Y-31766738D01*
X65572065Y-31933181D01*
X65354886Y-32145858D01*
X65183152Y-32396669D01*
X65063406Y-32676059D01*
X65000206Y-32973387D01*
X64995962Y-33277328D01*
X65050835Y-33576305D01*
X65162734Y-33858930D01*
X65173000Y-33874860D01*
X65173000Y-38516356D01*
X65063406Y-38772059D01*
X65000206Y-39069387D01*
X64995962Y-39373328D01*
X64999824Y-39394371D01*
X64897577Y-39404396D01*
X64771067Y-39415464D01*
X64764122Y-39417482D01*
X64756928Y-39418187D01*
X64635342Y-39454896D01*
X64513369Y-39490332D01*
X64508469Y-39492872D01*
X64330253Y-39526868D01*
X64048416Y-39640738D01*
X63794065Y-39807181D01*
X63576886Y-40019858D01*
X63405152Y-40270669D01*
X63285406Y-40550059D01*
X63222206Y-40847387D01*
X63217962Y-41151328D01*
X63272835Y-41450305D01*
X63384734Y-41732930D01*
X63549397Y-41988438D01*
X63760553Y-42207096D01*
X63912929Y-42313000D01*
X61065000Y-42313000D01*
X61065000Y-33869682D01*
X61167874Y-33638623D01*
X61235219Y-33342207D01*
X61240067Y-32995015D01*
X61181025Y-32696833D01*
X61065191Y-32415798D01*
X60896976Y-32162614D01*
X60682788Y-31946926D01*
X60430785Y-31776947D01*
X60150565Y-31659154D01*
X59852803Y-31598032D01*
X59548840Y-31595910D01*
X59250253Y-31652868D01*
X58968416Y-31766738D01*
X58714065Y-31933181D01*
X58496886Y-32145858D01*
X58325152Y-32396669D01*
X58205406Y-32676059D01*
X58142206Y-32973387D01*
X58137962Y-33277328D01*
X58192835Y-33576305D01*
X58304734Y-33858930D01*
X58315000Y-33874860D01*
X58315000Y-41424000D01*
X57912000Y-41424000D01*
X57785577Y-41436396D01*
X57659067Y-41447464D01*
X57652122Y-41449482D01*
X57644928Y-41450187D01*
X57523342Y-41486896D01*
X57401369Y-41522332D01*
X57396469Y-41524872D01*
X57218253Y-41558868D01*
X56936416Y-41672738D01*
X56682065Y-41839181D01*
X56465809Y-42050954D01*
X56455730Y-42059000D01*
X54308256Y-42059000D01*
X54207191Y-41813798D01*
X54038976Y-41560614D01*
X53953000Y-41474036D01*
X53953000Y-33869682D01*
X54055874Y-33638623D01*
X54123219Y-33342207D01*
X54128067Y-32995015D01*
X54069025Y-32696833D01*
X53953191Y-32415798D01*
X53784976Y-32162614D01*
X53570788Y-31946926D01*
X53318785Y-31776947D01*
X53038565Y-31659154D01*
X52740803Y-31598032D01*
X52436840Y-31595910D01*
X52138253Y-31652868D01*
X51856416Y-31766738D01*
X51602065Y-31933181D01*
X51384886Y-32145858D01*
X51213152Y-32396669D01*
X51093406Y-32676059D01*
X51030206Y-32973387D01*
X51025962Y-33277328D01*
X51080835Y-33576305D01*
X51192734Y-33858930D01*
X51203000Y-33874860D01*
X51203000Y-41170000D01*
X47000224Y-41170000D01*
X46957025Y-40951833D01*
X46841191Y-40670798D01*
X46841000Y-40670511D01*
X46841000Y-33869682D01*
X46943874Y-33638623D01*
X47011219Y-33342207D01*
X47016067Y-32995015D01*
X46957025Y-32696833D01*
X46841191Y-32415798D01*
X46672976Y-32162614D01*
X46458788Y-31946926D01*
X46206785Y-31776947D01*
X45926565Y-31659154D01*
X45628803Y-31598032D01*
X45324840Y-31595910D01*
X45026253Y-31652868D01*
X44744416Y-31766738D01*
X44490065Y-31933181D01*
X44272886Y-32145858D01*
X44101152Y-32396669D01*
X43981406Y-32676059D01*
X43918206Y-32973387D01*
X43913962Y-33277328D01*
X43968835Y-33576305D01*
X44080734Y-33858930D01*
X44091000Y-33874860D01*
X44091000Y-40675356D01*
X43981406Y-40931059D01*
X43930617Y-41170000D01*
X39862290Y-41170000D01*
X39962238Y-41028314D01*
X40085874Y-40750623D01*
X40153219Y-40454207D01*
X40158067Y-40107015D01*
X40099025Y-39808833D01*
X39983191Y-39527798D01*
X39983000Y-39527511D01*
X39983000Y-33869682D01*
X40085874Y-33638623D01*
X40153219Y-33342207D01*
X40158067Y-32995015D01*
X40099025Y-32696833D01*
X39983191Y-32415798D01*
X39814976Y-32162614D01*
X39600788Y-31946926D01*
X39348785Y-31776947D01*
X39068565Y-31659154D01*
X38770803Y-31598032D01*
X38466840Y-31595910D01*
X38168253Y-31652868D01*
X37886416Y-31766738D01*
X37632065Y-31933181D01*
X37414886Y-32145858D01*
X37243152Y-32396669D01*
X37123406Y-32676059D01*
X37060206Y-32973387D01*
X37055962Y-33277328D01*
X37110835Y-33576305D01*
X37222734Y-33858930D01*
X37233000Y-33874860D01*
X37233000Y-38884000D01*
X36764544Y-38884000D01*
X35897272Y-38016728D01*
X35799150Y-37936131D01*
X35701830Y-37854469D01*
X35695489Y-37850983D01*
X35689906Y-37846397D01*
X35578008Y-37786397D01*
X35466670Y-37725189D01*
X35459778Y-37723003D01*
X35453406Y-37719586D01*
X35331943Y-37682451D01*
X35210879Y-37644047D01*
X35203694Y-37643241D01*
X35196779Y-37641127D01*
X35070398Y-37628290D01*
X34944198Y-37614134D01*
X34930070Y-37614035D01*
X34929800Y-37614008D01*
X34929549Y-37614032D01*
X34925000Y-37614000D01*
X28194000Y-37614000D01*
X28067622Y-37626392D01*
X27941067Y-37637464D01*
X27934122Y-37639482D01*
X27926928Y-37640187D01*
X27805342Y-37676896D01*
X27683369Y-37712332D01*
X27676951Y-37715659D01*
X27670028Y-37717749D01*
X27557856Y-37777392D01*
X27445122Y-37835828D01*
X27439473Y-37840337D01*
X27433087Y-37843733D01*
X27334636Y-37924027D01*
X27235398Y-38003248D01*
X27225335Y-38013171D01*
X27225128Y-38013340D01*
X27224970Y-38013531D01*
X27221728Y-38016728D01*
X26896375Y-38342081D01*
X26832803Y-38329032D01*
X26528840Y-38326910D01*
X26230253Y-38383868D01*
X25948416Y-38497738D01*
X25694065Y-38664181D01*
X25476886Y-38876858D01*
X25305152Y-39127669D01*
X25185406Y-39407059D01*
X25122206Y-39704387D01*
X25117962Y-40008328D01*
X17327000Y-40008328D01*
X17327000Y-34068784D01*
X17784889Y-34068784D01*
X17795960Y-34130800D01*
X17898095Y-34470196D01*
X18064481Y-34783145D01*
X18288723Y-35057620D01*
X18562203Y-35283074D01*
X18874413Y-35450843D01*
X19213354Y-35554479D01*
X19566000Y-35590000D01*
X20316000Y-35590000D01*
X20316000Y-33786000D01*
X20324000Y-33786000D01*
X20324000Y-35590000D01*
X21074000Y-35590000D01*
X21426646Y-35554479D01*
X21765587Y-35450843D01*
X22077797Y-35283074D01*
X22351277Y-35057620D01*
X22575519Y-34783145D01*
X22741905Y-34470196D01*
X22844040Y-34130800D01*
X22855111Y-34068784D01*
X22688495Y-33786000D01*
X20324000Y-33786000D01*
X20316000Y-33786000D01*
X17951505Y-33786000D01*
X17784889Y-34068784D01*
X17327000Y-34068784D01*
X17327000Y-33495216D01*
X17784889Y-33495216D01*
X17951505Y-33778000D01*
X20316000Y-33778000D01*
X20316000Y-31974000D01*
X20324000Y-31974000D01*
X20324000Y-33778000D01*
X22688495Y-33778000D01*
X22855111Y-33495216D01*
X22844040Y-33433200D01*
X22741905Y-33093804D01*
X22575519Y-32780855D01*
X22351277Y-32506380D01*
X22077797Y-32280926D01*
X21765587Y-32113157D01*
X21426646Y-32009521D01*
X21074000Y-31974000D01*
X20324000Y-31974000D01*
X20316000Y-31974000D01*
X19566000Y-31974000D01*
X19213354Y-32009521D01*
X18874413Y-32113157D01*
X18562203Y-32280926D01*
X18288723Y-32506380D01*
X18064481Y-32780855D01*
X17898095Y-33093804D01*
X17795960Y-33433200D01*
X17784889Y-33495216D01*
X17327000Y-33495216D01*
X17327000Y-28959328D01*
X34515962Y-28959328D01*
X34570835Y-29258305D01*
X34682734Y-29540930D01*
X34847397Y-29796438D01*
X35058553Y-30015096D01*
X35308159Y-30188576D01*
X35586706Y-30310271D01*
X35883586Y-30375544D01*
X36187490Y-30381910D01*
X36486843Y-30329126D01*
X36770242Y-30219202D01*
X36794197Y-30204000D01*
X42455463Y-30204000D01*
X42698706Y-30310271D01*
X42995586Y-30375544D01*
X43299490Y-30381910D01*
X43598843Y-30329126D01*
X43882242Y-30219202D01*
X43906197Y-30204000D01*
X49567463Y-30204000D01*
X49810706Y-30310271D01*
X50107586Y-30375544D01*
X50411490Y-30381910D01*
X50710843Y-30329126D01*
X50994242Y-30219202D01*
X51018197Y-30204000D01*
X56679463Y-30204000D01*
X56922706Y-30310271D01*
X57219586Y-30375544D01*
X57523490Y-30381910D01*
X57822843Y-30329126D01*
X58106242Y-30219202D01*
X58130197Y-30204000D01*
X63791463Y-30204000D01*
X64034706Y-30310271D01*
X64331586Y-30375544D01*
X64635490Y-30381910D01*
X64934843Y-30329126D01*
X65218242Y-30219202D01*
X65242197Y-30204000D01*
X70649463Y-30204000D01*
X70892706Y-30310271D01*
X71189586Y-30375544D01*
X71493490Y-30381910D01*
X71792843Y-30329126D01*
X72076242Y-30219202D01*
X72100197Y-30204000D01*
X77253463Y-30204000D01*
X77496706Y-30310271D01*
X77793586Y-30375544D01*
X78097490Y-30381910D01*
X78396843Y-30329126D01*
X78680242Y-30219202D01*
X78704197Y-30204000D01*
X84111463Y-30204000D01*
X84354706Y-30310271D01*
X84651586Y-30375544D01*
X84955490Y-30381910D01*
X85254843Y-30329126D01*
X85538242Y-30219202D01*
X85794893Y-30056327D01*
X86015020Y-29846703D01*
X86190238Y-29598314D01*
X86313874Y-29320623D01*
X86381219Y-29024207D01*
X86386067Y-28677015D01*
X86327025Y-28378833D01*
X86211191Y-28097798D01*
X86042976Y-27844614D01*
X85828788Y-27628926D01*
X85576785Y-27458947D01*
X85296565Y-27341154D01*
X84998803Y-27280032D01*
X84694840Y-27277910D01*
X84396253Y-27334868D01*
X84114416Y-27448738D01*
X84106375Y-27454000D01*
X78707016Y-27454000D01*
X78438565Y-27341154D01*
X78140803Y-27280032D01*
X77836840Y-27277910D01*
X77538253Y-27334868D01*
X77256416Y-27448738D01*
X77248375Y-27454000D01*
X72103016Y-27454000D01*
X71834565Y-27341154D01*
X71536803Y-27280032D01*
X71232840Y-27277910D01*
X70934253Y-27334868D01*
X70652416Y-27448738D01*
X70644375Y-27454000D01*
X65245016Y-27454000D01*
X64976565Y-27341154D01*
X64678803Y-27280032D01*
X64374840Y-27277910D01*
X64076253Y-27334868D01*
X63794416Y-27448738D01*
X63786375Y-27454000D01*
X58133016Y-27454000D01*
X57864565Y-27341154D01*
X57566803Y-27280032D01*
X57262840Y-27277910D01*
X56964253Y-27334868D01*
X56682416Y-27448738D01*
X56674375Y-27454000D01*
X51021016Y-27454000D01*
X50752565Y-27341154D01*
X50454803Y-27280032D01*
X50150840Y-27277910D01*
X49852253Y-27334868D01*
X49570416Y-27448738D01*
X49562375Y-27454000D01*
X43909016Y-27454000D01*
X43640565Y-27341154D01*
X43342803Y-27280032D01*
X43038840Y-27277910D01*
X42740253Y-27334868D01*
X42458416Y-27448738D01*
X42450375Y-27454000D01*
X36797016Y-27454000D01*
X36528565Y-27341154D01*
X36230803Y-27280032D01*
X35926840Y-27277910D01*
X35628253Y-27334868D01*
X35346416Y-27448738D01*
X35092065Y-27615181D01*
X34874886Y-27827858D01*
X34703152Y-28078669D01*
X34583406Y-28358059D01*
X34520206Y-28655387D01*
X34515962Y-28959328D01*
X17327000Y-28959328D01*
X17327000Y-27563390D01*
X17384381Y-27748681D01*
X17578857Y-28043810D01*
X17847855Y-28273074D01*
X18170073Y-28418320D01*
X18520000Y-28468048D01*
X22120000Y-28468048D01*
X22319058Y-28452174D01*
X22656681Y-28347619D01*
X22951810Y-28153143D01*
X23181074Y-27884145D01*
X23326320Y-27561927D01*
X23376048Y-27212000D01*
X23376048Y-25112000D01*
X23360174Y-24912942D01*
X23255619Y-24575319D01*
X23061143Y-24280190D01*
X22792145Y-24050926D01*
X22469927Y-23905680D01*
X22120000Y-23855952D01*
X18520000Y-23855952D01*
X18320942Y-23871826D01*
X17983319Y-23976381D01*
X17688190Y-24170857D01*
X17458926Y-24439855D01*
X17327000Y-24732524D01*
X17327000Y-23372000D01*
X28900000Y-23372000D01*
X28900000Y-24272000D01*
X28932638Y-24595383D01*
X29027738Y-24906185D01*
X29181645Y-25192462D01*
X29388445Y-25443212D01*
X29640190Y-25648799D01*
X29927206Y-25801323D01*
X30238463Y-25894922D01*
X30294682Y-25904957D01*
X30554000Y-25736495D01*
X30554000Y-23372000D01*
X28900000Y-23372000D01*
X17327000Y-23372000D01*
X17327000Y-22464000D01*
X28900000Y-22464000D01*
X28900000Y-23364000D01*
X30554000Y-23364000D01*
X30554000Y-20999505D01*
X30562000Y-20999505D01*
X30562000Y-23364000D01*
X30582000Y-23364000D01*
X30582000Y-23372000D01*
X30562000Y-23372000D01*
X30562000Y-25736495D01*
X30821318Y-25904957D01*
X30877537Y-25894922D01*
X31188794Y-25801323D01*
X31475810Y-25648799D01*
X31727555Y-25443212D01*
X31934355Y-25192462D01*
X32038842Y-24998110D01*
X32070226Y-25102059D01*
X32267219Y-25472550D01*
X32532423Y-25797722D01*
X32855735Y-26065189D01*
X33224841Y-26264764D01*
X33625682Y-26388845D01*
X34042990Y-26432706D01*
X34460870Y-26394676D01*
X34863404Y-26276203D01*
X35235261Y-26081801D01*
X35562276Y-25818874D01*
X35831994Y-25497437D01*
X36034141Y-25129733D01*
X36076363Y-24996631D01*
X36181645Y-25192462D01*
X36388445Y-25443212D01*
X36640190Y-25648799D01*
X36927206Y-25801323D01*
X37238463Y-25894922D01*
X37294682Y-25904957D01*
X37554000Y-25736495D01*
X37554000Y-23372000D01*
X37534000Y-23372000D01*
X37534000Y-23364000D01*
X37554000Y-23364000D01*
X37554000Y-20999505D01*
X37562000Y-20999505D01*
X37562000Y-23364000D01*
X37582000Y-23364000D01*
X37582000Y-23372000D01*
X37562000Y-23372000D01*
X37562000Y-25736495D01*
X37821318Y-25904957D01*
X37877537Y-25894922D01*
X38188794Y-25801323D01*
X38475810Y-25648799D01*
X38727555Y-25443212D01*
X38934355Y-25192462D01*
X39038842Y-24998110D01*
X39070226Y-25102059D01*
X39267219Y-25472550D01*
X39532423Y-25797722D01*
X39855735Y-26065189D01*
X40224841Y-26264764D01*
X40625682Y-26388845D01*
X41042990Y-26432706D01*
X41460870Y-26394676D01*
X41863404Y-26276203D01*
X42235261Y-26081801D01*
X42562276Y-25818874D01*
X42831994Y-25497437D01*
X43034141Y-25129733D01*
X43076363Y-24996631D01*
X43181645Y-25192462D01*
X43388445Y-25443212D01*
X43640190Y-25648799D01*
X43927206Y-25801323D01*
X44238463Y-25894922D01*
X44294682Y-25904957D01*
X44554000Y-25736495D01*
X44554000Y-23372000D01*
X44534000Y-23372000D01*
X44534000Y-23364000D01*
X44554000Y-23364000D01*
X44554000Y-20999505D01*
X44562000Y-20999505D01*
X44562000Y-23364000D01*
X44582000Y-23364000D01*
X44582000Y-23372000D01*
X44562000Y-23372000D01*
X44562000Y-25736495D01*
X44821318Y-25904957D01*
X44877537Y-25894922D01*
X45188794Y-25801323D01*
X45475810Y-25648799D01*
X45727555Y-25443212D01*
X45934355Y-25192462D01*
X46038842Y-24998110D01*
X46070226Y-25102059D01*
X46267219Y-25472550D01*
X46532423Y-25797722D01*
X46855735Y-26065189D01*
X47224841Y-26264764D01*
X47625682Y-26388845D01*
X48042990Y-26432706D01*
X48460870Y-26394676D01*
X48863404Y-26276203D01*
X49235261Y-26081801D01*
X49562276Y-25818874D01*
X49831994Y-25497437D01*
X50034141Y-25129733D01*
X50076363Y-24996631D01*
X50181645Y-25192462D01*
X50388445Y-25443212D01*
X50640190Y-25648799D01*
X50927206Y-25801323D01*
X51238463Y-25894922D01*
X51294682Y-25904957D01*
X51554000Y-25736495D01*
X51554000Y-23372000D01*
X51534000Y-23372000D01*
X51534000Y-23364000D01*
X51554000Y-23364000D01*
X51554000Y-20999505D01*
X51562000Y-20999505D01*
X51562000Y-23364000D01*
X51582000Y-23364000D01*
X51582000Y-23372000D01*
X51562000Y-23372000D01*
X51562000Y-25736495D01*
X51821318Y-25904957D01*
X51877537Y-25894922D01*
X52188794Y-25801323D01*
X52475810Y-25648799D01*
X52727555Y-25443212D01*
X52934355Y-25192462D01*
X53038842Y-24998110D01*
X53070226Y-25102059D01*
X53267219Y-25472550D01*
X53532423Y-25797722D01*
X53855735Y-26065189D01*
X54224841Y-26264764D01*
X54625682Y-26388845D01*
X55042990Y-26432706D01*
X55460870Y-26394676D01*
X55863404Y-26276203D01*
X56235261Y-26081801D01*
X56562276Y-25818874D01*
X56831994Y-25497437D01*
X57034141Y-25129733D01*
X57076363Y-24996631D01*
X57181645Y-25192462D01*
X57388445Y-25443212D01*
X57640190Y-25648799D01*
X57927206Y-25801323D01*
X58238463Y-25894922D01*
X58294682Y-25904957D01*
X58554000Y-25736495D01*
X58554000Y-23372000D01*
X58534000Y-23372000D01*
X58534000Y-23364000D01*
X58554000Y-23364000D01*
X58554000Y-20999505D01*
X58562000Y-20999505D01*
X58562000Y-23364000D01*
X58582000Y-23364000D01*
X58582000Y-23372000D01*
X58562000Y-23372000D01*
X58562000Y-25736495D01*
X58821318Y-25904957D01*
X58877537Y-25894922D01*
X59188794Y-25801323D01*
X59475810Y-25648799D01*
X59727555Y-25443212D01*
X59934355Y-25192462D01*
X60038842Y-24998110D01*
X60070226Y-25102059D01*
X60267219Y-25472550D01*
X60532423Y-25797722D01*
X60855735Y-26065189D01*
X61224841Y-26264764D01*
X61625682Y-26388845D01*
X62042990Y-26432706D01*
X62460870Y-26394676D01*
X62863404Y-26276203D01*
X63235261Y-26081801D01*
X63562276Y-25818874D01*
X63831994Y-25497437D01*
X64034141Y-25129733D01*
X64076363Y-24996631D01*
X64181645Y-25192462D01*
X64388445Y-25443212D01*
X64640190Y-25648799D01*
X64927206Y-25801323D01*
X65238463Y-25894922D01*
X65294682Y-25904957D01*
X65554000Y-25736495D01*
X65554000Y-23372000D01*
X65534000Y-23372000D01*
X65534000Y-23364000D01*
X65554000Y-23364000D01*
X65554000Y-20999505D01*
X65562000Y-20999505D01*
X65562000Y-23364000D01*
X65582000Y-23364000D01*
X65582000Y-23372000D01*
X65562000Y-23372000D01*
X65562000Y-25736495D01*
X65821318Y-25904957D01*
X65877537Y-25894922D01*
X66188794Y-25801323D01*
X66475810Y-25648799D01*
X66727555Y-25443212D01*
X66934355Y-25192462D01*
X67038842Y-24998110D01*
X67070226Y-25102059D01*
X67267219Y-25472550D01*
X67532423Y-25797722D01*
X67855735Y-26065189D01*
X68224841Y-26264764D01*
X68625682Y-26388845D01*
X69042990Y-26432706D01*
X69460870Y-26394676D01*
X69863404Y-26276203D01*
X70235261Y-26081801D01*
X70562276Y-25818874D01*
X70831994Y-25497437D01*
X71034141Y-25129733D01*
X71076363Y-24996631D01*
X71181645Y-25192462D01*
X71388445Y-25443212D01*
X71640190Y-25648799D01*
X71927206Y-25801323D01*
X72238463Y-25894922D01*
X72294682Y-25904957D01*
X72554000Y-25736495D01*
X72554000Y-23372000D01*
X72534000Y-23372000D01*
X72534000Y-23364000D01*
X72554000Y-23364000D01*
X72554000Y-20999505D01*
X72562000Y-20999505D01*
X72562000Y-23364000D01*
X72582000Y-23364000D01*
X72582000Y-23372000D01*
X72562000Y-23372000D01*
X72562000Y-25736495D01*
X72821318Y-25904957D01*
X72877537Y-25894922D01*
X73188794Y-25801323D01*
X73475810Y-25648799D01*
X73727555Y-25443212D01*
X73934355Y-25192462D01*
X74038842Y-24998110D01*
X74070226Y-25102059D01*
X74267219Y-25472550D01*
X74532423Y-25797722D01*
X74855735Y-26065189D01*
X75224841Y-26264764D01*
X75625682Y-26388845D01*
X76042990Y-26432706D01*
X76460870Y-26394676D01*
X76863404Y-26276203D01*
X77235261Y-26081801D01*
X77562276Y-25818874D01*
X77831994Y-25497437D01*
X78034141Y-25129733D01*
X78076363Y-24996631D01*
X78181645Y-25192462D01*
X78388445Y-25443212D01*
X78640190Y-25648799D01*
X78927206Y-25801323D01*
X79238463Y-25894922D01*
X79294682Y-25904957D01*
X79554000Y-25736495D01*
X79554000Y-23372000D01*
X79534000Y-23372000D01*
X79534000Y-23364000D01*
X79554000Y-23364000D01*
X79554000Y-20999505D01*
X79562000Y-20999505D01*
X79562000Y-23364000D01*
X79582000Y-23364000D01*
X79582000Y-23372000D01*
X79562000Y-23372000D01*
X79562000Y-25736495D01*
X79821318Y-25904957D01*
X79877537Y-25894922D01*
X80188794Y-25801323D01*
X80475810Y-25648799D01*
X80727555Y-25443212D01*
X80906588Y-25226131D01*
X80917826Y-25367058D01*
X81022381Y-25704681D01*
X81216857Y-25999810D01*
X81485855Y-26229074D01*
X81808073Y-26374320D01*
X82158000Y-26424048D01*
X83958000Y-26424048D01*
X84157058Y-26408174D01*
X84494681Y-26303619D01*
X84789810Y-26109143D01*
X85019074Y-25840145D01*
X85164320Y-25517927D01*
X85214048Y-25168000D01*
X85214048Y-21568000D01*
X85198174Y-21368942D01*
X85093619Y-21031319D01*
X84899143Y-20736190D01*
X84630145Y-20506926D01*
X84307927Y-20361680D01*
X83958000Y-20311952D01*
X82158000Y-20311952D01*
X81958942Y-20327826D01*
X81621319Y-20432381D01*
X81326190Y-20626857D01*
X81096926Y-20895855D01*
X80951680Y-21218073D01*
X80909680Y-21513619D01*
X80727555Y-21292788D01*
X80475810Y-21087201D01*
X80188794Y-20934677D01*
X79877537Y-20841078D01*
X79821318Y-20831043D01*
X79562000Y-20999505D01*
X79554000Y-20999505D01*
X79294682Y-20831043D01*
X79238463Y-20841078D01*
X78927206Y-20934677D01*
X78640190Y-21087201D01*
X78388445Y-21292788D01*
X78181645Y-21543538D01*
X78077158Y-21737890D01*
X78045774Y-21633941D01*
X77848781Y-21263450D01*
X77583577Y-20938278D01*
X77260265Y-20670811D01*
X76891159Y-20471236D01*
X76490318Y-20347155D01*
X76073010Y-20303294D01*
X75655130Y-20341324D01*
X75252596Y-20459797D01*
X74880739Y-20654199D01*
X74553724Y-20917126D01*
X74284006Y-21238563D01*
X74081859Y-21606267D01*
X74039637Y-21739369D01*
X73934355Y-21543538D01*
X73727555Y-21292788D01*
X73475810Y-21087201D01*
X73188794Y-20934677D01*
X72877537Y-20841078D01*
X72821318Y-20831043D01*
X72562000Y-20999505D01*
X72554000Y-20999505D01*
X72294682Y-20831043D01*
X72238463Y-20841078D01*
X71927206Y-20934677D01*
X71640190Y-21087201D01*
X71388445Y-21292788D01*
X71181645Y-21543538D01*
X71077158Y-21737890D01*
X71045774Y-21633941D01*
X70848781Y-21263450D01*
X70583577Y-20938278D01*
X70260265Y-20670811D01*
X69891159Y-20471236D01*
X69490318Y-20347155D01*
X69073010Y-20303294D01*
X68655130Y-20341324D01*
X68252596Y-20459797D01*
X67880739Y-20654199D01*
X67553724Y-20917126D01*
X67284006Y-21238563D01*
X67081859Y-21606267D01*
X67039637Y-21739369D01*
X66934355Y-21543538D01*
X66727555Y-21292788D01*
X66475810Y-21087201D01*
X66188794Y-20934677D01*
X65877537Y-20841078D01*
X65821318Y-20831043D01*
X65562000Y-20999505D01*
X65554000Y-20999505D01*
X65294682Y-20831043D01*
X65238463Y-20841078D01*
X64927206Y-20934677D01*
X64640190Y-21087201D01*
X64388445Y-21292788D01*
X64181645Y-21543538D01*
X64077158Y-21737890D01*
X64045774Y-21633941D01*
X63848781Y-21263450D01*
X63583577Y-20938278D01*
X63260265Y-20670811D01*
X62891159Y-20471236D01*
X62490318Y-20347155D01*
X62073010Y-20303294D01*
X61655130Y-20341324D01*
X61252596Y-20459797D01*
X60880739Y-20654199D01*
X60553724Y-20917126D01*
X60284006Y-21238563D01*
X60081859Y-21606267D01*
X60039637Y-21739369D01*
X59934355Y-21543538D01*
X59727555Y-21292788D01*
X59475810Y-21087201D01*
X59188794Y-20934677D01*
X58877537Y-20841078D01*
X58821318Y-20831043D01*
X58562000Y-20999505D01*
X58554000Y-20999505D01*
X58294682Y-20831043D01*
X58238463Y-20841078D01*
X57927206Y-20934677D01*
X57640190Y-21087201D01*
X57388445Y-21292788D01*
X57181645Y-21543538D01*
X57077158Y-21737890D01*
X57045774Y-21633941D01*
X56848781Y-21263450D01*
X56583577Y-20938278D01*
X56260265Y-20670811D01*
X55891159Y-20471236D01*
X55490318Y-20347155D01*
X55073010Y-20303294D01*
X54655130Y-20341324D01*
X54252596Y-20459797D01*
X53880739Y-20654199D01*
X53553724Y-20917126D01*
X53284006Y-21238563D01*
X53081859Y-21606267D01*
X53039637Y-21739369D01*
X52934355Y-21543538D01*
X52727555Y-21292788D01*
X52475810Y-21087201D01*
X52188794Y-20934677D01*
X51877537Y-20841078D01*
X51821318Y-20831043D01*
X51562000Y-20999505D01*
X51554000Y-20999505D01*
X51294682Y-20831043D01*
X51238463Y-20841078D01*
X50927206Y-20934677D01*
X50640190Y-21087201D01*
X50388445Y-21292788D01*
X50181645Y-21543538D01*
X50077158Y-21737890D01*
X50045774Y-21633941D01*
X49848781Y-21263450D01*
X49583577Y-20938278D01*
X49260265Y-20670811D01*
X48891159Y-20471236D01*
X48490318Y-20347155D01*
X48073010Y-20303294D01*
X47655130Y-20341324D01*
X47252596Y-20459797D01*
X46880739Y-20654199D01*
X46553724Y-20917126D01*
X46284006Y-21238563D01*
X46081859Y-21606267D01*
X46039637Y-21739369D01*
X45934355Y-21543538D01*
X45727555Y-21292788D01*
X45475810Y-21087201D01*
X45188794Y-20934677D01*
X44877537Y-20841078D01*
X44821318Y-20831043D01*
X44562000Y-20999505D01*
X44554000Y-20999505D01*
X44294682Y-20831043D01*
X44238463Y-20841078D01*
X43927206Y-20934677D01*
X43640190Y-21087201D01*
X43388445Y-21292788D01*
X43181645Y-21543538D01*
X43077158Y-21737890D01*
X43045774Y-21633941D01*
X42848781Y-21263450D01*
X42583577Y-20938278D01*
X42260265Y-20670811D01*
X41891159Y-20471236D01*
X41490318Y-20347155D01*
X41073010Y-20303294D01*
X40655130Y-20341324D01*
X40252596Y-20459797D01*
X39880739Y-20654199D01*
X39553724Y-20917126D01*
X39284006Y-21238563D01*
X39081859Y-21606267D01*
X39039637Y-21739369D01*
X38934355Y-21543538D01*
X38727555Y-21292788D01*
X38475810Y-21087201D01*
X38188794Y-20934677D01*
X37877537Y-20841078D01*
X37821318Y-20831043D01*
X37562000Y-20999505D01*
X37554000Y-20999505D01*
X37294682Y-20831043D01*
X37238463Y-20841078D01*
X36927206Y-20934677D01*
X36640190Y-21087201D01*
X36388445Y-21292788D01*
X36181645Y-21543538D01*
X36077158Y-21737890D01*
X36045774Y-21633941D01*
X35848781Y-21263450D01*
X35583577Y-20938278D01*
X35260265Y-20670811D01*
X34891159Y-20471236D01*
X34490318Y-20347155D01*
X34073010Y-20303294D01*
X33655130Y-20341324D01*
X33252596Y-20459797D01*
X32880739Y-20654199D01*
X32553724Y-20917126D01*
X32284006Y-21238563D01*
X32081859Y-21606267D01*
X32039637Y-21739369D01*
X31934355Y-21543538D01*
X31727555Y-21292788D01*
X31475810Y-21087201D01*
X31188794Y-20934677D01*
X30877537Y-20841078D01*
X30821318Y-20831043D01*
X30562000Y-20999505D01*
X30554000Y-20999505D01*
X30294682Y-20831043D01*
X30238463Y-20841078D01*
X29927206Y-20934677D01*
X29640190Y-21087201D01*
X29388445Y-21292788D01*
X29181645Y-21543538D01*
X29027738Y-21829815D01*
X28932638Y-22140617D01*
X28900000Y-22464000D01*
X17327000Y-22464000D01*
X17327000Y-20080644D01*
X17701921Y-20468886D01*
X18160872Y-20787866D01*
X18673040Y-21011626D01*
X19218916Y-21131645D01*
X19777707Y-21143350D01*
X20328130Y-21046295D01*
X20849219Y-20844178D01*
X21321125Y-20544697D01*
X21725875Y-20159259D01*
X22048051Y-19702546D01*
X22275382Y-19191953D01*
X22399208Y-18646928D01*
X22408122Y-18008543D01*
X22299562Y-17460274D01*
X22086576Y-16943532D01*
X21777278Y-16478001D01*
X21383448Y-16081412D01*
X21347256Y-16057000D01*
X94470660Y-16057000D01*
X94072210Y-16447191D01*
M02*
