G04 #@! TF.FileFunction,Copper,L2,Bot,Signal*
%FSLAX46Y46*%
G04 Gerber Fmt 4.6, Leading zero omitted, Abs format (unit mm)*
G04 Created by KiCad (PCBNEW 4.0.5+dfsg1-4) date Fri May  5 03:22:00 2017*
%MOMM*%
%LPD*%
G01*
G04 APERTURE LIST*
%ADD10C,0.100000*%
%ADD11R,1.800000X3.600000*%
%ADD12O,1.800000X3.600000*%
%ADD13R,1.700000X1.700000*%
%ADD14O,1.700000X1.700000*%
%ADD15R,3.600000X2.100000*%
%ADD16O,3.600000X2.100000*%
%ADD17R,1.800000X1.800000*%
%ADD18C,1.800000*%
%ADD19C,0.600000*%
%ADD20C,0.250000*%
%ADD21C,1.000000*%
%ADD22C,3.000000*%
%ADD23C,2.000000*%
G04 APERTURE END LIST*
D10*
D11*
X83058000Y-23368000D03*
D12*
X79558000Y-23368000D03*
X76058000Y-23368000D03*
X72558000Y-23368000D03*
X69058000Y-23368000D03*
X65558000Y-23368000D03*
X62058000Y-23368000D03*
X58558000Y-23368000D03*
X55058000Y-23368000D03*
X51558000Y-23368000D03*
X48058000Y-23368000D03*
X44558000Y-23368000D03*
X41058000Y-23368000D03*
X37558000Y-23368000D03*
X34058000Y-23368000D03*
X30558000Y-23368000D03*
D13*
X51054000Y-48768000D03*
D14*
X48514000Y-48768000D03*
X45974000Y-48768000D03*
X43434000Y-48768000D03*
X40894000Y-48768000D03*
X38354000Y-48768000D03*
D13*
X77978000Y-48768000D03*
D14*
X75438000Y-48768000D03*
X72898000Y-48768000D03*
X70358000Y-48768000D03*
X67818000Y-48768000D03*
X65278000Y-48768000D03*
D15*
X20320000Y-26162000D03*
D16*
X20320000Y-33782000D03*
D15*
X95250000Y-33782000D03*
D16*
X95250000Y-26162000D03*
D17*
X85788500Y-44513500D03*
D18*
X88328500Y-44513500D03*
D19*
X62484000Y-44958000D03*
X64770000Y-43434000D03*
X66548000Y-47244000D03*
X54356000Y-46228000D03*
X68834000Y-46228000D03*
X71374000Y-40767000D03*
X85471000Y-33274000D03*
X71501000Y-38862000D03*
X78740000Y-33147000D03*
X66929000Y-38735000D03*
X71628000Y-33147000D03*
X64008000Y-38100000D03*
X64897000Y-33274000D03*
X80264000Y-37465000D03*
X80010000Y-30861000D03*
X57404000Y-38354000D03*
X57404000Y-33147000D03*
X54229000Y-40767000D03*
X50419000Y-41021000D03*
X50419000Y-38481000D03*
X50419000Y-33020000D03*
X52705000Y-40132000D03*
X43942000Y-40132000D03*
X43942000Y-38481000D03*
X43942000Y-33274000D03*
X54229000Y-39370000D03*
X36830000Y-33147000D03*
D20*
X45974000Y-48768000D02*
X45974000Y-47752000D01*
X69088000Y-44958000D02*
X72898000Y-48768000D01*
X48768000Y-44958000D02*
X62484000Y-44958000D01*
X62484000Y-44958000D02*
X69088000Y-44958000D01*
X45974000Y-47752000D02*
X48768000Y-44958000D01*
X48260000Y-43942000D02*
X43434000Y-48768000D01*
X64262000Y-43942000D02*
X48260000Y-43942000D01*
X64770000Y-43434000D02*
X64262000Y-43942000D01*
X40894000Y-48768000D02*
X43688000Y-51562000D01*
X64516000Y-47244000D02*
X66548000Y-47244000D01*
X60198000Y-51562000D02*
X64516000Y-47244000D01*
X43688000Y-51562000D02*
X60198000Y-51562000D01*
X68834000Y-46228000D02*
X54356000Y-46228000D01*
X85344000Y-33401000D02*
X85344000Y-36703000D01*
X85471000Y-33274000D02*
X85344000Y-33401000D01*
X81280000Y-40767000D02*
X71374000Y-40767000D01*
X85344000Y-36703000D02*
X81280000Y-40767000D01*
X76708000Y-38862000D02*
X71501000Y-38862000D01*
X78740000Y-36830000D02*
X76708000Y-38862000D01*
X78740000Y-33147000D02*
X78740000Y-36830000D01*
X69596000Y-38735000D02*
X66929000Y-38735000D01*
X71628000Y-36703000D02*
X69596000Y-38735000D01*
X71628000Y-33147000D02*
X71628000Y-36703000D01*
X65151000Y-36957000D02*
X64008000Y-38100000D01*
X65151000Y-33528000D02*
X65151000Y-36957000D01*
X64897000Y-33274000D02*
X65151000Y-33528000D01*
X80264000Y-31115000D02*
X80264000Y-37465000D01*
X80010000Y-30861000D02*
X80264000Y-31115000D01*
D21*
X38354000Y-48768000D02*
X24892000Y-35306000D01*
X21844000Y-35306000D02*
X20320000Y-33782000D01*
X24892000Y-35306000D02*
X21844000Y-35306000D01*
X65278000Y-48768000D02*
X60960000Y-53086000D01*
X60960000Y-53086000D02*
X42672000Y-53086000D01*
X42672000Y-53086000D02*
X38354000Y-48768000D01*
D22*
X30558000Y-23368000D02*
X30558000Y-19988000D01*
X30558000Y-19988000D02*
X32258000Y-18288000D01*
X20320000Y-33782000D02*
X22430000Y-31496000D01*
X22430000Y-31496000D02*
X30558000Y-23368000D01*
X95504000Y-26162000D02*
X95250000Y-26162000D01*
X95250000Y-26162000D02*
X89408000Y-18288000D01*
X89408000Y-18288000D02*
X32258000Y-18288000D01*
D23*
X86868000Y-18288000D02*
X89408000Y-18288000D01*
X79248000Y-18288000D02*
X86868000Y-18288000D01*
X79558000Y-23368000D02*
X79558000Y-18288000D01*
X79558000Y-18288000D02*
X79248000Y-18288000D01*
X72558000Y-23368000D02*
X72558000Y-18288000D01*
X72558000Y-18288000D02*
X72898000Y-18288000D01*
X65558000Y-23368000D02*
X65558000Y-18288000D01*
X65558000Y-18288000D02*
X65278000Y-18288000D01*
X58558000Y-23368000D02*
X58558000Y-18288000D01*
X58558000Y-18288000D02*
X58928000Y-18288000D01*
X51558000Y-23368000D02*
X51558000Y-18288000D01*
X51558000Y-18288000D02*
X51308000Y-18288000D01*
X44558000Y-23368000D02*
X44558000Y-18288000D01*
X44558000Y-18288000D02*
X44958000Y-18288000D01*
X37558000Y-23368000D02*
X37558000Y-18288000D01*
X37558000Y-18288000D02*
X37338000Y-18288000D01*
X32258000Y-18288000D02*
X37338000Y-18288000D01*
X37338000Y-18288000D02*
X44958000Y-18288000D01*
X44958000Y-18288000D02*
X51308000Y-18288000D01*
X51308000Y-18288000D02*
X58928000Y-18288000D01*
X58928000Y-18288000D02*
X65278000Y-18288000D01*
X65278000Y-18288000D02*
X72898000Y-18288000D01*
X72898000Y-18288000D02*
X79248000Y-18288000D01*
X30558000Y-19988000D02*
X32258000Y-18288000D01*
D20*
X57404000Y-33147000D02*
X57404000Y-38354000D01*
X50673000Y-40767000D02*
X54229000Y-40767000D01*
X50419000Y-41021000D02*
X50673000Y-40767000D01*
X50419000Y-33020000D02*
X50419000Y-38481000D01*
X43942000Y-40132000D02*
X52705000Y-40132000D01*
X43942000Y-33274000D02*
X43942000Y-38481000D01*
X36830000Y-39370000D02*
X54229000Y-39370000D01*
X36830000Y-33147000D02*
X36830000Y-39370000D01*
M02*
