G04 #@! TF.FileFunction,Copper,L1,Top,Signal*
%FSLAX46Y46*%
G04 Gerber Fmt 4.6, Leading zero omitted, Abs format (unit mm)*
G04 Created by KiCad (PCBNEW 4.0.5+dfsg1-4) date Fri May  5 03:22:00 2017*
%MOMM*%
%LPD*%
G01*
G04 APERTURE LIST*
%ADD10C,0.100000*%
%ADD11R,1.800000X3.600000*%
%ADD12O,1.800000X3.600000*%
%ADD13R,1.500000X0.450000*%
%ADD14R,0.450000X1.450000*%
%ADD15R,1.700000X1.700000*%
%ADD16O,1.700000X1.700000*%
%ADD17R,3.600000X2.100000*%
%ADD18O,3.600000X2.100000*%
%ADD19R,1.200000X1.200000*%
%ADD20R,1.800000X1.800000*%
%ADD21C,1.800000*%
%ADD22R,1.300000X1.500000*%
%ADD23C,0.600000*%
%ADD24C,0.250000*%
%ADD25C,1.000000*%
%ADD26C,0.500000*%
%ADD27C,1.750000*%
%ADD28C,2.000000*%
%ADD29C,0.700000*%
G04 APERTURE END LIST*
D10*
D11*
X83058000Y-23368000D03*
D12*
X79558000Y-23368000D03*
X76058000Y-23368000D03*
X72558000Y-23368000D03*
X69058000Y-23368000D03*
X65558000Y-23368000D03*
X62058000Y-23368000D03*
X58558000Y-23368000D03*
X55058000Y-23368000D03*
X51558000Y-23368000D03*
X48058000Y-23368000D03*
X44558000Y-23368000D03*
X41058000Y-23368000D03*
X37558000Y-23368000D03*
X34058000Y-23368000D03*
X30558000Y-23368000D03*
D13*
X61878000Y-42661000D03*
X61878000Y-42011000D03*
X61878000Y-41361000D03*
X61878000Y-40711000D03*
X61878000Y-40061000D03*
X61878000Y-39411000D03*
X61878000Y-38761000D03*
X61878000Y-38111000D03*
X55978000Y-38111000D03*
X55978000Y-38761000D03*
X55978000Y-39411000D03*
X55978000Y-40061000D03*
X55978000Y-40711000D03*
X55978000Y-41361000D03*
X55978000Y-42011000D03*
X55978000Y-42661000D03*
D14*
X68113000Y-33188000D03*
X68763000Y-33188000D03*
X69413000Y-33188000D03*
X70063000Y-33188000D03*
X70063000Y-28788000D03*
X69413000Y-28788000D03*
X68763000Y-28788000D03*
X68113000Y-28788000D03*
X61128000Y-33188000D03*
X61778000Y-33188000D03*
X62428000Y-33188000D03*
X63078000Y-33188000D03*
X63078000Y-28788000D03*
X62428000Y-28788000D03*
X61778000Y-28788000D03*
X61128000Y-28788000D03*
X54016000Y-33188000D03*
X54666000Y-33188000D03*
X55316000Y-33188000D03*
X55966000Y-33188000D03*
X55966000Y-28788000D03*
X55316000Y-28788000D03*
X54666000Y-28788000D03*
X54016000Y-28788000D03*
X47031000Y-33188000D03*
X47681000Y-33188000D03*
X48331000Y-33188000D03*
X48981000Y-33188000D03*
X48981000Y-28788000D03*
X48331000Y-28788000D03*
X47681000Y-28788000D03*
X47031000Y-28788000D03*
X40046000Y-33188000D03*
X40696000Y-33188000D03*
X41346000Y-33188000D03*
X41996000Y-33188000D03*
X41996000Y-28788000D03*
X41346000Y-28788000D03*
X40696000Y-28788000D03*
X40046000Y-28788000D03*
X33061000Y-33188000D03*
X33711000Y-33188000D03*
X34361000Y-33188000D03*
X35011000Y-33188000D03*
X35011000Y-28788000D03*
X34361000Y-28788000D03*
X33711000Y-28788000D03*
X33061000Y-28788000D03*
X82083000Y-33188000D03*
X82733000Y-33188000D03*
X83383000Y-33188000D03*
X84033000Y-33188000D03*
X84033000Y-28788000D03*
X83383000Y-28788000D03*
X82733000Y-28788000D03*
X82083000Y-28788000D03*
X75098000Y-33188000D03*
X75748000Y-33188000D03*
X76398000Y-33188000D03*
X77048000Y-33188000D03*
X77048000Y-28788000D03*
X76398000Y-28788000D03*
X75748000Y-28788000D03*
X75098000Y-28788000D03*
D15*
X51054000Y-48768000D03*
D16*
X48514000Y-48768000D03*
X45974000Y-48768000D03*
X43434000Y-48768000D03*
X40894000Y-48768000D03*
X38354000Y-48768000D03*
D15*
X77978000Y-48768000D03*
D16*
X75438000Y-48768000D03*
X72898000Y-48768000D03*
X70358000Y-48768000D03*
X67818000Y-48768000D03*
X65278000Y-48768000D03*
D17*
X20320000Y-26162000D03*
D18*
X20320000Y-33782000D03*
D17*
X95250000Y-33782000D03*
D18*
X95250000Y-26162000D03*
D19*
X87968000Y-39560500D03*
X85768000Y-39560500D03*
D20*
X85788500Y-44513500D03*
D21*
X88328500Y-44513500D03*
D22*
X80264000Y-41990000D03*
X80264000Y-39290000D03*
D23*
X62484000Y-44958000D03*
X64770000Y-43434000D03*
X66548000Y-47244000D03*
X54356000Y-46228000D03*
X68834000Y-46228000D03*
X71374000Y-40767000D03*
X85471000Y-33274000D03*
X71501000Y-38862000D03*
X78740000Y-33147000D03*
X66929000Y-38735000D03*
X71628000Y-33147000D03*
X64008000Y-38100000D03*
X64897000Y-33274000D03*
X80264000Y-37465000D03*
X80010000Y-30861000D03*
X57404000Y-38354000D03*
X57404000Y-33147000D03*
X54229000Y-40767000D03*
X50419000Y-41021000D03*
X50419000Y-38481000D03*
X50419000Y-33020000D03*
X52705000Y-40132000D03*
X43942000Y-40132000D03*
X43942000Y-38481000D03*
X43942000Y-33274000D03*
X54229000Y-39370000D03*
X36830000Y-33147000D03*
D24*
X61878000Y-42661000D02*
X61878000Y-44352000D01*
X61878000Y-44352000D02*
X62484000Y-44958000D01*
X61878000Y-42011000D02*
X63347000Y-42011000D01*
X63347000Y-42011000D02*
X64770000Y-43434000D01*
X66548000Y-47244000D02*
X67818000Y-47244000D01*
X67818000Y-48768000D02*
X67818000Y-47244000D01*
X67818000Y-47244000D02*
X67818000Y-44704000D01*
X64475000Y-41361000D02*
X61878000Y-41361000D01*
X67818000Y-44704000D02*
X64475000Y-41361000D01*
X55978000Y-38111000D02*
X55978000Y-38002000D01*
X55978000Y-38002000D02*
X56642000Y-37338000D01*
X56642000Y-37338000D02*
X58674000Y-37338000D01*
X58674000Y-37338000D02*
X58674000Y-50546000D01*
X58674000Y-50546000D02*
X59182000Y-51054000D01*
X59182000Y-51054000D02*
X68072000Y-51054000D01*
X68072000Y-51054000D02*
X70358000Y-48768000D01*
X75438000Y-48768000D02*
X72136000Y-45466000D01*
X54102000Y-45974000D02*
X54102000Y-42011000D01*
X54356000Y-46228000D02*
X54102000Y-45974000D01*
X69596000Y-45466000D02*
X68834000Y-46228000D01*
X72136000Y-45466000D02*
X69596000Y-45466000D01*
X55978000Y-42011000D02*
X54102000Y-42011000D01*
X54102000Y-42011000D02*
X50699000Y-42011000D01*
X48514000Y-44196000D02*
X48514000Y-48768000D01*
X50699000Y-42011000D02*
X48514000Y-44196000D01*
X84033000Y-33188000D02*
X85385000Y-33188000D01*
X71318000Y-40711000D02*
X61878000Y-40711000D01*
X71374000Y-40767000D02*
X71318000Y-40711000D01*
X85385000Y-33188000D02*
X85471000Y-33274000D01*
X77048000Y-33188000D02*
X78699000Y-33188000D01*
X70302000Y-40061000D02*
X61878000Y-40061000D01*
X71501000Y-38862000D02*
X70302000Y-40061000D01*
X78699000Y-33188000D02*
X78740000Y-33147000D01*
X70063000Y-33188000D02*
X71587000Y-33188000D01*
X66253000Y-39411000D02*
X61878000Y-39411000D01*
X66929000Y-38735000D02*
X66253000Y-39411000D01*
X71587000Y-33188000D02*
X71628000Y-33147000D01*
X63078000Y-33188000D02*
X64811000Y-33188000D01*
X63347000Y-38761000D02*
X61878000Y-38761000D01*
X64008000Y-38100000D02*
X63347000Y-38761000D01*
X64811000Y-33188000D02*
X64897000Y-33274000D01*
X79629000Y-30099000D02*
X79629000Y-30480000D01*
X80264000Y-37465000D02*
X80264000Y-39290000D01*
X79629000Y-30480000D02*
X80010000Y-30861000D01*
X41996000Y-30099000D02*
X35052000Y-30099000D01*
X35011000Y-30058000D02*
X35011000Y-28788000D01*
X35052000Y-30099000D02*
X35011000Y-30058000D01*
X41996000Y-28788000D02*
X41996000Y-30099000D01*
X41996000Y-30099000D02*
X42037000Y-30099000D01*
X48981000Y-28788000D02*
X48981000Y-30099000D01*
X48981000Y-30099000D02*
X49022000Y-30099000D01*
X55966000Y-28788000D02*
X55966000Y-30099000D01*
X55966000Y-30099000D02*
X56007000Y-30099000D01*
X63078000Y-28788000D02*
X63078000Y-30099000D01*
X63078000Y-30099000D02*
X63119000Y-30099000D01*
X70063000Y-28788000D02*
X70063000Y-30099000D01*
X70063000Y-30099000D02*
X70104000Y-30099000D01*
X77048000Y-28788000D02*
X77048000Y-30099000D01*
X77048000Y-30099000D02*
X76962000Y-30099000D01*
X84033000Y-28788000D02*
X84033000Y-30099000D01*
X84033000Y-30099000D02*
X84074000Y-30099000D01*
X42037000Y-30099000D02*
X49022000Y-30099000D01*
X49022000Y-30099000D02*
X56007000Y-30099000D01*
X56007000Y-30099000D02*
X63119000Y-30099000D01*
X63119000Y-30099000D02*
X70104000Y-30099000D01*
X70104000Y-30099000D02*
X76962000Y-30099000D01*
X76962000Y-30099000D02*
X79629000Y-30099000D01*
X79629000Y-30099000D02*
X84074000Y-30099000D01*
X84074000Y-30099000D02*
X84963000Y-30099000D01*
X41996000Y-28788000D02*
X41996000Y-29423000D01*
X56093000Y-28788000D02*
X56093000Y-29296000D01*
X49108000Y-28788000D02*
X49108000Y-29296000D01*
X42123000Y-28788000D02*
X42123000Y-29296000D01*
X56093000Y-28788000D02*
X56093000Y-29423000D01*
X42123000Y-28788000D02*
X42123000Y-29423000D01*
D25*
X69110000Y-26521000D02*
X69110000Y-27029000D01*
X69110000Y-27029000D02*
X69088000Y-27051000D01*
D26*
X69413000Y-28661000D02*
X69413000Y-26824000D01*
X69413000Y-26824000D02*
X69110000Y-26521000D01*
X68763000Y-28661000D02*
X68763000Y-26868000D01*
X68763000Y-26868000D02*
X69110000Y-26521000D01*
D25*
X69110000Y-23241000D02*
X69110000Y-26521000D01*
X62125000Y-26521000D02*
X62125000Y-27029000D01*
X62125000Y-27029000D02*
X62103000Y-27051000D01*
X62125000Y-23241000D02*
X62125000Y-26521000D01*
D26*
X61778000Y-26868000D02*
X62125000Y-26521000D01*
X61778000Y-28661000D02*
X61778000Y-26868000D01*
X62428000Y-26824000D02*
X62125000Y-26521000D01*
X62428000Y-28661000D02*
X62428000Y-26824000D01*
D25*
X55013000Y-26521000D02*
X55013000Y-27029000D01*
X55013000Y-27029000D02*
X54991000Y-27051000D01*
D26*
X55316000Y-28661000D02*
X55316000Y-26824000D01*
X55316000Y-26824000D02*
X55013000Y-26521000D01*
X54666000Y-28661000D02*
X54666000Y-26868000D01*
X54666000Y-26868000D02*
X55013000Y-26521000D01*
D25*
X55013000Y-23241000D02*
X55013000Y-26521000D01*
X48028000Y-26521000D02*
X48028000Y-27029000D01*
X48028000Y-27029000D02*
X48006000Y-27051000D01*
X48028000Y-23241000D02*
X48028000Y-26521000D01*
D26*
X47681000Y-26868000D02*
X48028000Y-26521000D01*
X47681000Y-28661000D02*
X47681000Y-26868000D01*
X48331000Y-26824000D02*
X48028000Y-26521000D01*
X48331000Y-28661000D02*
X48331000Y-26824000D01*
D25*
X41043000Y-26521000D02*
X41043000Y-27029000D01*
X41043000Y-27029000D02*
X41021000Y-27051000D01*
X41043000Y-23241000D02*
X41043000Y-26521000D01*
D26*
X40696000Y-26868000D02*
X41043000Y-26521000D01*
X40696000Y-28661000D02*
X40696000Y-26868000D01*
X41346000Y-26824000D02*
X41043000Y-26521000D01*
X41346000Y-28661000D02*
X41346000Y-26824000D01*
D25*
X34058000Y-26924000D02*
X34058000Y-27156000D01*
X34058000Y-26521000D02*
X34058000Y-26924000D01*
X34058000Y-27156000D02*
X34036000Y-27178000D01*
X34058000Y-23241000D02*
X34058000Y-26521000D01*
D26*
X34361000Y-28661000D02*
X34361000Y-26824000D01*
X34361000Y-26824000D02*
X34058000Y-26521000D01*
X33711000Y-28661000D02*
X33711000Y-26868000D01*
X33711000Y-26868000D02*
X34058000Y-26521000D01*
D25*
X83080000Y-26521000D02*
X83080000Y-27029000D01*
X83080000Y-27029000D02*
X83058000Y-27051000D01*
X83080000Y-23241000D02*
X83080000Y-26521000D01*
D26*
X82733000Y-26868000D02*
X83080000Y-26521000D01*
X82733000Y-28661000D02*
X82733000Y-26868000D01*
X83383000Y-26824000D02*
X83080000Y-26521000D01*
X83383000Y-28661000D02*
X83383000Y-26824000D01*
D25*
X76095000Y-26521000D02*
X76095000Y-27029000D01*
X76095000Y-27029000D02*
X76073000Y-27051000D01*
D26*
X76398000Y-28661000D02*
X76398000Y-26824000D01*
X76398000Y-26824000D02*
X76095000Y-26521000D01*
X75748000Y-28661000D02*
X75748000Y-26868000D01*
X75748000Y-26868000D02*
X76095000Y-26521000D01*
D25*
X76095000Y-23241000D02*
X76095000Y-26521000D01*
D26*
X61878000Y-38111000D02*
X60695000Y-38111000D01*
X63500000Y-48768000D02*
X65278000Y-48768000D01*
X59944000Y-45212000D02*
X63500000Y-48768000D01*
X59944000Y-38862000D02*
X59944000Y-45212000D01*
X60695000Y-38111000D02*
X59944000Y-38862000D01*
D24*
X82169000Y-31750000D02*
X87376000Y-31750000D01*
X87376000Y-31750000D02*
X95250000Y-26162000D01*
X33061000Y-31791000D02*
X30734000Y-29464000D01*
X30734000Y-29464000D02*
X30734000Y-23544000D01*
X30734000Y-23544000D02*
X30558000Y-23368000D01*
X82169000Y-31750000D02*
X82169000Y-33102000D01*
X82169000Y-33102000D02*
X82083000Y-33188000D01*
X75057000Y-31750000D02*
X75057000Y-33147000D01*
X75057000Y-33147000D02*
X75098000Y-33188000D01*
X68072000Y-31750000D02*
X68072000Y-33147000D01*
X68072000Y-33147000D02*
X68113000Y-33188000D01*
X61087000Y-31750000D02*
X61087000Y-33147000D01*
X61087000Y-33147000D02*
X61128000Y-33188000D01*
X53975000Y-31750000D02*
X53975000Y-33147000D01*
X53975000Y-33147000D02*
X54016000Y-33188000D01*
X46990000Y-31750000D02*
X46990000Y-33147000D01*
X46990000Y-33147000D02*
X47031000Y-33188000D01*
X40005000Y-31750000D02*
X40005000Y-33147000D01*
X40005000Y-33147000D02*
X40046000Y-33188000D01*
X33061000Y-31791000D02*
X33061000Y-33188000D01*
X33020000Y-31750000D02*
X33061000Y-31791000D01*
X82169000Y-31750000D02*
X75057000Y-31750000D01*
X75057000Y-31750000D02*
X68072000Y-31750000D01*
X68072000Y-31750000D02*
X61087000Y-31750000D01*
X61087000Y-31750000D02*
X53975000Y-31750000D01*
X53975000Y-31750000D02*
X46990000Y-31750000D01*
X46990000Y-31750000D02*
X40005000Y-31750000D01*
X40005000Y-31750000D02*
X33020000Y-31750000D01*
X87968000Y-39560500D02*
X87968000Y-35687000D01*
X87884000Y-35771000D02*
X87884000Y-35687000D01*
X87968000Y-35687000D02*
X87884000Y-35771000D01*
X88328500Y-44513500D02*
X88328500Y-39921000D01*
X88328500Y-39921000D02*
X87968000Y-39560500D01*
D25*
X20320000Y-26162000D02*
X20320000Y-26416000D01*
D27*
X90932000Y-35687000D02*
X95250000Y-33782000D01*
X87884000Y-35687000D02*
X90932000Y-35687000D01*
X33020000Y-35687000D02*
X87884000Y-35687000D01*
D28*
X29591000Y-35687000D02*
X33020000Y-35687000D01*
X20320000Y-26416000D02*
X29591000Y-35687000D01*
D27*
X95250000Y-33782000D02*
X95250000Y-33909000D01*
D26*
X83383000Y-34671000D02*
X83383000Y-35123000D01*
X91440000Y-35306000D02*
X95250000Y-33909000D01*
X83566000Y-35306000D02*
X91440000Y-35306000D01*
X83383000Y-35123000D02*
X83566000Y-35306000D01*
X82677000Y-35179000D02*
X83383000Y-35179000D01*
X83383000Y-35235000D02*
X83383000Y-34671000D01*
X83383000Y-34671000D02*
X83383000Y-33188000D01*
X83383000Y-35179000D02*
X83383000Y-35235000D01*
X76398000Y-35179000D02*
X82677000Y-35179000D01*
X82677000Y-35179000D02*
X82733000Y-35179000D01*
X82733000Y-35235000D02*
X82733000Y-33188000D01*
X82733000Y-35179000D02*
X82733000Y-35235000D01*
X75748000Y-35179000D02*
X76398000Y-35179000D01*
X76398000Y-35235000D02*
X76398000Y-33188000D01*
X76398000Y-35179000D02*
X76398000Y-35235000D01*
X69413000Y-35179000D02*
X75748000Y-35179000D01*
X75748000Y-35235000D02*
X75748000Y-33188000D01*
X75748000Y-35179000D02*
X75748000Y-35235000D01*
X68763000Y-35179000D02*
X69413000Y-35179000D01*
X69413000Y-35235000D02*
X69413000Y-33188000D01*
X69413000Y-35179000D02*
X69413000Y-35235000D01*
X62428000Y-35179000D02*
X68763000Y-35179000D01*
X68763000Y-35235000D02*
X68763000Y-33188000D01*
X68763000Y-35179000D02*
X68763000Y-35235000D01*
X61722000Y-35179000D02*
X62428000Y-35179000D01*
X62428000Y-35235000D02*
X62428000Y-33188000D01*
X62428000Y-35179000D02*
X62428000Y-35235000D01*
X55245000Y-35179000D02*
X61722000Y-35179000D01*
X61722000Y-35179000D02*
X61778000Y-35179000D01*
X61778000Y-35235000D02*
X61778000Y-33188000D01*
X61778000Y-35179000D02*
X61778000Y-35235000D01*
X54666000Y-35179000D02*
X55245000Y-35179000D01*
X55245000Y-35179000D02*
X55316000Y-35179000D01*
X48275000Y-35179000D02*
X54666000Y-35179000D01*
X54666000Y-35179000D02*
X54666000Y-35235000D01*
X47625000Y-35179000D02*
X48275000Y-35179000D01*
X48275000Y-35179000D02*
X48331000Y-35235000D01*
X41275000Y-35179000D02*
X47625000Y-35179000D01*
X47625000Y-35179000D02*
X47681000Y-35235000D01*
X40640000Y-35179000D02*
X41275000Y-35179000D01*
X41275000Y-35179000D02*
X41290000Y-35179000D01*
X41290000Y-35179000D02*
X41346000Y-35235000D01*
X34290000Y-35179000D02*
X40640000Y-35179000D01*
X40640000Y-35179000D02*
X40696000Y-35235000D01*
X33711000Y-35179000D02*
X34290000Y-35179000D01*
X34290000Y-35179000D02*
X34361000Y-35179000D01*
X34361000Y-35179000D02*
X34361000Y-35235000D01*
X47681000Y-35235000D02*
X47688500Y-35242500D01*
X47681000Y-33188000D02*
X47681000Y-35235000D01*
X48331000Y-35235000D02*
X48323500Y-35242500D01*
X48331000Y-33188000D02*
X48331000Y-35235000D01*
X55316000Y-33188000D02*
X55316000Y-35179000D01*
X55316000Y-35179000D02*
X55316000Y-35235000D01*
X55316000Y-35235000D02*
X55308500Y-35242500D01*
X54666000Y-33188000D02*
X54666000Y-35235000D01*
X54666000Y-35235000D02*
X54673500Y-35242500D01*
X40696000Y-35235000D02*
X40703500Y-35242500D01*
X40696000Y-33188000D02*
X40696000Y-35235000D01*
X41346000Y-35235000D02*
X41338500Y-35242500D01*
X41346000Y-33188000D02*
X41346000Y-35235000D01*
X34361000Y-33188000D02*
X34361000Y-35235000D01*
X34361000Y-35235000D02*
X34353500Y-35242500D01*
X33711000Y-33188000D02*
X33711000Y-35179000D01*
X33711000Y-35179000D02*
X33711000Y-35235000D01*
X33711000Y-35235000D02*
X33718500Y-35242500D01*
D24*
X55966000Y-33188000D02*
X57363000Y-33188000D01*
X57404000Y-41402000D02*
X56007000Y-41402000D01*
X57404000Y-38354000D02*
X57404000Y-41402000D01*
X57363000Y-33188000D02*
X57404000Y-33147000D01*
X56007000Y-41402000D02*
X55978000Y-41361000D01*
X48981000Y-33188000D02*
X50251000Y-33188000D01*
X54285000Y-40711000D02*
X55978000Y-40711000D01*
X54229000Y-40767000D02*
X54285000Y-40711000D01*
X50419000Y-38481000D02*
X50419000Y-41021000D01*
X50251000Y-33188000D02*
X50419000Y-33020000D01*
X41996000Y-33188000D02*
X43856000Y-33188000D01*
X52776000Y-40061000D02*
X55978000Y-40061000D01*
X52705000Y-40132000D02*
X52776000Y-40061000D01*
X43942000Y-38481000D02*
X43942000Y-40132000D01*
X43856000Y-33188000D02*
X43942000Y-33274000D01*
X35011000Y-33188000D02*
X36789000Y-33188000D01*
X54270000Y-39411000D02*
X55978000Y-39411000D01*
X54229000Y-39370000D02*
X54270000Y-39411000D01*
X36789000Y-33188000D02*
X36830000Y-33147000D01*
D26*
X55978000Y-42661000D02*
X55978000Y-52832000D01*
X55978000Y-52832000D02*
X56134000Y-52832000D01*
D29*
X77978000Y-48768000D02*
X77978000Y-49276000D01*
X77978000Y-49276000D02*
X74422000Y-52832000D01*
X74422000Y-52832000D02*
X56134000Y-52832000D01*
X56134000Y-52832000D02*
X55626000Y-52832000D01*
X55626000Y-52832000D02*
X55118000Y-52832000D01*
X55118000Y-52832000D02*
X51054000Y-48768000D01*
D24*
X85518000Y-41990000D02*
X85518000Y-44243000D01*
X85518000Y-44243000D02*
X85788500Y-44513500D01*
X80264000Y-41990000D02*
X85518000Y-41990000D01*
X85768000Y-41740000D02*
X85768000Y-39560500D01*
X85518000Y-41990000D02*
X85768000Y-41740000D01*
M02*
