M48
;DRILL file {KiCad 4.0.5+dfsg1-4} date Sun Jun 18 22:39:27 2017
;FORMAT={-:-/ absolute / inch / decimal}
FMAT,2
INCH,TZ
T1C0.016
T2C0.035
T3C0.039
T4C0.047
T5C0.055
%
G90
G05
M72
T1
X1.0115Y-1.1115
X1.05Y-1.57
X1.23Y-1.57
X1.25Y-0.705
X1.25Y-0.745
X1.31Y-0.705
X1.31Y-0.745
X1.3538Y-1.9988
X1.37Y-0.705
X1.37Y-0.745
X1.4Y-1.67
X1.42Y-1.135
X1.43Y-0.705
X1.43Y-0.705
X1.43Y-0.745
X1.43Y-0.745
X1.49Y-0.705
X1.49Y-0.745
X1.52Y-1.305
X1.52Y-1.585
X1.55Y-0.705
X1.55Y-0.745
X1.61Y-0.705
X1.61Y-0.705
X1.61Y-0.745
X1.61Y-0.745
X1.67Y-0.705
X1.67Y-0.745
X1.7Y-1.135
X1.73Y-0.705
X1.73Y-0.745
X1.7825Y-1.77
X1.79Y-0.705
X1.79Y-0.705
X1.79Y-0.745
X1.79Y-0.745
X1.79Y-1.305
X1.79Y-1.63
X1.83Y-1.825
X1.85Y-0.705
X1.85Y-0.745
X1.91Y-0.705
X1.91Y-0.745
X1.97Y-0.705
X1.97Y-0.705
X1.97Y-0.745
X1.97Y-0.745
X1.98Y-1.135
X2.03Y-0.705
X2.03Y-0.745
X2.07Y-1.305
X2.08Y-1.675
X2.09Y-0.705
X2.09Y-0.745
X2.15Y-0.705
X2.15Y-0.705
X2.15Y-0.745
X2.15Y-0.745
X2.21Y-0.705
X2.21Y-0.745
X2.26Y-1.135
X2.27Y-0.705
X2.27Y-0.745
X2.27Y-1.695
X2.3Y-1.72
X2.3275Y-1.785
X2.33Y-0.705
X2.33Y-0.705
X2.33Y-0.745
X2.33Y-0.745
X2.35Y-1.305
X2.3675Y-1.9475
X2.39Y-0.705
X2.39Y-0.745
X2.41Y-1.8125
X2.45Y-0.705
X2.45Y-0.745
X2.495Y-1.755
X2.51Y-0.705
X2.51Y-0.705
X2.51Y-0.745
X2.51Y-0.745
X2.54Y-1.135
X2.55Y-1.615
X2.57Y-0.705
X2.57Y-0.745
X2.575Y-1.7225
X2.6Y-1.635
X2.62Y-1.305
X2.62Y-1.545
X2.63Y-0.705
X2.63Y-0.745
X2.63Y-1.6875
X2.6875Y-1.7625
X2.6875Y-1.87
X2.69Y-0.705
X2.69Y-0.705
X2.69Y-0.745
X2.69Y-0.745
X2.75Y-0.705
X2.75Y-0.745
X2.81Y-0.705
X2.81Y-0.745
X2.81Y-1.135
X2.87Y-0.705
X2.87Y-0.705
X2.87Y-0.745
X2.87Y-0.745
X2.9Y-1.305
X2.93Y-0.705
X2.93Y-0.745
X2.935Y-1.56
X2.99Y-0.705
X2.99Y-0.745
X3.05Y-0.705
X3.05Y-0.705
X3.05Y-0.745
X3.05Y-0.745
X3.07Y-1.135
X3.11Y-0.705
X3.11Y-0.745
X3.17Y-0.705
X3.17Y-0.745
X3.17Y-1.305
X3.23Y-0.705
X3.23Y-0.705
X3.23Y-0.745
X3.23Y-0.745
X3.2325Y-2.0425
X3.29Y-0.705
X3.29Y-0.745
X3.34Y-1.135
X3.35Y-0.705
X3.35Y-0.745
X3.41Y-0.705
X3.41Y-0.745
X3.41Y-1.58
X3.455Y-1.305
X3.47Y-0.705
X3.47Y-0.745
X3.5Y-1.56
X3.53Y-0.705
X3.53Y-0.775
X3.53Y-1.045
X3.56Y-0.745
X3.57Y-0.815
X3.5759Y-1.8891
X3.6Y-0.785
X3.6009Y-1.8641
X3.61Y-0.855
X3.62Y-1.045
X3.6259Y-1.8391
X3.64Y-0.825
X3.6484Y-1.8116
X3.65Y-0.895
X3.6759Y-1.7841
X3.68Y-0.865
X3.69Y-0.935
X3.7059Y-1.7691
X3.71Y-1.215
X3.72Y-0.905
X3.7409Y-1.7691
X3.76Y-0.945
X3.7859Y-1.7691
X3.8109Y-1.7441
X3.8384Y-1.7166
X3.8609Y-1.6841
T2
X3.02Y-1.715
X3.12Y-1.715
T3
X1.475Y-1.92
X1.575Y-1.92
X1.675Y-1.92
X1.775Y-1.92
X1.875Y-1.92
X1.975Y-1.92
X2.585Y-1.92
X2.685Y-1.92
X2.785Y-1.92
X2.885Y-1.92
X2.985Y-1.92
X3.085Y-1.92
T4
X1.2031Y-0.92
X1.3409Y-0.92
X1.4787Y-0.92
X1.6165Y-0.92
X1.7543Y-0.92
X1.892Y-0.92
X2.0298Y-0.92
X2.1676Y-0.92
X2.3054Y-0.92
X2.4432Y-0.92
X2.581Y-0.92
X2.7188Y-0.92
X2.8566Y-0.92
X2.9944Y-0.92
X3.1322Y-0.92
X3.27Y-0.92
T5
X0.8Y-1.03
X0.8Y-1.33
X3.75Y-1.03
X3.75Y-1.33
T0
M30
