G04 #@! TF.FileFunction,Legend,Bot*
%FSLAX46Y46*%
G04 Gerber Fmt 4.6, Leading zero omitted, Abs format (unit mm)*
G04 Created by KiCad (PCBNEW 4.0.5+dfsg1-4) date Fri May  5 03:22:00 2017*
%MOMM*%
%LPD*%
G01*
G04 APERTURE LIST*
%ADD10C,0.100000*%
%ADD11C,0.300000*%
%ADD12C,0.500000*%
G04 APERTURE END LIST*
D10*
D11*
X31432428Y-17633143D02*
X30289571Y-17633143D01*
X37782428Y-17633143D02*
X36639571Y-17633143D01*
X44767428Y-17633143D02*
X43624571Y-17633143D01*
X51752428Y-17633143D02*
X50609571Y-17633143D01*
X58737428Y-17633143D02*
X57594571Y-17633143D01*
X65722428Y-17633143D02*
X64579571Y-17633143D01*
X72707428Y-17633143D02*
X71564571Y-17633143D01*
X80327428Y-17633143D02*
X79184571Y-17633143D01*
X83073857Y-16704571D02*
X82788143Y-16704571D01*
X82645285Y-16776000D01*
X82502428Y-16918857D01*
X82431000Y-17204571D01*
X82431000Y-17704571D01*
X82502428Y-17990286D01*
X82645285Y-18133143D01*
X82788143Y-18204571D01*
X83073857Y-18204571D01*
X83216714Y-18133143D01*
X83359571Y-17990286D01*
X83431000Y-17704571D01*
X83431000Y-17204571D01*
X83359571Y-16918857D01*
X83216714Y-16776000D01*
X83073857Y-16704571D01*
X75517428Y-18204571D02*
X76374571Y-18204571D01*
X75945999Y-18204571D02*
X75945999Y-16704571D01*
X76088856Y-16918857D01*
X76231714Y-17061714D01*
X76374571Y-17133143D01*
X69389571Y-16847429D02*
X69318142Y-16776000D01*
X69175285Y-16704571D01*
X68818142Y-16704571D01*
X68675285Y-16776000D01*
X68603856Y-16847429D01*
X68532428Y-16990286D01*
X68532428Y-17133143D01*
X68603856Y-17347429D01*
X69460999Y-18204571D01*
X68532428Y-18204571D01*
X62475999Y-16704571D02*
X61547428Y-16704571D01*
X62047428Y-17276000D01*
X61833142Y-17276000D01*
X61690285Y-17347429D01*
X61618856Y-17418857D01*
X61547428Y-17561714D01*
X61547428Y-17918857D01*
X61618856Y-18061714D01*
X61690285Y-18133143D01*
X61833142Y-18204571D01*
X62261714Y-18204571D01*
X62404571Y-18133143D01*
X62475999Y-18061714D01*
X54705285Y-17204571D02*
X54705285Y-18204571D01*
X55062428Y-16633143D02*
X55419571Y-17704571D01*
X54490999Y-17704571D01*
X47648856Y-16704571D02*
X48363142Y-16704571D01*
X48434571Y-17418857D01*
X48363142Y-17347429D01*
X48220285Y-17276000D01*
X47863142Y-17276000D01*
X47720285Y-17347429D01*
X47648856Y-17418857D01*
X47577428Y-17561714D01*
X47577428Y-17918857D01*
X47648856Y-18061714D01*
X47720285Y-18133143D01*
X47863142Y-18204571D01*
X48220285Y-18204571D01*
X48363142Y-18133143D01*
X48434571Y-18061714D01*
X40735285Y-16704571D02*
X41020999Y-16704571D01*
X41163856Y-16776000D01*
X41235285Y-16847429D01*
X41378142Y-17061714D01*
X41449571Y-17347429D01*
X41449571Y-17918857D01*
X41378142Y-18061714D01*
X41306714Y-18133143D01*
X41163856Y-18204571D01*
X40878142Y-18204571D01*
X40735285Y-18133143D01*
X40663856Y-18061714D01*
X40592428Y-17918857D01*
X40592428Y-17561714D01*
X40663856Y-17418857D01*
X40735285Y-17347429D01*
X40878142Y-17276000D01*
X41163856Y-17276000D01*
X41306714Y-17347429D01*
X41378142Y-17418857D01*
X41449571Y-17561714D01*
X34535999Y-16704571D02*
X33535999Y-16704571D01*
X34178856Y-18204571D01*
D12*
X89104286Y-31456143D02*
X89104286Y-28456143D01*
X87961429Y-28456143D01*
X87675715Y-28599000D01*
X87532858Y-28741857D01*
X87390001Y-29027571D01*
X87390001Y-29456143D01*
X87532858Y-29741857D01*
X87675715Y-29884714D01*
X87961429Y-30027571D01*
X89104286Y-30027571D01*
X85675715Y-31456143D02*
X85961429Y-31313286D01*
X86104286Y-31170429D01*
X86247143Y-30884714D01*
X86247143Y-30027571D01*
X86104286Y-29741857D01*
X85961429Y-29599000D01*
X85675715Y-29456143D01*
X85247143Y-29456143D01*
X84961429Y-29599000D01*
X84818572Y-29741857D01*
X84675715Y-30027571D01*
X84675715Y-30884714D01*
X84818572Y-31170429D01*
X84961429Y-31313286D01*
X85247143Y-31456143D01*
X85675715Y-31456143D01*
X83675715Y-29456143D02*
X83104286Y-31456143D01*
X82532857Y-30027571D01*
X81961429Y-31456143D01*
X81390000Y-29456143D01*
X79104286Y-31313286D02*
X79390000Y-31456143D01*
X79961429Y-31456143D01*
X80247143Y-31313286D01*
X80390000Y-31027571D01*
X80390000Y-29884714D01*
X80247143Y-29599000D01*
X79961429Y-29456143D01*
X79390000Y-29456143D01*
X79104286Y-29599000D01*
X78961429Y-29884714D01*
X78961429Y-30170429D01*
X80390000Y-30456143D01*
X77675714Y-31456143D02*
X77675714Y-29456143D01*
X77675714Y-30027571D02*
X77532857Y-29741857D01*
X77390000Y-29599000D01*
X77104286Y-29456143D01*
X76818571Y-29456143D01*
X73532857Y-31456143D02*
X73532857Y-29456143D01*
X73532857Y-29741857D02*
X73390000Y-29599000D01*
X73104286Y-29456143D01*
X72675714Y-29456143D01*
X72390000Y-29599000D01*
X72247143Y-29884714D01*
X72247143Y-31456143D01*
X72247143Y-29884714D02*
X72104286Y-29599000D01*
X71818572Y-29456143D01*
X71390000Y-29456143D01*
X71104286Y-29599000D01*
X70961429Y-29884714D01*
X70961429Y-31456143D01*
X68247143Y-31456143D02*
X68247143Y-29884714D01*
X68390000Y-29599000D01*
X68675714Y-29456143D01*
X69247143Y-29456143D01*
X69532857Y-29599000D01*
X68247143Y-31313286D02*
X68532857Y-31456143D01*
X69247143Y-31456143D01*
X69532857Y-31313286D01*
X69675714Y-31027571D01*
X69675714Y-30741857D01*
X69532857Y-30456143D01*
X69247143Y-30313286D01*
X68532857Y-30313286D01*
X68247143Y-30170429D01*
X66818571Y-29456143D02*
X66818571Y-31456143D01*
X66818571Y-29741857D02*
X66675714Y-29599000D01*
X66390000Y-29456143D01*
X65961428Y-29456143D01*
X65675714Y-29599000D01*
X65532857Y-29884714D01*
X65532857Y-31456143D01*
X62818571Y-31456143D02*
X62818571Y-29884714D01*
X62961428Y-29599000D01*
X63247142Y-29456143D01*
X63818571Y-29456143D01*
X64104285Y-29599000D01*
X62818571Y-31313286D02*
X63104285Y-31456143D01*
X63818571Y-31456143D01*
X64104285Y-31313286D01*
X64247142Y-31027571D01*
X64247142Y-30741857D01*
X64104285Y-30456143D01*
X63818571Y-30313286D01*
X63104285Y-30313286D01*
X62818571Y-30170429D01*
X60104285Y-29456143D02*
X60104285Y-31884714D01*
X60247142Y-32170429D01*
X60389999Y-32313286D01*
X60675714Y-32456143D01*
X61104285Y-32456143D01*
X61389999Y-32313286D01*
X60104285Y-31313286D02*
X60389999Y-31456143D01*
X60961428Y-31456143D01*
X61247142Y-31313286D01*
X61389999Y-31170429D01*
X61532856Y-30884714D01*
X61532856Y-30027571D01*
X61389999Y-29741857D01*
X61247142Y-29599000D01*
X60961428Y-29456143D01*
X60389999Y-29456143D01*
X60104285Y-29599000D01*
X57532856Y-31313286D02*
X57818570Y-31456143D01*
X58389999Y-31456143D01*
X58675713Y-31313286D01*
X58818570Y-31027571D01*
X58818570Y-29884714D01*
X58675713Y-29599000D01*
X58389999Y-29456143D01*
X57818570Y-29456143D01*
X57532856Y-29599000D01*
X57389999Y-29884714D01*
X57389999Y-30170429D01*
X58818570Y-30456143D01*
X56104284Y-31456143D02*
X56104284Y-29456143D01*
X56104284Y-30027571D02*
X55961427Y-29741857D01*
X55818570Y-29599000D01*
X55532856Y-29456143D01*
X55247141Y-29456143D01*
D11*
X88082571Y-40404571D02*
X88796857Y-40404571D01*
X88796857Y-38904571D01*
X87582571Y-40404571D02*
X87582571Y-39404571D01*
X87582571Y-38904571D02*
X87654000Y-38976000D01*
X87582571Y-39047429D01*
X87511143Y-38976000D01*
X87582571Y-38904571D01*
X87582571Y-39047429D01*
X86868285Y-40404571D02*
X86868285Y-39404571D01*
X86868285Y-39547429D02*
X86796857Y-39476000D01*
X86653999Y-39404571D01*
X86439714Y-39404571D01*
X86296857Y-39476000D01*
X86225428Y-39618857D01*
X86225428Y-40404571D01*
X86225428Y-39618857D02*
X86153999Y-39476000D01*
X86011142Y-39404571D01*
X85796857Y-39404571D01*
X85653999Y-39476000D01*
X85582571Y-39618857D01*
X85582571Y-40404571D01*
X84868285Y-40404571D02*
X84868285Y-39404571D01*
X84868285Y-38904571D02*
X84939714Y-38976000D01*
X84868285Y-39047429D01*
X84796857Y-38976000D01*
X84868285Y-38904571D01*
X84868285Y-39047429D01*
X84368285Y-39404571D02*
X83796856Y-39404571D01*
X84153999Y-38904571D02*
X84153999Y-40190286D01*
X84082571Y-40333143D01*
X83939713Y-40404571D01*
X83796856Y-40404571D01*
X83368285Y-40333143D02*
X83225428Y-40404571D01*
X82939713Y-40404571D01*
X82796856Y-40333143D01*
X82725428Y-40190286D01*
X82725428Y-40118857D01*
X82796856Y-39976000D01*
X82939713Y-39904571D01*
X83153999Y-39904571D01*
X83296856Y-39833143D01*
X83368285Y-39690286D01*
X83368285Y-39618857D01*
X83296856Y-39476000D01*
X83153999Y-39404571D01*
X82939713Y-39404571D01*
X82796856Y-39476000D01*
X82082570Y-40261714D02*
X82011142Y-40333143D01*
X82082570Y-40404571D01*
X82153999Y-40333143D01*
X82082570Y-40261714D01*
X82082570Y-40404571D01*
X82082570Y-39476000D02*
X82011142Y-39547429D01*
X82082570Y-39618857D01*
X82153999Y-39547429D01*
X82082570Y-39476000D01*
X82082570Y-39618857D01*
X80296856Y-39047429D02*
X80225427Y-38976000D01*
X80082570Y-38904571D01*
X79725427Y-38904571D01*
X79582570Y-38976000D01*
X79511141Y-39047429D01*
X79439713Y-39190286D01*
X79439713Y-39333143D01*
X79511141Y-39547429D01*
X80368284Y-40404571D01*
X79439713Y-40404571D01*
X78868285Y-39976000D02*
X78153999Y-39976000D01*
X79011142Y-40404571D02*
X78511142Y-38904571D01*
X78011142Y-40404571D01*
X76368285Y-39404571D02*
X76368285Y-40904571D01*
X76368285Y-39476000D02*
X76225428Y-39404571D01*
X75939714Y-39404571D01*
X75796857Y-39476000D01*
X75725428Y-39547429D01*
X75653999Y-39690286D01*
X75653999Y-40118857D01*
X75725428Y-40261714D01*
X75796857Y-40333143D01*
X75939714Y-40404571D01*
X76225428Y-40404571D01*
X76368285Y-40333143D01*
X74439714Y-40333143D02*
X74582571Y-40404571D01*
X74868285Y-40404571D01*
X75011142Y-40333143D01*
X75082571Y-40190286D01*
X75082571Y-39618857D01*
X75011142Y-39476000D01*
X74868285Y-39404571D01*
X74582571Y-39404571D01*
X74439714Y-39476000D01*
X74368285Y-39618857D01*
X74368285Y-39761714D01*
X75082571Y-39904571D01*
X73725428Y-40404571D02*
X73725428Y-39404571D01*
X73725428Y-39690286D02*
X73654000Y-39547429D01*
X73582571Y-39476000D01*
X73439714Y-39404571D01*
X73296857Y-39404571D01*
X71439714Y-40404571D02*
X71582572Y-40333143D01*
X71654000Y-40261714D01*
X71725429Y-40118857D01*
X71725429Y-39690286D01*
X71654000Y-39547429D01*
X71582572Y-39476000D01*
X71439714Y-39404571D01*
X71225429Y-39404571D01*
X71082572Y-39476000D01*
X71011143Y-39547429D01*
X70939714Y-39690286D01*
X70939714Y-40118857D01*
X71011143Y-40261714D01*
X71082572Y-40333143D01*
X71225429Y-40404571D01*
X71439714Y-40404571D01*
X69654000Y-39404571D02*
X69654000Y-40404571D01*
X70296857Y-39404571D02*
X70296857Y-40190286D01*
X70225429Y-40333143D01*
X70082571Y-40404571D01*
X69868286Y-40404571D01*
X69725429Y-40333143D01*
X69654000Y-40261714D01*
X69154000Y-39404571D02*
X68582571Y-39404571D01*
X68939714Y-38904571D02*
X68939714Y-40190286D01*
X68868286Y-40333143D01*
X68725428Y-40404571D01*
X68582571Y-40404571D01*
X68082571Y-39404571D02*
X68082571Y-40904571D01*
X68082571Y-39476000D02*
X67939714Y-39404571D01*
X67654000Y-39404571D01*
X67511143Y-39476000D01*
X67439714Y-39547429D01*
X67368285Y-39690286D01*
X67368285Y-40118857D01*
X67439714Y-40261714D01*
X67511143Y-40333143D01*
X67654000Y-40404571D01*
X67939714Y-40404571D01*
X68082571Y-40333143D01*
X66082571Y-39404571D02*
X66082571Y-40404571D01*
X66725428Y-39404571D02*
X66725428Y-40190286D01*
X66654000Y-40333143D01*
X66511142Y-40404571D01*
X66296857Y-40404571D01*
X66154000Y-40333143D01*
X66082571Y-40261714D01*
X65582571Y-39404571D02*
X65011142Y-39404571D01*
X65368285Y-38904571D02*
X65368285Y-40190286D01*
X65296857Y-40333143D01*
X65153999Y-40404571D01*
X65011142Y-40404571D01*
X62939714Y-40976000D02*
X63011142Y-40904571D01*
X63153999Y-40690286D01*
X63225428Y-40547429D01*
X63296857Y-40333143D01*
X63368285Y-39976000D01*
X63368285Y-39690286D01*
X63296857Y-39333143D01*
X63225428Y-39118857D01*
X63153999Y-38976000D01*
X63011142Y-38761714D01*
X62939714Y-38690286D01*
X62439714Y-39047429D02*
X62368285Y-38976000D01*
X62225428Y-38904571D01*
X61868285Y-38904571D01*
X61725428Y-38976000D01*
X61653999Y-39047429D01*
X61582571Y-39190286D01*
X61582571Y-39333143D01*
X61653999Y-39547429D01*
X62511142Y-40404571D01*
X61582571Y-40404571D01*
X60939714Y-40261714D02*
X60868286Y-40333143D01*
X60939714Y-40404571D01*
X61011143Y-40333143D01*
X60939714Y-40261714D01*
X60939714Y-40404571D01*
X59439714Y-40404571D02*
X60296857Y-40404571D01*
X59868285Y-40404571D02*
X59868285Y-38904571D01*
X60011142Y-39118857D01*
X60154000Y-39261714D01*
X60296857Y-39333143D01*
X58796857Y-39833143D02*
X57654000Y-39833143D01*
X57011143Y-39047429D02*
X56939714Y-38976000D01*
X56796857Y-38904571D01*
X56439714Y-38904571D01*
X56296857Y-38976000D01*
X56225428Y-39047429D01*
X56154000Y-39190286D01*
X56154000Y-39333143D01*
X56225428Y-39547429D01*
X57082571Y-40404571D01*
X56154000Y-40404571D01*
X55511143Y-40261714D02*
X55439715Y-40333143D01*
X55511143Y-40404571D01*
X55582572Y-40333143D01*
X55511143Y-40261714D01*
X55511143Y-40404571D01*
X54082571Y-38904571D02*
X54796857Y-38904571D01*
X54868286Y-39618857D01*
X54796857Y-39547429D01*
X54654000Y-39476000D01*
X54296857Y-39476000D01*
X54154000Y-39547429D01*
X54082571Y-39618857D01*
X54011143Y-39761714D01*
X54011143Y-40118857D01*
X54082571Y-40261714D01*
X54154000Y-40333143D01*
X54296857Y-40404571D01*
X54654000Y-40404571D01*
X54796857Y-40333143D01*
X54868286Y-40261714D01*
X51582572Y-40333143D02*
X51725429Y-40404571D01*
X52011143Y-40404571D01*
X52154001Y-40333143D01*
X52225429Y-40261714D01*
X52296858Y-40118857D01*
X52296858Y-39690286D01*
X52225429Y-39547429D01*
X52154001Y-39476000D01*
X52011143Y-39404571D01*
X51725429Y-39404571D01*
X51582572Y-39476000D01*
X50296858Y-39404571D02*
X50296858Y-40404571D01*
X50939715Y-39404571D02*
X50939715Y-40190286D01*
X50868287Y-40333143D01*
X50725429Y-40404571D01*
X50511144Y-40404571D01*
X50368287Y-40333143D01*
X50296858Y-40261714D01*
X49582572Y-40404571D02*
X49582572Y-39404571D01*
X49582572Y-39690286D02*
X49511144Y-39547429D01*
X49439715Y-39476000D01*
X49296858Y-39404571D01*
X49154001Y-39404571D01*
X48654001Y-40404571D02*
X48654001Y-39404571D01*
X48654001Y-39690286D02*
X48582573Y-39547429D01*
X48511144Y-39476000D01*
X48368287Y-39404571D01*
X48225430Y-39404571D01*
X47154002Y-40333143D02*
X47296859Y-40404571D01*
X47582573Y-40404571D01*
X47725430Y-40333143D01*
X47796859Y-40190286D01*
X47796859Y-39618857D01*
X47725430Y-39476000D01*
X47582573Y-39404571D01*
X47296859Y-39404571D01*
X47154002Y-39476000D01*
X47082573Y-39618857D01*
X47082573Y-39761714D01*
X47796859Y-39904571D01*
X46439716Y-39404571D02*
X46439716Y-40404571D01*
X46439716Y-39547429D02*
X46368288Y-39476000D01*
X46225430Y-39404571D01*
X46011145Y-39404571D01*
X45868288Y-39476000D01*
X45796859Y-39618857D01*
X45796859Y-40404571D01*
X45296859Y-39404571D02*
X44725430Y-39404571D01*
X45082573Y-38904571D02*
X45082573Y-40190286D01*
X45011145Y-40333143D01*
X44868287Y-40404571D01*
X44725430Y-40404571D01*
X42868287Y-40404571D02*
X43011145Y-40333143D01*
X43082573Y-40190286D01*
X43082573Y-38904571D01*
X42296859Y-40404571D02*
X42296859Y-39404571D01*
X42296859Y-38904571D02*
X42368288Y-38976000D01*
X42296859Y-39047429D01*
X42225431Y-38976000D01*
X42296859Y-38904571D01*
X42296859Y-39047429D01*
X41582573Y-40404571D02*
X41582573Y-39404571D01*
X41582573Y-39547429D02*
X41511145Y-39476000D01*
X41368287Y-39404571D01*
X41154002Y-39404571D01*
X41011145Y-39476000D01*
X40939716Y-39618857D01*
X40939716Y-40404571D01*
X40939716Y-39618857D02*
X40868287Y-39476000D01*
X40725430Y-39404571D01*
X40511145Y-39404571D01*
X40368287Y-39476000D01*
X40296859Y-39618857D01*
X40296859Y-40404571D01*
X39582573Y-40404571D02*
X39582573Y-39404571D01*
X39582573Y-38904571D02*
X39654002Y-38976000D01*
X39582573Y-39047429D01*
X39511145Y-38976000D01*
X39582573Y-38904571D01*
X39582573Y-39047429D01*
X39082573Y-39404571D02*
X38511144Y-39404571D01*
X38868287Y-38904571D02*
X38868287Y-40190286D01*
X38796859Y-40333143D01*
X38654001Y-40404571D01*
X38511144Y-40404571D01*
X38154001Y-40976000D02*
X38082573Y-40904571D01*
X37939716Y-40690286D01*
X37868287Y-40547429D01*
X37796858Y-40333143D01*
X37725430Y-39976000D01*
X37725430Y-39690286D01*
X37796858Y-39333143D01*
X37868287Y-39118857D01*
X37939716Y-38976000D01*
X38082573Y-38761714D01*
X38154001Y-38690286D01*
X36939716Y-40333143D02*
X36939716Y-40404571D01*
X37011144Y-40547429D01*
X37082573Y-40618857D01*
X34368287Y-40404571D02*
X35225430Y-40404571D01*
X34796858Y-40404571D02*
X34796858Y-38904571D01*
X34939715Y-39118857D01*
X35082573Y-39261714D01*
X35225430Y-39333143D01*
X33082573Y-38904571D02*
X33368287Y-38904571D01*
X33511144Y-38976000D01*
X33582573Y-39047429D01*
X33725430Y-39261714D01*
X33796859Y-39547429D01*
X33796859Y-40118857D01*
X33725430Y-40261714D01*
X33654002Y-40333143D01*
X33511144Y-40404571D01*
X33225430Y-40404571D01*
X33082573Y-40333143D01*
X33011144Y-40261714D01*
X32939716Y-40118857D01*
X32939716Y-39761714D01*
X33011144Y-39618857D01*
X33082573Y-39547429D01*
X33225430Y-39476000D01*
X33511144Y-39476000D01*
X33654002Y-39547429D01*
X33725430Y-39618857D01*
X33796859Y-39761714D01*
X32368288Y-39976000D02*
X31654002Y-39976000D01*
X32511145Y-40404571D02*
X32011145Y-38904571D01*
X31511145Y-40404571D01*
X30082574Y-39404571D02*
X29511145Y-39404571D01*
X29868288Y-38904571D02*
X29868288Y-40190286D01*
X29796860Y-40333143D01*
X29654002Y-40404571D01*
X29511145Y-40404571D01*
X28796859Y-40404571D02*
X28939717Y-40333143D01*
X29011145Y-40261714D01*
X29082574Y-40118857D01*
X29082574Y-39690286D01*
X29011145Y-39547429D01*
X28939717Y-39476000D01*
X28796859Y-39404571D01*
X28582574Y-39404571D01*
X28439717Y-39476000D01*
X28368288Y-39547429D01*
X28296859Y-39690286D01*
X28296859Y-40118857D01*
X28368288Y-40261714D01*
X28439717Y-40333143D01*
X28582574Y-40404571D01*
X28796859Y-40404571D01*
X27868288Y-39404571D02*
X27296859Y-39404571D01*
X27654002Y-38904571D02*
X27654002Y-40190286D01*
X27582574Y-40333143D01*
X27439716Y-40404571D01*
X27296859Y-40404571D01*
X26154002Y-40404571D02*
X26154002Y-39618857D01*
X26225431Y-39476000D01*
X26368288Y-39404571D01*
X26654002Y-39404571D01*
X26796859Y-39476000D01*
X26154002Y-40333143D02*
X26296859Y-40404571D01*
X26654002Y-40404571D01*
X26796859Y-40333143D01*
X26868288Y-40190286D01*
X26868288Y-40047429D01*
X26796859Y-39904571D01*
X26654002Y-39833143D01*
X26296859Y-39833143D01*
X26154002Y-39761714D01*
X25225430Y-40404571D02*
X25368288Y-40333143D01*
X25439716Y-40190286D01*
X25439716Y-38904571D01*
X88511143Y-41454571D02*
X88225429Y-41454571D01*
X88082571Y-41526000D01*
X87939714Y-41668857D01*
X87868286Y-41954571D01*
X87868286Y-42454571D01*
X87939714Y-42740286D01*
X88082571Y-42883143D01*
X88225429Y-42954571D01*
X88511143Y-42954571D01*
X88654000Y-42883143D01*
X88796857Y-42740286D01*
X88868286Y-42454571D01*
X88868286Y-41954571D01*
X88796857Y-41668857D01*
X88654000Y-41526000D01*
X88511143Y-41454571D01*
X87439714Y-41454571D02*
X86939714Y-42954571D01*
X86439714Y-41454571D01*
X85082571Y-42954571D02*
X85582571Y-42240286D01*
X85939714Y-42954571D02*
X85939714Y-41454571D01*
X85368286Y-41454571D01*
X85225428Y-41526000D01*
X85154000Y-41597429D01*
X85082571Y-41740286D01*
X85082571Y-41954571D01*
X85154000Y-42097429D01*
X85225428Y-42168857D01*
X85368286Y-42240286D01*
X85939714Y-42240286D01*
X83725428Y-42954571D02*
X84439714Y-42954571D01*
X84439714Y-41454571D01*
X82225428Y-41954571D02*
X81939714Y-42954571D01*
X81654000Y-42240286D01*
X81368285Y-42954571D01*
X81082571Y-41954571D01*
X80511142Y-42954571D02*
X80511142Y-41954571D01*
X80511142Y-41454571D02*
X80582571Y-41526000D01*
X80511142Y-41597429D01*
X80439714Y-41526000D01*
X80511142Y-41454571D01*
X80511142Y-41597429D01*
X79582570Y-42954571D02*
X79725428Y-42883143D01*
X79796856Y-42740286D01*
X79796856Y-41454571D01*
X78796856Y-42954571D02*
X78939714Y-42883143D01*
X79011142Y-42740286D01*
X79011142Y-41454571D01*
X76868285Y-42954571D02*
X77011143Y-42883143D01*
X77082571Y-42740286D01*
X77082571Y-41454571D01*
X76296857Y-42954571D02*
X76296857Y-41954571D01*
X76296857Y-41454571D02*
X76368286Y-41526000D01*
X76296857Y-41597429D01*
X76225429Y-41526000D01*
X76296857Y-41454571D01*
X76296857Y-41597429D01*
X75796857Y-41954571D02*
X75225428Y-41954571D01*
X75582571Y-41454571D02*
X75582571Y-42740286D01*
X75511143Y-42883143D01*
X75368285Y-42954571D01*
X75225428Y-42954571D01*
X73582571Y-42954571D02*
X73582571Y-41954571D01*
X73582571Y-41454571D02*
X73654000Y-41526000D01*
X73582571Y-41597429D01*
X73511143Y-41526000D01*
X73582571Y-41454571D01*
X73582571Y-41597429D01*
X73082571Y-41954571D02*
X72511142Y-41954571D01*
X72868285Y-42954571D02*
X72868285Y-41668857D01*
X72796857Y-41526000D01*
X72653999Y-41454571D01*
X72511142Y-41454571D01*
X70225428Y-42954571D02*
X70225428Y-42168857D01*
X70296857Y-42026000D01*
X70439714Y-41954571D01*
X70725428Y-41954571D01*
X70868285Y-42026000D01*
X70225428Y-42883143D02*
X70368285Y-42954571D01*
X70725428Y-42954571D01*
X70868285Y-42883143D01*
X70939714Y-42740286D01*
X70939714Y-42597429D01*
X70868285Y-42454571D01*
X70725428Y-42383143D01*
X70368285Y-42383143D01*
X70225428Y-42311714D01*
X69511142Y-41954571D02*
X69511142Y-42954571D01*
X69511142Y-42097429D02*
X69439714Y-42026000D01*
X69296856Y-41954571D01*
X69082571Y-41954571D01*
X68939714Y-42026000D01*
X68868285Y-42168857D01*
X68868285Y-42954571D01*
X68296856Y-41954571D02*
X67939713Y-42954571D01*
X67582571Y-41954571D02*
X67939713Y-42954571D01*
X68082571Y-43311714D01*
X68153999Y-43383143D01*
X68296856Y-43454571D01*
X65653999Y-42954571D02*
X65796857Y-42883143D01*
X65868285Y-42811714D01*
X65939714Y-42668857D01*
X65939714Y-42240286D01*
X65868285Y-42097429D01*
X65796857Y-42026000D01*
X65653999Y-41954571D01*
X65439714Y-41954571D01*
X65296857Y-42026000D01*
X65225428Y-42097429D01*
X65153999Y-42240286D01*
X65153999Y-42668857D01*
X65225428Y-42811714D01*
X65296857Y-42883143D01*
X65439714Y-42954571D01*
X65653999Y-42954571D01*
X64725428Y-41954571D02*
X64153999Y-41954571D01*
X64511142Y-42954571D02*
X64511142Y-41668857D01*
X64439714Y-41526000D01*
X64296856Y-41454571D01*
X64153999Y-41454571D01*
X62296856Y-42954571D02*
X62439714Y-42883143D01*
X62511142Y-42811714D01*
X62582571Y-42668857D01*
X62582571Y-42240286D01*
X62511142Y-42097429D01*
X62439714Y-42026000D01*
X62296856Y-41954571D01*
X62082571Y-41954571D01*
X61939714Y-42026000D01*
X61868285Y-42097429D01*
X61796856Y-42240286D01*
X61796856Y-42668857D01*
X61868285Y-42811714D01*
X61939714Y-42883143D01*
X62082571Y-42954571D01*
X62296856Y-42954571D01*
X60511142Y-41954571D02*
X60511142Y-42954571D01*
X61153999Y-41954571D02*
X61153999Y-42740286D01*
X61082571Y-42883143D01*
X60939713Y-42954571D01*
X60725428Y-42954571D01*
X60582571Y-42883143D01*
X60511142Y-42811714D01*
X60011142Y-41954571D02*
X59439713Y-41954571D01*
X59796856Y-41454571D02*
X59796856Y-42740286D01*
X59725428Y-42883143D01*
X59582570Y-42954571D01*
X59439713Y-42954571D01*
X58939713Y-41954571D02*
X58939713Y-43454571D01*
X58939713Y-42026000D02*
X58796856Y-41954571D01*
X58511142Y-41954571D01*
X58368285Y-42026000D01*
X58296856Y-42097429D01*
X58225427Y-42240286D01*
X58225427Y-42668857D01*
X58296856Y-42811714D01*
X58368285Y-42883143D01*
X58511142Y-42954571D01*
X58796856Y-42954571D01*
X58939713Y-42883143D01*
X56939713Y-41954571D02*
X56939713Y-42954571D01*
X57582570Y-41954571D02*
X57582570Y-42740286D01*
X57511142Y-42883143D01*
X57368284Y-42954571D01*
X57153999Y-42954571D01*
X57011142Y-42883143D01*
X56939713Y-42811714D01*
X56439713Y-41954571D02*
X55868284Y-41954571D01*
X56225427Y-41454571D02*
X56225427Y-42740286D01*
X56153999Y-42883143D01*
X56011141Y-42954571D01*
X55868284Y-42954571D01*
X55439713Y-42883143D02*
X55296856Y-42954571D01*
X55011141Y-42954571D01*
X54868284Y-42883143D01*
X54796856Y-42740286D01*
X54796856Y-42668857D01*
X54868284Y-42526000D01*
X55011141Y-42454571D01*
X55225427Y-42454571D01*
X55368284Y-42383143D01*
X55439713Y-42240286D01*
X55439713Y-42168857D01*
X55368284Y-42026000D01*
X55225427Y-41954571D01*
X55011141Y-41954571D01*
X54868284Y-42026000D01*
X53011141Y-42954571D02*
X53011141Y-41954571D01*
X53011141Y-41454571D02*
X53082570Y-41526000D01*
X53011141Y-41597429D01*
X52939713Y-41526000D01*
X53011141Y-41454571D01*
X53011141Y-41597429D01*
X52368284Y-42883143D02*
X52225427Y-42954571D01*
X51939712Y-42954571D01*
X51796855Y-42883143D01*
X51725427Y-42740286D01*
X51725427Y-42668857D01*
X51796855Y-42526000D01*
X51939712Y-42454571D01*
X52153998Y-42454571D01*
X52296855Y-42383143D01*
X52368284Y-42240286D01*
X52368284Y-42168857D01*
X52296855Y-42026000D01*
X52153998Y-41954571D01*
X51939712Y-41954571D01*
X51796855Y-42026000D01*
X49939712Y-42954571D02*
X49939712Y-41954571D01*
X49939712Y-41454571D02*
X50011141Y-41526000D01*
X49939712Y-41597429D01*
X49868284Y-41526000D01*
X49939712Y-41454571D01*
X49939712Y-41597429D01*
X49225426Y-41954571D02*
X49225426Y-42954571D01*
X49225426Y-42097429D02*
X49153998Y-42026000D01*
X49011140Y-41954571D01*
X48796855Y-41954571D01*
X48653998Y-42026000D01*
X48582569Y-42168857D01*
X48582569Y-42954571D01*
X46153998Y-42883143D02*
X46296855Y-42954571D01*
X46582569Y-42954571D01*
X46725426Y-42883143D01*
X46796855Y-42740286D01*
X46796855Y-42168857D01*
X46725426Y-42026000D01*
X46582569Y-41954571D01*
X46296855Y-41954571D01*
X46153998Y-42026000D01*
X46082569Y-42168857D01*
X46082569Y-42311714D01*
X46796855Y-42454571D01*
X45439712Y-42954571D02*
X45439712Y-41954571D01*
X45439712Y-42240286D02*
X45368284Y-42097429D01*
X45296855Y-42026000D01*
X45153998Y-41954571D01*
X45011141Y-41954571D01*
X44511141Y-42954571D02*
X44511141Y-41954571D01*
X44511141Y-42240286D02*
X44439713Y-42097429D01*
X44368284Y-42026000D01*
X44225427Y-41954571D01*
X44082570Y-41954571D01*
X43368284Y-42954571D02*
X43511142Y-42883143D01*
X43582570Y-42811714D01*
X43653999Y-42668857D01*
X43653999Y-42240286D01*
X43582570Y-42097429D01*
X43511142Y-42026000D01*
X43368284Y-41954571D01*
X43153999Y-41954571D01*
X43011142Y-42026000D01*
X42939713Y-42097429D01*
X42868284Y-42240286D01*
X42868284Y-42668857D01*
X42939713Y-42811714D01*
X43011142Y-42883143D01*
X43153999Y-42954571D01*
X43368284Y-42954571D01*
X42225427Y-42954571D02*
X42225427Y-41954571D01*
X42225427Y-42240286D02*
X42153999Y-42097429D01*
X42082570Y-42026000D01*
X41939713Y-41954571D01*
X41796856Y-41954571D01*
X40225428Y-42883143D02*
X40082571Y-42954571D01*
X39796856Y-42954571D01*
X39653999Y-42883143D01*
X39582571Y-42740286D01*
X39582571Y-42668857D01*
X39653999Y-42526000D01*
X39796856Y-42454571D01*
X40011142Y-42454571D01*
X40153999Y-42383143D01*
X40225428Y-42240286D01*
X40225428Y-42168857D01*
X40153999Y-42026000D01*
X40011142Y-41954571D01*
X39796856Y-41954571D01*
X39653999Y-42026000D01*
X39153999Y-41954571D02*
X38582570Y-41954571D01*
X38939713Y-41454571D02*
X38939713Y-42740286D01*
X38868285Y-42883143D01*
X38725427Y-42954571D01*
X38582570Y-42954571D01*
X37439713Y-42954571D02*
X37439713Y-42168857D01*
X37511142Y-42026000D01*
X37653999Y-41954571D01*
X37939713Y-41954571D01*
X38082570Y-42026000D01*
X37439713Y-42883143D02*
X37582570Y-42954571D01*
X37939713Y-42954571D01*
X38082570Y-42883143D01*
X38153999Y-42740286D01*
X38153999Y-42597429D01*
X38082570Y-42454571D01*
X37939713Y-42383143D01*
X37582570Y-42383143D01*
X37439713Y-42311714D01*
X36939713Y-41954571D02*
X36368284Y-41954571D01*
X36725427Y-41454571D02*
X36725427Y-42740286D01*
X36653999Y-42883143D01*
X36511141Y-42954571D01*
X36368284Y-42954571D01*
X35296856Y-42883143D02*
X35439713Y-42954571D01*
X35725427Y-42954571D01*
X35868284Y-42883143D01*
X35939713Y-42740286D01*
X35939713Y-42168857D01*
X35868284Y-42026000D01*
X35725427Y-41954571D01*
X35439713Y-41954571D01*
X35296856Y-42026000D01*
X35225427Y-42168857D01*
X35225427Y-42311714D01*
X35939713Y-42454571D01*
X88511143Y-46554571D02*
X88225429Y-46554571D01*
X88082571Y-46626000D01*
X87939714Y-46768857D01*
X87868286Y-47054571D01*
X87868286Y-47554571D01*
X87939714Y-47840286D01*
X88082571Y-47983143D01*
X88225429Y-48054571D01*
X88511143Y-48054571D01*
X88654000Y-47983143D01*
X88796857Y-47840286D01*
X88868286Y-47554571D01*
X88868286Y-47054571D01*
X88796857Y-46768857D01*
X88654000Y-46626000D01*
X88511143Y-46554571D01*
X86582571Y-47054571D02*
X86582571Y-48054571D01*
X87225428Y-47054571D02*
X87225428Y-47840286D01*
X87154000Y-47983143D01*
X87011142Y-48054571D01*
X86796857Y-48054571D01*
X86654000Y-47983143D01*
X86582571Y-47911714D01*
X86082571Y-47054571D02*
X85511142Y-47054571D01*
X85868285Y-46554571D02*
X85868285Y-47840286D01*
X85796857Y-47983143D01*
X85653999Y-48054571D01*
X85511142Y-48054571D01*
X85011142Y-47054571D02*
X85011142Y-48554571D01*
X85011142Y-47126000D02*
X84868285Y-47054571D01*
X84582571Y-47054571D01*
X84439714Y-47126000D01*
X84368285Y-47197429D01*
X84296856Y-47340286D01*
X84296856Y-47768857D01*
X84368285Y-47911714D01*
X84439714Y-47983143D01*
X84582571Y-48054571D01*
X84868285Y-48054571D01*
X85011142Y-47983143D01*
X83011142Y-47054571D02*
X83011142Y-48054571D01*
X83653999Y-47054571D02*
X83653999Y-47840286D01*
X83582571Y-47983143D01*
X83439713Y-48054571D01*
X83225428Y-48054571D01*
X83082571Y-47983143D01*
X83011142Y-47911714D01*
X82511142Y-47054571D02*
X81939713Y-47054571D01*
X82296856Y-46554571D02*
X82296856Y-47840286D01*
X82225428Y-47983143D01*
X82082570Y-48054571D01*
X81939713Y-48054571D01*
X81511142Y-47983143D02*
X81368285Y-48054571D01*
X81082570Y-48054571D01*
X80939713Y-47983143D01*
X80868285Y-47840286D01*
X80868285Y-47768857D01*
X80939713Y-47626000D01*
X81082570Y-47554571D01*
X81296856Y-47554571D01*
X81439713Y-47483143D01*
X81511142Y-47340286D01*
X81511142Y-47268857D01*
X81439713Y-47126000D01*
X81296856Y-47054571D01*
X81082570Y-47054571D01*
X80939713Y-47126000D01*
X79225427Y-47054571D02*
X78939713Y-48054571D01*
X78653999Y-47340286D01*
X78368284Y-48054571D01*
X78082570Y-47054571D01*
X77511141Y-48054571D02*
X77511141Y-47054571D01*
X77511141Y-46554571D02*
X77582570Y-46626000D01*
X77511141Y-46697429D01*
X77439713Y-46626000D01*
X77511141Y-46554571D01*
X77511141Y-46697429D01*
X76582569Y-48054571D02*
X76725427Y-47983143D01*
X76796855Y-47840286D01*
X76796855Y-46554571D01*
X75796855Y-48054571D02*
X75939713Y-47983143D01*
X76011141Y-47840286D01*
X76011141Y-46554571D01*
X74082570Y-48054571D02*
X74082570Y-46554571D01*
X73439713Y-48054571D02*
X73439713Y-47268857D01*
X73511142Y-47126000D01*
X73653999Y-47054571D01*
X73868284Y-47054571D01*
X74011142Y-47126000D01*
X74082570Y-47197429D01*
X72082570Y-48054571D02*
X72082570Y-47268857D01*
X72153999Y-47126000D01*
X72296856Y-47054571D01*
X72582570Y-47054571D01*
X72725427Y-47126000D01*
X72082570Y-47983143D02*
X72225427Y-48054571D01*
X72582570Y-48054571D01*
X72725427Y-47983143D01*
X72796856Y-47840286D01*
X72796856Y-47697429D01*
X72725427Y-47554571D01*
X72582570Y-47483143D01*
X72225427Y-47483143D01*
X72082570Y-47411714D01*
X71511141Y-47054571D02*
X71153998Y-48054571D01*
X70796856Y-47054571D01*
X69653999Y-47983143D02*
X69796856Y-48054571D01*
X70082570Y-48054571D01*
X70225427Y-47983143D01*
X70296856Y-47840286D01*
X70296856Y-47268857D01*
X70225427Y-47126000D01*
X70082570Y-47054571D01*
X69796856Y-47054571D01*
X69653999Y-47126000D01*
X69582570Y-47268857D01*
X69582570Y-47411714D01*
X70296856Y-47554571D01*
X67868285Y-46697429D02*
X67796856Y-46626000D01*
X67653999Y-46554571D01*
X67296856Y-46554571D01*
X67153999Y-46626000D01*
X67082570Y-46697429D01*
X67011142Y-46840286D01*
X67011142Y-46983143D01*
X67082570Y-47197429D01*
X67939713Y-48054571D01*
X67011142Y-48054571D01*
X66082571Y-46554571D02*
X65939714Y-46554571D01*
X65796857Y-46626000D01*
X65725428Y-46697429D01*
X65653999Y-46840286D01*
X65582571Y-47126000D01*
X65582571Y-47483143D01*
X65653999Y-47768857D01*
X65725428Y-47911714D01*
X65796857Y-47983143D01*
X65939714Y-48054571D01*
X66082571Y-48054571D01*
X66225428Y-47983143D01*
X66296857Y-47911714D01*
X66368285Y-47768857D01*
X66439714Y-47483143D01*
X66439714Y-47126000D01*
X66368285Y-46840286D01*
X66296857Y-46697429D01*
X66225428Y-46626000D01*
X66082571Y-46554571D01*
X64654000Y-46554571D02*
X64511143Y-46554571D01*
X64368286Y-46626000D01*
X64296857Y-46697429D01*
X64225428Y-46840286D01*
X64154000Y-47126000D01*
X64154000Y-47483143D01*
X64225428Y-47768857D01*
X64296857Y-47911714D01*
X64368286Y-47983143D01*
X64511143Y-48054571D01*
X64654000Y-48054571D01*
X64796857Y-47983143D01*
X64868286Y-47911714D01*
X64939714Y-47768857D01*
X65011143Y-47483143D01*
X65011143Y-47126000D01*
X64939714Y-46840286D01*
X64868286Y-46697429D01*
X64796857Y-46626000D01*
X64654000Y-46554571D01*
X62154000Y-48054571D02*
X62296858Y-47983143D01*
X62368286Y-47911714D01*
X62439715Y-47768857D01*
X62439715Y-47340286D01*
X62368286Y-47197429D01*
X62296858Y-47126000D01*
X62154000Y-47054571D01*
X61939715Y-47054571D01*
X61796858Y-47126000D01*
X61725429Y-47197429D01*
X61654000Y-47340286D01*
X61654000Y-47768857D01*
X61725429Y-47911714D01*
X61796858Y-47983143D01*
X61939715Y-48054571D01*
X62154000Y-48054571D01*
X61011143Y-48054571D02*
X61011143Y-46554571D01*
X60368286Y-48054571D02*
X60368286Y-47268857D01*
X60439715Y-47126000D01*
X60582572Y-47054571D01*
X60796857Y-47054571D01*
X60939715Y-47126000D01*
X61011143Y-47197429D01*
X59654000Y-48054571D02*
X59654000Y-47054571D01*
X59654000Y-47197429D02*
X59582572Y-47126000D01*
X59439714Y-47054571D01*
X59225429Y-47054571D01*
X59082572Y-47126000D01*
X59011143Y-47268857D01*
X59011143Y-48054571D01*
X59011143Y-47268857D02*
X58939714Y-47126000D01*
X58796857Y-47054571D01*
X58582572Y-47054571D01*
X58439714Y-47126000D01*
X58368286Y-47268857D01*
X58368286Y-48054571D01*
X56511143Y-48054571D02*
X56511143Y-47054571D01*
X56511143Y-47340286D02*
X56439715Y-47197429D01*
X56368286Y-47126000D01*
X56225429Y-47054571D01*
X56082572Y-47054571D01*
X55011144Y-47983143D02*
X55154001Y-48054571D01*
X55439715Y-48054571D01*
X55582572Y-47983143D01*
X55654001Y-47840286D01*
X55654001Y-47268857D01*
X55582572Y-47126000D01*
X55439715Y-47054571D01*
X55154001Y-47054571D01*
X55011144Y-47126000D01*
X54939715Y-47268857D01*
X54939715Y-47411714D01*
X55654001Y-47554571D01*
X54368287Y-47983143D02*
X54225430Y-48054571D01*
X53939715Y-48054571D01*
X53796858Y-47983143D01*
X53725430Y-47840286D01*
X53725430Y-47768857D01*
X53796858Y-47626000D01*
X53939715Y-47554571D01*
X54154001Y-47554571D01*
X54296858Y-47483143D01*
X54368287Y-47340286D01*
X54368287Y-47268857D01*
X54296858Y-47126000D01*
X54154001Y-47054571D01*
X53939715Y-47054571D01*
X53796858Y-47126000D01*
X53082572Y-48054571D02*
X53082572Y-47054571D01*
X53082572Y-46554571D02*
X53154001Y-46626000D01*
X53082572Y-46697429D01*
X53011144Y-46626000D01*
X53082572Y-46554571D01*
X53082572Y-46697429D01*
X52439715Y-47983143D02*
X52296858Y-48054571D01*
X52011143Y-48054571D01*
X51868286Y-47983143D01*
X51796858Y-47840286D01*
X51796858Y-47768857D01*
X51868286Y-47626000D01*
X52011143Y-47554571D01*
X52225429Y-47554571D01*
X52368286Y-47483143D01*
X52439715Y-47340286D01*
X52439715Y-47268857D01*
X52368286Y-47126000D01*
X52225429Y-47054571D01*
X52011143Y-47054571D01*
X51868286Y-47126000D01*
X51368286Y-47054571D02*
X50796857Y-47054571D01*
X51154000Y-46554571D02*
X51154000Y-47840286D01*
X51082572Y-47983143D01*
X50939714Y-48054571D01*
X50796857Y-48054571D01*
X49654000Y-48054571D02*
X49654000Y-47268857D01*
X49725429Y-47126000D01*
X49868286Y-47054571D01*
X50154000Y-47054571D01*
X50296857Y-47126000D01*
X49654000Y-47983143D02*
X49796857Y-48054571D01*
X50154000Y-48054571D01*
X50296857Y-47983143D01*
X50368286Y-47840286D01*
X50368286Y-47697429D01*
X50296857Y-47554571D01*
X50154000Y-47483143D01*
X49796857Y-47483143D01*
X49654000Y-47411714D01*
X48939714Y-47054571D02*
X48939714Y-48054571D01*
X48939714Y-47197429D02*
X48868286Y-47126000D01*
X48725428Y-47054571D01*
X48511143Y-47054571D01*
X48368286Y-47126000D01*
X48296857Y-47268857D01*
X48296857Y-48054571D01*
X46939714Y-47983143D02*
X47082571Y-48054571D01*
X47368285Y-48054571D01*
X47511143Y-47983143D01*
X47582571Y-47911714D01*
X47654000Y-47768857D01*
X47654000Y-47340286D01*
X47582571Y-47197429D01*
X47511143Y-47126000D01*
X47368285Y-47054571D01*
X47082571Y-47054571D01*
X46939714Y-47126000D01*
X45725429Y-47983143D02*
X45868286Y-48054571D01*
X46154000Y-48054571D01*
X46296857Y-47983143D01*
X46368286Y-47840286D01*
X46368286Y-47268857D01*
X46296857Y-47126000D01*
X46154000Y-47054571D01*
X45868286Y-47054571D01*
X45725429Y-47126000D01*
X45654000Y-47268857D01*
X45654000Y-47411714D01*
X46368286Y-47554571D01*
X44011143Y-47054571D02*
X43725429Y-48054571D01*
X43439715Y-47340286D01*
X43154000Y-48054571D01*
X42868286Y-47054571D01*
X42296857Y-48054571D02*
X42296857Y-46554571D01*
X41654000Y-48054571D02*
X41654000Y-47268857D01*
X41725429Y-47126000D01*
X41868286Y-47054571D01*
X42082571Y-47054571D01*
X42225429Y-47126000D01*
X42296857Y-47197429D01*
X40368286Y-47983143D02*
X40511143Y-48054571D01*
X40796857Y-48054571D01*
X40939714Y-47983143D01*
X41011143Y-47840286D01*
X41011143Y-47268857D01*
X40939714Y-47126000D01*
X40796857Y-47054571D01*
X40511143Y-47054571D01*
X40368286Y-47126000D01*
X40296857Y-47268857D01*
X40296857Y-47411714D01*
X41011143Y-47554571D01*
X39654000Y-47054571D02*
X39654000Y-48054571D01*
X39654000Y-47197429D02*
X39582572Y-47126000D01*
X39439714Y-47054571D01*
X39225429Y-47054571D01*
X39082572Y-47126000D01*
X39011143Y-47268857D01*
X39011143Y-48054571D01*
X36939714Y-48054571D02*
X37082572Y-47983143D01*
X37154000Y-47911714D01*
X37225429Y-47768857D01*
X37225429Y-47340286D01*
X37154000Y-47197429D01*
X37082572Y-47126000D01*
X36939714Y-47054571D01*
X36725429Y-47054571D01*
X36582572Y-47126000D01*
X36511143Y-47197429D01*
X36439714Y-47340286D01*
X36439714Y-47768857D01*
X36511143Y-47911714D01*
X36582572Y-47983143D01*
X36725429Y-48054571D01*
X36939714Y-48054571D01*
X36011143Y-47054571D02*
X35439714Y-47054571D01*
X35796857Y-48054571D02*
X35796857Y-46768857D01*
X35725429Y-46626000D01*
X35582571Y-46554571D01*
X35439714Y-46554571D01*
X35154000Y-47054571D02*
X34582571Y-47054571D01*
X34939714Y-48054571D02*
X34939714Y-46768857D01*
X34868286Y-46626000D01*
X34725428Y-46554571D01*
X34582571Y-46554571D01*
X68153999Y-46296000D02*
X34439714Y-46296000D01*
X88368286Y-51176000D02*
X88439714Y-51104571D01*
X88582571Y-50890286D01*
X88654000Y-50747429D01*
X88725429Y-50533143D01*
X88796857Y-50176000D01*
X88796857Y-49890286D01*
X88725429Y-49533143D01*
X88654000Y-49318857D01*
X88582571Y-49176000D01*
X88439714Y-48961714D01*
X88368286Y-48890286D01*
X87154000Y-50533143D02*
X87296857Y-50604571D01*
X87582571Y-50604571D01*
X87725429Y-50533143D01*
X87796857Y-50461714D01*
X87868286Y-50318857D01*
X87868286Y-49890286D01*
X87796857Y-49747429D01*
X87725429Y-49676000D01*
X87582571Y-49604571D01*
X87296857Y-49604571D01*
X87154000Y-49676000D01*
X85868286Y-50604571D02*
X85868286Y-49818857D01*
X85939715Y-49676000D01*
X86082572Y-49604571D01*
X86368286Y-49604571D01*
X86511143Y-49676000D01*
X85868286Y-50533143D02*
X86011143Y-50604571D01*
X86368286Y-50604571D01*
X86511143Y-50533143D01*
X86582572Y-50390286D01*
X86582572Y-50247429D01*
X86511143Y-50104571D01*
X86368286Y-50033143D01*
X86011143Y-50033143D01*
X85868286Y-49961714D01*
X85154000Y-49604571D02*
X85154000Y-51104571D01*
X85154000Y-49676000D02*
X85011143Y-49604571D01*
X84725429Y-49604571D01*
X84582572Y-49676000D01*
X84511143Y-49747429D01*
X84439714Y-49890286D01*
X84439714Y-50318857D01*
X84511143Y-50461714D01*
X84582572Y-50533143D01*
X84725429Y-50604571D01*
X85011143Y-50604571D01*
X85154000Y-50533143D01*
X83154000Y-50604571D02*
X83154000Y-49818857D01*
X83225429Y-49676000D01*
X83368286Y-49604571D01*
X83654000Y-49604571D01*
X83796857Y-49676000D01*
X83154000Y-50533143D02*
X83296857Y-50604571D01*
X83654000Y-50604571D01*
X83796857Y-50533143D01*
X83868286Y-50390286D01*
X83868286Y-50247429D01*
X83796857Y-50104571D01*
X83654000Y-50033143D01*
X83296857Y-50033143D01*
X83154000Y-49961714D01*
X81796857Y-50533143D02*
X81939714Y-50604571D01*
X82225428Y-50604571D01*
X82368286Y-50533143D01*
X82439714Y-50461714D01*
X82511143Y-50318857D01*
X82511143Y-49890286D01*
X82439714Y-49747429D01*
X82368286Y-49676000D01*
X82225428Y-49604571D01*
X81939714Y-49604571D01*
X81796857Y-49676000D01*
X81154000Y-50604571D02*
X81154000Y-49604571D01*
X81154000Y-49104571D02*
X81225429Y-49176000D01*
X81154000Y-49247429D01*
X81082572Y-49176000D01*
X81154000Y-49104571D01*
X81154000Y-49247429D01*
X80654000Y-49604571D02*
X80082571Y-49604571D01*
X80439714Y-49104571D02*
X80439714Y-50390286D01*
X80368286Y-50533143D01*
X80225428Y-50604571D01*
X80082571Y-50604571D01*
X79368285Y-50604571D02*
X79511143Y-50533143D01*
X79582571Y-50461714D01*
X79654000Y-50318857D01*
X79654000Y-49890286D01*
X79582571Y-49747429D01*
X79511143Y-49676000D01*
X79368285Y-49604571D01*
X79154000Y-49604571D01*
X79011143Y-49676000D01*
X78939714Y-49747429D01*
X78868285Y-49890286D01*
X78868285Y-50318857D01*
X78939714Y-50461714D01*
X79011143Y-50533143D01*
X79154000Y-50604571D01*
X79368285Y-50604571D01*
X78225428Y-50604571D02*
X78225428Y-49604571D01*
X78225428Y-49890286D02*
X78154000Y-49747429D01*
X78082571Y-49676000D01*
X77939714Y-49604571D01*
X77796857Y-49604571D01*
X75511143Y-50604571D02*
X75511143Y-49104571D01*
X75511143Y-50533143D02*
X75654000Y-50604571D01*
X75939714Y-50604571D01*
X76082572Y-50533143D01*
X76154000Y-50461714D01*
X76225429Y-50318857D01*
X76225429Y-49890286D01*
X76154000Y-49747429D01*
X76082572Y-49676000D01*
X75939714Y-49604571D01*
X75654000Y-49604571D01*
X75511143Y-49676000D01*
X74796857Y-50604571D02*
X74796857Y-49604571D01*
X74796857Y-49104571D02*
X74868286Y-49176000D01*
X74796857Y-49247429D01*
X74725429Y-49176000D01*
X74796857Y-49104571D01*
X74796857Y-49247429D01*
X74154000Y-50533143D02*
X74011143Y-50604571D01*
X73725428Y-50604571D01*
X73582571Y-50533143D01*
X73511143Y-50390286D01*
X73511143Y-50318857D01*
X73582571Y-50176000D01*
X73725428Y-50104571D01*
X73939714Y-50104571D01*
X74082571Y-50033143D01*
X74154000Y-49890286D01*
X74154000Y-49818857D01*
X74082571Y-49676000D01*
X73939714Y-49604571D01*
X73725428Y-49604571D01*
X73582571Y-49676000D01*
X72225428Y-50533143D02*
X72368285Y-50604571D01*
X72653999Y-50604571D01*
X72796857Y-50533143D01*
X72868285Y-50461714D01*
X72939714Y-50318857D01*
X72939714Y-49890286D01*
X72868285Y-49747429D01*
X72796857Y-49676000D01*
X72653999Y-49604571D01*
X72368285Y-49604571D01*
X72225428Y-49676000D01*
X71582571Y-50604571D02*
X71582571Y-49104571D01*
X70939714Y-50604571D02*
X70939714Y-49818857D01*
X71011143Y-49676000D01*
X71154000Y-49604571D01*
X71368285Y-49604571D01*
X71511143Y-49676000D01*
X71582571Y-49747429D01*
X69582571Y-50604571D02*
X69582571Y-49818857D01*
X69654000Y-49676000D01*
X69796857Y-49604571D01*
X70082571Y-49604571D01*
X70225428Y-49676000D01*
X69582571Y-50533143D02*
X69725428Y-50604571D01*
X70082571Y-50604571D01*
X70225428Y-50533143D01*
X70296857Y-50390286D01*
X70296857Y-50247429D01*
X70225428Y-50104571D01*
X70082571Y-50033143D01*
X69725428Y-50033143D01*
X69582571Y-49961714D01*
X68868285Y-50604571D02*
X68868285Y-49604571D01*
X68868285Y-49890286D02*
X68796857Y-49747429D01*
X68725428Y-49676000D01*
X68582571Y-49604571D01*
X68439714Y-49604571D01*
X67296857Y-49604571D02*
X67296857Y-50818857D01*
X67368286Y-50961714D01*
X67439714Y-51033143D01*
X67582571Y-51104571D01*
X67796857Y-51104571D01*
X67939714Y-51033143D01*
X67296857Y-50533143D02*
X67439714Y-50604571D01*
X67725428Y-50604571D01*
X67868286Y-50533143D01*
X67939714Y-50461714D01*
X68011143Y-50318857D01*
X68011143Y-49890286D01*
X67939714Y-49747429D01*
X67868286Y-49676000D01*
X67725428Y-49604571D01*
X67439714Y-49604571D01*
X67296857Y-49676000D01*
X66011143Y-50533143D02*
X66154000Y-50604571D01*
X66439714Y-50604571D01*
X66582571Y-50533143D01*
X66654000Y-50390286D01*
X66654000Y-49818857D01*
X66582571Y-49676000D01*
X66439714Y-49604571D01*
X66154000Y-49604571D01*
X66011143Y-49676000D01*
X65939714Y-49818857D01*
X65939714Y-49961714D01*
X66654000Y-50104571D01*
X64368286Y-49604571D02*
X63796857Y-49604571D01*
X64154000Y-50604571D02*
X64154000Y-49318857D01*
X64082572Y-49176000D01*
X63939714Y-49104571D01*
X63796857Y-49104571D01*
X62654000Y-49604571D02*
X62654000Y-50604571D01*
X63296857Y-49604571D02*
X63296857Y-50390286D01*
X63225429Y-50533143D01*
X63082571Y-50604571D01*
X62868286Y-50604571D01*
X62725429Y-50533143D01*
X62654000Y-50461714D01*
X61939714Y-49604571D02*
X61939714Y-50604571D01*
X61939714Y-49747429D02*
X61868286Y-49676000D01*
X61725428Y-49604571D01*
X61511143Y-49604571D01*
X61368286Y-49676000D01*
X61296857Y-49818857D01*
X61296857Y-50604571D01*
X59939714Y-50533143D02*
X60082571Y-50604571D01*
X60368285Y-50604571D01*
X60511143Y-50533143D01*
X60582571Y-50461714D01*
X60654000Y-50318857D01*
X60654000Y-49890286D01*
X60582571Y-49747429D01*
X60511143Y-49676000D01*
X60368285Y-49604571D01*
X60082571Y-49604571D01*
X59939714Y-49676000D01*
X59511143Y-49604571D02*
X58939714Y-49604571D01*
X59296857Y-49104571D02*
X59296857Y-50390286D01*
X59225429Y-50533143D01*
X59082571Y-50604571D01*
X58939714Y-50604571D01*
X58439714Y-50604571D02*
X58439714Y-49604571D01*
X58439714Y-49104571D02*
X58511143Y-49176000D01*
X58439714Y-49247429D01*
X58368286Y-49176000D01*
X58439714Y-49104571D01*
X58439714Y-49247429D01*
X57511142Y-50604571D02*
X57654000Y-50533143D01*
X57725428Y-50461714D01*
X57796857Y-50318857D01*
X57796857Y-49890286D01*
X57725428Y-49747429D01*
X57654000Y-49676000D01*
X57511142Y-49604571D01*
X57296857Y-49604571D01*
X57154000Y-49676000D01*
X57082571Y-49747429D01*
X57011142Y-49890286D01*
X57011142Y-50318857D01*
X57082571Y-50461714D01*
X57154000Y-50533143D01*
X57296857Y-50604571D01*
X57511142Y-50604571D01*
X56368285Y-49604571D02*
X56368285Y-50604571D01*
X56368285Y-49747429D02*
X56296857Y-49676000D01*
X56153999Y-49604571D01*
X55939714Y-49604571D01*
X55796857Y-49676000D01*
X55725428Y-49818857D01*
X55725428Y-50604571D01*
X54368285Y-50604571D02*
X54368285Y-49818857D01*
X54439714Y-49676000D01*
X54582571Y-49604571D01*
X54868285Y-49604571D01*
X55011142Y-49676000D01*
X54368285Y-50533143D02*
X54511142Y-50604571D01*
X54868285Y-50604571D01*
X55011142Y-50533143D01*
X55082571Y-50390286D01*
X55082571Y-50247429D01*
X55011142Y-50104571D01*
X54868285Y-50033143D01*
X54511142Y-50033143D01*
X54368285Y-49961714D01*
X53439713Y-50604571D02*
X53582571Y-50533143D01*
X53653999Y-50390286D01*
X53653999Y-49104571D01*
X52868285Y-50604571D02*
X52868285Y-49604571D01*
X52868285Y-49104571D02*
X52939714Y-49176000D01*
X52868285Y-49247429D01*
X52796857Y-49176000D01*
X52868285Y-49104571D01*
X52868285Y-49247429D01*
X52368285Y-49604571D02*
X51796856Y-49604571D01*
X52153999Y-49104571D02*
X52153999Y-50390286D01*
X52082571Y-50533143D01*
X51939713Y-50604571D01*
X51796856Y-50604571D01*
X51439713Y-49604571D02*
X51082570Y-50604571D01*
X50725428Y-49604571D02*
X51082570Y-50604571D01*
X51225428Y-50961714D01*
X51296856Y-51033143D01*
X51439713Y-51104571D01*
X50296856Y-51176000D02*
X50225428Y-51104571D01*
X50082571Y-50890286D01*
X50011142Y-50747429D01*
X49939713Y-50533143D01*
X49868285Y-50176000D01*
X49868285Y-49890286D01*
X49939713Y-49533143D01*
X50011142Y-49318857D01*
X50082571Y-49176000D01*
X50225428Y-48961714D01*
X50296856Y-48890286D01*
X88511143Y-51654571D02*
X88225429Y-51654571D01*
X88082571Y-51726000D01*
X87939714Y-51868857D01*
X87868286Y-52154571D01*
X87868286Y-52654571D01*
X87939714Y-52940286D01*
X88082571Y-53083143D01*
X88225429Y-53154571D01*
X88511143Y-53154571D01*
X88654000Y-53083143D01*
X88796857Y-52940286D01*
X88868286Y-52654571D01*
X88868286Y-52154571D01*
X88796857Y-51868857D01*
X88654000Y-51726000D01*
X88511143Y-51654571D01*
X86582571Y-52154571D02*
X86582571Y-53154571D01*
X87225428Y-52154571D02*
X87225428Y-52940286D01*
X87154000Y-53083143D01*
X87011142Y-53154571D01*
X86796857Y-53154571D01*
X86654000Y-53083143D01*
X86582571Y-53011714D01*
X86082571Y-52154571D02*
X85511142Y-52154571D01*
X85868285Y-51654571D02*
X85868285Y-52940286D01*
X85796857Y-53083143D01*
X85653999Y-53154571D01*
X85511142Y-53154571D01*
X83868285Y-52154571D02*
X83868285Y-53654571D01*
X83868285Y-52226000D02*
X83725428Y-52154571D01*
X83439714Y-52154571D01*
X83296857Y-52226000D01*
X83225428Y-52297429D01*
X83153999Y-52440286D01*
X83153999Y-52868857D01*
X83225428Y-53011714D01*
X83296857Y-53083143D01*
X83439714Y-53154571D01*
X83725428Y-53154571D01*
X83868285Y-53083143D01*
X82296856Y-53154571D02*
X82439714Y-53083143D01*
X82511142Y-53011714D01*
X82582571Y-52868857D01*
X82582571Y-52440286D01*
X82511142Y-52297429D01*
X82439714Y-52226000D01*
X82296856Y-52154571D01*
X82082571Y-52154571D01*
X81939714Y-52226000D01*
X81868285Y-52297429D01*
X81796856Y-52440286D01*
X81796856Y-52868857D01*
X81868285Y-53011714D01*
X81939714Y-53083143D01*
X82082571Y-53154571D01*
X82296856Y-53154571D01*
X81153999Y-53154571D02*
X81153999Y-52154571D01*
X81153999Y-52440286D02*
X81082571Y-52297429D01*
X81011142Y-52226000D01*
X80868285Y-52154571D01*
X80725428Y-52154571D01*
X80439714Y-52154571D02*
X79868285Y-52154571D01*
X80225428Y-51654571D02*
X80225428Y-52940286D01*
X80154000Y-53083143D01*
X80011142Y-53154571D01*
X79868285Y-53154571D01*
X78225428Y-53154571D02*
X78225428Y-52154571D01*
X78225428Y-51654571D02*
X78296857Y-51726000D01*
X78225428Y-51797429D01*
X78154000Y-51726000D01*
X78225428Y-51654571D01*
X78225428Y-51797429D01*
X77582571Y-53083143D02*
X77439714Y-53154571D01*
X77153999Y-53154571D01*
X77011142Y-53083143D01*
X76939714Y-52940286D01*
X76939714Y-52868857D01*
X77011142Y-52726000D01*
X77153999Y-52654571D01*
X77368285Y-52654571D01*
X77511142Y-52583143D01*
X77582571Y-52440286D01*
X77582571Y-52368857D01*
X77511142Y-52226000D01*
X77368285Y-52154571D01*
X77153999Y-52154571D01*
X77011142Y-52226000D01*
X74511142Y-52154571D02*
X74511142Y-53154571D01*
X75153999Y-52154571D02*
X75153999Y-52940286D01*
X75082571Y-53083143D01*
X74939713Y-53154571D01*
X74725428Y-53154571D01*
X74582571Y-53083143D01*
X74511142Y-53011714D01*
X73868285Y-53083143D02*
X73725428Y-53154571D01*
X73439713Y-53154571D01*
X73296856Y-53083143D01*
X73225428Y-52940286D01*
X73225428Y-52868857D01*
X73296856Y-52726000D01*
X73439713Y-52654571D01*
X73653999Y-52654571D01*
X73796856Y-52583143D01*
X73868285Y-52440286D01*
X73868285Y-52368857D01*
X73796856Y-52226000D01*
X73653999Y-52154571D01*
X73439713Y-52154571D01*
X73296856Y-52226000D01*
X72011142Y-53083143D02*
X72153999Y-53154571D01*
X72439713Y-53154571D01*
X72582570Y-53083143D01*
X72653999Y-52940286D01*
X72653999Y-52368857D01*
X72582570Y-52226000D01*
X72439713Y-52154571D01*
X72153999Y-52154571D01*
X72011142Y-52226000D01*
X71939713Y-52368857D01*
X71939713Y-52511714D01*
X72653999Y-52654571D01*
X70653999Y-53154571D02*
X70653999Y-51654571D01*
X70653999Y-53083143D02*
X70796856Y-53154571D01*
X71082570Y-53154571D01*
X71225428Y-53083143D01*
X71296856Y-53011714D01*
X71368285Y-52868857D01*
X71368285Y-52440286D01*
X71296856Y-52297429D01*
X71225428Y-52226000D01*
X71082570Y-52154571D01*
X70796856Y-52154571D01*
X70653999Y-52226000D01*
X69011142Y-52154571D02*
X68439713Y-52154571D01*
X68796856Y-53154571D02*
X68796856Y-51868857D01*
X68725428Y-51726000D01*
X68582570Y-51654571D01*
X68439713Y-51654571D01*
X67725427Y-53154571D02*
X67868285Y-53083143D01*
X67939713Y-53011714D01*
X68011142Y-52868857D01*
X68011142Y-52440286D01*
X67939713Y-52297429D01*
X67868285Y-52226000D01*
X67725427Y-52154571D01*
X67511142Y-52154571D01*
X67368285Y-52226000D01*
X67296856Y-52297429D01*
X67225427Y-52440286D01*
X67225427Y-52868857D01*
X67296856Y-53011714D01*
X67368285Y-53083143D01*
X67511142Y-53154571D01*
X67725427Y-53154571D01*
X66582570Y-53154571D02*
X66582570Y-52154571D01*
X66582570Y-52440286D02*
X66511142Y-52297429D01*
X66439713Y-52226000D01*
X66296856Y-52154571D01*
X66153999Y-52154571D01*
X63868285Y-53083143D02*
X64011142Y-53154571D01*
X64296856Y-53154571D01*
X64439714Y-53083143D01*
X64511142Y-53011714D01*
X64582571Y-52868857D01*
X64582571Y-52440286D01*
X64511142Y-52297429D01*
X64439714Y-52226000D01*
X64296856Y-52154571D01*
X64011142Y-52154571D01*
X63868285Y-52226000D01*
X63225428Y-53154571D02*
X63225428Y-51654571D01*
X62582571Y-53154571D02*
X62582571Y-52368857D01*
X62654000Y-52226000D01*
X62796857Y-52154571D01*
X63011142Y-52154571D01*
X63154000Y-52226000D01*
X63225428Y-52297429D01*
X61225428Y-53154571D02*
X61225428Y-52368857D01*
X61296857Y-52226000D01*
X61439714Y-52154571D01*
X61725428Y-52154571D01*
X61868285Y-52226000D01*
X61225428Y-53083143D02*
X61368285Y-53154571D01*
X61725428Y-53154571D01*
X61868285Y-53083143D01*
X61939714Y-52940286D01*
X61939714Y-52797429D01*
X61868285Y-52654571D01*
X61725428Y-52583143D01*
X61368285Y-52583143D01*
X61225428Y-52511714D01*
X60511142Y-53154571D02*
X60511142Y-52154571D01*
X60511142Y-51654571D02*
X60582571Y-51726000D01*
X60511142Y-51797429D01*
X60439714Y-51726000D01*
X60511142Y-51654571D01*
X60511142Y-51797429D01*
X59796856Y-52154571D02*
X59796856Y-53154571D01*
X59796856Y-52297429D02*
X59725428Y-52226000D01*
X59582570Y-52154571D01*
X59368285Y-52154571D01*
X59225428Y-52226000D01*
X59153999Y-52368857D01*
X59153999Y-53154571D01*
X58439713Y-53154571D02*
X58439713Y-52154571D01*
X58439713Y-51654571D02*
X58511142Y-51726000D01*
X58439713Y-51797429D01*
X58368285Y-51726000D01*
X58439713Y-51654571D01*
X58439713Y-51797429D01*
X57725427Y-52154571D02*
X57725427Y-53154571D01*
X57725427Y-52297429D02*
X57653999Y-52226000D01*
X57511141Y-52154571D01*
X57296856Y-52154571D01*
X57153999Y-52226000D01*
X57082570Y-52368857D01*
X57082570Y-53154571D01*
X55725427Y-52154571D02*
X55725427Y-53368857D01*
X55796856Y-53511714D01*
X55868284Y-53583143D01*
X56011141Y-53654571D01*
X56225427Y-53654571D01*
X56368284Y-53583143D01*
X55725427Y-53083143D02*
X55868284Y-53154571D01*
X56153998Y-53154571D01*
X56296856Y-53083143D01*
X56368284Y-53011714D01*
X56439713Y-52868857D01*
X56439713Y-52440286D01*
X56368284Y-52297429D01*
X56296856Y-52226000D01*
X56153998Y-52154571D01*
X55868284Y-52154571D01*
X55725427Y-52226000D01*
X53868284Y-53154571D02*
X53868284Y-52154571D01*
X53868284Y-52297429D02*
X53796856Y-52226000D01*
X53653998Y-52154571D01*
X53439713Y-52154571D01*
X53296856Y-52226000D01*
X53225427Y-52368857D01*
X53225427Y-53154571D01*
X53225427Y-52368857D02*
X53153998Y-52226000D01*
X53011141Y-52154571D01*
X52796856Y-52154571D01*
X52653998Y-52226000D01*
X52582570Y-52368857D01*
X52582570Y-53154571D01*
X51653998Y-53154571D02*
X51796856Y-53083143D01*
X51868284Y-53011714D01*
X51939713Y-52868857D01*
X51939713Y-52440286D01*
X51868284Y-52297429D01*
X51796856Y-52226000D01*
X51653998Y-52154571D01*
X51439713Y-52154571D01*
X51296856Y-52226000D01*
X51225427Y-52297429D01*
X51153998Y-52440286D01*
X51153998Y-52868857D01*
X51225427Y-53011714D01*
X51296856Y-53083143D01*
X51439713Y-53154571D01*
X51653998Y-53154571D01*
X49868284Y-53154571D02*
X49868284Y-51654571D01*
X49868284Y-53083143D02*
X50011141Y-53154571D01*
X50296855Y-53154571D01*
X50439713Y-53083143D01*
X50511141Y-53011714D01*
X50582570Y-52868857D01*
X50582570Y-52440286D01*
X50511141Y-52297429D01*
X50439713Y-52226000D01*
X50296855Y-52154571D01*
X50011141Y-52154571D01*
X49868284Y-52226000D01*
X48511141Y-52154571D02*
X48511141Y-53154571D01*
X49153998Y-52154571D02*
X49153998Y-52940286D01*
X49082570Y-53083143D01*
X48939712Y-53154571D01*
X48725427Y-53154571D01*
X48582570Y-53083143D01*
X48511141Y-53011714D01*
X47582569Y-53154571D02*
X47725427Y-53083143D01*
X47796855Y-52940286D01*
X47796855Y-51654571D01*
X46439713Y-53083143D02*
X46582570Y-53154571D01*
X46868284Y-53154571D01*
X47011141Y-53083143D01*
X47082570Y-52940286D01*
X47082570Y-52368857D01*
X47011141Y-52226000D01*
X46868284Y-52154571D01*
X46582570Y-52154571D01*
X46439713Y-52226000D01*
X46368284Y-52368857D01*
X46368284Y-52511714D01*
X47082570Y-52654571D01*
X45796856Y-53083143D02*
X45653999Y-53154571D01*
X45368284Y-53154571D01*
X45225427Y-53083143D01*
X45153999Y-52940286D01*
X45153999Y-52868857D01*
X45225427Y-52726000D01*
X45368284Y-52654571D01*
X45582570Y-52654571D01*
X45725427Y-52583143D01*
X45796856Y-52440286D01*
X45796856Y-52368857D01*
X45725427Y-52226000D01*
X45582570Y-52154571D01*
X45368284Y-52154571D01*
X45225427Y-52226000D01*
M02*
