G04 #@! TF.FileFunction,Soldermask,Top*
%FSLAX46Y46*%
G04 Gerber Fmt 4.6, Leading zero omitted, Abs format (unit mm)*
G04 Created by KiCad (PCBNEW 4.0.5+dfsg1-4) date Sun Jun 18 22:39:19 2017*
%MOMM*%
%LPD*%
G01*
G04 APERTURE LIST*
%ADD10C,0.100000*%
%ADD11C,4.700000*%
%ADD12C,3.600000*%
%ADD13R,2.200000X4.000000*%
%ADD14O,2.200000X4.000000*%
%ADD15R,1.900000X0.850000*%
%ADD16R,0.850000X1.850000*%
%ADD17R,2.100000X2.100000*%
%ADD18O,2.100000X2.100000*%
%ADD19R,4.000000X2.500000*%
%ADD20O,4.000000X2.500000*%
%ADD21R,1.600000X1.600000*%
%ADD22R,2.200000X2.200000*%
%ADD23C,2.200000*%
%ADD24R,1.900000X1.700000*%
%ADD25R,1.650000X1.900000*%
%ADD26R,1.900000X1.650000*%
%ADD27R,1.700000X1.900000*%
G04 APERTURE END LIST*
D10*
D11*
X94996000Y-50038000D03*
D12*
X96266000Y-18288000D03*
D13*
X83058000Y-23368000D03*
D14*
X79558000Y-23368000D03*
X76058000Y-23368000D03*
X72558000Y-23368000D03*
X69058000Y-23368000D03*
X65558000Y-23368000D03*
X62058000Y-23368000D03*
X58558000Y-23368000D03*
X55058000Y-23368000D03*
X51558000Y-23368000D03*
X48058000Y-23368000D03*
X44558000Y-23368000D03*
X41058000Y-23368000D03*
X37558000Y-23368000D03*
X34058000Y-23368000D03*
X30558000Y-23368000D03*
D12*
X19558000Y-18288000D03*
D15*
X61878000Y-44693000D03*
X61878000Y-44043000D03*
X61878000Y-43393000D03*
X61878000Y-42743000D03*
X61878000Y-42093000D03*
X61878000Y-41443000D03*
X61878000Y-40793000D03*
X61878000Y-40143000D03*
X55978000Y-40143000D03*
X55978000Y-40793000D03*
X55978000Y-41443000D03*
X55978000Y-42093000D03*
X55978000Y-42743000D03*
X55978000Y-43393000D03*
X55978000Y-44043000D03*
X55978000Y-44693000D03*
D16*
X68113000Y-33188000D03*
X68763000Y-33188000D03*
X69413000Y-33188000D03*
X70063000Y-33188000D03*
X70063000Y-28788000D03*
X69413000Y-28788000D03*
X68763000Y-28788000D03*
X68113000Y-28788000D03*
X61128000Y-33188000D03*
X61778000Y-33188000D03*
X62428000Y-33188000D03*
X63078000Y-33188000D03*
X63078000Y-28788000D03*
X62428000Y-28788000D03*
X61778000Y-28788000D03*
X61128000Y-28788000D03*
X54016000Y-33188000D03*
X54666000Y-33188000D03*
X55316000Y-33188000D03*
X55966000Y-33188000D03*
X55966000Y-28788000D03*
X55316000Y-28788000D03*
X54666000Y-28788000D03*
X54016000Y-28788000D03*
X47031000Y-33188000D03*
X47681000Y-33188000D03*
X48331000Y-33188000D03*
X48981000Y-33188000D03*
X48981000Y-28788000D03*
X48331000Y-28788000D03*
X47681000Y-28788000D03*
X47031000Y-28788000D03*
X40046000Y-33188000D03*
X40696000Y-33188000D03*
X41346000Y-33188000D03*
X41996000Y-33188000D03*
X41996000Y-28788000D03*
X41346000Y-28788000D03*
X40696000Y-28788000D03*
X40046000Y-28788000D03*
X33061000Y-33188000D03*
X33711000Y-33188000D03*
X34361000Y-33188000D03*
X35011000Y-33188000D03*
X35011000Y-28788000D03*
X34361000Y-28788000D03*
X33711000Y-28788000D03*
X33061000Y-28788000D03*
X82083000Y-33188000D03*
X82733000Y-33188000D03*
X83383000Y-33188000D03*
X84033000Y-33188000D03*
X84033000Y-28788000D03*
X83383000Y-28788000D03*
X82733000Y-28788000D03*
X82083000Y-28788000D03*
X75098000Y-33188000D03*
X75748000Y-33188000D03*
X76398000Y-33188000D03*
X77048000Y-33188000D03*
X77048000Y-28788000D03*
X76398000Y-28788000D03*
X75748000Y-28788000D03*
X75098000Y-28788000D03*
D17*
X37465000Y-48768000D03*
D18*
X40005000Y-48768000D03*
X42545000Y-48768000D03*
X45085000Y-48768000D03*
X47625000Y-48768000D03*
X50165000Y-48768000D03*
D17*
X78359000Y-48768000D03*
D18*
X75819000Y-48768000D03*
X73279000Y-48768000D03*
X70739000Y-48768000D03*
X68199000Y-48768000D03*
X65659000Y-48768000D03*
D19*
X20320000Y-26162000D03*
D20*
X20320000Y-33782000D03*
D19*
X95250000Y-33782000D03*
D20*
X95250000Y-26162000D03*
D11*
X20828000Y-50038000D03*
D21*
X87884000Y-24427000D03*
X87884000Y-26627000D03*
D22*
X79248000Y-43561000D03*
D23*
X76708000Y-43561000D03*
D24*
X88980000Y-28575000D03*
X86280000Y-28575000D03*
D25*
X30734000Y-28976000D03*
X30734000Y-31476000D03*
D26*
X97960500Y-39560500D03*
X95460500Y-39560500D03*
D25*
X28702000Y-28976000D03*
X28702000Y-31476000D03*
D26*
X97960500Y-41592500D03*
X95460500Y-41592500D03*
X64790000Y-26797000D03*
X67290000Y-26797000D03*
X50566000Y-26797000D03*
X53066000Y-26797000D03*
X36596000Y-26797000D03*
X39096000Y-26797000D03*
X78760000Y-26797000D03*
X81260000Y-26797000D03*
X71648000Y-26797000D03*
X74148000Y-26797000D03*
X57678000Y-26797000D03*
X60178000Y-26797000D03*
X43708000Y-26797000D03*
X46208000Y-26797000D03*
X29484000Y-26797000D03*
X31984000Y-26797000D03*
D21*
X88900000Y-48725000D03*
X88900000Y-46525000D03*
X86614000Y-48725000D03*
X86614000Y-46525000D03*
X84328000Y-48725000D03*
X84328000Y-46525000D03*
X82042000Y-48725000D03*
X82042000Y-46525000D03*
X33528000Y-48725000D03*
X33528000Y-46525000D03*
X31242000Y-48725000D03*
X31242000Y-46525000D03*
X28956000Y-48725000D03*
X28956000Y-46525000D03*
X26670000Y-48725000D03*
X26670000Y-46525000D03*
D27*
X88900000Y-44403000D03*
X88900000Y-41703000D03*
X86614000Y-44403000D03*
X86614000Y-41703000D03*
X84328000Y-44403000D03*
X84328000Y-41703000D03*
X82042000Y-44403000D03*
X82042000Y-41703000D03*
X33528000Y-44403000D03*
X33528000Y-41703000D03*
X31242000Y-44403000D03*
X31242000Y-41703000D03*
X28956000Y-44403000D03*
X28956000Y-41703000D03*
X26670000Y-44403000D03*
X26670000Y-41703000D03*
X86360000Y-33100000D03*
X86360000Y-30400000D03*
X79248000Y-32973000D03*
X79248000Y-30273000D03*
X72390000Y-33100000D03*
X72390000Y-30400000D03*
X65278000Y-33100000D03*
X65278000Y-30400000D03*
X58166000Y-33100000D03*
X58166000Y-30400000D03*
X51308000Y-33100000D03*
X51308000Y-30400000D03*
X44196000Y-33100000D03*
X44196000Y-30400000D03*
X37338000Y-33100000D03*
X37338000Y-30400000D03*
M02*
