%TF.GenerationSoftware,KiCad,Pcbnew,5.1.9+dfsg1-1*%
%TF.CreationDate,2021-03-03T14:05:15+01:00*%
%TF.ProjectId,rootcore,726f6f74-636f-4726-952e-6b696361645f,rev?*%
%TF.SameCoordinates,Original*%
%TF.FileFunction,Legend,Bot*%
%TF.FilePolarity,Positive*%
%FSLAX46Y46*%
G04 Gerber Fmt 4.6, Leading zero omitted, Abs format (unit mm)*
G04 Created by KiCad (PCBNEW 5.1.9+dfsg1-1) date 2021-03-03 14:05:15*
%MOMM*%
%LPD*%
G01*
G04 APERTURE LIST*
%ADD10C,0.180000*%
%ADD11C,0.150000*%
%ADD12C,0.160000*%
%ADD13C,0.100000*%
%ADD14R,1.700000X1.700000*%
%ADD15O,1.700000X1.700000*%
G04 APERTURE END LIST*
D10*
X34302857Y-42284285D02*
X34340952Y-42398571D01*
X34379047Y-42436666D01*
X34455238Y-42474761D01*
X34569523Y-42474761D01*
X34645714Y-42436666D01*
X34683809Y-42398571D01*
X34721904Y-42322380D01*
X34721904Y-42017619D01*
X33921904Y-42017619D01*
X33921904Y-42284285D01*
X33960000Y-42360476D01*
X33998095Y-42398571D01*
X34074285Y-42436666D01*
X34150476Y-42436666D01*
X34226666Y-42398571D01*
X34264761Y-42360476D01*
X34302857Y-42284285D01*
X34302857Y-42017619D01*
X33921904Y-42970000D02*
X33921904Y-43122380D01*
X33960000Y-43198571D01*
X34036190Y-43274761D01*
X34188571Y-43312857D01*
X34455238Y-43312857D01*
X34607619Y-43274761D01*
X34683809Y-43198571D01*
X34721904Y-43122380D01*
X34721904Y-42970000D01*
X34683809Y-42893809D01*
X34607619Y-42817619D01*
X34455238Y-42779523D01*
X34188571Y-42779523D01*
X34036190Y-42817619D01*
X33960000Y-42893809D01*
X33921904Y-42970000D01*
X33921904Y-43808095D02*
X33921904Y-43960476D01*
X33960000Y-44036666D01*
X34036190Y-44112857D01*
X34188571Y-44150952D01*
X34455238Y-44150952D01*
X34607619Y-44112857D01*
X34683809Y-44036666D01*
X34721904Y-43960476D01*
X34721904Y-43808095D01*
X34683809Y-43731904D01*
X34607619Y-43655714D01*
X34455238Y-43617619D01*
X34188571Y-43617619D01*
X34036190Y-43655714D01*
X33960000Y-43731904D01*
X33921904Y-43808095D01*
X33921904Y-44379523D02*
X33921904Y-44836666D01*
X34721904Y-44608095D02*
X33921904Y-44608095D01*
X32231904Y-43271904D02*
X31850952Y-43005238D01*
X32231904Y-42814761D02*
X31431904Y-42814761D01*
X31431904Y-43119523D01*
X31470000Y-43195714D01*
X31508095Y-43233809D01*
X31584285Y-43271904D01*
X31698571Y-43271904D01*
X31774761Y-43233809D01*
X31812857Y-43195714D01*
X31850952Y-43119523D01*
X31850952Y-42814761D01*
X32193809Y-43576666D02*
X32231904Y-43690952D01*
X32231904Y-43881428D01*
X32193809Y-43957619D01*
X32155714Y-43995714D01*
X32079523Y-44033809D01*
X32003333Y-44033809D01*
X31927142Y-43995714D01*
X31889047Y-43957619D01*
X31850952Y-43881428D01*
X31812857Y-43729047D01*
X31774761Y-43652857D01*
X31736666Y-43614761D01*
X31660476Y-43576666D01*
X31584285Y-43576666D01*
X31508095Y-43614761D01*
X31470000Y-43652857D01*
X31431904Y-43729047D01*
X31431904Y-43919523D01*
X31470000Y-44033809D01*
X31431904Y-44262380D02*
X31431904Y-44719523D01*
X32231904Y-44490952D02*
X31431904Y-44490952D01*
X40169047Y-50241904D02*
X40169047Y-49441904D01*
X39978571Y-49441904D01*
X39864285Y-49480000D01*
X39788095Y-49556190D01*
X39750000Y-49632380D01*
X39711904Y-49784761D01*
X39711904Y-49899047D01*
X39750000Y-50051428D01*
X39788095Y-50127619D01*
X39864285Y-50203809D01*
X39978571Y-50241904D01*
X40169047Y-50241904D01*
X39369047Y-50241904D02*
X39369047Y-49441904D01*
X38835714Y-49441904D02*
X38683333Y-49441904D01*
X38607142Y-49480000D01*
X38530952Y-49556190D01*
X38492857Y-49708571D01*
X38492857Y-49975238D01*
X38530952Y-50127619D01*
X38607142Y-50203809D01*
X38683333Y-50241904D01*
X38835714Y-50241904D01*
X38911904Y-50203809D01*
X38988095Y-50127619D01*
X39026190Y-49975238D01*
X39026190Y-49708571D01*
X38988095Y-49556190D01*
X38911904Y-49480000D01*
X38835714Y-49441904D01*
X38839523Y-47690000D02*
X38915714Y-47651904D01*
X39030000Y-47651904D01*
X39144285Y-47690000D01*
X39220476Y-47766190D01*
X39258571Y-47842380D01*
X39296666Y-47994761D01*
X39296666Y-48109047D01*
X39258571Y-48261428D01*
X39220476Y-48337619D01*
X39144285Y-48413809D01*
X39030000Y-48451904D01*
X38953809Y-48451904D01*
X38839523Y-48413809D01*
X38801428Y-48375714D01*
X38801428Y-48109047D01*
X38953809Y-48109047D01*
X38458571Y-48451904D02*
X38458571Y-47651904D01*
X38001428Y-48451904D01*
X38001428Y-47651904D01*
X37620476Y-48451904D02*
X37620476Y-47651904D01*
X37430000Y-47651904D01*
X37315714Y-47690000D01*
X37239523Y-47766190D01*
X37201428Y-47842380D01*
X37163333Y-47994761D01*
X37163333Y-48109047D01*
X37201428Y-48261428D01*
X37239523Y-48337619D01*
X37315714Y-48413809D01*
X37430000Y-48451904D01*
X37620476Y-48451904D01*
X41726190Y-52105714D02*
X41764285Y-52143809D01*
X41878571Y-52181904D01*
X41954761Y-52181904D01*
X42069047Y-52143809D01*
X42145238Y-52067619D01*
X42183333Y-51991428D01*
X42221428Y-51839047D01*
X42221428Y-51724761D01*
X42183333Y-51572380D01*
X42145238Y-51496190D01*
X42069047Y-51420000D01*
X41954761Y-51381904D01*
X41878571Y-51381904D01*
X41764285Y-51420000D01*
X41726190Y-51458095D01*
X41002380Y-52181904D02*
X41383333Y-52181904D01*
X41383333Y-51381904D01*
X40735714Y-52181904D02*
X40735714Y-51381904D01*
X40278571Y-52181904D02*
X40621428Y-51724761D01*
X40278571Y-51381904D02*
X40735714Y-51839047D01*
X43152380Y-53301904D02*
X42657142Y-53301904D01*
X42923809Y-53606666D01*
X42809523Y-53606666D01*
X42733333Y-53644761D01*
X42695238Y-53682857D01*
X42657142Y-53759047D01*
X42657142Y-53949523D01*
X42695238Y-54025714D01*
X42733333Y-54063809D01*
X42809523Y-54101904D01*
X43038095Y-54101904D01*
X43114285Y-54063809D01*
X43152380Y-54025714D01*
X42390476Y-53568571D02*
X42200000Y-54101904D01*
X42009523Y-53568571D01*
X41780952Y-53301904D02*
X41285714Y-53301904D01*
X41552380Y-53606666D01*
X41438095Y-53606666D01*
X41361904Y-53644761D01*
X41323809Y-53682857D01*
X41285714Y-53759047D01*
X41285714Y-53949523D01*
X41323809Y-54025714D01*
X41361904Y-54063809D01*
X41438095Y-54101904D01*
X41666666Y-54101904D01*
X41742857Y-54063809D01*
X41780952Y-54025714D01*
D11*
X39742857Y-76028571D02*
X40242857Y-75314285D01*
X40600000Y-76028571D02*
X40600000Y-74528571D01*
X40028571Y-74528571D01*
X39885714Y-74600000D01*
X39814285Y-74671428D01*
X39742857Y-74814285D01*
X39742857Y-75028571D01*
X39814285Y-75171428D01*
X39885714Y-75242857D01*
X40028571Y-75314285D01*
X40600000Y-75314285D01*
X38814285Y-74528571D02*
X38528571Y-74528571D01*
X38385714Y-74600000D01*
X38242857Y-74742857D01*
X38171428Y-75028571D01*
X38171428Y-75528571D01*
X38242857Y-75814285D01*
X38385714Y-75957142D01*
X38528571Y-76028571D01*
X38814285Y-76028571D01*
X38957142Y-75957142D01*
X39100000Y-75814285D01*
X39171428Y-75528571D01*
X39171428Y-75028571D01*
X39100000Y-74742857D01*
X38957142Y-74600000D01*
X38814285Y-74528571D01*
X37242857Y-74528571D02*
X36957142Y-74528571D01*
X36814285Y-74600000D01*
X36671428Y-74742857D01*
X36600000Y-75028571D01*
X36600000Y-75528571D01*
X36671428Y-75814285D01*
X36814285Y-75957142D01*
X36957142Y-76028571D01*
X37242857Y-76028571D01*
X37385714Y-75957142D01*
X37528571Y-75814285D01*
X37600000Y-75528571D01*
X37600000Y-75028571D01*
X37528571Y-74742857D01*
X37385714Y-74600000D01*
X37242857Y-74528571D01*
X36171428Y-74528571D02*
X35314285Y-74528571D01*
X35742857Y-76028571D02*
X35742857Y-74528571D01*
X33957142Y-75885714D02*
X34028571Y-75957142D01*
X34242857Y-76028571D01*
X34385714Y-76028571D01*
X34600000Y-75957142D01*
X34742857Y-75814285D01*
X34814285Y-75671428D01*
X34885714Y-75385714D01*
X34885714Y-75171428D01*
X34814285Y-74885714D01*
X34742857Y-74742857D01*
X34600000Y-74600000D01*
X34385714Y-74528571D01*
X34242857Y-74528571D01*
X34028571Y-74600000D01*
X33957142Y-74671428D01*
X33028571Y-74528571D02*
X32742857Y-74528571D01*
X32600000Y-74600000D01*
X32457142Y-74742857D01*
X32385714Y-75028571D01*
X32385714Y-75528571D01*
X32457142Y-75814285D01*
X32600000Y-75957142D01*
X32742857Y-76028571D01*
X33028571Y-76028571D01*
X33171428Y-75957142D01*
X33314285Y-75814285D01*
X33385714Y-75528571D01*
X33385714Y-75028571D01*
X33314285Y-74742857D01*
X33171428Y-74600000D01*
X33028571Y-74528571D01*
X30885714Y-76028571D02*
X31385714Y-75314285D01*
X31742857Y-76028571D02*
X31742857Y-74528571D01*
X31171428Y-74528571D01*
X31028571Y-74600000D01*
X30957142Y-74671428D01*
X30885714Y-74814285D01*
X30885714Y-75028571D01*
X30957142Y-75171428D01*
X31028571Y-75242857D01*
X31171428Y-75314285D01*
X31742857Y-75314285D01*
X30242857Y-75242857D02*
X29742857Y-75242857D01*
X29528571Y-76028571D02*
X30242857Y-76028571D01*
X30242857Y-74528571D01*
X29528571Y-74528571D01*
X39126190Y-34430952D02*
X38173809Y-34430952D01*
X38935714Y-34716666D02*
X38364285Y-34716666D01*
X38650000Y-34002380D02*
X38650000Y-34430952D01*
X38554761Y-35002380D02*
X38745238Y-35002380D01*
X39076190Y-27980952D02*
X38123809Y-27980952D01*
X38885714Y-28266666D02*
X38314285Y-28266666D01*
X38600000Y-27552380D02*
X38600000Y-27980952D01*
X38504761Y-28552380D02*
X38695238Y-28552380D01*
X32388095Y-34671428D02*
X31626190Y-34671428D01*
X32007142Y-35052380D02*
X32007142Y-34290476D01*
X30673809Y-34052380D02*
X31150000Y-34052380D01*
X31197619Y-34528571D01*
X31150000Y-34480952D01*
X31054761Y-34433333D01*
X30816666Y-34433333D01*
X30721428Y-34480952D01*
X30673809Y-34528571D01*
X30626190Y-34623809D01*
X30626190Y-34861904D01*
X30673809Y-34957142D01*
X30721428Y-35004761D01*
X30816666Y-35052380D01*
X31054761Y-35052380D01*
X31150000Y-35004761D01*
X31197619Y-34957142D01*
X30292857Y-34385714D02*
X30054761Y-35052380D01*
X29816666Y-34385714D01*
X32138095Y-28121428D02*
X31376190Y-28121428D01*
X31757142Y-28502380D02*
X31757142Y-27740476D01*
X30423809Y-27502380D02*
X30900000Y-27502380D01*
X30947619Y-27978571D01*
X30900000Y-27930952D01*
X30804761Y-27883333D01*
X30566666Y-27883333D01*
X30471428Y-27930952D01*
X30423809Y-27978571D01*
X30376190Y-28073809D01*
X30376190Y-28311904D01*
X30423809Y-28407142D01*
X30471428Y-28454761D01*
X30566666Y-28502380D01*
X30804761Y-28502380D01*
X30900000Y-28454761D01*
X30947619Y-28407142D01*
X30042857Y-27835714D02*
X29804761Y-28502380D01*
X29566666Y-27835714D01*
X44130952Y-27771428D02*
X43369047Y-27771428D01*
X44130952Y-34821428D02*
X43369047Y-34821428D01*
X34030952Y-34721428D02*
X33269047Y-34721428D01*
X33650000Y-35102380D02*
X33650000Y-34340476D01*
X34030952Y-27621428D02*
X33269047Y-27621428D01*
X33650000Y-28002380D02*
X33650000Y-27240476D01*
D12*
X39966666Y-107783333D02*
X40000000Y-107750000D01*
X40066666Y-107650000D01*
X40100000Y-107583333D01*
X40133333Y-107483333D01*
X40166666Y-107316666D01*
X40166666Y-107183333D01*
X40133333Y-107016666D01*
X40100000Y-106916666D01*
X40066666Y-106850000D01*
X40000000Y-106750000D01*
X39966666Y-106716666D01*
X39700000Y-107516666D02*
X39700000Y-106816666D01*
X39533333Y-106816666D01*
X39433333Y-106850000D01*
X39366666Y-106916666D01*
X39333333Y-106983333D01*
X39300000Y-107116666D01*
X39300000Y-107216666D01*
X39333333Y-107350000D01*
X39366666Y-107416666D01*
X39433333Y-107483333D01*
X39533333Y-107516666D01*
X39700000Y-107516666D01*
X39033333Y-107316666D02*
X38700000Y-107316666D01*
X39100000Y-107516666D02*
X38866666Y-106816666D01*
X38633333Y-107516666D01*
X38000000Y-107450000D02*
X38033333Y-107483333D01*
X38133333Y-107516666D01*
X38200000Y-107516666D01*
X38300000Y-107483333D01*
X38366666Y-107416666D01*
X38400000Y-107350000D01*
X38433333Y-107216666D01*
X38433333Y-107116666D01*
X38400000Y-106983333D01*
X38366666Y-106916666D01*
X38300000Y-106850000D01*
X38200000Y-106816666D01*
X38133333Y-106816666D01*
X38033333Y-106850000D01*
X38000000Y-106883333D01*
X37700000Y-107450000D02*
X37666666Y-107483333D01*
X37700000Y-107516666D01*
X37733333Y-107483333D01*
X37700000Y-107450000D01*
X37700000Y-107516666D01*
X37700000Y-107250000D02*
X37733333Y-106850000D01*
X37700000Y-106816666D01*
X37666666Y-106850000D01*
X37700000Y-107250000D01*
X37700000Y-106816666D01*
X37433333Y-107783333D02*
X37400000Y-107750000D01*
X37333333Y-107650000D01*
X37300000Y-107583333D01*
X37266666Y-107483333D01*
X37233333Y-107316666D01*
X37233333Y-107183333D01*
X37266666Y-107016666D01*
X37300000Y-106916666D01*
X37333333Y-106850000D01*
X37400000Y-106750000D01*
X37433333Y-106716666D01*
X40516666Y-105283333D02*
X40550000Y-105250000D01*
X40616666Y-105150000D01*
X40650000Y-105083333D01*
X40683333Y-104983333D01*
X40716666Y-104816666D01*
X40716666Y-104683333D01*
X40683333Y-104516666D01*
X40650000Y-104416666D01*
X40616666Y-104350000D01*
X40550000Y-104250000D01*
X40516666Y-104216666D01*
X40250000Y-105016666D02*
X40250000Y-104316666D01*
X40083333Y-104316666D01*
X39983333Y-104350000D01*
X39916666Y-104416666D01*
X39883333Y-104483333D01*
X39850000Y-104616666D01*
X39850000Y-104716666D01*
X39883333Y-104850000D01*
X39916666Y-104916666D01*
X39983333Y-104983333D01*
X40083333Y-105016666D01*
X40250000Y-105016666D01*
X39583333Y-104816666D02*
X39250000Y-104816666D01*
X39650000Y-105016666D02*
X39416666Y-104316666D01*
X39183333Y-105016666D01*
X38550000Y-104950000D02*
X38583333Y-104983333D01*
X38683333Y-105016666D01*
X38750000Y-105016666D01*
X38850000Y-104983333D01*
X38916666Y-104916666D01*
X38950000Y-104850000D01*
X38983333Y-104716666D01*
X38983333Y-104616666D01*
X38950000Y-104483333D01*
X38916666Y-104416666D01*
X38850000Y-104350000D01*
X38750000Y-104316666D01*
X38683333Y-104316666D01*
X38583333Y-104350000D01*
X38550000Y-104383333D01*
X38250000Y-104950000D02*
X38216666Y-104983333D01*
X38250000Y-105016666D01*
X38283333Y-104983333D01*
X38250000Y-104950000D01*
X38250000Y-105016666D01*
X38250000Y-104750000D02*
X38283333Y-104350000D01*
X38250000Y-104316666D01*
X38216666Y-104350000D01*
X38250000Y-104750000D01*
X38250000Y-104316666D01*
X37983333Y-105283333D02*
X37950000Y-105250000D01*
X37883333Y-105150000D01*
X37850000Y-105083333D01*
X37816666Y-104983333D01*
X37783333Y-104816666D01*
X37783333Y-104683333D01*
X37816666Y-104516666D01*
X37850000Y-104416666D01*
X37883333Y-104350000D01*
X37950000Y-104250000D01*
X37983333Y-104216666D01*
X43766666Y-105183333D02*
X43800000Y-105150000D01*
X43866666Y-105050000D01*
X43900000Y-104983333D01*
X43933333Y-104883333D01*
X43966666Y-104716666D01*
X43966666Y-104583333D01*
X43933333Y-104416666D01*
X43900000Y-104316666D01*
X43866666Y-104250000D01*
X43800000Y-104150000D01*
X43766666Y-104116666D01*
X43500000Y-104916666D02*
X43500000Y-104216666D01*
X43333333Y-104216666D01*
X43233333Y-104250000D01*
X43166666Y-104316666D01*
X43133333Y-104383333D01*
X43100000Y-104516666D01*
X43100000Y-104616666D01*
X43133333Y-104750000D01*
X43166666Y-104816666D01*
X43233333Y-104883333D01*
X43333333Y-104916666D01*
X43500000Y-104916666D01*
X42833333Y-104716666D02*
X42500000Y-104716666D01*
X42900000Y-104916666D02*
X42666666Y-104216666D01*
X42433333Y-104916666D01*
X41800000Y-104850000D02*
X41833333Y-104883333D01*
X41933333Y-104916666D01*
X42000000Y-104916666D01*
X42100000Y-104883333D01*
X42166666Y-104816666D01*
X42200000Y-104750000D01*
X42233333Y-104616666D01*
X42233333Y-104516666D01*
X42200000Y-104383333D01*
X42166666Y-104316666D01*
X42100000Y-104250000D01*
X42000000Y-104216666D01*
X41933333Y-104216666D01*
X41833333Y-104250000D01*
X41800000Y-104283333D01*
X41500000Y-104850000D02*
X41466666Y-104883333D01*
X41500000Y-104916666D01*
X41533333Y-104883333D01*
X41500000Y-104850000D01*
X41500000Y-104916666D01*
X41500000Y-104650000D02*
X41533333Y-104250000D01*
X41500000Y-104216666D01*
X41466666Y-104250000D01*
X41500000Y-104650000D01*
X41500000Y-104216666D01*
X41233333Y-105183333D02*
X41200000Y-105150000D01*
X41133333Y-105050000D01*
X41100000Y-104983333D01*
X41066666Y-104883333D01*
X41033333Y-104716666D01*
X41033333Y-104583333D01*
X41066666Y-104416666D01*
X41100000Y-104316666D01*
X41133333Y-104250000D01*
X41200000Y-104150000D01*
X41233333Y-104116666D01*
X42283333Y-128510000D02*
X42350000Y-128476666D01*
X42450000Y-128476666D01*
X42550000Y-128510000D01*
X42616666Y-128576666D01*
X42650000Y-128643333D01*
X42683333Y-128776666D01*
X42683333Y-128876666D01*
X42650000Y-129010000D01*
X42616666Y-129076666D01*
X42550000Y-129143333D01*
X42450000Y-129176666D01*
X42383333Y-129176666D01*
X42283333Y-129143333D01*
X42250000Y-129110000D01*
X42250000Y-128876666D01*
X42383333Y-128876666D01*
X41950000Y-129176666D02*
X41950000Y-128476666D01*
X41550000Y-129176666D01*
X41550000Y-128476666D01*
X41216666Y-129176666D02*
X41216666Y-128476666D01*
X41050000Y-128476666D01*
X40950000Y-128510000D01*
X40883333Y-128576666D01*
X40850000Y-128643333D01*
X40816666Y-128776666D01*
X40816666Y-128876666D01*
X40850000Y-129010000D01*
X40883333Y-129076666D01*
X40950000Y-129143333D01*
X41050000Y-129176666D01*
X41216666Y-129176666D01*
X40350000Y-129410000D02*
X40350000Y-128410000D01*
X39483333Y-128510000D02*
X39550000Y-128476666D01*
X39650000Y-128476666D01*
X39750000Y-128510000D01*
X39816666Y-128576666D01*
X39850000Y-128643333D01*
X39883333Y-128776666D01*
X39883333Y-128876666D01*
X39850000Y-129010000D01*
X39816666Y-129076666D01*
X39750000Y-129143333D01*
X39650000Y-129176666D01*
X39583333Y-129176666D01*
X39483333Y-129143333D01*
X39450000Y-129110000D01*
X39450000Y-128876666D01*
X39583333Y-128876666D01*
X39150000Y-129176666D02*
X39150000Y-128476666D01*
X38750000Y-129176666D01*
X38750000Y-128476666D01*
X38416666Y-129176666D02*
X38416666Y-128476666D01*
X38250000Y-128476666D01*
X38150000Y-128510000D01*
X38083333Y-128576666D01*
X38050000Y-128643333D01*
X38016666Y-128776666D01*
X38016666Y-128876666D01*
X38050000Y-129010000D01*
X38083333Y-129076666D01*
X38150000Y-129143333D01*
X38250000Y-129176666D01*
X38416666Y-129176666D01*
X43883333Y-125936666D02*
X43750000Y-125936666D01*
X43683333Y-125970000D01*
X43616666Y-126036666D01*
X43583333Y-126170000D01*
X43583333Y-126403333D01*
X43616666Y-126536666D01*
X43683333Y-126603333D01*
X43750000Y-126636666D01*
X43883333Y-126636666D01*
X43950000Y-126603333D01*
X44016666Y-126536666D01*
X44050000Y-126403333D01*
X44050000Y-126170000D01*
X44016666Y-126036666D01*
X43950000Y-125970000D01*
X43883333Y-125936666D01*
X43283333Y-126636666D02*
X43283333Y-125936666D01*
X43016666Y-125936666D01*
X42950000Y-125970000D01*
X42916666Y-126003333D01*
X42883333Y-126070000D01*
X42883333Y-126170000D01*
X42916666Y-126236666D01*
X42950000Y-126270000D01*
X43016666Y-126303333D01*
X43283333Y-126303333D01*
X42616666Y-126003333D02*
X42583333Y-125970000D01*
X42516666Y-125936666D01*
X42350000Y-125936666D01*
X42283333Y-125970000D01*
X42250000Y-126003333D01*
X42216666Y-126070000D01*
X42216666Y-126136666D01*
X42250000Y-126236666D01*
X42650000Y-126636666D01*
X42216666Y-126636666D01*
X42083333Y-126703333D02*
X41550000Y-126703333D01*
X41250000Y-125936666D02*
X41116666Y-125936666D01*
X41050000Y-125970000D01*
X40983333Y-126036666D01*
X40950000Y-126170000D01*
X40950000Y-126403333D01*
X40983333Y-126536666D01*
X41050000Y-126603333D01*
X41116666Y-126636666D01*
X41250000Y-126636666D01*
X41316666Y-126603333D01*
X41383333Y-126536666D01*
X41416666Y-126403333D01*
X41416666Y-126170000D01*
X41383333Y-126036666D01*
X41316666Y-125970000D01*
X41250000Y-125936666D01*
X40650000Y-125936666D02*
X40650000Y-126503333D01*
X40616666Y-126570000D01*
X40583333Y-126603333D01*
X40516666Y-126636666D01*
X40383333Y-126636666D01*
X40316666Y-126603333D01*
X40283333Y-126570000D01*
X40250000Y-126503333D01*
X40250000Y-125936666D01*
X40016666Y-125936666D02*
X39616666Y-125936666D01*
X39816666Y-126636666D02*
X39816666Y-125936666D01*
X39216666Y-126870000D02*
X39216666Y-125870000D01*
X38583333Y-125936666D02*
X38450000Y-125936666D01*
X38383333Y-125970000D01*
X38316666Y-126036666D01*
X38283333Y-126170000D01*
X38283333Y-126403333D01*
X38316666Y-126536666D01*
X38383333Y-126603333D01*
X38450000Y-126636666D01*
X38583333Y-126636666D01*
X38650000Y-126603333D01*
X38716666Y-126536666D01*
X38750000Y-126403333D01*
X38750000Y-126170000D01*
X38716666Y-126036666D01*
X38650000Y-125970000D01*
X38583333Y-125936666D01*
X37983333Y-126636666D02*
X37983333Y-125936666D01*
X37716666Y-125936666D01*
X37650000Y-125970000D01*
X37616666Y-126003333D01*
X37583333Y-126070000D01*
X37583333Y-126170000D01*
X37616666Y-126236666D01*
X37650000Y-126270000D01*
X37716666Y-126303333D01*
X37983333Y-126303333D01*
X37316666Y-126003333D02*
X37283333Y-125970000D01*
X37216666Y-125936666D01*
X37050000Y-125936666D01*
X36983333Y-125970000D01*
X36950000Y-126003333D01*
X36916666Y-126070000D01*
X36916666Y-126136666D01*
X36950000Y-126236666D01*
X37350000Y-126636666D01*
X36916666Y-126636666D01*
X36783333Y-126703333D02*
X36250000Y-126703333D01*
X36083333Y-126636666D02*
X36083333Y-125936666D01*
X35750000Y-126636666D02*
X35750000Y-125936666D01*
X35350000Y-126636666D01*
X35350000Y-125936666D01*
X35016666Y-126370000D02*
X34483333Y-126370000D01*
X43850000Y-123416666D02*
X43716666Y-123416666D01*
X43650000Y-123450000D01*
X43583333Y-123516666D01*
X43550000Y-123650000D01*
X43550000Y-123883333D01*
X43583333Y-124016666D01*
X43650000Y-124083333D01*
X43716666Y-124116666D01*
X43850000Y-124116666D01*
X43916666Y-124083333D01*
X43983333Y-124016666D01*
X44016666Y-123883333D01*
X44016666Y-123650000D01*
X43983333Y-123516666D01*
X43916666Y-123450000D01*
X43850000Y-123416666D01*
X43250000Y-124116666D02*
X43250000Y-123416666D01*
X42983333Y-123416666D01*
X42916666Y-123450000D01*
X42883333Y-123483333D01*
X42850000Y-123550000D01*
X42850000Y-123650000D01*
X42883333Y-123716666D01*
X42916666Y-123750000D01*
X42983333Y-123783333D01*
X43250000Y-123783333D01*
X42183333Y-124116666D02*
X42583333Y-124116666D01*
X42383333Y-124116666D02*
X42383333Y-123416666D01*
X42450000Y-123516666D01*
X42516666Y-123583333D01*
X42583333Y-123616666D01*
X42050000Y-124183333D02*
X41516666Y-124183333D01*
X41350000Y-124116666D02*
X41350000Y-123416666D01*
X41016666Y-124116666D02*
X41016666Y-123416666D01*
X40616666Y-124116666D01*
X40616666Y-123416666D01*
X40283333Y-123850000D02*
X39750000Y-123850000D01*
X40016666Y-124116666D02*
X40016666Y-123583333D01*
X39250000Y-124350000D02*
X39250000Y-123350000D01*
X38616666Y-123416666D02*
X38483333Y-123416666D01*
X38416666Y-123450000D01*
X38350000Y-123516666D01*
X38316666Y-123650000D01*
X38316666Y-123883333D01*
X38350000Y-124016666D01*
X38416666Y-124083333D01*
X38483333Y-124116666D01*
X38616666Y-124116666D01*
X38683333Y-124083333D01*
X38750000Y-124016666D01*
X38783333Y-123883333D01*
X38783333Y-123650000D01*
X38750000Y-123516666D01*
X38683333Y-123450000D01*
X38616666Y-123416666D01*
X38016666Y-124116666D02*
X38016666Y-123416666D01*
X37750000Y-123416666D01*
X37683333Y-123450000D01*
X37650000Y-123483333D01*
X37616666Y-123550000D01*
X37616666Y-123650000D01*
X37650000Y-123716666D01*
X37683333Y-123750000D01*
X37750000Y-123783333D01*
X38016666Y-123783333D01*
X37350000Y-123483333D02*
X37316666Y-123450000D01*
X37250000Y-123416666D01*
X37083333Y-123416666D01*
X37016666Y-123450000D01*
X36983333Y-123483333D01*
X36950000Y-123550000D01*
X36950000Y-123616666D01*
X36983333Y-123716666D01*
X37383333Y-124116666D01*
X36950000Y-124116666D01*
X36816666Y-124183333D02*
X36283333Y-124183333D01*
X36116666Y-124116666D02*
X36116666Y-123416666D01*
X35783333Y-124116666D02*
X35783333Y-123416666D01*
X35383333Y-124116666D01*
X35383333Y-123416666D01*
X35050000Y-123850000D02*
X34516666Y-123850000D01*
X34783333Y-124116666D02*
X34783333Y-123583333D01*
X43933333Y-120916666D02*
X43800000Y-120916666D01*
X43733333Y-120950000D01*
X43666666Y-121016666D01*
X43633333Y-121150000D01*
X43633333Y-121383333D01*
X43666666Y-121516666D01*
X43733333Y-121583333D01*
X43800000Y-121616666D01*
X43933333Y-121616666D01*
X44000000Y-121583333D01*
X44066666Y-121516666D01*
X44100000Y-121383333D01*
X44100000Y-121150000D01*
X44066666Y-121016666D01*
X44000000Y-120950000D01*
X43933333Y-120916666D01*
X43333333Y-121616666D02*
X43333333Y-120916666D01*
X43066666Y-120916666D01*
X43000000Y-120950000D01*
X42966666Y-120983333D01*
X42933333Y-121050000D01*
X42933333Y-121150000D01*
X42966666Y-121216666D01*
X43000000Y-121250000D01*
X43066666Y-121283333D01*
X43333333Y-121283333D01*
X42266666Y-121616666D02*
X42666666Y-121616666D01*
X42466666Y-121616666D02*
X42466666Y-120916666D01*
X42533333Y-121016666D01*
X42600000Y-121083333D01*
X42666666Y-121116666D01*
X42133333Y-121683333D02*
X41600000Y-121683333D01*
X41433333Y-121616666D02*
X41433333Y-120916666D01*
X41100000Y-121616666D02*
X41100000Y-120916666D01*
X40700000Y-121616666D01*
X40700000Y-120916666D01*
X40366666Y-121350000D02*
X39833333Y-121350000D01*
X39333333Y-121850000D02*
X39333333Y-120850000D01*
X38700000Y-120916666D02*
X38566666Y-120916666D01*
X38500000Y-120950000D01*
X38433333Y-121016666D01*
X38400000Y-121150000D01*
X38400000Y-121383333D01*
X38433333Y-121516666D01*
X38500000Y-121583333D01*
X38566666Y-121616666D01*
X38700000Y-121616666D01*
X38766666Y-121583333D01*
X38833333Y-121516666D01*
X38866666Y-121383333D01*
X38866666Y-121150000D01*
X38833333Y-121016666D01*
X38766666Y-120950000D01*
X38700000Y-120916666D01*
X38100000Y-121616666D02*
X38100000Y-120916666D01*
X37833333Y-120916666D01*
X37766666Y-120950000D01*
X37733333Y-120983333D01*
X37700000Y-121050000D01*
X37700000Y-121150000D01*
X37733333Y-121216666D01*
X37766666Y-121250000D01*
X37833333Y-121283333D01*
X38100000Y-121283333D01*
X37033333Y-121616666D02*
X37433333Y-121616666D01*
X37233333Y-121616666D02*
X37233333Y-120916666D01*
X37300000Y-121016666D01*
X37366666Y-121083333D01*
X37433333Y-121116666D01*
X36900000Y-121683333D02*
X36366666Y-121683333D01*
X36066666Y-120916666D02*
X35933333Y-120916666D01*
X35866666Y-120950000D01*
X35800000Y-121016666D01*
X35766666Y-121150000D01*
X35766666Y-121383333D01*
X35800000Y-121516666D01*
X35866666Y-121583333D01*
X35933333Y-121616666D01*
X36066666Y-121616666D01*
X36133333Y-121583333D01*
X36200000Y-121516666D01*
X36233333Y-121383333D01*
X36233333Y-121150000D01*
X36200000Y-121016666D01*
X36133333Y-120950000D01*
X36066666Y-120916666D01*
X35466666Y-120916666D02*
X35466666Y-121483333D01*
X35433333Y-121550000D01*
X35400000Y-121583333D01*
X35333333Y-121616666D01*
X35200000Y-121616666D01*
X35133333Y-121583333D01*
X35100000Y-121550000D01*
X35066666Y-121483333D01*
X35066666Y-120916666D01*
X34833333Y-120916666D02*
X34433333Y-120916666D01*
X34633333Y-121616666D02*
X34633333Y-120916666D01*
X43233333Y-118750000D02*
X42700000Y-118750000D01*
X42000000Y-119016666D02*
X42400000Y-119016666D01*
X42200000Y-119016666D02*
X42200000Y-118316666D01*
X42266666Y-118416666D01*
X42333333Y-118483333D01*
X42400000Y-118516666D01*
X41733333Y-118383333D02*
X41700000Y-118350000D01*
X41633333Y-118316666D01*
X41466666Y-118316666D01*
X41400000Y-118350000D01*
X41366666Y-118383333D01*
X41333333Y-118450000D01*
X41333333Y-118516666D01*
X41366666Y-118616666D01*
X41766666Y-119016666D01*
X41333333Y-119016666D01*
X41100000Y-118550000D02*
X40933333Y-119016666D01*
X40766666Y-118550000D01*
X40333333Y-119250000D02*
X40333333Y-118250000D01*
X39900000Y-118316666D02*
X39466666Y-118316666D01*
X39700000Y-118583333D01*
X39600000Y-118583333D01*
X39533333Y-118616666D01*
X39500000Y-118650000D01*
X39466666Y-118716666D01*
X39466666Y-118883333D01*
X39500000Y-118950000D01*
X39533333Y-118983333D01*
X39600000Y-119016666D01*
X39800000Y-119016666D01*
X39866666Y-118983333D01*
X39900000Y-118950000D01*
X39166666Y-118950000D02*
X39133333Y-118983333D01*
X39166666Y-119016666D01*
X39200000Y-118983333D01*
X39166666Y-118950000D01*
X39166666Y-119016666D01*
X38900000Y-118316666D02*
X38466666Y-118316666D01*
X38700000Y-118583333D01*
X38600000Y-118583333D01*
X38533333Y-118616666D01*
X38500000Y-118650000D01*
X38466666Y-118716666D01*
X38466666Y-118883333D01*
X38500000Y-118950000D01*
X38533333Y-118983333D01*
X38600000Y-119016666D01*
X38800000Y-119016666D01*
X38866666Y-118983333D01*
X38900000Y-118950000D01*
X38233333Y-118550000D02*
X38066666Y-119016666D01*
X37900000Y-118550000D01*
X43150000Y-116466666D02*
X43150000Y-115766666D01*
X42883333Y-115766666D01*
X42816666Y-115800000D01*
X42783333Y-115833333D01*
X42750000Y-115900000D01*
X42750000Y-116000000D01*
X42783333Y-116066666D01*
X42816666Y-116100000D01*
X42883333Y-116133333D01*
X43150000Y-116133333D01*
X42216666Y-116100000D02*
X42116666Y-116133333D01*
X42083333Y-116166666D01*
X42050000Y-116233333D01*
X42050000Y-116333333D01*
X42083333Y-116400000D01*
X42116666Y-116433333D01*
X42183333Y-116466666D01*
X42450000Y-116466666D01*
X42450000Y-115766666D01*
X42216666Y-115766666D01*
X42150000Y-115800000D01*
X42116666Y-115833333D01*
X42083333Y-115900000D01*
X42083333Y-115966666D01*
X42116666Y-116033333D01*
X42150000Y-116066666D01*
X42216666Y-116100000D01*
X42450000Y-116100000D01*
X41383333Y-116466666D02*
X41783333Y-116466666D01*
X41583333Y-116466666D02*
X41583333Y-115766666D01*
X41650000Y-115866666D01*
X41716666Y-115933333D01*
X41783333Y-115966666D01*
X40783333Y-116000000D02*
X40783333Y-116466666D01*
X40950000Y-115733333D02*
X41116666Y-116233333D01*
X40683333Y-116233333D01*
X40250000Y-116700000D02*
X40250000Y-115700000D01*
X39383333Y-115800000D02*
X39450000Y-115766666D01*
X39550000Y-115766666D01*
X39650000Y-115800000D01*
X39716666Y-115866666D01*
X39750000Y-115933333D01*
X39783333Y-116066666D01*
X39783333Y-116166666D01*
X39750000Y-116300000D01*
X39716666Y-116366666D01*
X39650000Y-116433333D01*
X39550000Y-116466666D01*
X39483333Y-116466666D01*
X39383333Y-116433333D01*
X39350000Y-116400000D01*
X39350000Y-116166666D01*
X39483333Y-116166666D01*
X39050000Y-116466666D02*
X39050000Y-115766666D01*
X38650000Y-116466666D01*
X38650000Y-115766666D01*
X38316666Y-116466666D02*
X38316666Y-115766666D01*
X38150000Y-115766666D01*
X38050000Y-115800000D01*
X37983333Y-115866666D01*
X37950000Y-115933333D01*
X37916666Y-116066666D01*
X37916666Y-116166666D01*
X37950000Y-116300000D01*
X37983333Y-116366666D01*
X38050000Y-116433333D01*
X38150000Y-116466666D01*
X38316666Y-116466666D01*
X42566666Y-113916666D02*
X42566666Y-113216666D01*
X42300000Y-113216666D01*
X42233333Y-113250000D01*
X42200000Y-113283333D01*
X42166666Y-113350000D01*
X42166666Y-113450000D01*
X42200000Y-113516666D01*
X42233333Y-113550000D01*
X42300000Y-113583333D01*
X42566666Y-113583333D01*
X41866666Y-113916666D02*
X41866666Y-113216666D01*
X41700000Y-113216666D01*
X41600000Y-113250000D01*
X41533333Y-113316666D01*
X41500000Y-113383333D01*
X41466666Y-113516666D01*
X41466666Y-113616666D01*
X41500000Y-113750000D01*
X41533333Y-113816666D01*
X41600000Y-113883333D01*
X41700000Y-113916666D01*
X41866666Y-113916666D01*
X41066666Y-113516666D02*
X41133333Y-113483333D01*
X41166666Y-113450000D01*
X41200000Y-113383333D01*
X41200000Y-113350000D01*
X41166666Y-113283333D01*
X41133333Y-113250000D01*
X41066666Y-113216666D01*
X40933333Y-113216666D01*
X40866666Y-113250000D01*
X40833333Y-113283333D01*
X40800000Y-113350000D01*
X40800000Y-113383333D01*
X40833333Y-113450000D01*
X40866666Y-113483333D01*
X40933333Y-113516666D01*
X41066666Y-113516666D01*
X41133333Y-113550000D01*
X41166666Y-113583333D01*
X41200000Y-113650000D01*
X41200000Y-113783333D01*
X41166666Y-113850000D01*
X41133333Y-113883333D01*
X41066666Y-113916666D01*
X40933333Y-113916666D01*
X40866666Y-113883333D01*
X40833333Y-113850000D01*
X40800000Y-113783333D01*
X40800000Y-113650000D01*
X40833333Y-113583333D01*
X40866666Y-113550000D01*
X40933333Y-113516666D01*
X40333333Y-114150000D02*
X40333333Y-113150000D01*
X39833333Y-113916666D02*
X39833333Y-113216666D01*
X39566666Y-113216666D01*
X39500000Y-113250000D01*
X39466666Y-113283333D01*
X39433333Y-113350000D01*
X39433333Y-113450000D01*
X39466666Y-113516666D01*
X39500000Y-113550000D01*
X39566666Y-113583333D01*
X39833333Y-113583333D01*
X38900000Y-113550000D02*
X38800000Y-113583333D01*
X38766666Y-113616666D01*
X38733333Y-113683333D01*
X38733333Y-113783333D01*
X38766666Y-113850000D01*
X38800000Y-113883333D01*
X38866666Y-113916666D01*
X39133333Y-113916666D01*
X39133333Y-113216666D01*
X38900000Y-113216666D01*
X38833333Y-113250000D01*
X38800000Y-113283333D01*
X38766666Y-113350000D01*
X38766666Y-113416666D01*
X38800000Y-113483333D01*
X38833333Y-113516666D01*
X38900000Y-113550000D01*
X39133333Y-113550000D01*
X38066666Y-113916666D02*
X38466666Y-113916666D01*
X38266666Y-113916666D02*
X38266666Y-113216666D01*
X38333333Y-113316666D01*
X38400000Y-113383333D01*
X38466666Y-113416666D01*
X37433333Y-113216666D02*
X37766666Y-113216666D01*
X37800000Y-113550000D01*
X37766666Y-113516666D01*
X37700000Y-113483333D01*
X37533333Y-113483333D01*
X37466666Y-113516666D01*
X37433333Y-113550000D01*
X37400000Y-113616666D01*
X37400000Y-113783333D01*
X37433333Y-113850000D01*
X37466666Y-113883333D01*
X37533333Y-113916666D01*
X37700000Y-113916666D01*
X37766666Y-113883333D01*
X37800000Y-113850000D01*
X42583333Y-111396666D02*
X42583333Y-110696666D01*
X42316666Y-110696666D01*
X42250000Y-110730000D01*
X42216666Y-110763333D01*
X42183333Y-110830000D01*
X42183333Y-110930000D01*
X42216666Y-110996666D01*
X42250000Y-111030000D01*
X42316666Y-111063333D01*
X42583333Y-111063333D01*
X41483333Y-111330000D02*
X41516666Y-111363333D01*
X41616666Y-111396666D01*
X41683333Y-111396666D01*
X41783333Y-111363333D01*
X41850000Y-111296666D01*
X41883333Y-111230000D01*
X41916666Y-111096666D01*
X41916666Y-110996666D01*
X41883333Y-110863333D01*
X41850000Y-110796666D01*
X41783333Y-110730000D01*
X41683333Y-110696666D01*
X41616666Y-110696666D01*
X41516666Y-110730000D01*
X41483333Y-110763333D01*
X41250000Y-110696666D02*
X40783333Y-110696666D01*
X41083333Y-111396666D01*
X40350000Y-111630000D02*
X40350000Y-110630000D01*
X39850000Y-111396666D02*
X39850000Y-110696666D01*
X39583333Y-110696666D01*
X39516666Y-110730000D01*
X39483333Y-110763333D01*
X39450000Y-110830000D01*
X39450000Y-110930000D01*
X39483333Y-110996666D01*
X39516666Y-111030000D01*
X39583333Y-111063333D01*
X39850000Y-111063333D01*
X38750000Y-111330000D02*
X38783333Y-111363333D01*
X38883333Y-111396666D01*
X38950000Y-111396666D01*
X39050000Y-111363333D01*
X39116666Y-111296666D01*
X39150000Y-111230000D01*
X39183333Y-111096666D01*
X39183333Y-110996666D01*
X39150000Y-110863333D01*
X39116666Y-110796666D01*
X39050000Y-110730000D01*
X38950000Y-110696666D01*
X38883333Y-110696666D01*
X38783333Y-110730000D01*
X38750000Y-110763333D01*
X38150000Y-110696666D02*
X38283333Y-110696666D01*
X38350000Y-110730000D01*
X38383333Y-110763333D01*
X38450000Y-110863333D01*
X38483333Y-110996666D01*
X38483333Y-111263333D01*
X38450000Y-111330000D01*
X38416666Y-111363333D01*
X38350000Y-111396666D01*
X38216666Y-111396666D01*
X38150000Y-111363333D01*
X38116666Y-111330000D01*
X38083333Y-111263333D01*
X38083333Y-111096666D01*
X38116666Y-111030000D01*
X38150000Y-110996666D01*
X38216666Y-110963333D01*
X38350000Y-110963333D01*
X38416666Y-110996666D01*
X38450000Y-111030000D01*
X38483333Y-111096666D01*
X42583333Y-108856666D02*
X42583333Y-108156666D01*
X42316666Y-108156666D01*
X42250000Y-108190000D01*
X42216666Y-108223333D01*
X42183333Y-108290000D01*
X42183333Y-108390000D01*
X42216666Y-108456666D01*
X42250000Y-108490000D01*
X42316666Y-108523333D01*
X42583333Y-108523333D01*
X41483333Y-108790000D02*
X41516666Y-108823333D01*
X41616666Y-108856666D01*
X41683333Y-108856666D01*
X41783333Y-108823333D01*
X41850000Y-108756666D01*
X41883333Y-108690000D01*
X41916666Y-108556666D01*
X41916666Y-108456666D01*
X41883333Y-108323333D01*
X41850000Y-108256666D01*
X41783333Y-108190000D01*
X41683333Y-108156666D01*
X41616666Y-108156666D01*
X41516666Y-108190000D01*
X41483333Y-108223333D01*
X41150000Y-108856666D02*
X41016666Y-108856666D01*
X40950000Y-108823333D01*
X40916666Y-108790000D01*
X40850000Y-108690000D01*
X40816666Y-108556666D01*
X40816666Y-108290000D01*
X40850000Y-108223333D01*
X40883333Y-108190000D01*
X40950000Y-108156666D01*
X41083333Y-108156666D01*
X41150000Y-108190000D01*
X41183333Y-108223333D01*
X41216666Y-108290000D01*
X41216666Y-108456666D01*
X41183333Y-108523333D01*
X41150000Y-108556666D01*
X41083333Y-108590000D01*
X40950000Y-108590000D01*
X40883333Y-108556666D01*
X40850000Y-108523333D01*
X40816666Y-108456666D01*
X40350000Y-109090000D02*
X40350000Y-108090000D01*
X39850000Y-108856666D02*
X39850000Y-108156666D01*
X39583333Y-108156666D01*
X39516666Y-108190000D01*
X39483333Y-108223333D01*
X39450000Y-108290000D01*
X39450000Y-108390000D01*
X39483333Y-108456666D01*
X39516666Y-108490000D01*
X39583333Y-108523333D01*
X39850000Y-108523333D01*
X38750000Y-108790000D02*
X38783333Y-108823333D01*
X38883333Y-108856666D01*
X38950000Y-108856666D01*
X39050000Y-108823333D01*
X39116666Y-108756666D01*
X39150000Y-108690000D01*
X39183333Y-108556666D01*
X39183333Y-108456666D01*
X39150000Y-108323333D01*
X39116666Y-108256666D01*
X39050000Y-108190000D01*
X38950000Y-108156666D01*
X38883333Y-108156666D01*
X38783333Y-108190000D01*
X38750000Y-108223333D01*
X38350000Y-108456666D02*
X38416666Y-108423333D01*
X38450000Y-108390000D01*
X38483333Y-108323333D01*
X38483333Y-108290000D01*
X38450000Y-108223333D01*
X38416666Y-108190000D01*
X38350000Y-108156666D01*
X38216666Y-108156666D01*
X38150000Y-108190000D01*
X38116666Y-108223333D01*
X38083333Y-108290000D01*
X38083333Y-108323333D01*
X38116666Y-108390000D01*
X38150000Y-108423333D01*
X38216666Y-108456666D01*
X38350000Y-108456666D01*
X38416666Y-108490000D01*
X38450000Y-108523333D01*
X38483333Y-108590000D01*
X38483333Y-108723333D01*
X38450000Y-108790000D01*
X38416666Y-108823333D01*
X38350000Y-108856666D01*
X38216666Y-108856666D01*
X38150000Y-108823333D01*
X38116666Y-108790000D01*
X38083333Y-108723333D01*
X38083333Y-108590000D01*
X38116666Y-108523333D01*
X38150000Y-108490000D01*
X38216666Y-108456666D01*
X42483333Y-106316666D02*
X42483333Y-105616666D01*
X42216666Y-105616666D01*
X42150000Y-105650000D01*
X42116666Y-105683333D01*
X42083333Y-105750000D01*
X42083333Y-105850000D01*
X42116666Y-105916666D01*
X42150000Y-105950000D01*
X42216666Y-105983333D01*
X42483333Y-105983333D01*
X41816666Y-106116666D02*
X41483333Y-106116666D01*
X41883333Y-106316666D02*
X41650000Y-105616666D01*
X41416666Y-106316666D01*
X41150000Y-106316666D02*
X41016666Y-106316666D01*
X40950000Y-106283333D01*
X40916666Y-106250000D01*
X40850000Y-106150000D01*
X40816666Y-106016666D01*
X40816666Y-105750000D01*
X40850000Y-105683333D01*
X40883333Y-105650000D01*
X40950000Y-105616666D01*
X41083333Y-105616666D01*
X41150000Y-105650000D01*
X41183333Y-105683333D01*
X41216666Y-105750000D01*
X41216666Y-105916666D01*
X41183333Y-105983333D01*
X41150000Y-106016666D01*
X41083333Y-106050000D01*
X40950000Y-106050000D01*
X40883333Y-106016666D01*
X40850000Y-105983333D01*
X40816666Y-105916666D01*
X40350000Y-106550000D02*
X40350000Y-105550000D01*
X39850000Y-106316666D02*
X39850000Y-105616666D01*
X39583333Y-105616666D01*
X39516666Y-105650000D01*
X39483333Y-105683333D01*
X39450000Y-105750000D01*
X39450000Y-105850000D01*
X39483333Y-105916666D01*
X39516666Y-105950000D01*
X39583333Y-105983333D01*
X39850000Y-105983333D01*
X39183333Y-106116666D02*
X38850000Y-106116666D01*
X39250000Y-106316666D02*
X39016666Y-105616666D01*
X38783333Y-106316666D01*
X38450000Y-105916666D02*
X38516666Y-105883333D01*
X38550000Y-105850000D01*
X38583333Y-105783333D01*
X38583333Y-105750000D01*
X38550000Y-105683333D01*
X38516666Y-105650000D01*
X38450000Y-105616666D01*
X38316666Y-105616666D01*
X38250000Y-105650000D01*
X38216666Y-105683333D01*
X38183333Y-105750000D01*
X38183333Y-105783333D01*
X38216666Y-105850000D01*
X38250000Y-105883333D01*
X38316666Y-105916666D01*
X38450000Y-105916666D01*
X38516666Y-105950000D01*
X38550000Y-105983333D01*
X38583333Y-106050000D01*
X38583333Y-106183333D01*
X38550000Y-106250000D01*
X38516666Y-106283333D01*
X38450000Y-106316666D01*
X38316666Y-106316666D01*
X38250000Y-106283333D01*
X38216666Y-106250000D01*
X38183333Y-106183333D01*
X38183333Y-106050000D01*
X38216666Y-105983333D01*
X38250000Y-105950000D01*
X38316666Y-105916666D01*
X44000000Y-103766666D02*
X44000000Y-103066666D01*
X43733333Y-103066666D01*
X43666666Y-103100000D01*
X43633333Y-103133333D01*
X43600000Y-103200000D01*
X43600000Y-103300000D01*
X43633333Y-103366666D01*
X43666666Y-103400000D01*
X43733333Y-103433333D01*
X44000000Y-103433333D01*
X43333333Y-103566666D02*
X43000000Y-103566666D01*
X43400000Y-103766666D02*
X43166666Y-103066666D01*
X42933333Y-103766666D01*
X42333333Y-103766666D02*
X42733333Y-103766666D01*
X42533333Y-103766666D02*
X42533333Y-103066666D01*
X42600000Y-103166666D01*
X42666666Y-103233333D01*
X42733333Y-103266666D01*
X41666666Y-103766666D02*
X42066666Y-103766666D01*
X41866666Y-103766666D02*
X41866666Y-103066666D01*
X41933333Y-103166666D01*
X42000000Y-103233333D01*
X42066666Y-103266666D01*
X41200000Y-104000000D02*
X41200000Y-103000000D01*
X40700000Y-103766666D02*
X40700000Y-103066666D01*
X40433333Y-103066666D01*
X40366666Y-103100000D01*
X40333333Y-103133333D01*
X40300000Y-103200000D01*
X40300000Y-103300000D01*
X40333333Y-103366666D01*
X40366666Y-103400000D01*
X40433333Y-103433333D01*
X40700000Y-103433333D01*
X40033333Y-103566666D02*
X39700000Y-103566666D01*
X40100000Y-103766666D02*
X39866666Y-103066666D01*
X39633333Y-103766666D01*
X39033333Y-103766666D02*
X39433333Y-103766666D01*
X39233333Y-103766666D02*
X39233333Y-103066666D01*
X39300000Y-103166666D01*
X39366666Y-103233333D01*
X39433333Y-103266666D01*
X38600000Y-103066666D02*
X38533333Y-103066666D01*
X38466666Y-103100000D01*
X38433333Y-103133333D01*
X38400000Y-103200000D01*
X38366666Y-103333333D01*
X38366666Y-103500000D01*
X38400000Y-103633333D01*
X38433333Y-103700000D01*
X38466666Y-103733333D01*
X38533333Y-103766666D01*
X38600000Y-103766666D01*
X38666666Y-103733333D01*
X38700000Y-103700000D01*
X38733333Y-103633333D01*
X38766666Y-103500000D01*
X38766666Y-103333333D01*
X38733333Y-103200000D01*
X38700000Y-103133333D01*
X38666666Y-103100000D01*
X38600000Y-103066666D01*
X43466666Y-101236666D02*
X43466666Y-100536666D01*
X43200000Y-100536666D01*
X43133333Y-100570000D01*
X43100000Y-100603333D01*
X43066666Y-100670000D01*
X43066666Y-100770000D01*
X43100000Y-100836666D01*
X43133333Y-100870000D01*
X43200000Y-100903333D01*
X43466666Y-100903333D01*
X42533333Y-100870000D02*
X42766666Y-100870000D01*
X42766666Y-101236666D02*
X42766666Y-100536666D01*
X42433333Y-100536666D01*
X41866666Y-100536666D02*
X42000000Y-100536666D01*
X42066666Y-100570000D01*
X42100000Y-100603333D01*
X42166666Y-100703333D01*
X42200000Y-100836666D01*
X42200000Y-101103333D01*
X42166666Y-101170000D01*
X42133333Y-101203333D01*
X42066666Y-101236666D01*
X41933333Y-101236666D01*
X41866666Y-101203333D01*
X41833333Y-101170000D01*
X41800000Y-101103333D01*
X41800000Y-100936666D01*
X41833333Y-100870000D01*
X41866666Y-100836666D01*
X41933333Y-100803333D01*
X42066666Y-100803333D01*
X42133333Y-100836666D01*
X42166666Y-100870000D01*
X42200000Y-100936666D01*
X41333333Y-101470000D02*
X41333333Y-100470000D01*
X40833333Y-101236666D02*
X40833333Y-100536666D01*
X40566666Y-100536666D01*
X40500000Y-100570000D01*
X40466666Y-100603333D01*
X40433333Y-100670000D01*
X40433333Y-100770000D01*
X40466666Y-100836666D01*
X40500000Y-100870000D01*
X40566666Y-100903333D01*
X40833333Y-100903333D01*
X40166666Y-101036666D02*
X39833333Y-101036666D01*
X40233333Y-101236666D02*
X40000000Y-100536666D01*
X39766666Y-101236666D01*
X39166666Y-101236666D02*
X39566666Y-101236666D01*
X39366666Y-101236666D02*
X39366666Y-100536666D01*
X39433333Y-100636666D01*
X39500000Y-100703333D01*
X39566666Y-100736666D01*
X38900000Y-100603333D02*
X38866666Y-100570000D01*
X38800000Y-100536666D01*
X38633333Y-100536666D01*
X38566666Y-100570000D01*
X38533333Y-100603333D01*
X38500000Y-100670000D01*
X38500000Y-100736666D01*
X38533333Y-100836666D01*
X38933333Y-101236666D01*
X38500000Y-101236666D01*
X42533333Y-98696666D02*
X42533333Y-97996666D01*
X42266666Y-97996666D01*
X42200000Y-98030000D01*
X42166666Y-98063333D01*
X42133333Y-98130000D01*
X42133333Y-98230000D01*
X42166666Y-98296666D01*
X42200000Y-98330000D01*
X42266666Y-98363333D01*
X42533333Y-98363333D01*
X41600000Y-98330000D02*
X41500000Y-98363333D01*
X41466666Y-98396666D01*
X41433333Y-98463333D01*
X41433333Y-98563333D01*
X41466666Y-98630000D01*
X41500000Y-98663333D01*
X41566666Y-98696666D01*
X41833333Y-98696666D01*
X41833333Y-97996666D01*
X41600000Y-97996666D01*
X41533333Y-98030000D01*
X41500000Y-98063333D01*
X41466666Y-98130000D01*
X41466666Y-98196666D01*
X41500000Y-98263333D01*
X41533333Y-98296666D01*
X41600000Y-98330000D01*
X41833333Y-98330000D01*
X41200000Y-97996666D02*
X40733333Y-97996666D01*
X41033333Y-98696666D01*
X40300000Y-98930000D02*
X40300000Y-97930000D01*
X39800000Y-98696666D02*
X39800000Y-97996666D01*
X39533333Y-97996666D01*
X39466666Y-98030000D01*
X39433333Y-98063333D01*
X39400000Y-98130000D01*
X39400000Y-98230000D01*
X39433333Y-98296666D01*
X39466666Y-98330000D01*
X39533333Y-98363333D01*
X39800000Y-98363333D01*
X38866666Y-98330000D02*
X39100000Y-98330000D01*
X39100000Y-98696666D02*
X39100000Y-97996666D01*
X38766666Y-97996666D01*
X38566666Y-97996666D02*
X38100000Y-97996666D01*
X38400000Y-98696666D01*
X42583333Y-96156666D02*
X42583333Y-95456666D01*
X42316666Y-95456666D01*
X42250000Y-95490000D01*
X42216666Y-95523333D01*
X42183333Y-95590000D01*
X42183333Y-95690000D01*
X42216666Y-95756666D01*
X42250000Y-95790000D01*
X42316666Y-95823333D01*
X42583333Y-95823333D01*
X41650000Y-95790000D02*
X41550000Y-95823333D01*
X41516666Y-95856666D01*
X41483333Y-95923333D01*
X41483333Y-96023333D01*
X41516666Y-96090000D01*
X41550000Y-96123333D01*
X41616666Y-96156666D01*
X41883333Y-96156666D01*
X41883333Y-95456666D01*
X41650000Y-95456666D01*
X41583333Y-95490000D01*
X41550000Y-95523333D01*
X41516666Y-95590000D01*
X41516666Y-95656666D01*
X41550000Y-95723333D01*
X41583333Y-95756666D01*
X41650000Y-95790000D01*
X41883333Y-95790000D01*
X40850000Y-95456666D02*
X41183333Y-95456666D01*
X41216666Y-95790000D01*
X41183333Y-95756666D01*
X41116666Y-95723333D01*
X40950000Y-95723333D01*
X40883333Y-95756666D01*
X40850000Y-95790000D01*
X40816666Y-95856666D01*
X40816666Y-96023333D01*
X40850000Y-96090000D01*
X40883333Y-96123333D01*
X40950000Y-96156666D01*
X41116666Y-96156666D01*
X41183333Y-96123333D01*
X41216666Y-96090000D01*
X40350000Y-96390000D02*
X40350000Y-95390000D01*
X39850000Y-96156666D02*
X39850000Y-95456666D01*
X39583333Y-95456666D01*
X39516666Y-95490000D01*
X39483333Y-95523333D01*
X39450000Y-95590000D01*
X39450000Y-95690000D01*
X39483333Y-95756666D01*
X39516666Y-95790000D01*
X39583333Y-95823333D01*
X39850000Y-95823333D01*
X38916666Y-95790000D02*
X38816666Y-95823333D01*
X38783333Y-95856666D01*
X38750000Y-95923333D01*
X38750000Y-96023333D01*
X38783333Y-96090000D01*
X38816666Y-96123333D01*
X38883333Y-96156666D01*
X39150000Y-96156666D01*
X39150000Y-95456666D01*
X38916666Y-95456666D01*
X38850000Y-95490000D01*
X38816666Y-95523333D01*
X38783333Y-95590000D01*
X38783333Y-95656666D01*
X38816666Y-95723333D01*
X38850000Y-95756666D01*
X38916666Y-95790000D01*
X39150000Y-95790000D01*
X38150000Y-95456666D02*
X38283333Y-95456666D01*
X38350000Y-95490000D01*
X38383333Y-95523333D01*
X38450000Y-95623333D01*
X38483333Y-95756666D01*
X38483333Y-96023333D01*
X38450000Y-96090000D01*
X38416666Y-96123333D01*
X38350000Y-96156666D01*
X38216666Y-96156666D01*
X38150000Y-96123333D01*
X38116666Y-96090000D01*
X38083333Y-96023333D01*
X38083333Y-95856666D01*
X38116666Y-95790000D01*
X38150000Y-95756666D01*
X38216666Y-95723333D01*
X38350000Y-95723333D01*
X38416666Y-95756666D01*
X38450000Y-95790000D01*
X38483333Y-95856666D01*
X42583333Y-93616666D02*
X42583333Y-92916666D01*
X42316666Y-92916666D01*
X42250000Y-92950000D01*
X42216666Y-92983333D01*
X42183333Y-93050000D01*
X42183333Y-93150000D01*
X42216666Y-93216666D01*
X42250000Y-93250000D01*
X42316666Y-93283333D01*
X42583333Y-93283333D01*
X41650000Y-93250000D02*
X41550000Y-93283333D01*
X41516666Y-93316666D01*
X41483333Y-93383333D01*
X41483333Y-93483333D01*
X41516666Y-93550000D01*
X41550000Y-93583333D01*
X41616666Y-93616666D01*
X41883333Y-93616666D01*
X41883333Y-92916666D01*
X41650000Y-92916666D01*
X41583333Y-92950000D01*
X41550000Y-92983333D01*
X41516666Y-93050000D01*
X41516666Y-93116666D01*
X41550000Y-93183333D01*
X41583333Y-93216666D01*
X41650000Y-93250000D01*
X41883333Y-93250000D01*
X41050000Y-92916666D02*
X40983333Y-92916666D01*
X40916666Y-92950000D01*
X40883333Y-92983333D01*
X40850000Y-93050000D01*
X40816666Y-93183333D01*
X40816666Y-93350000D01*
X40850000Y-93483333D01*
X40883333Y-93550000D01*
X40916666Y-93583333D01*
X40983333Y-93616666D01*
X41050000Y-93616666D01*
X41116666Y-93583333D01*
X41150000Y-93550000D01*
X41183333Y-93483333D01*
X41216666Y-93350000D01*
X41216666Y-93183333D01*
X41183333Y-93050000D01*
X41150000Y-92983333D01*
X41116666Y-92950000D01*
X41050000Y-92916666D01*
X40350000Y-93850000D02*
X40350000Y-92850000D01*
X39850000Y-93616666D02*
X39850000Y-92916666D01*
X39583333Y-92916666D01*
X39516666Y-92950000D01*
X39483333Y-92983333D01*
X39450000Y-93050000D01*
X39450000Y-93150000D01*
X39483333Y-93216666D01*
X39516666Y-93250000D01*
X39583333Y-93283333D01*
X39850000Y-93283333D01*
X38916666Y-93250000D02*
X38816666Y-93283333D01*
X38783333Y-93316666D01*
X38750000Y-93383333D01*
X38750000Y-93483333D01*
X38783333Y-93550000D01*
X38816666Y-93583333D01*
X38883333Y-93616666D01*
X39150000Y-93616666D01*
X39150000Y-92916666D01*
X38916666Y-92916666D01*
X38850000Y-92950000D01*
X38816666Y-92983333D01*
X38783333Y-93050000D01*
X38783333Y-93116666D01*
X38816666Y-93183333D01*
X38850000Y-93216666D01*
X38916666Y-93250000D01*
X39150000Y-93250000D01*
X38316666Y-92916666D02*
X38250000Y-92916666D01*
X38183333Y-92950000D01*
X38150000Y-92983333D01*
X38116666Y-93050000D01*
X38083333Y-93183333D01*
X38083333Y-93350000D01*
X38116666Y-93483333D01*
X38150000Y-93550000D01*
X38183333Y-93583333D01*
X38250000Y-93616666D01*
X38316666Y-93616666D01*
X38383333Y-93583333D01*
X38416666Y-93550000D01*
X38450000Y-93483333D01*
X38483333Y-93350000D01*
X38483333Y-93183333D01*
X38450000Y-93050000D01*
X38416666Y-92983333D01*
X38383333Y-92950000D01*
X38316666Y-92916666D01*
X43250000Y-91076666D02*
X43250000Y-90376666D01*
X42983333Y-90376666D01*
X42916666Y-90410000D01*
X42883333Y-90443333D01*
X42850000Y-90510000D01*
X42850000Y-90610000D01*
X42883333Y-90676666D01*
X42916666Y-90710000D01*
X42983333Y-90743333D01*
X43250000Y-90743333D01*
X42150000Y-91010000D02*
X42183333Y-91043333D01*
X42283333Y-91076666D01*
X42350000Y-91076666D01*
X42450000Y-91043333D01*
X42516666Y-90976666D01*
X42550000Y-90910000D01*
X42583333Y-90776666D01*
X42583333Y-90676666D01*
X42550000Y-90543333D01*
X42516666Y-90476666D01*
X42450000Y-90410000D01*
X42350000Y-90376666D01*
X42283333Y-90376666D01*
X42183333Y-90410000D01*
X42150000Y-90443333D01*
X41483333Y-91076666D02*
X41883333Y-91076666D01*
X41683333Y-91076666D02*
X41683333Y-90376666D01*
X41750000Y-90476666D01*
X41816666Y-90543333D01*
X41883333Y-90576666D01*
X40816666Y-91076666D02*
X41216666Y-91076666D01*
X41016666Y-91076666D02*
X41016666Y-90376666D01*
X41083333Y-90476666D01*
X41150000Y-90543333D01*
X41216666Y-90576666D01*
X40350000Y-91310000D02*
X40350000Y-90310000D01*
X39850000Y-91076666D02*
X39850000Y-90376666D01*
X39583333Y-90376666D01*
X39516666Y-90410000D01*
X39483333Y-90443333D01*
X39450000Y-90510000D01*
X39450000Y-90610000D01*
X39483333Y-90676666D01*
X39516666Y-90710000D01*
X39583333Y-90743333D01*
X39850000Y-90743333D01*
X38750000Y-91010000D02*
X38783333Y-91043333D01*
X38883333Y-91076666D01*
X38950000Y-91076666D01*
X39050000Y-91043333D01*
X39116666Y-90976666D01*
X39150000Y-90910000D01*
X39183333Y-90776666D01*
X39183333Y-90676666D01*
X39150000Y-90543333D01*
X39116666Y-90476666D01*
X39050000Y-90410000D01*
X38950000Y-90376666D01*
X38883333Y-90376666D01*
X38783333Y-90410000D01*
X38750000Y-90443333D01*
X38083333Y-91076666D02*
X38483333Y-91076666D01*
X38283333Y-91076666D02*
X38283333Y-90376666D01*
X38350000Y-90476666D01*
X38416666Y-90543333D01*
X38483333Y-90576666D01*
X37650000Y-90376666D02*
X37583333Y-90376666D01*
X37516666Y-90410000D01*
X37483333Y-90443333D01*
X37450000Y-90510000D01*
X37416666Y-90643333D01*
X37416666Y-90810000D01*
X37450000Y-90943333D01*
X37483333Y-91010000D01*
X37516666Y-91043333D01*
X37583333Y-91076666D01*
X37650000Y-91076666D01*
X37716666Y-91043333D01*
X37750000Y-91010000D01*
X37783333Y-90943333D01*
X37816666Y-90810000D01*
X37816666Y-90643333D01*
X37783333Y-90510000D01*
X37750000Y-90443333D01*
X37716666Y-90410000D01*
X37650000Y-90376666D01*
X42583333Y-88536666D02*
X42583333Y-87836666D01*
X42316666Y-87836666D01*
X42250000Y-87870000D01*
X42216666Y-87903333D01*
X42183333Y-87970000D01*
X42183333Y-88070000D01*
X42216666Y-88136666D01*
X42250000Y-88170000D01*
X42316666Y-88203333D01*
X42583333Y-88203333D01*
X41650000Y-88170000D02*
X41550000Y-88203333D01*
X41516666Y-88236666D01*
X41483333Y-88303333D01*
X41483333Y-88403333D01*
X41516666Y-88470000D01*
X41550000Y-88503333D01*
X41616666Y-88536666D01*
X41883333Y-88536666D01*
X41883333Y-87836666D01*
X41650000Y-87836666D01*
X41583333Y-87870000D01*
X41550000Y-87903333D01*
X41516666Y-87970000D01*
X41516666Y-88036666D01*
X41550000Y-88103333D01*
X41583333Y-88136666D01*
X41650000Y-88170000D01*
X41883333Y-88170000D01*
X41050000Y-87836666D02*
X40983333Y-87836666D01*
X40916666Y-87870000D01*
X40883333Y-87903333D01*
X40850000Y-87970000D01*
X40816666Y-88103333D01*
X40816666Y-88270000D01*
X40850000Y-88403333D01*
X40883333Y-88470000D01*
X40916666Y-88503333D01*
X40983333Y-88536666D01*
X41050000Y-88536666D01*
X41116666Y-88503333D01*
X41150000Y-88470000D01*
X41183333Y-88403333D01*
X41216666Y-88270000D01*
X41216666Y-88103333D01*
X41183333Y-87970000D01*
X41150000Y-87903333D01*
X41116666Y-87870000D01*
X41050000Y-87836666D01*
X40350000Y-88770000D02*
X40350000Y-87770000D01*
X39850000Y-88536666D02*
X39850000Y-87836666D01*
X39583333Y-87836666D01*
X39516666Y-87870000D01*
X39483333Y-87903333D01*
X39450000Y-87970000D01*
X39450000Y-88070000D01*
X39483333Y-88136666D01*
X39516666Y-88170000D01*
X39583333Y-88203333D01*
X39850000Y-88203333D01*
X38916666Y-88170000D02*
X38816666Y-88203333D01*
X38783333Y-88236666D01*
X38750000Y-88303333D01*
X38750000Y-88403333D01*
X38783333Y-88470000D01*
X38816666Y-88503333D01*
X38883333Y-88536666D01*
X39150000Y-88536666D01*
X39150000Y-87836666D01*
X38916666Y-87836666D01*
X38850000Y-87870000D01*
X38816666Y-87903333D01*
X38783333Y-87970000D01*
X38783333Y-88036666D01*
X38816666Y-88103333D01*
X38850000Y-88136666D01*
X38916666Y-88170000D01*
X39150000Y-88170000D01*
X38316666Y-87836666D02*
X38250000Y-87836666D01*
X38183333Y-87870000D01*
X38150000Y-87903333D01*
X38116666Y-87970000D01*
X38083333Y-88103333D01*
X38083333Y-88270000D01*
X38116666Y-88403333D01*
X38150000Y-88470000D01*
X38183333Y-88503333D01*
X38250000Y-88536666D01*
X38316666Y-88536666D01*
X38383333Y-88503333D01*
X38416666Y-88470000D01*
X38450000Y-88403333D01*
X38483333Y-88270000D01*
X38483333Y-88103333D01*
X38450000Y-87970000D01*
X38416666Y-87903333D01*
X38383333Y-87870000D01*
X38316666Y-87836666D01*
X42583333Y-85996666D02*
X42583333Y-85296666D01*
X42316666Y-85296666D01*
X42250000Y-85330000D01*
X42216666Y-85363333D01*
X42183333Y-85430000D01*
X42183333Y-85530000D01*
X42216666Y-85596666D01*
X42250000Y-85630000D01*
X42316666Y-85663333D01*
X42583333Y-85663333D01*
X41650000Y-85630000D02*
X41550000Y-85663333D01*
X41516666Y-85696666D01*
X41483333Y-85763333D01*
X41483333Y-85863333D01*
X41516666Y-85930000D01*
X41550000Y-85963333D01*
X41616666Y-85996666D01*
X41883333Y-85996666D01*
X41883333Y-85296666D01*
X41650000Y-85296666D01*
X41583333Y-85330000D01*
X41550000Y-85363333D01*
X41516666Y-85430000D01*
X41516666Y-85496666D01*
X41550000Y-85563333D01*
X41583333Y-85596666D01*
X41650000Y-85630000D01*
X41883333Y-85630000D01*
X41083333Y-85596666D02*
X41150000Y-85563333D01*
X41183333Y-85530000D01*
X41216666Y-85463333D01*
X41216666Y-85430000D01*
X41183333Y-85363333D01*
X41150000Y-85330000D01*
X41083333Y-85296666D01*
X40950000Y-85296666D01*
X40883333Y-85330000D01*
X40850000Y-85363333D01*
X40816666Y-85430000D01*
X40816666Y-85463333D01*
X40850000Y-85530000D01*
X40883333Y-85563333D01*
X40950000Y-85596666D01*
X41083333Y-85596666D01*
X41150000Y-85630000D01*
X41183333Y-85663333D01*
X41216666Y-85730000D01*
X41216666Y-85863333D01*
X41183333Y-85930000D01*
X41150000Y-85963333D01*
X41083333Y-85996666D01*
X40950000Y-85996666D01*
X40883333Y-85963333D01*
X40850000Y-85930000D01*
X40816666Y-85863333D01*
X40816666Y-85730000D01*
X40850000Y-85663333D01*
X40883333Y-85630000D01*
X40950000Y-85596666D01*
X40350000Y-86230000D02*
X40350000Y-85230000D01*
X39850000Y-85996666D02*
X39850000Y-85296666D01*
X39583333Y-85296666D01*
X39516666Y-85330000D01*
X39483333Y-85363333D01*
X39450000Y-85430000D01*
X39450000Y-85530000D01*
X39483333Y-85596666D01*
X39516666Y-85630000D01*
X39583333Y-85663333D01*
X39850000Y-85663333D01*
X38916666Y-85630000D02*
X38816666Y-85663333D01*
X38783333Y-85696666D01*
X38750000Y-85763333D01*
X38750000Y-85863333D01*
X38783333Y-85930000D01*
X38816666Y-85963333D01*
X38883333Y-85996666D01*
X39150000Y-85996666D01*
X39150000Y-85296666D01*
X38916666Y-85296666D01*
X38850000Y-85330000D01*
X38816666Y-85363333D01*
X38783333Y-85430000D01*
X38783333Y-85496666D01*
X38816666Y-85563333D01*
X38850000Y-85596666D01*
X38916666Y-85630000D01*
X39150000Y-85630000D01*
X38516666Y-85296666D02*
X38083333Y-85296666D01*
X38316666Y-85563333D01*
X38216666Y-85563333D01*
X38150000Y-85596666D01*
X38116666Y-85630000D01*
X38083333Y-85696666D01*
X38083333Y-85863333D01*
X38116666Y-85930000D01*
X38150000Y-85963333D01*
X38216666Y-85996666D01*
X38416666Y-85996666D01*
X38483333Y-85963333D01*
X38516666Y-85930000D01*
X42550000Y-83416666D02*
X42550000Y-82716666D01*
X42283333Y-82716666D01*
X42216666Y-82750000D01*
X42183333Y-82783333D01*
X42150000Y-82850000D01*
X42150000Y-82950000D01*
X42183333Y-83016666D01*
X42216666Y-83050000D01*
X42283333Y-83083333D01*
X42550000Y-83083333D01*
X41616666Y-83050000D02*
X41516666Y-83083333D01*
X41483333Y-83116666D01*
X41450000Y-83183333D01*
X41450000Y-83283333D01*
X41483333Y-83350000D01*
X41516666Y-83383333D01*
X41583333Y-83416666D01*
X41850000Y-83416666D01*
X41850000Y-82716666D01*
X41616666Y-82716666D01*
X41550000Y-82750000D01*
X41516666Y-82783333D01*
X41483333Y-82850000D01*
X41483333Y-82916666D01*
X41516666Y-82983333D01*
X41550000Y-83016666D01*
X41616666Y-83050000D01*
X41850000Y-83050000D01*
X41116666Y-83416666D02*
X40983333Y-83416666D01*
X40916666Y-83383333D01*
X40883333Y-83350000D01*
X40816666Y-83250000D01*
X40783333Y-83116666D01*
X40783333Y-82850000D01*
X40816666Y-82783333D01*
X40850000Y-82750000D01*
X40916666Y-82716666D01*
X41050000Y-82716666D01*
X41116666Y-82750000D01*
X41150000Y-82783333D01*
X41183333Y-82850000D01*
X41183333Y-83016666D01*
X41150000Y-83083333D01*
X41116666Y-83116666D01*
X41050000Y-83150000D01*
X40916666Y-83150000D01*
X40850000Y-83116666D01*
X40816666Y-83083333D01*
X40783333Y-83016666D01*
X40316666Y-83650000D02*
X40316666Y-82650000D01*
X39483333Y-82716666D02*
X39816666Y-82716666D01*
X39850000Y-83050000D01*
X39816666Y-83016666D01*
X39750000Y-82983333D01*
X39583333Y-82983333D01*
X39516666Y-83016666D01*
X39483333Y-83050000D01*
X39450000Y-83116666D01*
X39450000Y-83283333D01*
X39483333Y-83350000D01*
X39516666Y-83383333D01*
X39583333Y-83416666D01*
X39750000Y-83416666D01*
X39816666Y-83383333D01*
X39850000Y-83350000D01*
X39216666Y-82950000D02*
X39050000Y-83416666D01*
X38883333Y-82950000D01*
X42433333Y-80216666D02*
X42000000Y-80216666D01*
X42233333Y-80483333D01*
X42133333Y-80483333D01*
X42066666Y-80516666D01*
X42033333Y-80550000D01*
X42000000Y-80616666D01*
X42000000Y-80783333D01*
X42033333Y-80850000D01*
X42066666Y-80883333D01*
X42133333Y-80916666D01*
X42333333Y-80916666D01*
X42400000Y-80883333D01*
X42433333Y-80850000D01*
X41766666Y-80450000D02*
X41600000Y-80916666D01*
X41433333Y-80450000D01*
X41233333Y-80216666D02*
X40800000Y-80216666D01*
X41033333Y-80483333D01*
X40933333Y-80483333D01*
X40866666Y-80516666D01*
X40833333Y-80550000D01*
X40800000Y-80616666D01*
X40800000Y-80783333D01*
X40833333Y-80850000D01*
X40866666Y-80883333D01*
X40933333Y-80916666D01*
X41133333Y-80916666D01*
X41200000Y-80883333D01*
X41233333Y-80850000D01*
X40333333Y-81150000D02*
X40333333Y-80150000D01*
X39466666Y-80250000D02*
X39533333Y-80216666D01*
X39633333Y-80216666D01*
X39733333Y-80250000D01*
X39800000Y-80316666D01*
X39833333Y-80383333D01*
X39866666Y-80516666D01*
X39866666Y-80616666D01*
X39833333Y-80750000D01*
X39800000Y-80816666D01*
X39733333Y-80883333D01*
X39633333Y-80916666D01*
X39566666Y-80916666D01*
X39466666Y-80883333D01*
X39433333Y-80850000D01*
X39433333Y-80616666D01*
X39566666Y-80616666D01*
X39133333Y-80916666D02*
X39133333Y-80216666D01*
X38733333Y-80916666D01*
X38733333Y-80216666D01*
X38400000Y-80916666D02*
X38400000Y-80216666D01*
X38233333Y-80216666D01*
X38133333Y-80250000D01*
X38066666Y-80316666D01*
X38033333Y-80383333D01*
X38000000Y-80516666D01*
X38000000Y-80616666D01*
X38033333Y-80750000D01*
X38066666Y-80816666D01*
X38133333Y-80883333D01*
X38233333Y-80916666D01*
X38400000Y-80916666D01*
X32133333Y-128350000D02*
X32200000Y-128316666D01*
X32300000Y-128316666D01*
X32400000Y-128350000D01*
X32466666Y-128416666D01*
X32500000Y-128483333D01*
X32533333Y-128616666D01*
X32533333Y-128716666D01*
X32500000Y-128850000D01*
X32466666Y-128916666D01*
X32400000Y-128983333D01*
X32300000Y-129016666D01*
X32233333Y-129016666D01*
X32133333Y-128983333D01*
X32100000Y-128950000D01*
X32100000Y-128716666D01*
X32233333Y-128716666D01*
X31800000Y-129016666D02*
X31800000Y-128316666D01*
X31400000Y-129016666D01*
X31400000Y-128316666D01*
X31066666Y-129016666D02*
X31066666Y-128316666D01*
X30900000Y-128316666D01*
X30800000Y-128350000D01*
X30733333Y-128416666D01*
X30700000Y-128483333D01*
X30666666Y-128616666D01*
X30666666Y-128716666D01*
X30700000Y-128850000D01*
X30733333Y-128916666D01*
X30800000Y-128983333D01*
X30900000Y-129016666D01*
X31066666Y-129016666D01*
X30200000Y-129250000D02*
X30200000Y-128250000D01*
X29333333Y-128350000D02*
X29400000Y-128316666D01*
X29500000Y-128316666D01*
X29600000Y-128350000D01*
X29666666Y-128416666D01*
X29700000Y-128483333D01*
X29733333Y-128616666D01*
X29733333Y-128716666D01*
X29700000Y-128850000D01*
X29666666Y-128916666D01*
X29600000Y-128983333D01*
X29500000Y-129016666D01*
X29433333Y-129016666D01*
X29333333Y-128983333D01*
X29300000Y-128950000D01*
X29300000Y-128716666D01*
X29433333Y-128716666D01*
X29000000Y-129016666D02*
X29000000Y-128316666D01*
X28600000Y-129016666D01*
X28600000Y-128316666D01*
X28266666Y-129016666D02*
X28266666Y-128316666D01*
X28100000Y-128316666D01*
X28000000Y-128350000D01*
X27933333Y-128416666D01*
X27900000Y-128483333D01*
X27866666Y-128616666D01*
X27866666Y-128716666D01*
X27900000Y-128850000D01*
X27933333Y-128916666D01*
X28000000Y-128983333D01*
X28100000Y-129016666D01*
X28266666Y-129016666D01*
X33350000Y-125716666D02*
X33216666Y-125716666D01*
X33150000Y-125750000D01*
X33083333Y-125816666D01*
X33050000Y-125950000D01*
X33050000Y-126183333D01*
X33083333Y-126316666D01*
X33150000Y-126383333D01*
X33216666Y-126416666D01*
X33350000Y-126416666D01*
X33416666Y-126383333D01*
X33483333Y-126316666D01*
X33516666Y-126183333D01*
X33516666Y-125950000D01*
X33483333Y-125816666D01*
X33416666Y-125750000D01*
X33350000Y-125716666D01*
X32750000Y-125716666D02*
X32750000Y-126283333D01*
X32716666Y-126350000D01*
X32683333Y-126383333D01*
X32616666Y-126416666D01*
X32483333Y-126416666D01*
X32416666Y-126383333D01*
X32383333Y-126350000D01*
X32350000Y-126283333D01*
X32350000Y-125716666D01*
X32116666Y-125716666D02*
X31716666Y-125716666D01*
X31916666Y-126416666D02*
X31916666Y-125716666D01*
X31650000Y-126483333D02*
X31116666Y-126483333D01*
X30616666Y-126416666D02*
X30950000Y-126416666D01*
X30950000Y-125716666D01*
X30216666Y-126650000D02*
X30216666Y-125650000D01*
X29583333Y-125716666D02*
X29450000Y-125716666D01*
X29383333Y-125750000D01*
X29316666Y-125816666D01*
X29283333Y-125950000D01*
X29283333Y-126183333D01*
X29316666Y-126316666D01*
X29383333Y-126383333D01*
X29450000Y-126416666D01*
X29583333Y-126416666D01*
X29650000Y-126383333D01*
X29716666Y-126316666D01*
X29750000Y-126183333D01*
X29750000Y-125950000D01*
X29716666Y-125816666D01*
X29650000Y-125750000D01*
X29583333Y-125716666D01*
X28983333Y-125716666D02*
X28983333Y-126283333D01*
X28950000Y-126350000D01*
X28916666Y-126383333D01*
X28850000Y-126416666D01*
X28716666Y-126416666D01*
X28650000Y-126383333D01*
X28616666Y-126350000D01*
X28583333Y-126283333D01*
X28583333Y-125716666D01*
X28350000Y-125716666D02*
X27950000Y-125716666D01*
X28150000Y-126416666D02*
X28150000Y-125716666D01*
X27883333Y-126483333D02*
X27350000Y-126483333D01*
X26783333Y-126416666D02*
X27016666Y-126083333D01*
X27183333Y-126416666D02*
X27183333Y-125716666D01*
X26916666Y-125716666D01*
X26850000Y-125750000D01*
X26816666Y-125783333D01*
X26783333Y-125850000D01*
X26783333Y-125950000D01*
X26816666Y-126016666D01*
X26850000Y-126050000D01*
X26916666Y-126083333D01*
X27183333Y-126083333D01*
X32100000Y-123260000D02*
X32166666Y-123226666D01*
X32266666Y-123226666D01*
X32366666Y-123260000D01*
X32433333Y-123326666D01*
X32466666Y-123393333D01*
X32500000Y-123526666D01*
X32500000Y-123626666D01*
X32466666Y-123760000D01*
X32433333Y-123826666D01*
X32366666Y-123893333D01*
X32266666Y-123926666D01*
X32200000Y-123926666D01*
X32100000Y-123893333D01*
X32066666Y-123860000D01*
X32066666Y-123626666D01*
X32200000Y-123626666D01*
X31766666Y-123926666D02*
X31766666Y-123226666D01*
X31366666Y-123926666D01*
X31366666Y-123226666D01*
X31033333Y-123926666D02*
X31033333Y-123226666D01*
X30866666Y-123226666D01*
X30766666Y-123260000D01*
X30700000Y-123326666D01*
X30666666Y-123393333D01*
X30633333Y-123526666D01*
X30633333Y-123626666D01*
X30666666Y-123760000D01*
X30700000Y-123826666D01*
X30766666Y-123893333D01*
X30866666Y-123926666D01*
X31033333Y-123926666D01*
X30166666Y-124160000D02*
X30166666Y-123160000D01*
X29300000Y-123926666D02*
X29700000Y-123926666D01*
X29500000Y-123926666D02*
X29500000Y-123226666D01*
X29566666Y-123326666D01*
X29633333Y-123393333D01*
X29700000Y-123426666D01*
X29033333Y-123293333D02*
X29000000Y-123260000D01*
X28933333Y-123226666D01*
X28766666Y-123226666D01*
X28700000Y-123260000D01*
X28666666Y-123293333D01*
X28633333Y-123360000D01*
X28633333Y-123426666D01*
X28666666Y-123526666D01*
X29066666Y-123926666D01*
X28633333Y-123926666D01*
X28400000Y-123460000D02*
X28233333Y-123926666D01*
X28066666Y-123460000D01*
X31950000Y-120720000D02*
X32016666Y-120686666D01*
X32116666Y-120686666D01*
X32216666Y-120720000D01*
X32283333Y-120786666D01*
X32316666Y-120853333D01*
X32350000Y-120986666D01*
X32350000Y-121086666D01*
X32316666Y-121220000D01*
X32283333Y-121286666D01*
X32216666Y-121353333D01*
X32116666Y-121386666D01*
X32050000Y-121386666D01*
X31950000Y-121353333D01*
X31916666Y-121320000D01*
X31916666Y-121086666D01*
X32050000Y-121086666D01*
X31616666Y-121386666D02*
X31616666Y-120686666D01*
X31216666Y-121386666D01*
X31216666Y-120686666D01*
X30883333Y-121386666D02*
X30883333Y-120686666D01*
X30716666Y-120686666D01*
X30616666Y-120720000D01*
X30550000Y-120786666D01*
X30516666Y-120853333D01*
X30483333Y-120986666D01*
X30483333Y-121086666D01*
X30516666Y-121220000D01*
X30550000Y-121286666D01*
X30616666Y-121353333D01*
X30716666Y-121386666D01*
X30883333Y-121386666D01*
X30016666Y-121620000D02*
X30016666Y-120620000D01*
X29150000Y-121386666D02*
X29550000Y-121386666D01*
X29350000Y-121386666D02*
X29350000Y-120686666D01*
X29416666Y-120786666D01*
X29483333Y-120853333D01*
X29550000Y-120886666D01*
X28883333Y-120753333D02*
X28850000Y-120720000D01*
X28783333Y-120686666D01*
X28616666Y-120686666D01*
X28550000Y-120720000D01*
X28516666Y-120753333D01*
X28483333Y-120820000D01*
X28483333Y-120886666D01*
X28516666Y-120986666D01*
X28916666Y-121386666D01*
X28483333Y-121386666D01*
X28250000Y-120920000D02*
X28083333Y-121386666D01*
X27916666Y-120920000D01*
X31950000Y-118180000D02*
X32016666Y-118146666D01*
X32116666Y-118146666D01*
X32216666Y-118180000D01*
X32283333Y-118246666D01*
X32316666Y-118313333D01*
X32350000Y-118446666D01*
X32350000Y-118546666D01*
X32316666Y-118680000D01*
X32283333Y-118746666D01*
X32216666Y-118813333D01*
X32116666Y-118846666D01*
X32050000Y-118846666D01*
X31950000Y-118813333D01*
X31916666Y-118780000D01*
X31916666Y-118546666D01*
X32050000Y-118546666D01*
X31616666Y-118846666D02*
X31616666Y-118146666D01*
X31216666Y-118846666D01*
X31216666Y-118146666D01*
X30883333Y-118846666D02*
X30883333Y-118146666D01*
X30716666Y-118146666D01*
X30616666Y-118180000D01*
X30550000Y-118246666D01*
X30516666Y-118313333D01*
X30483333Y-118446666D01*
X30483333Y-118546666D01*
X30516666Y-118680000D01*
X30550000Y-118746666D01*
X30616666Y-118813333D01*
X30716666Y-118846666D01*
X30883333Y-118846666D01*
X30016666Y-119080000D02*
X30016666Y-118080000D01*
X29150000Y-118846666D02*
X29550000Y-118846666D01*
X29350000Y-118846666D02*
X29350000Y-118146666D01*
X29416666Y-118246666D01*
X29483333Y-118313333D01*
X29550000Y-118346666D01*
X28883333Y-118213333D02*
X28850000Y-118180000D01*
X28783333Y-118146666D01*
X28616666Y-118146666D01*
X28550000Y-118180000D01*
X28516666Y-118213333D01*
X28483333Y-118280000D01*
X28483333Y-118346666D01*
X28516666Y-118446666D01*
X28916666Y-118846666D01*
X28483333Y-118846666D01*
X28250000Y-118380000D02*
X28083333Y-118846666D01*
X27916666Y-118380000D01*
X32466666Y-116306666D02*
X32466666Y-115606666D01*
X32200000Y-115606666D01*
X32133333Y-115640000D01*
X32100000Y-115673333D01*
X32066666Y-115740000D01*
X32066666Y-115840000D01*
X32100000Y-115906666D01*
X32133333Y-115940000D01*
X32200000Y-115973333D01*
X32466666Y-115973333D01*
X31366666Y-116240000D02*
X31400000Y-116273333D01*
X31500000Y-116306666D01*
X31566666Y-116306666D01*
X31666666Y-116273333D01*
X31733333Y-116206666D01*
X31766666Y-116140000D01*
X31800000Y-116006666D01*
X31800000Y-115906666D01*
X31766666Y-115773333D01*
X31733333Y-115706666D01*
X31666666Y-115640000D01*
X31566666Y-115606666D01*
X31500000Y-115606666D01*
X31400000Y-115640000D01*
X31366666Y-115673333D01*
X30933333Y-115606666D02*
X30866666Y-115606666D01*
X30800000Y-115640000D01*
X30766666Y-115673333D01*
X30733333Y-115740000D01*
X30700000Y-115873333D01*
X30700000Y-116040000D01*
X30733333Y-116173333D01*
X30766666Y-116240000D01*
X30800000Y-116273333D01*
X30866666Y-116306666D01*
X30933333Y-116306666D01*
X31000000Y-116273333D01*
X31033333Y-116240000D01*
X31066666Y-116173333D01*
X31100000Y-116040000D01*
X31100000Y-115873333D01*
X31066666Y-115740000D01*
X31033333Y-115673333D01*
X31000000Y-115640000D01*
X30933333Y-115606666D01*
X30233333Y-116540000D02*
X30233333Y-115540000D01*
X29733333Y-116306666D02*
X29733333Y-115606666D01*
X29466666Y-115606666D01*
X29400000Y-115640000D01*
X29366666Y-115673333D01*
X29333333Y-115740000D01*
X29333333Y-115840000D01*
X29366666Y-115906666D01*
X29400000Y-115940000D01*
X29466666Y-115973333D01*
X29733333Y-115973333D01*
X28633333Y-116240000D02*
X28666666Y-116273333D01*
X28766666Y-116306666D01*
X28833333Y-116306666D01*
X28933333Y-116273333D01*
X29000000Y-116206666D01*
X29033333Y-116140000D01*
X29066666Y-116006666D01*
X29066666Y-115906666D01*
X29033333Y-115773333D01*
X29000000Y-115706666D01*
X28933333Y-115640000D01*
X28833333Y-115606666D01*
X28766666Y-115606666D01*
X28666666Y-115640000D01*
X28633333Y-115673333D01*
X27966666Y-116306666D02*
X28366666Y-116306666D01*
X28166666Y-116306666D02*
X28166666Y-115606666D01*
X28233333Y-115706666D01*
X28300000Y-115773333D01*
X28366666Y-115806666D01*
X27333333Y-115606666D02*
X27666666Y-115606666D01*
X27700000Y-115940000D01*
X27666666Y-115906666D01*
X27600000Y-115873333D01*
X27433333Y-115873333D01*
X27366666Y-115906666D01*
X27333333Y-115940000D01*
X27300000Y-116006666D01*
X27300000Y-116173333D01*
X27333333Y-116240000D01*
X27366666Y-116273333D01*
X27433333Y-116306666D01*
X27600000Y-116306666D01*
X27666666Y-116273333D01*
X27700000Y-116240000D01*
X32133333Y-113100000D02*
X32200000Y-113066666D01*
X32300000Y-113066666D01*
X32400000Y-113100000D01*
X32466666Y-113166666D01*
X32500000Y-113233333D01*
X32533333Y-113366666D01*
X32533333Y-113466666D01*
X32500000Y-113600000D01*
X32466666Y-113666666D01*
X32400000Y-113733333D01*
X32300000Y-113766666D01*
X32233333Y-113766666D01*
X32133333Y-113733333D01*
X32100000Y-113700000D01*
X32100000Y-113466666D01*
X32233333Y-113466666D01*
X31800000Y-113766666D02*
X31800000Y-113066666D01*
X31400000Y-113766666D01*
X31400000Y-113066666D01*
X31066666Y-113766666D02*
X31066666Y-113066666D01*
X30900000Y-113066666D01*
X30800000Y-113100000D01*
X30733333Y-113166666D01*
X30700000Y-113233333D01*
X30666666Y-113366666D01*
X30666666Y-113466666D01*
X30700000Y-113600000D01*
X30733333Y-113666666D01*
X30800000Y-113733333D01*
X30900000Y-113766666D01*
X31066666Y-113766666D01*
X30200000Y-114000000D02*
X30200000Y-113000000D01*
X29333333Y-113100000D02*
X29400000Y-113066666D01*
X29500000Y-113066666D01*
X29600000Y-113100000D01*
X29666666Y-113166666D01*
X29700000Y-113233333D01*
X29733333Y-113366666D01*
X29733333Y-113466666D01*
X29700000Y-113600000D01*
X29666666Y-113666666D01*
X29600000Y-113733333D01*
X29500000Y-113766666D01*
X29433333Y-113766666D01*
X29333333Y-113733333D01*
X29300000Y-113700000D01*
X29300000Y-113466666D01*
X29433333Y-113466666D01*
X29000000Y-113766666D02*
X29000000Y-113066666D01*
X28600000Y-113766666D01*
X28600000Y-113066666D01*
X28266666Y-113766666D02*
X28266666Y-113066666D01*
X28100000Y-113066666D01*
X28000000Y-113100000D01*
X27933333Y-113166666D01*
X27900000Y-113233333D01*
X27866666Y-113366666D01*
X27866666Y-113466666D01*
X27900000Y-113600000D01*
X27933333Y-113666666D01*
X28000000Y-113733333D01*
X28100000Y-113766666D01*
X28266666Y-113766666D01*
X32216666Y-111226666D02*
X32216666Y-110526666D01*
X31950000Y-110526666D01*
X31883333Y-110560000D01*
X31850000Y-110593333D01*
X31816666Y-110660000D01*
X31816666Y-110760000D01*
X31850000Y-110826666D01*
X31883333Y-110860000D01*
X31950000Y-110893333D01*
X32216666Y-110893333D01*
X31516666Y-110860000D02*
X31283333Y-110860000D01*
X31183333Y-111226666D02*
X31516666Y-111226666D01*
X31516666Y-110526666D01*
X31183333Y-110526666D01*
X30850000Y-111226666D02*
X30716666Y-111226666D01*
X30650000Y-111193333D01*
X30616666Y-111160000D01*
X30550000Y-111060000D01*
X30516666Y-110926666D01*
X30516666Y-110660000D01*
X30550000Y-110593333D01*
X30583333Y-110560000D01*
X30650000Y-110526666D01*
X30783333Y-110526666D01*
X30850000Y-110560000D01*
X30883333Y-110593333D01*
X30916666Y-110660000D01*
X30916666Y-110826666D01*
X30883333Y-110893333D01*
X30850000Y-110926666D01*
X30783333Y-110960000D01*
X30650000Y-110960000D01*
X30583333Y-110926666D01*
X30550000Y-110893333D01*
X30516666Y-110826666D01*
X30050000Y-111460000D02*
X30050000Y-110460000D01*
X29550000Y-111226666D02*
X29550000Y-110526666D01*
X29283333Y-110526666D01*
X29216666Y-110560000D01*
X29183333Y-110593333D01*
X29150000Y-110660000D01*
X29150000Y-110760000D01*
X29183333Y-110826666D01*
X29216666Y-110860000D01*
X29283333Y-110893333D01*
X29550000Y-110893333D01*
X28850000Y-110860000D02*
X28616666Y-110860000D01*
X28516666Y-111226666D02*
X28850000Y-111226666D01*
X28850000Y-110526666D01*
X28516666Y-110526666D01*
X28116666Y-110826666D02*
X28183333Y-110793333D01*
X28216666Y-110760000D01*
X28250000Y-110693333D01*
X28250000Y-110660000D01*
X28216666Y-110593333D01*
X28183333Y-110560000D01*
X28116666Y-110526666D01*
X27983333Y-110526666D01*
X27916666Y-110560000D01*
X27883333Y-110593333D01*
X27850000Y-110660000D01*
X27850000Y-110693333D01*
X27883333Y-110760000D01*
X27916666Y-110793333D01*
X27983333Y-110826666D01*
X28116666Y-110826666D01*
X28183333Y-110860000D01*
X28216666Y-110893333D01*
X28250000Y-110960000D01*
X28250000Y-111093333D01*
X28216666Y-111160000D01*
X28183333Y-111193333D01*
X28116666Y-111226666D01*
X27983333Y-111226666D01*
X27916666Y-111193333D01*
X27883333Y-111160000D01*
X27850000Y-111093333D01*
X27850000Y-110960000D01*
X27883333Y-110893333D01*
X27916666Y-110860000D01*
X27983333Y-110826666D01*
X32433333Y-108686666D02*
X32433333Y-107986666D01*
X32166666Y-107986666D01*
X32100000Y-108020000D01*
X32066666Y-108053333D01*
X32033333Y-108120000D01*
X32033333Y-108220000D01*
X32066666Y-108286666D01*
X32100000Y-108320000D01*
X32166666Y-108353333D01*
X32433333Y-108353333D01*
X31500000Y-108320000D02*
X31400000Y-108353333D01*
X31366666Y-108386666D01*
X31333333Y-108453333D01*
X31333333Y-108553333D01*
X31366666Y-108620000D01*
X31400000Y-108653333D01*
X31466666Y-108686666D01*
X31733333Y-108686666D01*
X31733333Y-107986666D01*
X31500000Y-107986666D01*
X31433333Y-108020000D01*
X31400000Y-108053333D01*
X31366666Y-108120000D01*
X31366666Y-108186666D01*
X31400000Y-108253333D01*
X31433333Y-108286666D01*
X31500000Y-108320000D01*
X31733333Y-108320000D01*
X31066666Y-108053333D02*
X31033333Y-108020000D01*
X30966666Y-107986666D01*
X30800000Y-107986666D01*
X30733333Y-108020000D01*
X30700000Y-108053333D01*
X30666666Y-108120000D01*
X30666666Y-108186666D01*
X30700000Y-108286666D01*
X31100000Y-108686666D01*
X30666666Y-108686666D01*
X30200000Y-108920000D02*
X30200000Y-107920000D01*
X29700000Y-108686666D02*
X29700000Y-107986666D01*
X29433333Y-107986666D01*
X29366666Y-108020000D01*
X29333333Y-108053333D01*
X29300000Y-108120000D01*
X29300000Y-108220000D01*
X29333333Y-108286666D01*
X29366666Y-108320000D01*
X29433333Y-108353333D01*
X29700000Y-108353333D01*
X28766666Y-108320000D02*
X28666666Y-108353333D01*
X28633333Y-108386666D01*
X28600000Y-108453333D01*
X28600000Y-108553333D01*
X28633333Y-108620000D01*
X28666666Y-108653333D01*
X28733333Y-108686666D01*
X29000000Y-108686666D01*
X29000000Y-107986666D01*
X28766666Y-107986666D01*
X28700000Y-108020000D01*
X28666666Y-108053333D01*
X28633333Y-108120000D01*
X28633333Y-108186666D01*
X28666666Y-108253333D01*
X28700000Y-108286666D01*
X28766666Y-108320000D01*
X29000000Y-108320000D01*
X27933333Y-108686666D02*
X28333333Y-108686666D01*
X28133333Y-108686666D02*
X28133333Y-107986666D01*
X28200000Y-108086666D01*
X28266666Y-108153333D01*
X28333333Y-108186666D01*
X32433333Y-106166666D02*
X32433333Y-105466666D01*
X32166666Y-105466666D01*
X32100000Y-105500000D01*
X32066666Y-105533333D01*
X32033333Y-105600000D01*
X32033333Y-105700000D01*
X32066666Y-105766666D01*
X32100000Y-105800000D01*
X32166666Y-105833333D01*
X32433333Y-105833333D01*
X31500000Y-105800000D02*
X31400000Y-105833333D01*
X31366666Y-105866666D01*
X31333333Y-105933333D01*
X31333333Y-106033333D01*
X31366666Y-106100000D01*
X31400000Y-106133333D01*
X31466666Y-106166666D01*
X31733333Y-106166666D01*
X31733333Y-105466666D01*
X31500000Y-105466666D01*
X31433333Y-105500000D01*
X31400000Y-105533333D01*
X31366666Y-105600000D01*
X31366666Y-105666666D01*
X31400000Y-105733333D01*
X31433333Y-105766666D01*
X31500000Y-105800000D01*
X31733333Y-105800000D01*
X30900000Y-105466666D02*
X30833333Y-105466666D01*
X30766666Y-105500000D01*
X30733333Y-105533333D01*
X30700000Y-105600000D01*
X30666666Y-105733333D01*
X30666666Y-105900000D01*
X30700000Y-106033333D01*
X30733333Y-106100000D01*
X30766666Y-106133333D01*
X30833333Y-106166666D01*
X30900000Y-106166666D01*
X30966666Y-106133333D01*
X31000000Y-106100000D01*
X31033333Y-106033333D01*
X31066666Y-105900000D01*
X31066666Y-105733333D01*
X31033333Y-105600000D01*
X31000000Y-105533333D01*
X30966666Y-105500000D01*
X30900000Y-105466666D01*
X30200000Y-106400000D02*
X30200000Y-105400000D01*
X29700000Y-106166666D02*
X29700000Y-105466666D01*
X29433333Y-105466666D01*
X29366666Y-105500000D01*
X29333333Y-105533333D01*
X29300000Y-105600000D01*
X29300000Y-105700000D01*
X29333333Y-105766666D01*
X29366666Y-105800000D01*
X29433333Y-105833333D01*
X29700000Y-105833333D01*
X28600000Y-106100000D02*
X28633333Y-106133333D01*
X28733333Y-106166666D01*
X28800000Y-106166666D01*
X28900000Y-106133333D01*
X28966666Y-106066666D01*
X29000000Y-106000000D01*
X29033333Y-105866666D01*
X29033333Y-105766666D01*
X29000000Y-105633333D01*
X28966666Y-105566666D01*
X28900000Y-105500000D01*
X28800000Y-105466666D01*
X28733333Y-105466666D01*
X28633333Y-105500000D01*
X28600000Y-105533333D01*
X27966666Y-105466666D02*
X28300000Y-105466666D01*
X28333333Y-105800000D01*
X28300000Y-105766666D01*
X28233333Y-105733333D01*
X28066666Y-105733333D01*
X28000000Y-105766666D01*
X27966666Y-105800000D01*
X27933333Y-105866666D01*
X27933333Y-106033333D01*
X27966666Y-106100000D01*
X28000000Y-106133333D01*
X28066666Y-106166666D01*
X28233333Y-106166666D01*
X28300000Y-106133333D01*
X28333333Y-106100000D01*
X31333333Y-103606666D02*
X31333333Y-102906666D01*
X31066666Y-102906666D01*
X31000000Y-102940000D01*
X30966666Y-102973333D01*
X30933333Y-103040000D01*
X30933333Y-103140000D01*
X30966666Y-103206666D01*
X31000000Y-103240000D01*
X31066666Y-103273333D01*
X31333333Y-103273333D01*
X30233333Y-103540000D02*
X30266666Y-103573333D01*
X30366666Y-103606666D01*
X30433333Y-103606666D01*
X30533333Y-103573333D01*
X30600000Y-103506666D01*
X30633333Y-103440000D01*
X30666666Y-103306666D01*
X30666666Y-103206666D01*
X30633333Y-103073333D01*
X30600000Y-103006666D01*
X30533333Y-102940000D01*
X30433333Y-102906666D01*
X30366666Y-102906666D01*
X30266666Y-102940000D01*
X30233333Y-102973333D01*
X29633333Y-103140000D02*
X29633333Y-103606666D01*
X29800000Y-102873333D02*
X29966666Y-103373333D01*
X29533333Y-103373333D01*
X29100000Y-103840000D02*
X29100000Y-102840000D01*
X28600000Y-103606666D02*
X28600000Y-102906666D01*
X28333333Y-102906666D01*
X28266666Y-102940000D01*
X28233333Y-102973333D01*
X28200000Y-103040000D01*
X28200000Y-103140000D01*
X28233333Y-103206666D01*
X28266666Y-103240000D01*
X28333333Y-103273333D01*
X28600000Y-103273333D01*
X27933333Y-103406666D02*
X27600000Y-103406666D01*
X28000000Y-103606666D02*
X27766666Y-102906666D01*
X27533333Y-103606666D01*
X27366666Y-102906666D02*
X26900000Y-102906666D01*
X27200000Y-103606666D01*
X31683333Y-101066666D02*
X31683333Y-100366666D01*
X31416666Y-100366666D01*
X31350000Y-100400000D01*
X31316666Y-100433333D01*
X31283333Y-100500000D01*
X31283333Y-100600000D01*
X31316666Y-100666666D01*
X31350000Y-100700000D01*
X31416666Y-100733333D01*
X31683333Y-100733333D01*
X31016666Y-100866666D02*
X30683333Y-100866666D01*
X31083333Y-101066666D02*
X30850000Y-100366666D01*
X30616666Y-101066666D01*
X30083333Y-100366666D02*
X30216666Y-100366666D01*
X30283333Y-100400000D01*
X30316666Y-100433333D01*
X30383333Y-100533333D01*
X30416666Y-100666666D01*
X30416666Y-100933333D01*
X30383333Y-101000000D01*
X30350000Y-101033333D01*
X30283333Y-101066666D01*
X30150000Y-101066666D01*
X30083333Y-101033333D01*
X30050000Y-101000000D01*
X30016666Y-100933333D01*
X30016666Y-100766666D01*
X30050000Y-100700000D01*
X30083333Y-100666666D01*
X30150000Y-100633333D01*
X30283333Y-100633333D01*
X30350000Y-100666666D01*
X30383333Y-100700000D01*
X30416666Y-100766666D01*
X29550000Y-101300000D02*
X29550000Y-100300000D01*
X29050000Y-101066666D02*
X29050000Y-100366666D01*
X28783333Y-100366666D01*
X28716666Y-100400000D01*
X28683333Y-100433333D01*
X28650000Y-100500000D01*
X28650000Y-100600000D01*
X28683333Y-100666666D01*
X28716666Y-100700000D01*
X28783333Y-100733333D01*
X29050000Y-100733333D01*
X28383333Y-100866666D02*
X28050000Y-100866666D01*
X28450000Y-101066666D02*
X28216666Y-100366666D01*
X27983333Y-101066666D01*
X27416666Y-100366666D02*
X27750000Y-100366666D01*
X27783333Y-100700000D01*
X27750000Y-100666666D01*
X27683333Y-100633333D01*
X27516666Y-100633333D01*
X27450000Y-100666666D01*
X27416666Y-100700000D01*
X27383333Y-100766666D01*
X27383333Y-100933333D01*
X27416666Y-101000000D01*
X27450000Y-101033333D01*
X27516666Y-101066666D01*
X27683333Y-101066666D01*
X27750000Y-101033333D01*
X27783333Y-101000000D01*
X32383333Y-98526666D02*
X32383333Y-97826666D01*
X32116666Y-97826666D01*
X32050000Y-97860000D01*
X32016666Y-97893333D01*
X31983333Y-97960000D01*
X31983333Y-98060000D01*
X32016666Y-98126666D01*
X32050000Y-98160000D01*
X32116666Y-98193333D01*
X32383333Y-98193333D01*
X31716666Y-98326666D02*
X31383333Y-98326666D01*
X31783333Y-98526666D02*
X31550000Y-97826666D01*
X31316666Y-98526666D01*
X30783333Y-98060000D02*
X30783333Y-98526666D01*
X30950000Y-97793333D02*
X31116666Y-98293333D01*
X30683333Y-98293333D01*
X30250000Y-98760000D02*
X30250000Y-97760000D01*
X29750000Y-98526666D02*
X29750000Y-97826666D01*
X29483333Y-97826666D01*
X29416666Y-97860000D01*
X29383333Y-97893333D01*
X29350000Y-97960000D01*
X29350000Y-98060000D01*
X29383333Y-98126666D01*
X29416666Y-98160000D01*
X29483333Y-98193333D01*
X29750000Y-98193333D01*
X29083333Y-98326666D02*
X28750000Y-98326666D01*
X29150000Y-98526666D02*
X28916666Y-97826666D01*
X28683333Y-98526666D01*
X28516666Y-97826666D02*
X28083333Y-97826666D01*
X28316666Y-98093333D01*
X28216666Y-98093333D01*
X28150000Y-98126666D01*
X28116666Y-98160000D01*
X28083333Y-98226666D01*
X28083333Y-98393333D01*
X28116666Y-98460000D01*
X28150000Y-98493333D01*
X28216666Y-98526666D01*
X28416666Y-98526666D01*
X28483333Y-98493333D01*
X28516666Y-98460000D01*
X32483333Y-95986666D02*
X32483333Y-95286666D01*
X32216666Y-95286666D01*
X32150000Y-95320000D01*
X32116666Y-95353333D01*
X32083333Y-95420000D01*
X32083333Y-95520000D01*
X32116666Y-95586666D01*
X32150000Y-95620000D01*
X32216666Y-95653333D01*
X32483333Y-95653333D01*
X31816666Y-95786666D02*
X31483333Y-95786666D01*
X31883333Y-95986666D02*
X31650000Y-95286666D01*
X31416666Y-95986666D01*
X31216666Y-95353333D02*
X31183333Y-95320000D01*
X31116666Y-95286666D01*
X30950000Y-95286666D01*
X30883333Y-95320000D01*
X30850000Y-95353333D01*
X30816666Y-95420000D01*
X30816666Y-95486666D01*
X30850000Y-95586666D01*
X31250000Y-95986666D01*
X30816666Y-95986666D01*
X30350000Y-96220000D02*
X30350000Y-95220000D01*
X29850000Y-95986666D02*
X29850000Y-95286666D01*
X29583333Y-95286666D01*
X29516666Y-95320000D01*
X29483333Y-95353333D01*
X29450000Y-95420000D01*
X29450000Y-95520000D01*
X29483333Y-95586666D01*
X29516666Y-95620000D01*
X29583333Y-95653333D01*
X29850000Y-95653333D01*
X29183333Y-95786666D02*
X28850000Y-95786666D01*
X29250000Y-95986666D02*
X29016666Y-95286666D01*
X28783333Y-95986666D01*
X28183333Y-95986666D02*
X28583333Y-95986666D01*
X28383333Y-95986666D02*
X28383333Y-95286666D01*
X28450000Y-95386666D01*
X28516666Y-95453333D01*
X28583333Y-95486666D01*
X32433333Y-93446666D02*
X32433333Y-92746666D01*
X32166666Y-92746666D01*
X32100000Y-92780000D01*
X32066666Y-92813333D01*
X32033333Y-92880000D01*
X32033333Y-92980000D01*
X32066666Y-93046666D01*
X32100000Y-93080000D01*
X32166666Y-93113333D01*
X32433333Y-93113333D01*
X31766666Y-93246666D02*
X31433333Y-93246666D01*
X31833333Y-93446666D02*
X31600000Y-92746666D01*
X31366666Y-93446666D01*
X31000000Y-92746666D02*
X30933333Y-92746666D01*
X30866666Y-92780000D01*
X30833333Y-92813333D01*
X30800000Y-92880000D01*
X30766666Y-93013333D01*
X30766666Y-93180000D01*
X30800000Y-93313333D01*
X30833333Y-93380000D01*
X30866666Y-93413333D01*
X30933333Y-93446666D01*
X31000000Y-93446666D01*
X31066666Y-93413333D01*
X31100000Y-93380000D01*
X31133333Y-93313333D01*
X31166666Y-93180000D01*
X31166666Y-93013333D01*
X31133333Y-92880000D01*
X31100000Y-92813333D01*
X31066666Y-92780000D01*
X31000000Y-92746666D01*
X30300000Y-93680000D02*
X30300000Y-92680000D01*
X29800000Y-93446666D02*
X29800000Y-92746666D01*
X29533333Y-92746666D01*
X29466666Y-92780000D01*
X29433333Y-92813333D01*
X29400000Y-92880000D01*
X29400000Y-92980000D01*
X29433333Y-93046666D01*
X29466666Y-93080000D01*
X29533333Y-93113333D01*
X29800000Y-93113333D01*
X28700000Y-93380000D02*
X28733333Y-93413333D01*
X28833333Y-93446666D01*
X28900000Y-93446666D01*
X29000000Y-93413333D01*
X29066666Y-93346666D01*
X29100000Y-93280000D01*
X29133333Y-93146666D01*
X29133333Y-93046666D01*
X29100000Y-92913333D01*
X29066666Y-92846666D01*
X29000000Y-92780000D01*
X28900000Y-92746666D01*
X28833333Y-92746666D01*
X28733333Y-92780000D01*
X28700000Y-92813333D01*
X28466666Y-92746666D02*
X28033333Y-92746666D01*
X28266666Y-93013333D01*
X28166666Y-93013333D01*
X28100000Y-93046666D01*
X28066666Y-93080000D01*
X28033333Y-93146666D01*
X28033333Y-93313333D01*
X28066666Y-93380000D01*
X28100000Y-93413333D01*
X28166666Y-93446666D01*
X28366666Y-93446666D01*
X28433333Y-93413333D01*
X28466666Y-93380000D01*
X32483333Y-90906666D02*
X32483333Y-90206666D01*
X32216666Y-90206666D01*
X32150000Y-90240000D01*
X32116666Y-90273333D01*
X32083333Y-90340000D01*
X32083333Y-90440000D01*
X32116666Y-90506666D01*
X32150000Y-90540000D01*
X32216666Y-90573333D01*
X32483333Y-90573333D01*
X31383333Y-90840000D02*
X31416666Y-90873333D01*
X31516666Y-90906666D01*
X31583333Y-90906666D01*
X31683333Y-90873333D01*
X31750000Y-90806666D01*
X31783333Y-90740000D01*
X31816666Y-90606666D01*
X31816666Y-90506666D01*
X31783333Y-90373333D01*
X31750000Y-90306666D01*
X31683333Y-90240000D01*
X31583333Y-90206666D01*
X31516666Y-90206666D01*
X31416666Y-90240000D01*
X31383333Y-90273333D01*
X31116666Y-90273333D02*
X31083333Y-90240000D01*
X31016666Y-90206666D01*
X30850000Y-90206666D01*
X30783333Y-90240000D01*
X30750000Y-90273333D01*
X30716666Y-90340000D01*
X30716666Y-90406666D01*
X30750000Y-90506666D01*
X31150000Y-90906666D01*
X30716666Y-90906666D01*
X30250000Y-91140000D02*
X30250000Y-90140000D01*
X29750000Y-90906666D02*
X29750000Y-90206666D01*
X29483333Y-90206666D01*
X29416666Y-90240000D01*
X29383333Y-90273333D01*
X29350000Y-90340000D01*
X29350000Y-90440000D01*
X29383333Y-90506666D01*
X29416666Y-90540000D01*
X29483333Y-90573333D01*
X29750000Y-90573333D01*
X28650000Y-90840000D02*
X28683333Y-90873333D01*
X28783333Y-90906666D01*
X28850000Y-90906666D01*
X28950000Y-90873333D01*
X29016666Y-90806666D01*
X29050000Y-90740000D01*
X29083333Y-90606666D01*
X29083333Y-90506666D01*
X29050000Y-90373333D01*
X29016666Y-90306666D01*
X28950000Y-90240000D01*
X28850000Y-90206666D01*
X28783333Y-90206666D01*
X28683333Y-90240000D01*
X28650000Y-90273333D01*
X27983333Y-90906666D02*
X28383333Y-90906666D01*
X28183333Y-90906666D02*
X28183333Y-90206666D01*
X28250000Y-90306666D01*
X28316666Y-90373333D01*
X28383333Y-90406666D01*
X32516666Y-88366666D02*
X32516666Y-87666666D01*
X32250000Y-87666666D01*
X32183333Y-87700000D01*
X32150000Y-87733333D01*
X32116666Y-87800000D01*
X32116666Y-87900000D01*
X32150000Y-87966666D01*
X32183333Y-88000000D01*
X32250000Y-88033333D01*
X32516666Y-88033333D01*
X31416666Y-88300000D02*
X31450000Y-88333333D01*
X31550000Y-88366666D01*
X31616666Y-88366666D01*
X31716666Y-88333333D01*
X31783333Y-88266666D01*
X31816666Y-88200000D01*
X31850000Y-88066666D01*
X31850000Y-87966666D01*
X31816666Y-87833333D01*
X31783333Y-87766666D01*
X31716666Y-87700000D01*
X31616666Y-87666666D01*
X31550000Y-87666666D01*
X31450000Y-87700000D01*
X31416666Y-87733333D01*
X30983333Y-87666666D02*
X30916666Y-87666666D01*
X30850000Y-87700000D01*
X30816666Y-87733333D01*
X30783333Y-87800000D01*
X30750000Y-87933333D01*
X30750000Y-88100000D01*
X30783333Y-88233333D01*
X30816666Y-88300000D01*
X30850000Y-88333333D01*
X30916666Y-88366666D01*
X30983333Y-88366666D01*
X31050000Y-88333333D01*
X31083333Y-88300000D01*
X31116666Y-88233333D01*
X31150000Y-88100000D01*
X31150000Y-87933333D01*
X31116666Y-87800000D01*
X31083333Y-87733333D01*
X31050000Y-87700000D01*
X30983333Y-87666666D01*
X30283333Y-88600000D02*
X30283333Y-87600000D01*
X29783333Y-88366666D02*
X29783333Y-87666666D01*
X29516666Y-87666666D01*
X29450000Y-87700000D01*
X29416666Y-87733333D01*
X29383333Y-87800000D01*
X29383333Y-87900000D01*
X29416666Y-87966666D01*
X29450000Y-88000000D01*
X29516666Y-88033333D01*
X29783333Y-88033333D01*
X28683333Y-88300000D02*
X28716666Y-88333333D01*
X28816666Y-88366666D01*
X28883333Y-88366666D01*
X28983333Y-88333333D01*
X29050000Y-88266666D01*
X29083333Y-88200000D01*
X29116666Y-88066666D01*
X29116666Y-87966666D01*
X29083333Y-87833333D01*
X29050000Y-87766666D01*
X28983333Y-87700000D01*
X28883333Y-87666666D01*
X28816666Y-87666666D01*
X28716666Y-87700000D01*
X28683333Y-87733333D01*
X28016666Y-88366666D02*
X28416666Y-88366666D01*
X28216666Y-88366666D02*
X28216666Y-87666666D01*
X28283333Y-87766666D01*
X28350000Y-87833333D01*
X28416666Y-87866666D01*
X27383333Y-87666666D02*
X27716666Y-87666666D01*
X27750000Y-88000000D01*
X27716666Y-87966666D01*
X27650000Y-87933333D01*
X27483333Y-87933333D01*
X27416666Y-87966666D01*
X27383333Y-88000000D01*
X27350000Y-88066666D01*
X27350000Y-88233333D01*
X27383333Y-88300000D01*
X27416666Y-88333333D01*
X27483333Y-88366666D01*
X27650000Y-88366666D01*
X27716666Y-88333333D01*
X27750000Y-88300000D01*
X33150000Y-85766666D02*
X33150000Y-85066666D01*
X32883333Y-85066666D01*
X32816666Y-85100000D01*
X32783333Y-85133333D01*
X32750000Y-85200000D01*
X32750000Y-85300000D01*
X32783333Y-85366666D01*
X32816666Y-85400000D01*
X32883333Y-85433333D01*
X33150000Y-85433333D01*
X32050000Y-85700000D02*
X32083333Y-85733333D01*
X32183333Y-85766666D01*
X32250000Y-85766666D01*
X32350000Y-85733333D01*
X32416666Y-85666666D01*
X32450000Y-85600000D01*
X32483333Y-85466666D01*
X32483333Y-85366666D01*
X32450000Y-85233333D01*
X32416666Y-85166666D01*
X32350000Y-85100000D01*
X32250000Y-85066666D01*
X32183333Y-85066666D01*
X32083333Y-85100000D01*
X32050000Y-85133333D01*
X31383333Y-85766666D02*
X31783333Y-85766666D01*
X31583333Y-85766666D02*
X31583333Y-85066666D01*
X31650000Y-85166666D01*
X31716666Y-85233333D01*
X31783333Y-85266666D01*
X30783333Y-85300000D02*
X30783333Y-85766666D01*
X30950000Y-85033333D02*
X31116666Y-85533333D01*
X30683333Y-85533333D01*
X30250000Y-86000000D02*
X30250000Y-85000000D01*
X29750000Y-85766666D02*
X29750000Y-85066666D01*
X29483333Y-85066666D01*
X29416666Y-85100000D01*
X29383333Y-85133333D01*
X29350000Y-85200000D01*
X29350000Y-85300000D01*
X29383333Y-85366666D01*
X29416666Y-85400000D01*
X29483333Y-85433333D01*
X29750000Y-85433333D01*
X28650000Y-85700000D02*
X28683333Y-85733333D01*
X28783333Y-85766666D01*
X28850000Y-85766666D01*
X28950000Y-85733333D01*
X29016666Y-85666666D01*
X29050000Y-85600000D01*
X29083333Y-85466666D01*
X29083333Y-85366666D01*
X29050000Y-85233333D01*
X29016666Y-85166666D01*
X28950000Y-85100000D01*
X28850000Y-85066666D01*
X28783333Y-85066666D01*
X28683333Y-85100000D01*
X28650000Y-85133333D01*
X27983333Y-85766666D02*
X28383333Y-85766666D01*
X28183333Y-85766666D02*
X28183333Y-85066666D01*
X28250000Y-85166666D01*
X28316666Y-85233333D01*
X28383333Y-85266666D01*
X27750000Y-85066666D02*
X27316666Y-85066666D01*
X27550000Y-85333333D01*
X27450000Y-85333333D01*
X27383333Y-85366666D01*
X27350000Y-85400000D01*
X27316666Y-85466666D01*
X27316666Y-85633333D01*
X27350000Y-85700000D01*
X27383333Y-85733333D01*
X27450000Y-85766666D01*
X27650000Y-85766666D01*
X27716666Y-85733333D01*
X27750000Y-85700000D01*
X34650000Y-82533333D02*
X34616666Y-82500000D01*
X34550000Y-82466666D01*
X34383333Y-82466666D01*
X34316666Y-82500000D01*
X34283333Y-82533333D01*
X34250000Y-82600000D01*
X34250000Y-82666666D01*
X34283333Y-82766666D01*
X34683333Y-83166666D01*
X34250000Y-83166666D01*
X33950000Y-83100000D02*
X33916666Y-83133333D01*
X33950000Y-83166666D01*
X33983333Y-83133333D01*
X33950000Y-83100000D01*
X33950000Y-83166666D01*
X33283333Y-82466666D02*
X33616666Y-82466666D01*
X33650000Y-82800000D01*
X33616666Y-82766666D01*
X33550000Y-82733333D01*
X33383333Y-82733333D01*
X33316666Y-82766666D01*
X33283333Y-82800000D01*
X33250000Y-82866666D01*
X33250000Y-83033333D01*
X33283333Y-83100000D01*
X33316666Y-83133333D01*
X33383333Y-83166666D01*
X33550000Y-83166666D01*
X33616666Y-83133333D01*
X33650000Y-83100000D01*
X33016666Y-82700000D02*
X32850000Y-83166666D01*
X32683333Y-82700000D01*
X31883333Y-83166666D02*
X31883333Y-82700000D01*
X31883333Y-82833333D02*
X31850000Y-82766666D01*
X31816666Y-82733333D01*
X31750000Y-82700000D01*
X31683333Y-82700000D01*
X31183333Y-83133333D02*
X31250000Y-83166666D01*
X31383333Y-83166666D01*
X31450000Y-83133333D01*
X31483333Y-83066666D01*
X31483333Y-82800000D01*
X31450000Y-82733333D01*
X31383333Y-82700000D01*
X31250000Y-82700000D01*
X31183333Y-82733333D01*
X31150000Y-82800000D01*
X31150000Y-82866666D01*
X31483333Y-82933333D01*
X30950000Y-82700000D02*
X30683333Y-82700000D01*
X30850000Y-83166666D02*
X30850000Y-82566666D01*
X30816666Y-82500000D01*
X30750000Y-82466666D01*
X30683333Y-82466666D01*
X30283333Y-83400000D02*
X30283333Y-82400000D01*
X29416666Y-83166666D02*
X29816666Y-83166666D01*
X29616666Y-83166666D02*
X29616666Y-82466666D01*
X29683333Y-82566666D01*
X29750000Y-82633333D01*
X29816666Y-82666666D01*
X29150000Y-82533333D02*
X29116666Y-82500000D01*
X29050000Y-82466666D01*
X28883333Y-82466666D01*
X28816666Y-82500000D01*
X28783333Y-82533333D01*
X28750000Y-82600000D01*
X28750000Y-82666666D01*
X28783333Y-82766666D01*
X29183333Y-83166666D01*
X28750000Y-83166666D01*
X28550000Y-82466666D02*
X28316666Y-83166666D01*
X28083333Y-82466666D01*
X33183333Y-80700000D02*
X32650000Y-80700000D01*
X31950000Y-80966666D02*
X32350000Y-80966666D01*
X32150000Y-80966666D02*
X32150000Y-80266666D01*
X32216666Y-80366666D01*
X32283333Y-80433333D01*
X32350000Y-80466666D01*
X31683333Y-80333333D02*
X31650000Y-80300000D01*
X31583333Y-80266666D01*
X31416666Y-80266666D01*
X31350000Y-80300000D01*
X31316666Y-80333333D01*
X31283333Y-80400000D01*
X31283333Y-80466666D01*
X31316666Y-80566666D01*
X31716666Y-80966666D01*
X31283333Y-80966666D01*
X31083333Y-80266666D02*
X30850000Y-80966666D01*
X30616666Y-80266666D01*
X30216666Y-81200000D02*
X30216666Y-80200000D01*
X29350000Y-80300000D02*
X29416666Y-80266666D01*
X29516666Y-80266666D01*
X29616666Y-80300000D01*
X29683333Y-80366666D01*
X29716666Y-80433333D01*
X29750000Y-80566666D01*
X29750000Y-80666666D01*
X29716666Y-80800000D01*
X29683333Y-80866666D01*
X29616666Y-80933333D01*
X29516666Y-80966666D01*
X29450000Y-80966666D01*
X29350000Y-80933333D01*
X29316666Y-80900000D01*
X29316666Y-80666666D01*
X29450000Y-80666666D01*
X29016666Y-80966666D02*
X29016666Y-80266666D01*
X28616666Y-80966666D01*
X28616666Y-80266666D01*
X28283333Y-80966666D02*
X28283333Y-80266666D01*
X28116666Y-80266666D01*
X28016666Y-80300000D01*
X27950000Y-80366666D01*
X27916666Y-80433333D01*
X27883333Y-80566666D01*
X27883333Y-80666666D01*
X27916666Y-80800000D01*
X27950000Y-80866666D01*
X28016666Y-80933333D01*
X28116666Y-80966666D01*
X28283333Y-80966666D01*
%LPC*%
D13*
G36*
X48650000Y-45450000D02*
G01*
X41400000Y-45450000D01*
X41400000Y-38050000D01*
X48650000Y-38050000D01*
X48650000Y-45450000D01*
G37*
X48650000Y-45450000D02*
X41400000Y-45450000D01*
X41400000Y-38050000D01*
X48650000Y-38050000D01*
X48650000Y-45450000D01*
D14*
%TO.C,J3*%
X26000000Y-32500000D03*
D15*
X26000000Y-29960000D03*
X28540000Y-32500000D03*
X28540000Y-29960000D03*
X31080000Y-32500000D03*
X31080000Y-29960000D03*
X33620000Y-32500000D03*
X33620000Y-29960000D03*
X36160000Y-32500000D03*
X36160000Y-29960000D03*
X38700000Y-32500000D03*
X38700000Y-29960000D03*
X41240000Y-32500000D03*
X41240000Y-29960000D03*
X43780000Y-32500000D03*
X43780000Y-29960000D03*
%TD*%
D14*
%TO.C,J1*%
X45500000Y-80500000D03*
D15*
X48040000Y-80500000D03*
X45500000Y-83040000D03*
X48040000Y-83040000D03*
X45500000Y-85580000D03*
X48040000Y-85580000D03*
X45500000Y-88120000D03*
X48040000Y-88120000D03*
X45500000Y-90660000D03*
X48040000Y-90660000D03*
X45500000Y-93200000D03*
X48040000Y-93200000D03*
X45500000Y-95740000D03*
X48040000Y-95740000D03*
X45500000Y-98280000D03*
X48040000Y-98280000D03*
X45500000Y-100820000D03*
X48040000Y-100820000D03*
X45500000Y-103360000D03*
X48040000Y-103360000D03*
X45500000Y-105900000D03*
X48040000Y-105900000D03*
X45500000Y-108440000D03*
X48040000Y-108440000D03*
X45500000Y-110980000D03*
X48040000Y-110980000D03*
X45500000Y-113520000D03*
X48040000Y-113520000D03*
X45500000Y-116060000D03*
X48040000Y-116060000D03*
X45500000Y-118600000D03*
X48040000Y-118600000D03*
X45500000Y-121140000D03*
X48040000Y-121140000D03*
X45500000Y-123680000D03*
X48040000Y-123680000D03*
X45500000Y-126220000D03*
X48040000Y-126220000D03*
X45500000Y-128760000D03*
X48040000Y-128760000D03*
%TD*%
D14*
%TO.C,J2*%
X22500000Y-80500000D03*
D15*
X25040000Y-80500000D03*
X22500000Y-83040000D03*
X25040000Y-83040000D03*
X22500000Y-85580000D03*
X25040000Y-85580000D03*
X22500000Y-88120000D03*
X25040000Y-88120000D03*
X22500000Y-90660000D03*
X25040000Y-90660000D03*
X22500000Y-93200000D03*
X25040000Y-93200000D03*
X22500000Y-95740000D03*
X25040000Y-95740000D03*
X22500000Y-98280000D03*
X25040000Y-98280000D03*
X22500000Y-100820000D03*
X25040000Y-100820000D03*
X22500000Y-103360000D03*
X25040000Y-103360000D03*
X22500000Y-105900000D03*
X25040000Y-105900000D03*
X22500000Y-108440000D03*
X25040000Y-108440000D03*
X22500000Y-110980000D03*
X25040000Y-110980000D03*
X22500000Y-113520000D03*
X25040000Y-113520000D03*
X22500000Y-116060000D03*
X25040000Y-116060000D03*
X22500000Y-118600000D03*
X25040000Y-118600000D03*
X22500000Y-121140000D03*
X25040000Y-121140000D03*
X22500000Y-123680000D03*
X25040000Y-123680000D03*
X22500000Y-126220000D03*
X25040000Y-126220000D03*
X22500000Y-128760000D03*
X25040000Y-128760000D03*
%TD*%
%TO.C,J5*%
X31810000Y-47250000D03*
D14*
X34350000Y-47250000D03*
%TD*%
D13*
%TO.C,J4*%
G36*
X46160000Y-52207918D02*
G01*
X47362082Y-53410000D01*
X46160000Y-54612082D01*
X44957918Y-53410000D01*
X46160000Y-52207918D01*
G37*
G36*
G01*
X44964990Y-51012908D02*
X44964990Y-51012908D01*
G75*
G02*
X44964990Y-52214990I-601041J-601041D01*
G01*
X44964990Y-52214990D01*
G75*
G02*
X43762908Y-52214990I-601041J601041D01*
G01*
X43762908Y-52214990D01*
G75*
G02*
X43762908Y-51012908I601041J601041D01*
G01*
X43762908Y-51012908D01*
G75*
G02*
X44964990Y-51012908I601041J-601041D01*
G01*
G37*
G36*
G01*
X43168939Y-49216857D02*
X43168939Y-49216857D01*
G75*
G02*
X43168939Y-50418939I-601041J-601041D01*
G01*
X43168939Y-50418939D01*
G75*
G02*
X41966857Y-50418939I-601041J601041D01*
G01*
X41966857Y-50418939D01*
G75*
G02*
X41966857Y-49216857I601041J601041D01*
G01*
X41966857Y-49216857D01*
G75*
G02*
X43168939Y-49216857I601041J-601041D01*
G01*
G37*
G36*
G01*
X41372887Y-47420805D02*
X41372887Y-47420805D01*
G75*
G02*
X41372887Y-48622887I-601041J-601041D01*
G01*
X41372887Y-48622887D01*
G75*
G02*
X40170805Y-48622887I-601041J601041D01*
G01*
X40170805Y-48622887D01*
G75*
G02*
X40170805Y-47420805I601041J601041D01*
G01*
X40170805Y-47420805D01*
G75*
G02*
X41372887Y-47420805I601041J-601041D01*
G01*
G37*
%TD*%
M02*
