%TF.GenerationSoftware,KiCad,Pcbnew,5.1.9+dfsg1-1*%
%TF.CreationDate,2021-03-03T14:05:15+01:00*%
%TF.ProjectId,rootcore,726f6f74-636f-4726-952e-6b696361645f,rev?*%
%TF.SameCoordinates,Original*%
%TF.FileFunction,Soldermask,Bot*%
%TF.FilePolarity,Negative*%
%FSLAX46Y46*%
G04 Gerber Fmt 4.6, Leading zero omitted, Abs format (unit mm)*
G04 Created by KiCad (PCBNEW 5.1.9+dfsg1-1) date 2021-03-03 14:05:15*
%MOMM*%
%LPD*%
G01*
G04 APERTURE LIST*
%ADD10C,0.100000*%
%ADD11R,1.700000X1.700000*%
%ADD12O,1.700000X1.700000*%
G04 APERTURE END LIST*
D10*
G36*
X48650000Y-45450000D02*
G01*
X41400000Y-45450000D01*
X41400000Y-38050000D01*
X48650000Y-38050000D01*
X48650000Y-45450000D01*
G37*
X48650000Y-45450000D02*
X41400000Y-45450000D01*
X41400000Y-38050000D01*
X48650000Y-38050000D01*
X48650000Y-45450000D01*
D11*
%TO.C,J3*%
X26000000Y-32500000D03*
D12*
X26000000Y-29960000D03*
X28540000Y-32500000D03*
X28540000Y-29960000D03*
X31080000Y-32500000D03*
X31080000Y-29960000D03*
X33620000Y-32500000D03*
X33620000Y-29960000D03*
X36160000Y-32500000D03*
X36160000Y-29960000D03*
X38700000Y-32500000D03*
X38700000Y-29960000D03*
X41240000Y-32500000D03*
X41240000Y-29960000D03*
X43780000Y-32500000D03*
X43780000Y-29960000D03*
%TD*%
D11*
%TO.C,J1*%
X45500000Y-80500000D03*
D12*
X48040000Y-80500000D03*
X45500000Y-83040000D03*
X48040000Y-83040000D03*
X45500000Y-85580000D03*
X48040000Y-85580000D03*
X45500000Y-88120000D03*
X48040000Y-88120000D03*
X45500000Y-90660000D03*
X48040000Y-90660000D03*
X45500000Y-93200000D03*
X48040000Y-93200000D03*
X45500000Y-95740000D03*
X48040000Y-95740000D03*
X45500000Y-98280000D03*
X48040000Y-98280000D03*
X45500000Y-100820000D03*
X48040000Y-100820000D03*
X45500000Y-103360000D03*
X48040000Y-103360000D03*
X45500000Y-105900000D03*
X48040000Y-105900000D03*
X45500000Y-108440000D03*
X48040000Y-108440000D03*
X45500000Y-110980000D03*
X48040000Y-110980000D03*
X45500000Y-113520000D03*
X48040000Y-113520000D03*
X45500000Y-116060000D03*
X48040000Y-116060000D03*
X45500000Y-118600000D03*
X48040000Y-118600000D03*
X45500000Y-121140000D03*
X48040000Y-121140000D03*
X45500000Y-123680000D03*
X48040000Y-123680000D03*
X45500000Y-126220000D03*
X48040000Y-126220000D03*
X45500000Y-128760000D03*
X48040000Y-128760000D03*
%TD*%
D11*
%TO.C,J2*%
X22500000Y-80500000D03*
D12*
X25040000Y-80500000D03*
X22500000Y-83040000D03*
X25040000Y-83040000D03*
X22500000Y-85580000D03*
X25040000Y-85580000D03*
X22500000Y-88120000D03*
X25040000Y-88120000D03*
X22500000Y-90660000D03*
X25040000Y-90660000D03*
X22500000Y-93200000D03*
X25040000Y-93200000D03*
X22500000Y-95740000D03*
X25040000Y-95740000D03*
X22500000Y-98280000D03*
X25040000Y-98280000D03*
X22500000Y-100820000D03*
X25040000Y-100820000D03*
X22500000Y-103360000D03*
X25040000Y-103360000D03*
X22500000Y-105900000D03*
X25040000Y-105900000D03*
X22500000Y-108440000D03*
X25040000Y-108440000D03*
X22500000Y-110980000D03*
X25040000Y-110980000D03*
X22500000Y-113520000D03*
X25040000Y-113520000D03*
X22500000Y-116060000D03*
X25040000Y-116060000D03*
X22500000Y-118600000D03*
X25040000Y-118600000D03*
X22500000Y-121140000D03*
X25040000Y-121140000D03*
X22500000Y-123680000D03*
X25040000Y-123680000D03*
X22500000Y-126220000D03*
X25040000Y-126220000D03*
X22500000Y-128760000D03*
X25040000Y-128760000D03*
%TD*%
%TO.C,J5*%
X31810000Y-47250000D03*
D11*
X34350000Y-47250000D03*
%TD*%
D10*
%TO.C,J4*%
G36*
X46160000Y-52207918D02*
G01*
X47362082Y-53410000D01*
X46160000Y-54612082D01*
X44957918Y-53410000D01*
X46160000Y-52207918D01*
G37*
G36*
G01*
X44964990Y-51012908D02*
X44964990Y-51012908D01*
G75*
G02*
X44964990Y-52214990I-601041J-601041D01*
G01*
X44964990Y-52214990D01*
G75*
G02*
X43762908Y-52214990I-601041J601041D01*
G01*
X43762908Y-52214990D01*
G75*
G02*
X43762908Y-51012908I601041J601041D01*
G01*
X43762908Y-51012908D01*
G75*
G02*
X44964990Y-51012908I601041J-601041D01*
G01*
G37*
G36*
G01*
X43168939Y-49216857D02*
X43168939Y-49216857D01*
G75*
G02*
X43168939Y-50418939I-601041J-601041D01*
G01*
X43168939Y-50418939D01*
G75*
G02*
X41966857Y-50418939I-601041J601041D01*
G01*
X41966857Y-50418939D01*
G75*
G02*
X41966857Y-49216857I601041J601041D01*
G01*
X41966857Y-49216857D01*
G75*
G02*
X43168939Y-49216857I601041J-601041D01*
G01*
G37*
G36*
G01*
X41372887Y-47420805D02*
X41372887Y-47420805D01*
G75*
G02*
X41372887Y-48622887I-601041J-601041D01*
G01*
X41372887Y-48622887D01*
G75*
G02*
X40170805Y-48622887I-601041J601041D01*
G01*
X40170805Y-48622887D01*
G75*
G02*
X40170805Y-47420805I601041J601041D01*
G01*
X40170805Y-47420805D01*
G75*
G02*
X41372887Y-47420805I601041J-601041D01*
G01*
G37*
%TD*%
M02*
