M48
; DRILL file {KiCad 5.1.9+dfsg1-1} date Wed Feb 17 19:30:20 2021
; FORMAT={-:-/ absolute / inch / decimal}
; #@! TF.CreationDate,2021-02-17T19:30:20+01:00
; #@! TF.GenerationSoftware,Kicad,Pcbnew,5.1.9+dfsg1-1
FMAT,2
INCH
T1C0.0157
T2C0.0394
%
G90
G05
T1
X0.8303Y-1.6063
X0.8303Y-1.7925
X0.8575Y-3.4213
X0.8701Y-1.1398
X0.885Y-3.1185
X0.8858Y-2.9646
X0.8878Y-5.1398
X0.8937Y-1.4626
X0.9065Y-1.3474
X0.9331Y-1.7887
X0.9428Y-2.1133
X0.9449Y-2.189
X0.9508Y-1.3179
X0.9664Y-2.0553
X0.9695Y-1.6191
X0.9715Y-3.0984
X0.9862Y-5.1398
X0.9902Y-1.753
X1.0485Y-2.454
X1.0512Y-4.4449
X1.0512Y-4.4803
X1.0512Y-4.5138
X1.064Y-1.7894
X1.0718Y-2.5522
X1.0807Y-4.6201
X1.0867Y-2.6102
X1.0909Y-2.3954
X1.1015Y-2.6635
X1.1163Y-2.7147
X1.1163Y-2.7766
X1.1181Y-1.8081
X1.1319Y-4.8839
X1.1447Y-1.8474
X1.152Y-2.7601
X1.1592Y-2.808
X1.1713Y-2.4252
X1.185Y-2.8701
X1.2067Y-2.1831
X1.2106Y-2.3661
X1.2146Y-2.8346
X1.2185Y-4.9075
X1.2214Y-1.9666
X1.2352Y-2.7402
X1.2441Y-4.6417
X1.2478Y-2.364
X1.25Y-2.7992
X1.2787Y-4.6681
X1.2861Y-2.3983
X1.2913Y-2.4921
X1.3127Y-4.5115
X1.3358Y-2.2329
X1.3386Y-4.7874
X1.3524Y-2.3701
X1.3528Y-4.5055
X1.3563Y-3.061
X1.3563Y-3.1398
X1.3563Y-3.2185
X1.3563Y-3.2972
X1.3563Y-3.4055
X1.3622Y-4.315
X1.3661Y-2.065
X1.3671Y-2.439
X1.3751Y-4.788
X1.3754Y-2.2065
X1.3909Y-2.8394
X1.3929Y-2.6358
X1.3941Y-2.0314
X1.3996Y-2.5335
X1.4035Y-1.1132
X1.4246Y-1.9982
X1.4248Y-1.3772
X1.4287Y-4.6713
X1.4543Y-2.3464
X1.4547Y-2.2343
X1.4709Y-1.7181
X1.4783Y-1.5551
X1.4823Y-1.6683
X1.4862Y-2.3287
X1.4941Y-3.061
X1.4941Y-3.1398
X1.4941Y-3.2185
X1.4941Y-3.2972
X1.4941Y-3.4075
X1.5207Y-4.9488
X1.5224Y-2.3396
X1.5236Y-1.3743
X1.5288Y-1.4286
X1.5295Y-2.5
X1.5315Y-5.1063
X1.5413Y-4.3798
X1.5443Y-4.436
X1.5492Y-2.1437
X1.5492Y-4.4764
X1.5492Y-4.5551
X1.5512Y-4.5157
X1.5548Y-2.1017
X1.5591Y-2.3543
X1.5689Y-1.4508
X1.5935Y-2.3839
X1.6191Y-1.3484
X1.6211Y-4.9252
X1.6535Y-1.5197
X1.6535Y-1.5787
X1.6535Y-1.6378
X1.6535Y-1.6969
X1.6535Y-1.7559
X1.672Y-1.311
X1.6781Y-2.1604
X1.6781Y-2.2057
X1.6801Y-2.1171
X1.6801Y-2.247
X1.6929Y-4.5492
X1.7126Y-1.5197
X1.7126Y-1.5787
X1.7126Y-1.6378
X1.7126Y-1.6969
X1.7126Y-1.7559
X1.7126Y-4.9094
X1.7244Y-2.2441
X1.7244Y-4.0
X1.7343Y-4.7205
X1.7431Y-4.0443
X1.7431Y-4.1467
X1.7482Y-4.5492
X1.7618Y-2.3484
X1.7618Y-2.4272
X1.7618Y-2.5059
X1.7618Y-2.5846
X1.7618Y-2.6634
X1.7618Y-2.7421
X1.7618Y-2.8209
X1.7717Y-1.5197
X1.7717Y-1.7559
X1.7913Y-5.1398
X1.8012Y-1.3622
X1.8307Y-1.5197
X1.8307Y-1.7559
X1.8529Y-2.9464
X1.8898Y-1.5197
X1.8898Y-1.5787
X1.8898Y-1.6378
X1.8898Y-1.6969
X1.8898Y-1.7559
X1.8917Y-5.1398
X1.9291Y-3.0709
T2
X0.8858Y-3.1693
X0.8858Y-3.2693
X0.8858Y-3.3693
X0.8858Y-3.4693
X0.8858Y-3.5693
X0.8858Y-3.6693
X0.8858Y-3.7693
X0.8858Y-3.8693
X0.8858Y-3.9693
X0.8858Y-4.0693
X0.8858Y-4.1693
X0.8858Y-4.2693
X0.8858Y-4.3693
X0.8858Y-4.4693
X0.8858Y-4.5693
X0.8858Y-4.6693
X0.8858Y-4.7693
X0.8858Y-4.8693
X0.8858Y-4.9693
X0.8858Y-5.0693
X0.9858Y-3.1693
X0.9858Y-3.2693
X0.9858Y-3.3693
X0.9858Y-3.4693
X0.9858Y-3.5693
X0.9858Y-3.6693
X0.9858Y-3.7693
X0.9858Y-3.8693
X0.9858Y-3.9693
X0.9858Y-4.0693
X0.9858Y-4.1693
X0.9858Y-4.2693
X0.9858Y-4.3693
X0.9858Y-4.4693
X0.9858Y-4.5693
X0.9858Y-4.6693
X0.9858Y-4.7693
X0.9858Y-4.8693
X0.9858Y-4.9693
X0.9858Y-5.0693
X1.0236Y-1.1795
X1.0236Y-1.2795
X1.1236Y-1.1795
X1.1236Y-1.2795
X1.2236Y-1.1795
X1.2236Y-1.2795
X1.2524Y-1.8602
X1.3236Y-1.1795
X1.3236Y-1.2795
X1.3524Y-1.8602
X1.4236Y-1.1795
X1.4236Y-1.2795
X1.5236Y-1.1795
X1.5236Y-1.2795
X1.6052Y-1.8906
X1.6236Y-1.1795
X1.6236Y-1.2795
X1.6759Y-1.9613
X1.7236Y-1.1795
X1.7236Y-1.2795
X1.7466Y-2.032
X1.7913Y-3.1693
X1.7913Y-3.2693
X1.7913Y-3.3693
X1.7913Y-3.4693
X1.7913Y-3.5693
X1.7913Y-3.6693
X1.7913Y-3.7693
X1.7913Y-3.8693
X1.7913Y-3.9693
X1.7913Y-4.0693
X1.7913Y-4.1693
X1.7913Y-4.2693
X1.7913Y-4.3693
X1.7913Y-4.4693
X1.7913Y-4.5693
X1.7913Y-4.6693
X1.7913Y-4.7693
X1.7913Y-4.8693
X1.7913Y-4.9693
X1.7913Y-5.0693
X1.8173Y-2.1028
X1.8913Y-3.1693
X1.8913Y-3.2693
X1.8913Y-3.3693
X1.8913Y-3.4693
X1.8913Y-3.5693
X1.8913Y-3.6693
X1.8913Y-3.7693
X1.8913Y-3.8693
X1.8913Y-3.9693
X1.8913Y-4.0693
X1.8913Y-4.1693
X1.8913Y-4.2693
X1.8913Y-4.3693
X1.8913Y-4.4693
X1.8913Y-4.5693
X1.8913Y-4.6693
X1.8913Y-4.7693
X1.8913Y-4.8693
X1.8913Y-4.9693
X1.8913Y-5.0693
T0
M30
