%TF.GenerationSoftware,KiCad,Pcbnew,5.1.9+dfsg1-1*%
%TF.CreationDate,2021-03-03T14:05:15+01:00*%
%TF.ProjectId,rootcore,726f6f74-636f-4726-952e-6b696361645f,rev?*%
%TF.SameCoordinates,Original*%
%TF.FileFunction,Copper,L2,Bot*%
%TF.FilePolarity,Positive*%
%FSLAX46Y46*%
G04 Gerber Fmt 4.6, Leading zero omitted, Abs format (unit mm)*
G04 Created by KiCad (PCBNEW 5.1.9+dfsg1-1) date 2021-03-03 14:05:15*
%MOMM*%
%LPD*%
G01*
G04 APERTURE LIST*
%TA.AperFunction,ComponentPad*%
%ADD10R,1.700000X1.700000*%
%TD*%
%TA.AperFunction,ComponentPad*%
%ADD11O,1.700000X1.700000*%
%TD*%
%TA.AperFunction,ComponentPad*%
%ADD12C,0.100000*%
%TD*%
%TA.AperFunction,ViaPad*%
%ADD13C,0.800000*%
%TD*%
%TA.AperFunction,Conductor*%
%ADD14C,0.250000*%
%TD*%
%TA.AperFunction,Conductor*%
%ADD15C,0.762000*%
%TD*%
%TA.AperFunction,Conductor*%
%ADD16C,0.508000*%
%TD*%
%TA.AperFunction,Conductor*%
%ADD17C,0.254000*%
%TD*%
%TA.AperFunction,Conductor*%
%ADD18C,0.100000*%
%TD*%
G04 APERTURE END LIST*
D10*
%TO.P,J3,1*%
%TO.N,N/C*%
X26000000Y-32500000D03*
D11*
%TO.P,J3,2*%
X26000000Y-29960000D03*
%TO.P,J3,3*%
X28540000Y-32500000D03*
%TO.P,J3,4*%
X28540000Y-29960000D03*
%TO.P,J3,5*%
%TO.N,5vRAW*%
X31080000Y-32500000D03*
%TO.P,J3,6*%
X31080000Y-29960000D03*
%TO.P,J3,7*%
%TO.N,12vRAW*%
X33620000Y-32500000D03*
%TO.P,J3,8*%
X33620000Y-29960000D03*
%TO.P,J3,9*%
%TO.N,GND*%
X36160000Y-32500000D03*
%TO.P,J3,10*%
X36160000Y-29960000D03*
%TO.P,J3,11*%
X38700000Y-32500000D03*
%TO.P,J3,12*%
X38700000Y-29960000D03*
%TO.P,J3,13*%
X41240000Y-32500000D03*
%TO.P,J3,14*%
X41240000Y-29960000D03*
%TO.P,J3,15*%
%TO.N,-12vRAW*%
X43780000Y-32500000D03*
%TO.P,J3,16*%
X43780000Y-29960000D03*
%TD*%
D10*
%TO.P,J1,1*%
%TO.N,GND*%
X45500000Y-80500000D03*
D11*
%TO.P,J1,2*%
%TO.N,3v3*%
X48040000Y-80500000D03*
%TO.P,J1,3*%
%TO.N,5v*%
X45500000Y-83040000D03*
%TO.P,J1,4*%
%TO.N,PB9*%
X48040000Y-83040000D03*
%TO.P,J1,5*%
%TO.N,PB3*%
X45500000Y-85580000D03*
%TO.P,J1,6*%
%TO.N,PB8*%
X48040000Y-85580000D03*
%TO.P,J1,7*%
%TO.N,PC12*%
X45500000Y-88120000D03*
%TO.P,J1,8*%
%TO.N,PD2*%
X48040000Y-88120000D03*
%TO.P,J1,9*%
%TO.N,PC10*%
X45500000Y-90660000D03*
%TO.P,J1,10*%
%TO.N,PC11*%
X48040000Y-90660000D03*
%TO.P,J1,11*%
%TO.N,PB4*%
X45500000Y-93200000D03*
%TO.P,J1,12*%
%TO.N,PA15*%
X48040000Y-93200000D03*
%TO.P,J1,13*%
%TO.N,PB6*%
X45500000Y-95740000D03*
%TO.P,J1,14*%
%TO.N,PB5*%
X48040000Y-95740000D03*
%TO.P,J1,15*%
%TO.N,PF7*%
X45500000Y-98280000D03*
%TO.P,J1,16*%
%TO.N,PB7*%
X48040000Y-98280000D03*
%TO.P,J1,17*%
%TO.N,PA12*%
X45500000Y-100820000D03*
%TO.P,J1,18*%
%TO.N,PF6*%
X48040000Y-100820000D03*
%TO.P,J1,19*%
%TO.N,DAC_DIN*%
X45500000Y-103360000D03*
%TO.P,J1,20*%
%TO.N,DAC_LRCK*%
X48040000Y-103360000D03*
%TO.P,J1,21*%
%TO.N,DAC_BCK*%
X45500000Y-105900000D03*
%TO.P,J1,22*%
%TO.N,PA9*%
X48040000Y-105900000D03*
%TO.P,J1,23*%
%TO.N,PC8*%
X45500000Y-108440000D03*
%TO.P,J1,24*%
%TO.N,PC9*%
X48040000Y-108440000D03*
%TO.P,J1,25*%
%TO.N,PC6*%
X45500000Y-110980000D03*
%TO.P,J1,26*%
%TO.N,PC7*%
X48040000Y-110980000D03*
%TO.P,J1,27*%
%TO.N,PB15*%
X45500000Y-113520000D03*
%TO.P,J1,28*%
%TO.N,PD8*%
X48040000Y-113520000D03*
%TO.P,J1,29*%
%TO.N,GND*%
X45500000Y-116060000D03*
%TO.P,J1,30*%
%TO.N,PB14*%
X48040000Y-116060000D03*
%TO.P,J1,31*%
%TO.N,3v3*%
X45500000Y-118600000D03*
%TO.P,J1,32*%
%TO.N,-12v*%
X48040000Y-118600000D03*
%TO.P,J1,33*%
%TO.N,OP1_OUT*%
X45500000Y-121140000D03*
%TO.P,J1,34*%
%TO.N,OP1_INN*%
X48040000Y-121140000D03*
%TO.P,J1,35*%
%TO.N,OP1_INP*%
X45500000Y-123680000D03*
%TO.P,J1,36*%
%TO.N,OP2_INP*%
X48040000Y-123680000D03*
%TO.P,J1,37*%
%TO.N,OP2_INN*%
X45500000Y-126220000D03*
%TO.P,J1,38*%
%TO.N,OP2_OUT*%
X48040000Y-126220000D03*
%TO.P,J1,39*%
%TO.N,GND*%
X45500000Y-128760000D03*
%TO.P,J1,40*%
X48040000Y-128760000D03*
%TD*%
D10*
%TO.P,J2,1*%
%TO.N,GND*%
X22500000Y-80500000D03*
D11*
%TO.P,J2,2*%
%TO.N,-12v*%
X25040000Y-80500000D03*
%TO.P,J2,3*%
%TO.N,12v*%
X22500000Y-83040000D03*
%TO.P,J2,4*%
%TO.N,Ref2v5*%
X25040000Y-83040000D03*
%TO.P,J2,5*%
%TO.N,PC13*%
X22500000Y-85580000D03*
%TO.P,J2,6*%
%TO.N,PC14*%
X25040000Y-85580000D03*
%TO.P,J2,7*%
%TO.N,PC15*%
X22500000Y-88120000D03*
%TO.P,J2,8*%
%TO.N,PC0*%
X25040000Y-88120000D03*
%TO.P,J2,9*%
%TO.N,PC1*%
X22500000Y-90660000D03*
%TO.P,J2,10*%
%TO.N,PC2*%
X25040000Y-90660000D03*
%TO.P,J2,11*%
%TO.N,PC3*%
X22500000Y-93200000D03*
%TO.P,J2,12*%
%TO.N,PA0*%
X25040000Y-93200000D03*
%TO.P,J2,13*%
%TO.N,PA1*%
X22500000Y-95740000D03*
%TO.P,J2,14*%
%TO.N,PA2*%
X25040000Y-95740000D03*
%TO.P,J2,15*%
%TO.N,PA3*%
X22500000Y-98280000D03*
%TO.P,J2,16*%
%TO.N,PA4*%
X25040000Y-98280000D03*
%TO.P,J2,17*%
%TO.N,PA5*%
X22500000Y-100820000D03*
%TO.P,J2,18*%
%TO.N,PA6*%
X25040000Y-100820000D03*
%TO.P,J2,19*%
%TO.N,PA7*%
X22500000Y-103360000D03*
%TO.P,J2,20*%
%TO.N,PC4*%
X25040000Y-103360000D03*
%TO.P,J2,21*%
%TO.N,PC5*%
X22500000Y-105900000D03*
%TO.P,J2,22*%
%TO.N,PB0*%
X25040000Y-105900000D03*
%TO.P,J2,23*%
%TO.N,PB1*%
X22500000Y-108440000D03*
%TO.P,J2,24*%
%TO.N,PB2*%
X25040000Y-108440000D03*
%TO.P,J2,25*%
%TO.N,PE8*%
X22500000Y-110980000D03*
%TO.P,J2,26*%
%TO.N,PE9*%
X25040000Y-110980000D03*
%TO.P,J2,27*%
%TO.N,GND*%
X22500000Y-113520000D03*
%TO.P,J2,28*%
X25040000Y-113520000D03*
%TO.P,J2,29*%
%TO.N,12v*%
X22500000Y-116060000D03*
%TO.P,J2,30*%
%TO.N,GND*%
X25040000Y-116060000D03*
%TO.P,J2,31*%
%TO.N,12v*%
X22500000Y-118600000D03*
%TO.P,J2,32*%
%TO.N,GND*%
X25040000Y-118600000D03*
%TO.P,J2,33*%
%TO.N,12v*%
X22500000Y-121140000D03*
%TO.P,J2,34*%
%TO.N,GND*%
X25040000Y-121140000D03*
%TO.P,J2,35*%
%TO.N,12v*%
X22500000Y-123680000D03*
%TO.P,J2,36*%
%TO.N,GND*%
X25040000Y-123680000D03*
%TO.P,J2,37*%
%TO.N,OUT_R*%
X22500000Y-126220000D03*
%TO.P,J2,38*%
%TO.N,OUT_L*%
X25040000Y-126220000D03*
%TO.P,J2,39*%
%TO.N,GND*%
X22500000Y-128760000D03*
%TO.P,J2,40*%
X25040000Y-128760000D03*
%TD*%
%TO.P,J5,2*%
%TO.N,NRST*%
X31810000Y-47250000D03*
D10*
%TO.P,J5,1*%
%TO.N,BOOT0*%
X34350000Y-47250000D03*
%TD*%
%TA.AperFunction,ComponentPad*%
D12*
%TO.P,J4,1*%
%TO.N,3v3*%
G36*
X46160000Y-52207918D02*
G01*
X47362082Y-53410000D01*
X46160000Y-54612082D01*
X44957918Y-53410000D01*
X46160000Y-52207918D01*
G37*
%TD.AperFunction*%
%TO.P,J4,2*%
%TO.N,PA13*%
%TA.AperFunction,ComponentPad*%
G36*
G01*
X44964990Y-51012908D02*
X44964990Y-51012908D01*
G75*
G02*
X44964990Y-52214990I-601041J-601041D01*
G01*
X44964990Y-52214990D01*
G75*
G02*
X43762908Y-52214990I-601041J601041D01*
G01*
X43762908Y-52214990D01*
G75*
G02*
X43762908Y-51012908I601041J601041D01*
G01*
X43762908Y-51012908D01*
G75*
G02*
X44964990Y-51012908I601041J-601041D01*
G01*
G37*
%TD.AperFunction*%
%TO.P,J4,3*%
%TO.N,PA14*%
%TA.AperFunction,ComponentPad*%
G36*
G01*
X43168939Y-49216857D02*
X43168939Y-49216857D01*
G75*
G02*
X43168939Y-50418939I-601041J-601041D01*
G01*
X43168939Y-50418939D01*
G75*
G02*
X41966857Y-50418939I-601041J601041D01*
G01*
X41966857Y-50418939D01*
G75*
G02*
X41966857Y-49216857I601041J601041D01*
G01*
X41966857Y-49216857D01*
G75*
G02*
X43168939Y-49216857I601041J-601041D01*
G01*
G37*
%TD.AperFunction*%
%TO.P,J4,4*%
%TO.N,GND*%
%TA.AperFunction,ComponentPad*%
G36*
G01*
X41372887Y-47420805D02*
X41372887Y-47420805D01*
G75*
G02*
X41372887Y-48622887I-601041J-601041D01*
G01*
X41372887Y-48622887D01*
G75*
G02*
X40170805Y-48622887I-601041J601041D01*
G01*
X40170805Y-48622887D01*
G75*
G02*
X40170805Y-47420805I601041J601041D01*
G01*
X40170805Y-47420805D01*
G75*
G02*
X41372887Y-47420805I601041J-601041D01*
G01*
G37*
%TD.AperFunction*%
%TD*%
D13*
%TO.N,PF1*%
X28400000Y-45925000D03*
X30650000Y-55450000D03*
%TO.N,PF0*%
X33929364Y-56716084D03*
X29075000Y-46925000D03*
%TO.N,GND*%
X30100000Y-72900000D03*
X26700000Y-112900000D03*
X30850000Y-72000000D03*
X31750000Y-71100000D03*
X26700000Y-113800000D03*
X26700000Y-114650000D03*
X34600000Y-109600000D03*
X44404013Y-115550000D03*
X42999996Y-115550000D03*
X39150000Y-111245988D03*
X39225000Y-112675000D03*
X24625000Y-41125000D03*
X21781000Y-86900000D03*
X31599999Y-117900001D03*
X28750000Y-124050000D03*
X39850000Y-36850000D03*
X48050000Y-130550000D03*
X45500000Y-130550000D03*
X25050000Y-130550000D03*
X22550000Y-130550000D03*
X22480000Y-79210000D03*
X24675000Y-78700000D03*
X22500000Y-75300000D03*
X32800000Y-63300000D03*
X34350000Y-60200000D03*
X35650000Y-28275000D03*
X23025000Y-34225000D03*
X27025000Y-45450000D03*
X23700000Y-45433000D03*
X37360000Y-43640000D03*
X38832500Y-36287500D03*
X36190000Y-34980000D03*
X38700000Y-34908000D03*
X42470000Y-33300000D03*
X35330000Y-72120000D03*
X37950000Y-77750000D03*
X37950000Y-79750000D03*
X37950000Y-81750000D03*
X37950000Y-83750000D03*
X37950000Y-86550000D03*
X34450000Y-81750000D03*
X34450000Y-83750000D03*
X34450000Y-77750000D03*
X34450000Y-79750000D03*
X34450000Y-86500000D03*
X35550000Y-64350000D03*
X38850000Y-63500000D03*
X44750000Y-59650000D03*
X44750000Y-61650000D03*
X44750000Y-63650000D03*
X44750000Y-65650000D03*
X44750000Y-67650000D03*
X44750000Y-69650000D03*
X44750000Y-71650000D03*
X39571846Y-49221846D03*
%TO.N,5v*%
X47062500Y-74837500D03*
X37550000Y-39500000D03*
X37650000Y-42375000D03*
%TO.N,3v3*%
X49000000Y-78000000D03*
X31023539Y-49951457D03*
X34699996Y-52450000D03*
X27450000Y-117350000D03*
X36290000Y-118650000D03*
X32480000Y-118570000D03*
X42000000Y-38600000D03*
X43500000Y-38600000D03*
X45000000Y-38600000D03*
X46500000Y-38600000D03*
X48000000Y-38600000D03*
X42000000Y-40100000D03*
X43500000Y-40100000D03*
X48000000Y-40100000D03*
X42000000Y-41600000D03*
X43500000Y-41600000D03*
X48000000Y-41600000D03*
X42000000Y-43100000D03*
X43500000Y-43100000D03*
X48000000Y-43100000D03*
X42000000Y-44600000D03*
X43500000Y-44600000D03*
X45000000Y-44600000D03*
X46500000Y-44600000D03*
X48000000Y-44600000D03*
%TO.N,3v3a*%
X30750000Y-60100000D03*
X23947133Y-53678392D03*
X34725000Y-61950000D03*
%TO.N,GNDA*%
X32666490Y-60916490D03*
X31694422Y-60044422D03*
X24545500Y-52204500D03*
%TO.N,12v*%
X30950000Y-124650000D03*
X41175000Y-125100000D03*
X22100000Y-28950000D03*
X22700000Y-37150000D03*
X21090000Y-40800000D03*
X21090000Y-45530000D03*
%TO.N,-12v*%
X44050000Y-119900000D03*
X43500000Y-124700000D03*
X25150000Y-44525000D03*
X41125000Y-34250000D03*
X45750000Y-34600000D03*
%TO.N,PA6*%
X27601142Y-66300000D03*
%TO.N,PA4*%
X27224131Y-64827010D03*
%TO.N,PA2*%
X26631237Y-62331237D03*
X27708001Y-60842777D03*
%TO.N,Ref2v5*%
X29750000Y-61600000D03*
X24000000Y-55600000D03*
X35379948Y-66950000D03*
%TO.N,PB0*%
X28355164Y-68952822D03*
%TO.N,PB1*%
X28355164Y-70525000D03*
%TO.N,PB2*%
X29259624Y-70107042D03*
%TO.N,PE8*%
X29443002Y-71322195D03*
%TO.N,PE9*%
X31375000Y-69600000D03*
%TO.N,PC4*%
X27978153Y-67652010D03*
%TO.N,PB8*%
X39350000Y-54450000D03*
%TO.N,PB9*%
X39491897Y-53383992D03*
%TO.N,BOOT0*%
X36185946Y-50754019D03*
X36950000Y-56750002D03*
%TO.N,NRST*%
X34933930Y-56045142D03*
X35411010Y-51598066D03*
%TO.N,PA15*%
X40475000Y-60550000D03*
%TO.N,PC10*%
X43800000Y-57000000D03*
%TO.N,PC11*%
X42675000Y-57075000D03*
%TO.N,PC12*%
X42625000Y-56025000D03*
%TO.N,PD2*%
X42625000Y-54875000D03*
%TO.N,PB3*%
X42675000Y-53775000D03*
%TO.N,PB4*%
X39599999Y-59800000D03*
%TO.N,PB5*%
X38667729Y-59426186D03*
%TO.N,PB6*%
X37750000Y-59150000D03*
%TO.N,PB7*%
X36938673Y-59598441D03*
%TO.N,DAC_LRCK*%
X43800000Y-101600000D03*
X39350000Y-113700000D03*
%TO.N,DAC_DIN*%
X44275000Y-102725000D03*
X39400000Y-114699996D03*
%TO.N,DAC_BCK*%
X44275000Y-105325000D03*
X39350000Y-115700000D03*
%TO.N,DAC_R*%
X33343186Y-114591181D03*
X33999990Y-121600000D03*
%TO.N,DAC_L*%
X34360000Y-114440000D03*
X34926869Y-121616284D03*
%TO.N,OUT_R*%
X38900000Y-129700000D03*
%TO.N,OP2_INP*%
X38625000Y-125700000D03*
%TO.N,12vRAW*%
X24150000Y-33475000D03*
%TD*%
D14*
%TO.N,PF1*%
X30650000Y-52850000D02*
X30650000Y-55450000D01*
X28400000Y-50600000D02*
X30650000Y-52850000D01*
X28400000Y-45925000D02*
X28400000Y-50600000D01*
%TO.N,PF0*%
X29075000Y-46925000D02*
X29075000Y-49525000D01*
X29075000Y-49525000D02*
X33929364Y-54379364D01*
X33929364Y-54379364D02*
X33929364Y-56150399D01*
X33929364Y-56150399D02*
X33929364Y-56716084D01*
D15*
%TO.N,GND*%
X22500000Y-113520000D02*
X25040000Y-113520000D01*
D16*
X44990000Y-115550000D02*
X44404013Y-115550000D01*
X45500000Y-116060000D02*
X44990000Y-115550000D01*
D14*
X44404013Y-115550000D02*
X42999996Y-115550000D01*
D16*
X45500000Y-130350000D02*
X45500000Y-128760000D01*
X25050000Y-128770000D02*
X25040000Y-128760000D01*
X25050000Y-130400000D02*
X25050000Y-128770000D01*
X24165000Y-79210000D02*
X24675000Y-78700000D01*
X22480000Y-79210000D02*
X24165000Y-79210000D01*
D14*
X22500000Y-75300000D02*
X22375000Y-75175000D01*
X22375000Y-75175000D02*
X22375000Y-65725000D01*
X22375000Y-60525000D02*
X23158980Y-59741020D01*
X22375000Y-65725000D02*
X22375000Y-60525000D01*
X22500000Y-76525000D02*
X24675000Y-78700000D01*
X22500000Y-75300000D02*
X22500000Y-76525000D01*
D16*
X48050000Y-128770000D02*
X48040000Y-128760000D01*
X48050000Y-130550000D02*
X48050000Y-128770000D01*
D14*
X21550000Y-97050000D02*
X21397999Y-97202001D01*
X26718414Y-82368414D02*
X26718414Y-95831586D01*
X26100000Y-81750000D02*
X26718414Y-82368414D01*
X24250000Y-81750000D02*
X26100000Y-81750000D01*
X26718414Y-95831586D02*
X25500000Y-97050000D01*
X22500000Y-80500000D02*
X23000000Y-80500000D01*
X25500000Y-97050000D02*
X21550000Y-97050000D01*
X21545998Y-97050000D02*
X21397999Y-96902001D01*
X21550000Y-97050000D02*
X21545998Y-97050000D01*
X21397999Y-97202001D02*
X21397999Y-96902001D01*
X45500000Y-80500000D02*
X45500000Y-81200000D01*
X45500000Y-81200000D02*
X46750000Y-82450000D01*
X46750000Y-82450000D02*
X46750000Y-83550000D01*
X46750000Y-83550000D02*
X47500000Y-84300000D01*
X47500000Y-84300000D02*
X48800000Y-84300000D01*
X48800000Y-84300000D02*
X49393990Y-84893990D01*
X49393990Y-116530404D02*
X48624394Y-117300000D01*
X46740000Y-117300000D02*
X45500000Y-116060000D01*
X48624394Y-117300000D02*
X46740000Y-117300000D01*
X49393990Y-107193990D02*
X49393990Y-116530404D01*
X49393990Y-84893990D02*
X49393990Y-107193990D01*
X49350000Y-107150000D02*
X49393990Y-107193990D01*
X44750000Y-107150000D02*
X49350000Y-107150000D01*
X44200000Y-107700000D02*
X44750000Y-107150000D01*
X44200000Y-114850000D02*
X44200000Y-107700000D01*
X44404013Y-115054013D02*
X44200000Y-114850000D01*
X44404013Y-115550000D02*
X44404013Y-115054013D01*
D15*
X36160000Y-28785000D02*
X35650000Y-28275000D01*
X36160000Y-29960000D02*
X36160000Y-28785000D01*
X23025000Y-30100000D02*
X23025000Y-34225000D01*
X25125000Y-28000000D02*
X23025000Y-30100000D01*
X35375000Y-28000000D02*
X25125000Y-28000000D01*
X35650000Y-28275000D02*
X35375000Y-28000000D01*
D16*
X23717000Y-45450000D02*
X23700000Y-45433000D01*
X27025000Y-45450000D02*
X23717000Y-45450000D01*
D15*
X41670000Y-32500000D02*
X42470000Y-33300000D01*
X41240000Y-32500000D02*
X41670000Y-32500000D01*
D14*
X21781000Y-86900000D02*
X23000000Y-86900000D01*
X23000000Y-86900000D02*
X23750000Y-86150000D01*
X23750000Y-86150000D02*
X23750000Y-82525000D01*
X23750000Y-82525000D02*
X23750000Y-81250000D01*
X23750000Y-81250000D02*
X24250000Y-81750000D01*
X23000000Y-80500000D02*
X23750000Y-81250000D01*
X21325000Y-97275000D02*
X21397999Y-97202001D01*
X21325000Y-112345000D02*
X21325000Y-97275000D01*
X22500000Y-113520000D02*
X21325000Y-112345000D01*
X21325000Y-87356000D02*
X21781000Y-86900000D01*
X21325000Y-97300000D02*
X21325000Y-87356000D01*
D16*
%TO.N,5v*%
X43800000Y-81340000D02*
X43800000Y-78100000D01*
X45500000Y-83040000D02*
X43800000Y-81340000D01*
X43800000Y-78100000D02*
X47062500Y-74837500D01*
D15*
X37550000Y-42275000D02*
X37650000Y-42375000D01*
X37550000Y-39500000D02*
X37550000Y-42275000D01*
%TO.N,3v3*%
X34630000Y-50870000D02*
X34603000Y-50870000D01*
X35759500Y-49740500D02*
X34630000Y-50870000D01*
D16*
X35600000Y-49900000D02*
X35759500Y-49740500D01*
D15*
X35600000Y-49900000D02*
X38050000Y-47450000D01*
X38050000Y-47450000D02*
X38100000Y-47400000D01*
D16*
X35600000Y-49900000D02*
X31074996Y-49900000D01*
X31074996Y-49900000D02*
X31023539Y-49951457D01*
X30974996Y-50000000D02*
X31023539Y-49951457D01*
X34630000Y-52380004D02*
X34699996Y-52450000D01*
X34630000Y-50870000D02*
X34630000Y-52380004D01*
D14*
X39750000Y-118600000D02*
X45500000Y-118600000D01*
X36340000Y-118600000D02*
X36290000Y-118650000D01*
X39750000Y-118600000D02*
X36340000Y-118600000D01*
X29069999Y-118969999D02*
X27450000Y-117350000D01*
X32080001Y-118969999D02*
X29069999Y-118969999D01*
X32480000Y-118570000D02*
X32080001Y-118969999D01*
D15*
X42550000Y-42950000D02*
X38050000Y-47450000D01*
X42550000Y-41650000D02*
X42550000Y-42950000D01*
X43450000Y-41650000D02*
X43500000Y-41600000D01*
X42550000Y-41650000D02*
X43450000Y-41650000D01*
D16*
X49000000Y-47100000D02*
X43500000Y-41600000D01*
X48570000Y-51000000D02*
X48700000Y-51000000D01*
X49000000Y-50700000D02*
X49000000Y-47100000D01*
X49000000Y-78000000D02*
X49000000Y-50700000D01*
X48870000Y-50700000D02*
X49000000Y-50700000D01*
X46160000Y-53410000D02*
X48870000Y-50700000D01*
D14*
%TO.N,3v3a*%
X30750000Y-60100000D02*
X30750000Y-59850000D01*
X30750000Y-59850000D02*
X27450000Y-56550000D01*
X27450000Y-56550000D02*
X25550000Y-54650000D01*
X24578392Y-53678392D02*
X23947133Y-53678392D01*
X25550000Y-54650000D02*
X24578392Y-53678392D01*
X30750000Y-60100000D02*
X32600000Y-61950000D01*
X32600000Y-61950000D02*
X34725000Y-61950000D01*
%TO.N,GNDA*%
X32566490Y-60916490D02*
X31694422Y-60044422D01*
X32666490Y-60916490D02*
X32566490Y-60916490D01*
X24545500Y-52895500D02*
X24545500Y-52204500D01*
X31694422Y-60044422D02*
X24545500Y-52895500D01*
%TO.N,12v*%
X30950000Y-124650000D02*
X30650000Y-124950000D01*
X23770000Y-124950000D02*
X22500000Y-123680000D01*
X30650000Y-124950000D02*
X23770000Y-124950000D01*
D16*
X40725000Y-124650000D02*
X41175000Y-125100000D01*
X30950000Y-124650000D02*
X40725000Y-124650000D01*
D15*
X21090000Y-29960000D02*
X22100000Y-28950000D01*
X22500000Y-83040000D02*
X21090000Y-81630000D01*
X22700000Y-37150000D02*
X21110000Y-37150000D01*
X21110000Y-37150000D02*
X21090000Y-37130000D01*
X21090000Y-37130000D02*
X21090000Y-29960000D01*
X21090000Y-40800000D02*
X21090000Y-37130000D01*
X21090000Y-45530000D02*
X21090000Y-40800000D01*
X21090000Y-81630000D02*
X21090000Y-45530000D01*
D16*
X20818989Y-114378989D02*
X22500000Y-116060000D01*
X22500000Y-83040000D02*
X20818989Y-84721011D01*
X20818989Y-84721011D02*
X20818989Y-114378989D01*
D15*
%TO.N,-12v*%
X25800000Y-79740000D02*
X25040000Y-80500000D01*
X25800000Y-78220000D02*
X25800000Y-79740000D01*
X22050000Y-56300000D02*
X23791990Y-58041990D01*
X23791990Y-76211990D02*
X23877500Y-76297500D01*
X23791990Y-58041990D02*
X23791990Y-76211990D01*
X23877500Y-76297500D02*
X25800000Y-78220000D01*
D16*
X48040000Y-118600000D02*
X46808999Y-119831001D01*
X44118999Y-119831001D02*
X44050000Y-119900000D01*
X46808999Y-119831001D02*
X44118999Y-119831001D01*
X44050000Y-119900000D02*
X44050000Y-120275000D01*
X44050000Y-119900000D02*
X44050000Y-123025000D01*
X44050000Y-124150000D02*
X43500000Y-124700000D01*
X44050000Y-123025000D02*
X44050000Y-124150000D01*
D15*
X22250000Y-44525000D02*
X22050000Y-44725000D01*
X25150000Y-44525000D02*
X22250000Y-44525000D01*
X22050000Y-44725000D02*
X22050000Y-56300000D01*
D16*
X48040000Y-118600000D02*
X49900000Y-116740000D01*
X49900000Y-116740000D02*
X49900000Y-38750000D01*
X49900000Y-38750000D02*
X45750000Y-34600000D01*
D15*
X40875000Y-34000000D02*
X41125000Y-34250000D01*
X27430000Y-34000000D02*
X40875000Y-34000000D01*
X23680000Y-37750000D02*
X27430000Y-34000000D01*
X23606009Y-37750000D02*
X23680000Y-37750000D01*
X22050000Y-39306009D02*
X23606009Y-37750000D01*
X22050000Y-44725000D02*
X22050000Y-39306009D01*
D14*
%TO.N,PA6*%
X27652010Y-98207990D02*
X27652010Y-77918838D01*
X24802010Y-75068838D02*
X24802010Y-69099132D01*
X25040000Y-100820000D02*
X27652010Y-98207990D01*
X27652010Y-77918838D02*
X24802010Y-75068838D01*
X24802010Y-69099132D02*
X27601142Y-66300000D01*
%TO.N,PA4*%
X25040000Y-98280000D02*
X27275000Y-96045000D01*
X27275000Y-96045000D02*
X27275000Y-78075000D01*
X27275000Y-78075000D02*
X24425000Y-75225000D01*
X24425000Y-67626141D02*
X27224131Y-64827010D01*
X24425000Y-75225000D02*
X24425000Y-67626141D01*
%TO.N,PA2*%
X26631237Y-61919541D02*
X26631237Y-62331237D01*
X27708001Y-60842777D02*
X26631237Y-61919541D01*
%TO.N,Ref2v5*%
X29750000Y-61600000D02*
X24000000Y-55850000D01*
X24000000Y-55850000D02*
X24000000Y-55600000D01*
X35100000Y-66950000D02*
X35379948Y-66950000D01*
X29750000Y-61600000D02*
X35100000Y-66950000D01*
%TO.N,PB0*%
X28406029Y-77606515D02*
X25556029Y-74756515D01*
X25556029Y-74756515D02*
X25556029Y-71751957D01*
X25040000Y-105900000D02*
X28406029Y-102533971D01*
X28406029Y-102533971D02*
X28406029Y-77606515D01*
X25556029Y-71751957D02*
X28355164Y-68952822D01*
%TO.N,PB1*%
X25875000Y-107175000D02*
X28783040Y-104266960D01*
X23765000Y-107175000D02*
X25875000Y-107175000D01*
X28783040Y-77450352D02*
X25933040Y-74600352D01*
X28783040Y-104266960D02*
X28783040Y-77450352D01*
X25933040Y-72947124D02*
X28355164Y-70525000D01*
X22500000Y-108440000D02*
X23765000Y-107175000D01*
X25933040Y-74600352D02*
X25933040Y-72947124D01*
%TO.N,PB2*%
X26310051Y-74444189D02*
X26310051Y-73533064D01*
X26242081Y-108440000D02*
X29160050Y-105522031D01*
X29259624Y-70583491D02*
X29259624Y-70107042D01*
X29160050Y-105522031D02*
X29160051Y-77294189D01*
X29160051Y-77294189D02*
X26310051Y-74444189D01*
X26310051Y-73533064D02*
X29259624Y-70583491D01*
X25040000Y-108440000D02*
X26242081Y-108440000D01*
%TO.N,PE8*%
X22500000Y-110980000D02*
X23780000Y-109700000D01*
X23780000Y-109700000D02*
X25925000Y-109700000D01*
X25925000Y-109700000D02*
X29537060Y-106087940D01*
X29537060Y-77138028D02*
X26699516Y-74300484D01*
X26699516Y-74300484D02*
X26699516Y-74065681D01*
X26699516Y-74065681D02*
X29443002Y-71322195D01*
X29537060Y-106087940D02*
X29537060Y-77138028D01*
%TO.N,PE9*%
X29914071Y-76981865D02*
X29914071Y-107308010D01*
X29914071Y-107308010D02*
X26242081Y-110980000D01*
X27750000Y-74817794D02*
X29914071Y-76981865D01*
X27750000Y-73980159D02*
X27750000Y-74817794D01*
X26242081Y-110980000D02*
X25040000Y-110980000D01*
X31375000Y-70355159D02*
X27750000Y-73980159D01*
X31375000Y-69600000D02*
X31375000Y-70355159D01*
%TO.N,PC4*%
X28029020Y-77762676D02*
X25179020Y-74912676D01*
X25040000Y-103360000D02*
X28029020Y-100370980D01*
X25179020Y-70451143D02*
X27978153Y-67652010D01*
X25179020Y-74912676D02*
X25179020Y-70451143D01*
X28029020Y-100370980D02*
X28029020Y-77762676D01*
%TO.N,PB8*%
X39350000Y-54450000D02*
X41197990Y-52602010D01*
X41197990Y-52602010D02*
X42743838Y-52602010D01*
X47597990Y-57456162D02*
X47597990Y-73252010D01*
X42743838Y-52602010D02*
X47597990Y-57456162D01*
X43293990Y-77556010D02*
X43293990Y-83373990D01*
X47597990Y-73252010D02*
X43293990Y-77556010D01*
X43293990Y-83373990D02*
X43323990Y-83373990D01*
X43323990Y-83373990D02*
X44250000Y-84300000D01*
X46760000Y-84300000D02*
X47773414Y-85313414D01*
X44250000Y-84300000D02*
X46760000Y-84300000D01*
%TO.N,PB9*%
X46775000Y-79600000D02*
X47975000Y-78400000D01*
X48040000Y-83040000D02*
X46775000Y-81775000D01*
X46775000Y-81775000D02*
X46775000Y-79600000D01*
X47975000Y-78400000D02*
X47975000Y-57300000D01*
X47975000Y-57300000D02*
X42900000Y-52225000D01*
X42900000Y-52225000D02*
X40650889Y-52225000D01*
X40650889Y-52225000D02*
X39491897Y-53383992D01*
%TO.N,BOOT0*%
X36185946Y-50754019D02*
X36185946Y-55985948D01*
X36185946Y-55985948D02*
X36950000Y-56750002D01*
%TO.N,NRST*%
X34933930Y-56045142D02*
X35411010Y-55568062D01*
X35411010Y-55568062D02*
X35411010Y-51598066D01*
%TO.N,PA15*%
X46790000Y-91950000D02*
X48040000Y-93200000D01*
X37900000Y-74297650D02*
X37050000Y-75147650D01*
X37050000Y-75147650D02*
X37050000Y-87469997D01*
X37050000Y-87469997D02*
X41530003Y-91950000D01*
X40475000Y-60550000D02*
X37900000Y-63125000D01*
X41530003Y-91950000D02*
X46790000Y-91950000D01*
X37900000Y-63125000D02*
X37900000Y-74297650D01*
%TO.N,PC10*%
X45200000Y-90660000D02*
X45500000Y-90660000D01*
X41395981Y-86855981D02*
X45200000Y-90660000D01*
X41395981Y-76788159D02*
X41395981Y-86855981D01*
X45712940Y-72471200D02*
X41395981Y-76788159D01*
X45712940Y-58266168D02*
X45712940Y-72471200D01*
X44446772Y-57000000D02*
X45712940Y-58266168D01*
X43800000Y-57000000D02*
X44446772Y-57000000D01*
%TO.N,PC11*%
X46089950Y-72627362D02*
X41772991Y-76944321D01*
X41772991Y-86422991D02*
X41800000Y-86450000D01*
X41772991Y-76944321D02*
X41772991Y-86422991D01*
X46089950Y-58110006D02*
X46089950Y-72627362D01*
X44089972Y-56110028D02*
X46089950Y-58110006D01*
X43639972Y-56110028D02*
X44089972Y-56110028D01*
X42675000Y-57075000D02*
X43639972Y-56110028D01*
X41772991Y-86422991D02*
X44750000Y-89400000D01*
X46780000Y-89400000D02*
X48040000Y-90660000D01*
X44750000Y-89400000D02*
X46780000Y-89400000D01*
%TO.N,PC12*%
X44040117Y-55527001D02*
X46466960Y-57953844D01*
X46466960Y-72783524D02*
X42162960Y-77087524D01*
X46466960Y-57953844D02*
X46466960Y-72783524D01*
X42162960Y-85896132D02*
X42150000Y-85909092D01*
X42162960Y-77087524D02*
X42162960Y-85896132D01*
X44386828Y-88120000D02*
X45500000Y-88120000D01*
X42162960Y-85896132D02*
X44386828Y-88120000D01*
X43122999Y-55527001D02*
X42625000Y-56025000D01*
X44040117Y-55527001D02*
X43122999Y-55527001D01*
%TO.N,PD2*%
X42539970Y-84789970D02*
X44600000Y-86850000D01*
X42539970Y-77243686D02*
X42539970Y-84789970D01*
X46843970Y-72939686D02*
X42539970Y-77243686D01*
X46843970Y-57768486D02*
X46843970Y-72939686D01*
X43950484Y-54875000D02*
X46843970Y-57768486D01*
X42625000Y-54875000D02*
X43950484Y-54875000D01*
X44600000Y-86850000D02*
X46650000Y-86850000D01*
X47920000Y-88120000D02*
X48040000Y-88120000D01*
X46650000Y-86850000D02*
X47920000Y-88120000D01*
%TO.N,PB3*%
X47220980Y-73095848D02*
X42916980Y-77399848D01*
X47220980Y-57612324D02*
X47220980Y-73095848D01*
X43383656Y-53775000D02*
X47220980Y-57612324D01*
X42675000Y-53775000D02*
X43383656Y-53775000D01*
X44297919Y-85580000D02*
X45500000Y-85580000D01*
X42916980Y-84199061D02*
X44297919Y-85580000D01*
X42916980Y-77399848D02*
X42916980Y-84199061D01*
%TO.N,PB4*%
X39599999Y-60200001D02*
X39599999Y-59800000D01*
X37522989Y-62277011D02*
X39599999Y-60200001D01*
X37522989Y-74141483D02*
X37522989Y-62277011D01*
X36654022Y-75010450D02*
X37522989Y-74141483D01*
X36654022Y-87607189D02*
X36654022Y-75010450D01*
X42246833Y-93200000D02*
X36654022Y-87607189D01*
X45500000Y-93200000D02*
X42246833Y-93200000D01*
%TO.N,PB5*%
X38667729Y-59782271D02*
X38667729Y-59426186D01*
X37145978Y-61304022D02*
X38667729Y-59782271D01*
X37145978Y-73985320D02*
X37145978Y-61304022D01*
X36277012Y-74854286D02*
X37145978Y-73985320D01*
X36277011Y-87763352D02*
X36277012Y-74854286D01*
X42918684Y-94405025D02*
X36277011Y-87763352D01*
X46705025Y-94405025D02*
X42918684Y-94405025D01*
X48040000Y-95740000D02*
X46705025Y-94405025D01*
%TO.N,PB6*%
X37750000Y-59900000D02*
X37750000Y-59150000D01*
X36768968Y-60881032D02*
X37750000Y-59900000D01*
X36768968Y-73829156D02*
X36768968Y-60881032D01*
X35900002Y-74698122D02*
X36768968Y-73829156D01*
X35900000Y-87919515D02*
X35900002Y-74698122D01*
X43720485Y-95740000D02*
X35900000Y-87919515D01*
X45500000Y-95740000D02*
X43720485Y-95740000D01*
%TO.N,PB7*%
X44447311Y-97000000D02*
X35522992Y-88075681D01*
X35522992Y-88075681D02*
X35522992Y-74541958D01*
X36391958Y-60145156D02*
X36938673Y-59598441D01*
X35522992Y-74541958D02*
X36391958Y-73672992D01*
X48040000Y-98280000D02*
X46760000Y-97000000D01*
X36391958Y-73672992D02*
X36391958Y-60145156D01*
X46760000Y-97000000D02*
X44447311Y-97000000D01*
%TO.N,DAC_LRCK*%
X42520981Y-102879019D02*
X43800000Y-101600000D01*
X42520981Y-111045843D02*
X42520981Y-102879019D01*
X39916824Y-113650000D02*
X42520981Y-111045843D01*
X39400000Y-113650000D02*
X39916824Y-113650000D01*
X39350000Y-113700000D02*
X39400000Y-113650000D01*
%TO.N,DAC_DIN*%
X39600004Y-114699996D02*
X39400000Y-114699996D01*
X42897991Y-111402009D02*
X39600004Y-114699996D01*
X42897991Y-104102009D02*
X42897991Y-111402009D01*
X44275000Y-102725000D02*
X42897991Y-104102009D01*
%TO.N,DAC_BCK*%
X39475000Y-115700000D02*
X39350000Y-115700000D01*
X43300000Y-111875000D02*
X39475000Y-115700000D01*
X43700000Y-105325000D02*
X43300000Y-105725000D01*
X43300000Y-105725000D02*
X43300000Y-111875000D01*
X44275000Y-105325000D02*
X43700000Y-105325000D01*
%TO.N,DAC_R*%
X33343186Y-114591181D02*
X33343186Y-120943196D01*
X33343186Y-120943196D02*
X33999990Y-121600000D01*
%TO.N,DAC_L*%
X34360000Y-114440000D02*
X34759999Y-114839999D01*
X34759999Y-121783154D02*
X34926869Y-121616284D01*
X34926869Y-115006869D02*
X34759999Y-114839999D01*
X34926869Y-121616284D02*
X34926869Y-115006869D01*
%TO.N,OUT_R*%
X38900000Y-129700000D02*
X35150000Y-129700000D01*
X35150000Y-129700000D02*
X32925000Y-127475000D01*
X23755000Y-127475000D02*
X22500000Y-126220000D01*
X32925000Y-127475000D02*
X23755000Y-127475000D01*
%TO.N,OP2_INP*%
X46745000Y-124975000D02*
X44625000Y-124975000D01*
X48040000Y-123680000D02*
X46745000Y-124975000D01*
X38661267Y-125736267D02*
X38625000Y-125700000D01*
X38661267Y-126016335D02*
X38661267Y-125736267D01*
X43500001Y-126099999D02*
X44625000Y-124975000D01*
X39024999Y-126099999D02*
X43500001Y-126099999D01*
X38625000Y-125700000D02*
X39024999Y-126099999D01*
D15*
%TO.N,12vRAW*%
X24175000Y-33450000D02*
X24150000Y-33475000D01*
%TD*%
D17*
%TO.N,GND*%
X21145709Y-115810210D02*
X21123000Y-115924377D01*
X21123000Y-116195623D01*
X21175917Y-116461656D01*
X21279718Y-116712254D01*
X21430414Y-116937787D01*
X21622213Y-117129586D01*
X21847746Y-117280282D01*
X21967776Y-117330000D01*
X21847746Y-117379718D01*
X21622213Y-117530414D01*
X21430414Y-117722213D01*
X21279718Y-117947746D01*
X21175917Y-118198344D01*
X21123000Y-118464377D01*
X21123000Y-118735623D01*
X21175917Y-119001656D01*
X21279718Y-119252254D01*
X21430414Y-119477787D01*
X21622213Y-119669586D01*
X21847746Y-119820282D01*
X21967776Y-119870000D01*
X21847746Y-119919718D01*
X21622213Y-120070414D01*
X21430414Y-120262213D01*
X21279718Y-120487746D01*
X21175917Y-120738344D01*
X21123000Y-121004377D01*
X21123000Y-121275623D01*
X21175917Y-121541656D01*
X21279718Y-121792254D01*
X21430414Y-122017787D01*
X21622213Y-122209586D01*
X21847746Y-122360282D01*
X21967776Y-122410000D01*
X21847746Y-122459718D01*
X21622213Y-122610414D01*
X21430414Y-122802213D01*
X21279718Y-123027746D01*
X21175917Y-123278344D01*
X21123000Y-123544377D01*
X21123000Y-123815623D01*
X21175917Y-124081656D01*
X21279718Y-124332254D01*
X21430414Y-124557787D01*
X21622213Y-124749586D01*
X21847746Y-124900282D01*
X21967776Y-124950000D01*
X21847746Y-124999718D01*
X21622213Y-125150414D01*
X21430414Y-125342213D01*
X21279718Y-125567746D01*
X21175917Y-125818344D01*
X21123000Y-126084377D01*
X21123000Y-126355623D01*
X21175917Y-126621656D01*
X21279718Y-126872254D01*
X21430414Y-127097787D01*
X21622213Y-127289586D01*
X21847746Y-127440282D01*
X22098344Y-127544083D01*
X22364377Y-127597000D01*
X22635623Y-127597000D01*
X22901656Y-127544083D01*
X22901911Y-127543977D01*
X23271320Y-127913387D01*
X23291736Y-127938264D01*
X23391016Y-128019741D01*
X23504283Y-128080283D01*
X23627185Y-128117565D01*
X23754999Y-128130154D01*
X23787021Y-128127000D01*
X32654934Y-128127000D01*
X34666320Y-130138387D01*
X34686736Y-130163264D01*
X34786016Y-130244741D01*
X34899283Y-130305283D01*
X35022185Y-130342565D01*
X35149999Y-130355154D01*
X35182021Y-130352000D01*
X38241024Y-130352000D01*
X38309072Y-130420048D01*
X38460901Y-130521496D01*
X38629604Y-130591376D01*
X38808699Y-130627000D01*
X38991301Y-130627000D01*
X39170396Y-130591376D01*
X39339099Y-130521496D01*
X39490928Y-130420048D01*
X39620048Y-130290928D01*
X39721496Y-130139099D01*
X39791376Y-129970396D01*
X39827000Y-129791301D01*
X39827000Y-129608699D01*
X39791376Y-129429604D01*
X39721496Y-129260901D01*
X39620048Y-129109072D01*
X39490928Y-128979952D01*
X39339099Y-128878504D01*
X39170396Y-128808624D01*
X38991301Y-128773000D01*
X38808699Y-128773000D01*
X38629604Y-128808624D01*
X38460901Y-128878504D01*
X38309072Y-128979952D01*
X38241024Y-129048000D01*
X35420067Y-129048000D01*
X33408685Y-127036619D01*
X33388264Y-127011736D01*
X33288984Y-126930259D01*
X33175717Y-126869717D01*
X33052814Y-126832435D01*
X32957022Y-126823000D01*
X32925000Y-126819846D01*
X32892978Y-126823000D01*
X26280684Y-126823000D01*
X26364083Y-126621656D01*
X26417000Y-126355623D01*
X26417000Y-126084377D01*
X26364083Y-125818344D01*
X26274470Y-125602000D01*
X30617978Y-125602000D01*
X30650000Y-125605154D01*
X30682022Y-125602000D01*
X30777814Y-125592565D01*
X30840837Y-125573447D01*
X30858699Y-125577000D01*
X31041301Y-125577000D01*
X31220396Y-125541376D01*
X31389099Y-125471496D01*
X31449706Y-125431000D01*
X37733346Y-125431000D01*
X37698000Y-125608699D01*
X37698000Y-125791301D01*
X37733624Y-125970396D01*
X37803504Y-126139099D01*
X37904952Y-126290928D01*
X38034072Y-126420048D01*
X38185901Y-126521496D01*
X38351790Y-126590210D01*
X38410550Y-126621618D01*
X38533453Y-126658900D01*
X38661267Y-126671489D01*
X38703312Y-126667348D01*
X38774282Y-126705282D01*
X38897184Y-126742564D01*
X39024998Y-126755153D01*
X39057020Y-126751999D01*
X43467979Y-126751999D01*
X43500001Y-126755153D01*
X43532023Y-126751999D01*
X43627815Y-126742564D01*
X43750718Y-126705282D01*
X43863985Y-126644740D01*
X43963265Y-126563263D01*
X43983686Y-126538380D01*
X44130208Y-126391859D01*
X44175917Y-126621656D01*
X44279718Y-126872254D01*
X44430414Y-127097787D01*
X44622213Y-127289586D01*
X44847746Y-127440282D01*
X45098344Y-127544083D01*
X45364377Y-127597000D01*
X45635623Y-127597000D01*
X45901656Y-127544083D01*
X46152254Y-127440282D01*
X46377787Y-127289586D01*
X46569586Y-127097787D01*
X46720282Y-126872254D01*
X46770000Y-126752224D01*
X46819718Y-126872254D01*
X46970414Y-127097787D01*
X47162213Y-127289586D01*
X47387746Y-127440282D01*
X47638344Y-127544083D01*
X47904377Y-127597000D01*
X48175623Y-127597000D01*
X48441656Y-127544083D01*
X48692254Y-127440282D01*
X48917787Y-127289586D01*
X49109586Y-127097787D01*
X49260282Y-126872254D01*
X49364083Y-126621656D01*
X49417000Y-126355623D01*
X49417000Y-126084377D01*
X49364083Y-125818344D01*
X49260282Y-125567746D01*
X49109586Y-125342213D01*
X48917787Y-125150414D01*
X48692254Y-124999718D01*
X48572224Y-124950000D01*
X48692254Y-124900282D01*
X48917787Y-124749586D01*
X49109586Y-124557787D01*
X49260282Y-124332254D01*
X49364083Y-124081656D01*
X49417000Y-123815623D01*
X49417000Y-123544377D01*
X49364083Y-123278344D01*
X49260282Y-123027746D01*
X49109586Y-122802213D01*
X48917787Y-122610414D01*
X48692254Y-122459718D01*
X48572224Y-122410000D01*
X48692254Y-122360282D01*
X48917787Y-122209586D01*
X49109586Y-122017787D01*
X49260282Y-121792254D01*
X49364083Y-121541656D01*
X49417000Y-121275623D01*
X49417000Y-121004377D01*
X49364083Y-120738344D01*
X49260282Y-120487746D01*
X49109586Y-120262213D01*
X48917787Y-120070414D01*
X48692254Y-119919718D01*
X48572224Y-119870000D01*
X48692254Y-119820282D01*
X48917787Y-119669586D01*
X49109586Y-119477787D01*
X49260282Y-119252254D01*
X49364083Y-119001656D01*
X49417000Y-118735623D01*
X49417000Y-118464377D01*
X49394291Y-118350209D01*
X49948001Y-117796499D01*
X49948001Y-131523000D01*
X20877000Y-131523000D01*
X20877000Y-115541500D01*
X21145709Y-115810210D01*
%TA.AperFunction,Conductor*%
D18*
G36*
X21145709Y-115810210D02*
G01*
X21123000Y-115924377D01*
X21123000Y-116195623D01*
X21175917Y-116461656D01*
X21279718Y-116712254D01*
X21430414Y-116937787D01*
X21622213Y-117129586D01*
X21847746Y-117280282D01*
X21967776Y-117330000D01*
X21847746Y-117379718D01*
X21622213Y-117530414D01*
X21430414Y-117722213D01*
X21279718Y-117947746D01*
X21175917Y-118198344D01*
X21123000Y-118464377D01*
X21123000Y-118735623D01*
X21175917Y-119001656D01*
X21279718Y-119252254D01*
X21430414Y-119477787D01*
X21622213Y-119669586D01*
X21847746Y-119820282D01*
X21967776Y-119870000D01*
X21847746Y-119919718D01*
X21622213Y-120070414D01*
X21430414Y-120262213D01*
X21279718Y-120487746D01*
X21175917Y-120738344D01*
X21123000Y-121004377D01*
X21123000Y-121275623D01*
X21175917Y-121541656D01*
X21279718Y-121792254D01*
X21430414Y-122017787D01*
X21622213Y-122209586D01*
X21847746Y-122360282D01*
X21967776Y-122410000D01*
X21847746Y-122459718D01*
X21622213Y-122610414D01*
X21430414Y-122802213D01*
X21279718Y-123027746D01*
X21175917Y-123278344D01*
X21123000Y-123544377D01*
X21123000Y-123815623D01*
X21175917Y-124081656D01*
X21279718Y-124332254D01*
X21430414Y-124557787D01*
X21622213Y-124749586D01*
X21847746Y-124900282D01*
X21967776Y-124950000D01*
X21847746Y-124999718D01*
X21622213Y-125150414D01*
X21430414Y-125342213D01*
X21279718Y-125567746D01*
X21175917Y-125818344D01*
X21123000Y-126084377D01*
X21123000Y-126355623D01*
X21175917Y-126621656D01*
X21279718Y-126872254D01*
X21430414Y-127097787D01*
X21622213Y-127289586D01*
X21847746Y-127440282D01*
X22098344Y-127544083D01*
X22364377Y-127597000D01*
X22635623Y-127597000D01*
X22901656Y-127544083D01*
X22901911Y-127543977D01*
X23271320Y-127913387D01*
X23291736Y-127938264D01*
X23391016Y-128019741D01*
X23504283Y-128080283D01*
X23627185Y-128117565D01*
X23754999Y-128130154D01*
X23787021Y-128127000D01*
X32654934Y-128127000D01*
X34666320Y-130138387D01*
X34686736Y-130163264D01*
X34786016Y-130244741D01*
X34899283Y-130305283D01*
X35022185Y-130342565D01*
X35149999Y-130355154D01*
X35182021Y-130352000D01*
X38241024Y-130352000D01*
X38309072Y-130420048D01*
X38460901Y-130521496D01*
X38629604Y-130591376D01*
X38808699Y-130627000D01*
X38991301Y-130627000D01*
X39170396Y-130591376D01*
X39339099Y-130521496D01*
X39490928Y-130420048D01*
X39620048Y-130290928D01*
X39721496Y-130139099D01*
X39791376Y-129970396D01*
X39827000Y-129791301D01*
X39827000Y-129608699D01*
X39791376Y-129429604D01*
X39721496Y-129260901D01*
X39620048Y-129109072D01*
X39490928Y-128979952D01*
X39339099Y-128878504D01*
X39170396Y-128808624D01*
X38991301Y-128773000D01*
X38808699Y-128773000D01*
X38629604Y-128808624D01*
X38460901Y-128878504D01*
X38309072Y-128979952D01*
X38241024Y-129048000D01*
X35420067Y-129048000D01*
X33408685Y-127036619D01*
X33388264Y-127011736D01*
X33288984Y-126930259D01*
X33175717Y-126869717D01*
X33052814Y-126832435D01*
X32957022Y-126823000D01*
X32925000Y-126819846D01*
X32892978Y-126823000D01*
X26280684Y-126823000D01*
X26364083Y-126621656D01*
X26417000Y-126355623D01*
X26417000Y-126084377D01*
X26364083Y-125818344D01*
X26274470Y-125602000D01*
X30617978Y-125602000D01*
X30650000Y-125605154D01*
X30682022Y-125602000D01*
X30777814Y-125592565D01*
X30840837Y-125573447D01*
X30858699Y-125577000D01*
X31041301Y-125577000D01*
X31220396Y-125541376D01*
X31389099Y-125471496D01*
X31449706Y-125431000D01*
X37733346Y-125431000D01*
X37698000Y-125608699D01*
X37698000Y-125791301D01*
X37733624Y-125970396D01*
X37803504Y-126139099D01*
X37904952Y-126290928D01*
X38034072Y-126420048D01*
X38185901Y-126521496D01*
X38351790Y-126590210D01*
X38410550Y-126621618D01*
X38533453Y-126658900D01*
X38661267Y-126671489D01*
X38703312Y-126667348D01*
X38774282Y-126705282D01*
X38897184Y-126742564D01*
X39024998Y-126755153D01*
X39057020Y-126751999D01*
X43467979Y-126751999D01*
X43500001Y-126755153D01*
X43532023Y-126751999D01*
X43627815Y-126742564D01*
X43750718Y-126705282D01*
X43863985Y-126644740D01*
X43963265Y-126563263D01*
X43983686Y-126538380D01*
X44130208Y-126391859D01*
X44175917Y-126621656D01*
X44279718Y-126872254D01*
X44430414Y-127097787D01*
X44622213Y-127289586D01*
X44847746Y-127440282D01*
X45098344Y-127544083D01*
X45364377Y-127597000D01*
X45635623Y-127597000D01*
X45901656Y-127544083D01*
X46152254Y-127440282D01*
X46377787Y-127289586D01*
X46569586Y-127097787D01*
X46720282Y-126872254D01*
X46770000Y-126752224D01*
X46819718Y-126872254D01*
X46970414Y-127097787D01*
X47162213Y-127289586D01*
X47387746Y-127440282D01*
X47638344Y-127544083D01*
X47904377Y-127597000D01*
X48175623Y-127597000D01*
X48441656Y-127544083D01*
X48692254Y-127440282D01*
X48917787Y-127289586D01*
X49109586Y-127097787D01*
X49260282Y-126872254D01*
X49364083Y-126621656D01*
X49417000Y-126355623D01*
X49417000Y-126084377D01*
X49364083Y-125818344D01*
X49260282Y-125567746D01*
X49109586Y-125342213D01*
X48917787Y-125150414D01*
X48692254Y-124999718D01*
X48572224Y-124950000D01*
X48692254Y-124900282D01*
X48917787Y-124749586D01*
X49109586Y-124557787D01*
X49260282Y-124332254D01*
X49364083Y-124081656D01*
X49417000Y-123815623D01*
X49417000Y-123544377D01*
X49364083Y-123278344D01*
X49260282Y-123027746D01*
X49109586Y-122802213D01*
X48917787Y-122610414D01*
X48692254Y-122459718D01*
X48572224Y-122410000D01*
X48692254Y-122360282D01*
X48917787Y-122209586D01*
X49109586Y-122017787D01*
X49260282Y-121792254D01*
X49364083Y-121541656D01*
X49417000Y-121275623D01*
X49417000Y-121004377D01*
X49364083Y-120738344D01*
X49260282Y-120487746D01*
X49109586Y-120262213D01*
X48917787Y-120070414D01*
X48692254Y-119919718D01*
X48572224Y-119870000D01*
X48692254Y-119820282D01*
X48917787Y-119669586D01*
X49109586Y-119477787D01*
X49260282Y-119252254D01*
X49364083Y-119001656D01*
X49417000Y-118735623D01*
X49417000Y-118464377D01*
X49394291Y-118350209D01*
X49948001Y-117796499D01*
X49948001Y-131523000D01*
X20877000Y-131523000D01*
X20877000Y-115541500D01*
X21145709Y-115810210D01*
G37*
%TD.AperFunction*%
D17*
X49948000Y-37693500D02*
X46655597Y-34401097D01*
X46641376Y-34329604D01*
X46571496Y-34160901D01*
X46470048Y-34009072D01*
X46340928Y-33879952D01*
X46189099Y-33778504D01*
X46020396Y-33708624D01*
X45841301Y-33673000D01*
X45658699Y-33673000D01*
X45479604Y-33708624D01*
X45310901Y-33778504D01*
X45159072Y-33879952D01*
X45029952Y-34009072D01*
X44928504Y-34160901D01*
X44858624Y-34329604D01*
X44823000Y-34508699D01*
X44823000Y-34691301D01*
X44858624Y-34870396D01*
X44928504Y-35039099D01*
X45029952Y-35190928D01*
X45159072Y-35320048D01*
X45310901Y-35421496D01*
X45479604Y-35491376D01*
X45551097Y-35505597D01*
X47460500Y-37415000D01*
X41400000Y-37415000D01*
X41276118Y-37427201D01*
X41156996Y-37463336D01*
X41047213Y-37522017D01*
X40950987Y-37600987D01*
X40872017Y-37697213D01*
X40813336Y-37806996D01*
X40777201Y-37926118D01*
X40765000Y-38050000D01*
X40765000Y-43450894D01*
X37439486Y-46776408D01*
X35148991Y-49066904D01*
X35148986Y-49066908D01*
X35096894Y-49119000D01*
X31436176Y-49119000D01*
X31293935Y-49060081D01*
X31114840Y-49024457D01*
X30932238Y-49024457D01*
X30753143Y-49060081D01*
X30584440Y-49129961D01*
X30432611Y-49231409D01*
X30303491Y-49360529D01*
X30202043Y-49512358D01*
X30138303Y-49666237D01*
X29727000Y-49254934D01*
X29727000Y-47583976D01*
X29795048Y-47515928D01*
X29896496Y-47364099D01*
X29966376Y-47195396D01*
X29982491Y-47114377D01*
X30433000Y-47114377D01*
X30433000Y-47385623D01*
X30485917Y-47651656D01*
X30589718Y-47902254D01*
X30740414Y-48127787D01*
X30932213Y-48319586D01*
X31157746Y-48470282D01*
X31408344Y-48574083D01*
X31674377Y-48627000D01*
X31945623Y-48627000D01*
X32211656Y-48574083D01*
X32462254Y-48470282D01*
X32687787Y-48319586D01*
X32879586Y-48127787D01*
X32970451Y-47991798D01*
X32970451Y-48100000D01*
X32980626Y-48203310D01*
X33010761Y-48302650D01*
X33059696Y-48394202D01*
X33125552Y-48474448D01*
X33205798Y-48540304D01*
X33297350Y-48589239D01*
X33396690Y-48619374D01*
X33500000Y-48629549D01*
X35200000Y-48629549D01*
X35303310Y-48619374D01*
X35402650Y-48589239D01*
X35494202Y-48540304D01*
X35574448Y-48474448D01*
X35640304Y-48394202D01*
X35689239Y-48302650D01*
X35719374Y-48203310D01*
X35729549Y-48100000D01*
X35729549Y-46400000D01*
X35719374Y-46296690D01*
X35689239Y-46197350D01*
X35640304Y-46105798D01*
X35574448Y-46025552D01*
X35494202Y-45959696D01*
X35402650Y-45910761D01*
X35303310Y-45880626D01*
X35200000Y-45870451D01*
X33500000Y-45870451D01*
X33396690Y-45880626D01*
X33297350Y-45910761D01*
X33205798Y-45959696D01*
X33125552Y-46025552D01*
X33059696Y-46105798D01*
X33010761Y-46197350D01*
X32980626Y-46296690D01*
X32970451Y-46400000D01*
X32970451Y-46508202D01*
X32879586Y-46372213D01*
X32687787Y-46180414D01*
X32462254Y-46029718D01*
X32211656Y-45925917D01*
X31945623Y-45873000D01*
X31674377Y-45873000D01*
X31408344Y-45925917D01*
X31157746Y-46029718D01*
X30932213Y-46180414D01*
X30740414Y-46372213D01*
X30589718Y-46597746D01*
X30485917Y-46848344D01*
X30433000Y-47114377D01*
X29982491Y-47114377D01*
X30002000Y-47016301D01*
X30002000Y-46833699D01*
X29966376Y-46654604D01*
X29896496Y-46485901D01*
X29795048Y-46334072D01*
X29665928Y-46204952D01*
X29514099Y-46103504D01*
X29345396Y-46033624D01*
X29324386Y-46029445D01*
X29327000Y-46016301D01*
X29327000Y-45833699D01*
X29291376Y-45654604D01*
X29221496Y-45485901D01*
X29120048Y-45334072D01*
X28990928Y-45204952D01*
X28839099Y-45103504D01*
X28670396Y-45033624D01*
X28491301Y-44998000D01*
X28308699Y-44998000D01*
X28129604Y-45033624D01*
X27960901Y-45103504D01*
X27809072Y-45204952D01*
X27679952Y-45334072D01*
X27578504Y-45485901D01*
X27508624Y-45654604D01*
X27473000Y-45833699D01*
X27473000Y-46016301D01*
X27508624Y-46195396D01*
X27578504Y-46364099D01*
X27679952Y-46515928D01*
X27748000Y-46583976D01*
X27748001Y-50567968D01*
X27744846Y-50600000D01*
X27757435Y-50727814D01*
X27794717Y-50850716D01*
X27809545Y-50878457D01*
X27855260Y-50963984D01*
X27936737Y-51063264D01*
X27961614Y-51083680D01*
X29998000Y-53120067D01*
X29998001Y-54791023D01*
X29929952Y-54859072D01*
X29828504Y-55010901D01*
X29758624Y-55179604D01*
X29723000Y-55358699D01*
X29723000Y-55541301D01*
X29758624Y-55720396D01*
X29828504Y-55889099D01*
X29929952Y-56040928D01*
X30059072Y-56170048D01*
X30210901Y-56271496D01*
X30379604Y-56341376D01*
X30558699Y-56377000D01*
X30741301Y-56377000D01*
X30920396Y-56341376D01*
X31089099Y-56271496D01*
X31240928Y-56170048D01*
X31370048Y-56040928D01*
X31471496Y-55889099D01*
X31541376Y-55720396D01*
X31577000Y-55541301D01*
X31577000Y-55358699D01*
X31541376Y-55179604D01*
X31471496Y-55010901D01*
X31370048Y-54859072D01*
X31302000Y-54791024D01*
X31302000Y-52882022D01*
X31305154Y-52850000D01*
X31292565Y-52722185D01*
X31267504Y-52639570D01*
X33277364Y-54649431D01*
X33277365Y-56057107D01*
X33209316Y-56125156D01*
X33107868Y-56276985D01*
X33037988Y-56445688D01*
X33002364Y-56624783D01*
X33002364Y-56807385D01*
X33037988Y-56986480D01*
X33107868Y-57155183D01*
X33209316Y-57307012D01*
X33338436Y-57436132D01*
X33490265Y-57537580D01*
X33658968Y-57607460D01*
X33838063Y-57643084D01*
X34020665Y-57643084D01*
X34199760Y-57607460D01*
X34368463Y-57537580D01*
X34520292Y-57436132D01*
X34649412Y-57307012D01*
X34750860Y-57155183D01*
X34820740Y-56986480D01*
X34824317Y-56968499D01*
X34842629Y-56972142D01*
X35025231Y-56972142D01*
X35204326Y-56936518D01*
X35373029Y-56866638D01*
X35524858Y-56765190D01*
X35653978Y-56636070D01*
X35755426Y-56484241D01*
X35757402Y-56479470D01*
X36023000Y-56745068D01*
X36023000Y-56841303D01*
X36058624Y-57020398D01*
X36128504Y-57189101D01*
X36229952Y-57340930D01*
X36359072Y-57470050D01*
X36510901Y-57571498D01*
X36679604Y-57641378D01*
X36858699Y-57677002D01*
X37041301Y-57677002D01*
X37220396Y-57641378D01*
X37389099Y-57571498D01*
X37540928Y-57470050D01*
X37670048Y-57340930D01*
X37771496Y-57189101D01*
X37841376Y-57020398D01*
X37877000Y-56841303D01*
X37877000Y-56658701D01*
X37841376Y-56479606D01*
X37771496Y-56310903D01*
X37670048Y-56159074D01*
X37540928Y-56029954D01*
X37389099Y-55928506D01*
X37220396Y-55858626D01*
X37041301Y-55823002D01*
X36945066Y-55823002D01*
X36837946Y-55715882D01*
X36837946Y-51412995D01*
X36905994Y-51344947D01*
X37007442Y-51193118D01*
X37077322Y-51024415D01*
X37112946Y-50845320D01*
X37112946Y-50662718D01*
X37077322Y-50483623D01*
X37007442Y-50314920D01*
X36905994Y-50163091D01*
X36776874Y-50033971D01*
X36760845Y-50023261D01*
X40921285Y-45862821D01*
X40950987Y-45899013D01*
X41047213Y-45977983D01*
X41156996Y-46036664D01*
X41276118Y-46072799D01*
X41400000Y-46085000D01*
X46880499Y-46085000D01*
X48219001Y-47423502D01*
X48219000Y-50246499D01*
X48044873Y-50420626D01*
X48015078Y-50445078D01*
X47990626Y-50474874D01*
X46583239Y-51882261D01*
X46534448Y-51833470D01*
X46454202Y-51767614D01*
X46362650Y-51718679D01*
X46263310Y-51688544D01*
X46160000Y-51678369D01*
X46056690Y-51688544D01*
X45957350Y-51718679D01*
X45865798Y-51767614D01*
X45785552Y-51833470D01*
X45709042Y-51909980D01*
X45740949Y-51749572D01*
X45740949Y-51478326D01*
X45688032Y-51212293D01*
X45584231Y-50961695D01*
X45433535Y-50736162D01*
X45241736Y-50544363D01*
X45016203Y-50393667D01*
X44765605Y-50289866D01*
X44499572Y-50236949D01*
X44228326Y-50236949D01*
X43962293Y-50289866D01*
X43842263Y-50339584D01*
X43891981Y-50219554D01*
X43944898Y-49953521D01*
X43944898Y-49682275D01*
X43891981Y-49416242D01*
X43788180Y-49165644D01*
X43637484Y-48940111D01*
X43445685Y-48748312D01*
X43220152Y-48597616D01*
X42969554Y-48493815D01*
X42703521Y-48440898D01*
X42432275Y-48440898D01*
X42166242Y-48493815D01*
X41915644Y-48597616D01*
X41690111Y-48748312D01*
X41498312Y-48940111D01*
X41347616Y-49165644D01*
X41243815Y-49416242D01*
X41190898Y-49682275D01*
X41190898Y-49953521D01*
X41243815Y-50219554D01*
X41347616Y-50470152D01*
X41498312Y-50695685D01*
X41690111Y-50887484D01*
X41915644Y-51038180D01*
X42166242Y-51141981D01*
X42432275Y-51194898D01*
X42703521Y-51194898D01*
X42969554Y-51141981D01*
X43089584Y-51092263D01*
X43039866Y-51212293D01*
X42986949Y-51478326D01*
X42986949Y-51578410D01*
X42932022Y-51573000D01*
X42900000Y-51569846D01*
X42867978Y-51573000D01*
X40682910Y-51573000D01*
X40650888Y-51569846D01*
X40523074Y-51582435D01*
X40431196Y-51610306D01*
X40400172Y-51619717D01*
X40286905Y-51680259D01*
X40187625Y-51761736D01*
X40167209Y-51786613D01*
X39496831Y-52456992D01*
X39400596Y-52456992D01*
X39221501Y-52492616D01*
X39052798Y-52562496D01*
X38900969Y-52663944D01*
X38771849Y-52793064D01*
X38670401Y-52944893D01*
X38600521Y-53113596D01*
X38564897Y-53292691D01*
X38564897Y-53475293D01*
X38600521Y-53654388D01*
X38669092Y-53819932D01*
X38629952Y-53859072D01*
X38528504Y-54010901D01*
X38458624Y-54179604D01*
X38423000Y-54358699D01*
X38423000Y-54541301D01*
X38458624Y-54720396D01*
X38528504Y-54889099D01*
X38629952Y-55040928D01*
X38759072Y-55170048D01*
X38910901Y-55271496D01*
X39079604Y-55341376D01*
X39258699Y-55377000D01*
X39441301Y-55377000D01*
X39620396Y-55341376D01*
X39789099Y-55271496D01*
X39940928Y-55170048D01*
X40070048Y-55040928D01*
X40171496Y-54889099D01*
X40241376Y-54720396D01*
X40277000Y-54541301D01*
X40277000Y-54445066D01*
X41468057Y-53254010D01*
X41908221Y-53254010D01*
X41853504Y-53335901D01*
X41783624Y-53504604D01*
X41748000Y-53683699D01*
X41748000Y-53866301D01*
X41783624Y-54045396D01*
X41853504Y-54214099D01*
X41902605Y-54287585D01*
X41803504Y-54435901D01*
X41733624Y-54604604D01*
X41698000Y-54783699D01*
X41698000Y-54966301D01*
X41733624Y-55145396D01*
X41803504Y-55314099D01*
X41894309Y-55450000D01*
X41803504Y-55585901D01*
X41733624Y-55754604D01*
X41698000Y-55933699D01*
X41698000Y-56116301D01*
X41733624Y-56295396D01*
X41803504Y-56464099D01*
X41885901Y-56587415D01*
X41853504Y-56635901D01*
X41783624Y-56804604D01*
X41748000Y-56983699D01*
X41748000Y-57166301D01*
X41783624Y-57345396D01*
X41853504Y-57514099D01*
X41954952Y-57665928D01*
X42084072Y-57795048D01*
X42235901Y-57896496D01*
X42404604Y-57966376D01*
X42583699Y-58002000D01*
X42766301Y-58002000D01*
X42945396Y-57966376D01*
X43114099Y-57896496D01*
X43265928Y-57795048D01*
X43288114Y-57772862D01*
X43360901Y-57821496D01*
X43529604Y-57891376D01*
X43708699Y-57927000D01*
X43891301Y-57927000D01*
X44070396Y-57891376D01*
X44239099Y-57821496D01*
X44303303Y-57778597D01*
X45060940Y-58536235D01*
X45060941Y-72201132D01*
X40957600Y-76304474D01*
X40932717Y-76324895D01*
X40851240Y-76424176D01*
X40800769Y-76518601D01*
X40790698Y-76537443D01*
X40753416Y-76660345D01*
X40740827Y-76788159D01*
X40743981Y-76820181D01*
X40743982Y-86823949D01*
X40740827Y-86855981D01*
X40753416Y-86983795D01*
X40790698Y-87106697D01*
X40818157Y-87158069D01*
X40851241Y-87219965D01*
X40932718Y-87319245D01*
X40957595Y-87339661D01*
X44126204Y-90508271D01*
X44123000Y-90524377D01*
X44123000Y-90795623D01*
X44175917Y-91061656D01*
X44273814Y-91298000D01*
X41800070Y-91298000D01*
X37702000Y-87199931D01*
X37702000Y-75417716D01*
X38338387Y-74781330D01*
X38363264Y-74760914D01*
X38444741Y-74661634D01*
X38505283Y-74548367D01*
X38527171Y-74476211D01*
X38542565Y-74425465D01*
X38555154Y-74297650D01*
X38552000Y-74265628D01*
X38552000Y-63395066D01*
X40470067Y-61477000D01*
X40566301Y-61477000D01*
X40745396Y-61441376D01*
X40914099Y-61371496D01*
X41065928Y-61270048D01*
X41195048Y-61140928D01*
X41296496Y-60989099D01*
X41366376Y-60820396D01*
X41402000Y-60641301D01*
X41402000Y-60458699D01*
X41366376Y-60279604D01*
X41296496Y-60110901D01*
X41195048Y-59959072D01*
X41065928Y-59829952D01*
X40914099Y-59728504D01*
X40745396Y-59658624D01*
X40566301Y-59623000D01*
X40509953Y-59623000D01*
X40491375Y-59529604D01*
X40421495Y-59360901D01*
X40320047Y-59209072D01*
X40190927Y-59079952D01*
X40039098Y-58978504D01*
X39870395Y-58908624D01*
X39691300Y-58873000D01*
X39508698Y-58873000D01*
X39424223Y-58889803D01*
X39387777Y-58835258D01*
X39258657Y-58706138D01*
X39106828Y-58604690D01*
X38938125Y-58534810D01*
X38759030Y-58499186D01*
X38576428Y-58499186D01*
X38437747Y-58526771D01*
X38340928Y-58429952D01*
X38189099Y-58328504D01*
X38020396Y-58258624D01*
X37841301Y-58223000D01*
X37658699Y-58223000D01*
X37479604Y-58258624D01*
X37310901Y-58328504D01*
X37159072Y-58429952D01*
X37029952Y-58559072D01*
X36954870Y-58671441D01*
X36847372Y-58671441D01*
X36668277Y-58707065D01*
X36499574Y-58776945D01*
X36347745Y-58878393D01*
X36218625Y-59007513D01*
X36117177Y-59159342D01*
X36047297Y-59328045D01*
X36011673Y-59507140D01*
X36011673Y-59603375D01*
X35953572Y-59661476D01*
X35928695Y-59681892D01*
X35847218Y-59781172D01*
X35821331Y-59829604D01*
X35786675Y-59894440D01*
X35749393Y-60017342D01*
X35736804Y-60145156D01*
X35739959Y-60177188D01*
X35739959Y-66095744D01*
X35650344Y-66058624D01*
X35471249Y-66023000D01*
X35288647Y-66023000D01*
X35127184Y-66055117D01*
X30677000Y-61604934D01*
X30677000Y-61508699D01*
X30641376Y-61329604D01*
X30571496Y-61160901D01*
X30470048Y-61009072D01*
X30433081Y-60972105D01*
X30479604Y-60991376D01*
X30658699Y-61027000D01*
X30754934Y-61027000D01*
X32116320Y-62388387D01*
X32136736Y-62413264D01*
X32236016Y-62494741D01*
X32349283Y-62555283D01*
X32472185Y-62592565D01*
X32599999Y-62605154D01*
X32632021Y-62602000D01*
X34066024Y-62602000D01*
X34134072Y-62670048D01*
X34285901Y-62771496D01*
X34454604Y-62841376D01*
X34633699Y-62877000D01*
X34816301Y-62877000D01*
X34995396Y-62841376D01*
X35164099Y-62771496D01*
X35315928Y-62670048D01*
X35445048Y-62540928D01*
X35546496Y-62389099D01*
X35616376Y-62220396D01*
X35652000Y-62041301D01*
X35652000Y-61858699D01*
X35616376Y-61679604D01*
X35546496Y-61510901D01*
X35445048Y-61359072D01*
X35315928Y-61229952D01*
X35164099Y-61128504D01*
X34995396Y-61058624D01*
X34816301Y-61023000D01*
X34633699Y-61023000D01*
X34454604Y-61058624D01*
X34285901Y-61128504D01*
X34134072Y-61229952D01*
X34066024Y-61298000D01*
X33511840Y-61298000D01*
X33557866Y-61186886D01*
X33593490Y-61007791D01*
X33593490Y-60825189D01*
X33557866Y-60646094D01*
X33487986Y-60477391D01*
X33386538Y-60325562D01*
X33257418Y-60196442D01*
X33105589Y-60094994D01*
X32936886Y-60025114D01*
X32757791Y-59989490D01*
X32621422Y-59989490D01*
X32621422Y-59953121D01*
X32585798Y-59774026D01*
X32515918Y-59605323D01*
X32414470Y-59453494D01*
X32285350Y-59324374D01*
X32133521Y-59222926D01*
X31964818Y-59153046D01*
X31785723Y-59117422D01*
X31689489Y-59117422D01*
X25306382Y-52734316D01*
X25366996Y-52643599D01*
X25436876Y-52474896D01*
X25472500Y-52295801D01*
X25472500Y-52113199D01*
X25436876Y-51934104D01*
X25366996Y-51765401D01*
X25265548Y-51613572D01*
X25136428Y-51484452D01*
X24984599Y-51383004D01*
X24815896Y-51313124D01*
X24636801Y-51277500D01*
X24454199Y-51277500D01*
X24275104Y-51313124D01*
X24106401Y-51383004D01*
X23954572Y-51484452D01*
X23825452Y-51613572D01*
X23724004Y-51765401D01*
X23654124Y-51934104D01*
X23618500Y-52113199D01*
X23618500Y-52295801D01*
X23654124Y-52474896D01*
X23724004Y-52643599D01*
X23803044Y-52761892D01*
X23676737Y-52787016D01*
X23508034Y-52856896D01*
X23356205Y-52958344D01*
X23227085Y-53087464D01*
X23125637Y-53239293D01*
X23055757Y-53407996D01*
X23020133Y-53587091D01*
X23020133Y-53769693D01*
X23055757Y-53948788D01*
X23125637Y-54117491D01*
X23227085Y-54269320D01*
X23356205Y-54398440D01*
X23508034Y-54499888D01*
X23676737Y-54569768D01*
X23855832Y-54605392D01*
X24038434Y-54605392D01*
X24217529Y-54569768D01*
X24386232Y-54499888D01*
X24441136Y-54463203D01*
X25111609Y-55133676D01*
X25111614Y-55133680D01*
X27011609Y-57033676D01*
X27011615Y-57033681D01*
X29850148Y-59872215D01*
X29823000Y-60008699D01*
X29823000Y-60191301D01*
X29858624Y-60370396D01*
X29928504Y-60539099D01*
X30029952Y-60690928D01*
X30066919Y-60727895D01*
X30020396Y-60708624D01*
X29841301Y-60673000D01*
X29745067Y-60673000D01*
X24899852Y-55827786D01*
X24927000Y-55691301D01*
X24927000Y-55508699D01*
X24891376Y-55329604D01*
X24821496Y-55160901D01*
X24720048Y-55009072D01*
X24590928Y-54879952D01*
X24439099Y-54778504D01*
X24270396Y-54708624D01*
X24091301Y-54673000D01*
X23908699Y-54673000D01*
X23729604Y-54708624D01*
X23560901Y-54778504D01*
X23409072Y-54879952D01*
X23279952Y-55009072D01*
X23178504Y-55160901D01*
X23108624Y-55329604D01*
X23073000Y-55508699D01*
X23073000Y-55691301D01*
X23108624Y-55870396D01*
X23178504Y-56039099D01*
X23279952Y-56190928D01*
X23409072Y-56320048D01*
X23560901Y-56421496D01*
X23712031Y-56484097D01*
X27257100Y-60029167D01*
X27117073Y-60122729D01*
X26987953Y-60251849D01*
X26886505Y-60403678D01*
X26816625Y-60572381D01*
X26781001Y-60751476D01*
X26781001Y-60847710D01*
X26192856Y-61435856D01*
X26167973Y-61456277D01*
X26086496Y-61555558D01*
X26065901Y-61594089D01*
X26040309Y-61611189D01*
X25911189Y-61740309D01*
X25809741Y-61892138D01*
X25739861Y-62060841D01*
X25704237Y-62239936D01*
X25704237Y-62422538D01*
X25739861Y-62601633D01*
X25809741Y-62770336D01*
X25911189Y-62922165D01*
X26040309Y-63051285D01*
X26192138Y-63152733D01*
X26360841Y-63222613D01*
X26539936Y-63258237D01*
X26722538Y-63258237D01*
X26901633Y-63222613D01*
X27070336Y-63152733D01*
X27222165Y-63051285D01*
X27351285Y-62922165D01*
X27452733Y-62770336D01*
X27522613Y-62601633D01*
X27558237Y-62422538D01*
X27558237Y-62239936D01*
X27522613Y-62060841D01*
X27490216Y-61982628D01*
X27703068Y-61769777D01*
X27799302Y-61769777D01*
X27978397Y-61734153D01*
X28147100Y-61664273D01*
X28298929Y-61562825D01*
X28428049Y-61433705D01*
X28521611Y-61293678D01*
X28823000Y-61595067D01*
X28823000Y-61691301D01*
X28858624Y-61870396D01*
X28928504Y-62039099D01*
X29029952Y-62190928D01*
X29159072Y-62320048D01*
X29310901Y-62421496D01*
X29479604Y-62491376D01*
X29658699Y-62527000D01*
X29754934Y-62527000D01*
X34517029Y-67289096D01*
X34558452Y-67389099D01*
X34659900Y-67540928D01*
X34789020Y-67670048D01*
X34940849Y-67771496D01*
X35109552Y-67841376D01*
X35288647Y-67877000D01*
X35471249Y-67877000D01*
X35650344Y-67841376D01*
X35739958Y-67804256D01*
X35739958Y-73402925D01*
X35084606Y-74058278D01*
X35059729Y-74078694D01*
X34978252Y-74177974D01*
X34960185Y-74211775D01*
X34917709Y-74291242D01*
X34880427Y-74414144D01*
X34867838Y-74541958D01*
X34870993Y-74573990D01*
X34870992Y-88043659D01*
X34867838Y-88075681D01*
X34880427Y-88203495D01*
X34904696Y-88283498D01*
X34917709Y-88326397D01*
X34978251Y-88439664D01*
X35059728Y-88538945D01*
X35084611Y-88559366D01*
X43963631Y-97438387D01*
X43984047Y-97463264D01*
X44083327Y-97544741D01*
X44196594Y-97605283D01*
X44258045Y-97623924D01*
X44278705Y-97630191D01*
X44175917Y-97878344D01*
X44123000Y-98144377D01*
X44123000Y-98415623D01*
X44175917Y-98681656D01*
X44279718Y-98932254D01*
X44430414Y-99157787D01*
X44622213Y-99349586D01*
X44847746Y-99500282D01*
X44967776Y-99550000D01*
X44847746Y-99599718D01*
X44622213Y-99750414D01*
X44430414Y-99942213D01*
X44279718Y-100167746D01*
X44175917Y-100418344D01*
X44123000Y-100684377D01*
X44123000Y-100730414D01*
X44070396Y-100708624D01*
X43891301Y-100673000D01*
X43708699Y-100673000D01*
X43529604Y-100708624D01*
X43360901Y-100778504D01*
X43209072Y-100879952D01*
X43079952Y-101009072D01*
X42978504Y-101160901D01*
X42908624Y-101329604D01*
X42873000Y-101508699D01*
X42873000Y-101604933D01*
X42082595Y-102395339D01*
X42057718Y-102415755D01*
X41976241Y-102515035D01*
X41969846Y-102527000D01*
X41915698Y-102628303D01*
X41878416Y-102751205D01*
X41865827Y-102879019D01*
X41868982Y-102911051D01*
X41868981Y-110775776D01*
X39772945Y-112871813D01*
X39620396Y-112808624D01*
X39441301Y-112773000D01*
X39258699Y-112773000D01*
X39079604Y-112808624D01*
X38910901Y-112878504D01*
X38759072Y-112979952D01*
X38629952Y-113109072D01*
X38528504Y-113260901D01*
X38458624Y-113429604D01*
X38423000Y-113608699D01*
X38423000Y-113791301D01*
X38458624Y-113970396D01*
X38528504Y-114139099D01*
X38594195Y-114237413D01*
X38578504Y-114260897D01*
X38508624Y-114429600D01*
X38473000Y-114608695D01*
X38473000Y-114791297D01*
X38508624Y-114970392D01*
X38578504Y-115139095D01*
X38594198Y-115162583D01*
X38528504Y-115260901D01*
X38458624Y-115429604D01*
X38423000Y-115608699D01*
X38423000Y-115791301D01*
X38458624Y-115970396D01*
X38528504Y-116139099D01*
X38629952Y-116290928D01*
X38759072Y-116420048D01*
X38910901Y-116521496D01*
X39079604Y-116591376D01*
X39258699Y-116627000D01*
X39441301Y-116627000D01*
X39620396Y-116591376D01*
X39789099Y-116521496D01*
X39940928Y-116420048D01*
X40070048Y-116290928D01*
X40171496Y-116139099D01*
X40241376Y-115970396D01*
X40269858Y-115827208D01*
X43738387Y-112358680D01*
X43763264Y-112338264D01*
X43844741Y-112238984D01*
X43905283Y-112125717D01*
X43942565Y-112002814D01*
X43952000Y-111907022D01*
X43955154Y-111875000D01*
X43952000Y-111842978D01*
X43952000Y-106194586D01*
X44004604Y-106216376D01*
X44165312Y-106248343D01*
X44175917Y-106301656D01*
X44279718Y-106552254D01*
X44430414Y-106777787D01*
X44622213Y-106969586D01*
X44847746Y-107120282D01*
X44967776Y-107170000D01*
X44847746Y-107219718D01*
X44622213Y-107370414D01*
X44430414Y-107562213D01*
X44279718Y-107787746D01*
X44175917Y-108038344D01*
X44123000Y-108304377D01*
X44123000Y-108575623D01*
X44175917Y-108841656D01*
X44279718Y-109092254D01*
X44430414Y-109317787D01*
X44622213Y-109509586D01*
X44847746Y-109660282D01*
X44967776Y-109710000D01*
X44847746Y-109759718D01*
X44622213Y-109910414D01*
X44430414Y-110102213D01*
X44279718Y-110327746D01*
X44175917Y-110578344D01*
X44123000Y-110844377D01*
X44123000Y-111115623D01*
X44175917Y-111381656D01*
X44279718Y-111632254D01*
X44430414Y-111857787D01*
X44622213Y-112049586D01*
X44847746Y-112200282D01*
X44967776Y-112250000D01*
X44847746Y-112299718D01*
X44622213Y-112450414D01*
X44430414Y-112642213D01*
X44279718Y-112867746D01*
X44175917Y-113118344D01*
X44123000Y-113384377D01*
X44123000Y-113655623D01*
X44175917Y-113921656D01*
X44279718Y-114172254D01*
X44430414Y-114397787D01*
X44622213Y-114589586D01*
X44847746Y-114740282D01*
X45098344Y-114844083D01*
X45364377Y-114897000D01*
X45635623Y-114897000D01*
X45901656Y-114844083D01*
X46152254Y-114740282D01*
X46377787Y-114589586D01*
X46569586Y-114397787D01*
X46720282Y-114172254D01*
X46770000Y-114052224D01*
X46819718Y-114172254D01*
X46970414Y-114397787D01*
X47162213Y-114589586D01*
X47387746Y-114740282D01*
X47507776Y-114790000D01*
X47387746Y-114839718D01*
X47162213Y-114990414D01*
X46970414Y-115182213D01*
X46819718Y-115407746D01*
X46715917Y-115658344D01*
X46663000Y-115924377D01*
X46663000Y-116195623D01*
X46715917Y-116461656D01*
X46819718Y-116712254D01*
X46970414Y-116937787D01*
X47162213Y-117129586D01*
X47387746Y-117280282D01*
X47507776Y-117330000D01*
X47387746Y-117379718D01*
X47162213Y-117530414D01*
X46970414Y-117722213D01*
X46819718Y-117947746D01*
X46770000Y-118067776D01*
X46720282Y-117947746D01*
X46569586Y-117722213D01*
X46377787Y-117530414D01*
X46152254Y-117379718D01*
X45901656Y-117275917D01*
X45635623Y-117223000D01*
X45364377Y-117223000D01*
X45098344Y-117275917D01*
X44847746Y-117379718D01*
X44622213Y-117530414D01*
X44430414Y-117722213D01*
X44279718Y-117947746D01*
X44279613Y-117948000D01*
X36898976Y-117948000D01*
X36880928Y-117929952D01*
X36729099Y-117828504D01*
X36560396Y-117758624D01*
X36381301Y-117723000D01*
X36198699Y-117723000D01*
X36019604Y-117758624D01*
X35850901Y-117828504D01*
X35699072Y-117929952D01*
X35578869Y-118050155D01*
X35578869Y-115038891D01*
X35582023Y-115006869D01*
X35569434Y-114879054D01*
X35553889Y-114827810D01*
X35532152Y-114756152D01*
X35471610Y-114642885D01*
X35390133Y-114543605D01*
X35365250Y-114523184D01*
X35287000Y-114444934D01*
X35287000Y-114348699D01*
X35251376Y-114169604D01*
X35181496Y-114000901D01*
X35080048Y-113849072D01*
X34950928Y-113719952D01*
X34799099Y-113618504D01*
X34630396Y-113548624D01*
X34451301Y-113513000D01*
X34268699Y-113513000D01*
X34089604Y-113548624D01*
X33920901Y-113618504D01*
X33769072Y-113719952D01*
X33737776Y-113751248D01*
X33613582Y-113699805D01*
X33434487Y-113664181D01*
X33251885Y-113664181D01*
X33072790Y-113699805D01*
X32904087Y-113769685D01*
X32752258Y-113871133D01*
X32623138Y-114000253D01*
X32521690Y-114152082D01*
X32451810Y-114320785D01*
X32416186Y-114499880D01*
X32416186Y-114682482D01*
X32451810Y-114861577D01*
X32521690Y-115030280D01*
X32623138Y-115182109D01*
X32691186Y-115250157D01*
X32691186Y-117666847D01*
X32571301Y-117643000D01*
X32388699Y-117643000D01*
X32209604Y-117678624D01*
X32040901Y-117748504D01*
X31889072Y-117849952D01*
X31759952Y-117979072D01*
X31658504Y-118130901D01*
X31588624Y-118299604D01*
X31584965Y-118317999D01*
X29340066Y-118317999D01*
X28377000Y-117354934D01*
X28377000Y-117258699D01*
X28341376Y-117079604D01*
X28271496Y-116910901D01*
X28170048Y-116759072D01*
X28040928Y-116629952D01*
X27889099Y-116528504D01*
X27720396Y-116458624D01*
X27541301Y-116423000D01*
X27358699Y-116423000D01*
X27179604Y-116458624D01*
X27010901Y-116528504D01*
X26859072Y-116629952D01*
X26729952Y-116759072D01*
X26628504Y-116910901D01*
X26558624Y-117079604D01*
X26523000Y-117258699D01*
X26523000Y-117441301D01*
X26558624Y-117620396D01*
X26628504Y-117789099D01*
X26729952Y-117940928D01*
X26859072Y-118070048D01*
X27010901Y-118171496D01*
X27179604Y-118241376D01*
X27358699Y-118277000D01*
X27454934Y-118277000D01*
X28586319Y-119408386D01*
X28606735Y-119433263D01*
X28706015Y-119514740D01*
X28819282Y-119575282D01*
X28824946Y-119577000D01*
X28942184Y-119612564D01*
X29069999Y-119625153D01*
X29102021Y-119621999D01*
X32047979Y-119621999D01*
X32080001Y-119625153D01*
X32112023Y-119621999D01*
X32207815Y-119612564D01*
X32330718Y-119575282D01*
X32443985Y-119514740D01*
X32465601Y-119497000D01*
X32571301Y-119497000D01*
X32691187Y-119473153D01*
X32691187Y-120911164D01*
X32688032Y-120943196D01*
X32700621Y-121071010D01*
X32737903Y-121193912D01*
X32737904Y-121193913D01*
X32798446Y-121307180D01*
X32879923Y-121406460D01*
X32904800Y-121426876D01*
X33072990Y-121595066D01*
X33072990Y-121691301D01*
X33108614Y-121870396D01*
X33178494Y-122039099D01*
X33279942Y-122190928D01*
X33409062Y-122320048D01*
X33560891Y-122421496D01*
X33729594Y-122491376D01*
X33908689Y-122527000D01*
X34091291Y-122527000D01*
X34270386Y-122491376D01*
X34439089Y-122421496D01*
X34451244Y-122413374D01*
X34487770Y-122437780D01*
X34656473Y-122507660D01*
X34835568Y-122543284D01*
X35018170Y-122543284D01*
X35197265Y-122507660D01*
X35365968Y-122437780D01*
X35517797Y-122336332D01*
X35646917Y-122207212D01*
X35748365Y-122055383D01*
X35818245Y-121886680D01*
X35853869Y-121707585D01*
X35853869Y-121524983D01*
X35818245Y-121345888D01*
X35748365Y-121177185D01*
X35646917Y-121025356D01*
X35578869Y-120957308D01*
X35578869Y-119249845D01*
X35699072Y-119370048D01*
X35850901Y-119471496D01*
X36019604Y-119541376D01*
X36198699Y-119577000D01*
X36381301Y-119577000D01*
X36560396Y-119541376D01*
X36729099Y-119471496D01*
X36880928Y-119370048D01*
X36998976Y-119252000D01*
X43387024Y-119252000D01*
X43329952Y-119309072D01*
X43228504Y-119460901D01*
X43158624Y-119629604D01*
X43123000Y-119808699D01*
X43123000Y-119991301D01*
X43158624Y-120170396D01*
X43228504Y-120339099D01*
X43269000Y-120399706D01*
X43269001Y-122986631D01*
X43269000Y-122986641D01*
X43269001Y-123800788D01*
X43229604Y-123808624D01*
X43060901Y-123878504D01*
X42909072Y-123979952D01*
X42779952Y-124109072D01*
X42678504Y-124260901D01*
X42608624Y-124429604D01*
X42573000Y-124608699D01*
X42573000Y-124791301D01*
X42608624Y-124970396D01*
X42678504Y-125139099D01*
X42779952Y-125290928D01*
X42909072Y-125420048D01*
X42950904Y-125447999D01*
X42034231Y-125447999D01*
X42066376Y-125370396D01*
X42102000Y-125191301D01*
X42102000Y-125008699D01*
X42066376Y-124829604D01*
X41996496Y-124660901D01*
X41895048Y-124509072D01*
X41765928Y-124379952D01*
X41614099Y-124278504D01*
X41445396Y-124208624D01*
X41373903Y-124194403D01*
X41304379Y-124124879D01*
X41279922Y-124095078D01*
X41160999Y-123997481D01*
X41025322Y-123924960D01*
X40878103Y-123880301D01*
X40763360Y-123869000D01*
X40763357Y-123869000D01*
X40725000Y-123865222D01*
X40686643Y-123869000D01*
X31449706Y-123869000D01*
X31389099Y-123828504D01*
X31220396Y-123758624D01*
X31041301Y-123723000D01*
X30858699Y-123723000D01*
X30679604Y-123758624D01*
X30510901Y-123828504D01*
X30359072Y-123929952D01*
X30229952Y-124059072D01*
X30128504Y-124210901D01*
X30092426Y-124298000D01*
X24040067Y-124298000D01*
X23823977Y-124081911D01*
X23824083Y-124081656D01*
X23877000Y-123815623D01*
X23877000Y-123544377D01*
X23824083Y-123278344D01*
X23720282Y-123027746D01*
X23569586Y-122802213D01*
X23377787Y-122610414D01*
X23152254Y-122459718D01*
X23032224Y-122410000D01*
X23152254Y-122360282D01*
X23377787Y-122209586D01*
X23569586Y-122017787D01*
X23720282Y-121792254D01*
X23824083Y-121541656D01*
X23877000Y-121275623D01*
X23877000Y-121004377D01*
X23824083Y-120738344D01*
X23720282Y-120487746D01*
X23569586Y-120262213D01*
X23377787Y-120070414D01*
X23152254Y-119919718D01*
X23032224Y-119870000D01*
X23152254Y-119820282D01*
X23377787Y-119669586D01*
X23569586Y-119477787D01*
X23720282Y-119252254D01*
X23824083Y-119001656D01*
X23877000Y-118735623D01*
X23877000Y-118464377D01*
X23824083Y-118198344D01*
X23720282Y-117947746D01*
X23569586Y-117722213D01*
X23377787Y-117530414D01*
X23152254Y-117379718D01*
X23032224Y-117330000D01*
X23152254Y-117280282D01*
X23377787Y-117129586D01*
X23569586Y-116937787D01*
X23720282Y-116712254D01*
X23824083Y-116461656D01*
X23877000Y-116195623D01*
X23877000Y-115924377D01*
X23824083Y-115658344D01*
X23720282Y-115407746D01*
X23569586Y-115182213D01*
X23377787Y-114990414D01*
X23152254Y-114839718D01*
X22901656Y-114735917D01*
X22635623Y-114683000D01*
X22364377Y-114683000D01*
X22250210Y-114705709D01*
X21599989Y-114055489D01*
X21599989Y-112027362D01*
X21622213Y-112049586D01*
X21847746Y-112200282D01*
X22098344Y-112304083D01*
X22364377Y-112357000D01*
X22635623Y-112357000D01*
X22901656Y-112304083D01*
X23152254Y-112200282D01*
X23377787Y-112049586D01*
X23569586Y-111857787D01*
X23720282Y-111632254D01*
X23770000Y-111512224D01*
X23819718Y-111632254D01*
X23970414Y-111857787D01*
X24162213Y-112049586D01*
X24387746Y-112200282D01*
X24638344Y-112304083D01*
X24904377Y-112357000D01*
X25175623Y-112357000D01*
X25441656Y-112304083D01*
X25692254Y-112200282D01*
X25917787Y-112049586D01*
X26109586Y-111857787D01*
X26259490Y-111633439D01*
X26274103Y-111632000D01*
X26369895Y-111622565D01*
X26492798Y-111585283D01*
X26606065Y-111524741D01*
X26705345Y-111443264D01*
X26725766Y-111418381D01*
X30352458Y-107791690D01*
X30377335Y-107771274D01*
X30458812Y-107671994D01*
X30519354Y-107558727D01*
X30556636Y-107435824D01*
X30569225Y-107308011D01*
X30566071Y-107275989D01*
X30566071Y-77013887D01*
X30569225Y-76981865D01*
X30556636Y-76854050D01*
X30527282Y-76757283D01*
X30519354Y-76731148D01*
X30458812Y-76617881D01*
X30377335Y-76518601D01*
X30352459Y-76498186D01*
X28402000Y-74547728D01*
X28402000Y-74250225D01*
X31813387Y-70838839D01*
X31838264Y-70818423D01*
X31919741Y-70719143D01*
X31980283Y-70605876D01*
X32004210Y-70527000D01*
X32017565Y-70482974D01*
X32030154Y-70355160D01*
X32027000Y-70323138D01*
X32027000Y-70258976D01*
X32095048Y-70190928D01*
X32196496Y-70039099D01*
X32266376Y-69870396D01*
X32302000Y-69691301D01*
X32302000Y-69508699D01*
X32266376Y-69329604D01*
X32196496Y-69160901D01*
X32095048Y-69009072D01*
X31965928Y-68879952D01*
X31814099Y-68778504D01*
X31645396Y-68708624D01*
X31466301Y-68673000D01*
X31283699Y-68673000D01*
X31104604Y-68708624D01*
X30935901Y-68778504D01*
X30784072Y-68879952D01*
X30654952Y-69009072D01*
X30553504Y-69160901D01*
X30483624Y-69329604D01*
X30448000Y-69508699D01*
X30448000Y-69691301D01*
X30483624Y-69870396D01*
X30553504Y-70039099D01*
X30639816Y-70168276D01*
X30119938Y-70688155D01*
X30039786Y-70608003D01*
X30081120Y-70546141D01*
X30151000Y-70377438D01*
X30186624Y-70198343D01*
X30186624Y-70015741D01*
X30151000Y-69836646D01*
X30081120Y-69667943D01*
X29979672Y-69516114D01*
X29850552Y-69386994D01*
X29698723Y-69285546D01*
X29530020Y-69215666D01*
X29350925Y-69180042D01*
X29255128Y-69180042D01*
X29282164Y-69044123D01*
X29282164Y-68861521D01*
X29246540Y-68682426D01*
X29176660Y-68513723D01*
X29075212Y-68361894D01*
X28946092Y-68232774D01*
X28794263Y-68131326D01*
X28777435Y-68124355D01*
X28799649Y-68091109D01*
X28869529Y-67922406D01*
X28905153Y-67743311D01*
X28905153Y-67560709D01*
X28869529Y-67381614D01*
X28799649Y-67212911D01*
X28698201Y-67061082D01*
X28569081Y-66931962D01*
X28417252Y-66830514D01*
X28373630Y-66812445D01*
X28422638Y-66739099D01*
X28492518Y-66570396D01*
X28528142Y-66391301D01*
X28528142Y-66208699D01*
X28492518Y-66029604D01*
X28422638Y-65860901D01*
X28321190Y-65709072D01*
X28192070Y-65579952D01*
X28040241Y-65478504D01*
X27929489Y-65432628D01*
X27944179Y-65417938D01*
X28045627Y-65266109D01*
X28115507Y-65097406D01*
X28151131Y-64918311D01*
X28151131Y-64735709D01*
X28115507Y-64556614D01*
X28045627Y-64387911D01*
X27944179Y-64236082D01*
X27815059Y-64106962D01*
X27663230Y-64005514D01*
X27494527Y-63935634D01*
X27315432Y-63900010D01*
X27132830Y-63900010D01*
X26953735Y-63935634D01*
X26785032Y-64005514D01*
X26633203Y-64106962D01*
X26504083Y-64236082D01*
X26402635Y-64387911D01*
X26332755Y-64556614D01*
X26297131Y-64735709D01*
X26297131Y-64831943D01*
X24699990Y-66429085D01*
X24699990Y-58086584D01*
X24704382Y-58041990D01*
X24699990Y-57997396D01*
X24699990Y-57997386D01*
X24686852Y-57863991D01*
X24634931Y-57692832D01*
X24623590Y-57671615D01*
X24550617Y-57535091D01*
X24465582Y-57431476D01*
X24465579Y-57431473D01*
X24437149Y-57396831D01*
X24402508Y-57368402D01*
X22958000Y-55923895D01*
X22958000Y-45433000D01*
X24963179Y-45433000D01*
X25058699Y-45452000D01*
X25241301Y-45452000D01*
X25420396Y-45416376D01*
X25589099Y-45346496D01*
X25740928Y-45245048D01*
X25870048Y-45115928D01*
X25971496Y-44964099D01*
X26041376Y-44795396D01*
X26077000Y-44616301D01*
X26077000Y-44433699D01*
X26041376Y-44254604D01*
X25971496Y-44085901D01*
X25870048Y-43934072D01*
X25740928Y-43804952D01*
X25589099Y-43703504D01*
X25420396Y-43633624D01*
X25241301Y-43598000D01*
X25058699Y-43598000D01*
X24963179Y-43617000D01*
X22958000Y-43617000D01*
X22958000Y-39682114D01*
X23231415Y-39408699D01*
X36623000Y-39408699D01*
X36623000Y-39591301D01*
X36642000Y-39686821D01*
X36642001Y-42230396D01*
X36637608Y-42275000D01*
X36655139Y-42452999D01*
X36707059Y-42624157D01*
X36791373Y-42781898D01*
X36875401Y-42884286D01*
X36929952Y-42965928D01*
X37059072Y-43095048D01*
X37210901Y-43196496D01*
X37379604Y-43266376D01*
X37558699Y-43302000D01*
X37741301Y-43302000D01*
X37920396Y-43266376D01*
X38089099Y-43196496D01*
X38240928Y-43095048D01*
X38370048Y-42965928D01*
X38471496Y-42814099D01*
X38541376Y-42645396D01*
X38577000Y-42466301D01*
X38577000Y-42283699D01*
X38541376Y-42104604D01*
X38471496Y-41935901D01*
X38458000Y-41915703D01*
X38458000Y-39686821D01*
X38477000Y-39591301D01*
X38477000Y-39408699D01*
X38441376Y-39229604D01*
X38371496Y-39060901D01*
X38270048Y-38909072D01*
X38140928Y-38779952D01*
X37989099Y-38678504D01*
X37820396Y-38608624D01*
X37641301Y-38573000D01*
X37458699Y-38573000D01*
X37279604Y-38608624D01*
X37110901Y-38678504D01*
X36959072Y-38779952D01*
X36829952Y-38909072D01*
X36728504Y-39060901D01*
X36658624Y-39229604D01*
X36623000Y-39408699D01*
X23231415Y-39408699D01*
X24067861Y-38572254D01*
X24186898Y-38508627D01*
X24325159Y-38395159D01*
X24353593Y-38360512D01*
X27806106Y-34908000D01*
X40472024Y-34908000D01*
X40534072Y-34970048D01*
X40685901Y-35071496D01*
X40854604Y-35141376D01*
X41033699Y-35177000D01*
X41216301Y-35177000D01*
X41395396Y-35141376D01*
X41564099Y-35071496D01*
X41715928Y-34970048D01*
X41845048Y-34840928D01*
X41946496Y-34689099D01*
X42016376Y-34520396D01*
X42052000Y-34341301D01*
X42052000Y-34158699D01*
X42016376Y-33979604D01*
X41946496Y-33810901D01*
X41845048Y-33659072D01*
X41715928Y-33529952D01*
X41634949Y-33475844D01*
X41548594Y-33389489D01*
X41520159Y-33354841D01*
X41381898Y-33241373D01*
X41224158Y-33157059D01*
X41052999Y-33105138D01*
X40919604Y-33092000D01*
X40919594Y-33092000D01*
X40875000Y-33087608D01*
X40830406Y-33092000D01*
X34865240Y-33092000D01*
X34944083Y-32901656D01*
X34997000Y-32635623D01*
X34997000Y-32364377D01*
X34944083Y-32098344D01*
X34840282Y-31847746D01*
X34689586Y-31622213D01*
X34497787Y-31430414D01*
X34272254Y-31279718D01*
X34152224Y-31230000D01*
X34272254Y-31180282D01*
X34497787Y-31029586D01*
X34689586Y-30837787D01*
X34840282Y-30612254D01*
X34944083Y-30361656D01*
X34997000Y-30095623D01*
X34997000Y-29824377D01*
X42403000Y-29824377D01*
X42403000Y-30095623D01*
X42455917Y-30361656D01*
X42559718Y-30612254D01*
X42710414Y-30837787D01*
X42902213Y-31029586D01*
X43127746Y-31180282D01*
X43247776Y-31230000D01*
X43127746Y-31279718D01*
X42902213Y-31430414D01*
X42710414Y-31622213D01*
X42559718Y-31847746D01*
X42455917Y-32098344D01*
X42403000Y-32364377D01*
X42403000Y-32635623D01*
X42455917Y-32901656D01*
X42559718Y-33152254D01*
X42710414Y-33377787D01*
X42902213Y-33569586D01*
X43127746Y-33720282D01*
X43378344Y-33824083D01*
X43644377Y-33877000D01*
X43915623Y-33877000D01*
X44181656Y-33824083D01*
X44432254Y-33720282D01*
X44657787Y-33569586D01*
X44849586Y-33377787D01*
X45000282Y-33152254D01*
X45104083Y-32901656D01*
X45157000Y-32635623D01*
X45157000Y-32364377D01*
X45104083Y-32098344D01*
X45000282Y-31847746D01*
X44849586Y-31622213D01*
X44657787Y-31430414D01*
X44432254Y-31279718D01*
X44312224Y-31230000D01*
X44432254Y-31180282D01*
X44657787Y-31029586D01*
X44849586Y-30837787D01*
X45000282Y-30612254D01*
X45104083Y-30361656D01*
X45157000Y-30095623D01*
X45157000Y-29824377D01*
X45104083Y-29558344D01*
X45000282Y-29307746D01*
X44849586Y-29082213D01*
X44657787Y-28890414D01*
X44432254Y-28739718D01*
X44181656Y-28635917D01*
X43915623Y-28583000D01*
X43644377Y-28583000D01*
X43378344Y-28635917D01*
X43127746Y-28739718D01*
X42902213Y-28890414D01*
X42710414Y-29082213D01*
X42559718Y-29307746D01*
X42455917Y-29558344D01*
X42403000Y-29824377D01*
X34997000Y-29824377D01*
X34944083Y-29558344D01*
X34840282Y-29307746D01*
X34689586Y-29082213D01*
X34497787Y-28890414D01*
X34272254Y-28739718D01*
X34021656Y-28635917D01*
X33755623Y-28583000D01*
X33484377Y-28583000D01*
X33218344Y-28635917D01*
X32967746Y-28739718D01*
X32742213Y-28890414D01*
X32550414Y-29082213D01*
X32399718Y-29307746D01*
X32350000Y-29427776D01*
X32300282Y-29307746D01*
X32149586Y-29082213D01*
X31957787Y-28890414D01*
X31732254Y-28739718D01*
X31481656Y-28635917D01*
X31215623Y-28583000D01*
X30944377Y-28583000D01*
X30678344Y-28635917D01*
X30427746Y-28739718D01*
X30202213Y-28890414D01*
X30010414Y-29082213D01*
X29859718Y-29307746D01*
X29810000Y-29427776D01*
X29760282Y-29307746D01*
X29609586Y-29082213D01*
X29417787Y-28890414D01*
X29192254Y-28739718D01*
X28941656Y-28635917D01*
X28675623Y-28583000D01*
X28404377Y-28583000D01*
X28138344Y-28635917D01*
X27887746Y-28739718D01*
X27662213Y-28890414D01*
X27470414Y-29082213D01*
X27319718Y-29307746D01*
X27270000Y-29427776D01*
X27220282Y-29307746D01*
X27069586Y-29082213D01*
X26877787Y-28890414D01*
X26652254Y-28739718D01*
X26401656Y-28635917D01*
X26135623Y-28583000D01*
X25864377Y-28583000D01*
X25598344Y-28635917D01*
X25347746Y-28739718D01*
X25122213Y-28890414D01*
X24930414Y-29082213D01*
X24779718Y-29307746D01*
X24675917Y-29558344D01*
X24623000Y-29824377D01*
X24623000Y-30095623D01*
X24675917Y-30361656D01*
X24779718Y-30612254D01*
X24930414Y-30837787D01*
X25122213Y-31029586D01*
X25258202Y-31120451D01*
X25150000Y-31120451D01*
X25046690Y-31130626D01*
X24947350Y-31160761D01*
X24855798Y-31209696D01*
X24775552Y-31275552D01*
X24709696Y-31355798D01*
X24660761Y-31447350D01*
X24630626Y-31546690D01*
X24620451Y-31650000D01*
X24620451Y-32658529D01*
X24524157Y-32607059D01*
X24352999Y-32555139D01*
X24174999Y-32537608D01*
X24069486Y-32548000D01*
X24058699Y-32548000D01*
X24048120Y-32550104D01*
X23997001Y-32555139D01*
X23947846Y-32570050D01*
X23879604Y-32583624D01*
X23710901Y-32653504D01*
X23559072Y-32754952D01*
X23429952Y-32884072D01*
X23328504Y-33035901D01*
X23258624Y-33204604D01*
X23223000Y-33383699D01*
X23223000Y-33566301D01*
X23258624Y-33745396D01*
X23328504Y-33914099D01*
X23429952Y-34065928D01*
X23559072Y-34195048D01*
X23710901Y-34296496D01*
X23879604Y-34366376D01*
X24058699Y-34402000D01*
X24241301Y-34402000D01*
X24420396Y-34366376D01*
X24589099Y-34296496D01*
X24740928Y-34195048D01*
X24870048Y-34065928D01*
X24971496Y-33914099D01*
X24996348Y-33854103D01*
X25046690Y-33869374D01*
X25150000Y-33879549D01*
X26266345Y-33879549D01*
X23486848Y-36659047D01*
X23420048Y-36559072D01*
X23290928Y-36429952D01*
X23139099Y-36328504D01*
X22970396Y-36258624D01*
X22791301Y-36223000D01*
X22608699Y-36223000D01*
X22513179Y-36242000D01*
X21998000Y-36242000D01*
X21998000Y-30336105D01*
X22609949Y-29724156D01*
X22690928Y-29670048D01*
X22820048Y-29540928D01*
X22921496Y-29389099D01*
X22991376Y-29220396D01*
X23027000Y-29041301D01*
X23027000Y-28858699D01*
X22991376Y-28679604D01*
X22921496Y-28510901D01*
X22820048Y-28359072D01*
X22690928Y-28229952D01*
X22539099Y-28128504D01*
X22370396Y-28058624D01*
X22191301Y-28023000D01*
X22008699Y-28023000D01*
X21829604Y-28058624D01*
X21660901Y-28128504D01*
X21509072Y-28229952D01*
X21379952Y-28359072D01*
X21325844Y-28440051D01*
X20877000Y-28888895D01*
X20877000Y-27202000D01*
X49948000Y-27202000D01*
X49948000Y-37693500D01*
%TA.AperFunction,Conductor*%
D18*
G36*
X49948000Y-37693500D02*
G01*
X46655597Y-34401097D01*
X46641376Y-34329604D01*
X46571496Y-34160901D01*
X46470048Y-34009072D01*
X46340928Y-33879952D01*
X46189099Y-33778504D01*
X46020396Y-33708624D01*
X45841301Y-33673000D01*
X45658699Y-33673000D01*
X45479604Y-33708624D01*
X45310901Y-33778504D01*
X45159072Y-33879952D01*
X45029952Y-34009072D01*
X44928504Y-34160901D01*
X44858624Y-34329604D01*
X44823000Y-34508699D01*
X44823000Y-34691301D01*
X44858624Y-34870396D01*
X44928504Y-35039099D01*
X45029952Y-35190928D01*
X45159072Y-35320048D01*
X45310901Y-35421496D01*
X45479604Y-35491376D01*
X45551097Y-35505597D01*
X47460500Y-37415000D01*
X41400000Y-37415000D01*
X41276118Y-37427201D01*
X41156996Y-37463336D01*
X41047213Y-37522017D01*
X40950987Y-37600987D01*
X40872017Y-37697213D01*
X40813336Y-37806996D01*
X40777201Y-37926118D01*
X40765000Y-38050000D01*
X40765000Y-43450894D01*
X37439486Y-46776408D01*
X35148991Y-49066904D01*
X35148986Y-49066908D01*
X35096894Y-49119000D01*
X31436176Y-49119000D01*
X31293935Y-49060081D01*
X31114840Y-49024457D01*
X30932238Y-49024457D01*
X30753143Y-49060081D01*
X30584440Y-49129961D01*
X30432611Y-49231409D01*
X30303491Y-49360529D01*
X30202043Y-49512358D01*
X30138303Y-49666237D01*
X29727000Y-49254934D01*
X29727000Y-47583976D01*
X29795048Y-47515928D01*
X29896496Y-47364099D01*
X29966376Y-47195396D01*
X29982491Y-47114377D01*
X30433000Y-47114377D01*
X30433000Y-47385623D01*
X30485917Y-47651656D01*
X30589718Y-47902254D01*
X30740414Y-48127787D01*
X30932213Y-48319586D01*
X31157746Y-48470282D01*
X31408344Y-48574083D01*
X31674377Y-48627000D01*
X31945623Y-48627000D01*
X32211656Y-48574083D01*
X32462254Y-48470282D01*
X32687787Y-48319586D01*
X32879586Y-48127787D01*
X32970451Y-47991798D01*
X32970451Y-48100000D01*
X32980626Y-48203310D01*
X33010761Y-48302650D01*
X33059696Y-48394202D01*
X33125552Y-48474448D01*
X33205798Y-48540304D01*
X33297350Y-48589239D01*
X33396690Y-48619374D01*
X33500000Y-48629549D01*
X35200000Y-48629549D01*
X35303310Y-48619374D01*
X35402650Y-48589239D01*
X35494202Y-48540304D01*
X35574448Y-48474448D01*
X35640304Y-48394202D01*
X35689239Y-48302650D01*
X35719374Y-48203310D01*
X35729549Y-48100000D01*
X35729549Y-46400000D01*
X35719374Y-46296690D01*
X35689239Y-46197350D01*
X35640304Y-46105798D01*
X35574448Y-46025552D01*
X35494202Y-45959696D01*
X35402650Y-45910761D01*
X35303310Y-45880626D01*
X35200000Y-45870451D01*
X33500000Y-45870451D01*
X33396690Y-45880626D01*
X33297350Y-45910761D01*
X33205798Y-45959696D01*
X33125552Y-46025552D01*
X33059696Y-46105798D01*
X33010761Y-46197350D01*
X32980626Y-46296690D01*
X32970451Y-46400000D01*
X32970451Y-46508202D01*
X32879586Y-46372213D01*
X32687787Y-46180414D01*
X32462254Y-46029718D01*
X32211656Y-45925917D01*
X31945623Y-45873000D01*
X31674377Y-45873000D01*
X31408344Y-45925917D01*
X31157746Y-46029718D01*
X30932213Y-46180414D01*
X30740414Y-46372213D01*
X30589718Y-46597746D01*
X30485917Y-46848344D01*
X30433000Y-47114377D01*
X29982491Y-47114377D01*
X30002000Y-47016301D01*
X30002000Y-46833699D01*
X29966376Y-46654604D01*
X29896496Y-46485901D01*
X29795048Y-46334072D01*
X29665928Y-46204952D01*
X29514099Y-46103504D01*
X29345396Y-46033624D01*
X29324386Y-46029445D01*
X29327000Y-46016301D01*
X29327000Y-45833699D01*
X29291376Y-45654604D01*
X29221496Y-45485901D01*
X29120048Y-45334072D01*
X28990928Y-45204952D01*
X28839099Y-45103504D01*
X28670396Y-45033624D01*
X28491301Y-44998000D01*
X28308699Y-44998000D01*
X28129604Y-45033624D01*
X27960901Y-45103504D01*
X27809072Y-45204952D01*
X27679952Y-45334072D01*
X27578504Y-45485901D01*
X27508624Y-45654604D01*
X27473000Y-45833699D01*
X27473000Y-46016301D01*
X27508624Y-46195396D01*
X27578504Y-46364099D01*
X27679952Y-46515928D01*
X27748000Y-46583976D01*
X27748001Y-50567968D01*
X27744846Y-50600000D01*
X27757435Y-50727814D01*
X27794717Y-50850716D01*
X27809545Y-50878457D01*
X27855260Y-50963984D01*
X27936737Y-51063264D01*
X27961614Y-51083680D01*
X29998000Y-53120067D01*
X29998001Y-54791023D01*
X29929952Y-54859072D01*
X29828504Y-55010901D01*
X29758624Y-55179604D01*
X29723000Y-55358699D01*
X29723000Y-55541301D01*
X29758624Y-55720396D01*
X29828504Y-55889099D01*
X29929952Y-56040928D01*
X30059072Y-56170048D01*
X30210901Y-56271496D01*
X30379604Y-56341376D01*
X30558699Y-56377000D01*
X30741301Y-56377000D01*
X30920396Y-56341376D01*
X31089099Y-56271496D01*
X31240928Y-56170048D01*
X31370048Y-56040928D01*
X31471496Y-55889099D01*
X31541376Y-55720396D01*
X31577000Y-55541301D01*
X31577000Y-55358699D01*
X31541376Y-55179604D01*
X31471496Y-55010901D01*
X31370048Y-54859072D01*
X31302000Y-54791024D01*
X31302000Y-52882022D01*
X31305154Y-52850000D01*
X31292565Y-52722185D01*
X31267504Y-52639570D01*
X33277364Y-54649431D01*
X33277365Y-56057107D01*
X33209316Y-56125156D01*
X33107868Y-56276985D01*
X33037988Y-56445688D01*
X33002364Y-56624783D01*
X33002364Y-56807385D01*
X33037988Y-56986480D01*
X33107868Y-57155183D01*
X33209316Y-57307012D01*
X33338436Y-57436132D01*
X33490265Y-57537580D01*
X33658968Y-57607460D01*
X33838063Y-57643084D01*
X34020665Y-57643084D01*
X34199760Y-57607460D01*
X34368463Y-57537580D01*
X34520292Y-57436132D01*
X34649412Y-57307012D01*
X34750860Y-57155183D01*
X34820740Y-56986480D01*
X34824317Y-56968499D01*
X34842629Y-56972142D01*
X35025231Y-56972142D01*
X35204326Y-56936518D01*
X35373029Y-56866638D01*
X35524858Y-56765190D01*
X35653978Y-56636070D01*
X35755426Y-56484241D01*
X35757402Y-56479470D01*
X36023000Y-56745068D01*
X36023000Y-56841303D01*
X36058624Y-57020398D01*
X36128504Y-57189101D01*
X36229952Y-57340930D01*
X36359072Y-57470050D01*
X36510901Y-57571498D01*
X36679604Y-57641378D01*
X36858699Y-57677002D01*
X37041301Y-57677002D01*
X37220396Y-57641378D01*
X37389099Y-57571498D01*
X37540928Y-57470050D01*
X37670048Y-57340930D01*
X37771496Y-57189101D01*
X37841376Y-57020398D01*
X37877000Y-56841303D01*
X37877000Y-56658701D01*
X37841376Y-56479606D01*
X37771496Y-56310903D01*
X37670048Y-56159074D01*
X37540928Y-56029954D01*
X37389099Y-55928506D01*
X37220396Y-55858626D01*
X37041301Y-55823002D01*
X36945066Y-55823002D01*
X36837946Y-55715882D01*
X36837946Y-51412995D01*
X36905994Y-51344947D01*
X37007442Y-51193118D01*
X37077322Y-51024415D01*
X37112946Y-50845320D01*
X37112946Y-50662718D01*
X37077322Y-50483623D01*
X37007442Y-50314920D01*
X36905994Y-50163091D01*
X36776874Y-50033971D01*
X36760845Y-50023261D01*
X40921285Y-45862821D01*
X40950987Y-45899013D01*
X41047213Y-45977983D01*
X41156996Y-46036664D01*
X41276118Y-46072799D01*
X41400000Y-46085000D01*
X46880499Y-46085000D01*
X48219001Y-47423502D01*
X48219000Y-50246499D01*
X48044873Y-50420626D01*
X48015078Y-50445078D01*
X47990626Y-50474874D01*
X46583239Y-51882261D01*
X46534448Y-51833470D01*
X46454202Y-51767614D01*
X46362650Y-51718679D01*
X46263310Y-51688544D01*
X46160000Y-51678369D01*
X46056690Y-51688544D01*
X45957350Y-51718679D01*
X45865798Y-51767614D01*
X45785552Y-51833470D01*
X45709042Y-51909980D01*
X45740949Y-51749572D01*
X45740949Y-51478326D01*
X45688032Y-51212293D01*
X45584231Y-50961695D01*
X45433535Y-50736162D01*
X45241736Y-50544363D01*
X45016203Y-50393667D01*
X44765605Y-50289866D01*
X44499572Y-50236949D01*
X44228326Y-50236949D01*
X43962293Y-50289866D01*
X43842263Y-50339584D01*
X43891981Y-50219554D01*
X43944898Y-49953521D01*
X43944898Y-49682275D01*
X43891981Y-49416242D01*
X43788180Y-49165644D01*
X43637484Y-48940111D01*
X43445685Y-48748312D01*
X43220152Y-48597616D01*
X42969554Y-48493815D01*
X42703521Y-48440898D01*
X42432275Y-48440898D01*
X42166242Y-48493815D01*
X41915644Y-48597616D01*
X41690111Y-48748312D01*
X41498312Y-48940111D01*
X41347616Y-49165644D01*
X41243815Y-49416242D01*
X41190898Y-49682275D01*
X41190898Y-49953521D01*
X41243815Y-50219554D01*
X41347616Y-50470152D01*
X41498312Y-50695685D01*
X41690111Y-50887484D01*
X41915644Y-51038180D01*
X42166242Y-51141981D01*
X42432275Y-51194898D01*
X42703521Y-51194898D01*
X42969554Y-51141981D01*
X43089584Y-51092263D01*
X43039866Y-51212293D01*
X42986949Y-51478326D01*
X42986949Y-51578410D01*
X42932022Y-51573000D01*
X42900000Y-51569846D01*
X42867978Y-51573000D01*
X40682910Y-51573000D01*
X40650888Y-51569846D01*
X40523074Y-51582435D01*
X40431196Y-51610306D01*
X40400172Y-51619717D01*
X40286905Y-51680259D01*
X40187625Y-51761736D01*
X40167209Y-51786613D01*
X39496831Y-52456992D01*
X39400596Y-52456992D01*
X39221501Y-52492616D01*
X39052798Y-52562496D01*
X38900969Y-52663944D01*
X38771849Y-52793064D01*
X38670401Y-52944893D01*
X38600521Y-53113596D01*
X38564897Y-53292691D01*
X38564897Y-53475293D01*
X38600521Y-53654388D01*
X38669092Y-53819932D01*
X38629952Y-53859072D01*
X38528504Y-54010901D01*
X38458624Y-54179604D01*
X38423000Y-54358699D01*
X38423000Y-54541301D01*
X38458624Y-54720396D01*
X38528504Y-54889099D01*
X38629952Y-55040928D01*
X38759072Y-55170048D01*
X38910901Y-55271496D01*
X39079604Y-55341376D01*
X39258699Y-55377000D01*
X39441301Y-55377000D01*
X39620396Y-55341376D01*
X39789099Y-55271496D01*
X39940928Y-55170048D01*
X40070048Y-55040928D01*
X40171496Y-54889099D01*
X40241376Y-54720396D01*
X40277000Y-54541301D01*
X40277000Y-54445066D01*
X41468057Y-53254010D01*
X41908221Y-53254010D01*
X41853504Y-53335901D01*
X41783624Y-53504604D01*
X41748000Y-53683699D01*
X41748000Y-53866301D01*
X41783624Y-54045396D01*
X41853504Y-54214099D01*
X41902605Y-54287585D01*
X41803504Y-54435901D01*
X41733624Y-54604604D01*
X41698000Y-54783699D01*
X41698000Y-54966301D01*
X41733624Y-55145396D01*
X41803504Y-55314099D01*
X41894309Y-55450000D01*
X41803504Y-55585901D01*
X41733624Y-55754604D01*
X41698000Y-55933699D01*
X41698000Y-56116301D01*
X41733624Y-56295396D01*
X41803504Y-56464099D01*
X41885901Y-56587415D01*
X41853504Y-56635901D01*
X41783624Y-56804604D01*
X41748000Y-56983699D01*
X41748000Y-57166301D01*
X41783624Y-57345396D01*
X41853504Y-57514099D01*
X41954952Y-57665928D01*
X42084072Y-57795048D01*
X42235901Y-57896496D01*
X42404604Y-57966376D01*
X42583699Y-58002000D01*
X42766301Y-58002000D01*
X42945396Y-57966376D01*
X43114099Y-57896496D01*
X43265928Y-57795048D01*
X43288114Y-57772862D01*
X43360901Y-57821496D01*
X43529604Y-57891376D01*
X43708699Y-57927000D01*
X43891301Y-57927000D01*
X44070396Y-57891376D01*
X44239099Y-57821496D01*
X44303303Y-57778597D01*
X45060940Y-58536235D01*
X45060941Y-72201132D01*
X40957600Y-76304474D01*
X40932717Y-76324895D01*
X40851240Y-76424176D01*
X40800769Y-76518601D01*
X40790698Y-76537443D01*
X40753416Y-76660345D01*
X40740827Y-76788159D01*
X40743981Y-76820181D01*
X40743982Y-86823949D01*
X40740827Y-86855981D01*
X40753416Y-86983795D01*
X40790698Y-87106697D01*
X40818157Y-87158069D01*
X40851241Y-87219965D01*
X40932718Y-87319245D01*
X40957595Y-87339661D01*
X44126204Y-90508271D01*
X44123000Y-90524377D01*
X44123000Y-90795623D01*
X44175917Y-91061656D01*
X44273814Y-91298000D01*
X41800070Y-91298000D01*
X37702000Y-87199931D01*
X37702000Y-75417716D01*
X38338387Y-74781330D01*
X38363264Y-74760914D01*
X38444741Y-74661634D01*
X38505283Y-74548367D01*
X38527171Y-74476211D01*
X38542565Y-74425465D01*
X38555154Y-74297650D01*
X38552000Y-74265628D01*
X38552000Y-63395066D01*
X40470067Y-61477000D01*
X40566301Y-61477000D01*
X40745396Y-61441376D01*
X40914099Y-61371496D01*
X41065928Y-61270048D01*
X41195048Y-61140928D01*
X41296496Y-60989099D01*
X41366376Y-60820396D01*
X41402000Y-60641301D01*
X41402000Y-60458699D01*
X41366376Y-60279604D01*
X41296496Y-60110901D01*
X41195048Y-59959072D01*
X41065928Y-59829952D01*
X40914099Y-59728504D01*
X40745396Y-59658624D01*
X40566301Y-59623000D01*
X40509953Y-59623000D01*
X40491375Y-59529604D01*
X40421495Y-59360901D01*
X40320047Y-59209072D01*
X40190927Y-59079952D01*
X40039098Y-58978504D01*
X39870395Y-58908624D01*
X39691300Y-58873000D01*
X39508698Y-58873000D01*
X39424223Y-58889803D01*
X39387777Y-58835258D01*
X39258657Y-58706138D01*
X39106828Y-58604690D01*
X38938125Y-58534810D01*
X38759030Y-58499186D01*
X38576428Y-58499186D01*
X38437747Y-58526771D01*
X38340928Y-58429952D01*
X38189099Y-58328504D01*
X38020396Y-58258624D01*
X37841301Y-58223000D01*
X37658699Y-58223000D01*
X37479604Y-58258624D01*
X37310901Y-58328504D01*
X37159072Y-58429952D01*
X37029952Y-58559072D01*
X36954870Y-58671441D01*
X36847372Y-58671441D01*
X36668277Y-58707065D01*
X36499574Y-58776945D01*
X36347745Y-58878393D01*
X36218625Y-59007513D01*
X36117177Y-59159342D01*
X36047297Y-59328045D01*
X36011673Y-59507140D01*
X36011673Y-59603375D01*
X35953572Y-59661476D01*
X35928695Y-59681892D01*
X35847218Y-59781172D01*
X35821331Y-59829604D01*
X35786675Y-59894440D01*
X35749393Y-60017342D01*
X35736804Y-60145156D01*
X35739959Y-60177188D01*
X35739959Y-66095744D01*
X35650344Y-66058624D01*
X35471249Y-66023000D01*
X35288647Y-66023000D01*
X35127184Y-66055117D01*
X30677000Y-61604934D01*
X30677000Y-61508699D01*
X30641376Y-61329604D01*
X30571496Y-61160901D01*
X30470048Y-61009072D01*
X30433081Y-60972105D01*
X30479604Y-60991376D01*
X30658699Y-61027000D01*
X30754934Y-61027000D01*
X32116320Y-62388387D01*
X32136736Y-62413264D01*
X32236016Y-62494741D01*
X32349283Y-62555283D01*
X32472185Y-62592565D01*
X32599999Y-62605154D01*
X32632021Y-62602000D01*
X34066024Y-62602000D01*
X34134072Y-62670048D01*
X34285901Y-62771496D01*
X34454604Y-62841376D01*
X34633699Y-62877000D01*
X34816301Y-62877000D01*
X34995396Y-62841376D01*
X35164099Y-62771496D01*
X35315928Y-62670048D01*
X35445048Y-62540928D01*
X35546496Y-62389099D01*
X35616376Y-62220396D01*
X35652000Y-62041301D01*
X35652000Y-61858699D01*
X35616376Y-61679604D01*
X35546496Y-61510901D01*
X35445048Y-61359072D01*
X35315928Y-61229952D01*
X35164099Y-61128504D01*
X34995396Y-61058624D01*
X34816301Y-61023000D01*
X34633699Y-61023000D01*
X34454604Y-61058624D01*
X34285901Y-61128504D01*
X34134072Y-61229952D01*
X34066024Y-61298000D01*
X33511840Y-61298000D01*
X33557866Y-61186886D01*
X33593490Y-61007791D01*
X33593490Y-60825189D01*
X33557866Y-60646094D01*
X33487986Y-60477391D01*
X33386538Y-60325562D01*
X33257418Y-60196442D01*
X33105589Y-60094994D01*
X32936886Y-60025114D01*
X32757791Y-59989490D01*
X32621422Y-59989490D01*
X32621422Y-59953121D01*
X32585798Y-59774026D01*
X32515918Y-59605323D01*
X32414470Y-59453494D01*
X32285350Y-59324374D01*
X32133521Y-59222926D01*
X31964818Y-59153046D01*
X31785723Y-59117422D01*
X31689489Y-59117422D01*
X25306382Y-52734316D01*
X25366996Y-52643599D01*
X25436876Y-52474896D01*
X25472500Y-52295801D01*
X25472500Y-52113199D01*
X25436876Y-51934104D01*
X25366996Y-51765401D01*
X25265548Y-51613572D01*
X25136428Y-51484452D01*
X24984599Y-51383004D01*
X24815896Y-51313124D01*
X24636801Y-51277500D01*
X24454199Y-51277500D01*
X24275104Y-51313124D01*
X24106401Y-51383004D01*
X23954572Y-51484452D01*
X23825452Y-51613572D01*
X23724004Y-51765401D01*
X23654124Y-51934104D01*
X23618500Y-52113199D01*
X23618500Y-52295801D01*
X23654124Y-52474896D01*
X23724004Y-52643599D01*
X23803044Y-52761892D01*
X23676737Y-52787016D01*
X23508034Y-52856896D01*
X23356205Y-52958344D01*
X23227085Y-53087464D01*
X23125637Y-53239293D01*
X23055757Y-53407996D01*
X23020133Y-53587091D01*
X23020133Y-53769693D01*
X23055757Y-53948788D01*
X23125637Y-54117491D01*
X23227085Y-54269320D01*
X23356205Y-54398440D01*
X23508034Y-54499888D01*
X23676737Y-54569768D01*
X23855832Y-54605392D01*
X24038434Y-54605392D01*
X24217529Y-54569768D01*
X24386232Y-54499888D01*
X24441136Y-54463203D01*
X25111609Y-55133676D01*
X25111614Y-55133680D01*
X27011609Y-57033676D01*
X27011615Y-57033681D01*
X29850148Y-59872215D01*
X29823000Y-60008699D01*
X29823000Y-60191301D01*
X29858624Y-60370396D01*
X29928504Y-60539099D01*
X30029952Y-60690928D01*
X30066919Y-60727895D01*
X30020396Y-60708624D01*
X29841301Y-60673000D01*
X29745067Y-60673000D01*
X24899852Y-55827786D01*
X24927000Y-55691301D01*
X24927000Y-55508699D01*
X24891376Y-55329604D01*
X24821496Y-55160901D01*
X24720048Y-55009072D01*
X24590928Y-54879952D01*
X24439099Y-54778504D01*
X24270396Y-54708624D01*
X24091301Y-54673000D01*
X23908699Y-54673000D01*
X23729604Y-54708624D01*
X23560901Y-54778504D01*
X23409072Y-54879952D01*
X23279952Y-55009072D01*
X23178504Y-55160901D01*
X23108624Y-55329604D01*
X23073000Y-55508699D01*
X23073000Y-55691301D01*
X23108624Y-55870396D01*
X23178504Y-56039099D01*
X23279952Y-56190928D01*
X23409072Y-56320048D01*
X23560901Y-56421496D01*
X23712031Y-56484097D01*
X27257100Y-60029167D01*
X27117073Y-60122729D01*
X26987953Y-60251849D01*
X26886505Y-60403678D01*
X26816625Y-60572381D01*
X26781001Y-60751476D01*
X26781001Y-60847710D01*
X26192856Y-61435856D01*
X26167973Y-61456277D01*
X26086496Y-61555558D01*
X26065901Y-61594089D01*
X26040309Y-61611189D01*
X25911189Y-61740309D01*
X25809741Y-61892138D01*
X25739861Y-62060841D01*
X25704237Y-62239936D01*
X25704237Y-62422538D01*
X25739861Y-62601633D01*
X25809741Y-62770336D01*
X25911189Y-62922165D01*
X26040309Y-63051285D01*
X26192138Y-63152733D01*
X26360841Y-63222613D01*
X26539936Y-63258237D01*
X26722538Y-63258237D01*
X26901633Y-63222613D01*
X27070336Y-63152733D01*
X27222165Y-63051285D01*
X27351285Y-62922165D01*
X27452733Y-62770336D01*
X27522613Y-62601633D01*
X27558237Y-62422538D01*
X27558237Y-62239936D01*
X27522613Y-62060841D01*
X27490216Y-61982628D01*
X27703068Y-61769777D01*
X27799302Y-61769777D01*
X27978397Y-61734153D01*
X28147100Y-61664273D01*
X28298929Y-61562825D01*
X28428049Y-61433705D01*
X28521611Y-61293678D01*
X28823000Y-61595067D01*
X28823000Y-61691301D01*
X28858624Y-61870396D01*
X28928504Y-62039099D01*
X29029952Y-62190928D01*
X29159072Y-62320048D01*
X29310901Y-62421496D01*
X29479604Y-62491376D01*
X29658699Y-62527000D01*
X29754934Y-62527000D01*
X34517029Y-67289096D01*
X34558452Y-67389099D01*
X34659900Y-67540928D01*
X34789020Y-67670048D01*
X34940849Y-67771496D01*
X35109552Y-67841376D01*
X35288647Y-67877000D01*
X35471249Y-67877000D01*
X35650344Y-67841376D01*
X35739958Y-67804256D01*
X35739958Y-73402925D01*
X35084606Y-74058278D01*
X35059729Y-74078694D01*
X34978252Y-74177974D01*
X34960185Y-74211775D01*
X34917709Y-74291242D01*
X34880427Y-74414144D01*
X34867838Y-74541958D01*
X34870993Y-74573990D01*
X34870992Y-88043659D01*
X34867838Y-88075681D01*
X34880427Y-88203495D01*
X34904696Y-88283498D01*
X34917709Y-88326397D01*
X34978251Y-88439664D01*
X35059728Y-88538945D01*
X35084611Y-88559366D01*
X43963631Y-97438387D01*
X43984047Y-97463264D01*
X44083327Y-97544741D01*
X44196594Y-97605283D01*
X44258045Y-97623924D01*
X44278705Y-97630191D01*
X44175917Y-97878344D01*
X44123000Y-98144377D01*
X44123000Y-98415623D01*
X44175917Y-98681656D01*
X44279718Y-98932254D01*
X44430414Y-99157787D01*
X44622213Y-99349586D01*
X44847746Y-99500282D01*
X44967776Y-99550000D01*
X44847746Y-99599718D01*
X44622213Y-99750414D01*
X44430414Y-99942213D01*
X44279718Y-100167746D01*
X44175917Y-100418344D01*
X44123000Y-100684377D01*
X44123000Y-100730414D01*
X44070396Y-100708624D01*
X43891301Y-100673000D01*
X43708699Y-100673000D01*
X43529604Y-100708624D01*
X43360901Y-100778504D01*
X43209072Y-100879952D01*
X43079952Y-101009072D01*
X42978504Y-101160901D01*
X42908624Y-101329604D01*
X42873000Y-101508699D01*
X42873000Y-101604933D01*
X42082595Y-102395339D01*
X42057718Y-102415755D01*
X41976241Y-102515035D01*
X41969846Y-102527000D01*
X41915698Y-102628303D01*
X41878416Y-102751205D01*
X41865827Y-102879019D01*
X41868982Y-102911051D01*
X41868981Y-110775776D01*
X39772945Y-112871813D01*
X39620396Y-112808624D01*
X39441301Y-112773000D01*
X39258699Y-112773000D01*
X39079604Y-112808624D01*
X38910901Y-112878504D01*
X38759072Y-112979952D01*
X38629952Y-113109072D01*
X38528504Y-113260901D01*
X38458624Y-113429604D01*
X38423000Y-113608699D01*
X38423000Y-113791301D01*
X38458624Y-113970396D01*
X38528504Y-114139099D01*
X38594195Y-114237413D01*
X38578504Y-114260897D01*
X38508624Y-114429600D01*
X38473000Y-114608695D01*
X38473000Y-114791297D01*
X38508624Y-114970392D01*
X38578504Y-115139095D01*
X38594198Y-115162583D01*
X38528504Y-115260901D01*
X38458624Y-115429604D01*
X38423000Y-115608699D01*
X38423000Y-115791301D01*
X38458624Y-115970396D01*
X38528504Y-116139099D01*
X38629952Y-116290928D01*
X38759072Y-116420048D01*
X38910901Y-116521496D01*
X39079604Y-116591376D01*
X39258699Y-116627000D01*
X39441301Y-116627000D01*
X39620396Y-116591376D01*
X39789099Y-116521496D01*
X39940928Y-116420048D01*
X40070048Y-116290928D01*
X40171496Y-116139099D01*
X40241376Y-115970396D01*
X40269858Y-115827208D01*
X43738387Y-112358680D01*
X43763264Y-112338264D01*
X43844741Y-112238984D01*
X43905283Y-112125717D01*
X43942565Y-112002814D01*
X43952000Y-111907022D01*
X43955154Y-111875000D01*
X43952000Y-111842978D01*
X43952000Y-106194586D01*
X44004604Y-106216376D01*
X44165312Y-106248343D01*
X44175917Y-106301656D01*
X44279718Y-106552254D01*
X44430414Y-106777787D01*
X44622213Y-106969586D01*
X44847746Y-107120282D01*
X44967776Y-107170000D01*
X44847746Y-107219718D01*
X44622213Y-107370414D01*
X44430414Y-107562213D01*
X44279718Y-107787746D01*
X44175917Y-108038344D01*
X44123000Y-108304377D01*
X44123000Y-108575623D01*
X44175917Y-108841656D01*
X44279718Y-109092254D01*
X44430414Y-109317787D01*
X44622213Y-109509586D01*
X44847746Y-109660282D01*
X44967776Y-109710000D01*
X44847746Y-109759718D01*
X44622213Y-109910414D01*
X44430414Y-110102213D01*
X44279718Y-110327746D01*
X44175917Y-110578344D01*
X44123000Y-110844377D01*
X44123000Y-111115623D01*
X44175917Y-111381656D01*
X44279718Y-111632254D01*
X44430414Y-111857787D01*
X44622213Y-112049586D01*
X44847746Y-112200282D01*
X44967776Y-112250000D01*
X44847746Y-112299718D01*
X44622213Y-112450414D01*
X44430414Y-112642213D01*
X44279718Y-112867746D01*
X44175917Y-113118344D01*
X44123000Y-113384377D01*
X44123000Y-113655623D01*
X44175917Y-113921656D01*
X44279718Y-114172254D01*
X44430414Y-114397787D01*
X44622213Y-114589586D01*
X44847746Y-114740282D01*
X45098344Y-114844083D01*
X45364377Y-114897000D01*
X45635623Y-114897000D01*
X45901656Y-114844083D01*
X46152254Y-114740282D01*
X46377787Y-114589586D01*
X46569586Y-114397787D01*
X46720282Y-114172254D01*
X46770000Y-114052224D01*
X46819718Y-114172254D01*
X46970414Y-114397787D01*
X47162213Y-114589586D01*
X47387746Y-114740282D01*
X47507776Y-114790000D01*
X47387746Y-114839718D01*
X47162213Y-114990414D01*
X46970414Y-115182213D01*
X46819718Y-115407746D01*
X46715917Y-115658344D01*
X46663000Y-115924377D01*
X46663000Y-116195623D01*
X46715917Y-116461656D01*
X46819718Y-116712254D01*
X46970414Y-116937787D01*
X47162213Y-117129586D01*
X47387746Y-117280282D01*
X47507776Y-117330000D01*
X47387746Y-117379718D01*
X47162213Y-117530414D01*
X46970414Y-117722213D01*
X46819718Y-117947746D01*
X46770000Y-118067776D01*
X46720282Y-117947746D01*
X46569586Y-117722213D01*
X46377787Y-117530414D01*
X46152254Y-117379718D01*
X45901656Y-117275917D01*
X45635623Y-117223000D01*
X45364377Y-117223000D01*
X45098344Y-117275917D01*
X44847746Y-117379718D01*
X44622213Y-117530414D01*
X44430414Y-117722213D01*
X44279718Y-117947746D01*
X44279613Y-117948000D01*
X36898976Y-117948000D01*
X36880928Y-117929952D01*
X36729099Y-117828504D01*
X36560396Y-117758624D01*
X36381301Y-117723000D01*
X36198699Y-117723000D01*
X36019604Y-117758624D01*
X35850901Y-117828504D01*
X35699072Y-117929952D01*
X35578869Y-118050155D01*
X35578869Y-115038891D01*
X35582023Y-115006869D01*
X35569434Y-114879054D01*
X35553889Y-114827810D01*
X35532152Y-114756152D01*
X35471610Y-114642885D01*
X35390133Y-114543605D01*
X35365250Y-114523184D01*
X35287000Y-114444934D01*
X35287000Y-114348699D01*
X35251376Y-114169604D01*
X35181496Y-114000901D01*
X35080048Y-113849072D01*
X34950928Y-113719952D01*
X34799099Y-113618504D01*
X34630396Y-113548624D01*
X34451301Y-113513000D01*
X34268699Y-113513000D01*
X34089604Y-113548624D01*
X33920901Y-113618504D01*
X33769072Y-113719952D01*
X33737776Y-113751248D01*
X33613582Y-113699805D01*
X33434487Y-113664181D01*
X33251885Y-113664181D01*
X33072790Y-113699805D01*
X32904087Y-113769685D01*
X32752258Y-113871133D01*
X32623138Y-114000253D01*
X32521690Y-114152082D01*
X32451810Y-114320785D01*
X32416186Y-114499880D01*
X32416186Y-114682482D01*
X32451810Y-114861577D01*
X32521690Y-115030280D01*
X32623138Y-115182109D01*
X32691186Y-115250157D01*
X32691186Y-117666847D01*
X32571301Y-117643000D01*
X32388699Y-117643000D01*
X32209604Y-117678624D01*
X32040901Y-117748504D01*
X31889072Y-117849952D01*
X31759952Y-117979072D01*
X31658504Y-118130901D01*
X31588624Y-118299604D01*
X31584965Y-118317999D01*
X29340066Y-118317999D01*
X28377000Y-117354934D01*
X28377000Y-117258699D01*
X28341376Y-117079604D01*
X28271496Y-116910901D01*
X28170048Y-116759072D01*
X28040928Y-116629952D01*
X27889099Y-116528504D01*
X27720396Y-116458624D01*
X27541301Y-116423000D01*
X27358699Y-116423000D01*
X27179604Y-116458624D01*
X27010901Y-116528504D01*
X26859072Y-116629952D01*
X26729952Y-116759072D01*
X26628504Y-116910901D01*
X26558624Y-117079604D01*
X26523000Y-117258699D01*
X26523000Y-117441301D01*
X26558624Y-117620396D01*
X26628504Y-117789099D01*
X26729952Y-117940928D01*
X26859072Y-118070048D01*
X27010901Y-118171496D01*
X27179604Y-118241376D01*
X27358699Y-118277000D01*
X27454934Y-118277000D01*
X28586319Y-119408386D01*
X28606735Y-119433263D01*
X28706015Y-119514740D01*
X28819282Y-119575282D01*
X28824946Y-119577000D01*
X28942184Y-119612564D01*
X29069999Y-119625153D01*
X29102021Y-119621999D01*
X32047979Y-119621999D01*
X32080001Y-119625153D01*
X32112023Y-119621999D01*
X32207815Y-119612564D01*
X32330718Y-119575282D01*
X32443985Y-119514740D01*
X32465601Y-119497000D01*
X32571301Y-119497000D01*
X32691187Y-119473153D01*
X32691187Y-120911164D01*
X32688032Y-120943196D01*
X32700621Y-121071010D01*
X32737903Y-121193912D01*
X32737904Y-121193913D01*
X32798446Y-121307180D01*
X32879923Y-121406460D01*
X32904800Y-121426876D01*
X33072990Y-121595066D01*
X33072990Y-121691301D01*
X33108614Y-121870396D01*
X33178494Y-122039099D01*
X33279942Y-122190928D01*
X33409062Y-122320048D01*
X33560891Y-122421496D01*
X33729594Y-122491376D01*
X33908689Y-122527000D01*
X34091291Y-122527000D01*
X34270386Y-122491376D01*
X34439089Y-122421496D01*
X34451244Y-122413374D01*
X34487770Y-122437780D01*
X34656473Y-122507660D01*
X34835568Y-122543284D01*
X35018170Y-122543284D01*
X35197265Y-122507660D01*
X35365968Y-122437780D01*
X35517797Y-122336332D01*
X35646917Y-122207212D01*
X35748365Y-122055383D01*
X35818245Y-121886680D01*
X35853869Y-121707585D01*
X35853869Y-121524983D01*
X35818245Y-121345888D01*
X35748365Y-121177185D01*
X35646917Y-121025356D01*
X35578869Y-120957308D01*
X35578869Y-119249845D01*
X35699072Y-119370048D01*
X35850901Y-119471496D01*
X36019604Y-119541376D01*
X36198699Y-119577000D01*
X36381301Y-119577000D01*
X36560396Y-119541376D01*
X36729099Y-119471496D01*
X36880928Y-119370048D01*
X36998976Y-119252000D01*
X43387024Y-119252000D01*
X43329952Y-119309072D01*
X43228504Y-119460901D01*
X43158624Y-119629604D01*
X43123000Y-119808699D01*
X43123000Y-119991301D01*
X43158624Y-120170396D01*
X43228504Y-120339099D01*
X43269000Y-120399706D01*
X43269001Y-122986631D01*
X43269000Y-122986641D01*
X43269001Y-123800788D01*
X43229604Y-123808624D01*
X43060901Y-123878504D01*
X42909072Y-123979952D01*
X42779952Y-124109072D01*
X42678504Y-124260901D01*
X42608624Y-124429604D01*
X42573000Y-124608699D01*
X42573000Y-124791301D01*
X42608624Y-124970396D01*
X42678504Y-125139099D01*
X42779952Y-125290928D01*
X42909072Y-125420048D01*
X42950904Y-125447999D01*
X42034231Y-125447999D01*
X42066376Y-125370396D01*
X42102000Y-125191301D01*
X42102000Y-125008699D01*
X42066376Y-124829604D01*
X41996496Y-124660901D01*
X41895048Y-124509072D01*
X41765928Y-124379952D01*
X41614099Y-124278504D01*
X41445396Y-124208624D01*
X41373903Y-124194403D01*
X41304379Y-124124879D01*
X41279922Y-124095078D01*
X41160999Y-123997481D01*
X41025322Y-123924960D01*
X40878103Y-123880301D01*
X40763360Y-123869000D01*
X40763357Y-123869000D01*
X40725000Y-123865222D01*
X40686643Y-123869000D01*
X31449706Y-123869000D01*
X31389099Y-123828504D01*
X31220396Y-123758624D01*
X31041301Y-123723000D01*
X30858699Y-123723000D01*
X30679604Y-123758624D01*
X30510901Y-123828504D01*
X30359072Y-123929952D01*
X30229952Y-124059072D01*
X30128504Y-124210901D01*
X30092426Y-124298000D01*
X24040067Y-124298000D01*
X23823977Y-124081911D01*
X23824083Y-124081656D01*
X23877000Y-123815623D01*
X23877000Y-123544377D01*
X23824083Y-123278344D01*
X23720282Y-123027746D01*
X23569586Y-122802213D01*
X23377787Y-122610414D01*
X23152254Y-122459718D01*
X23032224Y-122410000D01*
X23152254Y-122360282D01*
X23377787Y-122209586D01*
X23569586Y-122017787D01*
X23720282Y-121792254D01*
X23824083Y-121541656D01*
X23877000Y-121275623D01*
X23877000Y-121004377D01*
X23824083Y-120738344D01*
X23720282Y-120487746D01*
X23569586Y-120262213D01*
X23377787Y-120070414D01*
X23152254Y-119919718D01*
X23032224Y-119870000D01*
X23152254Y-119820282D01*
X23377787Y-119669586D01*
X23569586Y-119477787D01*
X23720282Y-119252254D01*
X23824083Y-119001656D01*
X23877000Y-118735623D01*
X23877000Y-118464377D01*
X23824083Y-118198344D01*
X23720282Y-117947746D01*
X23569586Y-117722213D01*
X23377787Y-117530414D01*
X23152254Y-117379718D01*
X23032224Y-117330000D01*
X23152254Y-117280282D01*
X23377787Y-117129586D01*
X23569586Y-116937787D01*
X23720282Y-116712254D01*
X23824083Y-116461656D01*
X23877000Y-116195623D01*
X23877000Y-115924377D01*
X23824083Y-115658344D01*
X23720282Y-115407746D01*
X23569586Y-115182213D01*
X23377787Y-114990414D01*
X23152254Y-114839718D01*
X22901656Y-114735917D01*
X22635623Y-114683000D01*
X22364377Y-114683000D01*
X22250210Y-114705709D01*
X21599989Y-114055489D01*
X21599989Y-112027362D01*
X21622213Y-112049586D01*
X21847746Y-112200282D01*
X22098344Y-112304083D01*
X22364377Y-112357000D01*
X22635623Y-112357000D01*
X22901656Y-112304083D01*
X23152254Y-112200282D01*
X23377787Y-112049586D01*
X23569586Y-111857787D01*
X23720282Y-111632254D01*
X23770000Y-111512224D01*
X23819718Y-111632254D01*
X23970414Y-111857787D01*
X24162213Y-112049586D01*
X24387746Y-112200282D01*
X24638344Y-112304083D01*
X24904377Y-112357000D01*
X25175623Y-112357000D01*
X25441656Y-112304083D01*
X25692254Y-112200282D01*
X25917787Y-112049586D01*
X26109586Y-111857787D01*
X26259490Y-111633439D01*
X26274103Y-111632000D01*
X26369895Y-111622565D01*
X26492798Y-111585283D01*
X26606065Y-111524741D01*
X26705345Y-111443264D01*
X26725766Y-111418381D01*
X30352458Y-107791690D01*
X30377335Y-107771274D01*
X30458812Y-107671994D01*
X30519354Y-107558727D01*
X30556636Y-107435824D01*
X30569225Y-107308011D01*
X30566071Y-107275989D01*
X30566071Y-77013887D01*
X30569225Y-76981865D01*
X30556636Y-76854050D01*
X30527282Y-76757283D01*
X30519354Y-76731148D01*
X30458812Y-76617881D01*
X30377335Y-76518601D01*
X30352459Y-76498186D01*
X28402000Y-74547728D01*
X28402000Y-74250225D01*
X31813387Y-70838839D01*
X31838264Y-70818423D01*
X31919741Y-70719143D01*
X31980283Y-70605876D01*
X32004210Y-70527000D01*
X32017565Y-70482974D01*
X32030154Y-70355160D01*
X32027000Y-70323138D01*
X32027000Y-70258976D01*
X32095048Y-70190928D01*
X32196496Y-70039099D01*
X32266376Y-69870396D01*
X32302000Y-69691301D01*
X32302000Y-69508699D01*
X32266376Y-69329604D01*
X32196496Y-69160901D01*
X32095048Y-69009072D01*
X31965928Y-68879952D01*
X31814099Y-68778504D01*
X31645396Y-68708624D01*
X31466301Y-68673000D01*
X31283699Y-68673000D01*
X31104604Y-68708624D01*
X30935901Y-68778504D01*
X30784072Y-68879952D01*
X30654952Y-69009072D01*
X30553504Y-69160901D01*
X30483624Y-69329604D01*
X30448000Y-69508699D01*
X30448000Y-69691301D01*
X30483624Y-69870396D01*
X30553504Y-70039099D01*
X30639816Y-70168276D01*
X30119938Y-70688155D01*
X30039786Y-70608003D01*
X30081120Y-70546141D01*
X30151000Y-70377438D01*
X30186624Y-70198343D01*
X30186624Y-70015741D01*
X30151000Y-69836646D01*
X30081120Y-69667943D01*
X29979672Y-69516114D01*
X29850552Y-69386994D01*
X29698723Y-69285546D01*
X29530020Y-69215666D01*
X29350925Y-69180042D01*
X29255128Y-69180042D01*
X29282164Y-69044123D01*
X29282164Y-68861521D01*
X29246540Y-68682426D01*
X29176660Y-68513723D01*
X29075212Y-68361894D01*
X28946092Y-68232774D01*
X28794263Y-68131326D01*
X28777435Y-68124355D01*
X28799649Y-68091109D01*
X28869529Y-67922406D01*
X28905153Y-67743311D01*
X28905153Y-67560709D01*
X28869529Y-67381614D01*
X28799649Y-67212911D01*
X28698201Y-67061082D01*
X28569081Y-66931962D01*
X28417252Y-66830514D01*
X28373630Y-66812445D01*
X28422638Y-66739099D01*
X28492518Y-66570396D01*
X28528142Y-66391301D01*
X28528142Y-66208699D01*
X28492518Y-66029604D01*
X28422638Y-65860901D01*
X28321190Y-65709072D01*
X28192070Y-65579952D01*
X28040241Y-65478504D01*
X27929489Y-65432628D01*
X27944179Y-65417938D01*
X28045627Y-65266109D01*
X28115507Y-65097406D01*
X28151131Y-64918311D01*
X28151131Y-64735709D01*
X28115507Y-64556614D01*
X28045627Y-64387911D01*
X27944179Y-64236082D01*
X27815059Y-64106962D01*
X27663230Y-64005514D01*
X27494527Y-63935634D01*
X27315432Y-63900010D01*
X27132830Y-63900010D01*
X26953735Y-63935634D01*
X26785032Y-64005514D01*
X26633203Y-64106962D01*
X26504083Y-64236082D01*
X26402635Y-64387911D01*
X26332755Y-64556614D01*
X26297131Y-64735709D01*
X26297131Y-64831943D01*
X24699990Y-66429085D01*
X24699990Y-58086584D01*
X24704382Y-58041990D01*
X24699990Y-57997396D01*
X24699990Y-57997386D01*
X24686852Y-57863991D01*
X24634931Y-57692832D01*
X24623590Y-57671615D01*
X24550617Y-57535091D01*
X24465582Y-57431476D01*
X24465579Y-57431473D01*
X24437149Y-57396831D01*
X24402508Y-57368402D01*
X22958000Y-55923895D01*
X22958000Y-45433000D01*
X24963179Y-45433000D01*
X25058699Y-45452000D01*
X25241301Y-45452000D01*
X25420396Y-45416376D01*
X25589099Y-45346496D01*
X25740928Y-45245048D01*
X25870048Y-45115928D01*
X25971496Y-44964099D01*
X26041376Y-44795396D01*
X26077000Y-44616301D01*
X26077000Y-44433699D01*
X26041376Y-44254604D01*
X25971496Y-44085901D01*
X25870048Y-43934072D01*
X25740928Y-43804952D01*
X25589099Y-43703504D01*
X25420396Y-43633624D01*
X25241301Y-43598000D01*
X25058699Y-43598000D01*
X24963179Y-43617000D01*
X22958000Y-43617000D01*
X22958000Y-39682114D01*
X23231415Y-39408699D01*
X36623000Y-39408699D01*
X36623000Y-39591301D01*
X36642000Y-39686821D01*
X36642001Y-42230396D01*
X36637608Y-42275000D01*
X36655139Y-42452999D01*
X36707059Y-42624157D01*
X36791373Y-42781898D01*
X36875401Y-42884286D01*
X36929952Y-42965928D01*
X37059072Y-43095048D01*
X37210901Y-43196496D01*
X37379604Y-43266376D01*
X37558699Y-43302000D01*
X37741301Y-43302000D01*
X37920396Y-43266376D01*
X38089099Y-43196496D01*
X38240928Y-43095048D01*
X38370048Y-42965928D01*
X38471496Y-42814099D01*
X38541376Y-42645396D01*
X38577000Y-42466301D01*
X38577000Y-42283699D01*
X38541376Y-42104604D01*
X38471496Y-41935901D01*
X38458000Y-41915703D01*
X38458000Y-39686821D01*
X38477000Y-39591301D01*
X38477000Y-39408699D01*
X38441376Y-39229604D01*
X38371496Y-39060901D01*
X38270048Y-38909072D01*
X38140928Y-38779952D01*
X37989099Y-38678504D01*
X37820396Y-38608624D01*
X37641301Y-38573000D01*
X37458699Y-38573000D01*
X37279604Y-38608624D01*
X37110901Y-38678504D01*
X36959072Y-38779952D01*
X36829952Y-38909072D01*
X36728504Y-39060901D01*
X36658624Y-39229604D01*
X36623000Y-39408699D01*
X23231415Y-39408699D01*
X24067861Y-38572254D01*
X24186898Y-38508627D01*
X24325159Y-38395159D01*
X24353593Y-38360512D01*
X27806106Y-34908000D01*
X40472024Y-34908000D01*
X40534072Y-34970048D01*
X40685901Y-35071496D01*
X40854604Y-35141376D01*
X41033699Y-35177000D01*
X41216301Y-35177000D01*
X41395396Y-35141376D01*
X41564099Y-35071496D01*
X41715928Y-34970048D01*
X41845048Y-34840928D01*
X41946496Y-34689099D01*
X42016376Y-34520396D01*
X42052000Y-34341301D01*
X42052000Y-34158699D01*
X42016376Y-33979604D01*
X41946496Y-33810901D01*
X41845048Y-33659072D01*
X41715928Y-33529952D01*
X41634949Y-33475844D01*
X41548594Y-33389489D01*
X41520159Y-33354841D01*
X41381898Y-33241373D01*
X41224158Y-33157059D01*
X41052999Y-33105138D01*
X40919604Y-33092000D01*
X40919594Y-33092000D01*
X40875000Y-33087608D01*
X40830406Y-33092000D01*
X34865240Y-33092000D01*
X34944083Y-32901656D01*
X34997000Y-32635623D01*
X34997000Y-32364377D01*
X34944083Y-32098344D01*
X34840282Y-31847746D01*
X34689586Y-31622213D01*
X34497787Y-31430414D01*
X34272254Y-31279718D01*
X34152224Y-31230000D01*
X34272254Y-31180282D01*
X34497787Y-31029586D01*
X34689586Y-30837787D01*
X34840282Y-30612254D01*
X34944083Y-30361656D01*
X34997000Y-30095623D01*
X34997000Y-29824377D01*
X42403000Y-29824377D01*
X42403000Y-30095623D01*
X42455917Y-30361656D01*
X42559718Y-30612254D01*
X42710414Y-30837787D01*
X42902213Y-31029586D01*
X43127746Y-31180282D01*
X43247776Y-31230000D01*
X43127746Y-31279718D01*
X42902213Y-31430414D01*
X42710414Y-31622213D01*
X42559718Y-31847746D01*
X42455917Y-32098344D01*
X42403000Y-32364377D01*
X42403000Y-32635623D01*
X42455917Y-32901656D01*
X42559718Y-33152254D01*
X42710414Y-33377787D01*
X42902213Y-33569586D01*
X43127746Y-33720282D01*
X43378344Y-33824083D01*
X43644377Y-33877000D01*
X43915623Y-33877000D01*
X44181656Y-33824083D01*
X44432254Y-33720282D01*
X44657787Y-33569586D01*
X44849586Y-33377787D01*
X45000282Y-33152254D01*
X45104083Y-32901656D01*
X45157000Y-32635623D01*
X45157000Y-32364377D01*
X45104083Y-32098344D01*
X45000282Y-31847746D01*
X44849586Y-31622213D01*
X44657787Y-31430414D01*
X44432254Y-31279718D01*
X44312224Y-31230000D01*
X44432254Y-31180282D01*
X44657787Y-31029586D01*
X44849586Y-30837787D01*
X45000282Y-30612254D01*
X45104083Y-30361656D01*
X45157000Y-30095623D01*
X45157000Y-29824377D01*
X45104083Y-29558344D01*
X45000282Y-29307746D01*
X44849586Y-29082213D01*
X44657787Y-28890414D01*
X44432254Y-28739718D01*
X44181656Y-28635917D01*
X43915623Y-28583000D01*
X43644377Y-28583000D01*
X43378344Y-28635917D01*
X43127746Y-28739718D01*
X42902213Y-28890414D01*
X42710414Y-29082213D01*
X42559718Y-29307746D01*
X42455917Y-29558344D01*
X42403000Y-29824377D01*
X34997000Y-29824377D01*
X34944083Y-29558344D01*
X34840282Y-29307746D01*
X34689586Y-29082213D01*
X34497787Y-28890414D01*
X34272254Y-28739718D01*
X34021656Y-28635917D01*
X33755623Y-28583000D01*
X33484377Y-28583000D01*
X33218344Y-28635917D01*
X32967746Y-28739718D01*
X32742213Y-28890414D01*
X32550414Y-29082213D01*
X32399718Y-29307746D01*
X32350000Y-29427776D01*
X32300282Y-29307746D01*
X32149586Y-29082213D01*
X31957787Y-28890414D01*
X31732254Y-28739718D01*
X31481656Y-28635917D01*
X31215623Y-28583000D01*
X30944377Y-28583000D01*
X30678344Y-28635917D01*
X30427746Y-28739718D01*
X30202213Y-28890414D01*
X30010414Y-29082213D01*
X29859718Y-29307746D01*
X29810000Y-29427776D01*
X29760282Y-29307746D01*
X29609586Y-29082213D01*
X29417787Y-28890414D01*
X29192254Y-28739718D01*
X28941656Y-28635917D01*
X28675623Y-28583000D01*
X28404377Y-28583000D01*
X28138344Y-28635917D01*
X27887746Y-28739718D01*
X27662213Y-28890414D01*
X27470414Y-29082213D01*
X27319718Y-29307746D01*
X27270000Y-29427776D01*
X27220282Y-29307746D01*
X27069586Y-29082213D01*
X26877787Y-28890414D01*
X26652254Y-28739718D01*
X26401656Y-28635917D01*
X26135623Y-28583000D01*
X25864377Y-28583000D01*
X25598344Y-28635917D01*
X25347746Y-28739718D01*
X25122213Y-28890414D01*
X24930414Y-29082213D01*
X24779718Y-29307746D01*
X24675917Y-29558344D01*
X24623000Y-29824377D01*
X24623000Y-30095623D01*
X24675917Y-30361656D01*
X24779718Y-30612254D01*
X24930414Y-30837787D01*
X25122213Y-31029586D01*
X25258202Y-31120451D01*
X25150000Y-31120451D01*
X25046690Y-31130626D01*
X24947350Y-31160761D01*
X24855798Y-31209696D01*
X24775552Y-31275552D01*
X24709696Y-31355798D01*
X24660761Y-31447350D01*
X24630626Y-31546690D01*
X24620451Y-31650000D01*
X24620451Y-32658529D01*
X24524157Y-32607059D01*
X24352999Y-32555139D01*
X24174999Y-32537608D01*
X24069486Y-32548000D01*
X24058699Y-32548000D01*
X24048120Y-32550104D01*
X23997001Y-32555139D01*
X23947846Y-32570050D01*
X23879604Y-32583624D01*
X23710901Y-32653504D01*
X23559072Y-32754952D01*
X23429952Y-32884072D01*
X23328504Y-33035901D01*
X23258624Y-33204604D01*
X23223000Y-33383699D01*
X23223000Y-33566301D01*
X23258624Y-33745396D01*
X23328504Y-33914099D01*
X23429952Y-34065928D01*
X23559072Y-34195048D01*
X23710901Y-34296496D01*
X23879604Y-34366376D01*
X24058699Y-34402000D01*
X24241301Y-34402000D01*
X24420396Y-34366376D01*
X24589099Y-34296496D01*
X24740928Y-34195048D01*
X24870048Y-34065928D01*
X24971496Y-33914099D01*
X24996348Y-33854103D01*
X25046690Y-33869374D01*
X25150000Y-33879549D01*
X26266345Y-33879549D01*
X23486848Y-36659047D01*
X23420048Y-36559072D01*
X23290928Y-36429952D01*
X23139099Y-36328504D01*
X22970396Y-36258624D01*
X22791301Y-36223000D01*
X22608699Y-36223000D01*
X22513179Y-36242000D01*
X21998000Y-36242000D01*
X21998000Y-30336105D01*
X22609949Y-29724156D01*
X22690928Y-29670048D01*
X22820048Y-29540928D01*
X22921496Y-29389099D01*
X22991376Y-29220396D01*
X23027000Y-29041301D01*
X23027000Y-28858699D01*
X22991376Y-28679604D01*
X22921496Y-28510901D01*
X22820048Y-28359072D01*
X22690928Y-28229952D01*
X22539099Y-28128504D01*
X22370396Y-28058624D01*
X22191301Y-28023000D01*
X22008699Y-28023000D01*
X21829604Y-28058624D01*
X21660901Y-28128504D01*
X21509072Y-28229952D01*
X21379952Y-28359072D01*
X21325844Y-28440051D01*
X20877000Y-28888895D01*
X20877000Y-27202000D01*
X49948000Y-27202000D01*
X49948000Y-37693500D01*
G37*
%TD.AperFunction*%
D17*
X21622213Y-96809586D02*
X21847746Y-96960282D01*
X21967776Y-97010000D01*
X21847746Y-97059718D01*
X21622213Y-97210414D01*
X21599989Y-97232638D01*
X21599989Y-96787362D01*
X21622213Y-96809586D01*
%TA.AperFunction,Conductor*%
D18*
G36*
X21622213Y-96809586D02*
G01*
X21847746Y-96960282D01*
X21967776Y-97010000D01*
X21847746Y-97059718D01*
X21622213Y-97210414D01*
X21599989Y-97232638D01*
X21599989Y-96787362D01*
X21622213Y-96809586D01*
G37*
%TD.AperFunction*%
D17*
X26623000Y-95774933D02*
X26390851Y-96007082D01*
X26417000Y-95875623D01*
X26417000Y-95604377D01*
X26364083Y-95338344D01*
X26260282Y-95087746D01*
X26109586Y-94862213D01*
X25917787Y-94670414D01*
X25692254Y-94519718D01*
X25572224Y-94470000D01*
X25692254Y-94420282D01*
X25917787Y-94269586D01*
X26109586Y-94077787D01*
X26260282Y-93852254D01*
X26364083Y-93601656D01*
X26417000Y-93335623D01*
X26417000Y-93064377D01*
X26364083Y-92798344D01*
X26260282Y-92547746D01*
X26109586Y-92322213D01*
X25917787Y-92130414D01*
X25692254Y-91979718D01*
X25572224Y-91930000D01*
X25692254Y-91880282D01*
X25917787Y-91729586D01*
X26109586Y-91537787D01*
X26260282Y-91312254D01*
X26364083Y-91061656D01*
X26417000Y-90795623D01*
X26417000Y-90524377D01*
X26364083Y-90258344D01*
X26260282Y-90007746D01*
X26109586Y-89782213D01*
X25917787Y-89590414D01*
X25692254Y-89439718D01*
X25572224Y-89390000D01*
X25692254Y-89340282D01*
X25917787Y-89189586D01*
X26109586Y-88997787D01*
X26260282Y-88772254D01*
X26364083Y-88521656D01*
X26417000Y-88255623D01*
X26417000Y-87984377D01*
X26364083Y-87718344D01*
X26260282Y-87467746D01*
X26109586Y-87242213D01*
X25917787Y-87050414D01*
X25692254Y-86899718D01*
X25572224Y-86850000D01*
X25692254Y-86800282D01*
X25917787Y-86649586D01*
X26109586Y-86457787D01*
X26260282Y-86232254D01*
X26364083Y-85981656D01*
X26417000Y-85715623D01*
X26417000Y-85444377D01*
X26364083Y-85178344D01*
X26260282Y-84927746D01*
X26109586Y-84702213D01*
X25917787Y-84510414D01*
X25692254Y-84359718D01*
X25572224Y-84310000D01*
X25692254Y-84260282D01*
X25917787Y-84109586D01*
X26109586Y-83917787D01*
X26260282Y-83692254D01*
X26364083Y-83441656D01*
X26417000Y-83175623D01*
X26417000Y-82904377D01*
X26364083Y-82638344D01*
X26260282Y-82387746D01*
X26109586Y-82162213D01*
X25917787Y-81970414D01*
X25692254Y-81819718D01*
X25572224Y-81770000D01*
X25692254Y-81720282D01*
X25917787Y-81569586D01*
X26109586Y-81377787D01*
X26260282Y-81152254D01*
X26364083Y-80901656D01*
X26417000Y-80635623D01*
X26417000Y-80408269D01*
X26445159Y-80385159D01*
X26473589Y-80350517D01*
X26473592Y-80350514D01*
X26558627Y-80246899D01*
X26623001Y-80126463D01*
X26623000Y-95774933D01*
%TA.AperFunction,Conductor*%
D18*
G36*
X26623000Y-95774933D02*
G01*
X26390851Y-96007082D01*
X26417000Y-95875623D01*
X26417000Y-95604377D01*
X26364083Y-95338344D01*
X26260282Y-95087746D01*
X26109586Y-94862213D01*
X25917787Y-94670414D01*
X25692254Y-94519718D01*
X25572224Y-94470000D01*
X25692254Y-94420282D01*
X25917787Y-94269586D01*
X26109586Y-94077787D01*
X26260282Y-93852254D01*
X26364083Y-93601656D01*
X26417000Y-93335623D01*
X26417000Y-93064377D01*
X26364083Y-92798344D01*
X26260282Y-92547746D01*
X26109586Y-92322213D01*
X25917787Y-92130414D01*
X25692254Y-91979718D01*
X25572224Y-91930000D01*
X25692254Y-91880282D01*
X25917787Y-91729586D01*
X26109586Y-91537787D01*
X26260282Y-91312254D01*
X26364083Y-91061656D01*
X26417000Y-90795623D01*
X26417000Y-90524377D01*
X26364083Y-90258344D01*
X26260282Y-90007746D01*
X26109586Y-89782213D01*
X25917787Y-89590414D01*
X25692254Y-89439718D01*
X25572224Y-89390000D01*
X25692254Y-89340282D01*
X25917787Y-89189586D01*
X26109586Y-88997787D01*
X26260282Y-88772254D01*
X26364083Y-88521656D01*
X26417000Y-88255623D01*
X26417000Y-87984377D01*
X26364083Y-87718344D01*
X26260282Y-87467746D01*
X26109586Y-87242213D01*
X25917787Y-87050414D01*
X25692254Y-86899718D01*
X25572224Y-86850000D01*
X25692254Y-86800282D01*
X25917787Y-86649586D01*
X26109586Y-86457787D01*
X26260282Y-86232254D01*
X26364083Y-85981656D01*
X26417000Y-85715623D01*
X26417000Y-85444377D01*
X26364083Y-85178344D01*
X26260282Y-84927746D01*
X26109586Y-84702213D01*
X25917787Y-84510414D01*
X25692254Y-84359718D01*
X25572224Y-84310000D01*
X25692254Y-84260282D01*
X25917787Y-84109586D01*
X26109586Y-83917787D01*
X26260282Y-83692254D01*
X26364083Y-83441656D01*
X26417000Y-83175623D01*
X26417000Y-82904377D01*
X26364083Y-82638344D01*
X26260282Y-82387746D01*
X26109586Y-82162213D01*
X25917787Y-81970414D01*
X25692254Y-81819718D01*
X25572224Y-81770000D01*
X25692254Y-81720282D01*
X25917787Y-81569586D01*
X26109586Y-81377787D01*
X26260282Y-81152254D01*
X26364083Y-80901656D01*
X26417000Y-80635623D01*
X26417000Y-80408269D01*
X26445159Y-80385159D01*
X26473589Y-80350517D01*
X26473592Y-80350514D01*
X26558627Y-80246899D01*
X26623001Y-80126463D01*
X26623000Y-95774933D01*
G37*
%TD.AperFunction*%
D17*
X23819718Y-86232254D02*
X23970414Y-86457787D01*
X24162213Y-86649586D01*
X24387746Y-86800282D01*
X24507776Y-86850000D01*
X24387746Y-86899718D01*
X24162213Y-87050414D01*
X23970414Y-87242213D01*
X23819718Y-87467746D01*
X23770000Y-87587776D01*
X23720282Y-87467746D01*
X23569586Y-87242213D01*
X23377787Y-87050414D01*
X23152254Y-86899718D01*
X23032224Y-86850000D01*
X23152254Y-86800282D01*
X23377787Y-86649586D01*
X23569586Y-86457787D01*
X23720282Y-86232254D01*
X23770000Y-86112224D01*
X23819718Y-86232254D01*
%TA.AperFunction,Conductor*%
D18*
G36*
X23819718Y-86232254D02*
G01*
X23970414Y-86457787D01*
X24162213Y-86649586D01*
X24387746Y-86800282D01*
X24507776Y-86850000D01*
X24387746Y-86899718D01*
X24162213Y-87050414D01*
X23970414Y-87242213D01*
X23819718Y-87467746D01*
X23770000Y-87587776D01*
X23720282Y-87467746D01*
X23569586Y-87242213D01*
X23377787Y-87050414D01*
X23152254Y-86899718D01*
X23032224Y-86850000D01*
X23152254Y-86800282D01*
X23377787Y-86649586D01*
X23569586Y-86457787D01*
X23720282Y-86232254D01*
X23770000Y-86112224D01*
X23819718Y-86232254D01*
G37*
%TD.AperFunction*%
D17*
X21622213Y-86649586D02*
X21847746Y-86800282D01*
X21967776Y-86850000D01*
X21847746Y-86899718D01*
X21622213Y-87050414D01*
X21599989Y-87072638D01*
X21599989Y-86627362D01*
X21622213Y-86649586D01*
%TA.AperFunction,Conductor*%
D18*
G36*
X21622213Y-86649586D02*
G01*
X21847746Y-86800282D01*
X21967776Y-86850000D01*
X21847746Y-86899718D01*
X21622213Y-87050414D01*
X21599989Y-87072638D01*
X21599989Y-86627362D01*
X21622213Y-86649586D01*
G37*
%TD.AperFunction*%
D17*
X49119000Y-84716303D02*
X49109586Y-84702213D01*
X48917787Y-84510414D01*
X48692254Y-84359718D01*
X48572224Y-84310000D01*
X48692254Y-84260282D01*
X48917787Y-84109586D01*
X49109586Y-83917787D01*
X49119000Y-83903697D01*
X49119000Y-84716303D01*
%TA.AperFunction,Conductor*%
D18*
G36*
X49119000Y-84716303D02*
G01*
X49109586Y-84702213D01*
X48917787Y-84510414D01*
X48692254Y-84359718D01*
X48572224Y-84310000D01*
X48692254Y-84260282D01*
X48917787Y-84109586D01*
X49109586Y-83917787D01*
X49119000Y-83903697D01*
X49119000Y-84716303D01*
G37*
%TD.AperFunction*%
D17*
X46801786Y-83648962D02*
X46792022Y-83648000D01*
X46760000Y-83644846D01*
X46739065Y-83646908D01*
X46770000Y-83572224D01*
X46801786Y-83648962D01*
%TA.AperFunction,Conductor*%
D18*
G36*
X46801786Y-83648962D02*
G01*
X46792022Y-83648000D01*
X46760000Y-83644846D01*
X46739065Y-83646908D01*
X46770000Y-83572224D01*
X46801786Y-83648962D01*
G37*
%TD.AperFunction*%
D17*
X22883990Y-58418096D02*
X22883991Y-76167386D01*
X22879598Y-76211990D01*
X22897129Y-76389989D01*
X22949049Y-76561147D01*
X23033363Y-76718888D01*
X23118398Y-76822503D01*
X23118402Y-76822507D01*
X23146832Y-76857149D01*
X23181474Y-76885579D01*
X23203908Y-76908013D01*
X24892000Y-78596106D01*
X24892001Y-79125462D01*
X24638344Y-79175917D01*
X24387746Y-79279718D01*
X24162213Y-79430414D01*
X23970414Y-79622213D01*
X23819718Y-79847746D01*
X23715917Y-80098344D01*
X23663000Y-80364377D01*
X23663000Y-80635623D01*
X23715917Y-80901656D01*
X23819718Y-81152254D01*
X23970414Y-81377787D01*
X24162213Y-81569586D01*
X24387746Y-81720282D01*
X24507776Y-81770000D01*
X24387746Y-81819718D01*
X24162213Y-81970414D01*
X23970414Y-82162213D01*
X23819718Y-82387746D01*
X23770000Y-82507776D01*
X23720282Y-82387746D01*
X23569586Y-82162213D01*
X23377787Y-81970414D01*
X23152254Y-81819718D01*
X22901656Y-81715917D01*
X22635623Y-81663000D01*
X22407105Y-81663000D01*
X21998000Y-81253895D01*
X21998000Y-57532105D01*
X22883990Y-58418096D01*
%TA.AperFunction,Conductor*%
D18*
G36*
X22883990Y-58418096D02*
G01*
X22883991Y-76167386D01*
X22879598Y-76211990D01*
X22897129Y-76389989D01*
X22949049Y-76561147D01*
X23033363Y-76718888D01*
X23118398Y-76822503D01*
X23118402Y-76822507D01*
X23146832Y-76857149D01*
X23181474Y-76885579D01*
X23203908Y-76908013D01*
X24892000Y-78596106D01*
X24892001Y-79125462D01*
X24638344Y-79175917D01*
X24387746Y-79279718D01*
X24162213Y-79430414D01*
X23970414Y-79622213D01*
X23819718Y-79847746D01*
X23715917Y-80098344D01*
X23663000Y-80364377D01*
X23663000Y-80635623D01*
X23715917Y-80901656D01*
X23819718Y-81152254D01*
X23970414Y-81377787D01*
X24162213Y-81569586D01*
X24387746Y-81720282D01*
X24507776Y-81770000D01*
X24387746Y-81819718D01*
X24162213Y-81970414D01*
X23970414Y-82162213D01*
X23819718Y-82387746D01*
X23770000Y-82507776D01*
X23720282Y-82387746D01*
X23569586Y-82162213D01*
X23377787Y-81970414D01*
X23152254Y-81819718D01*
X22901656Y-81715917D01*
X22635623Y-81663000D01*
X22407105Y-81663000D01*
X21998000Y-81253895D01*
X21998000Y-57532105D01*
X22883990Y-58418096D01*
G37*
%TD.AperFunction*%
D17*
X47323000Y-78129933D02*
X46336614Y-79116320D01*
X46311737Y-79136736D01*
X46230260Y-79236016D01*
X46206901Y-79279718D01*
X46169717Y-79349284D01*
X46132435Y-79472186D01*
X46119846Y-79600000D01*
X46123001Y-79632032D01*
X46123000Y-81742978D01*
X46119846Y-81775000D01*
X46123059Y-81807625D01*
X45901656Y-81715917D01*
X45635623Y-81663000D01*
X45364377Y-81663000D01*
X45250209Y-81685709D01*
X44581000Y-81016500D01*
X44581000Y-78423500D01*
X47261404Y-75743096D01*
X47323000Y-75730844D01*
X47323000Y-78129933D01*
%TA.AperFunction,Conductor*%
D18*
G36*
X47323000Y-78129933D02*
G01*
X46336614Y-79116320D01*
X46311737Y-79136736D01*
X46230260Y-79236016D01*
X46206901Y-79279718D01*
X46169717Y-79349284D01*
X46132435Y-79472186D01*
X46119846Y-79600000D01*
X46123001Y-79632032D01*
X46123000Y-81742978D01*
X46119846Y-81775000D01*
X46123059Y-81807625D01*
X45901656Y-81715917D01*
X45635623Y-81663000D01*
X45364377Y-81663000D01*
X45250209Y-81685709D01*
X44581000Y-81016500D01*
X44581000Y-78423500D01*
X47261404Y-75743096D01*
X47323000Y-75730844D01*
X47323000Y-78129933D01*
G37*
%TD.AperFunction*%
%TD*%
D17*
%TO.N,3v3*%
X48473000Y-38580235D02*
X48473000Y-45323000D01*
X41527000Y-45323000D01*
X41527000Y-38177000D01*
X48069765Y-38177000D01*
X48473000Y-38580235D01*
%TA.AperFunction,Conductor*%
D18*
G36*
X48473000Y-38580235D02*
G01*
X48473000Y-45323000D01*
X41527000Y-45323000D01*
X41527000Y-38177000D01*
X48069765Y-38177000D01*
X48473000Y-38580235D01*
G37*
%TD.AperFunction*%
%TD*%
M02*
