%TF.GenerationSoftware,KiCad,Pcbnew,5.1.9+dfsg1-1*%
%TF.CreationDate,2021-03-03T14:05:15+01:00*%
%TF.ProjectId,rootcore,726f6f74-636f-4726-952e-6b696361645f,rev?*%
%TF.SameCoordinates,Original*%
%TF.FileFunction,Legend,Top*%
%TF.FilePolarity,Positive*%
%FSLAX46Y46*%
G04 Gerber Fmt 4.6, Leading zero omitted, Abs format (unit mm)*
G04 Created by KiCad (PCBNEW 5.1.9+dfsg1-1) date 2021-03-03 14:05:15*
%MOMM*%
%LPD*%
G01*
G04 APERTURE LIST*
%ADD10C,0.180000*%
%ADD11C,0.170000*%
%ADD12C,0.200000*%
%ADD13C,0.150000*%
%ADD14C,0.120000*%
%ADD15R,3.200000X1.300000*%
%ADD16R,2.100000X1.800000*%
%ADD17R,0.900000X0.800000*%
%ADD18R,1.700000X1.700000*%
%ADD19O,1.700000X1.700000*%
%ADD20R,2.000000X3.800000*%
%ADD21R,2.000000X1.500000*%
%ADD22C,0.100000*%
G04 APERTURE END LIST*
D10*
X32091904Y-50161904D02*
X31825238Y-49780952D01*
X31634761Y-50161904D02*
X31634761Y-49361904D01*
X31939523Y-49361904D01*
X32015714Y-49400000D01*
X32053809Y-49438095D01*
X32091904Y-49514285D01*
X32091904Y-49628571D01*
X32053809Y-49704761D01*
X32015714Y-49742857D01*
X31939523Y-49780952D01*
X31634761Y-49780952D01*
X32396666Y-50123809D02*
X32510952Y-50161904D01*
X32701428Y-50161904D01*
X32777619Y-50123809D01*
X32815714Y-50085714D01*
X32853809Y-50009523D01*
X32853809Y-49933333D01*
X32815714Y-49857142D01*
X32777619Y-49819047D01*
X32701428Y-49780952D01*
X32549047Y-49742857D01*
X32472857Y-49704761D01*
X32434761Y-49666666D01*
X32396666Y-49590476D01*
X32396666Y-49514285D01*
X32434761Y-49438095D01*
X32472857Y-49400000D01*
X32549047Y-49361904D01*
X32739523Y-49361904D01*
X32853809Y-49400000D01*
X33082380Y-49361904D02*
X33539523Y-49361904D01*
X33310952Y-50161904D02*
X33310952Y-49361904D01*
X35587142Y-49692857D02*
X35701428Y-49730952D01*
X35739523Y-49769047D01*
X35777619Y-49845238D01*
X35777619Y-49959523D01*
X35739523Y-50035714D01*
X35701428Y-50073809D01*
X35625238Y-50111904D01*
X35320476Y-50111904D01*
X35320476Y-49311904D01*
X35587142Y-49311904D01*
X35663333Y-49350000D01*
X35701428Y-49388095D01*
X35739523Y-49464285D01*
X35739523Y-49540476D01*
X35701428Y-49616666D01*
X35663333Y-49654761D01*
X35587142Y-49692857D01*
X35320476Y-49692857D01*
X42937619Y-54781904D02*
X43432857Y-54781904D01*
X43166190Y-55086666D01*
X43280476Y-55086666D01*
X43356666Y-55124761D01*
X43394761Y-55162857D01*
X43432857Y-55239047D01*
X43432857Y-55429523D01*
X43394761Y-55505714D01*
X43356666Y-55543809D01*
X43280476Y-55581904D01*
X43051904Y-55581904D01*
X42975714Y-55543809D01*
X42937619Y-55505714D01*
X43699523Y-55048571D02*
X43890000Y-55581904D01*
X44080476Y-55048571D01*
X44309047Y-54781904D02*
X44804285Y-54781904D01*
X44537619Y-55086666D01*
X44651904Y-55086666D01*
X44728095Y-55124761D01*
X44766190Y-55162857D01*
X44804285Y-55239047D01*
X44804285Y-55429523D01*
X44766190Y-55505714D01*
X44728095Y-55543809D01*
X44651904Y-55581904D01*
X44423333Y-55581904D01*
X44347142Y-55543809D01*
X44309047Y-55505714D01*
X36980476Y-47530000D02*
X36904285Y-47491904D01*
X36790000Y-47491904D01*
X36675714Y-47530000D01*
X36599523Y-47606190D01*
X36561428Y-47682380D01*
X36523333Y-47834761D01*
X36523333Y-47949047D01*
X36561428Y-48101428D01*
X36599523Y-48177619D01*
X36675714Y-48253809D01*
X36790000Y-48291904D01*
X36866190Y-48291904D01*
X36980476Y-48253809D01*
X37018571Y-48215714D01*
X37018571Y-47949047D01*
X36866190Y-47949047D01*
X37361428Y-48291904D02*
X37361428Y-47491904D01*
X37818571Y-48291904D01*
X37818571Y-47491904D01*
X38199523Y-48291904D02*
X38199523Y-47491904D01*
X38390000Y-47491904D01*
X38504285Y-47530000D01*
X38580476Y-47606190D01*
X38618571Y-47682380D01*
X38656666Y-47834761D01*
X38656666Y-47949047D01*
X38618571Y-48101428D01*
X38580476Y-48177619D01*
X38504285Y-48253809D01*
X38390000Y-48291904D01*
X38199523Y-48291904D01*
X40523809Y-52065714D02*
X40485714Y-52103809D01*
X40371428Y-52141904D01*
X40295238Y-52141904D01*
X40180952Y-52103809D01*
X40104761Y-52027619D01*
X40066666Y-51951428D01*
X40028571Y-51799047D01*
X40028571Y-51684761D01*
X40066666Y-51532380D01*
X40104761Y-51456190D01*
X40180952Y-51380000D01*
X40295238Y-51341904D01*
X40371428Y-51341904D01*
X40485714Y-51380000D01*
X40523809Y-51418095D01*
X41247619Y-52141904D02*
X40866666Y-52141904D01*
X40866666Y-51341904D01*
X41514285Y-52141904D02*
X41514285Y-51341904D01*
X41971428Y-52141904D02*
X41628571Y-51684761D01*
X41971428Y-51341904D02*
X41514285Y-51799047D01*
D11*
X44820952Y-49951904D02*
X44820952Y-49151904D01*
X45011428Y-49151904D01*
X45125714Y-49190000D01*
X45201904Y-49266190D01*
X45240000Y-49342380D01*
X45278095Y-49494761D01*
X45278095Y-49609047D01*
X45240000Y-49761428D01*
X45201904Y-49837619D01*
X45125714Y-49913809D01*
X45011428Y-49951904D01*
X44820952Y-49951904D01*
X45620952Y-49951904D02*
X45620952Y-49151904D01*
X46154285Y-49151904D02*
X46306666Y-49151904D01*
X46382857Y-49190000D01*
X46459047Y-49266190D01*
X46497142Y-49418571D01*
X46497142Y-49685238D01*
X46459047Y-49837619D01*
X46382857Y-49913809D01*
X46306666Y-49951904D01*
X46154285Y-49951904D01*
X46078095Y-49913809D01*
X46001904Y-49837619D01*
X45963809Y-49685238D01*
X45963809Y-49418571D01*
X46001904Y-49266190D01*
X46078095Y-49190000D01*
X46154285Y-49151904D01*
D12*
X30730952Y-84702380D02*
X30730952Y-85416666D01*
X30683333Y-85559523D01*
X30588095Y-85654761D01*
X30445238Y-85702380D01*
X30350000Y-85702380D01*
X31683333Y-85702380D02*
X31207142Y-85702380D01*
X31207142Y-84702380D01*
X32588095Y-85607142D02*
X32540476Y-85654761D01*
X32397619Y-85702380D01*
X32302380Y-85702380D01*
X32159523Y-85654761D01*
X32064285Y-85559523D01*
X32016666Y-85464285D01*
X31969047Y-85273809D01*
X31969047Y-85130952D01*
X32016666Y-84940476D01*
X32064285Y-84845238D01*
X32159523Y-84750000D01*
X32302380Y-84702380D01*
X32397619Y-84702380D01*
X32540476Y-84750000D01*
X32588095Y-84797619D01*
X33302380Y-84702380D02*
X33302380Y-85416666D01*
X33254761Y-85559523D01*
X33159523Y-85654761D01*
X33016666Y-85702380D01*
X32921428Y-85702380D01*
X34254761Y-85702380D02*
X33778571Y-85702380D01*
X33778571Y-84702380D01*
X35159523Y-85607142D02*
X35111904Y-85654761D01*
X34969047Y-85702380D01*
X34873809Y-85702380D01*
X34730952Y-85654761D01*
X34635714Y-85559523D01*
X34588095Y-85464285D01*
X34540476Y-85273809D01*
X34540476Y-85130952D01*
X34588095Y-84940476D01*
X34635714Y-84845238D01*
X34730952Y-84750000D01*
X34873809Y-84702380D01*
X34969047Y-84702380D01*
X35111904Y-84750000D01*
X35159523Y-84797619D01*
X35873809Y-84702380D02*
X35873809Y-85416666D01*
X35826190Y-85559523D01*
X35730952Y-85654761D01*
X35588095Y-85702380D01*
X35492857Y-85702380D01*
X36826190Y-85702380D02*
X36350000Y-85702380D01*
X36350000Y-84702380D01*
X37730952Y-85607142D02*
X37683333Y-85654761D01*
X37540476Y-85702380D01*
X37445238Y-85702380D01*
X37302380Y-85654761D01*
X37207142Y-85559523D01*
X37159523Y-85464285D01*
X37111904Y-85273809D01*
X37111904Y-85130952D01*
X37159523Y-84940476D01*
X37207142Y-84845238D01*
X37302380Y-84750000D01*
X37445238Y-84702380D01*
X37540476Y-84702380D01*
X37683333Y-84750000D01*
X37730952Y-84797619D01*
X38445238Y-84702380D02*
X38445238Y-85416666D01*
X38397619Y-85559523D01*
X38302380Y-85654761D01*
X38159523Y-85702380D01*
X38064285Y-85702380D01*
X39397619Y-85702380D02*
X38921428Y-85702380D01*
X38921428Y-84702380D01*
X40302380Y-85607142D02*
X40254761Y-85654761D01*
X40111904Y-85702380D01*
X40016666Y-85702380D01*
X39873809Y-85654761D01*
X39778571Y-85559523D01*
X39730952Y-85464285D01*
X39683333Y-85273809D01*
X39683333Y-85130952D01*
X39730952Y-84940476D01*
X39778571Y-84845238D01*
X39873809Y-84750000D01*
X40016666Y-84702380D01*
X40111904Y-84702380D01*
X40254761Y-84750000D01*
X40302380Y-84797619D01*
D13*
X30407142Y-76028571D02*
X29907142Y-75314285D01*
X29550000Y-76028571D02*
X29550000Y-74528571D01*
X30121428Y-74528571D01*
X30264285Y-74600000D01*
X30335714Y-74671428D01*
X30407142Y-74814285D01*
X30407142Y-75028571D01*
X30335714Y-75171428D01*
X30264285Y-75242857D01*
X30121428Y-75314285D01*
X29550000Y-75314285D01*
X31335714Y-74528571D02*
X31621428Y-74528571D01*
X31764285Y-74600000D01*
X31907142Y-74742857D01*
X31978571Y-75028571D01*
X31978571Y-75528571D01*
X31907142Y-75814285D01*
X31764285Y-75957142D01*
X31621428Y-76028571D01*
X31335714Y-76028571D01*
X31192857Y-75957142D01*
X31050000Y-75814285D01*
X30978571Y-75528571D01*
X30978571Y-75028571D01*
X31050000Y-74742857D01*
X31192857Y-74600000D01*
X31335714Y-74528571D01*
X32907142Y-74528571D02*
X33192857Y-74528571D01*
X33335714Y-74600000D01*
X33478571Y-74742857D01*
X33550000Y-75028571D01*
X33550000Y-75528571D01*
X33478571Y-75814285D01*
X33335714Y-75957142D01*
X33192857Y-76028571D01*
X32907142Y-76028571D01*
X32764285Y-75957142D01*
X32621428Y-75814285D01*
X32550000Y-75528571D01*
X32550000Y-75028571D01*
X32621428Y-74742857D01*
X32764285Y-74600000D01*
X32907142Y-74528571D01*
X33978571Y-74528571D02*
X34835714Y-74528571D01*
X34407142Y-76028571D02*
X34407142Y-74528571D01*
X36192857Y-75885714D02*
X36121428Y-75957142D01*
X35907142Y-76028571D01*
X35764285Y-76028571D01*
X35550000Y-75957142D01*
X35407142Y-75814285D01*
X35335714Y-75671428D01*
X35264285Y-75385714D01*
X35264285Y-75171428D01*
X35335714Y-74885714D01*
X35407142Y-74742857D01*
X35550000Y-74600000D01*
X35764285Y-74528571D01*
X35907142Y-74528571D01*
X36121428Y-74600000D01*
X36192857Y-74671428D01*
X37121428Y-74528571D02*
X37407142Y-74528571D01*
X37550000Y-74600000D01*
X37692857Y-74742857D01*
X37764285Y-75028571D01*
X37764285Y-75528571D01*
X37692857Y-75814285D01*
X37550000Y-75957142D01*
X37407142Y-76028571D01*
X37121428Y-76028571D01*
X36978571Y-75957142D01*
X36835714Y-75814285D01*
X36764285Y-75528571D01*
X36764285Y-75028571D01*
X36835714Y-74742857D01*
X36978571Y-74600000D01*
X37121428Y-74528571D01*
X39264285Y-76028571D02*
X38764285Y-75314285D01*
X38407142Y-76028571D02*
X38407142Y-74528571D01*
X38978571Y-74528571D01*
X39121428Y-74600000D01*
X39192857Y-74671428D01*
X39264285Y-74814285D01*
X39264285Y-75028571D01*
X39192857Y-75171428D01*
X39121428Y-75242857D01*
X38978571Y-75314285D01*
X38407142Y-75314285D01*
X39907142Y-75242857D02*
X40407142Y-75242857D01*
X40621428Y-76028571D02*
X39907142Y-76028571D01*
X39907142Y-74528571D01*
X40621428Y-74528571D01*
X38173809Y-34430952D02*
X39126190Y-34430952D01*
X38364285Y-34716666D02*
X38935714Y-34716666D01*
X38650000Y-34002380D02*
X38650000Y-34430952D01*
X38745238Y-35002380D02*
X38554761Y-35002380D01*
X38123809Y-27980952D02*
X39076190Y-27980952D01*
X38314285Y-28266666D02*
X38885714Y-28266666D01*
X38600000Y-27552380D02*
X38600000Y-27980952D01*
X38695238Y-28552380D02*
X38504761Y-28552380D01*
X43369047Y-34671428D02*
X44130952Y-34671428D01*
X43369047Y-27771428D02*
X44130952Y-27771428D01*
X33269047Y-27621428D02*
X34030952Y-27621428D01*
X33650000Y-28002380D02*
X33650000Y-27240476D01*
X33219047Y-34146428D02*
X33980952Y-34146428D01*
X33600000Y-34527380D02*
X33600000Y-33765476D01*
X29661904Y-34521428D02*
X30423809Y-34521428D01*
X30042857Y-34902380D02*
X30042857Y-34140476D01*
X31376190Y-33902380D02*
X30900000Y-33902380D01*
X30852380Y-34378571D01*
X30900000Y-34330952D01*
X30995238Y-34283333D01*
X31233333Y-34283333D01*
X31328571Y-34330952D01*
X31376190Y-34378571D01*
X31423809Y-34473809D01*
X31423809Y-34711904D01*
X31376190Y-34807142D01*
X31328571Y-34854761D01*
X31233333Y-34902380D01*
X30995238Y-34902380D01*
X30900000Y-34854761D01*
X30852380Y-34807142D01*
X31757142Y-34235714D02*
X31995238Y-34902380D01*
X32233333Y-34235714D01*
X29611904Y-28021428D02*
X30373809Y-28021428D01*
X29992857Y-28402380D02*
X29992857Y-27640476D01*
X31326190Y-27402380D02*
X30850000Y-27402380D01*
X30802380Y-27878571D01*
X30850000Y-27830952D01*
X30945238Y-27783333D01*
X31183333Y-27783333D01*
X31278571Y-27830952D01*
X31326190Y-27878571D01*
X31373809Y-27973809D01*
X31373809Y-28211904D01*
X31326190Y-28307142D01*
X31278571Y-28354761D01*
X31183333Y-28402380D01*
X30945238Y-28402380D01*
X30850000Y-28354761D01*
X30802380Y-28307142D01*
X31707142Y-27735714D02*
X31945238Y-28402380D01*
X32183333Y-27735714D01*
D14*
%TO.C,Y1*%
X34425000Y-39475000D02*
X29025000Y-39475000D01*
X34425000Y-43975000D02*
X34425000Y-39475000D01*
%TO.C,C19*%
X43523752Y-34815000D02*
X43001248Y-34815000D01*
X43523752Y-36285000D02*
X43001248Y-36285000D01*
%TO.C,L1*%
X24060242Y-47965000D02*
X23239758Y-47965000D01*
X24060242Y-49085000D02*
X23239758Y-49085000D01*
%TO.C,C17*%
X23413748Y-47110000D02*
X23936252Y-47110000D01*
X23413748Y-45640000D02*
X23936252Y-45640000D01*
%TO.C,U4*%
X23860000Y-59480000D02*
X22400000Y-59480000D01*
X23860000Y-56320000D02*
X21700000Y-56320000D01*
X23860000Y-56320000D02*
X23860000Y-57250000D01*
X23860000Y-59480000D02*
X23860000Y-58550000D01*
%TO.C,J3*%
X45110000Y-33830000D02*
X45110000Y-28630000D01*
X27270000Y-33830000D02*
X27270000Y-31230000D01*
X27270000Y-31230000D02*
X24670000Y-31230000D01*
X24670000Y-31230000D02*
X24670000Y-28630000D01*
X26000000Y-33830000D02*
X24670000Y-33830000D01*
X24670000Y-33830000D02*
X24670000Y-32500000D01*
%TO.C,J1*%
X44170000Y-130090000D02*
X49370000Y-130090000D01*
X44170000Y-81770000D02*
X46770000Y-81770000D01*
X46770000Y-81770000D02*
X46770000Y-79170000D01*
X46770000Y-79170000D02*
X49370000Y-79170000D01*
X44170000Y-80500000D02*
X44170000Y-79170000D01*
X44170000Y-79170000D02*
X45500000Y-79170000D01*
%TO.C,J2*%
X21170000Y-130090000D02*
X26370000Y-130090000D01*
X21170000Y-81770000D02*
X23770000Y-81770000D01*
X23770000Y-81770000D02*
X23770000Y-79170000D01*
X23770000Y-79170000D02*
X26370000Y-79170000D01*
X21170000Y-80500000D02*
X21170000Y-79170000D01*
X21170000Y-79170000D02*
X22500000Y-79170000D01*
%TO.C,C26*%
X41615000Y-125223752D02*
X41615000Y-124701248D01*
X43085000Y-125223752D02*
X43085000Y-124701248D01*
%TO.C,C25*%
X39440000Y-125223752D02*
X39440000Y-124701248D01*
X40910000Y-125223752D02*
X40910000Y-124701248D01*
%TO.C,C6*%
X25361920Y-53598633D02*
X25731387Y-53229166D01*
X26401367Y-54638080D02*
X26770834Y-54268613D01*
%TO.C,R10*%
X28527064Y-51535000D02*
X28072936Y-51535000D01*
X28527064Y-50065000D02*
X28072936Y-50065000D01*
%TO.C,D1*%
X33137500Y-51365000D02*
X30452500Y-51365000D01*
X30452500Y-51365000D02*
X30452500Y-53285000D01*
X30452500Y-53285000D02*
X33137500Y-53285000D01*
%TO.C,C24*%
X38285000Y-37586252D02*
X38285000Y-37063748D01*
X36815000Y-37586252D02*
X36815000Y-37063748D01*
%TO.C,C23*%
X36160000Y-37573752D02*
X36160000Y-37051248D01*
X34690000Y-37573752D02*
X34690000Y-37051248D01*
%TO.C,C22*%
X34010000Y-37548752D02*
X34010000Y-37026248D01*
X32540000Y-37548752D02*
X32540000Y-37026248D01*
%TO.C,C21*%
X24790000Y-41876248D02*
X24790000Y-42398752D01*
X26260000Y-41876248D02*
X26260000Y-42398752D01*
%TO.C,C20*%
X22163748Y-44985000D02*
X22686252Y-44985000D01*
X22163748Y-43515000D02*
X22686252Y-43515000D01*
%TO.C,R8*%
X36484936Y-130433000D02*
X36939064Y-130433000D01*
X36484936Y-128963000D02*
X36939064Y-128963000D01*
%TO.C,R7*%
X30635000Y-122177064D02*
X30635000Y-121722936D01*
X29165000Y-122177064D02*
X29165000Y-121722936D01*
%TO.C,R6*%
X28535000Y-122227064D02*
X28535000Y-121772936D01*
X27065000Y-122227064D02*
X27065000Y-121772936D01*
%TO.C,R5*%
X33145064Y-128963000D02*
X32690936Y-128963000D01*
X33145064Y-130433000D02*
X32690936Y-130433000D01*
%TO.C,R4*%
X29165000Y-127722936D02*
X29165000Y-128177064D01*
X30635000Y-127722936D02*
X30635000Y-128177064D01*
%TO.C,R3*%
X28635000Y-128177064D02*
X28635000Y-127722936D01*
X27165000Y-128177064D02*
X27165000Y-127722936D01*
%TO.C,C18*%
X22176248Y-42905000D02*
X22698752Y-42905000D01*
X22176248Y-41435000D02*
X22698752Y-41435000D01*
%TO.C,C16*%
X21915000Y-31451248D02*
X21915000Y-31973752D01*
X23385000Y-31451248D02*
X23385000Y-31973752D01*
%TO.C,C15*%
X41715000Y-118776248D02*
X41715000Y-119298752D01*
X43185000Y-118776248D02*
X43185000Y-119298752D01*
%TO.C,C14*%
X29111252Y-124215000D02*
X28588748Y-124215000D01*
X29111252Y-125685000D02*
X28588748Y-125685000D01*
%TO.C,C13*%
X40440000Y-114476248D02*
X40440000Y-114998752D01*
X41910000Y-114476248D02*
X41910000Y-114998752D01*
%TO.C,U5*%
X34850000Y-110215000D02*
X31250000Y-110215000D01*
X34850000Y-110215000D02*
X37050000Y-110215000D01*
X34850000Y-116985000D02*
X32650000Y-116985000D01*
X34850000Y-116985000D02*
X37050000Y-116985000D01*
%TO.C,U2*%
X34850000Y-119635000D02*
X31400000Y-119635000D01*
X34850000Y-119635000D02*
X36800000Y-119635000D01*
X34850000Y-128505000D02*
X32900000Y-128505000D01*
X34850000Y-128505000D02*
X36800000Y-128505000D01*
%TO.C,C12*%
X36538748Y-109285000D02*
X37061252Y-109285000D01*
X36538748Y-107815000D02*
X37061252Y-107815000D01*
%TO.C,C11*%
X27915000Y-111538748D02*
X27915000Y-112061252D01*
X29385000Y-111538748D02*
X29385000Y-112061252D01*
%TO.C,C10*%
X29023752Y-114415000D02*
X28501248Y-114415000D01*
X29023752Y-115885000D02*
X28501248Y-115885000D01*
%TO.C,C9*%
X32648752Y-107765000D02*
X32126248Y-107765000D01*
X32648752Y-109235000D02*
X32126248Y-109235000D01*
%TO.C,C8*%
X29735000Y-118373752D02*
X29735000Y-117851248D01*
X28265000Y-118373752D02*
X28265000Y-117851248D01*
%TO.C,C7*%
X37015000Y-51473752D02*
X37015000Y-50951248D01*
X38485000Y-51473752D02*
X38485000Y-50951248D01*
%TO.C,J5*%
X35680000Y-45920000D02*
X35680000Y-47250000D01*
X34350000Y-45920000D02*
X35680000Y-45920000D01*
X33080000Y-45920000D02*
X33080000Y-48580000D01*
X33080000Y-48580000D02*
X30480000Y-48580000D01*
X33080000Y-45920000D02*
X30480000Y-45920000D01*
X30480000Y-45920000D02*
X30480000Y-48580000D01*
%TO.C,C5*%
X34398633Y-70011920D02*
X34029166Y-70381387D01*
X35438080Y-71051367D02*
X35068613Y-71420834D01*
%TO.C,U3*%
X44960000Y-45060000D02*
X44960000Y-43800000D01*
X44960000Y-38240000D02*
X44960000Y-39500000D01*
X41200000Y-45060000D02*
X44960000Y-45060000D01*
X38950000Y-38240000D02*
X44960000Y-38240000D01*
%TO.C,C4*%
X27743000Y-47723752D02*
X27743000Y-47201248D01*
X26273000Y-47723752D02*
X26273000Y-47201248D01*
%TO.C,C1*%
X36510000Y-41801248D02*
X36510000Y-42323752D01*
X35040000Y-41801248D02*
X35040000Y-42323752D01*
%TO.C,C2*%
X28410000Y-42398752D02*
X28410000Y-41876248D01*
X26940000Y-42398752D02*
X26940000Y-41876248D01*
%TO.C,C3*%
X23246748Y-50265000D02*
X23769252Y-50265000D01*
X23246748Y-51735000D02*
X23769252Y-51735000D01*
%TO.C,R2*%
X21815000Y-53872936D02*
X21815000Y-54327064D01*
X23285000Y-53872936D02*
X23285000Y-54327064D01*
%TO.C,J4*%
X47100452Y-54350452D02*
X46160000Y-55290904D01*
X46160000Y-55290904D02*
X45219548Y-54350452D01*
X44321522Y-53452426D02*
X38890942Y-48021846D01*
X40771846Y-46140942D02*
X38890942Y-48021846D01*
X46202426Y-51571522D02*
X40771846Y-46140942D01*
X46202426Y-51571522D02*
X44321522Y-53452426D01*
%TO.C,U1*%
X34628249Y-67804880D02*
X35300000Y-68476631D01*
X35300000Y-68476631D02*
X35971751Y-67804880D01*
X28745120Y-61921751D02*
X28073369Y-61250000D01*
X28073369Y-61250000D02*
X28745120Y-60578249D01*
X41854880Y-60578249D02*
X42526631Y-61250000D01*
X42526631Y-61250000D02*
X41854880Y-61921751D01*
X35971751Y-54695120D02*
X35300000Y-54023369D01*
X35300000Y-54023369D02*
X34628249Y-54695120D01*
X34628249Y-54695120D02*
X33680725Y-53747597D01*
%TO.C,L4*%
D13*
X27783333Y-39952380D02*
X27307142Y-39952380D01*
X27307142Y-38952380D01*
X28545238Y-39285714D02*
X28545238Y-39952380D01*
X28307142Y-38904761D02*
X28069047Y-39619047D01*
X28688095Y-39619047D01*
%TO.C,L3*%
X48583333Y-31502380D02*
X48107142Y-31502380D01*
X48107142Y-30502380D01*
X48821428Y-30502380D02*
X49440476Y-30502380D01*
X49107142Y-30883333D01*
X49250000Y-30883333D01*
X49345238Y-30930952D01*
X49392857Y-30978571D01*
X49440476Y-31073809D01*
X49440476Y-31311904D01*
X49392857Y-31407142D01*
X49345238Y-31454761D01*
X49250000Y-31502380D01*
X48964285Y-31502380D01*
X48869047Y-31454761D01*
X48821428Y-31407142D01*
%TO.C,L2*%
D10*
X25466666Y-40061904D02*
X25085714Y-40061904D01*
X25085714Y-39261904D01*
X25695238Y-39338095D02*
X25733333Y-39300000D01*
X25809523Y-39261904D01*
X26000000Y-39261904D01*
X26076190Y-39300000D01*
X26114285Y-39338095D01*
X26152380Y-39414285D01*
X26152380Y-39490476D01*
X26114285Y-39604761D01*
X25657142Y-40061904D01*
X26152380Y-40061904D01*
%TO.C,Y1*%
X31344047Y-44755952D02*
X31344047Y-45136904D01*
X31077380Y-44336904D02*
X31344047Y-44755952D01*
X31610714Y-44336904D01*
X32296428Y-45136904D02*
X31839285Y-45136904D01*
X32067857Y-45136904D02*
X32067857Y-44336904D01*
X31991666Y-44451190D01*
X31915476Y-44527380D01*
X31839285Y-44565476D01*
%TO.C,C19*%
X41585714Y-34135714D02*
X41547619Y-34173809D01*
X41433333Y-34211904D01*
X41357142Y-34211904D01*
X41242857Y-34173809D01*
X41166666Y-34097619D01*
X41128571Y-34021428D01*
X41090476Y-33869047D01*
X41090476Y-33754761D01*
X41128571Y-33602380D01*
X41166666Y-33526190D01*
X41242857Y-33450000D01*
X41357142Y-33411904D01*
X41433333Y-33411904D01*
X41547619Y-33450000D01*
X41585714Y-33488095D01*
X42347619Y-34211904D02*
X41890476Y-34211904D01*
X42119047Y-34211904D02*
X42119047Y-33411904D01*
X42042857Y-33526190D01*
X41966666Y-33602380D01*
X41890476Y-33640476D01*
X42728571Y-34211904D02*
X42880952Y-34211904D01*
X42957142Y-34173809D01*
X42995238Y-34135714D01*
X43071428Y-34021428D01*
X43109523Y-33869047D01*
X43109523Y-33564285D01*
X43071428Y-33488095D01*
X43033333Y-33450000D01*
X42957142Y-33411904D01*
X42804761Y-33411904D01*
X42728571Y-33450000D01*
X42690476Y-33488095D01*
X42652380Y-33564285D01*
X42652380Y-33754761D01*
X42690476Y-33830952D01*
X42728571Y-33869047D01*
X42804761Y-33907142D01*
X42957142Y-33907142D01*
X43033333Y-33869047D01*
X43071428Y-33830952D01*
X43109523Y-33754761D01*
%TO.C,L1*%
X21311904Y-48583333D02*
X21311904Y-48964285D01*
X20511904Y-48964285D01*
X21311904Y-47897619D02*
X21311904Y-48354761D01*
X21311904Y-48126190D02*
X20511904Y-48126190D01*
X20626190Y-48202380D01*
X20702380Y-48278571D01*
X20740476Y-48354761D01*
%TO.C,C17*%
X21310714Y-46889285D02*
X21348809Y-46927380D01*
X21386904Y-47041666D01*
X21386904Y-47117857D01*
X21348809Y-47232142D01*
X21272619Y-47308333D01*
X21196428Y-47346428D01*
X21044047Y-47384523D01*
X20929761Y-47384523D01*
X20777380Y-47346428D01*
X20701190Y-47308333D01*
X20625000Y-47232142D01*
X20586904Y-47117857D01*
X20586904Y-47041666D01*
X20625000Y-46927380D01*
X20663095Y-46889285D01*
X21386904Y-46127380D02*
X21386904Y-46584523D01*
X21386904Y-46355952D02*
X20586904Y-46355952D01*
X20701190Y-46432142D01*
X20777380Y-46508333D01*
X20815476Y-46584523D01*
X20586904Y-45860714D02*
X20586904Y-45327380D01*
X21386904Y-45670238D01*
%TO.C,U4*%
X22270476Y-60101904D02*
X22270476Y-60749523D01*
X22308571Y-60825714D01*
X22346666Y-60863809D01*
X22422857Y-60901904D01*
X22575238Y-60901904D01*
X22651428Y-60863809D01*
X22689523Y-60825714D01*
X22727619Y-60749523D01*
X22727619Y-60101904D01*
X23451428Y-60368571D02*
X23451428Y-60901904D01*
X23260952Y-60063809D02*
X23070476Y-60635238D01*
X23565714Y-60635238D01*
%TO.C,C26*%
X42885714Y-128889285D02*
X42923809Y-128927380D01*
X42961904Y-129041666D01*
X42961904Y-129117857D01*
X42923809Y-129232142D01*
X42847619Y-129308333D01*
X42771428Y-129346428D01*
X42619047Y-129384523D01*
X42504761Y-129384523D01*
X42352380Y-129346428D01*
X42276190Y-129308333D01*
X42200000Y-129232142D01*
X42161904Y-129117857D01*
X42161904Y-129041666D01*
X42200000Y-128927380D01*
X42238095Y-128889285D01*
X42238095Y-128584523D02*
X42200000Y-128546428D01*
X42161904Y-128470238D01*
X42161904Y-128279761D01*
X42200000Y-128203571D01*
X42238095Y-128165476D01*
X42314285Y-128127380D01*
X42390476Y-128127380D01*
X42504761Y-128165476D01*
X42961904Y-128622619D01*
X42961904Y-128127380D01*
X42161904Y-127441666D02*
X42161904Y-127594047D01*
X42200000Y-127670238D01*
X42238095Y-127708333D01*
X42352380Y-127784523D01*
X42504761Y-127822619D01*
X42809523Y-127822619D01*
X42885714Y-127784523D01*
X42923809Y-127746428D01*
X42961904Y-127670238D01*
X42961904Y-127517857D01*
X42923809Y-127441666D01*
X42885714Y-127403571D01*
X42809523Y-127365476D01*
X42619047Y-127365476D01*
X42542857Y-127403571D01*
X42504761Y-127441666D01*
X42466666Y-127517857D01*
X42466666Y-127670238D01*
X42504761Y-127746428D01*
X42542857Y-127784523D01*
X42619047Y-127822619D01*
%TO.C,C25*%
X40585714Y-128789285D02*
X40623809Y-128827380D01*
X40661904Y-128941666D01*
X40661904Y-129017857D01*
X40623809Y-129132142D01*
X40547619Y-129208333D01*
X40471428Y-129246428D01*
X40319047Y-129284523D01*
X40204761Y-129284523D01*
X40052380Y-129246428D01*
X39976190Y-129208333D01*
X39900000Y-129132142D01*
X39861904Y-129017857D01*
X39861904Y-128941666D01*
X39900000Y-128827380D01*
X39938095Y-128789285D01*
X39938095Y-128484523D02*
X39900000Y-128446428D01*
X39861904Y-128370238D01*
X39861904Y-128179761D01*
X39900000Y-128103571D01*
X39938095Y-128065476D01*
X40014285Y-128027380D01*
X40090476Y-128027380D01*
X40204761Y-128065476D01*
X40661904Y-128522619D01*
X40661904Y-128027380D01*
X39861904Y-127303571D02*
X39861904Y-127684523D01*
X40242857Y-127722619D01*
X40204761Y-127684523D01*
X40166666Y-127608333D01*
X40166666Y-127417857D01*
X40204761Y-127341666D01*
X40242857Y-127303571D01*
X40319047Y-127265476D01*
X40509523Y-127265476D01*
X40585714Y-127303571D01*
X40623809Y-127341666D01*
X40661904Y-127417857D01*
X40661904Y-127608333D01*
X40623809Y-127684523D01*
X40585714Y-127722619D01*
%TO.C,C6*%
X27177749Y-55456311D02*
X27177749Y-55510186D01*
X27123874Y-55617935D01*
X27070000Y-55671810D01*
X26962250Y-55725685D01*
X26854500Y-55725685D01*
X26773688Y-55698748D01*
X26639001Y-55617935D01*
X26558189Y-55537123D01*
X26477377Y-55402436D01*
X26450439Y-55321624D01*
X26450439Y-55213874D01*
X26504314Y-55106125D01*
X26558189Y-55052250D01*
X26665938Y-54998375D01*
X26719813Y-54998375D01*
X27150812Y-54459627D02*
X27043062Y-54567377D01*
X27016125Y-54648189D01*
X27016125Y-54702064D01*
X27043062Y-54836751D01*
X27123874Y-54971438D01*
X27339374Y-55186937D01*
X27420186Y-55213874D01*
X27474061Y-55213874D01*
X27554873Y-55186937D01*
X27662622Y-55079187D01*
X27689560Y-54998375D01*
X27689560Y-54944500D01*
X27662622Y-54863688D01*
X27527935Y-54729001D01*
X27447123Y-54702064D01*
X27393248Y-54702064D01*
X27312436Y-54729001D01*
X27204687Y-54836751D01*
X27177749Y-54917563D01*
X27177749Y-54971438D01*
X27204687Y-55052250D01*
%TO.C,R10*%
X28310714Y-49561904D02*
X28044047Y-49180952D01*
X27853571Y-49561904D02*
X27853571Y-48761904D01*
X28158333Y-48761904D01*
X28234523Y-48800000D01*
X28272619Y-48838095D01*
X28310714Y-48914285D01*
X28310714Y-49028571D01*
X28272619Y-49104761D01*
X28234523Y-49142857D01*
X28158333Y-49180952D01*
X27853571Y-49180952D01*
X29072619Y-49561904D02*
X28615476Y-49561904D01*
X28844047Y-49561904D02*
X28844047Y-48761904D01*
X28767857Y-48876190D01*
X28691666Y-48952380D01*
X28615476Y-48990476D01*
X29567857Y-48761904D02*
X29644047Y-48761904D01*
X29720238Y-48800000D01*
X29758333Y-48838095D01*
X29796428Y-48914285D01*
X29834523Y-49066666D01*
X29834523Y-49257142D01*
X29796428Y-49409523D01*
X29758333Y-49485714D01*
X29720238Y-49523809D01*
X29644047Y-49561904D01*
X29567857Y-49561904D01*
X29491666Y-49523809D01*
X29453571Y-49485714D01*
X29415476Y-49409523D01*
X29377380Y-49257142D01*
X29377380Y-49066666D01*
X29415476Y-48914285D01*
X29453571Y-48838095D01*
X29491666Y-48800000D01*
X29567857Y-48761904D01*
%TO.C,D1*%
X29039523Y-53391904D02*
X29039523Y-52591904D01*
X29230000Y-52591904D01*
X29344285Y-52630000D01*
X29420476Y-52706190D01*
X29458571Y-52782380D01*
X29496666Y-52934761D01*
X29496666Y-53049047D01*
X29458571Y-53201428D01*
X29420476Y-53277619D01*
X29344285Y-53353809D01*
X29230000Y-53391904D01*
X29039523Y-53391904D01*
X30258571Y-53391904D02*
X29801428Y-53391904D01*
X30030000Y-53391904D02*
X30030000Y-52591904D01*
X29953809Y-52706190D01*
X29877619Y-52782380D01*
X29801428Y-52820476D01*
%TO.C,C24*%
X39335714Y-37714285D02*
X39373809Y-37752380D01*
X39411904Y-37866666D01*
X39411904Y-37942857D01*
X39373809Y-38057142D01*
X39297619Y-38133333D01*
X39221428Y-38171428D01*
X39069047Y-38209523D01*
X38954761Y-38209523D01*
X38802380Y-38171428D01*
X38726190Y-38133333D01*
X38650000Y-38057142D01*
X38611904Y-37942857D01*
X38611904Y-37866666D01*
X38650000Y-37752380D01*
X38688095Y-37714285D01*
X38688095Y-37409523D02*
X38650000Y-37371428D01*
X38611904Y-37295238D01*
X38611904Y-37104761D01*
X38650000Y-37028571D01*
X38688095Y-36990476D01*
X38764285Y-36952380D01*
X38840476Y-36952380D01*
X38954761Y-36990476D01*
X39411904Y-37447619D01*
X39411904Y-36952380D01*
X38878571Y-36266666D02*
X39411904Y-36266666D01*
X38573809Y-36457142D02*
X39145238Y-36647619D01*
X39145238Y-36152380D01*
%TO.C,C23*%
X36960714Y-41085714D02*
X36922619Y-41123809D01*
X36808333Y-41161904D01*
X36732142Y-41161904D01*
X36617857Y-41123809D01*
X36541666Y-41047619D01*
X36503571Y-40971428D01*
X36465476Y-40819047D01*
X36465476Y-40704761D01*
X36503571Y-40552380D01*
X36541666Y-40476190D01*
X36617857Y-40400000D01*
X36732142Y-40361904D01*
X36808333Y-40361904D01*
X36922619Y-40400000D01*
X36960714Y-40438095D01*
X37265476Y-40438095D02*
X37303571Y-40400000D01*
X37379761Y-40361904D01*
X37570238Y-40361904D01*
X37646428Y-40400000D01*
X37684523Y-40438095D01*
X37722619Y-40514285D01*
X37722619Y-40590476D01*
X37684523Y-40704761D01*
X37227380Y-41161904D01*
X37722619Y-41161904D01*
X37989285Y-40361904D02*
X38484523Y-40361904D01*
X38217857Y-40666666D01*
X38332142Y-40666666D01*
X38408333Y-40704761D01*
X38446428Y-40742857D01*
X38484523Y-40819047D01*
X38484523Y-41009523D01*
X38446428Y-41085714D01*
X38408333Y-41123809D01*
X38332142Y-41161904D01*
X38103571Y-41161904D01*
X38027380Y-41123809D01*
X37989285Y-41085714D01*
%TO.C,C22*%
X34760714Y-40085714D02*
X34722619Y-40123809D01*
X34608333Y-40161904D01*
X34532142Y-40161904D01*
X34417857Y-40123809D01*
X34341666Y-40047619D01*
X34303571Y-39971428D01*
X34265476Y-39819047D01*
X34265476Y-39704761D01*
X34303571Y-39552380D01*
X34341666Y-39476190D01*
X34417857Y-39400000D01*
X34532142Y-39361904D01*
X34608333Y-39361904D01*
X34722619Y-39400000D01*
X34760714Y-39438095D01*
X35065476Y-39438095D02*
X35103571Y-39400000D01*
X35179761Y-39361904D01*
X35370238Y-39361904D01*
X35446428Y-39400000D01*
X35484523Y-39438095D01*
X35522619Y-39514285D01*
X35522619Y-39590476D01*
X35484523Y-39704761D01*
X35027380Y-40161904D01*
X35522619Y-40161904D01*
X35827380Y-39438095D02*
X35865476Y-39400000D01*
X35941666Y-39361904D01*
X36132142Y-39361904D01*
X36208333Y-39400000D01*
X36246428Y-39438095D01*
X36284523Y-39514285D01*
X36284523Y-39590476D01*
X36246428Y-39704761D01*
X35789285Y-40161904D01*
X36284523Y-40161904D01*
%TO.C,C21*%
X24085714Y-40564285D02*
X24123809Y-40602380D01*
X24161904Y-40716666D01*
X24161904Y-40792857D01*
X24123809Y-40907142D01*
X24047619Y-40983333D01*
X23971428Y-41021428D01*
X23819047Y-41059523D01*
X23704761Y-41059523D01*
X23552380Y-41021428D01*
X23476190Y-40983333D01*
X23400000Y-40907142D01*
X23361904Y-40792857D01*
X23361904Y-40716666D01*
X23400000Y-40602380D01*
X23438095Y-40564285D01*
X23438095Y-40259523D02*
X23400000Y-40221428D01*
X23361904Y-40145238D01*
X23361904Y-39954761D01*
X23400000Y-39878571D01*
X23438095Y-39840476D01*
X23514285Y-39802380D01*
X23590476Y-39802380D01*
X23704761Y-39840476D01*
X24161904Y-40297619D01*
X24161904Y-39802380D01*
X24161904Y-39040476D02*
X24161904Y-39497619D01*
X24161904Y-39269047D02*
X23361904Y-39269047D01*
X23476190Y-39345238D01*
X23552380Y-39421428D01*
X23590476Y-39497619D01*
%TO.C,C20*%
X25015714Y-44915714D02*
X24977619Y-44953809D01*
X24863333Y-44991904D01*
X24787142Y-44991904D01*
X24672857Y-44953809D01*
X24596666Y-44877619D01*
X24558571Y-44801428D01*
X24520476Y-44649047D01*
X24520476Y-44534761D01*
X24558571Y-44382380D01*
X24596666Y-44306190D01*
X24672857Y-44230000D01*
X24787142Y-44191904D01*
X24863333Y-44191904D01*
X24977619Y-44230000D01*
X25015714Y-44268095D01*
X25320476Y-44268095D02*
X25358571Y-44230000D01*
X25434761Y-44191904D01*
X25625238Y-44191904D01*
X25701428Y-44230000D01*
X25739523Y-44268095D01*
X25777619Y-44344285D01*
X25777619Y-44420476D01*
X25739523Y-44534761D01*
X25282380Y-44991904D01*
X25777619Y-44991904D01*
X26272857Y-44191904D02*
X26349047Y-44191904D01*
X26425238Y-44230000D01*
X26463333Y-44268095D01*
X26501428Y-44344285D01*
X26539523Y-44496666D01*
X26539523Y-44687142D01*
X26501428Y-44839523D01*
X26463333Y-44915714D01*
X26425238Y-44953809D01*
X26349047Y-44991904D01*
X26272857Y-44991904D01*
X26196666Y-44953809D01*
X26158571Y-44915714D01*
X26120476Y-44839523D01*
X26082380Y-44687142D01*
X26082380Y-44496666D01*
X26120476Y-44344285D01*
X26158571Y-44268095D01*
X26196666Y-44230000D01*
X26272857Y-44191904D01*
%TO.C,R9*%
X30916666Y-118111904D02*
X30650000Y-117730952D01*
X30459523Y-118111904D02*
X30459523Y-117311904D01*
X30764285Y-117311904D01*
X30840476Y-117350000D01*
X30878571Y-117388095D01*
X30916666Y-117464285D01*
X30916666Y-117578571D01*
X30878571Y-117654761D01*
X30840476Y-117692857D01*
X30764285Y-117730952D01*
X30459523Y-117730952D01*
X31297619Y-118111904D02*
X31450000Y-118111904D01*
X31526190Y-118073809D01*
X31564285Y-118035714D01*
X31640476Y-117921428D01*
X31678571Y-117769047D01*
X31678571Y-117464285D01*
X31640476Y-117388095D01*
X31602380Y-117350000D01*
X31526190Y-117311904D01*
X31373809Y-117311904D01*
X31297619Y-117350000D01*
X31259523Y-117388095D01*
X31221428Y-117464285D01*
X31221428Y-117654761D01*
X31259523Y-117730952D01*
X31297619Y-117769047D01*
X31373809Y-117807142D01*
X31526190Y-117807142D01*
X31602380Y-117769047D01*
X31640476Y-117730952D01*
X31678571Y-117654761D01*
%TO.C,R8*%
X39966666Y-130686904D02*
X39700000Y-130305952D01*
X39509523Y-130686904D02*
X39509523Y-129886904D01*
X39814285Y-129886904D01*
X39890476Y-129925000D01*
X39928571Y-129963095D01*
X39966666Y-130039285D01*
X39966666Y-130153571D01*
X39928571Y-130229761D01*
X39890476Y-130267857D01*
X39814285Y-130305952D01*
X39509523Y-130305952D01*
X40423809Y-130229761D02*
X40347619Y-130191666D01*
X40309523Y-130153571D01*
X40271428Y-130077380D01*
X40271428Y-130039285D01*
X40309523Y-129963095D01*
X40347619Y-129925000D01*
X40423809Y-129886904D01*
X40576190Y-129886904D01*
X40652380Y-129925000D01*
X40690476Y-129963095D01*
X40728571Y-130039285D01*
X40728571Y-130077380D01*
X40690476Y-130153571D01*
X40652380Y-130191666D01*
X40576190Y-130229761D01*
X40423809Y-130229761D01*
X40347619Y-130267857D01*
X40309523Y-130305952D01*
X40271428Y-130382142D01*
X40271428Y-130534523D01*
X40309523Y-130610714D01*
X40347619Y-130648809D01*
X40423809Y-130686904D01*
X40576190Y-130686904D01*
X40652380Y-130648809D01*
X40690476Y-130610714D01*
X40728571Y-130534523D01*
X40728571Y-130382142D01*
X40690476Y-130305952D01*
X40652380Y-130267857D01*
X40576190Y-130229761D01*
%TO.C,R7*%
X30466666Y-120161904D02*
X30200000Y-119780952D01*
X30009523Y-120161904D02*
X30009523Y-119361904D01*
X30314285Y-119361904D01*
X30390476Y-119400000D01*
X30428571Y-119438095D01*
X30466666Y-119514285D01*
X30466666Y-119628571D01*
X30428571Y-119704761D01*
X30390476Y-119742857D01*
X30314285Y-119780952D01*
X30009523Y-119780952D01*
X30733333Y-119361904D02*
X31266666Y-119361904D01*
X30923809Y-120161904D01*
%TO.C,R6*%
X26761904Y-120683333D02*
X26380952Y-120950000D01*
X26761904Y-121140476D02*
X25961904Y-121140476D01*
X25961904Y-120835714D01*
X26000000Y-120759523D01*
X26038095Y-120721428D01*
X26114285Y-120683333D01*
X26228571Y-120683333D01*
X26304761Y-120721428D01*
X26342857Y-120759523D01*
X26380952Y-120835714D01*
X26380952Y-121140476D01*
X25961904Y-119997619D02*
X25961904Y-120150000D01*
X26000000Y-120226190D01*
X26038095Y-120264285D01*
X26152380Y-120340476D01*
X26304761Y-120378571D01*
X26609523Y-120378571D01*
X26685714Y-120340476D01*
X26723809Y-120302380D01*
X26761904Y-120226190D01*
X26761904Y-120073809D01*
X26723809Y-119997619D01*
X26685714Y-119959523D01*
X26609523Y-119921428D01*
X26419047Y-119921428D01*
X26342857Y-119959523D01*
X26304761Y-119997619D01*
X26266666Y-120073809D01*
X26266666Y-120226190D01*
X26304761Y-120302380D01*
X26342857Y-120340476D01*
X26419047Y-120378571D01*
%TO.C,R5*%
X32841666Y-131511904D02*
X32575000Y-131130952D01*
X32384523Y-131511904D02*
X32384523Y-130711904D01*
X32689285Y-130711904D01*
X32765476Y-130750000D01*
X32803571Y-130788095D01*
X32841666Y-130864285D01*
X32841666Y-130978571D01*
X32803571Y-131054761D01*
X32765476Y-131092857D01*
X32689285Y-131130952D01*
X32384523Y-131130952D01*
X33565476Y-130711904D02*
X33184523Y-130711904D01*
X33146428Y-131092857D01*
X33184523Y-131054761D01*
X33260714Y-131016666D01*
X33451190Y-131016666D01*
X33527380Y-131054761D01*
X33565476Y-131092857D01*
X33603571Y-131169047D01*
X33603571Y-131359523D01*
X33565476Y-131435714D01*
X33527380Y-131473809D01*
X33451190Y-131511904D01*
X33260714Y-131511904D01*
X33184523Y-131473809D01*
X33146428Y-131435714D01*
%TO.C,R4*%
X30311904Y-130983333D02*
X29930952Y-131250000D01*
X30311904Y-131440476D02*
X29511904Y-131440476D01*
X29511904Y-131135714D01*
X29550000Y-131059523D01*
X29588095Y-131021428D01*
X29664285Y-130983333D01*
X29778571Y-130983333D01*
X29854761Y-131021428D01*
X29892857Y-131059523D01*
X29930952Y-131135714D01*
X29930952Y-131440476D01*
X29778571Y-130297619D02*
X30311904Y-130297619D01*
X29473809Y-130488095D02*
X30045238Y-130678571D01*
X30045238Y-130183333D01*
%TO.C,R3*%
X28111904Y-130883333D02*
X27730952Y-131150000D01*
X28111904Y-131340476D02*
X27311904Y-131340476D01*
X27311904Y-131035714D01*
X27350000Y-130959523D01*
X27388095Y-130921428D01*
X27464285Y-130883333D01*
X27578571Y-130883333D01*
X27654761Y-130921428D01*
X27692857Y-130959523D01*
X27730952Y-131035714D01*
X27730952Y-131340476D01*
X27311904Y-130616666D02*
X27311904Y-130121428D01*
X27616666Y-130388095D01*
X27616666Y-130273809D01*
X27654761Y-130197619D01*
X27692857Y-130159523D01*
X27769047Y-130121428D01*
X27959523Y-130121428D01*
X28035714Y-130159523D01*
X28073809Y-130197619D01*
X28111904Y-130273809D01*
X28111904Y-130502380D01*
X28073809Y-130578571D01*
X28035714Y-130616666D01*
%TO.C,C18*%
X22410714Y-40389285D02*
X22448809Y-40427380D01*
X22486904Y-40541666D01*
X22486904Y-40617857D01*
X22448809Y-40732142D01*
X22372619Y-40808333D01*
X22296428Y-40846428D01*
X22144047Y-40884523D01*
X22029761Y-40884523D01*
X21877380Y-40846428D01*
X21801190Y-40808333D01*
X21725000Y-40732142D01*
X21686904Y-40617857D01*
X21686904Y-40541666D01*
X21725000Y-40427380D01*
X21763095Y-40389285D01*
X22486904Y-39627380D02*
X22486904Y-40084523D01*
X22486904Y-39855952D02*
X21686904Y-39855952D01*
X21801190Y-39932142D01*
X21877380Y-40008333D01*
X21915476Y-40084523D01*
X22029761Y-39170238D02*
X21991666Y-39246428D01*
X21953571Y-39284523D01*
X21877380Y-39322619D01*
X21839285Y-39322619D01*
X21763095Y-39284523D01*
X21725000Y-39246428D01*
X21686904Y-39170238D01*
X21686904Y-39017857D01*
X21725000Y-38941666D01*
X21763095Y-38903571D01*
X21839285Y-38865476D01*
X21877380Y-38865476D01*
X21953571Y-38903571D01*
X21991666Y-38941666D01*
X22029761Y-39017857D01*
X22029761Y-39170238D01*
X22067857Y-39246428D01*
X22105952Y-39284523D01*
X22182142Y-39322619D01*
X22334523Y-39322619D01*
X22410714Y-39284523D01*
X22448809Y-39246428D01*
X22486904Y-39170238D01*
X22486904Y-39017857D01*
X22448809Y-38941666D01*
X22410714Y-38903571D01*
X22334523Y-38865476D01*
X22182142Y-38865476D01*
X22105952Y-38903571D01*
X22067857Y-38941666D01*
X22029761Y-39017857D01*
%TO.C,C16*%
X21860714Y-35389285D02*
X21898809Y-35427380D01*
X21936904Y-35541666D01*
X21936904Y-35617857D01*
X21898809Y-35732142D01*
X21822619Y-35808333D01*
X21746428Y-35846428D01*
X21594047Y-35884523D01*
X21479761Y-35884523D01*
X21327380Y-35846428D01*
X21251190Y-35808333D01*
X21175000Y-35732142D01*
X21136904Y-35617857D01*
X21136904Y-35541666D01*
X21175000Y-35427380D01*
X21213095Y-35389285D01*
X21936904Y-34627380D02*
X21936904Y-35084523D01*
X21936904Y-34855952D02*
X21136904Y-34855952D01*
X21251190Y-34932142D01*
X21327380Y-35008333D01*
X21365476Y-35084523D01*
X21136904Y-33941666D02*
X21136904Y-34094047D01*
X21175000Y-34170238D01*
X21213095Y-34208333D01*
X21327380Y-34284523D01*
X21479761Y-34322619D01*
X21784523Y-34322619D01*
X21860714Y-34284523D01*
X21898809Y-34246428D01*
X21936904Y-34170238D01*
X21936904Y-34017857D01*
X21898809Y-33941666D01*
X21860714Y-33903571D01*
X21784523Y-33865476D01*
X21594047Y-33865476D01*
X21517857Y-33903571D01*
X21479761Y-33941666D01*
X21441666Y-34017857D01*
X21441666Y-34170238D01*
X21479761Y-34246428D01*
X21517857Y-34284523D01*
X21594047Y-34322619D01*
%TO.C,C15*%
X40835714Y-119464285D02*
X40873809Y-119502380D01*
X40911904Y-119616666D01*
X40911904Y-119692857D01*
X40873809Y-119807142D01*
X40797619Y-119883333D01*
X40721428Y-119921428D01*
X40569047Y-119959523D01*
X40454761Y-119959523D01*
X40302380Y-119921428D01*
X40226190Y-119883333D01*
X40150000Y-119807142D01*
X40111904Y-119692857D01*
X40111904Y-119616666D01*
X40150000Y-119502380D01*
X40188095Y-119464285D01*
X40911904Y-118702380D02*
X40911904Y-119159523D01*
X40911904Y-118930952D02*
X40111904Y-118930952D01*
X40226190Y-119007142D01*
X40302380Y-119083333D01*
X40340476Y-119159523D01*
X40111904Y-117978571D02*
X40111904Y-118359523D01*
X40492857Y-118397619D01*
X40454761Y-118359523D01*
X40416666Y-118283333D01*
X40416666Y-118092857D01*
X40454761Y-118016666D01*
X40492857Y-117978571D01*
X40569047Y-117940476D01*
X40759523Y-117940476D01*
X40835714Y-117978571D01*
X40873809Y-118016666D01*
X40911904Y-118092857D01*
X40911904Y-118283333D01*
X40873809Y-118359523D01*
X40835714Y-118397619D01*
%TO.C,C14*%
X26710714Y-125489285D02*
X26748809Y-125527380D01*
X26786904Y-125641666D01*
X26786904Y-125717857D01*
X26748809Y-125832142D01*
X26672619Y-125908333D01*
X26596428Y-125946428D01*
X26444047Y-125984523D01*
X26329761Y-125984523D01*
X26177380Y-125946428D01*
X26101190Y-125908333D01*
X26025000Y-125832142D01*
X25986904Y-125717857D01*
X25986904Y-125641666D01*
X26025000Y-125527380D01*
X26063095Y-125489285D01*
X26786904Y-124727380D02*
X26786904Y-125184523D01*
X26786904Y-124955952D02*
X25986904Y-124955952D01*
X26101190Y-125032142D01*
X26177380Y-125108333D01*
X26215476Y-125184523D01*
X26253571Y-124041666D02*
X26786904Y-124041666D01*
X25948809Y-124232142D02*
X26520238Y-124422619D01*
X26520238Y-123927380D01*
%TO.C,C13*%
X43235714Y-113914285D02*
X43273809Y-113952380D01*
X43311904Y-114066666D01*
X43311904Y-114142857D01*
X43273809Y-114257142D01*
X43197619Y-114333333D01*
X43121428Y-114371428D01*
X42969047Y-114409523D01*
X42854761Y-114409523D01*
X42702380Y-114371428D01*
X42626190Y-114333333D01*
X42550000Y-114257142D01*
X42511904Y-114142857D01*
X42511904Y-114066666D01*
X42550000Y-113952380D01*
X42588095Y-113914285D01*
X43311904Y-113152380D02*
X43311904Y-113609523D01*
X43311904Y-113380952D02*
X42511904Y-113380952D01*
X42626190Y-113457142D01*
X42702380Y-113533333D01*
X42740476Y-113609523D01*
X42511904Y-112885714D02*
X42511904Y-112390476D01*
X42816666Y-112657142D01*
X42816666Y-112542857D01*
X42854761Y-112466666D01*
X42892857Y-112428571D01*
X42969047Y-112390476D01*
X43159523Y-112390476D01*
X43235714Y-112428571D01*
X43273809Y-112466666D01*
X43311904Y-112542857D01*
X43311904Y-112771428D01*
X43273809Y-112847619D01*
X43235714Y-112885714D01*
%TO.C,U5*%
X34240476Y-108961904D02*
X34240476Y-109609523D01*
X34278571Y-109685714D01*
X34316666Y-109723809D01*
X34392857Y-109761904D01*
X34545238Y-109761904D01*
X34621428Y-109723809D01*
X34659523Y-109685714D01*
X34697619Y-109609523D01*
X34697619Y-108961904D01*
X35459523Y-108961904D02*
X35078571Y-108961904D01*
X35040476Y-109342857D01*
X35078571Y-109304761D01*
X35154761Y-109266666D01*
X35345238Y-109266666D01*
X35421428Y-109304761D01*
X35459523Y-109342857D01*
X35497619Y-109419047D01*
X35497619Y-109609523D01*
X35459523Y-109685714D01*
X35421428Y-109723809D01*
X35345238Y-109761904D01*
X35154761Y-109761904D01*
X35078571Y-109723809D01*
X35040476Y-109685714D01*
%TO.C,U2*%
X34240476Y-118351904D02*
X34240476Y-118999523D01*
X34278571Y-119075714D01*
X34316666Y-119113809D01*
X34392857Y-119151904D01*
X34545238Y-119151904D01*
X34621428Y-119113809D01*
X34659523Y-119075714D01*
X34697619Y-118999523D01*
X34697619Y-118351904D01*
X35040476Y-118428095D02*
X35078571Y-118390000D01*
X35154761Y-118351904D01*
X35345238Y-118351904D01*
X35421428Y-118390000D01*
X35459523Y-118428095D01*
X35497619Y-118504285D01*
X35497619Y-118580476D01*
X35459523Y-118694761D01*
X35002380Y-119151904D01*
X35497619Y-119151904D01*
%TO.C,C12*%
X36285714Y-107155714D02*
X36247619Y-107193809D01*
X36133333Y-107231904D01*
X36057142Y-107231904D01*
X35942857Y-107193809D01*
X35866666Y-107117619D01*
X35828571Y-107041428D01*
X35790476Y-106889047D01*
X35790476Y-106774761D01*
X35828571Y-106622380D01*
X35866666Y-106546190D01*
X35942857Y-106470000D01*
X36057142Y-106431904D01*
X36133333Y-106431904D01*
X36247619Y-106470000D01*
X36285714Y-106508095D01*
X37047619Y-107231904D02*
X36590476Y-107231904D01*
X36819047Y-107231904D02*
X36819047Y-106431904D01*
X36742857Y-106546190D01*
X36666666Y-106622380D01*
X36590476Y-106660476D01*
X37352380Y-106508095D02*
X37390476Y-106470000D01*
X37466666Y-106431904D01*
X37657142Y-106431904D01*
X37733333Y-106470000D01*
X37771428Y-106508095D01*
X37809523Y-106584285D01*
X37809523Y-106660476D01*
X37771428Y-106774761D01*
X37314285Y-107231904D01*
X37809523Y-107231904D01*
%TO.C,C11*%
X30615714Y-112314285D02*
X30653809Y-112352380D01*
X30691904Y-112466666D01*
X30691904Y-112542857D01*
X30653809Y-112657142D01*
X30577619Y-112733333D01*
X30501428Y-112771428D01*
X30349047Y-112809523D01*
X30234761Y-112809523D01*
X30082380Y-112771428D01*
X30006190Y-112733333D01*
X29930000Y-112657142D01*
X29891904Y-112542857D01*
X29891904Y-112466666D01*
X29930000Y-112352380D01*
X29968095Y-112314285D01*
X30691904Y-111552380D02*
X30691904Y-112009523D01*
X30691904Y-111780952D02*
X29891904Y-111780952D01*
X30006190Y-111857142D01*
X30082380Y-111933333D01*
X30120476Y-112009523D01*
X30691904Y-110790476D02*
X30691904Y-111247619D01*
X30691904Y-111019047D02*
X29891904Y-111019047D01*
X30006190Y-111095238D01*
X30082380Y-111171428D01*
X30120476Y-111247619D01*
%TO.C,C10*%
X28248214Y-117115714D02*
X28210119Y-117153809D01*
X28095833Y-117191904D01*
X28019642Y-117191904D01*
X27905357Y-117153809D01*
X27829166Y-117077619D01*
X27791071Y-117001428D01*
X27752976Y-116849047D01*
X27752976Y-116734761D01*
X27791071Y-116582380D01*
X27829166Y-116506190D01*
X27905357Y-116430000D01*
X28019642Y-116391904D01*
X28095833Y-116391904D01*
X28210119Y-116430000D01*
X28248214Y-116468095D01*
X29010119Y-117191904D02*
X28552976Y-117191904D01*
X28781547Y-117191904D02*
X28781547Y-116391904D01*
X28705357Y-116506190D01*
X28629166Y-116582380D01*
X28552976Y-116620476D01*
X29505357Y-116391904D02*
X29581547Y-116391904D01*
X29657738Y-116430000D01*
X29695833Y-116468095D01*
X29733928Y-116544285D01*
X29772023Y-116696666D01*
X29772023Y-116887142D01*
X29733928Y-117039523D01*
X29695833Y-117115714D01*
X29657738Y-117153809D01*
X29581547Y-117191904D01*
X29505357Y-117191904D01*
X29429166Y-117153809D01*
X29391071Y-117115714D01*
X29352976Y-117039523D01*
X29314880Y-116887142D01*
X29314880Y-116696666D01*
X29352976Y-116544285D01*
X29391071Y-116468095D01*
X29429166Y-116430000D01*
X29505357Y-116391904D01*
%TO.C,C9*%
X32091666Y-107135714D02*
X32053571Y-107173809D01*
X31939285Y-107211904D01*
X31863095Y-107211904D01*
X31748809Y-107173809D01*
X31672619Y-107097619D01*
X31634523Y-107021428D01*
X31596428Y-106869047D01*
X31596428Y-106754761D01*
X31634523Y-106602380D01*
X31672619Y-106526190D01*
X31748809Y-106450000D01*
X31863095Y-106411904D01*
X31939285Y-106411904D01*
X32053571Y-106450000D01*
X32091666Y-106488095D01*
X32472619Y-107211904D02*
X32625000Y-107211904D01*
X32701190Y-107173809D01*
X32739285Y-107135714D01*
X32815476Y-107021428D01*
X32853571Y-106869047D01*
X32853571Y-106564285D01*
X32815476Y-106488095D01*
X32777380Y-106450000D01*
X32701190Y-106411904D01*
X32548809Y-106411904D01*
X32472619Y-106450000D01*
X32434523Y-106488095D01*
X32396428Y-106564285D01*
X32396428Y-106754761D01*
X32434523Y-106830952D01*
X32472619Y-106869047D01*
X32548809Y-106907142D01*
X32701190Y-106907142D01*
X32777380Y-106869047D01*
X32815476Y-106830952D01*
X32853571Y-106754761D01*
%TO.C,C8*%
X27605714Y-118245833D02*
X27643809Y-118283928D01*
X27681904Y-118398214D01*
X27681904Y-118474404D01*
X27643809Y-118588690D01*
X27567619Y-118664880D01*
X27491428Y-118702976D01*
X27339047Y-118741071D01*
X27224761Y-118741071D01*
X27072380Y-118702976D01*
X26996190Y-118664880D01*
X26920000Y-118588690D01*
X26881904Y-118474404D01*
X26881904Y-118398214D01*
X26920000Y-118283928D01*
X26958095Y-118245833D01*
X27224761Y-117788690D02*
X27186666Y-117864880D01*
X27148571Y-117902976D01*
X27072380Y-117941071D01*
X27034285Y-117941071D01*
X26958095Y-117902976D01*
X26920000Y-117864880D01*
X26881904Y-117788690D01*
X26881904Y-117636309D01*
X26920000Y-117560119D01*
X26958095Y-117522023D01*
X27034285Y-117483928D01*
X27072380Y-117483928D01*
X27148571Y-117522023D01*
X27186666Y-117560119D01*
X27224761Y-117636309D01*
X27224761Y-117788690D01*
X27262857Y-117864880D01*
X27300952Y-117902976D01*
X27377142Y-117941071D01*
X27529523Y-117941071D01*
X27605714Y-117902976D01*
X27643809Y-117864880D01*
X27681904Y-117788690D01*
X27681904Y-117636309D01*
X27643809Y-117560119D01*
X27605714Y-117522023D01*
X27529523Y-117483928D01*
X27377142Y-117483928D01*
X27300952Y-117522023D01*
X27262857Y-117560119D01*
X27224761Y-117636309D01*
%TO.C,C7*%
X39625714Y-52063333D02*
X39663809Y-52101428D01*
X39701904Y-52215714D01*
X39701904Y-52291904D01*
X39663809Y-52406190D01*
X39587619Y-52482380D01*
X39511428Y-52520476D01*
X39359047Y-52558571D01*
X39244761Y-52558571D01*
X39092380Y-52520476D01*
X39016190Y-52482380D01*
X38940000Y-52406190D01*
X38901904Y-52291904D01*
X38901904Y-52215714D01*
X38940000Y-52101428D01*
X38978095Y-52063333D01*
X38901904Y-51796666D02*
X38901904Y-51263333D01*
X39701904Y-51606190D01*
%TO.C,C5*%
X36029311Y-72200627D02*
X36029311Y-72254502D01*
X35975436Y-72362251D01*
X35921562Y-72416126D01*
X35813812Y-72470001D01*
X35706062Y-72470001D01*
X35625250Y-72443064D01*
X35490563Y-72362251D01*
X35409751Y-72281439D01*
X35328939Y-72146752D01*
X35302001Y-72065940D01*
X35302001Y-71958190D01*
X35355876Y-71850441D01*
X35409751Y-71796566D01*
X35517500Y-71742691D01*
X35571375Y-71742691D01*
X36029311Y-71177006D02*
X35759937Y-71446380D01*
X36002374Y-71742691D01*
X36002374Y-71688816D01*
X36029311Y-71608004D01*
X36163998Y-71473317D01*
X36244810Y-71446380D01*
X36298685Y-71446380D01*
X36379497Y-71473317D01*
X36514184Y-71608004D01*
X36541122Y-71688816D01*
X36541122Y-71742691D01*
X36514184Y-71823503D01*
X36379497Y-71958190D01*
X36298685Y-71985128D01*
X36244810Y-71985128D01*
%TO.C,U3*%
X40940476Y-36861904D02*
X40940476Y-37509523D01*
X40978571Y-37585714D01*
X41016666Y-37623809D01*
X41092857Y-37661904D01*
X41245238Y-37661904D01*
X41321428Y-37623809D01*
X41359523Y-37585714D01*
X41397619Y-37509523D01*
X41397619Y-36861904D01*
X41702380Y-36861904D02*
X42197619Y-36861904D01*
X41930952Y-37166666D01*
X42045238Y-37166666D01*
X42121428Y-37204761D01*
X42159523Y-37242857D01*
X42197619Y-37319047D01*
X42197619Y-37509523D01*
X42159523Y-37585714D01*
X42121428Y-37623809D01*
X42045238Y-37661904D01*
X41816666Y-37661904D01*
X41740476Y-37623809D01*
X41702380Y-37585714D01*
%TO.C,C4*%
X27545714Y-44893333D02*
X27583809Y-44931428D01*
X27621904Y-45045714D01*
X27621904Y-45121904D01*
X27583809Y-45236190D01*
X27507619Y-45312380D01*
X27431428Y-45350476D01*
X27279047Y-45388571D01*
X27164761Y-45388571D01*
X27012380Y-45350476D01*
X26936190Y-45312380D01*
X26860000Y-45236190D01*
X26821904Y-45121904D01*
X26821904Y-45045714D01*
X26860000Y-44931428D01*
X26898095Y-44893333D01*
X27088571Y-44207619D02*
X27621904Y-44207619D01*
X26783809Y-44398095D02*
X27355238Y-44588571D01*
X27355238Y-44093333D01*
%TO.C,C1*%
X36135714Y-44708333D02*
X36173809Y-44746428D01*
X36211904Y-44860714D01*
X36211904Y-44936904D01*
X36173809Y-45051190D01*
X36097619Y-45127380D01*
X36021428Y-45165476D01*
X35869047Y-45203571D01*
X35754761Y-45203571D01*
X35602380Y-45165476D01*
X35526190Y-45127380D01*
X35450000Y-45051190D01*
X35411904Y-44936904D01*
X35411904Y-44860714D01*
X35450000Y-44746428D01*
X35488095Y-44708333D01*
X36211904Y-43946428D02*
X36211904Y-44403571D01*
X36211904Y-44175000D02*
X35411904Y-44175000D01*
X35526190Y-44251190D01*
X35602380Y-44327380D01*
X35640476Y-44403571D01*
%TO.C,C2*%
X28635714Y-44833333D02*
X28673809Y-44871428D01*
X28711904Y-44985714D01*
X28711904Y-45061904D01*
X28673809Y-45176190D01*
X28597619Y-45252380D01*
X28521428Y-45290476D01*
X28369047Y-45328571D01*
X28254761Y-45328571D01*
X28102380Y-45290476D01*
X28026190Y-45252380D01*
X27950000Y-45176190D01*
X27911904Y-45061904D01*
X27911904Y-44985714D01*
X27950000Y-44871428D01*
X27988095Y-44833333D01*
X27988095Y-44528571D02*
X27950000Y-44490476D01*
X27911904Y-44414285D01*
X27911904Y-44223809D01*
X27950000Y-44147619D01*
X27988095Y-44109523D01*
X28064285Y-44071428D01*
X28140476Y-44071428D01*
X28254761Y-44109523D01*
X28711904Y-44566666D01*
X28711904Y-44071428D01*
%TO.C,C3*%
X21365714Y-51063333D02*
X21403809Y-51101428D01*
X21441904Y-51215714D01*
X21441904Y-51291904D01*
X21403809Y-51406190D01*
X21327619Y-51482380D01*
X21251428Y-51520476D01*
X21099047Y-51558571D01*
X20984761Y-51558571D01*
X20832380Y-51520476D01*
X20756190Y-51482380D01*
X20680000Y-51406190D01*
X20641904Y-51291904D01*
X20641904Y-51215714D01*
X20680000Y-51101428D01*
X20718095Y-51063333D01*
X20641904Y-50796666D02*
X20641904Y-50301428D01*
X20946666Y-50568095D01*
X20946666Y-50453809D01*
X20984761Y-50377619D01*
X21022857Y-50339523D01*
X21099047Y-50301428D01*
X21289523Y-50301428D01*
X21365714Y-50339523D01*
X21403809Y-50377619D01*
X21441904Y-50453809D01*
X21441904Y-50682380D01*
X21403809Y-50758571D01*
X21365714Y-50796666D01*
%TO.C,R2*%
X21361904Y-53983333D02*
X20980952Y-54250000D01*
X21361904Y-54440476D02*
X20561904Y-54440476D01*
X20561904Y-54135714D01*
X20600000Y-54059523D01*
X20638095Y-54021428D01*
X20714285Y-53983333D01*
X20828571Y-53983333D01*
X20904761Y-54021428D01*
X20942857Y-54059523D01*
X20980952Y-54135714D01*
X20980952Y-54440476D01*
X20638095Y-53678571D02*
X20600000Y-53640476D01*
X20561904Y-53564285D01*
X20561904Y-53373809D01*
X20600000Y-53297619D01*
X20638095Y-53259523D01*
X20714285Y-53221428D01*
X20790476Y-53221428D01*
X20904761Y-53259523D01*
X21361904Y-53716666D01*
X21361904Y-53221428D01*
%TO.C,U1*%
X40411371Y-55276631D02*
X39953435Y-55734567D01*
X39926498Y-55815379D01*
X39926498Y-55869254D01*
X39953435Y-55950066D01*
X40061185Y-56057816D01*
X40141997Y-56084753D01*
X40195872Y-56084753D01*
X40276684Y-56057816D01*
X40734620Y-55599880D01*
X40734620Y-56731251D02*
X40411371Y-56408002D01*
X40572996Y-56569626D02*
X41138681Y-56003941D01*
X41003994Y-56030878D01*
X40896244Y-56030878D01*
X40815432Y-56003941D01*
%TD*%
%LPC*%
D15*
%TO.C,L4*%
X29800000Y-38050000D03*
X29800000Y-35750000D03*
%TD*%
%TO.C,L3*%
X47850000Y-35135000D03*
X47850000Y-32835000D03*
%TD*%
%TO.C,L2*%
X24900000Y-38065000D03*
X24900000Y-35765000D03*
%TD*%
D16*
%TO.C,Y1*%
X33175000Y-42875000D03*
X30275000Y-42875000D03*
X30275000Y-40575000D03*
X33175000Y-40575000D03*
%TD*%
%TO.C,C19*%
G36*
G01*
X42812500Y-35075000D02*
X42812500Y-36025000D01*
G75*
G02*
X42562500Y-36275000I-250000J0D01*
G01*
X41887500Y-36275000D01*
G75*
G02*
X41637500Y-36025000I0J250000D01*
G01*
X41637500Y-35075000D01*
G75*
G02*
X41887500Y-34825000I250000J0D01*
G01*
X42562500Y-34825000D01*
G75*
G02*
X42812500Y-35075000I0J-250000D01*
G01*
G37*
G36*
G01*
X44887500Y-35075000D02*
X44887500Y-36025000D01*
G75*
G02*
X44637500Y-36275000I-250000J0D01*
G01*
X43962500Y-36275000D01*
G75*
G02*
X43712500Y-36025000I0J250000D01*
G01*
X43712500Y-35075000D01*
G75*
G02*
X43962500Y-34825000I250000J0D01*
G01*
X44637500Y-34825000D01*
G75*
G02*
X44887500Y-35075000I0J-250000D01*
G01*
G37*
%TD*%
%TO.C,L1*%
G36*
G01*
X23025000Y-48174999D02*
X23025000Y-48875001D01*
G75*
G02*
X22775001Y-49125000I-249999J0D01*
G01*
X22224999Y-49125000D01*
G75*
G02*
X21975000Y-48875001I0J249999D01*
G01*
X21975000Y-48174999D01*
G75*
G02*
X22224999Y-47925000I249999J0D01*
G01*
X22775001Y-47925000D01*
G75*
G02*
X23025000Y-48174999I0J-249999D01*
G01*
G37*
G36*
G01*
X25325000Y-48174999D02*
X25325000Y-48875001D01*
G75*
G02*
X25075001Y-49125000I-249999J0D01*
G01*
X24524999Y-49125000D01*
G75*
G02*
X24275000Y-48875001I0J249999D01*
G01*
X24275000Y-48174999D01*
G75*
G02*
X24524999Y-47925000I249999J0D01*
G01*
X25075001Y-47925000D01*
G75*
G02*
X25325000Y-48174999I0J-249999D01*
G01*
G37*
%TD*%
%TO.C,C17*%
G36*
G01*
X24125000Y-46850000D02*
X24125000Y-45900000D01*
G75*
G02*
X24375000Y-45650000I250000J0D01*
G01*
X25050000Y-45650000D01*
G75*
G02*
X25300000Y-45900000I0J-250000D01*
G01*
X25300000Y-46850000D01*
G75*
G02*
X25050000Y-47100000I-250000J0D01*
G01*
X24375000Y-47100000D01*
G75*
G02*
X24125000Y-46850000I0J250000D01*
G01*
G37*
G36*
G01*
X22050000Y-46850000D02*
X22050000Y-45900000D01*
G75*
G02*
X22300000Y-45650000I250000J0D01*
G01*
X22975000Y-45650000D01*
G75*
G02*
X23225000Y-45900000I0J-250000D01*
G01*
X23225000Y-46850000D01*
G75*
G02*
X22975000Y-47100000I-250000J0D01*
G01*
X22300000Y-47100000D01*
G75*
G02*
X22050000Y-46850000I0J250000D01*
G01*
G37*
%TD*%
D17*
%TO.C,U4*%
X24100000Y-57900000D03*
X22100000Y-58850000D03*
X22100000Y-56950000D03*
%TD*%
D18*
%TO.C,J3*%
X26000000Y-32500000D03*
D19*
X26000000Y-29960000D03*
X28540000Y-32500000D03*
X28540000Y-29960000D03*
X31080000Y-32500000D03*
X31080000Y-29960000D03*
X33620000Y-32500000D03*
X33620000Y-29960000D03*
X36160000Y-32500000D03*
X36160000Y-29960000D03*
X38700000Y-32500000D03*
X38700000Y-29960000D03*
X41240000Y-32500000D03*
X41240000Y-29960000D03*
X43780000Y-32500000D03*
X43780000Y-29960000D03*
%TD*%
D18*
%TO.C,J1*%
X45500000Y-80500000D03*
D19*
X48040000Y-80500000D03*
X45500000Y-83040000D03*
X48040000Y-83040000D03*
X45500000Y-85580000D03*
X48040000Y-85580000D03*
X45500000Y-88120000D03*
X48040000Y-88120000D03*
X45500000Y-90660000D03*
X48040000Y-90660000D03*
X45500000Y-93200000D03*
X48040000Y-93200000D03*
X45500000Y-95740000D03*
X48040000Y-95740000D03*
X45500000Y-98280000D03*
X48040000Y-98280000D03*
X45500000Y-100820000D03*
X48040000Y-100820000D03*
X45500000Y-103360000D03*
X48040000Y-103360000D03*
X45500000Y-105900000D03*
X48040000Y-105900000D03*
X45500000Y-108440000D03*
X48040000Y-108440000D03*
X45500000Y-110980000D03*
X48040000Y-110980000D03*
X45500000Y-113520000D03*
X48040000Y-113520000D03*
X45500000Y-116060000D03*
X48040000Y-116060000D03*
X45500000Y-118600000D03*
X48040000Y-118600000D03*
X45500000Y-121140000D03*
X48040000Y-121140000D03*
X45500000Y-123680000D03*
X48040000Y-123680000D03*
X45500000Y-126220000D03*
X48040000Y-126220000D03*
X45500000Y-128760000D03*
X48040000Y-128760000D03*
%TD*%
D18*
%TO.C,J2*%
X22500000Y-80500000D03*
D19*
X25040000Y-80500000D03*
X22500000Y-83040000D03*
X25040000Y-83040000D03*
X22500000Y-85580000D03*
X25040000Y-85580000D03*
X22500000Y-88120000D03*
X25040000Y-88120000D03*
X22500000Y-90660000D03*
X25040000Y-90660000D03*
X22500000Y-93200000D03*
X25040000Y-93200000D03*
X22500000Y-95740000D03*
X25040000Y-95740000D03*
X22500000Y-98280000D03*
X25040000Y-98280000D03*
X22500000Y-100820000D03*
X25040000Y-100820000D03*
X22500000Y-103360000D03*
X25040000Y-103360000D03*
X22500000Y-105900000D03*
X25040000Y-105900000D03*
X22500000Y-108440000D03*
X25040000Y-108440000D03*
X22500000Y-110980000D03*
X25040000Y-110980000D03*
X22500000Y-113520000D03*
X25040000Y-113520000D03*
X22500000Y-116060000D03*
X25040000Y-116060000D03*
X22500000Y-118600000D03*
X25040000Y-118600000D03*
X22500000Y-121140000D03*
X25040000Y-121140000D03*
X22500000Y-123680000D03*
X25040000Y-123680000D03*
X22500000Y-126220000D03*
X25040000Y-126220000D03*
X22500000Y-128760000D03*
X25040000Y-128760000D03*
%TD*%
%TO.C,C26*%
G36*
G01*
X42825000Y-124512500D02*
X41875000Y-124512500D01*
G75*
G02*
X41625000Y-124262500I0J250000D01*
G01*
X41625000Y-123587500D01*
G75*
G02*
X41875000Y-123337500I250000J0D01*
G01*
X42825000Y-123337500D01*
G75*
G02*
X43075000Y-123587500I0J-250000D01*
G01*
X43075000Y-124262500D01*
G75*
G02*
X42825000Y-124512500I-250000J0D01*
G01*
G37*
G36*
G01*
X42825000Y-126587500D02*
X41875000Y-126587500D01*
G75*
G02*
X41625000Y-126337500I0J250000D01*
G01*
X41625000Y-125662500D01*
G75*
G02*
X41875000Y-125412500I250000J0D01*
G01*
X42825000Y-125412500D01*
G75*
G02*
X43075000Y-125662500I0J-250000D01*
G01*
X43075000Y-126337500D01*
G75*
G02*
X42825000Y-126587500I-250000J0D01*
G01*
G37*
%TD*%
%TO.C,C25*%
G36*
G01*
X40650000Y-124512500D02*
X39700000Y-124512500D01*
G75*
G02*
X39450000Y-124262500I0J250000D01*
G01*
X39450000Y-123587500D01*
G75*
G02*
X39700000Y-123337500I250000J0D01*
G01*
X40650000Y-123337500D01*
G75*
G02*
X40900000Y-123587500I0J-250000D01*
G01*
X40900000Y-124262500D01*
G75*
G02*
X40650000Y-124512500I-250000J0D01*
G01*
G37*
G36*
G01*
X40650000Y-126587500D02*
X39700000Y-126587500D01*
G75*
G02*
X39450000Y-126337500I0J250000D01*
G01*
X39450000Y-125662500D01*
G75*
G02*
X39700000Y-125412500I250000J0D01*
G01*
X40650000Y-125412500D01*
G75*
G02*
X40900000Y-125662500I0J-250000D01*
G01*
X40900000Y-126337500D01*
G75*
G02*
X40650000Y-126587500I-250000J0D01*
G01*
G37*
%TD*%
%TO.C,C6*%
G36*
G01*
X26720450Y-53951301D02*
X26048699Y-53279550D01*
G75*
G02*
X26048699Y-52925996I176777J176777D01*
G01*
X26525996Y-52448699D01*
G75*
G02*
X26879550Y-52448699I176777J-176777D01*
G01*
X27551301Y-53120450D01*
G75*
G02*
X27551301Y-53474004I-176777J-176777D01*
G01*
X27074004Y-53951301D01*
G75*
G02*
X26720450Y-53951301I-176777J176777D01*
G01*
G37*
G36*
G01*
X25253204Y-55418547D02*
X24581453Y-54746796D01*
G75*
G02*
X24581453Y-54393242I176777J176777D01*
G01*
X25058750Y-53915945D01*
G75*
G02*
X25412304Y-53915945I176777J-176777D01*
G01*
X26084055Y-54587696D01*
G75*
G02*
X26084055Y-54941250I-176777J-176777D01*
G01*
X25606758Y-55418547D01*
G75*
G02*
X25253204Y-55418547I-176777J176777D01*
G01*
G37*
%TD*%
%TO.C,R10*%
G36*
G01*
X27900000Y-50349999D02*
X27900000Y-51250001D01*
G75*
G02*
X27650001Y-51500000I-249999J0D01*
G01*
X26949999Y-51500000D01*
G75*
G02*
X26700000Y-51250001I0J249999D01*
G01*
X26700000Y-50349999D01*
G75*
G02*
X26949999Y-50100000I249999J0D01*
G01*
X27650001Y-50100000D01*
G75*
G02*
X27900000Y-50349999I0J-249999D01*
G01*
G37*
G36*
G01*
X29900000Y-50349999D02*
X29900000Y-51250001D01*
G75*
G02*
X29650001Y-51500000I-249999J0D01*
G01*
X28949999Y-51500000D01*
G75*
G02*
X28700000Y-51250001I0J249999D01*
G01*
X28700000Y-50349999D01*
G75*
G02*
X28949999Y-50100000I249999J0D01*
G01*
X29650001Y-50100000D01*
G75*
G02*
X29900000Y-50349999I0J-249999D01*
G01*
G37*
%TD*%
%TO.C,D1*%
G36*
G01*
X32587500Y-52781250D02*
X32587500Y-51868750D01*
G75*
G02*
X32831250Y-51625000I243750J0D01*
G01*
X33318750Y-51625000D01*
G75*
G02*
X33562500Y-51868750I0J-243750D01*
G01*
X33562500Y-52781250D01*
G75*
G02*
X33318750Y-53025000I-243750J0D01*
G01*
X32831250Y-53025000D01*
G75*
G02*
X32587500Y-52781250I0J243750D01*
G01*
G37*
G36*
G01*
X30712500Y-52781250D02*
X30712500Y-51868750D01*
G75*
G02*
X30956250Y-51625000I243750J0D01*
G01*
X31443750Y-51625000D01*
G75*
G02*
X31687500Y-51868750I0J-243750D01*
G01*
X31687500Y-52781250D01*
G75*
G02*
X31443750Y-53025000I-243750J0D01*
G01*
X30956250Y-53025000D01*
G75*
G02*
X30712500Y-52781250I0J243750D01*
G01*
G37*
%TD*%
%TO.C,C24*%
G36*
G01*
X38025000Y-36875000D02*
X37075000Y-36875000D01*
G75*
G02*
X36825000Y-36625000I0J250000D01*
G01*
X36825000Y-35950000D01*
G75*
G02*
X37075000Y-35700000I250000J0D01*
G01*
X38025000Y-35700000D01*
G75*
G02*
X38275000Y-35950000I0J-250000D01*
G01*
X38275000Y-36625000D01*
G75*
G02*
X38025000Y-36875000I-250000J0D01*
G01*
G37*
G36*
G01*
X38025000Y-38950000D02*
X37075000Y-38950000D01*
G75*
G02*
X36825000Y-38700000I0J250000D01*
G01*
X36825000Y-38025000D01*
G75*
G02*
X37075000Y-37775000I250000J0D01*
G01*
X38025000Y-37775000D01*
G75*
G02*
X38275000Y-38025000I0J-250000D01*
G01*
X38275000Y-38700000D01*
G75*
G02*
X38025000Y-38950000I-250000J0D01*
G01*
G37*
%TD*%
%TO.C,C23*%
G36*
G01*
X35900000Y-36862500D02*
X34950000Y-36862500D01*
G75*
G02*
X34700000Y-36612500I0J250000D01*
G01*
X34700000Y-35937500D01*
G75*
G02*
X34950000Y-35687500I250000J0D01*
G01*
X35900000Y-35687500D01*
G75*
G02*
X36150000Y-35937500I0J-250000D01*
G01*
X36150000Y-36612500D01*
G75*
G02*
X35900000Y-36862500I-250000J0D01*
G01*
G37*
G36*
G01*
X35900000Y-38937500D02*
X34950000Y-38937500D01*
G75*
G02*
X34700000Y-38687500I0J250000D01*
G01*
X34700000Y-38012500D01*
G75*
G02*
X34950000Y-37762500I250000J0D01*
G01*
X35900000Y-37762500D01*
G75*
G02*
X36150000Y-38012500I0J-250000D01*
G01*
X36150000Y-38687500D01*
G75*
G02*
X35900000Y-38937500I-250000J0D01*
G01*
G37*
%TD*%
%TO.C,C22*%
G36*
G01*
X33750000Y-36837500D02*
X32800000Y-36837500D01*
G75*
G02*
X32550000Y-36587500I0J250000D01*
G01*
X32550000Y-35912500D01*
G75*
G02*
X32800000Y-35662500I250000J0D01*
G01*
X33750000Y-35662500D01*
G75*
G02*
X34000000Y-35912500I0J-250000D01*
G01*
X34000000Y-36587500D01*
G75*
G02*
X33750000Y-36837500I-250000J0D01*
G01*
G37*
G36*
G01*
X33750000Y-38912500D02*
X32800000Y-38912500D01*
G75*
G02*
X32550000Y-38662500I0J250000D01*
G01*
X32550000Y-37987500D01*
G75*
G02*
X32800000Y-37737500I250000J0D01*
G01*
X33750000Y-37737500D01*
G75*
G02*
X34000000Y-37987500I0J-250000D01*
G01*
X34000000Y-38662500D01*
G75*
G02*
X33750000Y-38912500I-250000J0D01*
G01*
G37*
%TD*%
%TO.C,C21*%
G36*
G01*
X25050000Y-42587500D02*
X26000000Y-42587500D01*
G75*
G02*
X26250000Y-42837500I0J-250000D01*
G01*
X26250000Y-43512500D01*
G75*
G02*
X26000000Y-43762500I-250000J0D01*
G01*
X25050000Y-43762500D01*
G75*
G02*
X24800000Y-43512500I0J250000D01*
G01*
X24800000Y-42837500D01*
G75*
G02*
X25050000Y-42587500I250000J0D01*
G01*
G37*
G36*
G01*
X25050000Y-40512500D02*
X26000000Y-40512500D01*
G75*
G02*
X26250000Y-40762500I0J-250000D01*
G01*
X26250000Y-41437500D01*
G75*
G02*
X26000000Y-41687500I-250000J0D01*
G01*
X25050000Y-41687500D01*
G75*
G02*
X24800000Y-41437500I0J250000D01*
G01*
X24800000Y-40762500D01*
G75*
G02*
X25050000Y-40512500I250000J0D01*
G01*
G37*
%TD*%
%TO.C,C20*%
G36*
G01*
X22875000Y-44725000D02*
X22875000Y-43775000D01*
G75*
G02*
X23125000Y-43525000I250000J0D01*
G01*
X23800000Y-43525000D01*
G75*
G02*
X24050000Y-43775000I0J-250000D01*
G01*
X24050000Y-44725000D01*
G75*
G02*
X23800000Y-44975000I-250000J0D01*
G01*
X23125000Y-44975000D01*
G75*
G02*
X22875000Y-44725000I0J250000D01*
G01*
G37*
G36*
G01*
X20800000Y-44725000D02*
X20800000Y-43775000D01*
G75*
G02*
X21050000Y-43525000I250000J0D01*
G01*
X21725000Y-43525000D01*
G75*
G02*
X21975000Y-43775000I0J-250000D01*
G01*
X21975000Y-44725000D01*
G75*
G02*
X21725000Y-44975000I-250000J0D01*
G01*
X21050000Y-44975000D01*
G75*
G02*
X20800000Y-44725000I0J250000D01*
G01*
G37*
%TD*%
%TO.C,R8*%
G36*
G01*
X37112000Y-130148001D02*
X37112000Y-129247999D01*
G75*
G02*
X37361999Y-128998000I249999J0D01*
G01*
X38062001Y-128998000D01*
G75*
G02*
X38312000Y-129247999I0J-249999D01*
G01*
X38312000Y-130148001D01*
G75*
G02*
X38062001Y-130398000I-249999J0D01*
G01*
X37361999Y-130398000D01*
G75*
G02*
X37112000Y-130148001I0J249999D01*
G01*
G37*
G36*
G01*
X35112000Y-130148001D02*
X35112000Y-129247999D01*
G75*
G02*
X35361999Y-128998000I249999J0D01*
G01*
X36062001Y-128998000D01*
G75*
G02*
X36312000Y-129247999I0J-249999D01*
G01*
X36312000Y-130148001D01*
G75*
G02*
X36062001Y-130398000I-249999J0D01*
G01*
X35361999Y-130398000D01*
G75*
G02*
X35112000Y-130148001I0J249999D01*
G01*
G37*
%TD*%
%TO.C,R7*%
G36*
G01*
X30350001Y-121550000D02*
X29449999Y-121550000D01*
G75*
G02*
X29200000Y-121300001I0J249999D01*
G01*
X29200000Y-120599999D01*
G75*
G02*
X29449999Y-120350000I249999J0D01*
G01*
X30350001Y-120350000D01*
G75*
G02*
X30600000Y-120599999I0J-249999D01*
G01*
X30600000Y-121300001D01*
G75*
G02*
X30350001Y-121550000I-249999J0D01*
G01*
G37*
G36*
G01*
X30350001Y-123550000D02*
X29449999Y-123550000D01*
G75*
G02*
X29200000Y-123300001I0J249999D01*
G01*
X29200000Y-122599999D01*
G75*
G02*
X29449999Y-122350000I249999J0D01*
G01*
X30350001Y-122350000D01*
G75*
G02*
X30600000Y-122599999I0J-249999D01*
G01*
X30600000Y-123300001D01*
G75*
G02*
X30350001Y-123550000I-249999J0D01*
G01*
G37*
%TD*%
%TO.C,R6*%
G36*
G01*
X28250001Y-121600000D02*
X27349999Y-121600000D01*
G75*
G02*
X27100000Y-121350001I0J249999D01*
G01*
X27100000Y-120649999D01*
G75*
G02*
X27349999Y-120400000I249999J0D01*
G01*
X28250001Y-120400000D01*
G75*
G02*
X28500000Y-120649999I0J-249999D01*
G01*
X28500000Y-121350001D01*
G75*
G02*
X28250001Y-121600000I-249999J0D01*
G01*
G37*
G36*
G01*
X28250001Y-123600000D02*
X27349999Y-123600000D01*
G75*
G02*
X27100000Y-123350001I0J249999D01*
G01*
X27100000Y-122649999D01*
G75*
G02*
X27349999Y-122400000I249999J0D01*
G01*
X28250001Y-122400000D01*
G75*
G02*
X28500000Y-122649999I0J-249999D01*
G01*
X28500000Y-123350001D01*
G75*
G02*
X28250001Y-123600000I-249999J0D01*
G01*
G37*
%TD*%
%TO.C,R5*%
G36*
G01*
X32518000Y-129247999D02*
X32518000Y-130148001D01*
G75*
G02*
X32268001Y-130398000I-249999J0D01*
G01*
X31567999Y-130398000D01*
G75*
G02*
X31318000Y-130148001I0J249999D01*
G01*
X31318000Y-129247999D01*
G75*
G02*
X31567999Y-128998000I249999J0D01*
G01*
X32268001Y-128998000D01*
G75*
G02*
X32518000Y-129247999I0J-249999D01*
G01*
G37*
G36*
G01*
X34518000Y-129247999D02*
X34518000Y-130148001D01*
G75*
G02*
X34268001Y-130398000I-249999J0D01*
G01*
X33567999Y-130398000D01*
G75*
G02*
X33318000Y-130148001I0J249999D01*
G01*
X33318000Y-129247999D01*
G75*
G02*
X33567999Y-128998000I249999J0D01*
G01*
X34268001Y-128998000D01*
G75*
G02*
X34518000Y-129247999I0J-249999D01*
G01*
G37*
%TD*%
%TO.C,R4*%
G36*
G01*
X29449999Y-128350000D02*
X30350001Y-128350000D01*
G75*
G02*
X30600000Y-128599999I0J-249999D01*
G01*
X30600000Y-129300001D01*
G75*
G02*
X30350001Y-129550000I-249999J0D01*
G01*
X29449999Y-129550000D01*
G75*
G02*
X29200000Y-129300001I0J249999D01*
G01*
X29200000Y-128599999D01*
G75*
G02*
X29449999Y-128350000I249999J0D01*
G01*
G37*
G36*
G01*
X29449999Y-126350000D02*
X30350001Y-126350000D01*
G75*
G02*
X30600000Y-126599999I0J-249999D01*
G01*
X30600000Y-127300001D01*
G75*
G02*
X30350001Y-127550000I-249999J0D01*
G01*
X29449999Y-127550000D01*
G75*
G02*
X29200000Y-127300001I0J249999D01*
G01*
X29200000Y-126599999D01*
G75*
G02*
X29449999Y-126350000I249999J0D01*
G01*
G37*
%TD*%
%TO.C,R3*%
G36*
G01*
X28350001Y-127550000D02*
X27449999Y-127550000D01*
G75*
G02*
X27200000Y-127300001I0J249999D01*
G01*
X27200000Y-126599999D01*
G75*
G02*
X27449999Y-126350000I249999J0D01*
G01*
X28350001Y-126350000D01*
G75*
G02*
X28600000Y-126599999I0J-249999D01*
G01*
X28600000Y-127300001D01*
G75*
G02*
X28350001Y-127550000I-249999J0D01*
G01*
G37*
G36*
G01*
X28350001Y-129550000D02*
X27449999Y-129550000D01*
G75*
G02*
X27200000Y-129300001I0J249999D01*
G01*
X27200000Y-128599999D01*
G75*
G02*
X27449999Y-128350000I249999J0D01*
G01*
X28350001Y-128350000D01*
G75*
G02*
X28600000Y-128599999I0J-249999D01*
G01*
X28600000Y-129300001D01*
G75*
G02*
X28350001Y-129550000I-249999J0D01*
G01*
G37*
%TD*%
%TO.C,C18*%
G36*
G01*
X22887500Y-42645000D02*
X22887500Y-41695000D01*
G75*
G02*
X23137500Y-41445000I250000J0D01*
G01*
X23812500Y-41445000D01*
G75*
G02*
X24062500Y-41695000I0J-250000D01*
G01*
X24062500Y-42645000D01*
G75*
G02*
X23812500Y-42895000I-250000J0D01*
G01*
X23137500Y-42895000D01*
G75*
G02*
X22887500Y-42645000I0J250000D01*
G01*
G37*
G36*
G01*
X20812500Y-42645000D02*
X20812500Y-41695000D01*
G75*
G02*
X21062500Y-41445000I250000J0D01*
G01*
X21737500Y-41445000D01*
G75*
G02*
X21987500Y-41695000I0J-250000D01*
G01*
X21987500Y-42645000D01*
G75*
G02*
X21737500Y-42895000I-250000J0D01*
G01*
X21062500Y-42895000D01*
G75*
G02*
X20812500Y-42645000I0J250000D01*
G01*
G37*
%TD*%
%TO.C,C16*%
G36*
G01*
X22175000Y-32162500D02*
X23125000Y-32162500D01*
G75*
G02*
X23375000Y-32412500I0J-250000D01*
G01*
X23375000Y-33087500D01*
G75*
G02*
X23125000Y-33337500I-250000J0D01*
G01*
X22175000Y-33337500D01*
G75*
G02*
X21925000Y-33087500I0J250000D01*
G01*
X21925000Y-32412500D01*
G75*
G02*
X22175000Y-32162500I250000J0D01*
G01*
G37*
G36*
G01*
X22175000Y-30087500D02*
X23125000Y-30087500D01*
G75*
G02*
X23375000Y-30337500I0J-250000D01*
G01*
X23375000Y-31012500D01*
G75*
G02*
X23125000Y-31262500I-250000J0D01*
G01*
X22175000Y-31262500D01*
G75*
G02*
X21925000Y-31012500I0J250000D01*
G01*
X21925000Y-30337500D01*
G75*
G02*
X22175000Y-30087500I250000J0D01*
G01*
G37*
%TD*%
%TO.C,C15*%
G36*
G01*
X41975000Y-119487500D02*
X42925000Y-119487500D01*
G75*
G02*
X43175000Y-119737500I0J-250000D01*
G01*
X43175000Y-120412500D01*
G75*
G02*
X42925000Y-120662500I-250000J0D01*
G01*
X41975000Y-120662500D01*
G75*
G02*
X41725000Y-120412500I0J250000D01*
G01*
X41725000Y-119737500D01*
G75*
G02*
X41975000Y-119487500I250000J0D01*
G01*
G37*
G36*
G01*
X41975000Y-117412500D02*
X42925000Y-117412500D01*
G75*
G02*
X43175000Y-117662500I0J-250000D01*
G01*
X43175000Y-118337500D01*
G75*
G02*
X42925000Y-118587500I-250000J0D01*
G01*
X41975000Y-118587500D01*
G75*
G02*
X41725000Y-118337500I0J250000D01*
G01*
X41725000Y-117662500D01*
G75*
G02*
X41975000Y-117412500I250000J0D01*
G01*
G37*
%TD*%
%TO.C,C14*%
G36*
G01*
X28400000Y-124475000D02*
X28400000Y-125425000D01*
G75*
G02*
X28150000Y-125675000I-250000J0D01*
G01*
X27475000Y-125675000D01*
G75*
G02*
X27225000Y-125425000I0J250000D01*
G01*
X27225000Y-124475000D01*
G75*
G02*
X27475000Y-124225000I250000J0D01*
G01*
X28150000Y-124225000D01*
G75*
G02*
X28400000Y-124475000I0J-250000D01*
G01*
G37*
G36*
G01*
X30475000Y-124475000D02*
X30475000Y-125425000D01*
G75*
G02*
X30225000Y-125675000I-250000J0D01*
G01*
X29550000Y-125675000D01*
G75*
G02*
X29300000Y-125425000I0J250000D01*
G01*
X29300000Y-124475000D01*
G75*
G02*
X29550000Y-124225000I250000J0D01*
G01*
X30225000Y-124225000D01*
G75*
G02*
X30475000Y-124475000I0J-250000D01*
G01*
G37*
%TD*%
%TO.C,C13*%
G36*
G01*
X40700000Y-115187500D02*
X41650000Y-115187500D01*
G75*
G02*
X41900000Y-115437500I0J-250000D01*
G01*
X41900000Y-116112500D01*
G75*
G02*
X41650000Y-116362500I-250000J0D01*
G01*
X40700000Y-116362500D01*
G75*
G02*
X40450000Y-116112500I0J250000D01*
G01*
X40450000Y-115437500D01*
G75*
G02*
X40700000Y-115187500I250000J0D01*
G01*
G37*
G36*
G01*
X40700000Y-113112500D02*
X41650000Y-113112500D01*
G75*
G02*
X41900000Y-113362500I0J-250000D01*
G01*
X41900000Y-114037500D01*
G75*
G02*
X41650000Y-114287500I-250000J0D01*
G01*
X40700000Y-114287500D01*
G75*
G02*
X40450000Y-114037500I0J250000D01*
G01*
X40450000Y-113362500D01*
G75*
G02*
X40700000Y-113112500I250000J0D01*
G01*
G37*
%TD*%
%TO.C,U5*%
G36*
G01*
X36975000Y-110775000D02*
X36975000Y-110575000D01*
G75*
G02*
X37075000Y-110475000I100000J0D01*
G01*
X38350000Y-110475000D01*
G75*
G02*
X38450000Y-110575000I0J-100000D01*
G01*
X38450000Y-110775000D01*
G75*
G02*
X38350000Y-110875000I-100000J0D01*
G01*
X37075000Y-110875000D01*
G75*
G02*
X36975000Y-110775000I0J100000D01*
G01*
G37*
G36*
G01*
X36975000Y-111425000D02*
X36975000Y-111225000D01*
G75*
G02*
X37075000Y-111125000I100000J0D01*
G01*
X38350000Y-111125000D01*
G75*
G02*
X38450000Y-111225000I0J-100000D01*
G01*
X38450000Y-111425000D01*
G75*
G02*
X38350000Y-111525000I-100000J0D01*
G01*
X37075000Y-111525000D01*
G75*
G02*
X36975000Y-111425000I0J100000D01*
G01*
G37*
G36*
G01*
X36975000Y-112075000D02*
X36975000Y-111875000D01*
G75*
G02*
X37075000Y-111775000I100000J0D01*
G01*
X38350000Y-111775000D01*
G75*
G02*
X38450000Y-111875000I0J-100000D01*
G01*
X38450000Y-112075000D01*
G75*
G02*
X38350000Y-112175000I-100000J0D01*
G01*
X37075000Y-112175000D01*
G75*
G02*
X36975000Y-112075000I0J100000D01*
G01*
G37*
G36*
G01*
X36975000Y-112725000D02*
X36975000Y-112525000D01*
G75*
G02*
X37075000Y-112425000I100000J0D01*
G01*
X38350000Y-112425000D01*
G75*
G02*
X38450000Y-112525000I0J-100000D01*
G01*
X38450000Y-112725000D01*
G75*
G02*
X38350000Y-112825000I-100000J0D01*
G01*
X37075000Y-112825000D01*
G75*
G02*
X36975000Y-112725000I0J100000D01*
G01*
G37*
G36*
G01*
X36975000Y-113375000D02*
X36975000Y-113175000D01*
G75*
G02*
X37075000Y-113075000I100000J0D01*
G01*
X38350000Y-113075000D01*
G75*
G02*
X38450000Y-113175000I0J-100000D01*
G01*
X38450000Y-113375000D01*
G75*
G02*
X38350000Y-113475000I-100000J0D01*
G01*
X37075000Y-113475000D01*
G75*
G02*
X36975000Y-113375000I0J100000D01*
G01*
G37*
G36*
G01*
X36975000Y-114025000D02*
X36975000Y-113825000D01*
G75*
G02*
X37075000Y-113725000I100000J0D01*
G01*
X38350000Y-113725000D01*
G75*
G02*
X38450000Y-113825000I0J-100000D01*
G01*
X38450000Y-114025000D01*
G75*
G02*
X38350000Y-114125000I-100000J0D01*
G01*
X37075000Y-114125000D01*
G75*
G02*
X36975000Y-114025000I0J100000D01*
G01*
G37*
G36*
G01*
X36975000Y-114675000D02*
X36975000Y-114475000D01*
G75*
G02*
X37075000Y-114375000I100000J0D01*
G01*
X38350000Y-114375000D01*
G75*
G02*
X38450000Y-114475000I0J-100000D01*
G01*
X38450000Y-114675000D01*
G75*
G02*
X38350000Y-114775000I-100000J0D01*
G01*
X37075000Y-114775000D01*
G75*
G02*
X36975000Y-114675000I0J100000D01*
G01*
G37*
G36*
G01*
X36975000Y-115325000D02*
X36975000Y-115125000D01*
G75*
G02*
X37075000Y-115025000I100000J0D01*
G01*
X38350000Y-115025000D01*
G75*
G02*
X38450000Y-115125000I0J-100000D01*
G01*
X38450000Y-115325000D01*
G75*
G02*
X38350000Y-115425000I-100000J0D01*
G01*
X37075000Y-115425000D01*
G75*
G02*
X36975000Y-115325000I0J100000D01*
G01*
G37*
G36*
G01*
X36975000Y-115975000D02*
X36975000Y-115775000D01*
G75*
G02*
X37075000Y-115675000I100000J0D01*
G01*
X38350000Y-115675000D01*
G75*
G02*
X38450000Y-115775000I0J-100000D01*
G01*
X38450000Y-115975000D01*
G75*
G02*
X38350000Y-116075000I-100000J0D01*
G01*
X37075000Y-116075000D01*
G75*
G02*
X36975000Y-115975000I0J100000D01*
G01*
G37*
G36*
G01*
X36975000Y-116625000D02*
X36975000Y-116425000D01*
G75*
G02*
X37075000Y-116325000I100000J0D01*
G01*
X38350000Y-116325000D01*
G75*
G02*
X38450000Y-116425000I0J-100000D01*
G01*
X38450000Y-116625000D01*
G75*
G02*
X38350000Y-116725000I-100000J0D01*
G01*
X37075000Y-116725000D01*
G75*
G02*
X36975000Y-116625000I0J100000D01*
G01*
G37*
G36*
G01*
X31250000Y-116625000D02*
X31250000Y-116425000D01*
G75*
G02*
X31350000Y-116325000I100000J0D01*
G01*
X32625000Y-116325000D01*
G75*
G02*
X32725000Y-116425000I0J-100000D01*
G01*
X32725000Y-116625000D01*
G75*
G02*
X32625000Y-116725000I-100000J0D01*
G01*
X31350000Y-116725000D01*
G75*
G02*
X31250000Y-116625000I0J100000D01*
G01*
G37*
G36*
G01*
X31250000Y-115975000D02*
X31250000Y-115775000D01*
G75*
G02*
X31350000Y-115675000I100000J0D01*
G01*
X32625000Y-115675000D01*
G75*
G02*
X32725000Y-115775000I0J-100000D01*
G01*
X32725000Y-115975000D01*
G75*
G02*
X32625000Y-116075000I-100000J0D01*
G01*
X31350000Y-116075000D01*
G75*
G02*
X31250000Y-115975000I0J100000D01*
G01*
G37*
G36*
G01*
X31250000Y-115325000D02*
X31250000Y-115125000D01*
G75*
G02*
X31350000Y-115025000I100000J0D01*
G01*
X32625000Y-115025000D01*
G75*
G02*
X32725000Y-115125000I0J-100000D01*
G01*
X32725000Y-115325000D01*
G75*
G02*
X32625000Y-115425000I-100000J0D01*
G01*
X31350000Y-115425000D01*
G75*
G02*
X31250000Y-115325000I0J100000D01*
G01*
G37*
G36*
G01*
X31250000Y-114675000D02*
X31250000Y-114475000D01*
G75*
G02*
X31350000Y-114375000I100000J0D01*
G01*
X32625000Y-114375000D01*
G75*
G02*
X32725000Y-114475000I0J-100000D01*
G01*
X32725000Y-114675000D01*
G75*
G02*
X32625000Y-114775000I-100000J0D01*
G01*
X31350000Y-114775000D01*
G75*
G02*
X31250000Y-114675000I0J100000D01*
G01*
G37*
G36*
G01*
X31250000Y-114025000D02*
X31250000Y-113825000D01*
G75*
G02*
X31350000Y-113725000I100000J0D01*
G01*
X32625000Y-113725000D01*
G75*
G02*
X32725000Y-113825000I0J-100000D01*
G01*
X32725000Y-114025000D01*
G75*
G02*
X32625000Y-114125000I-100000J0D01*
G01*
X31350000Y-114125000D01*
G75*
G02*
X31250000Y-114025000I0J100000D01*
G01*
G37*
G36*
G01*
X31250000Y-113375000D02*
X31250000Y-113175000D01*
G75*
G02*
X31350000Y-113075000I100000J0D01*
G01*
X32625000Y-113075000D01*
G75*
G02*
X32725000Y-113175000I0J-100000D01*
G01*
X32725000Y-113375000D01*
G75*
G02*
X32625000Y-113475000I-100000J0D01*
G01*
X31350000Y-113475000D01*
G75*
G02*
X31250000Y-113375000I0J100000D01*
G01*
G37*
G36*
G01*
X31250000Y-112725000D02*
X31250000Y-112525000D01*
G75*
G02*
X31350000Y-112425000I100000J0D01*
G01*
X32625000Y-112425000D01*
G75*
G02*
X32725000Y-112525000I0J-100000D01*
G01*
X32725000Y-112725000D01*
G75*
G02*
X32625000Y-112825000I-100000J0D01*
G01*
X31350000Y-112825000D01*
G75*
G02*
X31250000Y-112725000I0J100000D01*
G01*
G37*
G36*
G01*
X31250000Y-112075000D02*
X31250000Y-111875000D01*
G75*
G02*
X31350000Y-111775000I100000J0D01*
G01*
X32625000Y-111775000D01*
G75*
G02*
X32725000Y-111875000I0J-100000D01*
G01*
X32725000Y-112075000D01*
G75*
G02*
X32625000Y-112175000I-100000J0D01*
G01*
X31350000Y-112175000D01*
G75*
G02*
X31250000Y-112075000I0J100000D01*
G01*
G37*
G36*
G01*
X31250000Y-111425000D02*
X31250000Y-111225000D01*
G75*
G02*
X31350000Y-111125000I100000J0D01*
G01*
X32625000Y-111125000D01*
G75*
G02*
X32725000Y-111225000I0J-100000D01*
G01*
X32725000Y-111425000D01*
G75*
G02*
X32625000Y-111525000I-100000J0D01*
G01*
X31350000Y-111525000D01*
G75*
G02*
X31250000Y-111425000I0J100000D01*
G01*
G37*
G36*
G01*
X31250000Y-110775000D02*
X31250000Y-110575000D01*
G75*
G02*
X31350000Y-110475000I100000J0D01*
G01*
X32625000Y-110475000D01*
G75*
G02*
X32725000Y-110575000I0J-100000D01*
G01*
X32725000Y-110775000D01*
G75*
G02*
X32625000Y-110875000I-100000J0D01*
G01*
X31350000Y-110875000D01*
G75*
G02*
X31250000Y-110775000I0J100000D01*
G01*
G37*
%TD*%
%TO.C,U2*%
G36*
G01*
X36350000Y-120410000D02*
X36350000Y-120110000D01*
G75*
G02*
X36500000Y-119960000I150000J0D01*
G01*
X38150000Y-119960000D01*
G75*
G02*
X38300000Y-120110000I0J-150000D01*
G01*
X38300000Y-120410000D01*
G75*
G02*
X38150000Y-120560000I-150000J0D01*
G01*
X36500000Y-120560000D01*
G75*
G02*
X36350000Y-120410000I0J150000D01*
G01*
G37*
G36*
G01*
X36350000Y-121680000D02*
X36350000Y-121380000D01*
G75*
G02*
X36500000Y-121230000I150000J0D01*
G01*
X38150000Y-121230000D01*
G75*
G02*
X38300000Y-121380000I0J-150000D01*
G01*
X38300000Y-121680000D01*
G75*
G02*
X38150000Y-121830000I-150000J0D01*
G01*
X36500000Y-121830000D01*
G75*
G02*
X36350000Y-121680000I0J150000D01*
G01*
G37*
G36*
G01*
X36350000Y-122950000D02*
X36350000Y-122650000D01*
G75*
G02*
X36500000Y-122500000I150000J0D01*
G01*
X38150000Y-122500000D01*
G75*
G02*
X38300000Y-122650000I0J-150000D01*
G01*
X38300000Y-122950000D01*
G75*
G02*
X38150000Y-123100000I-150000J0D01*
G01*
X36500000Y-123100000D01*
G75*
G02*
X36350000Y-122950000I0J150000D01*
G01*
G37*
G36*
G01*
X36350000Y-124220000D02*
X36350000Y-123920000D01*
G75*
G02*
X36500000Y-123770000I150000J0D01*
G01*
X38150000Y-123770000D01*
G75*
G02*
X38300000Y-123920000I0J-150000D01*
G01*
X38300000Y-124220000D01*
G75*
G02*
X38150000Y-124370000I-150000J0D01*
G01*
X36500000Y-124370000D01*
G75*
G02*
X36350000Y-124220000I0J150000D01*
G01*
G37*
G36*
G01*
X36350000Y-125490000D02*
X36350000Y-125190000D01*
G75*
G02*
X36500000Y-125040000I150000J0D01*
G01*
X38150000Y-125040000D01*
G75*
G02*
X38300000Y-125190000I0J-150000D01*
G01*
X38300000Y-125490000D01*
G75*
G02*
X38150000Y-125640000I-150000J0D01*
G01*
X36500000Y-125640000D01*
G75*
G02*
X36350000Y-125490000I0J150000D01*
G01*
G37*
G36*
G01*
X36350000Y-126760000D02*
X36350000Y-126460000D01*
G75*
G02*
X36500000Y-126310000I150000J0D01*
G01*
X38150000Y-126310000D01*
G75*
G02*
X38300000Y-126460000I0J-150000D01*
G01*
X38300000Y-126760000D01*
G75*
G02*
X38150000Y-126910000I-150000J0D01*
G01*
X36500000Y-126910000D01*
G75*
G02*
X36350000Y-126760000I0J150000D01*
G01*
G37*
G36*
G01*
X36350000Y-128030000D02*
X36350000Y-127730000D01*
G75*
G02*
X36500000Y-127580000I150000J0D01*
G01*
X38150000Y-127580000D01*
G75*
G02*
X38300000Y-127730000I0J-150000D01*
G01*
X38300000Y-128030000D01*
G75*
G02*
X38150000Y-128180000I-150000J0D01*
G01*
X36500000Y-128180000D01*
G75*
G02*
X36350000Y-128030000I0J150000D01*
G01*
G37*
G36*
G01*
X31400000Y-128030000D02*
X31400000Y-127730000D01*
G75*
G02*
X31550000Y-127580000I150000J0D01*
G01*
X33200000Y-127580000D01*
G75*
G02*
X33350000Y-127730000I0J-150000D01*
G01*
X33350000Y-128030000D01*
G75*
G02*
X33200000Y-128180000I-150000J0D01*
G01*
X31550000Y-128180000D01*
G75*
G02*
X31400000Y-128030000I0J150000D01*
G01*
G37*
G36*
G01*
X31400000Y-126760000D02*
X31400000Y-126460000D01*
G75*
G02*
X31550000Y-126310000I150000J0D01*
G01*
X33200000Y-126310000D01*
G75*
G02*
X33350000Y-126460000I0J-150000D01*
G01*
X33350000Y-126760000D01*
G75*
G02*
X33200000Y-126910000I-150000J0D01*
G01*
X31550000Y-126910000D01*
G75*
G02*
X31400000Y-126760000I0J150000D01*
G01*
G37*
G36*
G01*
X31400000Y-125490000D02*
X31400000Y-125190000D01*
G75*
G02*
X31550000Y-125040000I150000J0D01*
G01*
X33200000Y-125040000D01*
G75*
G02*
X33350000Y-125190000I0J-150000D01*
G01*
X33350000Y-125490000D01*
G75*
G02*
X33200000Y-125640000I-150000J0D01*
G01*
X31550000Y-125640000D01*
G75*
G02*
X31400000Y-125490000I0J150000D01*
G01*
G37*
G36*
G01*
X31400000Y-124220000D02*
X31400000Y-123920000D01*
G75*
G02*
X31550000Y-123770000I150000J0D01*
G01*
X33200000Y-123770000D01*
G75*
G02*
X33350000Y-123920000I0J-150000D01*
G01*
X33350000Y-124220000D01*
G75*
G02*
X33200000Y-124370000I-150000J0D01*
G01*
X31550000Y-124370000D01*
G75*
G02*
X31400000Y-124220000I0J150000D01*
G01*
G37*
G36*
G01*
X31400000Y-122950000D02*
X31400000Y-122650000D01*
G75*
G02*
X31550000Y-122500000I150000J0D01*
G01*
X33200000Y-122500000D01*
G75*
G02*
X33350000Y-122650000I0J-150000D01*
G01*
X33350000Y-122950000D01*
G75*
G02*
X33200000Y-123100000I-150000J0D01*
G01*
X31550000Y-123100000D01*
G75*
G02*
X31400000Y-122950000I0J150000D01*
G01*
G37*
G36*
G01*
X31400000Y-121680000D02*
X31400000Y-121380000D01*
G75*
G02*
X31550000Y-121230000I150000J0D01*
G01*
X33200000Y-121230000D01*
G75*
G02*
X33350000Y-121380000I0J-150000D01*
G01*
X33350000Y-121680000D01*
G75*
G02*
X33200000Y-121830000I-150000J0D01*
G01*
X31550000Y-121830000D01*
G75*
G02*
X31400000Y-121680000I0J150000D01*
G01*
G37*
G36*
G01*
X31400000Y-120410000D02*
X31400000Y-120110000D01*
G75*
G02*
X31550000Y-119960000I150000J0D01*
G01*
X33200000Y-119960000D01*
G75*
G02*
X33350000Y-120110000I0J-150000D01*
G01*
X33350000Y-120410000D01*
G75*
G02*
X33200000Y-120560000I-150000J0D01*
G01*
X31550000Y-120560000D01*
G75*
G02*
X31400000Y-120410000I0J150000D01*
G01*
G37*
%TD*%
%TO.C,C12*%
G36*
G01*
X37250000Y-109025000D02*
X37250000Y-108075000D01*
G75*
G02*
X37500000Y-107825000I250000J0D01*
G01*
X38175000Y-107825000D01*
G75*
G02*
X38425000Y-108075000I0J-250000D01*
G01*
X38425000Y-109025000D01*
G75*
G02*
X38175000Y-109275000I-250000J0D01*
G01*
X37500000Y-109275000D01*
G75*
G02*
X37250000Y-109025000I0J250000D01*
G01*
G37*
G36*
G01*
X35175000Y-109025000D02*
X35175000Y-108075000D01*
G75*
G02*
X35425000Y-107825000I250000J0D01*
G01*
X36100000Y-107825000D01*
G75*
G02*
X36350000Y-108075000I0J-250000D01*
G01*
X36350000Y-109025000D01*
G75*
G02*
X36100000Y-109275000I-250000J0D01*
G01*
X35425000Y-109275000D01*
G75*
G02*
X35175000Y-109025000I0J250000D01*
G01*
G37*
%TD*%
%TO.C,C11*%
G36*
G01*
X28175000Y-112250000D02*
X29125000Y-112250000D01*
G75*
G02*
X29375000Y-112500000I0J-250000D01*
G01*
X29375000Y-113175000D01*
G75*
G02*
X29125000Y-113425000I-250000J0D01*
G01*
X28175000Y-113425000D01*
G75*
G02*
X27925000Y-113175000I0J250000D01*
G01*
X27925000Y-112500000D01*
G75*
G02*
X28175000Y-112250000I250000J0D01*
G01*
G37*
G36*
G01*
X28175000Y-110175000D02*
X29125000Y-110175000D01*
G75*
G02*
X29375000Y-110425000I0J-250000D01*
G01*
X29375000Y-111100000D01*
G75*
G02*
X29125000Y-111350000I-250000J0D01*
G01*
X28175000Y-111350000D01*
G75*
G02*
X27925000Y-111100000I0J250000D01*
G01*
X27925000Y-110425000D01*
G75*
G02*
X28175000Y-110175000I250000J0D01*
G01*
G37*
%TD*%
%TO.C,C10*%
G36*
G01*
X28312500Y-114675000D02*
X28312500Y-115625000D01*
G75*
G02*
X28062500Y-115875000I-250000J0D01*
G01*
X27387500Y-115875000D01*
G75*
G02*
X27137500Y-115625000I0J250000D01*
G01*
X27137500Y-114675000D01*
G75*
G02*
X27387500Y-114425000I250000J0D01*
G01*
X28062500Y-114425000D01*
G75*
G02*
X28312500Y-114675000I0J-250000D01*
G01*
G37*
G36*
G01*
X30387500Y-114675000D02*
X30387500Y-115625000D01*
G75*
G02*
X30137500Y-115875000I-250000J0D01*
G01*
X29462500Y-115875000D01*
G75*
G02*
X29212500Y-115625000I0J250000D01*
G01*
X29212500Y-114675000D01*
G75*
G02*
X29462500Y-114425000I250000J0D01*
G01*
X30137500Y-114425000D01*
G75*
G02*
X30387500Y-114675000I0J-250000D01*
G01*
G37*
%TD*%
%TO.C,C9*%
G36*
G01*
X31937500Y-108025000D02*
X31937500Y-108975000D01*
G75*
G02*
X31687500Y-109225000I-250000J0D01*
G01*
X31012500Y-109225000D01*
G75*
G02*
X30762500Y-108975000I0J250000D01*
G01*
X30762500Y-108025000D01*
G75*
G02*
X31012500Y-107775000I250000J0D01*
G01*
X31687500Y-107775000D01*
G75*
G02*
X31937500Y-108025000I0J-250000D01*
G01*
G37*
G36*
G01*
X34012500Y-108025000D02*
X34012500Y-108975000D01*
G75*
G02*
X33762500Y-109225000I-250000J0D01*
G01*
X33087500Y-109225000D01*
G75*
G02*
X32837500Y-108975000I0J250000D01*
G01*
X32837500Y-108025000D01*
G75*
G02*
X33087500Y-107775000I250000J0D01*
G01*
X33762500Y-107775000D01*
G75*
G02*
X34012500Y-108025000I0J-250000D01*
G01*
G37*
%TD*%
%TO.C,C8*%
G36*
G01*
X29475000Y-117662500D02*
X28525000Y-117662500D01*
G75*
G02*
X28275000Y-117412500I0J250000D01*
G01*
X28275000Y-116737500D01*
G75*
G02*
X28525000Y-116487500I250000J0D01*
G01*
X29475000Y-116487500D01*
G75*
G02*
X29725000Y-116737500I0J-250000D01*
G01*
X29725000Y-117412500D01*
G75*
G02*
X29475000Y-117662500I-250000J0D01*
G01*
G37*
G36*
G01*
X29475000Y-119737500D02*
X28525000Y-119737500D01*
G75*
G02*
X28275000Y-119487500I0J250000D01*
G01*
X28275000Y-118812500D01*
G75*
G02*
X28525000Y-118562500I250000J0D01*
G01*
X29475000Y-118562500D01*
G75*
G02*
X29725000Y-118812500I0J-250000D01*
G01*
X29725000Y-119487500D01*
G75*
G02*
X29475000Y-119737500I-250000J0D01*
G01*
G37*
%TD*%
%TO.C,C7*%
G36*
G01*
X38225000Y-50762500D02*
X37275000Y-50762500D01*
G75*
G02*
X37025000Y-50512500I0J250000D01*
G01*
X37025000Y-49837500D01*
G75*
G02*
X37275000Y-49587500I250000J0D01*
G01*
X38225000Y-49587500D01*
G75*
G02*
X38475000Y-49837500I0J-250000D01*
G01*
X38475000Y-50512500D01*
G75*
G02*
X38225000Y-50762500I-250000J0D01*
G01*
G37*
G36*
G01*
X38225000Y-52837500D02*
X37275000Y-52837500D01*
G75*
G02*
X37025000Y-52587500I0J250000D01*
G01*
X37025000Y-51912500D01*
G75*
G02*
X37275000Y-51662500I250000J0D01*
G01*
X38225000Y-51662500D01*
G75*
G02*
X38475000Y-51912500I0J-250000D01*
G01*
X38475000Y-52587500D01*
G75*
G02*
X38225000Y-52837500I-250000J0D01*
G01*
G37*
%TD*%
%TO.C,J5*%
X31810000Y-47250000D03*
D18*
X34350000Y-47250000D03*
%TD*%
%TO.C,C5*%
G36*
G01*
X35546796Y-69231453D02*
X36218547Y-69903204D01*
G75*
G02*
X36218547Y-70256758I-176777J-176777D01*
G01*
X35741250Y-70734055D01*
G75*
G02*
X35387696Y-70734055I-176777J176777D01*
G01*
X34715945Y-70062304D01*
G75*
G02*
X34715945Y-69708750I176777J176777D01*
G01*
X35193242Y-69231453D01*
G75*
G02*
X35546796Y-69231453I176777J-176777D01*
G01*
G37*
G36*
G01*
X34079550Y-70698699D02*
X34751301Y-71370450D01*
G75*
G02*
X34751301Y-71724004I-176777J-176777D01*
G01*
X34274004Y-72201301D01*
G75*
G02*
X33920450Y-72201301I-176777J176777D01*
G01*
X33248699Y-71529550D01*
G75*
G02*
X33248699Y-71175996I176777J176777D01*
G01*
X33725996Y-70698699D01*
G75*
G02*
X34079550Y-70698699I176777J-176777D01*
G01*
G37*
%TD*%
D20*
%TO.C,U3*%
X46200000Y-41650000D03*
D21*
X39900000Y-41650000D03*
X39900000Y-43950000D03*
X39900000Y-39350000D03*
%TD*%
%TO.C,C4*%
G36*
G01*
X27483000Y-47012500D02*
X26533000Y-47012500D01*
G75*
G02*
X26283000Y-46762500I0J250000D01*
G01*
X26283000Y-46087500D01*
G75*
G02*
X26533000Y-45837500I250000J0D01*
G01*
X27483000Y-45837500D01*
G75*
G02*
X27733000Y-46087500I0J-250000D01*
G01*
X27733000Y-46762500D01*
G75*
G02*
X27483000Y-47012500I-250000J0D01*
G01*
G37*
G36*
G01*
X27483000Y-49087500D02*
X26533000Y-49087500D01*
G75*
G02*
X26283000Y-48837500I0J250000D01*
G01*
X26283000Y-48162500D01*
G75*
G02*
X26533000Y-47912500I250000J0D01*
G01*
X27483000Y-47912500D01*
G75*
G02*
X27733000Y-48162500I0J-250000D01*
G01*
X27733000Y-48837500D01*
G75*
G02*
X27483000Y-49087500I-250000J0D01*
G01*
G37*
%TD*%
%TO.C,C1*%
G36*
G01*
X35300000Y-40437500D02*
X36250000Y-40437500D01*
G75*
G02*
X36500000Y-40687500I0J-250000D01*
G01*
X36500000Y-41362500D01*
G75*
G02*
X36250000Y-41612500I-250000J0D01*
G01*
X35300000Y-41612500D01*
G75*
G02*
X35050000Y-41362500I0J250000D01*
G01*
X35050000Y-40687500D01*
G75*
G02*
X35300000Y-40437500I250000J0D01*
G01*
G37*
G36*
G01*
X35300000Y-42512500D02*
X36250000Y-42512500D01*
G75*
G02*
X36500000Y-42762500I0J-250000D01*
G01*
X36500000Y-43437500D01*
G75*
G02*
X36250000Y-43687500I-250000J0D01*
G01*
X35300000Y-43687500D01*
G75*
G02*
X35050000Y-43437500I0J250000D01*
G01*
X35050000Y-42762500D01*
G75*
G02*
X35300000Y-42512500I250000J0D01*
G01*
G37*
%TD*%
%TO.C,C2*%
G36*
G01*
X28150000Y-41687500D02*
X27200000Y-41687500D01*
G75*
G02*
X26950000Y-41437500I0J250000D01*
G01*
X26950000Y-40762500D01*
G75*
G02*
X27200000Y-40512500I250000J0D01*
G01*
X28150000Y-40512500D01*
G75*
G02*
X28400000Y-40762500I0J-250000D01*
G01*
X28400000Y-41437500D01*
G75*
G02*
X28150000Y-41687500I-250000J0D01*
G01*
G37*
G36*
G01*
X28150000Y-43762500D02*
X27200000Y-43762500D01*
G75*
G02*
X26950000Y-43512500I0J250000D01*
G01*
X26950000Y-42837500D01*
G75*
G02*
X27200000Y-42587500I250000J0D01*
G01*
X28150000Y-42587500D01*
G75*
G02*
X28400000Y-42837500I0J-250000D01*
G01*
X28400000Y-43512500D01*
G75*
G02*
X28150000Y-43762500I-250000J0D01*
G01*
G37*
%TD*%
%TO.C,C3*%
G36*
G01*
X21883000Y-51475000D02*
X21883000Y-50525000D01*
G75*
G02*
X22133000Y-50275000I250000J0D01*
G01*
X22808000Y-50275000D01*
G75*
G02*
X23058000Y-50525000I0J-250000D01*
G01*
X23058000Y-51475000D01*
G75*
G02*
X22808000Y-51725000I-250000J0D01*
G01*
X22133000Y-51725000D01*
G75*
G02*
X21883000Y-51475000I0J250000D01*
G01*
G37*
G36*
G01*
X23958000Y-51475000D02*
X23958000Y-50525000D01*
G75*
G02*
X24208000Y-50275000I250000J0D01*
G01*
X24883000Y-50275000D01*
G75*
G02*
X25133000Y-50525000I0J-250000D01*
G01*
X25133000Y-51475000D01*
G75*
G02*
X24883000Y-51725000I-250000J0D01*
G01*
X24208000Y-51725000D01*
G75*
G02*
X23958000Y-51475000I0J250000D01*
G01*
G37*
%TD*%
%TO.C,R2*%
G36*
G01*
X22099999Y-52500000D02*
X23000001Y-52500000D01*
G75*
G02*
X23250000Y-52749999I0J-249999D01*
G01*
X23250000Y-53450001D01*
G75*
G02*
X23000001Y-53700000I-249999J0D01*
G01*
X22099999Y-53700000D01*
G75*
G02*
X21850000Y-53450001I0J249999D01*
G01*
X21850000Y-52749999D01*
G75*
G02*
X22099999Y-52500000I249999J0D01*
G01*
G37*
G36*
G01*
X22099999Y-54500000D02*
X23000001Y-54500000D01*
G75*
G02*
X23250000Y-54749999I0J-249999D01*
G01*
X23250000Y-55450001D01*
G75*
G02*
X23000001Y-55700000I-249999J0D01*
G01*
X22099999Y-55700000D01*
G75*
G02*
X21850000Y-55450001I0J249999D01*
G01*
X21850000Y-54749999D01*
G75*
G02*
X22099999Y-54500000I249999J0D01*
G01*
G37*
%TD*%
D22*
%TO.C,J4*%
G36*
X46160000Y-52207918D02*
G01*
X47362082Y-53410000D01*
X46160000Y-54612082D01*
X44957918Y-53410000D01*
X46160000Y-52207918D01*
G37*
G36*
G01*
X44964990Y-51012908D02*
X44964990Y-51012908D01*
G75*
G02*
X44964990Y-52214990I-601041J-601041D01*
G01*
X44964990Y-52214990D01*
G75*
G02*
X43762908Y-52214990I-601041J601041D01*
G01*
X43762908Y-52214990D01*
G75*
G02*
X43762908Y-51012908I601041J601041D01*
G01*
X43762908Y-51012908D01*
G75*
G02*
X44964990Y-51012908I601041J-601041D01*
G01*
G37*
G36*
G01*
X43168939Y-49216857D02*
X43168939Y-49216857D01*
G75*
G02*
X43168939Y-50418939I-601041J-601041D01*
G01*
X43168939Y-50418939D01*
G75*
G02*
X41966857Y-50418939I-601041J601041D01*
G01*
X41966857Y-50418939D01*
G75*
G02*
X41966857Y-49216857I601041J601041D01*
G01*
X41966857Y-49216857D01*
G75*
G02*
X43168939Y-49216857I601041J-601041D01*
G01*
G37*
G36*
G01*
X41372887Y-47420805D02*
X41372887Y-47420805D01*
G75*
G02*
X41372887Y-48622887I-601041J-601041D01*
G01*
X41372887Y-48622887D01*
G75*
G02*
X40170805Y-48622887I-601041J601041D01*
G01*
X40170805Y-48622887D01*
G75*
G02*
X40170805Y-47420805I601041J601041D01*
G01*
X40170805Y-47420805D01*
G75*
G02*
X41372887Y-47420805I601041J-601041D01*
G01*
G37*
%TD*%
%TO.C,U1*%
G36*
G01*
X33337778Y-54090544D02*
X33443844Y-53984478D01*
G75*
G02*
X33549910Y-53984478I53033J-53033D01*
G01*
X34539860Y-54974428D01*
G75*
G02*
X34539860Y-55080494I-53033J-53033D01*
G01*
X34433794Y-55186560D01*
G75*
G02*
X34327728Y-55186560I-53033J53033D01*
G01*
X33337778Y-54196610D01*
G75*
G02*
X33337778Y-54090544I53033J53033D01*
G01*
G37*
G36*
G01*
X32984225Y-54444097D02*
X33090291Y-54338031D01*
G75*
G02*
X33196357Y-54338031I53033J-53033D01*
G01*
X34186307Y-55327981D01*
G75*
G02*
X34186307Y-55434047I-53033J-53033D01*
G01*
X34080241Y-55540113D01*
G75*
G02*
X33974175Y-55540113I-53033J53033D01*
G01*
X32984225Y-54550163D01*
G75*
G02*
X32984225Y-54444097I53033J53033D01*
G01*
G37*
G36*
G01*
X32630672Y-54797650D02*
X32736738Y-54691584D01*
G75*
G02*
X32842804Y-54691584I53033J-53033D01*
G01*
X33832754Y-55681534D01*
G75*
G02*
X33832754Y-55787600I-53033J-53033D01*
G01*
X33726688Y-55893666D01*
G75*
G02*
X33620622Y-55893666I-53033J53033D01*
G01*
X32630672Y-54903716D01*
G75*
G02*
X32630672Y-54797650I53033J53033D01*
G01*
G37*
G36*
G01*
X32277118Y-55151204D02*
X32383184Y-55045138D01*
G75*
G02*
X32489250Y-55045138I53033J-53033D01*
G01*
X33479200Y-56035088D01*
G75*
G02*
X33479200Y-56141154I-53033J-53033D01*
G01*
X33373134Y-56247220D01*
G75*
G02*
X33267068Y-56247220I-53033J53033D01*
G01*
X32277118Y-55257270D01*
G75*
G02*
X32277118Y-55151204I53033J53033D01*
G01*
G37*
G36*
G01*
X31923565Y-55504757D02*
X32029631Y-55398691D01*
G75*
G02*
X32135697Y-55398691I53033J-53033D01*
G01*
X33125647Y-56388641D01*
G75*
G02*
X33125647Y-56494707I-53033J-53033D01*
G01*
X33019581Y-56600773D01*
G75*
G02*
X32913515Y-56600773I-53033J53033D01*
G01*
X31923565Y-55610823D01*
G75*
G02*
X31923565Y-55504757I53033J53033D01*
G01*
G37*
G36*
G01*
X31570011Y-55858311D02*
X31676077Y-55752245D01*
G75*
G02*
X31782143Y-55752245I53033J-53033D01*
G01*
X32772093Y-56742195D01*
G75*
G02*
X32772093Y-56848261I-53033J-53033D01*
G01*
X32666027Y-56954327D01*
G75*
G02*
X32559961Y-56954327I-53033J53033D01*
G01*
X31570011Y-55964377D01*
G75*
G02*
X31570011Y-55858311I53033J53033D01*
G01*
G37*
G36*
G01*
X31216458Y-56211864D02*
X31322524Y-56105798D01*
G75*
G02*
X31428590Y-56105798I53033J-53033D01*
G01*
X32418540Y-57095748D01*
G75*
G02*
X32418540Y-57201814I-53033J-53033D01*
G01*
X32312474Y-57307880D01*
G75*
G02*
X32206408Y-57307880I-53033J53033D01*
G01*
X31216458Y-56317930D01*
G75*
G02*
X31216458Y-56211864I53033J53033D01*
G01*
G37*
G36*
G01*
X30862905Y-56565417D02*
X30968971Y-56459351D01*
G75*
G02*
X31075037Y-56459351I53033J-53033D01*
G01*
X32064987Y-57449301D01*
G75*
G02*
X32064987Y-57555367I-53033J-53033D01*
G01*
X31958921Y-57661433D01*
G75*
G02*
X31852855Y-57661433I-53033J53033D01*
G01*
X30862905Y-56671483D01*
G75*
G02*
X30862905Y-56565417I53033J53033D01*
G01*
G37*
G36*
G01*
X30509351Y-56918971D02*
X30615417Y-56812905D01*
G75*
G02*
X30721483Y-56812905I53033J-53033D01*
G01*
X31711433Y-57802855D01*
G75*
G02*
X31711433Y-57908921I-53033J-53033D01*
G01*
X31605367Y-58014987D01*
G75*
G02*
X31499301Y-58014987I-53033J53033D01*
G01*
X30509351Y-57025037D01*
G75*
G02*
X30509351Y-56918971I53033J53033D01*
G01*
G37*
G36*
G01*
X30155798Y-57272524D02*
X30261864Y-57166458D01*
G75*
G02*
X30367930Y-57166458I53033J-53033D01*
G01*
X31357880Y-58156408D01*
G75*
G02*
X31357880Y-58262474I-53033J-53033D01*
G01*
X31251814Y-58368540D01*
G75*
G02*
X31145748Y-58368540I-53033J53033D01*
G01*
X30155798Y-57378590D01*
G75*
G02*
X30155798Y-57272524I53033J53033D01*
G01*
G37*
G36*
G01*
X29802245Y-57626077D02*
X29908311Y-57520011D01*
G75*
G02*
X30014377Y-57520011I53033J-53033D01*
G01*
X31004327Y-58509961D01*
G75*
G02*
X31004327Y-58616027I-53033J-53033D01*
G01*
X30898261Y-58722093D01*
G75*
G02*
X30792195Y-58722093I-53033J53033D01*
G01*
X29802245Y-57732143D01*
G75*
G02*
X29802245Y-57626077I53033J53033D01*
G01*
G37*
G36*
G01*
X29448691Y-57979631D02*
X29554757Y-57873565D01*
G75*
G02*
X29660823Y-57873565I53033J-53033D01*
G01*
X30650773Y-58863515D01*
G75*
G02*
X30650773Y-58969581I-53033J-53033D01*
G01*
X30544707Y-59075647D01*
G75*
G02*
X30438641Y-59075647I-53033J53033D01*
G01*
X29448691Y-58085697D01*
G75*
G02*
X29448691Y-57979631I53033J53033D01*
G01*
G37*
G36*
G01*
X29095138Y-58333184D02*
X29201204Y-58227118D01*
G75*
G02*
X29307270Y-58227118I53033J-53033D01*
G01*
X30297220Y-59217068D01*
G75*
G02*
X30297220Y-59323134I-53033J-53033D01*
G01*
X30191154Y-59429200D01*
G75*
G02*
X30085088Y-59429200I-53033J53033D01*
G01*
X29095138Y-58439250D01*
G75*
G02*
X29095138Y-58333184I53033J53033D01*
G01*
G37*
G36*
G01*
X28741584Y-58686738D02*
X28847650Y-58580672D01*
G75*
G02*
X28953716Y-58580672I53033J-53033D01*
G01*
X29943666Y-59570622D01*
G75*
G02*
X29943666Y-59676688I-53033J-53033D01*
G01*
X29837600Y-59782754D01*
G75*
G02*
X29731534Y-59782754I-53033J53033D01*
G01*
X28741584Y-58792804D01*
G75*
G02*
X28741584Y-58686738I53033J53033D01*
G01*
G37*
G36*
G01*
X28388031Y-59040291D02*
X28494097Y-58934225D01*
G75*
G02*
X28600163Y-58934225I53033J-53033D01*
G01*
X29590113Y-59924175D01*
G75*
G02*
X29590113Y-60030241I-53033J-53033D01*
G01*
X29484047Y-60136307D01*
G75*
G02*
X29377981Y-60136307I-53033J53033D01*
G01*
X28388031Y-59146357D01*
G75*
G02*
X28388031Y-59040291I53033J53033D01*
G01*
G37*
G36*
G01*
X28034478Y-59393844D02*
X28140544Y-59287778D01*
G75*
G02*
X28246610Y-59287778I53033J-53033D01*
G01*
X29236560Y-60277728D01*
G75*
G02*
X29236560Y-60383794I-53033J-53033D01*
G01*
X29130494Y-60489860D01*
G75*
G02*
X29024428Y-60489860I-53033J53033D01*
G01*
X28034478Y-59499910D01*
G75*
G02*
X28034478Y-59393844I53033J53033D01*
G01*
G37*
G36*
G01*
X28034478Y-63000090D02*
X29024428Y-62010140D01*
G75*
G02*
X29130494Y-62010140I53033J-53033D01*
G01*
X29236560Y-62116206D01*
G75*
G02*
X29236560Y-62222272I-53033J-53033D01*
G01*
X28246610Y-63212222D01*
G75*
G02*
X28140544Y-63212222I-53033J53033D01*
G01*
X28034478Y-63106156D01*
G75*
G02*
X28034478Y-63000090I53033J53033D01*
G01*
G37*
G36*
G01*
X28388031Y-63353643D02*
X29377981Y-62363693D01*
G75*
G02*
X29484047Y-62363693I53033J-53033D01*
G01*
X29590113Y-62469759D01*
G75*
G02*
X29590113Y-62575825I-53033J-53033D01*
G01*
X28600163Y-63565775D01*
G75*
G02*
X28494097Y-63565775I-53033J53033D01*
G01*
X28388031Y-63459709D01*
G75*
G02*
X28388031Y-63353643I53033J53033D01*
G01*
G37*
G36*
G01*
X28741584Y-63707196D02*
X29731534Y-62717246D01*
G75*
G02*
X29837600Y-62717246I53033J-53033D01*
G01*
X29943666Y-62823312D01*
G75*
G02*
X29943666Y-62929378I-53033J-53033D01*
G01*
X28953716Y-63919328D01*
G75*
G02*
X28847650Y-63919328I-53033J53033D01*
G01*
X28741584Y-63813262D01*
G75*
G02*
X28741584Y-63707196I53033J53033D01*
G01*
G37*
G36*
G01*
X29095138Y-64060750D02*
X30085088Y-63070800D01*
G75*
G02*
X30191154Y-63070800I53033J-53033D01*
G01*
X30297220Y-63176866D01*
G75*
G02*
X30297220Y-63282932I-53033J-53033D01*
G01*
X29307270Y-64272882D01*
G75*
G02*
X29201204Y-64272882I-53033J53033D01*
G01*
X29095138Y-64166816D01*
G75*
G02*
X29095138Y-64060750I53033J53033D01*
G01*
G37*
G36*
G01*
X29448691Y-64414303D02*
X30438641Y-63424353D01*
G75*
G02*
X30544707Y-63424353I53033J-53033D01*
G01*
X30650773Y-63530419D01*
G75*
G02*
X30650773Y-63636485I-53033J-53033D01*
G01*
X29660823Y-64626435D01*
G75*
G02*
X29554757Y-64626435I-53033J53033D01*
G01*
X29448691Y-64520369D01*
G75*
G02*
X29448691Y-64414303I53033J53033D01*
G01*
G37*
G36*
G01*
X29802245Y-64767857D02*
X30792195Y-63777907D01*
G75*
G02*
X30898261Y-63777907I53033J-53033D01*
G01*
X31004327Y-63883973D01*
G75*
G02*
X31004327Y-63990039I-53033J-53033D01*
G01*
X30014377Y-64979989D01*
G75*
G02*
X29908311Y-64979989I-53033J53033D01*
G01*
X29802245Y-64873923D01*
G75*
G02*
X29802245Y-64767857I53033J53033D01*
G01*
G37*
G36*
G01*
X30155798Y-65121410D02*
X31145748Y-64131460D01*
G75*
G02*
X31251814Y-64131460I53033J-53033D01*
G01*
X31357880Y-64237526D01*
G75*
G02*
X31357880Y-64343592I-53033J-53033D01*
G01*
X30367930Y-65333542D01*
G75*
G02*
X30261864Y-65333542I-53033J53033D01*
G01*
X30155798Y-65227476D01*
G75*
G02*
X30155798Y-65121410I53033J53033D01*
G01*
G37*
G36*
G01*
X30509351Y-65474963D02*
X31499301Y-64485013D01*
G75*
G02*
X31605367Y-64485013I53033J-53033D01*
G01*
X31711433Y-64591079D01*
G75*
G02*
X31711433Y-64697145I-53033J-53033D01*
G01*
X30721483Y-65687095D01*
G75*
G02*
X30615417Y-65687095I-53033J53033D01*
G01*
X30509351Y-65581029D01*
G75*
G02*
X30509351Y-65474963I53033J53033D01*
G01*
G37*
G36*
G01*
X30862905Y-65828517D02*
X31852855Y-64838567D01*
G75*
G02*
X31958921Y-64838567I53033J-53033D01*
G01*
X32064987Y-64944633D01*
G75*
G02*
X32064987Y-65050699I-53033J-53033D01*
G01*
X31075037Y-66040649D01*
G75*
G02*
X30968971Y-66040649I-53033J53033D01*
G01*
X30862905Y-65934583D01*
G75*
G02*
X30862905Y-65828517I53033J53033D01*
G01*
G37*
G36*
G01*
X31216458Y-66182070D02*
X32206408Y-65192120D01*
G75*
G02*
X32312474Y-65192120I53033J-53033D01*
G01*
X32418540Y-65298186D01*
G75*
G02*
X32418540Y-65404252I-53033J-53033D01*
G01*
X31428590Y-66394202D01*
G75*
G02*
X31322524Y-66394202I-53033J53033D01*
G01*
X31216458Y-66288136D01*
G75*
G02*
X31216458Y-66182070I53033J53033D01*
G01*
G37*
G36*
G01*
X31570011Y-66535623D02*
X32559961Y-65545673D01*
G75*
G02*
X32666027Y-65545673I53033J-53033D01*
G01*
X32772093Y-65651739D01*
G75*
G02*
X32772093Y-65757805I-53033J-53033D01*
G01*
X31782143Y-66747755D01*
G75*
G02*
X31676077Y-66747755I-53033J53033D01*
G01*
X31570011Y-66641689D01*
G75*
G02*
X31570011Y-66535623I53033J53033D01*
G01*
G37*
G36*
G01*
X31923565Y-66889177D02*
X32913515Y-65899227D01*
G75*
G02*
X33019581Y-65899227I53033J-53033D01*
G01*
X33125647Y-66005293D01*
G75*
G02*
X33125647Y-66111359I-53033J-53033D01*
G01*
X32135697Y-67101309D01*
G75*
G02*
X32029631Y-67101309I-53033J53033D01*
G01*
X31923565Y-66995243D01*
G75*
G02*
X31923565Y-66889177I53033J53033D01*
G01*
G37*
G36*
G01*
X32277118Y-67242730D02*
X33267068Y-66252780D01*
G75*
G02*
X33373134Y-66252780I53033J-53033D01*
G01*
X33479200Y-66358846D01*
G75*
G02*
X33479200Y-66464912I-53033J-53033D01*
G01*
X32489250Y-67454862D01*
G75*
G02*
X32383184Y-67454862I-53033J53033D01*
G01*
X32277118Y-67348796D01*
G75*
G02*
X32277118Y-67242730I53033J53033D01*
G01*
G37*
G36*
G01*
X32630672Y-67596284D02*
X33620622Y-66606334D01*
G75*
G02*
X33726688Y-66606334I53033J-53033D01*
G01*
X33832754Y-66712400D01*
G75*
G02*
X33832754Y-66818466I-53033J-53033D01*
G01*
X32842804Y-67808416D01*
G75*
G02*
X32736738Y-67808416I-53033J53033D01*
G01*
X32630672Y-67702350D01*
G75*
G02*
X32630672Y-67596284I53033J53033D01*
G01*
G37*
G36*
G01*
X32984225Y-67949837D02*
X33974175Y-66959887D01*
G75*
G02*
X34080241Y-66959887I53033J-53033D01*
G01*
X34186307Y-67065953D01*
G75*
G02*
X34186307Y-67172019I-53033J-53033D01*
G01*
X33196357Y-68161969D01*
G75*
G02*
X33090291Y-68161969I-53033J53033D01*
G01*
X32984225Y-68055903D01*
G75*
G02*
X32984225Y-67949837I53033J53033D01*
G01*
G37*
G36*
G01*
X33337778Y-68303390D02*
X34327728Y-67313440D01*
G75*
G02*
X34433794Y-67313440I53033J-53033D01*
G01*
X34539860Y-67419506D01*
G75*
G02*
X34539860Y-67525572I-53033J-53033D01*
G01*
X33549910Y-68515522D01*
G75*
G02*
X33443844Y-68515522I-53033J53033D01*
G01*
X33337778Y-68409456D01*
G75*
G02*
X33337778Y-68303390I53033J53033D01*
G01*
G37*
G36*
G01*
X36060140Y-67419506D02*
X36166206Y-67313440D01*
G75*
G02*
X36272272Y-67313440I53033J-53033D01*
G01*
X37262222Y-68303390D01*
G75*
G02*
X37262222Y-68409456I-53033J-53033D01*
G01*
X37156156Y-68515522D01*
G75*
G02*
X37050090Y-68515522I-53033J53033D01*
G01*
X36060140Y-67525572D01*
G75*
G02*
X36060140Y-67419506I53033J53033D01*
G01*
G37*
G36*
G01*
X36413693Y-67065953D02*
X36519759Y-66959887D01*
G75*
G02*
X36625825Y-66959887I53033J-53033D01*
G01*
X37615775Y-67949837D01*
G75*
G02*
X37615775Y-68055903I-53033J-53033D01*
G01*
X37509709Y-68161969D01*
G75*
G02*
X37403643Y-68161969I-53033J53033D01*
G01*
X36413693Y-67172019D01*
G75*
G02*
X36413693Y-67065953I53033J53033D01*
G01*
G37*
G36*
G01*
X36767246Y-66712400D02*
X36873312Y-66606334D01*
G75*
G02*
X36979378Y-66606334I53033J-53033D01*
G01*
X37969328Y-67596284D01*
G75*
G02*
X37969328Y-67702350I-53033J-53033D01*
G01*
X37863262Y-67808416D01*
G75*
G02*
X37757196Y-67808416I-53033J53033D01*
G01*
X36767246Y-66818466D01*
G75*
G02*
X36767246Y-66712400I53033J53033D01*
G01*
G37*
G36*
G01*
X37120800Y-66358846D02*
X37226866Y-66252780D01*
G75*
G02*
X37332932Y-66252780I53033J-53033D01*
G01*
X38322882Y-67242730D01*
G75*
G02*
X38322882Y-67348796I-53033J-53033D01*
G01*
X38216816Y-67454862D01*
G75*
G02*
X38110750Y-67454862I-53033J53033D01*
G01*
X37120800Y-66464912D01*
G75*
G02*
X37120800Y-66358846I53033J53033D01*
G01*
G37*
G36*
G01*
X37474353Y-66005293D02*
X37580419Y-65899227D01*
G75*
G02*
X37686485Y-65899227I53033J-53033D01*
G01*
X38676435Y-66889177D01*
G75*
G02*
X38676435Y-66995243I-53033J-53033D01*
G01*
X38570369Y-67101309D01*
G75*
G02*
X38464303Y-67101309I-53033J53033D01*
G01*
X37474353Y-66111359D01*
G75*
G02*
X37474353Y-66005293I53033J53033D01*
G01*
G37*
G36*
G01*
X37827907Y-65651739D02*
X37933973Y-65545673D01*
G75*
G02*
X38040039Y-65545673I53033J-53033D01*
G01*
X39029989Y-66535623D01*
G75*
G02*
X39029989Y-66641689I-53033J-53033D01*
G01*
X38923923Y-66747755D01*
G75*
G02*
X38817857Y-66747755I-53033J53033D01*
G01*
X37827907Y-65757805D01*
G75*
G02*
X37827907Y-65651739I53033J53033D01*
G01*
G37*
G36*
G01*
X38181460Y-65298186D02*
X38287526Y-65192120D01*
G75*
G02*
X38393592Y-65192120I53033J-53033D01*
G01*
X39383542Y-66182070D01*
G75*
G02*
X39383542Y-66288136I-53033J-53033D01*
G01*
X39277476Y-66394202D01*
G75*
G02*
X39171410Y-66394202I-53033J53033D01*
G01*
X38181460Y-65404252D01*
G75*
G02*
X38181460Y-65298186I53033J53033D01*
G01*
G37*
G36*
G01*
X38535013Y-64944633D02*
X38641079Y-64838567D01*
G75*
G02*
X38747145Y-64838567I53033J-53033D01*
G01*
X39737095Y-65828517D01*
G75*
G02*
X39737095Y-65934583I-53033J-53033D01*
G01*
X39631029Y-66040649D01*
G75*
G02*
X39524963Y-66040649I-53033J53033D01*
G01*
X38535013Y-65050699D01*
G75*
G02*
X38535013Y-64944633I53033J53033D01*
G01*
G37*
G36*
G01*
X38888567Y-64591079D02*
X38994633Y-64485013D01*
G75*
G02*
X39100699Y-64485013I53033J-53033D01*
G01*
X40090649Y-65474963D01*
G75*
G02*
X40090649Y-65581029I-53033J-53033D01*
G01*
X39984583Y-65687095D01*
G75*
G02*
X39878517Y-65687095I-53033J53033D01*
G01*
X38888567Y-64697145D01*
G75*
G02*
X38888567Y-64591079I53033J53033D01*
G01*
G37*
G36*
G01*
X39242120Y-64237526D02*
X39348186Y-64131460D01*
G75*
G02*
X39454252Y-64131460I53033J-53033D01*
G01*
X40444202Y-65121410D01*
G75*
G02*
X40444202Y-65227476I-53033J-53033D01*
G01*
X40338136Y-65333542D01*
G75*
G02*
X40232070Y-65333542I-53033J53033D01*
G01*
X39242120Y-64343592D01*
G75*
G02*
X39242120Y-64237526I53033J53033D01*
G01*
G37*
G36*
G01*
X39595673Y-63883973D02*
X39701739Y-63777907D01*
G75*
G02*
X39807805Y-63777907I53033J-53033D01*
G01*
X40797755Y-64767857D01*
G75*
G02*
X40797755Y-64873923I-53033J-53033D01*
G01*
X40691689Y-64979989D01*
G75*
G02*
X40585623Y-64979989I-53033J53033D01*
G01*
X39595673Y-63990039D01*
G75*
G02*
X39595673Y-63883973I53033J53033D01*
G01*
G37*
G36*
G01*
X39949227Y-63530419D02*
X40055293Y-63424353D01*
G75*
G02*
X40161359Y-63424353I53033J-53033D01*
G01*
X41151309Y-64414303D01*
G75*
G02*
X41151309Y-64520369I-53033J-53033D01*
G01*
X41045243Y-64626435D01*
G75*
G02*
X40939177Y-64626435I-53033J53033D01*
G01*
X39949227Y-63636485D01*
G75*
G02*
X39949227Y-63530419I53033J53033D01*
G01*
G37*
G36*
G01*
X40302780Y-63176866D02*
X40408846Y-63070800D01*
G75*
G02*
X40514912Y-63070800I53033J-53033D01*
G01*
X41504862Y-64060750D01*
G75*
G02*
X41504862Y-64166816I-53033J-53033D01*
G01*
X41398796Y-64272882D01*
G75*
G02*
X41292730Y-64272882I-53033J53033D01*
G01*
X40302780Y-63282932D01*
G75*
G02*
X40302780Y-63176866I53033J53033D01*
G01*
G37*
G36*
G01*
X40656334Y-62823312D02*
X40762400Y-62717246D01*
G75*
G02*
X40868466Y-62717246I53033J-53033D01*
G01*
X41858416Y-63707196D01*
G75*
G02*
X41858416Y-63813262I-53033J-53033D01*
G01*
X41752350Y-63919328D01*
G75*
G02*
X41646284Y-63919328I-53033J53033D01*
G01*
X40656334Y-62929378D01*
G75*
G02*
X40656334Y-62823312I53033J53033D01*
G01*
G37*
G36*
G01*
X41009887Y-62469759D02*
X41115953Y-62363693D01*
G75*
G02*
X41222019Y-62363693I53033J-53033D01*
G01*
X42211969Y-63353643D01*
G75*
G02*
X42211969Y-63459709I-53033J-53033D01*
G01*
X42105903Y-63565775D01*
G75*
G02*
X41999837Y-63565775I-53033J53033D01*
G01*
X41009887Y-62575825D01*
G75*
G02*
X41009887Y-62469759I53033J53033D01*
G01*
G37*
G36*
G01*
X41363440Y-62116206D02*
X41469506Y-62010140D01*
G75*
G02*
X41575572Y-62010140I53033J-53033D01*
G01*
X42565522Y-63000090D01*
G75*
G02*
X42565522Y-63106156I-53033J-53033D01*
G01*
X42459456Y-63212222D01*
G75*
G02*
X42353390Y-63212222I-53033J53033D01*
G01*
X41363440Y-62222272D01*
G75*
G02*
X41363440Y-62116206I53033J53033D01*
G01*
G37*
G36*
G01*
X41363440Y-60277728D02*
X42353390Y-59287778D01*
G75*
G02*
X42459456Y-59287778I53033J-53033D01*
G01*
X42565522Y-59393844D01*
G75*
G02*
X42565522Y-59499910I-53033J-53033D01*
G01*
X41575572Y-60489860D01*
G75*
G02*
X41469506Y-60489860I-53033J53033D01*
G01*
X41363440Y-60383794D01*
G75*
G02*
X41363440Y-60277728I53033J53033D01*
G01*
G37*
G36*
G01*
X41009887Y-59924175D02*
X41999837Y-58934225D01*
G75*
G02*
X42105903Y-58934225I53033J-53033D01*
G01*
X42211969Y-59040291D01*
G75*
G02*
X42211969Y-59146357I-53033J-53033D01*
G01*
X41222019Y-60136307D01*
G75*
G02*
X41115953Y-60136307I-53033J53033D01*
G01*
X41009887Y-60030241D01*
G75*
G02*
X41009887Y-59924175I53033J53033D01*
G01*
G37*
G36*
G01*
X40656334Y-59570622D02*
X41646284Y-58580672D01*
G75*
G02*
X41752350Y-58580672I53033J-53033D01*
G01*
X41858416Y-58686738D01*
G75*
G02*
X41858416Y-58792804I-53033J-53033D01*
G01*
X40868466Y-59782754D01*
G75*
G02*
X40762400Y-59782754I-53033J53033D01*
G01*
X40656334Y-59676688D01*
G75*
G02*
X40656334Y-59570622I53033J53033D01*
G01*
G37*
G36*
G01*
X40302780Y-59217068D02*
X41292730Y-58227118D01*
G75*
G02*
X41398796Y-58227118I53033J-53033D01*
G01*
X41504862Y-58333184D01*
G75*
G02*
X41504862Y-58439250I-53033J-53033D01*
G01*
X40514912Y-59429200D01*
G75*
G02*
X40408846Y-59429200I-53033J53033D01*
G01*
X40302780Y-59323134D01*
G75*
G02*
X40302780Y-59217068I53033J53033D01*
G01*
G37*
G36*
G01*
X39949227Y-58863515D02*
X40939177Y-57873565D01*
G75*
G02*
X41045243Y-57873565I53033J-53033D01*
G01*
X41151309Y-57979631D01*
G75*
G02*
X41151309Y-58085697I-53033J-53033D01*
G01*
X40161359Y-59075647D01*
G75*
G02*
X40055293Y-59075647I-53033J53033D01*
G01*
X39949227Y-58969581D01*
G75*
G02*
X39949227Y-58863515I53033J53033D01*
G01*
G37*
G36*
G01*
X39595673Y-58509961D02*
X40585623Y-57520011D01*
G75*
G02*
X40691689Y-57520011I53033J-53033D01*
G01*
X40797755Y-57626077D01*
G75*
G02*
X40797755Y-57732143I-53033J-53033D01*
G01*
X39807805Y-58722093D01*
G75*
G02*
X39701739Y-58722093I-53033J53033D01*
G01*
X39595673Y-58616027D01*
G75*
G02*
X39595673Y-58509961I53033J53033D01*
G01*
G37*
G36*
G01*
X39242120Y-58156408D02*
X40232070Y-57166458D01*
G75*
G02*
X40338136Y-57166458I53033J-53033D01*
G01*
X40444202Y-57272524D01*
G75*
G02*
X40444202Y-57378590I-53033J-53033D01*
G01*
X39454252Y-58368540D01*
G75*
G02*
X39348186Y-58368540I-53033J53033D01*
G01*
X39242120Y-58262474D01*
G75*
G02*
X39242120Y-58156408I53033J53033D01*
G01*
G37*
G36*
G01*
X38888567Y-57802855D02*
X39878517Y-56812905D01*
G75*
G02*
X39984583Y-56812905I53033J-53033D01*
G01*
X40090649Y-56918971D01*
G75*
G02*
X40090649Y-57025037I-53033J-53033D01*
G01*
X39100699Y-58014987D01*
G75*
G02*
X38994633Y-58014987I-53033J53033D01*
G01*
X38888567Y-57908921D01*
G75*
G02*
X38888567Y-57802855I53033J53033D01*
G01*
G37*
G36*
G01*
X38535013Y-57449301D02*
X39524963Y-56459351D01*
G75*
G02*
X39631029Y-56459351I53033J-53033D01*
G01*
X39737095Y-56565417D01*
G75*
G02*
X39737095Y-56671483I-53033J-53033D01*
G01*
X38747145Y-57661433D01*
G75*
G02*
X38641079Y-57661433I-53033J53033D01*
G01*
X38535013Y-57555367D01*
G75*
G02*
X38535013Y-57449301I53033J53033D01*
G01*
G37*
G36*
G01*
X38181460Y-57095748D02*
X39171410Y-56105798D01*
G75*
G02*
X39277476Y-56105798I53033J-53033D01*
G01*
X39383542Y-56211864D01*
G75*
G02*
X39383542Y-56317930I-53033J-53033D01*
G01*
X38393592Y-57307880D01*
G75*
G02*
X38287526Y-57307880I-53033J53033D01*
G01*
X38181460Y-57201814D01*
G75*
G02*
X38181460Y-57095748I53033J53033D01*
G01*
G37*
G36*
G01*
X37827907Y-56742195D02*
X38817857Y-55752245D01*
G75*
G02*
X38923923Y-55752245I53033J-53033D01*
G01*
X39029989Y-55858311D01*
G75*
G02*
X39029989Y-55964377I-53033J-53033D01*
G01*
X38040039Y-56954327D01*
G75*
G02*
X37933973Y-56954327I-53033J53033D01*
G01*
X37827907Y-56848261D01*
G75*
G02*
X37827907Y-56742195I53033J53033D01*
G01*
G37*
G36*
G01*
X37474353Y-56388641D02*
X38464303Y-55398691D01*
G75*
G02*
X38570369Y-55398691I53033J-53033D01*
G01*
X38676435Y-55504757D01*
G75*
G02*
X38676435Y-55610823I-53033J-53033D01*
G01*
X37686485Y-56600773D01*
G75*
G02*
X37580419Y-56600773I-53033J53033D01*
G01*
X37474353Y-56494707D01*
G75*
G02*
X37474353Y-56388641I53033J53033D01*
G01*
G37*
G36*
G01*
X37120800Y-56035088D02*
X38110750Y-55045138D01*
G75*
G02*
X38216816Y-55045138I53033J-53033D01*
G01*
X38322882Y-55151204D01*
G75*
G02*
X38322882Y-55257270I-53033J-53033D01*
G01*
X37332932Y-56247220D01*
G75*
G02*
X37226866Y-56247220I-53033J53033D01*
G01*
X37120800Y-56141154D01*
G75*
G02*
X37120800Y-56035088I53033J53033D01*
G01*
G37*
G36*
G01*
X36767246Y-55681534D02*
X37757196Y-54691584D01*
G75*
G02*
X37863262Y-54691584I53033J-53033D01*
G01*
X37969328Y-54797650D01*
G75*
G02*
X37969328Y-54903716I-53033J-53033D01*
G01*
X36979378Y-55893666D01*
G75*
G02*
X36873312Y-55893666I-53033J53033D01*
G01*
X36767246Y-55787600D01*
G75*
G02*
X36767246Y-55681534I53033J53033D01*
G01*
G37*
G36*
G01*
X36413693Y-55327981D02*
X37403643Y-54338031D01*
G75*
G02*
X37509709Y-54338031I53033J-53033D01*
G01*
X37615775Y-54444097D01*
G75*
G02*
X37615775Y-54550163I-53033J-53033D01*
G01*
X36625825Y-55540113D01*
G75*
G02*
X36519759Y-55540113I-53033J53033D01*
G01*
X36413693Y-55434047D01*
G75*
G02*
X36413693Y-55327981I53033J53033D01*
G01*
G37*
G36*
G01*
X36060140Y-54974428D02*
X37050090Y-53984478D01*
G75*
G02*
X37156156Y-53984478I53033J-53033D01*
G01*
X37262222Y-54090544D01*
G75*
G02*
X37262222Y-54196610I-53033J-53033D01*
G01*
X36272272Y-55186560D01*
G75*
G02*
X36166206Y-55186560I-53033J53033D01*
G01*
X36060140Y-55080494D01*
G75*
G02*
X36060140Y-54974428I53033J53033D01*
G01*
G37*
%TD*%
M02*
