%TF.GenerationSoftware,KiCad,Pcbnew,5.1.6+dfsg1-1*%
%TF.CreationDate,2020-08-19T02:21:13+02:00*%
%TF.ProjectId,midi_breakout,6d696469-5f62-4726-9561-6b6f75742e6b,rev?*%
%TF.SameCoordinates,Original*%
%TF.FileFunction,Copper,L1,Top*%
%TF.FilePolarity,Positive*%
%FSLAX46Y46*%
G04 Gerber Fmt 4.6, Leading zero omitted, Abs format (unit mm)*
G04 Created by KiCad (PCBNEW 5.1.6+dfsg1-1) date 2020-08-19 02:21:13*
%MOMM*%
%LPD*%
G01*
G04 APERTURE LIST*
%TA.AperFunction,SMDPad,CuDef*%
%ADD10R,1.500000X0.400000*%
%TD*%
%TA.AperFunction,SMDPad,CuDef*%
%ADD11R,2.510000X1.000000*%
%TD*%
%TA.AperFunction,SMDPad,CuDef*%
%ADD12O,2.000000X6.000000*%
%TD*%
%TA.AperFunction,WasherPad*%
%ADD13C,4.000000*%
%TD*%
%TA.AperFunction,WasherPad*%
%ADD14C,16.000000*%
%TD*%
%TA.AperFunction,ViaPad*%
%ADD15C,0.800000*%
%TD*%
%TA.AperFunction,Conductor*%
%ADD16C,0.250000*%
%TD*%
G04 APERTURE END LIST*
D10*
%TO.P,D1,6*%
%TO.N,Net-(D1-Pad6)*%
X30674000Y-61480460D03*
%TO.P,D1,5*%
%TO.N,Midi_in_+*%
X30674000Y-60830460D03*
%TO.P,D1,4*%
X30674000Y-60180460D03*
%TO.P,D1,3*%
%TO.N,Net-(D1-Pad3)*%
X33334000Y-60180460D03*
%TO.P,D1,2*%
%TO.N,Midi_in_-*%
X33334000Y-60830460D03*
%TO.P,D1,1*%
X33334000Y-61480460D03*
%TD*%
%TO.P,D2,2*%
%TO.N,Net-(D2-Pad2)*%
%TA.AperFunction,SMDPad,CuDef*%
G36*
G01*
X29984860Y-100825010D02*
X29984860Y-99912510D01*
G75*
G02*
X30228610Y-99668760I243750J0D01*
G01*
X30716110Y-99668760D01*
G75*
G02*
X30959860Y-99912510I0J-243750D01*
G01*
X30959860Y-100825010D01*
G75*
G02*
X30716110Y-101068760I-243750J0D01*
G01*
X30228610Y-101068760D01*
G75*
G02*
X29984860Y-100825010I0J243750D01*
G01*
G37*
%TD.AperFunction*%
%TO.P,D2,1*%
%TO.N,Midi_out_+*%
%TA.AperFunction,SMDPad,CuDef*%
G36*
G01*
X28109860Y-100825010D02*
X28109860Y-99912510D01*
G75*
G02*
X28353610Y-99668760I243750J0D01*
G01*
X28841110Y-99668760D01*
G75*
G02*
X29084860Y-99912510I0J-243750D01*
G01*
X29084860Y-100825010D01*
G75*
G02*
X28841110Y-101068760I-243750J0D01*
G01*
X28353610Y-101068760D01*
G75*
G02*
X28109860Y-100825010I0J243750D01*
G01*
G37*
%TD.AperFunction*%
%TD*%
%TO.P,D3,2*%
%TO.N,Net-(D3-Pad2)*%
%TA.AperFunction,SMDPad,CuDef*%
G36*
G01*
X21195860Y-57012950D02*
X21195860Y-57925450D01*
G75*
G02*
X20952110Y-58169200I-243750J0D01*
G01*
X20464610Y-58169200D01*
G75*
G02*
X20220860Y-57925450I0J243750D01*
G01*
X20220860Y-57012950D01*
G75*
G02*
X20464610Y-56769200I243750J0D01*
G01*
X20952110Y-56769200D01*
G75*
G02*
X21195860Y-57012950I0J-243750D01*
G01*
G37*
%TD.AperFunction*%
%TO.P,D3,1*%
%TO.N,Midi_in_-*%
%TA.AperFunction,SMDPad,CuDef*%
G36*
G01*
X23070860Y-57012950D02*
X23070860Y-57925450D01*
G75*
G02*
X22827110Y-58169200I-243750J0D01*
G01*
X22339610Y-58169200D01*
G75*
G02*
X22095860Y-57925450I0J243750D01*
G01*
X22095860Y-57012950D01*
G75*
G02*
X22339610Y-56769200I243750J0D01*
G01*
X22827110Y-56769200D01*
G75*
G02*
X23070860Y-57012950I0J-243750D01*
G01*
G37*
%TD.AperFunction*%
%TD*%
D11*
%TO.P,J6,4*%
%TO.N,Midi_in_+*%
X30095000Y-76440000D03*
%TO.P,J6,2*%
%TO.N,Midi_out_-*%
X30095000Y-81520000D03*
%TO.P,J6,3*%
%TO.N,Midi_in_-*%
X33405000Y-78980000D03*
%TO.P,J6,1*%
%TO.N,Midi_out_+*%
X33405000Y-84060000D03*
%TD*%
D12*
%TO.P,IN,2*%
%TO.N,N/C*%
X33000000Y-52500000D03*
%TO.P,IN,1*%
X18000000Y-52500000D03*
%TO.P,IN,5*%
%TO.N,Net-(D1-Pad6)*%
X31000000Y-30500000D03*
%TO.P,IN,4*%
%TO.N,Net-(D1-Pad3)*%
X29000000Y-52500000D03*
%TO.P,IN,3*%
%TO.N,N/C*%
X18000000Y-30500000D03*
D13*
%TO.P,IN,*%
%TO.N,*%
X25000000Y-52600000D03*
X25000000Y-30400000D03*
D14*
X25000000Y-41500000D03*
%TD*%
D11*
%TO.P,IN AB,2*%
%TO.N,Net-(D1-Pad6)*%
X29345000Y-68000000D03*
%TO.P,IN AB,3*%
%TO.N,Net-(D1-Pad3)*%
X32655000Y-65460000D03*
%TO.P,IN AB,1*%
%TO.N,N/C*%
X32655000Y-70540000D03*
%TD*%
D12*
%TO.P,OUT,2*%
%TO.N,N/C*%
X33500000Y-128500000D03*
%TO.P,OUT,1*%
X18500000Y-128500000D03*
%TO.P,OUT,5*%
%TO.N,Midi_out_-*%
X31500000Y-106500000D03*
%TO.P,OUT,4*%
%TO.N,Midi_out_+*%
X29500000Y-128500000D03*
%TO.P,OUT,3*%
%TO.N,N/C*%
X18500000Y-106500000D03*
D13*
%TO.P,OUT,*%
%TO.N,*%
X25500000Y-128600000D03*
X25500000Y-106400000D03*
D14*
X25500000Y-117500000D03*
%TD*%
%TO.P,R1,2*%
%TO.N,Net-(D2-Pad2)*%
%TA.AperFunction,SMDPad,CuDef*%
G36*
G01*
X33049999Y-100475000D02*
X33950001Y-100475000D01*
G75*
G02*
X34200000Y-100724999I0J-249999D01*
G01*
X34200000Y-101375001D01*
G75*
G02*
X33950001Y-101625000I-249999J0D01*
G01*
X33049999Y-101625000D01*
G75*
G02*
X32800000Y-101375001I0J249999D01*
G01*
X32800000Y-100724999D01*
G75*
G02*
X33049999Y-100475000I249999J0D01*
G01*
G37*
%TD.AperFunction*%
%TO.P,R1,1*%
%TO.N,Midi_out_+*%
%TA.AperFunction,SMDPad,CuDef*%
G36*
G01*
X33049999Y-98425000D02*
X33950001Y-98425000D01*
G75*
G02*
X34200000Y-98674999I0J-249999D01*
G01*
X34200000Y-99325001D01*
G75*
G02*
X33950001Y-99575000I-249999J0D01*
G01*
X33049999Y-99575000D01*
G75*
G02*
X32800000Y-99325001I0J249999D01*
G01*
X32800000Y-98674999D01*
G75*
G02*
X33049999Y-98425000I249999J0D01*
G01*
G37*
%TD.AperFunction*%
%TD*%
%TO.P,R2,2*%
%TO.N,Net-(D3-Pad2)*%
%TA.AperFunction,SMDPad,CuDef*%
G36*
G01*
X25366560Y-58744699D02*
X25366560Y-59644701D01*
G75*
G02*
X25116561Y-59894700I-249999J0D01*
G01*
X24466559Y-59894700D01*
G75*
G02*
X24216560Y-59644701I0J249999D01*
G01*
X24216560Y-58744699D01*
G75*
G02*
X24466559Y-58494700I249999J0D01*
G01*
X25116561Y-58494700D01*
G75*
G02*
X25366560Y-58744699I0J-249999D01*
G01*
G37*
%TD.AperFunction*%
%TO.P,R2,1*%
%TO.N,Midi_in_+*%
%TA.AperFunction,SMDPad,CuDef*%
G36*
G01*
X27416560Y-58744699D02*
X27416560Y-59644701D01*
G75*
G02*
X27166561Y-59894700I-249999J0D01*
G01*
X26516559Y-59894700D01*
G75*
G02*
X26266560Y-59644701I0J249999D01*
G01*
X26266560Y-58744699D01*
G75*
G02*
X26516559Y-58494700I249999J0D01*
G01*
X27166561Y-58494700D01*
G75*
G02*
X27416560Y-58744699I0J-249999D01*
G01*
G37*
%TD.AperFunction*%
%TD*%
D11*
%TO.P,MIDI_OUT_A1,2*%
%TO.N,Midi_out_-*%
X30345000Y-93000000D03*
%TO.P,MIDI_OUT_A1,3*%
%TO.N,Midi_out_+*%
X33655000Y-90460000D03*
%TO.P,MIDI_OUT_A1,1*%
%TO.N,N/C*%
X33655000Y-95540000D03*
%TD*%
D15*
%TO.N,Midi_in_-*%
X35267900Y-61473080D03*
X33657540Y-76713080D03*
X26710640Y-55753000D03*
%TO.N,Net-(D1-Pad6)*%
X31056580Y-48897540D03*
X30065980Y-62338120D03*
%TO.N,Midi_out_-*%
X33027620Y-81577180D03*
X30093920Y-95763080D03*
X31455360Y-102725220D03*
%TO.N,Midi_out_+*%
X34744660Y-97858580D03*
X31958280Y-124714000D03*
X31556960Y-90487500D03*
%TD*%
D16*
%TO.N,Midi_in_-*%
X26885900Y-56870600D02*
X26936700Y-56921400D01*
X33341380Y-61473080D02*
X33334000Y-61480460D01*
X35267900Y-61473080D02*
X33341380Y-61473080D01*
X34625280Y-60830460D02*
X35267900Y-61473080D01*
X33334000Y-60830460D02*
X34625280Y-60830460D01*
X33657540Y-78727460D02*
X33405000Y-78980000D01*
X33657540Y-76713080D02*
X33657540Y-78727460D01*
X23802560Y-56250000D02*
X22583360Y-57469200D01*
X26213640Y-56250000D02*
X23802560Y-56250000D01*
X26710640Y-55753000D02*
X26213640Y-56250000D01*
%TO.N,Net-(D1-Pad3)*%
X33334000Y-60180460D02*
X34449780Y-60180460D01*
X34449780Y-60180460D02*
X34434780Y-60165460D01*
X34434780Y-60165460D02*
X34434780Y-58834020D01*
X34434780Y-58834020D02*
X33073340Y-57472580D01*
X33073340Y-57472580D02*
X30891480Y-57472580D01*
X29000000Y-55581100D02*
X29000000Y-52500000D01*
X30891480Y-57472580D02*
X29000000Y-55581100D01*
X32258999Y-65063999D02*
X32655000Y-65460000D01*
X32258999Y-60255461D02*
X32258999Y-65063999D01*
X32334000Y-60180460D02*
X32258999Y-60255461D01*
X33334000Y-60180460D02*
X32334000Y-60180460D01*
%TO.N,Midi_in_+*%
X30674000Y-60180460D02*
X30674000Y-60153240D01*
X30674000Y-60830460D02*
X29568140Y-60830460D01*
X27932380Y-59194700D02*
X26841560Y-59194700D01*
X28922740Y-60180460D02*
X28920440Y-60182760D01*
X30674000Y-60180460D02*
X28922740Y-60180460D01*
X29568140Y-60830460D02*
X28920440Y-60182760D01*
X28737560Y-59999880D02*
X28648660Y-59999880D01*
X28920440Y-60182760D02*
X28737560Y-59999880D01*
X28737560Y-59999880D02*
X27932380Y-59194700D01*
X30095000Y-71941500D02*
X30095000Y-76440000D01*
X26611580Y-68458080D02*
X30095000Y-71941500D01*
X26611580Y-62471300D02*
X26611580Y-68458080D01*
X28902420Y-60180460D02*
X26611580Y-62471300D01*
X28922740Y-60180460D02*
X28902420Y-60180460D01*
%TO.N,Net-(D1-Pad6)*%
X31000000Y-30500000D02*
X33766440Y-30500000D01*
X33766440Y-30500000D02*
X33766440Y-46263880D01*
X33690240Y-46263880D02*
X31056580Y-48897540D01*
X33766440Y-46263880D02*
X33690240Y-46263880D01*
X29345000Y-63059100D02*
X30065980Y-62338120D01*
X29345000Y-68000000D02*
X29345000Y-63059100D01*
X30065980Y-62088480D02*
X30674000Y-61480460D01*
X30065980Y-62338120D02*
X30065980Y-62088480D01*
%TO.N,Net-(D2-Pad2)*%
X30472360Y-100022680D02*
X30472360Y-100368760D01*
X30476280Y-100018760D02*
X30472360Y-100022680D01*
%TO.N,Net-(D3-Pad2)*%
X23757200Y-59194700D02*
X24791560Y-59194700D01*
X20708360Y-57469200D02*
X20708360Y-58777880D01*
X21125180Y-59194700D02*
X24791560Y-59194700D01*
X20708360Y-58777880D02*
X21125180Y-59194700D01*
%TO.N,Midi_out_-*%
X32970440Y-81520000D02*
X33027620Y-81577180D01*
X30095000Y-81520000D02*
X32970440Y-81520000D01*
X30095000Y-92750000D02*
X30345000Y-93000000D01*
X30095000Y-81520000D02*
X30095000Y-92750000D01*
X30345000Y-95512000D02*
X30093920Y-95763080D01*
X30345000Y-93000000D02*
X30345000Y-95512000D01*
X31455360Y-106455360D02*
X31500000Y-106500000D01*
X31455360Y-102725220D02*
X31455360Y-106455360D01*
%TO.N,Midi_out_+*%
X33405000Y-90210000D02*
X33655000Y-90460000D01*
X33405000Y-84060000D02*
X33405000Y-90210000D01*
X34641420Y-97858580D02*
X33500000Y-99000000D01*
X34744660Y-97858580D02*
X34641420Y-97858580D01*
X29500000Y-127172280D02*
X29500000Y-128500000D01*
X31958280Y-124714000D02*
X29500000Y-127172280D01*
X33627500Y-90487500D02*
X33655000Y-90460000D01*
X31556960Y-90487500D02*
X33627500Y-90487500D01*
X28597360Y-98737920D02*
X28597360Y-100368760D01*
%TD*%
M02*
