%TF.GenerationSoftware,KiCad,Pcbnew,5.1.6+dfsg1-1*%
%TF.CreationDate,2020-08-19T02:21:13+02:00*%
%TF.ProjectId,midi_breakout,6d696469-5f62-4726-9561-6b6f75742e6b,rev?*%
%TF.SameCoordinates,Original*%
%TF.FileFunction,Legend,Bot*%
%TF.FilePolarity,Positive*%
%FSLAX46Y46*%
G04 Gerber Fmt 4.6, Leading zero omitted, Abs format (unit mm)*
G04 Created by KiCad (PCBNEW 5.1.6+dfsg1-1) date 2020-08-19 02:21:13*
%MOMM*%
%LPD*%
G01*
G04 APERTURE LIST*
%ADD10C,0.500000*%
%ADD11C,0.300000*%
%ADD12C,1.000000*%
G04 APERTURE END LIST*
D10*
X34760515Y-60704503D02*
X34760515Y-56704503D01*
X33427181Y-59561646D01*
X32093848Y-56704503D01*
X32093848Y-60704503D01*
X30189086Y-60704503D02*
X30189086Y-56704503D01*
X28284324Y-60704503D02*
X28284324Y-56704503D01*
X27331943Y-56704503D01*
X26760515Y-56894980D01*
X26379562Y-57275932D01*
X26189086Y-57656884D01*
X25998610Y-58418789D01*
X25998610Y-58990218D01*
X26189086Y-59752122D01*
X26379562Y-60133075D01*
X26760515Y-60514027D01*
X27331943Y-60704503D01*
X28284324Y-60704503D01*
X24284324Y-60704503D02*
X24284324Y-56704503D01*
D11*
X34226190Y-92857142D02*
X33940476Y-92952380D01*
X33845238Y-93047619D01*
X33750000Y-93238095D01*
X33750000Y-93523809D01*
X33845238Y-93714285D01*
X33940476Y-93809523D01*
X34130952Y-93904761D01*
X34892857Y-93904761D01*
X34892857Y-91904761D01*
X34226190Y-91904761D01*
X34035714Y-92000000D01*
X33940476Y-92095238D01*
X33845238Y-92285714D01*
X33845238Y-92476190D01*
X33940476Y-92666666D01*
X34035714Y-92761904D01*
X34226190Y-92857142D01*
X34892857Y-92857142D01*
X30988095Y-91904761D02*
X30607142Y-91904761D01*
X30416666Y-92000000D01*
X30226190Y-92190476D01*
X30130952Y-92571428D01*
X30130952Y-93238095D01*
X30226190Y-93619047D01*
X30416666Y-93809523D01*
X30607142Y-93904761D01*
X30988095Y-93904761D01*
X31178571Y-93809523D01*
X31369047Y-93619047D01*
X31464285Y-93238095D01*
X31464285Y-92571428D01*
X31369047Y-92190476D01*
X31178571Y-92000000D01*
X30988095Y-91904761D01*
X29273809Y-91904761D02*
X29273809Y-93523809D01*
X29178571Y-93714285D01*
X29083333Y-93809523D01*
X28892857Y-93904761D01*
X28511904Y-93904761D01*
X28321428Y-93809523D01*
X28226190Y-93714285D01*
X28130952Y-93523809D01*
X28130952Y-91904761D01*
X27464285Y-91904761D02*
X26321428Y-91904761D01*
X26892857Y-93904761D02*
X26892857Y-91904761D01*
X34845238Y-80583333D02*
X33892857Y-80583333D01*
X35035714Y-81154761D02*
X34369047Y-79154761D01*
X33702380Y-81154761D01*
X31130952Y-79154761D02*
X30750000Y-79154761D01*
X30559523Y-79250000D01*
X30369047Y-79440476D01*
X30273809Y-79821428D01*
X30273809Y-80488095D01*
X30369047Y-80869047D01*
X30559523Y-81059523D01*
X30750000Y-81154761D01*
X31130952Y-81154761D01*
X31321428Y-81059523D01*
X31511904Y-80869047D01*
X31607142Y-80488095D01*
X31607142Y-79821428D01*
X31511904Y-79440476D01*
X31321428Y-79250000D01*
X31130952Y-79154761D01*
X29416666Y-79154761D02*
X29416666Y-80773809D01*
X29321428Y-80964285D01*
X29226190Y-81059523D01*
X29035714Y-81154761D01*
X28654761Y-81154761D01*
X28464285Y-81059523D01*
X28369047Y-80964285D01*
X28273809Y-80773809D01*
X28273809Y-79154761D01*
X27607142Y-79154761D02*
X26464285Y-79154761D01*
X27035714Y-81154761D02*
X27035714Y-79154761D01*
%TO.C,IN*%
D12*
X27345238Y-26559523D02*
X27345238Y-22559523D01*
X25440476Y-26559523D02*
X25440476Y-22559523D01*
X23154761Y-26559523D01*
X23154761Y-22559523D01*
%TO.C,IN AB*%
D11*
X34862946Y-70902081D02*
X34862946Y-68902081D01*
X33910565Y-70902081D02*
X33910565Y-68902081D01*
X32767708Y-70902081D01*
X32767708Y-68902081D01*
X30386756Y-70330653D02*
X29434375Y-70330653D01*
X30577232Y-70902081D02*
X29910565Y-68902081D01*
X29243899Y-70902081D01*
X27910565Y-69854462D02*
X27624851Y-69949700D01*
X27529613Y-70044939D01*
X27434375Y-70235415D01*
X27434375Y-70521129D01*
X27529613Y-70711605D01*
X27624851Y-70806843D01*
X27815327Y-70902081D01*
X28577232Y-70902081D01*
X28577232Y-68902081D01*
X27910565Y-68902081D01*
X27720089Y-68997320D01*
X27624851Y-69092558D01*
X27529613Y-69283034D01*
X27529613Y-69473510D01*
X27624851Y-69663986D01*
X27720089Y-69759224D01*
X27910565Y-69854462D01*
X28577232Y-69854462D01*
%TO.C,OUT*%
D12*
X29750000Y-132309523D02*
X28988095Y-132309523D01*
X28607142Y-132500000D01*
X28226190Y-132880952D01*
X28035714Y-133642857D01*
X28035714Y-134976190D01*
X28226190Y-135738095D01*
X28607142Y-136119047D01*
X28988095Y-136309523D01*
X29750000Y-136309523D01*
X30130952Y-136119047D01*
X30511904Y-135738095D01*
X30702380Y-134976190D01*
X30702380Y-133642857D01*
X30511904Y-132880952D01*
X30130952Y-132500000D01*
X29750000Y-132309523D01*
X26321428Y-132309523D02*
X26321428Y-135547619D01*
X26130952Y-135928571D01*
X25940476Y-136119047D01*
X25559523Y-136309523D01*
X24797619Y-136309523D01*
X24416666Y-136119047D01*
X24226190Y-135928571D01*
X24035714Y-135547619D01*
X24035714Y-132309523D01*
X22702380Y-132309523D02*
X20416666Y-132309523D01*
X21559523Y-136309523D02*
X21559523Y-132309523D01*
%TD*%
M02*
