%TF.GenerationSoftware,KiCad,Pcbnew,5.1.6+dfsg1-1*%
%TF.CreationDate,2020-08-19T02:21:13+02:00*%
%TF.ProjectId,midi_breakout,6d696469-5f62-4726-9561-6b6f75742e6b,rev?*%
%TF.SameCoordinates,Original*%
%TF.FileFunction,Copper,L2,Bot*%
%TF.FilePolarity,Positive*%
%FSLAX46Y46*%
G04 Gerber Fmt 4.6, Leading zero omitted, Abs format (unit mm)*
G04 Created by KiCad (PCBNEW 5.1.6+dfsg1-1) date 2020-08-19 02:21:13*
%MOMM*%
%LPD*%
G01*
G04 APERTURE LIST*
%TA.AperFunction,WasherPad*%
%ADD10C,4.000000*%
%TD*%
%TA.AperFunction,WasherPad*%
%ADD11C,16.000000*%
%TD*%
%TA.AperFunction,ViaPad*%
%ADD12C,0.800000*%
%TD*%
%TA.AperFunction,Conductor*%
%ADD13C,0.250000*%
%TD*%
G04 APERTURE END LIST*
D10*
%TO.P,IN,*%
%TO.N,*%
X25000000Y-52600000D03*
X25000000Y-30400000D03*
D11*
X25000000Y-41500000D03*
%TD*%
D10*
%TO.P,OUT,*%
%TO.N,*%
X25500000Y-128600000D03*
X25500000Y-106400000D03*
D11*
X25500000Y-117500000D03*
%TD*%
D12*
%TO.N,Midi_in_-*%
X35267900Y-61473080D03*
X33657540Y-76713080D03*
X26710640Y-55753000D03*
%TO.N,Net-(D1-Pad6)*%
X31056580Y-48897540D03*
X30065980Y-62338120D03*
%TO.N,Midi_out_-*%
X33027620Y-81577180D03*
X30093920Y-95763080D03*
X31455360Y-102725220D03*
%TO.N,Midi_out_+*%
X34744660Y-97858580D03*
X31958280Y-124714000D03*
X31556960Y-90487500D03*
%TD*%
D13*
%TO.N,Midi_in_-*%
X26936700Y-60773162D02*
X27429460Y-61265922D01*
X26936700Y-56921400D02*
X26936700Y-60773162D01*
X27429460Y-61265922D02*
X29226658Y-63063120D01*
X33677860Y-63063120D02*
X35267900Y-61473080D01*
X29226658Y-63063120D02*
X33677860Y-63063120D01*
X29226658Y-63063120D02*
X29088080Y-63063120D01*
X33677860Y-76692760D02*
X33657540Y-76713080D01*
X33677860Y-63063120D02*
X33677860Y-76692760D01*
X26710640Y-56695340D02*
X26936700Y-56921400D01*
X26710640Y-55753000D02*
X26710640Y-56695340D01*
%TO.N,Net-(D1-Pad6)*%
X31056580Y-48897540D02*
X31056580Y-57111900D01*
X31056580Y-61347520D02*
X31056580Y-57111900D01*
X30065980Y-62338120D02*
X31056580Y-61347520D01*
%TO.N,Midi_out_-*%
X30093920Y-95763080D02*
X30789880Y-95763080D01*
X30789880Y-95763080D02*
X32946340Y-97919540D01*
X32946340Y-101234240D02*
X31455360Y-102725220D01*
X32946340Y-97919540D02*
X32946340Y-101234240D01*
%TO.N,Midi_out_+*%
X34744660Y-121927620D02*
X31958280Y-124714000D01*
X34744660Y-97858580D02*
X34744660Y-121927620D01*
X34744660Y-97858580D02*
X32656780Y-95770700D01*
X32656780Y-91587320D02*
X31556960Y-90487500D01*
X32656780Y-95770700D02*
X32656780Y-91587320D01*
%TD*%
M02*
