%TF.GenerationSoftware,KiCad,Pcbnew,5.1.6+dfsg1-1*%
%TF.CreationDate,2020-08-19T02:21:13+02:00*%
%TF.ProjectId,midi_breakout,6d696469-5f62-4726-9561-6b6f75742e6b,rev?*%
%TF.SameCoordinates,Original*%
%TF.FileFunction,Paste,Top*%
%TF.FilePolarity,Positive*%
%FSLAX46Y46*%
G04 Gerber Fmt 4.6, Leading zero omitted, Abs format (unit mm)*
G04 Created by KiCad (PCBNEW 5.1.6+dfsg1-1) date 2020-08-19 02:21:13*
%MOMM*%
%LPD*%
G01*
G04 APERTURE LIST*
%ADD10R,1.500000X0.400000*%
%ADD11R,2.510000X1.000000*%
%ADD12O,2.000000X6.000000*%
G04 APERTURE END LIST*
D10*
%TO.C,D1*%
X30674000Y-61480460D03*
X30674000Y-60830460D03*
X30674000Y-60180460D03*
X33334000Y-60180460D03*
X33334000Y-60830460D03*
X33334000Y-61480460D03*
%TD*%
%TO.C,D2*%
G36*
G01*
X29984860Y-100825010D02*
X29984860Y-99912510D01*
G75*
G02*
X30228610Y-99668760I243750J0D01*
G01*
X30716110Y-99668760D01*
G75*
G02*
X30959860Y-99912510I0J-243750D01*
G01*
X30959860Y-100825010D01*
G75*
G02*
X30716110Y-101068760I-243750J0D01*
G01*
X30228610Y-101068760D01*
G75*
G02*
X29984860Y-100825010I0J243750D01*
G01*
G37*
G36*
G01*
X28109860Y-100825010D02*
X28109860Y-99912510D01*
G75*
G02*
X28353610Y-99668760I243750J0D01*
G01*
X28841110Y-99668760D01*
G75*
G02*
X29084860Y-99912510I0J-243750D01*
G01*
X29084860Y-100825010D01*
G75*
G02*
X28841110Y-101068760I-243750J0D01*
G01*
X28353610Y-101068760D01*
G75*
G02*
X28109860Y-100825010I0J243750D01*
G01*
G37*
%TD*%
%TO.C,D3*%
G36*
G01*
X21195860Y-57012950D02*
X21195860Y-57925450D01*
G75*
G02*
X20952110Y-58169200I-243750J0D01*
G01*
X20464610Y-58169200D01*
G75*
G02*
X20220860Y-57925450I0J243750D01*
G01*
X20220860Y-57012950D01*
G75*
G02*
X20464610Y-56769200I243750J0D01*
G01*
X20952110Y-56769200D01*
G75*
G02*
X21195860Y-57012950I0J-243750D01*
G01*
G37*
G36*
G01*
X23070860Y-57012950D02*
X23070860Y-57925450D01*
G75*
G02*
X22827110Y-58169200I-243750J0D01*
G01*
X22339610Y-58169200D01*
G75*
G02*
X22095860Y-57925450I0J243750D01*
G01*
X22095860Y-57012950D01*
G75*
G02*
X22339610Y-56769200I243750J0D01*
G01*
X22827110Y-56769200D01*
G75*
G02*
X23070860Y-57012950I0J-243750D01*
G01*
G37*
%TD*%
D11*
%TO.C,J6*%
X30095000Y-76440000D03*
X30095000Y-81520000D03*
X33405000Y-78980000D03*
X33405000Y-84060000D03*
%TD*%
D12*
%TO.C,IN*%
X33000000Y-52500000D03*
X18000000Y-52500000D03*
X31000000Y-30500000D03*
X29000000Y-52500000D03*
X18000000Y-30500000D03*
%TD*%
D11*
%TO.C,IN AB*%
X29345000Y-68000000D03*
X32655000Y-65460000D03*
X32655000Y-70540000D03*
%TD*%
D12*
%TO.C,OUT*%
X33500000Y-128500000D03*
X18500000Y-128500000D03*
X31500000Y-106500000D03*
X29500000Y-128500000D03*
X18500000Y-106500000D03*
%TD*%
%TO.C,R1*%
G36*
G01*
X33049999Y-100475000D02*
X33950001Y-100475000D01*
G75*
G02*
X34200000Y-100724999I0J-249999D01*
G01*
X34200000Y-101375001D01*
G75*
G02*
X33950001Y-101625000I-249999J0D01*
G01*
X33049999Y-101625000D01*
G75*
G02*
X32800000Y-101375001I0J249999D01*
G01*
X32800000Y-100724999D01*
G75*
G02*
X33049999Y-100475000I249999J0D01*
G01*
G37*
G36*
G01*
X33049999Y-98425000D02*
X33950001Y-98425000D01*
G75*
G02*
X34200000Y-98674999I0J-249999D01*
G01*
X34200000Y-99325001D01*
G75*
G02*
X33950001Y-99575000I-249999J0D01*
G01*
X33049999Y-99575000D01*
G75*
G02*
X32800000Y-99325001I0J249999D01*
G01*
X32800000Y-98674999D01*
G75*
G02*
X33049999Y-98425000I249999J0D01*
G01*
G37*
%TD*%
%TO.C,R2*%
G36*
G01*
X25366560Y-58744699D02*
X25366560Y-59644701D01*
G75*
G02*
X25116561Y-59894700I-249999J0D01*
G01*
X24466559Y-59894700D01*
G75*
G02*
X24216560Y-59644701I0J249999D01*
G01*
X24216560Y-58744699D01*
G75*
G02*
X24466559Y-58494700I249999J0D01*
G01*
X25116561Y-58494700D01*
G75*
G02*
X25366560Y-58744699I0J-249999D01*
G01*
G37*
G36*
G01*
X27416560Y-58744699D02*
X27416560Y-59644701D01*
G75*
G02*
X27166561Y-59894700I-249999J0D01*
G01*
X26516559Y-59894700D01*
G75*
G02*
X26266560Y-59644701I0J249999D01*
G01*
X26266560Y-58744699D01*
G75*
G02*
X26516559Y-58494700I249999J0D01*
G01*
X27166561Y-58494700D01*
G75*
G02*
X27416560Y-58744699I0J-249999D01*
G01*
G37*
%TD*%
D11*
%TO.C,MIDI_OUT_A1*%
X30345000Y-93000000D03*
X33655000Y-90460000D03*
X33655000Y-95540000D03*
%TD*%
M02*
