%TF.GenerationSoftware,KiCad,Pcbnew,5.1.6+dfsg1-1*%
%TF.CreationDate,2020-08-19T02:21:13+02:00*%
%TF.ProjectId,midi_breakout,6d696469-5f62-4726-9561-6b6f75742e6b,rev?*%
%TF.SameCoordinates,Original*%
%TF.FileFunction,Legend,Top*%
%TF.FilePolarity,Positive*%
%FSLAX46Y46*%
G04 Gerber Fmt 4.6, Leading zero omitted, Abs format (unit mm)*
G04 Created by KiCad (PCBNEW 5.1.6+dfsg1-1) date 2020-08-19 02:21:13*
%MOMM*%
%LPD*%
G01*
G04 APERTURE LIST*
%ADD10C,0.300000*%
%ADD11C,0.120000*%
%ADD12C,0.150000*%
G04 APERTURE END LIST*
D10*
X18240288Y-133887471D02*
X18240288Y-134958900D01*
X18168860Y-135173185D01*
X18026002Y-135316042D01*
X17811717Y-135387471D01*
X17668860Y-135387471D01*
X19668860Y-135387471D02*
X18954574Y-135387471D01*
X18954574Y-133887471D01*
X21026002Y-135244614D02*
X20954574Y-135316042D01*
X20740288Y-135387471D01*
X20597431Y-135387471D01*
X20383145Y-135316042D01*
X20240288Y-135173185D01*
X20168860Y-135030328D01*
X20097431Y-134744614D01*
X20097431Y-134530328D01*
X20168860Y-134244614D01*
X20240288Y-134101757D01*
X20383145Y-133958900D01*
X20597431Y-133887471D01*
X20740288Y-133887471D01*
X20954574Y-133958900D01*
X21026002Y-134030328D01*
X22097431Y-133887471D02*
X22097431Y-134958900D01*
X22026002Y-135173185D01*
X21883145Y-135316042D01*
X21668860Y-135387471D01*
X21526002Y-135387471D01*
X23526002Y-135387471D02*
X22811717Y-135387471D01*
X22811717Y-133887471D01*
X24883145Y-135244614D02*
X24811717Y-135316042D01*
X24597431Y-135387471D01*
X24454574Y-135387471D01*
X24240288Y-135316042D01*
X24097431Y-135173185D01*
X24026002Y-135030328D01*
X23954574Y-134744614D01*
X23954574Y-134530328D01*
X24026002Y-134244614D01*
X24097431Y-134101757D01*
X24240288Y-133958900D01*
X24454574Y-133887471D01*
X24597431Y-133887471D01*
X24811717Y-133958900D01*
X24883145Y-134030328D01*
X25954574Y-133887471D02*
X25954574Y-134958900D01*
X25883145Y-135173185D01*
X25740288Y-135316042D01*
X25526002Y-135387471D01*
X25383145Y-135387471D01*
X27383145Y-135387471D02*
X26668860Y-135387471D01*
X26668860Y-133887471D01*
X28740288Y-135244614D02*
X28668860Y-135316042D01*
X28454574Y-135387471D01*
X28311717Y-135387471D01*
X28097431Y-135316042D01*
X27954574Y-135173185D01*
X27883145Y-135030328D01*
X27811717Y-134744614D01*
X27811717Y-134530328D01*
X27883145Y-134244614D01*
X27954574Y-134101757D01*
X28097431Y-133958900D01*
X28311717Y-133887471D01*
X28454574Y-133887471D01*
X28668860Y-133958900D01*
X28740288Y-134030328D01*
X29811717Y-133887471D02*
X29811717Y-134958900D01*
X29740288Y-135173185D01*
X29597431Y-135316042D01*
X29383145Y-135387471D01*
X29240288Y-135387471D01*
X31240288Y-135387471D02*
X30526002Y-135387471D01*
X30526002Y-133887471D01*
X32597431Y-135244614D02*
X32526002Y-135316042D01*
X32311717Y-135387471D01*
X32168860Y-135387471D01*
X31954574Y-135316042D01*
X31811717Y-135173185D01*
X31740288Y-135030328D01*
X31668860Y-134744614D01*
X31668860Y-134530328D01*
X31740288Y-134244614D01*
X31811717Y-134101757D01*
X31954574Y-133958900D01*
X32168860Y-133887471D01*
X32311717Y-133887471D01*
X32526002Y-133958900D01*
X32597431Y-134030328D01*
D11*
%TO.C,D1*%
X32704000Y-59670460D02*
X31304000Y-59670460D01*
X31304000Y-61990460D02*
X33204000Y-61990460D01*
%TO.C,D2*%
X27849860Y-101328760D02*
X30534860Y-101328760D01*
X27849860Y-99408760D02*
X27849860Y-101328760D01*
X30534860Y-99408760D02*
X27849860Y-99408760D01*
%TO.C,D3*%
X23330860Y-56509200D02*
X20645860Y-56509200D01*
X23330860Y-58429200D02*
X23330860Y-56509200D01*
X20645860Y-58429200D02*
X23330860Y-58429200D01*
%TO.C,J6*%
X33080000Y-78220000D02*
X33080000Y-75110000D01*
X33080000Y-83300000D02*
X33080000Y-79740000D01*
X30420000Y-80760000D02*
X30420000Y-77200000D01*
X30420000Y-75680000D02*
X30420000Y-75110000D01*
X33080000Y-85390000D02*
X33080000Y-84820000D01*
X33080000Y-84820000D02*
X34600000Y-84820000D01*
X30420000Y-85390000D02*
X30420000Y-82280000D01*
X33080000Y-75110000D02*
X30420000Y-75110000D01*
X33080000Y-85390000D02*
X30420000Y-85390000D01*
D12*
%TO.C,IN*%
X33000000Y-41500000D02*
G75*
G03*
X33000000Y-41500000I-8000000J0D01*
G01*
D11*
%TO.C,IN AB*%
X32330000Y-69780000D02*
X32330000Y-66220000D01*
X29670000Y-67240000D02*
X29670000Y-64130000D01*
X29670000Y-64700000D02*
X29670000Y-64130000D01*
X32330000Y-71870000D02*
X32330000Y-71300000D01*
X32330000Y-71300000D02*
X33850000Y-71300000D01*
X29670000Y-71870000D02*
X29670000Y-68760000D01*
X32330000Y-64130000D02*
X29670000Y-64130000D01*
X32330000Y-71870000D02*
X29670000Y-71870000D01*
D12*
%TO.C,OUT*%
X33500000Y-117500000D02*
G75*
G03*
X33500000Y-117500000I-8000000J0D01*
G01*
D11*
%TO.C,R1*%
X32790000Y-99763748D02*
X32790000Y-100286252D01*
X34210000Y-99763748D02*
X34210000Y-100286252D01*
%TO.C,R2*%
X26077812Y-58484700D02*
X25555308Y-58484700D01*
X26077812Y-59904700D02*
X25555308Y-59904700D01*
%TO.C,MIDI_OUT_A1*%
X33330000Y-94780000D02*
X33330000Y-91220000D01*
X30670000Y-92240000D02*
X30670000Y-89130000D01*
X30670000Y-89700000D02*
X30670000Y-89130000D01*
X33330000Y-96870000D02*
X33330000Y-96300000D01*
X33330000Y-96300000D02*
X34850000Y-96300000D01*
X30670000Y-96870000D02*
X30670000Y-93760000D01*
X33330000Y-89130000D02*
X30670000Y-89130000D01*
X33330000Y-96870000D02*
X30670000Y-96870000D01*
%TD*%
%TO.C,REF\u002A\u002A*%
D12*
X29416666Y-137402380D02*
X29083333Y-136926190D01*
X28845238Y-137402380D02*
X28845238Y-136402380D01*
X29226190Y-136402380D01*
X29321428Y-136450000D01*
X29369047Y-136497619D01*
X29416666Y-136592857D01*
X29416666Y-136735714D01*
X29369047Y-136830952D01*
X29321428Y-136878571D01*
X29226190Y-136926190D01*
X28845238Y-136926190D01*
X29845238Y-136878571D02*
X30178571Y-136878571D01*
X30321428Y-137402380D02*
X29845238Y-137402380D01*
X29845238Y-136402380D01*
X30321428Y-136402380D01*
X31083333Y-136878571D02*
X30750000Y-136878571D01*
X30750000Y-137402380D02*
X30750000Y-136402380D01*
X31226190Y-136402380D01*
X31750000Y-136402380D02*
X31750000Y-136640476D01*
X31511904Y-136545238D02*
X31750000Y-136640476D01*
X31988095Y-136545238D01*
X31607142Y-136830952D02*
X31750000Y-136640476D01*
X31892857Y-136830952D01*
X32511904Y-136402380D02*
X32511904Y-136640476D01*
X32273809Y-136545238D02*
X32511904Y-136640476D01*
X32750000Y-136545238D01*
X32369047Y-136830952D02*
X32511904Y-136640476D01*
X32654761Y-136830952D01*
X26370446Y-18991840D02*
X26037113Y-18515650D01*
X25799018Y-18991840D02*
X25799018Y-17991840D01*
X26179970Y-17991840D01*
X26275208Y-18039460D01*
X26322827Y-18087079D01*
X26370446Y-18182317D01*
X26370446Y-18325174D01*
X26322827Y-18420412D01*
X26275208Y-18468031D01*
X26179970Y-18515650D01*
X25799018Y-18515650D01*
X26799018Y-18468031D02*
X27132351Y-18468031D01*
X27275208Y-18991840D02*
X26799018Y-18991840D01*
X26799018Y-17991840D01*
X27275208Y-17991840D01*
X28037113Y-18468031D02*
X27703780Y-18468031D01*
X27703780Y-18991840D02*
X27703780Y-17991840D01*
X28179970Y-17991840D01*
X28703780Y-17991840D02*
X28703780Y-18229936D01*
X28465684Y-18134698D02*
X28703780Y-18229936D01*
X28941875Y-18134698D01*
X28560922Y-18420412D02*
X28703780Y-18229936D01*
X28846637Y-18420412D01*
X29465684Y-17991840D02*
X29465684Y-18229936D01*
X29227589Y-18134698D02*
X29465684Y-18229936D01*
X29703780Y-18134698D01*
X29322827Y-18420412D02*
X29465684Y-18229936D01*
X29608541Y-18420412D01*
X19666666Y-87952380D02*
X19333333Y-87476190D01*
X19095238Y-87952380D02*
X19095238Y-86952380D01*
X19476190Y-86952380D01*
X19571428Y-87000000D01*
X19619047Y-87047619D01*
X19666666Y-87142857D01*
X19666666Y-87285714D01*
X19619047Y-87380952D01*
X19571428Y-87428571D01*
X19476190Y-87476190D01*
X19095238Y-87476190D01*
X20095238Y-87428571D02*
X20428571Y-87428571D01*
X20571428Y-87952380D02*
X20095238Y-87952380D01*
X20095238Y-86952380D01*
X20571428Y-86952380D01*
X21333333Y-87428571D02*
X21000000Y-87428571D01*
X21000000Y-87952380D02*
X21000000Y-86952380D01*
X21476190Y-86952380D01*
X22000000Y-86952380D02*
X22000000Y-87190476D01*
X21761904Y-87095238D02*
X22000000Y-87190476D01*
X22238095Y-87095238D01*
X21857142Y-87380952D02*
X22000000Y-87190476D01*
X22142857Y-87380952D01*
X22761904Y-86952380D02*
X22761904Y-87190476D01*
X22523809Y-87095238D02*
X22761904Y-87190476D01*
X23000000Y-87095238D01*
X22619047Y-87380952D02*
X22761904Y-87190476D01*
X22904761Y-87380952D01*
X19666666Y-74202380D02*
X19333333Y-73726190D01*
X19095238Y-74202380D02*
X19095238Y-73202380D01*
X19476190Y-73202380D01*
X19571428Y-73250000D01*
X19619047Y-73297619D01*
X19666666Y-73392857D01*
X19666666Y-73535714D01*
X19619047Y-73630952D01*
X19571428Y-73678571D01*
X19476190Y-73726190D01*
X19095238Y-73726190D01*
X20095238Y-73678571D02*
X20428571Y-73678571D01*
X20571428Y-74202380D02*
X20095238Y-74202380D01*
X20095238Y-73202380D01*
X20571428Y-73202380D01*
X21333333Y-73678571D02*
X21000000Y-73678571D01*
X21000000Y-74202380D02*
X21000000Y-73202380D01*
X21476190Y-73202380D01*
X22000000Y-73202380D02*
X22000000Y-73440476D01*
X21761904Y-73345238D02*
X22000000Y-73440476D01*
X22238095Y-73345238D01*
X21857142Y-73630952D02*
X22000000Y-73440476D01*
X22142857Y-73630952D01*
X22761904Y-73202380D02*
X22761904Y-73440476D01*
X22523809Y-73345238D02*
X22761904Y-73440476D01*
X23000000Y-73345238D01*
X22619047Y-73630952D02*
X22761904Y-73440476D01*
X22904761Y-73630952D01*
X19666666Y-59452380D02*
X19333333Y-58976190D01*
X19095238Y-59452380D02*
X19095238Y-58452380D01*
X19476190Y-58452380D01*
X19571428Y-58500000D01*
X19619047Y-58547619D01*
X19666666Y-58642857D01*
X19666666Y-58785714D01*
X19619047Y-58880952D01*
X19571428Y-58928571D01*
X19476190Y-58976190D01*
X19095238Y-58976190D01*
X20095238Y-58928571D02*
X20428571Y-58928571D01*
X20571428Y-59452380D02*
X20095238Y-59452380D01*
X20095238Y-58452380D01*
X20571428Y-58452380D01*
X21333333Y-58928571D02*
X21000000Y-58928571D01*
X21000000Y-59452380D02*
X21000000Y-58452380D01*
X21476190Y-58452380D01*
X22000000Y-58452380D02*
X22000000Y-58690476D01*
X21761904Y-58595238D02*
X22000000Y-58690476D01*
X22238095Y-58595238D01*
X21857142Y-58880952D02*
X22000000Y-58690476D01*
X22142857Y-58880952D01*
X22761904Y-58452380D02*
X22761904Y-58690476D01*
X22523809Y-58595238D02*
X22761904Y-58690476D01*
X23000000Y-58595238D01*
X22619047Y-58880952D02*
X22761904Y-58690476D01*
X22904761Y-58880952D01*
%TO.C,D1*%
X31265904Y-63282840D02*
X31265904Y-62282840D01*
X31504000Y-62282840D01*
X31646857Y-62330460D01*
X31742095Y-62425698D01*
X31789714Y-62520936D01*
X31837333Y-62711412D01*
X31837333Y-62854269D01*
X31789714Y-63044745D01*
X31742095Y-63139983D01*
X31646857Y-63235221D01*
X31504000Y-63282840D01*
X31265904Y-63282840D01*
X32789714Y-63282840D02*
X32218285Y-63282840D01*
X32504000Y-63282840D02*
X32504000Y-62282840D01*
X32408761Y-62425698D01*
X32313523Y-62520936D01*
X32218285Y-62568555D01*
%TO.C,D2*%
X28796764Y-99171140D02*
X28796764Y-98171140D01*
X29034860Y-98171140D01*
X29177717Y-98218760D01*
X29272955Y-98313998D01*
X29320574Y-98409236D01*
X29368193Y-98599712D01*
X29368193Y-98742569D01*
X29320574Y-98933045D01*
X29272955Y-99028283D01*
X29177717Y-99123521D01*
X29034860Y-99171140D01*
X28796764Y-99171140D01*
X29749145Y-98266379D02*
X29796764Y-98218760D01*
X29892002Y-98171140D01*
X30130098Y-98171140D01*
X30225336Y-98218760D01*
X30272955Y-98266379D01*
X30320574Y-98361617D01*
X30320574Y-98456855D01*
X30272955Y-98599712D01*
X29701526Y-99171140D01*
X30320574Y-99171140D01*
%TO.C,D3*%
X20907764Y-59571580D02*
X20907764Y-58571580D01*
X21145860Y-58571580D01*
X21288717Y-58619200D01*
X21383955Y-58714438D01*
X21431574Y-58809676D01*
X21479193Y-59000152D01*
X21479193Y-59143009D01*
X21431574Y-59333485D01*
X21383955Y-59428723D01*
X21288717Y-59523961D01*
X21145860Y-59571580D01*
X20907764Y-59571580D01*
X21812526Y-58571580D02*
X22431574Y-58571580D01*
X22098240Y-58952533D01*
X22241098Y-58952533D01*
X22336336Y-59000152D01*
X22383955Y-59047771D01*
X22431574Y-59143009D01*
X22431574Y-59381104D01*
X22383955Y-59476342D01*
X22336336Y-59523961D01*
X22241098Y-59571580D01*
X21955383Y-59571580D01*
X21860145Y-59523961D01*
X21812526Y-59476342D01*
%TO.C,J6*%
X31416666Y-85842380D02*
X31416666Y-86556666D01*
X31369047Y-86699523D01*
X31273809Y-86794761D01*
X31130952Y-86842380D01*
X31035714Y-86842380D01*
X32321428Y-85842380D02*
X32130952Y-85842380D01*
X32035714Y-85890000D01*
X31988095Y-85937619D01*
X31892857Y-86080476D01*
X31845238Y-86270952D01*
X31845238Y-86651904D01*
X31892857Y-86747142D01*
X31940476Y-86794761D01*
X32035714Y-86842380D01*
X32226190Y-86842380D01*
X32321428Y-86794761D01*
X32369047Y-86747142D01*
X32416666Y-86651904D01*
X32416666Y-86413809D01*
X32369047Y-86318571D01*
X32321428Y-86270952D01*
X32226190Y-86223333D01*
X32035714Y-86223333D01*
X31940476Y-86270952D01*
X31892857Y-86318571D01*
X31845238Y-86413809D01*
%TO.C,R1*%
X35602380Y-100191666D02*
X35126190Y-100525000D01*
X35602380Y-100763095D02*
X34602380Y-100763095D01*
X34602380Y-100382142D01*
X34650000Y-100286904D01*
X34697619Y-100239285D01*
X34792857Y-100191666D01*
X34935714Y-100191666D01*
X35030952Y-100239285D01*
X35078571Y-100286904D01*
X35126190Y-100382142D01*
X35126190Y-100763095D01*
X35602380Y-99239285D02*
X35602380Y-99810714D01*
X35602380Y-99525000D02*
X34602380Y-99525000D01*
X34745238Y-99620238D01*
X34840476Y-99715476D01*
X34888095Y-99810714D01*
%TO.C,R2*%
X25649893Y-61297080D02*
X25316560Y-60820890D01*
X25078464Y-61297080D02*
X25078464Y-60297080D01*
X25459417Y-60297080D01*
X25554655Y-60344700D01*
X25602274Y-60392319D01*
X25649893Y-60487557D01*
X25649893Y-60630414D01*
X25602274Y-60725652D01*
X25554655Y-60773271D01*
X25459417Y-60820890D01*
X25078464Y-60820890D01*
X26030845Y-60392319D02*
X26078464Y-60344700D01*
X26173702Y-60297080D01*
X26411798Y-60297080D01*
X26507036Y-60344700D01*
X26554655Y-60392319D01*
X26602274Y-60487557D01*
X26602274Y-60582795D01*
X26554655Y-60725652D01*
X25983226Y-61297080D01*
X26602274Y-61297080D01*
%TO.C,MIDI_OUT_A1*%
X27595238Y-98322380D02*
X27595238Y-97322380D01*
X27928571Y-98036666D01*
X28261904Y-97322380D01*
X28261904Y-98322380D01*
X28738095Y-98322380D02*
X28738095Y-97322380D01*
X29214285Y-98322380D02*
X29214285Y-97322380D01*
X29452380Y-97322380D01*
X29595238Y-97370000D01*
X29690476Y-97465238D01*
X29738095Y-97560476D01*
X29785714Y-97750952D01*
X29785714Y-97893809D01*
X29738095Y-98084285D01*
X29690476Y-98179523D01*
X29595238Y-98274761D01*
X29452380Y-98322380D01*
X29214285Y-98322380D01*
X30214285Y-98322380D02*
X30214285Y-97322380D01*
X30452380Y-98417619D02*
X31214285Y-98417619D01*
X31642857Y-97322380D02*
X31833333Y-97322380D01*
X31928571Y-97370000D01*
X32023809Y-97465238D01*
X32071428Y-97655714D01*
X32071428Y-97989047D01*
X32023809Y-98179523D01*
X31928571Y-98274761D01*
X31833333Y-98322380D01*
X31642857Y-98322380D01*
X31547619Y-98274761D01*
X31452380Y-98179523D01*
X31404761Y-97989047D01*
X31404761Y-97655714D01*
X31452380Y-97465238D01*
X31547619Y-97370000D01*
X31642857Y-97322380D01*
X32500000Y-97322380D02*
X32500000Y-98131904D01*
X32547619Y-98227142D01*
X32595238Y-98274761D01*
X32690476Y-98322380D01*
X32880952Y-98322380D01*
X32976190Y-98274761D01*
X33023809Y-98227142D01*
X33071428Y-98131904D01*
X33071428Y-97322380D01*
X33404761Y-97322380D02*
X33976190Y-97322380D01*
X33690476Y-98322380D02*
X33690476Y-97322380D01*
X34071428Y-98417619D02*
X34833333Y-98417619D01*
X35023809Y-98036666D02*
X35500000Y-98036666D01*
X34928571Y-98322380D02*
X35261904Y-97322380D01*
X35595238Y-98322380D01*
X36452380Y-98322380D02*
X35880952Y-98322380D01*
X36166666Y-98322380D02*
X36166666Y-97322380D01*
X36071428Y-97465238D01*
X35976190Y-97560476D01*
X35880952Y-97608095D01*
%TD*%
M02*
